<?xml version="1.0" standalone="no"?>
<!DOCTYPE svg PUBLIC "-//W3C//DTD SVG 1.1//EN" "http://www.w3.org/Graphics/SVG/1.1/DTD/svg11.dtd" >
<svg xmlns="http://www.w3.org/2000/svg" xmlns:xlink="http://www.w3.org/1999/xlink" version="1.1">
<metadata></metadata>
<defs>
<font id="barlow_condensedlight_italic" horiz-adv-x="0" >
<font-face units-per-em="1000" ascent="800" descent="-200" />
<missing-glyph horiz-adv-x="194" />
<glyph unicode="IJ" horiz-adv-x="611" d="M67 0q-9 0 -9 10l84 680q2 10 11 10h32q10 0 8 -10l-83 -680q-2 -10 -11 -10h-32zM361 -8q-68 0 -105 45t-28 119l11 88q0 10 10 10h32q11 0 9 -10l-11 -89q-6 -52 18 -84t70 -32t77.5 32t38.5 84l65 535q2 10 11 10h32q11 0 9 -10l-66 -534q-9 -74 -56.5 -119 t-116.5 -45z" />
<glyph unicode="ffi" horiz-adv-x="707" d="M183 548l-5 -40q0 -4 3 -4h97q9 0 9 -10l-3 -22q-2 -10 -11 -10h-97q-4 0 -4 -4l-55 -448q-2 -10 -11 -10h-32q-9 0 -9 10l55 448q2 4 -3 4h-41q-10 0 -8 10l2 22q2 10 11 10h41q4 0 4 4l6 43q10 81 43 119.5t99 37.5h12q10 0 8 -10l-2 -20q-2 -10 -11 -10h-11 q-42 -1 -61 -30t-26 -90zM387 551q10 81 43 119.5t99 37.5h12q10 0 8 -10l-2 -20q-2 -10 -11 -10h-11q-42 -1 -61 -30t-26 -90l-5 -40q0 -4 3 -4h80q10 0 8 -10l-2 -22q-2 -10 -11 -10h-80q-4 0 -4 -4l-55 -448q-2 -10 -11 -10h-32q-9 0 -9 10l55 448q2 4 -3 4h-59 q-9 0 -9 10l3 22q2 10 11 10h59q3 0 5 4zM679 693q16 0 25.5 -12.5t7.5 -31.5t-15 -31.5t-29 -12.5q-17 0 -27 12.5t-7 31.5q2 19 15 31.5t30 12.5zM578 0q-10 0 -8 10l59 484q2 10 11 10h32q10 0 8 -10l-59 -484q-2 -10 -11 -10h-32z" />
<glyph unicode="ffl" horiz-adv-x="689" d="M183 548l-5 -40q0 -4 3 -4h97q9 0 9 -10l-3 -22q-2 -10 -11 -10h-97q-4 0 -4 -4l-55 -448q-2 -10 -11 -10h-32q-9 0 -9 10l55 448q2 4 -3 4h-41q-10 0 -8 10l2 22q2 10 11 10h41q4 0 4 4l6 43q10 81 43 119.5t99 37.5h12q10 0 8 -10l-2 -20q-2 -10 -11 -10h-11 q-42 -1 -61 -30t-26 -90zM388 551q10 81 43 119.5t99 37.5h12q10 0 8 -10l-2 -20q-2 -10 -11 -10h-11q-42 -1 -61 -30t-26 -90l-5 -40q0 -4 3 -4h80q10 0 8 -10l-2 -22q-2 -10 -11 -10h-80q-4 0 -4 -4l-55 -448q-2 -10 -11 -10h-32q-9 0 -9 10l55 448q2 4 -3 4h-59 q-9 0 -9 10l3 22q2 10 11 10h59q4 0 4 4zM643 690q2 10 11 10h32q11 0 9 -10l-84 -680q0 -10 -11 -10h-32q-10 0 -8 10z" />
<glyph unicode="fi" horiz-adv-x="452" d="M131 545q10 84 43 123.5t100 39.5h15q10 0 8 -10l-4 -26q-1 -10 -11 -10h-13q-41 0 -60 -28.5t-27 -89.5l-4 -36q0 -4 3 -4h80q10 0 8 -10l-2 -22q-2 -10 -11 -10h-80q-4 0 -4 -4l-55 -448q-2 -10 -11 -10h-32q-9 0 -9 10l55 448q2 4 -3 4h-41q-10 0 -8 10l2 22 q2 10 11 10h41q4 0 4 4zM423 692q18 0 27 -12t7 -31t-14.5 -31.5t-29.5 -12.5t-27 12.5t-8 31.5q3 19 15.5 31t29.5 12zM323 0q-10 0 -8 10l59 484q2 10 11 10h32q10 0 8 -10l-59 -484q-2 -10 -11 -10h-32z" />
<glyph unicode="fl" horiz-adv-x="432" d="M131 545q10 84 43 123.5t100 39.5h15q10 0 8 -10l-4 -26q-1 -10 -11 -10h-13q-41 0 -60 -28.5t-27 -89.5l-4 -36q0 -4 3 -4h80q10 0 8 -10l-2 -22q-2 -10 -11 -10h-80q-4 0 -4 -4l-55 -448q-2 -10 -11 -10h-32q-9 0 -9 10l55 448q2 4 -3 4h-41q-10 0 -8 10l2 22 q2 10 11 10h41q4 0 4 4zM387 690q2 10 11 10h32q11 0 9 -10l-84 -680q0 -10 -11 -10h-32q-10 0 -8 10z" />
<glyph unicode="gj" horiz-adv-x="574" d="M549 693q17 0 27 -12t8 -31q-2 -20 -15 -32t-31 -12q-17 0 -26.5 12t-6.5 32q2 19 15 31t29 12zM320 458q3 -3 5 1l4 35q2 10 11 10h33q9 0 9 -10l-60 -488q-26 -214 -218 -207q-10 0 -8 10l3 27q2 10 11 10q75 -1 112.5 40.5t47.5 123.5l5 38q0 3 -1.5 3.5t-3.5 -2.5 q-40 -54 -106 -54q-60 0 -90 41.5t-22 108.5l26 217q8 67 49 108.5t101 41.5q66 0 92 -54zM432 -55l67 549q2 10 11 10h32q9 0 9 -10l-68 -549q-18 -151 -142 -154q-10 0 -8 10l4 27q1 10 9 10q35 1 57.5 29.5t28.5 77.5zM184 42q40 0 68.5 29t34.5 76l26 212 q6 47 -15.5 76.5t-61.5 29.5q-41 0 -71 -29.5t-36 -76.5l-26 -212q-5 -47 17.5 -76t63.5 -29z" />
<glyph unicode="ij" horiz-adv-x="368" d="M332 605q-17 0 -26 12t-7 32t15 32t29 12q17 0 27.5 -12t7.5 -32q-2 -20 -14.5 -32t-31.5 -12zM150 605q-17 0 -27 12.5t-7 31.5q2 19 15 31t30 12t26 -12t7 -31t-14.5 -31.5t-29.5 -12.5zM60 0q-10 0 -8 10l59 484q2 10 11 10h32q9 0 9 -10l-60 -484q-2 -10 -11 -10h-32 zM130 -209q-11 0 -9 10l3 27q2 10 11 10q78 4 91 107l67 549q2 10 11 10h32q11 0 9 -10l-68 -549q-9 -75 -42.5 -114t-104.5 -40z" />
<glyph unicode="&#x2d;&#x2d;" horiz-adv-x="574" d="M58 283q-10 0 -8 10l3 27q2 10 11 10h489q10 0 8 -10l-3 -27q-2 -10 -11 -10h-489z" />
<glyph unicode="&#xd;" horiz-adv-x="194" />
<glyph unicode=" "  horiz-adv-x="194" />
<glyph unicode="&#x09;" horiz-adv-x="194" />
<glyph unicode="&#xa0;" horiz-adv-x="194" />
<glyph unicode="!" horiz-adv-x="241" d="M116 225q-9 0 -9 10l53 455q2 10 11 10h32q11 0 9 -10l-61 -455q-1 -10 -11 -10h-24zM99 4q-19 0 -30 15t-9 38q3 21 18.5 36.5t33.5 15.5q19 0 31 -15t9 -37q-2 -22 -17.5 -37.5t-35.5 -15.5z" />
<glyph unicode="&#x22;" horiz-adv-x="200" d="M80 493q-9 0 -9 10l17 180q0 10 11 10h33q10 0 8 -10l-28 -180q-1 -10 -11 -10h-21zM179 493q-9 0 -9 10l18 180q0 10 11 10h32q10 0 8 -10l-28 -180q-1 -10 -11 -10h-21z" />
<glyph unicode="#" horiz-adv-x="565" d="M541 446q-2 -10 -11 -10h-60q-5 0 -6 -4l-46 -175q-2 -4 2 -4h56q11 0 9 -10l-4 -27q0 -10 -10 -10h-63q-5 0 -5 -4l-48 -179q-3 -9 -11 -9l-32 1q-11 0 -7 11l46 176q0 4 -3 4h-156q-5 0 -5 -4l-48 -179q-3 -9 -11 -9l-32 1q-11 0 -7 11l45 176q2 4 -2 4h-57q-9 0 -9 10 l4 27q0 10 11 10h64q5 0 5 4l46 175q0 4 -3 4h-59q-10 0 -8 10l3 27q2 10 11 10h66q5 0 5 4l48 180q3 9 11 9l32 -2q10 0 7 -10l-46 -177q0 -4 3 -4h156q5 0 5 4l49 180q3 9 11 9l31 -2q10 0 8 -10l-46 -177q0 -4 2 -4h54q10 0 8 -10zM361 253q5 0 5 4l46 175q0 4 -2 4h-157 q-5 0 -5 -4l-47 -175q0 -4 3 -4h157z" />
<glyph unicode="$" horiz-adv-x="407" d="M365 171q-9 -75 -52 -123t-105 -55q-3 0 -5 -4l-7 -63q-2 -10 -11 -10h-18q-10 0 -8 10l7 63q2 4 -3 4q-58 9 -87.5 56t-21.5 118l3 22q2 10 11 10h31q9 0 9 -10l-3 -20q-7 -59 17.5 -95t70.5 -36t80 35t41 91q3 23 -1.5 43.5t-9 32t-25 33t-27.5 27.5t-38 33 q-34 29 -50.5 45t-36 42.5t-25 56t-0.5 66.5q8 70 48.5 113t98.5 51q4 0 4 4l8 68q0 10 11 10h17q10 0 8 -10l-8 -68q0 -4 3 -4q61 -8 91.5 -55.5t21.5 -121.5l-3 -25q-2 -10 -11 -10h-31q-11 0 -9 10l3 25q7 59 -17 95.5t-71 36.5q-44 0 -75.5 -31.5t-38.5 -88.5 q-6 -49 14.5 -81t80.5 -83q52 -44 75 -68t36.5 -59t7.5 -80z" />
<glyph unicode="%" horiz-adv-x="761" d="M242 433q-55 0 -88.5 40.5t-26.5 98.5q8 57 51 97.5t98 40.5t88.5 -40.5t25.5 -97.5q-7 -58 -50 -98.5t-98 -40.5zM171 0q-5 0 -7.5 3.5t0.5 8.5l440 681q4 7 13 7h20q6 0 7.5 -3.5t-1.5 -8.5l-439 -681q-4 -7 -13 -7h-20zM246 467q40 0 72 30.5t37 74.5q5 43 -19 73 t-64 30t-72.5 -30t-37.5 -73q-5 -44 19 -74.5t65 -30.5zM534 -10q-55 0 -88.5 40.5t-26.5 98.5t50.5 98t98.5 40q54 0 87 -40.5t26 -97.5q-7 -58 -50 -98.5t-97 -40.5zM539 25q40 0 71.5 30.5t36.5 73.5t-19 73.5t-64 30.5q-41 0 -73.5 -30t-37.5 -74t19.5 -74t66.5 -30z " />
<glyph unicode="&#x26;" horiz-adv-x="521" d="M452 12q2 -5 -0.5 -8.5t-8.5 -3.5h-33q-7 0 -11 6l-37 70q-1 3 -5 0q-81 -84 -169 -84q-72 0 -108.5 41.5t-26.5 118.5q8 68 45.5 118t100.5 101q3 1 1 5q-42 81 -51.5 114t-4.5 71q8 67 49 107t99 40t90 -40t25 -105q-5 -42 -29 -81t-47 -61.5t-64 -56.5q-2 -1 -2 -5 q38 -74 51 -98q17 -31 52 -96q2 -3 5 0q19 24 59 83q6 10 14 4l22 -14q7 -5 1 -14q-45 -67 -74 -102q-1 -2 -1 -6zM287 659q-36 0 -61.5 -27t-30.5 -73q-4 -30 4 -58t40 -93q1 -4 5 -1q50 41 78 76.5t33 79.5q5 43 -14 69.5t-54 26.5zM200 39q67 1 136 79q2 3 0 6l-39 74 q-53 96 -71 128q0 4 -5 1q-52 -45 -81.5 -84t-35.5 -90q-7 -54 18.5 -84.5t77.5 -29.5z" />
<glyph unicode="'" horiz-adv-x="103" d="M81 498q-10 0 -9 10l16 180q2 10 11 10h35q9 0 9 -10l-29 -180q-1 -10 -11 -10h-22z" />
<glyph unicode="(" horiz-adv-x="193" d="M55 -107q-8 0 -11 7q-26 74 -34 185t6 238q15 125 52.5 241.5t83.5 192.5q6 7 13 7h29q13 0 6 -11q-41 -79 -75.5 -194t-48.5 -234q-14 -127 -8 -236t28 -185q4 -11 -9 -11h-32z" />
<glyph unicode=")" horiz-adv-x="193" d="M86 -100q-6 -7 -13 -7h-32q-13 0 -6 11q41 77 75 190t48 231q14 130 8.5 239.5t-27.5 188.5q-4 11 9 11h29q8 0 11 -7q28 -75 36 -189.5t-7 -244.5q-15 -121 -51 -234.5t-80 -188.5z" />
<glyph unicode="*" horiz-adv-x="349" d="M196 394q-9 0 -9 10l16 128q0 5 -4 3l-111 -66q-9 -5 -13 4l-6 14q-5 8 4 14l113 66q2 1 2 3t-1 3l-97 66q-7 6 -1 14l9 14q7 9 14 4l95 -66q5 -3 5 3l16 129q2 10 11 10h17q10 0 8 -10l-16 -129q0 -2 2 -3t3 0l110 66q9 6 13 -4l6 -14q4 -9 -5 -14l-112 -66q-1 -1 -1 -3 t1 -3l95 -66q8 -5 1 -14l-9 -14q-7 -9 -14 -4l-94 66q-5 5 -5 -3l-16 -128q-2 -10 -11 -10h-16z" />
<glyph unicode="+" horiz-adv-x="430" d="M409 342q10 0 8 -10l-3 -23q0 -10 -11 -10h-147q-4 0 -4 -4l-19 -151q-2 -10 -11 -10h-21q-9 0 -9 10l19 151q0 4 -4 4h-147q-10 0 -8 10l2 23q2 10 11 10h148q4 0 4 4l19 152q0 10 11 10h21q10 0 8 -10l-18 -152q0 -4 3 -4h148z" />
<glyph unicode="," horiz-adv-x="164" d="M20 -74q-11 0 -7 11l58 208q3 9 11 9h27q11 0 7 -11l-66 -208q-2 -9 -12 -9h-18z" />
<glyph unicode="-" horiz-adv-x="300" d="M59 291q-10 0 -8 10l3 27q2 10 11 10h214q9 0 9 -10l-4 -27q0 -10 -11 -10h-214z" />
<glyph unicode="." horiz-adv-x="187" d="M73 4q-19 0 -30 15.5t-9 37.5q3 21 18.5 36.5t33.5 15.5t30.5 -15.5t9.5 -36.5q-2 -22 -18 -37.5t-35 -15.5z" />
<glyph unicode="/" horiz-adv-x="269" d="M15 0q-12 0 -7 11l249 680q1 9 11 9h32q12 0 7 -11l-249 -680q-2 -9 -11 -9h-32z" />
<glyph unicode="0" horiz-adv-x="393" d="M174 -10q-71 0 -108 48t-27 126l45 372q10 78 59 126t120 48t109.5 -48t28.5 -126l-45 -372q-10 -78 -60.5 -126t-121.5 -48zM180 38q50 0 83.5 33.5t40.5 88.5l47 380q7 55 -18.5 88.5t-75.5 33.5q-47 0 -80.5 -33.5t-40.5 -88.5l-47 -380q-7 -55 18.5 -88.5t72.5 -33.5 z" />
<glyph unicode="1" horiz-adv-x="234" d="M183 696q10 4 14 4h34q11 0 9 -10l-84 -680q0 -10 -10 -10h-33q-10 0 -8 10l77 628q0 6 -4 3l-89 -43q-5 -3 -8.5 -0.5t-2.5 7.5l3 23q1 7 8 12z" />
<glyph unicode="2" horiz-adv-x="380" d="M32 0q-10 0 -8 10l3 30q2 10 5 13q151 214 204 291q79 120 88 193q7 56 -14.5 90t-63.5 34q-41 0 -70 -34t-35 -89l-5 -36q0 -10 -11 -10h-34q-10 0 -8 10l5 38q11 75 56 121.5t109 46.5q65 0 99 -47.5t24 -123.5q-10 -91 -96 -216q-124 -180 -186 -269q-5 -5 2 -5h232 q10 0 8 -10l-3 -27q-2 -10 -11 -10h-290z" />
<glyph unicode="3" horiz-adv-x="405" d="M356 323q8 -41 -1 -114q-5 -53 -19 -92q-19 -59 -61.5 -92t-100.5 -33q-60 0 -94.5 34t-37.5 95q-3 33 2 77q0 10 11 10h32q9 0 8 -10q-3 -40 -2 -66q3 -44 25.5 -68.5t60.5 -24.5t66.5 22.5t42.5 63.5q13 38 18 88q8 63 1 103q-11 79 -84 79q-8 0 -22 -4q-10 -3 -13 2 l-13 16q-4 6 1 14l168 225q2 3 -2 5h-229q-10 0 -8 10l3 27q2 10 11 10h283q9 0 9 -10l-4 -30q-2 -8 -6 -13l-151 -205q-2 -5 2 -5q43 -4 70.5 -35.5t33.5 -78.5z" />
<glyph unicode="4" horiz-adv-x="370" d="M347 243q10 0 8 -10l-3 -28q-2 -10 -11 -10h-29q-4 0 -4 -4l-23 -181q0 -10 -10 -10h-33q-10 0 -8 10l22 181q0 4 -3 4h-215q-11 0 -9 10l3 26q2 8 4 12l204 449q5 8 13 8h35q11 0 6 -11l-200 -441q-2 -5 3 -5h162q4 0 4 4l21 166q0 10 10 10h32q11 0 9 -10l-20 -166 q-2 -4 3 -4h29z" />
<glyph unicode="5" horiz-adv-x="389" d="M358 317q6 -45 -1 -105q-6 -49 -18 -88q-38 -132 -157 -132t-125 135v30q2 10 11 10h32q9 0 9 -10v-26q6 -92 79 -92q68 0 99 87q11 31 18 86q7 53 2 96q-12 76 -77 76q-74 0 -102 -77q-4 -9 -12 -9h-33q-10 0 -8 10l47 382q0 10 11 10h256q10 0 8 -10l-3 -27 q-2 -10 -11 -10h-211q-4 0 -4 -4l-33 -268q0 -6 4 -1q40 51 109 51q99 0 110 -114z" />
<glyph unicode="6" horiz-adv-x="390" d="M360 309q4 -39 -2 -97q-6 -42 -15 -78q-37 -142 -160 -142q-116 0 -122 133q-4 31 3 85l39 329q10 76 56 122.5t112 46.5q61 0 93.5 -46.5t22.5 -122.5l-1 -11q-2 -10 -11 -10h-32q-9 0 -9 10l2 11q7 53 -13.5 87t-57.5 34q-42 0 -72.5 -33.5t-37.5 -87.5l-18 -154 q-1 -3 0.5 -3t3.5 2q37 52 99 52q54 0 84.5 -33t35.5 -94zM293 139q10 48 14 76q6 49 1 93q-9 81 -76 81q-68 0 -98 -86q-13 -40 -18 -88q-5 -37 -5 -82q6 -94 78 -94q74 0 104 100z" />
<glyph unicode="7" horiz-adv-x="344" d="M93 0q-12 0 -7 11l246 638q2 4 -4 4h-194q-5 0 -5 -4l-5 -42q-2 -10 -11 -10h-24q-9 0 -9 10l11 83q0 10 10 10h283q10 0 8 -10l-4 -31q0 -5 -3 -12l-245 -638q-4 -9 -12 -9h-35z" />
<glyph unicode="8" horiz-adv-x="405" d="M302 376q-4 -3 0 -6q31 -19 44 -57q17 -49 7 -120q-5 -50 -24 -96q-48 -105 -148 -105q-98 0 -120 105q-8 45 -1 97q8 65 33 110q21 44 62 66q5 3 0 5q-28 17 -44 53q-17 44 -10 105q8 63 34 104q45 72 134 72q86 0 116 -70q19 -40 11 -107q-7 -60 -34 -102 q-22 -36 -60 -54zM151 528q-6 -52 8 -82q17 -50 72 -50q58 0 88 54q20 32 26 80q7 50 -9 84q-19 48 -72 48q-55 0 -86 -51q-21 -33 -27 -83zM284 120q13 31 18 76q7 54 -3 95q-17 60 -74 60q-59 0 -89 -65q-17 -35 -25 -90q-5 -52 1 -81q12 -76 75 -76q66 0 97 81z" />
<glyph unicode="9" horiz-adv-x="383" d="M367 490l-40 -329q-9 -76 -55.5 -122.5t-112.5 -46.5q-60 0 -92.5 46.5t-23.5 122.5l1 11q2 10 11 10h32q11 0 9 -10l-2 -11q-6 -53 14.5 -87t56.5 -34q42 0 72.5 33.5t37.5 87.5l19 154q-1 4 -5 1q-37 -52 -98 -52q-54 0 -85 33t-36 94q-5 41 3 97q4 39 14 78 q37 142 160 142q57 0 88.5 -33.5t33.5 -99.5q4 -35 -2 -85zM198 311q68 0 98 86q12 37 19 88q5 52 4 82q-6 94 -78 94q-74 0 -103 -100q-10 -41 -14 -76q-7 -47 -2 -93q9 -81 76 -81z" />
<glyph unicode=":" horiz-adv-x="188" d="M118 345q-20 0 -31.5 15.5t-8.5 37.5q2 21 18.5 36t34.5 15t30 -15t9 -36q-3 -22 -18 -37.5t-34 -15.5zM76 6q-19 0 -30.5 15t-9.5 38q3 21 19 36.5t34 15.5t30 -15.5t9 -36.5q-2 -22 -17 -37.5t-35 -15.5z" />
<glyph unicode=";" horiz-adv-x="178" d="M113 355q-19 0 -30.5 15.5t-9.5 37.5q3 21 19 36.5t34 15.5t30 -15.5t10 -36.5q-3 -22 -18.5 -37.5t-34.5 -15.5zM27 -70q-5 0 -7 3.5t-1 7.5l45 199q3 9 11 9h29q4 0 6 -3.5t1 -7.5l-54 -199q-3 -9 -11 -9h-19z" />
<glyph unicode="&#x3c;" horiz-adv-x="430" d="M386 73q-2 -14 -12 -7l-323 178q-7 3 -5 12l4 33q2 10 8 12l367 178q5 3 8 0.5t2 -7.5l-4 -32q0 -7 -8 -12l-321 -152q-5 -3 -1 -6l284 -153q6 -5 5 -12z" />
<glyph unicode="=" horiz-adv-x="430" d="M74 417q-10 0 -8 10l3 23q2 10 11 10h343q9 0 9 -10l-3 -23q-2 -10 -11 -10h-344zM49 206q-11 0 -9 10l3 23q2 10 11 10h343q9 0 9 -10l-3 -23q-2 -10 -11 -10h-343z" />
<glyph unicode="&#x3e;" horiz-adv-x="430" d="M33 66q-5 -3 -8 -0.5t-2 7.5l3 32q2 7 9 12l321 153q5 3 1 6l-284 152q-7 4 -5 12l4 32q0 5 4 7.5t8 -0.5l323 -178q5 -3 5 -12l-4 -33q-2 -10 -8 -12z" />
<glyph unicode="?" horiz-adv-x="341" d="M145 195q-10 0 -8 10l8 65q4 35 20.5 62.5t37.5 47.5t42.5 40t38 50t21.5 69q7 55 -13 88t-59 33q-41 0 -70 -33.5t-36 -88.5l-4 -34q-2 -10 -11 -10l-32 2q-10 0 -8 10l4 32q9 76 54.5 123.5t108.5 47.5t95 -46.5t22 -124.5q-6 -46 -23 -82t-38.5 -58t-42 -40.5 t-36.5 -41t-19 -49.5l-8 -62q-2 -10 -11 -10h-33zM141 3q-17 0 -28.5 15t-8.5 36q2 21 17 36t33 15q17 0 28.5 -15t9.5 -36q-3 -21 -18 -36t-33 -15z" />
<glyph unicode="@" horiz-adv-x="740" d="M465 606q139 0 204 -91t28 -240q-22 -93 -73 -145t-117 -52q-64 0 -84 48q-3 4 -6 0q-34 -50 -90 -50q-44 0 -66.5 29t-12.5 77q3 12 10 39t10 39q4 16 10.5 44.5t7.5 30.5q12 48 43.5 76.5t75.5 28.5q39 0 59 -30q2 -3 5 1l3 15q3 9 11 9h20q5 0 7.5 -3.5t1.5 -7.5 l-52 -211q-11 -44 5 -70.5t54 -26.5q45 0 81 41.5t55 116.5q34 133 -22.5 213.5t-177.5 80.5q-116 0 -215 -87.5t-132 -226.5q-34 -137 23 -220.5t169 -83.5q97 0 164 47q9 6 14 -2l8 -14q4 -8 -4 -14q-78 -56 -194 -56q-131 0 -194.5 95t-25.5 250q38 154 150.5 252 t246.5 98zM335 113q27 0 48 19.5t31 52.5l3 14q2 6 2 9l33 135q4 28 -8.5 44.5t-37.5 16.5q-28 0 -50.5 -19.5t-30.5 -51.5q-14 -52 -18 -75q-5 -22 -19 -73q-7 -33 6 -52.5t41 -19.5z" />
<glyph unicode="A" horiz-adv-x="430" d="M332 0q-10 0 -10 9l-10 131q0 4 -4 4h-189q-6 0 -6 -4l-43 -131q-3 -9 -12 -9h-32q-11 0 -7 11l231 680q2 9 12 9h38q10 0 10 -9l65 -680q0 -11 -10 -11h-33zM130 192q-2 -4 3 -4h170q4 0 4 4l-34 417q-2 8 -4 0z" />
<glyph unicode="B" horiz-adv-x="430" d="M398 189q-10 -89 -62 -139t-130 -50h-139q-9 0 -9 10l84 680q2 10 11 10h133q80 0 120 -47t29 -134q-13 -115 -102 -155q-6 -2 -2 -4q82 -46 67 -171zM193 653q-3 0 -5 -4l-32 -262q0 -4 4 -4h88q56 0 92.5 35t43.5 98q8 65 -19 101t-84 36h-88zM209 48q56 0 92.5 38 t45.5 107q8 70 -19 109t-83 39h-91q-4 0 -4 -4l-35 -285q0 -4 3 -4h91z" />
<glyph unicode="C" horiz-adv-x="428" d="M196 -8q-71 0 -108.5 45.5t-28.5 121.5l47 384q10 75 58.5 120t119.5 45t109 -45t29 -120l-3 -19q0 -11 -11 -11l-32 -2q-10 0 -8 10l3 25q6 52 -19.5 83.5t-73.5 31.5t-80.5 -31.5t-39.5 -83.5l-48 -391q-6 -52 19 -84t73 -32t81 32t40 84l2 23q2 10 11 10l32 -2 q9 0 9 -10l-2 -17q-10 -76 -59 -121.5t-120 -45.5z" />
<glyph unicode="D" horiz-adv-x="449" d="M67 0q-9 0 -9 10l84 680q2 10 11 10h142q72 0 107.5 -49.5t25.5 -134.5l-41 -332q-10 -85 -58 -134.5t-119 -49.5h-143zM115 51q0 -4 3 -4h97q48 1 80.5 38t39.5 100l40 329q8 65 -14.5 102t-71.5 37h-96q-3 0 -5 -4z" />
<glyph unicode="E" horiz-adv-x="414" d="M434 663q-2 -10 -11 -10h-230q-3 0 -5 -4l-33 -271q0 -4 3 -4h148q10 0 8 -10l-3 -27q-2 -10 -11 -10h-147q-3 0 -5 -4l-33 -272q0 -4 3 -4h230q9 0 9 -10l-4 -27q0 -10 -11 -10h-275q-9 0 -9 10l84 680q2 10 11 10h275q11 0 9 -10z" />
<glyph unicode="F" horiz-adv-x="387" d="M432 663q-2 -10 -11 -10h-228q-3 0 -5 -4l-33 -271q0 -4 3 -4h147q10 0 8 -10l-3 -27q-2 -10 -11 -10h-146q-3 0 -5 -4l-38 -313q-2 -10 -11 -10h-32q-9 0 -9 10l84 680q2 10 11 10h273q11 0 9 -10z" />
<glyph unicode="G" horiz-adv-x="427" d="M196 -8q-71 0 -108.5 44.5t-28.5 117.5l48 392q9 73 57.5 117.5t119.5 44.5t109 -44.5t29 -117.5l-5 -44q-2 -10 -11 -10h-32q-9 0 -9 10l6 45q6 52 -19.5 83t-73.5 31t-81 -31t-40 -83l-48 -394q-6 -52 19.5 -83t73.5 -31t81 31t39 83l18 141q0 4 -4 4h-91q-10 0 -8 10 l3 27q2 10 11 10h137q10 0 8 -10l-22 -181q-9 -73 -58 -117.5t-120 -44.5z" />
<glyph unicode="H" horiz-adv-x="456" d="M393 690q2 10 11 10h32q9 0 9 -10l-84 -680q-2 -10 -11 -10h-32q-10 0 -8 10l38 313q0 4 -3 4h-192q-3 0 -5 -4l-38 -313q-2 -10 -11 -10h-32q-9 0 -9 10l84 680q2 10 11 10h32q10 0 8 -10l-38 -312q0 -4 3 -4h193q4 0 4 4z" />
<glyph unicode="I" horiz-adv-x="205" d="M67 0q-9 0 -9 10l84 680q2 10 11 10h32q10 0 8 -10l-83 -680q-2 -10 -11 -10h-32z" />
<glyph unicode="J" horiz-adv-x="406" d="M156 -8q-68 0 -105 45t-28 119l11 88q2 10 11 10h32q10 0 8 -10l-11 -89q-6 -52 18 -84t70 -32t78 32t38 84l66 535q0 10 11 10h32q10 0 8 -10l-65 -534q-10 -74 -58 -119t-116 -45z" />
<glyph unicode="K" horiz-adv-x="429" d="M67 0q-9 0 -9 10l84 680q2 10 11 10h32q10 0 8 -10l-42 -343q0 -3 1.5 -3.5t3.5 2.5l245 347q7 7 13 7h37q5 0 7 -3.5t-2 -8.5l-186 -266q-2 -2 -2 -6l121 -404q3 -12 -10 -12h-37q-8 0 -9 8l-105 360q-1 4 -5 0l-81 -107q-2 -2 -2 -5l-30 -246q-2 -10 -11 -10h-32z" />
<glyph unicode="L" horiz-adv-x="376" d="M67 0q-9 0 -9 10l84 680q2 10 11 10h32q10 0 8 -10l-78 -639q0 -4 3 -4h227q9 0 9 -10l-4 -27q0 -10 -10 -10h-273z" />
<glyph unicode="M" horiz-adv-x="498" d="M66 0q-9 0 -9 10l84 680q2 10 11 10h33q7 0 10 -8l80 -292q1 -2 3 -2t3 2l152 292q4 8 12 8h33q10 0 8 -10l-83 -680q-2 -10 -11 -10h-32q-9 0 -9 10l69 555q0 2 -1 3q-3 1 -4 -2l-137 -258q-3 -8 -10 -8q-9 0 -10 8l-76 258q-2 3 -5 -1l-68 -555q-2 -10 -11 -10h-32z " />
<glyph unicode="N" horiz-adv-x="473" d="M67 0q-9 0 -9 10l84 680q2 10 11 10h34q7 0 10 -8l143 -549q0 -4 3 -2l2 3l67 546q0 10 11 10h31q10 0 8 -10l-83 -680q-2 -10 -11 -10h-34q-9 0 -10 8l-143 550q0 4 -3 2q-1 -1 -2 -3l-66 -547q-2 -10 -11 -10h-32z" />
<glyph unicode="O" horiz-adv-x="437" d="M198 -8q-71 0 -109.5 46.5t-29.5 121.5l47 379q9 76 59 122.5t121 46.5t110 -46.5t30 -122.5l-46 -379q-10 -75 -60.5 -121.5t-121.5 -46.5zM204 39q49 0 83 33t41 86l47 383q7 53 -19.5 86.5t-75.5 33.5q-48 0 -82 -33.5t-40 -86.5l-47 -383q-7 -53 19 -86t74 -33z" />
<glyph unicode="P" horiz-adv-x="423" d="M303 702q68 0 103.5 -52.5t24.5 -137.5q-10 -84 -57.5 -135.5t-114.5 -51.5h-108q-4 0 -4 -4l-38 -311q-2 -10 -11 -10h-32q-9 0 -9 10l84 682q2 10 11 10h151zM257 369q47 0 81 39t42 103q8 65 -16 104t-72 39h-100q-3 0 -5 -4l-34 -277q0 -4 4 -4h100z" />
<glyph unicode="Q" horiz-adv-x="426" d="M281 708q68 0 105 -47.5t27 -123.5l-46 -374q-8 -68 -47.5 -113.5t-97.5 -54.5q-4 -1 -4 -5l-12 -100q-2 -10 -11 -10h-33q-9 0 -9 10l13 100q0 4 -3 5q-55 11 -83 55.5t-20 112.5l46 374q9 76 58 123.5t117 47.5zM315 158l47 384q7 52 -17.5 85.5t-69.5 33.5 q-46 0 -78.5 -33t-38.5 -86l-47 -384q-7 -53 17.5 -86t70.5 -33q45 0 77.5 33.5t38.5 85.5z" />
<glyph unicode="R" horiz-adv-x="423" d="M331 0q-9 0 -11 8l-67 319q-1 3 -4 3h-96q-4 0 -4 -4l-39 -316q-2 -10 -11 -10h-32q-9 0 -9 10l84 682q2 10 11 10h150q69 0 104 -52t25 -136q-9 -68 -43 -115t-85 -63q-5 -2 -3 -5l71 -320q2 -11 -9 -11h-32zM193 654q-3 0 -5 -4l-33 -272q0 -4 3 -4h99q47 0 81.5 38 t41.5 101q8 64 -16 102.5t-72 38.5h-99z" />
<glyph unicode="S" horiz-adv-x="407" d="M188 -8q-69 0 -106 48.5t-28 126.5l3 22q2 10 11 10h31q9 0 9 -10l-3 -20q-7 -59 17.5 -95t70.5 -36t80 35t41 91q3 23 -1.5 43.5t-9 32t-25 33t-27.5 27.5t-38 33q-34 29 -50.5 45t-36 42.5t-25 56t-0.5 66.5q10 77 56.5 121t112.5 44q70 0 107 -49t27 -129l-3 -25 q-2 -10 -11 -10h-31q-11 0 -9 10l3 25q7 59 -17 95.5t-71 36.5q-44 0 -75.5 -31.5t-38.5 -88.5q-6 -49 14.5 -81t80.5 -83q52 -44 75 -68t36.5 -59t7.5 -80q-10 -81 -59 -130t-118 -49z" />
<glyph unicode="T" horiz-adv-x="399" d="M421 700q10 0 8 -10l-3 -27q-2 -10 -11 -10h-129q-3 0 -5 -4l-78 -639q-2 -10 -11 -10h-32q-10 0 -8 10l78 639q0 4 -3 4h-122q-10 0 -8 10l3 27q2 10 11 10h310z" />
<glyph unicode="U" horiz-adv-x="461" d="M210 -8q-73 0 -110 51.5t-26 137.5l62 509q2 10 11 10h32q9 0 9 -10l-64 -515q-8 -61 17 -98.5t74 -37.5t84.5 37.5t42.5 98.5l63 515q2 10 11 10h32q10 0 8 -10l-62 -509q-10 -85 -61 -137t-123 -52z" />
<glyph unicode="V" horiz-adv-x="414" d="M170 0q-10 0 -10 9l-58 680q0 11 10 11h36q8 0 10 -9l42 -588q0 -8 4 0l184 588q3 9 12 9h34q10 0 8 -11l-225 -680q-1 -9 -11 -9h-36z" />
<glyph unicode="W" horiz-adv-x="588" d="M148 0q-9 0 -9 9l-44 680q0 11 10 11h34q10 0 10 -9l30 -567q2 -6 4 0l154 567q3 9 11 9h30q8 0 9 -9l19 -567q2 -6 4 0l161 567q3 9 11 9h34q11 0 7 -11l-204 -680q-3 -9 -12 -9h-31q-8 0 -8 9l-18 566q-2 6 -4 0l-156 -566q-2 -9 -11 -9h-31z" />
<glyph unicode="X" horiz-adv-x="410" d="M28 0q-13 0 -6 12l179 335q1 3 0 6l-96 335q-3 12 9 12h35q7 0 10 -8l74 -285q1 -3 3 -3t3 3l145 285q3 8 11 8h34q12 0 7 -12l-179 -336q-3 -3 -1 -6l97 -334q3 -12 -10 -12h-34q-8 0 -9 8l-75 284q0 3 -2 2.5t-4 -2.5l-145 -284q-4 -8 -12 -8h-34z" />
<glyph unicode="Y" horiz-adv-x="399" d="M164 0q-9 0 -9 10l39 310q0 4 -1 5l-89 363q-3 12 9 12h34q10 0 11 -8l67 -306q2 -6 6 0l141 306q4 8 13 8h34q5 0 7 -3.5t-1 -8.5l-178 -363q-2 -1 -2 -5l-38 -310q-2 -10 -11 -10h-32z" />
<glyph unicode="Z" horiz-adv-x="379" d="M25 0q-10 0 -8 10l4 31q0 7 3 12l317 595q2 2 1 3.5t-3 1.5h-234q-10 0 -8 10l3 27q2 10 11 10h283q11 0 9 -10l-4 -31q0 -5 -3 -12l-317 -595q-1 -2 0 -3.5t2 -1.5h233q9 0 9 -10l-4 -27q0 -10 -11 -10h-283z" />
<glyph unicode="[" horiz-adv-x="283" d="M1 -114q-11 0 -9 10l106 862q2 10 11 10h138q10 0 8 -10l-3 -28q-2 -10 -11 -10h-92q-5 0 -5 -4l-95 -779q-2 -4 3 -4h93q9 0 9 -10l-4 -27q-2 -10 -11 -10h-138z" />
<glyph unicode="\" horiz-adv-x="269" d="M224 11q3 -11 -9 -11h-32q-9 0 -9 9l-82 680q-2 11 9 11h32q10 0 10 -9z" />
<glyph unicode="]" horiz-adv-x="283" d="M227 -104q-2 -10 -11 -10h-139q-10 0 -8 10l3 27q2 10 11 10h93q4 0 4 4l96 779q0 4 -3 4h-92q-11 0 -9 10l4 28q0 10 10 10h138q9 0 9 -10z" />
<glyph unicode="^" horiz-adv-x="378" d="M63 310q-11 0 -6 11l171 371q3 8 12 8h30q9 0 11 -8l79 -371q3 -11 -9 -11h-25q-8 0 -11 8l-64 319q-1 2 -3 2t-3 -2l-144 -319q-3 -8 -12 -8h-26z" />
<glyph unicode="_" horiz-adv-x="354" d="M14 0q-11 0 -9 10l3 24q2 10 11 10h288q9 0 9 -10l-3 -24q-2 -10 -11 -10h-288z" />
<glyph unicode="`" horiz-adv-x="169" d="M192 590q5 -12 -9 -12h-23q-6 0 -11 7l-52 110q-5 12 7 12h30q8 0 11 -7z" />
<glyph unicode="a" horiz-adv-x="404" d="M329 494q2 10 11 10h32q9 0 9 -10l-60 -484q0 -10 -11 -10h-32q-10 0 -8 10l4 33q0 9 -4 1q-40 -52 -105 -52q-59 0 -89.5 41.5t-23.5 107.5q4 33 13 113q2 19 7 55t8 55q9 65 50 106.5t99 41.5q65 0 91 -52q2 -3 3.5 -2.5t1.5 3.5zM183 39q40 0 69 30t35 78l26 210 q5 48 -16 78t-61 30q-41 0 -71 -30t-36 -78l-26 -210q-5 -48 17 -78t63 -30z" />
<glyph unicode="b" horiz-adv-x="404" d="M375 364q-2 -19 -6 -55.5t-6 -54.5q-5 -37 -15 -113q-10 -66 -50.5 -107.5t-98.5 -41.5q-64 0 -92 52q-1 6 -4 1q-1 -1 -1 -2l-4 -33q-2 -10 -11 -10h-32q-10 0 -8 10l83 680q2 10 11 10h32q9 0 9 -10l-28 -229q-1 -3 1 -3.5t3 2.5q40 52 105 52q58 0 88.5 -41.5 t23.5 -106.5zM324 357q6 48 -16.5 78t-63.5 30q-40 0 -68.5 -30t-34.5 -78l-26 -210q-6 -48 15.5 -78t61.5 -30q41 0 71 30t35 78z" />
<glyph unicode="c" horiz-adv-x="382" d="M177 -8q-65 0 -99.5 41.5t-26.5 108.5l27 220q8 66 53 108t109 42t99.5 -39.5t28.5 -94.5v-6q-2 -10 -11 -10l-32 -2q-5 0 -7.5 2t-1.5 6l1 8q4 36 -19 62.5t-63 26.5q-41 0 -70.5 -29.5t-35.5 -76.5l-26 -215q-6 -46 16 -75.5t63 -29.5t70.5 26.5t33.5 62.5l1 5 q2 10 11 10h32q10 0 8 -9l-1 -9q-6 -55 -51 -94t-109 -39z" />
<glyph unicode="d" horiz-adv-x="404" d="M353 690q2 10 11 10h32q11 0 9 -10l-84 -680q0 -10 -11 -10h-32q-10 0 -8 10l4 33q0 9 -4 1q-40 -52 -105 -52q-59 0 -89.5 41.5t-23.5 107.5q4 33 13 113q2 19 7 55t8 55q9 65 50 106.5t99 41.5q65 0 91 -52q2 -3 3.5 -2.5t1.5 3.5zM183 39q40 0 69 30t35 78l26 210 q5 48 -16 78t-61 30q-41 0 -71 -30t-36 -78l-26 -210q-5 -48 17 -78t63 -30z" />
<glyph unicode="e" horiz-adv-x="388" d="M352 243q-2 -10 -11 -10h-223q-3 0 -5 -4l-10 -85q-6 -46 16 -75.5t63 -29.5q35 0 61.5 21t38.5 55q4 9 12 9l30 -2q10 0 8 -8q0 -3 -1 -4q-16 -55 -57 -86.5t-97 -31.5q-65 0 -99.5 41.5t-26.5 107.5l27 221q8 66 53 108t109 42q65 0 99.5 -41.5t26.5 -108.5zM235 465 q-41 0 -70.5 -29.5t-35.5 -76.5l-9 -76q0 -4 3 -4h178q4 0 4 4l10 76q5 47 -17 76.5t-63 29.5z" />
<glyph unicode="f" horiz-adv-x="263" d="M269 662q-41 0 -60 -28.5t-27 -89.5l-4 -36q0 -4 3 -4h80q10 0 8 -10l-2 -22q-2 -10 -11 -10h-80q-4 0 -4 -4l-55 -448q-2 -10 -11 -10h-32q-9 0 -9 10l55 448q2 4 -3 4h-41q-10 0 -8 10l2 22q2 10 11 10h41q4 0 4 4l5 37q10 84 43 123.5t100 39.5h15q10 0 8 -10l-4 -26 q-1 -10 -11 -10h-13z" />
<glyph unicode="g" horiz-adv-x="394" d="M329 494q2 10 11 10h33q9 0 9 -10l-60 -488q-26 -214 -218 -207q-10 0 -8 10l3 27q2 10 11 10q75 -1 112.5 40.5t47.5 123.5l5 38q0 3 -1.5 3.5t-3.5 -2.5q-40 -54 -106 -54q-60 0 -90 41.5t-22 108.5l26 217q8 67 49 108.5t101 41.5q66 0 92 -54q3 -3 5 1zM184 42 q40 0 68.5 29t34.5 76l26 212q6 47 -15.5 76.5t-61.5 29.5q-41 0 -71 -29.5t-36 -76.5l-26 -212q-5 -47 17.5 -76t63.5 -29z" />
<glyph unicode="h" horiz-adv-x="405" d="M267 511q59 0 86 -41t18 -115l-42 -345q-2 -10 -11 -10h-32q-10 0 -8 10l41 340q7 54 -12.5 84t-60.5 30q-43 0 -71.5 -32t-35.5 -88l-41 -334q-2 -10 -11 -10h-32q-10 0 -8 10l83 680q2 10 11 10h32q9 0 9 -10l-29 -235q-1 -2 0 -3q2 -1 5 3q40 56 109 56z" />
<glyph unicode="i" horiz-adv-x="189" d="M150 605q-17 0 -27 12.5t-7 31.5q2 19 15 31t30 12t26 -12t7 -31t-14.5 -31.5t-29.5 -12.5zM60 0q-10 0 -8 10l59 484q2 10 11 10h32q9 0 9 -10l-60 -484q-2 -10 -11 -10h-32z" />
<glyph unicode="j" horiz-adv-x="180" d="M145 605q-17 0 -26 12t-7 32t15 32t29 12q17 0 27.5 -12t7.5 -32q-2 -19 -15 -31.5t-31 -12.5zM-58 -209q-10 0 -8 10l3 27q2 10 11 10q78 4 91 107l67 549q2 10 11 10h32q9 0 9 -10l-68 -549q-9 -75 -42.5 -114t-105.5 -40z" />
<glyph unicode="k" horiz-adv-x="382" d="M55 0q-10 0 -8 10l83 680q2 10 11 10h32q9 0 9 -10l-52 -420q0 -2 2 -2.5t3 1.5l188 229q5 6 12 6h34q6 0 7.5 -4t-2.5 -8l-111 -136q-2 -2 -2 -5l72 -340q2 -11 -9 -11h-34q-8 0 -11 8l-55 297q-1 6 -6 1l-96 -116q-2 -2 -2 -5l-22 -175q-2 -10 -11 -10h-32z" />
<glyph unicode="l" horiz-adv-x="169" d="M49 0q-10 0 -8 10l83 680q2 10 11 10h32q11 0 9 -10l-84 -680q0 -10 -11 -10h-32z" />
<glyph unicode="m" horiz-adv-x="622" d="M487 511q55 0 81.5 -44t17.5 -120l-42 -337q0 -10 -10 -10h-33q-10 0 -8 10l41 332q7 56 -12 89t-57 33q-41 0 -68.5 -32t-34.5 -88l-41 -334q0 -10 -11 -10h-32q-10 0 -8 10l41 332q7 56 -12.5 89t-56.5 33q-41 0 -69 -32t-35 -88l-41 -334q0 -10 -11 -10h-31 q-10 0 -8 10l59 484q2 10 11 10h31q9 0 9 -10l-5 -37q0 -8 5 -1q43 55 107 55q74 0 96 -77q0 -5 5 2q42 75 122 75z" />
<glyph unicode="n" horiz-adv-x="405" d="M267 511q59 0 86 -41t18 -115l-42 -345q-2 -10 -11 -10h-32q-10 0 -8 10l41 340q7 54 -12.5 84t-60.5 30q-43 0 -71.5 -32t-35.5 -88l-41 -334q-2 -10 -11 -10h-32q-10 0 -8 10l59 484q2 10 11 10h32q9 0 9 -10l-5 -39q-1 -2 0 -3q2 -1 5 3q40 56 109 56z" />
<glyph unicode="o" horiz-adv-x="395" d="M177 -8q-65 0 -99.5 41.5t-26.5 107.5l27 221q8 66 53 108t109 42q66 0 100.5 -41.5t26.5 -108.5l-27 -221q-8 -66 -52.5 -107.5t-110.5 -41.5zM182 39q42 0 72 29.5t35 75.5l27 215q5 47 -17.5 76.5t-63.5 29.5t-70.5 -29.5t-35.5 -76.5l-26 -215q-6 -46 16 -75.5 t63 -29.5z" />
<glyph unicode="p" horiz-adv-x="410" d="M381 363q-2 -18 -6 -56t-7 -57q-2 -19 -7 -55.5t-7 -54.5q-10 -65 -50.5 -106.5t-98.5 -41.5q-66 0 -92 52q-1 6 -4 1q-1 -1 -1 -2l-28 -229q-2 -10 -11 -10h-32q-10 0 -8 10l83 680q2 10 11 10h32q10 0 8 -10l-4 -33q0 -3 1.5 -3.5t3.5 2.5q40 52 105 52 q58 0 88.5 -41.5t23.5 -107.5zM330 357q6 48 -16.5 78t-63.5 30q-40 0 -68.5 -30t-34.5 -78l-26 -210q-6 -48 15.5 -78t61.5 -30q41 0 70.5 30t35.5 78z" />
<glyph unicode="q" horiz-adv-x="410" d="M329 494q2 10 11 10h32q9 0 9 -10l-84 -680q0 -10 -11 -10h-32q-10 0 -8 10l28 229q0 9 -4 1q-40 -52 -105 -52q-58 0 -89 41.5t-24 106.5q3 18 7 54.5t6 55.5q2 18 7 55.5t7 57.5q10 66 51 107.5t99 41.5q65 0 91 -52q2 -3 3.5 -2.5t1.5 3.5zM183 39q40 0 69 30t35 78 l26 210q5 48 -16 78t-61 30q-42 0 -71.5 -30t-35.5 -78l-26 -210q-5 -48 17 -78t63 -30z" />
<glyph unicode="r" horiz-adv-x="275" d="M258 508q24 0 41 -10q6 -5 3 -13l-12 -34q-4 -9 -13 -5q-14 6 -37 5q-39 -1 -68 -40t-36 -96l-38 -305q-2 -10 -11 -10h-32q-10 0 -8 10l59 484q2 10 11 10h32q9 0 9 -10l-8 -62q0 -7 5 0q38 76 103 76z" />
<glyph unicode="s" horiz-adv-x="353" d="M164 -5q-63 0 -97 35.5t-27 91.5l1 6q2 10 11 10h30q9 0 9 -8l-1 -8q-5 -36 17 -60t63 -24q39 0 65.5 24.5t31.5 63.5q3 22 -3 38.5t-22 29.5t-28 19.5t-37 17.5q-26 12 -41.5 20.5t-33.5 25.5t-25 41.5t-3 56.5q7 61 48.5 97t102.5 36q62 0 94.5 -37t25.5 -96l-1 -3 q0 -10 -10 -10h-30q-10 0 -8 8l1 7q4 37 -17.5 62t-59.5 25q-39 0 -65 -24.5t-31 -63.5q-2 -17 2.5 -31t10 -22.5t20.5 -19t23 -14.5l28 -14q23 -10 34.5 -16t30.5 -19.5t28 -27.5t14.5 -36t2.5 -48q-7 -60 -49 -96.5t-105 -36.5z" />
<glyph unicode="t" horiz-adv-x="253" d="M262 472q-2 -10 -11 -10h-78q-4 0 -4 -4l-40 -322q-6 -50 8 -69.5t50 -19.5h10q10 0 8 -10l-3 -27q-2 -10 -11 -10h-19q-54 0 -78.5 26t-16.5 97l41 335q2 4 -3 4h-40q-10 0 -8 10l2 22q2 10 11 10h40q4 0 4 4l14 112q2 10 11 10h31q9 0 9 -10l-14 -112q0 -4 3 -4h78 q10 0 8 -10z" />
<glyph unicode="u" horiz-adv-x="405" d="M330 494q2 10 11 10h32q9 0 9 -10l-60 -484q0 -10 -11 -10h-32q-10 0 -8 10l4 36q1 3 -0.5 3.5t-3.5 -1.5q-38 -55 -106 -55q-58 0 -87.5 36.5t-20.5 109.5l43 355q2 10 11 10h32q11 0 9 -10l-42 -343q-14 -111 73 -111q43 0 71 32t35 88z" />
<glyph unicode="v" horiz-adv-x="353" d="M139 0q-10 0 -10 9l-62 484q-2 11 10 11h37q8 0 10 -9l43 -410q0 -3 1 -3t2 3l143 410q3 9 12 9l36 -1q13 0 7 -11l-179 -483q-1 -9 -11 -9h-39z" />
<glyph unicode="w" horiz-adv-x="523" d="M118 0q-9 0 -9 9l-43 484q0 11 10 11h31q10 0 10 -9l27 -413q0 -8 4 0l129 413q3 9 12 9h29q8 0 10 -9l27 -413q2 -8 4 0l131 413q2 9 11 9l30 -1q10 0 8 -11l-163 -483q-2 -9 -11 -9h-33q-10 0 -10 9l-30 393q-2 8 -4 0l-125 -393q-3 -9 -12 -9h-33z" />
<glyph unicode="x" horiz-adv-x="348" d="M11 0q-11 0 -6 12l150 237q1 3 0 6l-91 237q-3 12 9 12h36q10 0 11 -7l69 -194q1 -2 3 -2t3 2l117 194q4 7 13 7h36q12 0 5 -12l-148 -237q-3 -3 -1 -6l90 -237q3 -12 -8 -12h-36q-10 0 -11 7l-69 194q-1 2 -3 2t-3 -2l-117 -194q-4 -7 -12 -7h-37z" />
<glyph unicode="y" horiz-adv-x="342" d="M0 -200q-7 0 -5 10l3 26q2 10 7 10h5q42 1 63 29t52 122v6l-63 490q-3 11 10 11h34q9 0 9 -9l45 -416q1 -5 4 0l146 416q3 9 12 9l35 -1q11 0 6 -11l-203 -543q-36 -93 -65 -121t-89 -28h-6z" />
<glyph unicode="z" horiz-adv-x="346" d="M26 0q-10 0 -8 10l4 32q0 3 4 13l259 395q3 5 -1 5h-199q-9 0 -9 10l4 29q2 10 11 10h254q9 0 9 -10l-4 -32q-2 -10 -5 -13l-260 -395q-1 -2 -0.5 -3.5t2.5 -1.5h202q9 0 9 -10l-4 -29q-2 -10 -11 -10h-257z" />
<glyph unicode="{" horiz-adv-x="247" d="M138 -114q-47 0 -65.5 26.5t-11.5 84.5l27 219q10 80 -37 91q-8 2 -7 10l3 26q1 9 10 10q49 10 59 90l26 213q7 58 32.5 85t72.5 27h40q11 0 9 -10l-4 -28q0 -10 -11 -10h-26q-54 0 -64 -77l-24 -201q-11 -86 -58 -109q-5 -1 -1 -5q42 -26 31 -110l-25 -208 q-10 -77 45 -77h26q10 0 8 -10l-3 -27q-2 -10 -11 -10h-41z" />
<glyph unicode="|" horiz-adv-x="129" d="M19 -80q-10 0 -8 10l100 820q2 10 11 10h32q11 0 9 -10l-101 -820q-2 -10 -11 -10h-32z" />
<glyph unicode="}" horiz-adv-x="247" d="M42 -114h-40q-11 0 -9 10l3 27q2 10 11 10h26q55 0 64 77l26 208q10 85 58 110q5 3 1 5q-42 24 -32 109l25 201q10 77 -45 77h-26q-9 0 -9 10l4 28q2 10 11 10h41q47 0 65.5 -27t11.5 -85l-26 -213q-10 -80 36 -90q9 -2 8 -10l-3 -26q-1 -9 -11 -10q-48 -11 -58 -91 l-27 -219q-7 -58 -32.5 -84.5t-72.5 -26.5z" />
<glyph unicode="~" horiz-adv-x="440" d="M319 240q-20 0 -39 6t-27.5 11t-27.5 18q-37 25 -66 25q-46 0 -76 -42q-7 -10 -14 -4l-15 11q-7 6 -3 13q40 70 111 70q37 0 76 -27q49 -33 85 -33q31 0 66 40q9 8 14 3l15 -12q7 -5 2 -13q-46 -66 -101 -66z" />
<glyph unicode="&#xa1;" horiz-adv-x="241" d="M186 708q20 0 31.5 -15.5t8.5 -37.5q-3 -21 -19 -36.5t-34 -15.5t-30 15.5t-9 36.5q2 22 17 37.5t35 15.5zM137 477q1 10 11 10h24q10 0 9 -10l-51 -455q-2 -10 -11 -10h-32q-9 0 -9 10z" />
<glyph unicode="&#xa2;" horiz-adv-x="382" d="M379 460q-2 -8 -11 -8l-32 -2q-5 0 -7.5 2t-1.5 6l1 8q4 36 -19 62.5t-63 26.5q-41 0 -70.5 -29.5t-35.5 -76.5l-26 -215q-6 -46 16 -75.5t63 -29.5t70.5 26.5t33.5 62.5l1 5q2 10 11 10h32q9 0 9 -9l-2 -9q-6 -50 -43 -87t-92 -45q-4 0 -4 -4l-8 -69q-2 -10 -11 -10h-26 q-9 0 -9 10l11 69q0 3 -3 5q-53 8 -80.5 48t-20.5 100l27 220q8 59 45 99.5t92 48.5q4 1 4 5l7 68q2 10 11 10h26q10 0 8 -10l-9 -68q0 -3 3 -5q53 -8 81 -45.5t23 -86.5z" />
<glyph unicode="&#xa3;" horiz-adv-x="484" d="M150 51q-3 -5 1 -5h275q10 0 8 -10l-3 -26q-2 -10 -11 -10h-329q-10 0 -8 10l3 28q2 8 8 12q45 35 56 128l16 132q0 4 -3 4h-58q-10 0 -8 10l3 24q2 10 11 10h57q4 0 4 4l20 155q10 86 55 136.5t113 54.5q116 6 131 -128q0 -10 -9 -12l-31 -5q-10 -2 -10 9 q-5 47 -26.5 69.5t-59.5 20.5q-46 -3 -76 -40t-38 -103l-19 -157q0 -4 3 -4h143q10 0 8 -10l-3 -24q0 -10 -10 -10h-143q-4 0 -4 -4l-16 -130q-10 -82 -50 -129z" />
<glyph unicode="&#xa4;" horiz-adv-x="482" d="M442 301q-7 -64 -52 -115q-2 -4 1 -6l55 -64q5 -7 -3 -14l-22 -18q-8 -6 -14 1l-53 61q-3 3 -6 1q-54 -38 -116 -38q-60 0 -105 35q-3 2 -6 -1l-65 -58q-8 -7 -14 -1l-17 18q-6 7 1 14l65 60q4 2 2 6q-33 52 -26 119q7 63 53 115q2 4 0 6l-55 65q-6 6 2 14l23 18 q8 7 13 -1l53 -63q2 -2 5 -1q55 39 118 39q66 0 110 -42q3 -2 6 1l72 66q7 8 14 1l17 -18q6 -8 -1 -14l-74 -68q-2 -2 -2 -6q30 -49 21 -112zM114 301q-8 -60 28.5 -102.5t94.5 -42.5q59 0 105.5 42t53.5 103q7 60 -29 103t-94 43q-59 0 -105.5 -42.5t-53.5 -103.5z" />
<glyph unicode="&#xa5;" horiz-adv-x="505" d="M443 317q0 -10 -11 -10h-135q-3 0 -5 -4l-9 -74q0 -4 4 -4h135q11 0 9 -10l-2 -16q-2 -10 -11 -10h-136q-4 0 -4 -4l-22 -175q0 -10 -11 -10h-32q-10 0 -8 10l21 175q2 4 -3 4h-129q-10 0 -8 10l2 16q0 10 10 10h129q5 0 5 4l9 74q0 4 -3 4h-129q-11 0 -9 10l2 15 q2 10 11 10h121q4 0 4 5l-85 341q-3 12 10 12h34q9 0 10 -8l67 -306q1 -2 3 -2t3 2l142 306q3 8 12 8h34q13 0 6 -12l-168 -341q-2 -5 3 -5h128q10 0 8 -10z" />
<glyph unicode="&#xa6;" horiz-adv-x="129" d="M76 385q-10 0 -8 10l43 355q2 10 11 10h32q11 0 9 -10l-44 -355q0 -10 -11 -10h-32zM19 -80q-10 0 -8 10l42 347q2 10 11 10h32q11 0 9 -10l-43 -347q-2 -10 -11 -10h-32z" />
<glyph unicode="&#xa7;" horiz-adv-x="373" d="M146 -207q-58 0 -89 43t-23 112l2 14q2 10 11 10h32q10 0 8 -10l-1 -11q-5 -50 13 -80.5t53 -30.5q36 0 62.5 31t32.5 77q4 29 -3 51t-24.5 37.5t-29 22t-33.5 17.5q-36 16 -56.5 33.5t-30.5 50.5q-10 32 -5 86q6 49 34 94q29 45 69 59q6 2 1 5q-34 19 -52 59t-11 92 q8 67 50.5 110t101.5 43q58 0 89 -43.5t23 -113.5l-1 -12q-2 -10 -11 -10h-33q-9 0 -9 10l2 10q6 50 -12.5 81t-53.5 31q-37 0 -62.5 -31t-31.5 -80q-6 -50 15 -79t71 -51l11 -6q11 -5 14 -6.5t12.5 -7t14 -9.5t11.5 -10.5t12 -14t9 -16.5q22 -41 14 -98q-6 -54 -31 -95 q-30 -49 -74 -62q-6 -2 -1 -5q33 -19 50.5 -55.5t11.5 -88.5q-8 -66 -50.5 -109.5t-101.5 -43.5zM188 127q51 0 80 51q17 35 23 73q6 45 -12 78q-22 39 -64 39q-48 0 -77 -53q-16 -29 -20 -68q-6 -39 4 -70q16 -50 66 -50z" />
<glyph unicode="&#xa8;" horiz-adv-x="238" d="M115 601q-16 0 -25 11.5t-7 28.5q1 17 13 28.5t28 11.5t24 -11.5t6 -28.5q-1 -17 -12.5 -28.5t-26.5 -11.5zM233 601q-16 0 -25 11.5t-7 28.5t14 28.5t28 11.5q15 0 23.5 -11.5t6.5 -28.5t-13.5 -28.5t-26.5 -11.5z" />
<glyph unicode="&#xa9;" horiz-adv-x="821" d="M389 -8q-149 0 -237 103.5t-69 253.5q18 151 131.5 255t262.5 104q150 0 238.5 -104t69.5 -255q-19 -150 -132.5 -253.5t-263.5 -103.5zM393 28q134 0 236 93t119 228q17 136 -62.5 229.5t-213.5 93.5q-133 0 -234.5 -93.5t-118.5 -229.5q-17 -135 62 -228t212 -93z M413 181q-36 0 -55.5 21t-14.5 56l22 178q5 35 28.5 55.5t60.5 20.5q36 0 56 -21t16 -55l-1 -7q-2 -10 -11 -10l-16 -1q-10 0 -8 10l1 10q2 19 -9 30.5t-32 11.5t-35.5 -11.5t-16.5 -30.5l-22 -182q-2 -20 9 -31.5t32 -11.5t35.5 12t16.5 31l1 10q2 10 11 10l15 -1 q5 0 7.5 -2t1.5 -6l-1 -9q-5 -35 -29.5 -56t-61.5 -21z" />
<glyph unicode="&#xaa;" horiz-adv-x="262" d="M182 562h47q4 0 4 4l4 30q5 35 -8 56t-41 21q-20 0 -37 -12.5t-23 -33.5q-2 -11 -11 -9l-21 2q-10 2 -7 11q8 34 38 55.5t67 21.5q45 0 67 -29.5t16 -79.5l-27 -219q0 -10 -11 -10h-20q-10 0 -8 10l2 16q0 7 -5 2q-26 -33 -73 -33q-86 0 -75 94q14 103 122 103zM146 399 q27 0 49 17.5t26 51.5l7 56q2 4 -3 4h-47q-32 0 -53 -17.5t-25 -51.5q-7 -60 46 -60zM40 307q0 10 11 10h195q10 0 8 -10l-2 -19q-2 -10 -11 -10h-195q-9 0 -9 10z" />
<glyph unicode="&#xab;" horiz-adv-x="461" d="M229 119q3 -5 0.5 -8.5t-7.5 -3.5h-28q-9 0 -11 6l-90 161q-3 8 2 14l129 161q4 6 12 6h28q6 0 7.5 -3.5t-2.5 -8.5l-128 -159q-3 -3 -1 -6zM371 119q3 -5 0.5 -8.5t-8.5 -3.5h-28q-7 0 -11 6l-90 161q-3 6 2 14l130 161q4 6 12 6h28q4 0 6 -1.5t1.5 -4.5t-3.5 -6 l-128 -159q-1 -2 -1 -6z" />
<glyph unicode="&#xac;" horiz-adv-x="430" d="M408 340q11 0 9 -10l-3 -27l-1 -6q-1 -1 -1 -2l-13 -105q-2 -10 -11 -10h-23q-11 0 -9 10l13 103q0 4 -4 4h-305q-9 0 -9 10l3 23q2 10 11 10h343z" />
<glyph unicode="&#xad;" horiz-adv-x="300" d="M59 291q-10 0 -8 10l3 27q2 10 11 10h214q9 0 9 -10l-4 -27q0 -10 -11 -10h-214z" />
<glyph unicode="&#xae;" horiz-adv-x="426" d="M281 715q79 0 127 -56t38 -137t-71.5 -137t-141.5 -56q-78 0 -126.5 56t-38.5 137q10 80 72 136.5t141 56.5zM237 358q67 0 119 48t60 116t-32 115.5t-107 47.5q-66 0 -118.5 -47.5t-60.5 -115.5t32.5 -116t106.5 -48zM322 557q-5 -33 -32 -44q-3 -2 -3 -6l18 -63 q3 -12 -9 -12h-8q-9 0 -10 8l-18 65q-2 3 -4 3h-18q-4 0 -4 -4l-8 -62q-2 -10 -11 -10h-7q-10 0 -8 10l19 158q2 10 11 10h49q21 0 33 -15t10 -38zM248 586q-5 0 -5 -4l-6 -49q0 -4 4 -4h25q11 0 19.5 7.5t9.5 20.5q2 13 -4 21t-18 8h-25z" />
<glyph unicode="&#xaf;" horiz-adv-x="515" d="M224 599q-9 0 -9 10l3 20q2 10 11 10h173q11 0 9 -10l-3 -20q0 -10 -10 -10h-174z" />
<glyph unicode="&#xb0;" horiz-adv-x="347" d="M215 494q-63 0 -101 45.5t-30 111.5t57.5 111.5t111.5 45.5q63 0 101.5 -45.5t30.5 -111.5t-58 -111.5t-112 -45.5zM220 534q47 0 83 34t42 83q6 50 -22 84t-74 34t-82.5 -34t-42.5 -84q-7 -49 21 -83t75 -34z" />
<glyph unicode="&#xb1;" horiz-adv-x="430" d="M260 366q0 -4 4 -4h147q9 0 9 -10l-3 -23q-2 -10 -11 -10h-148q-4 0 -4 -4l-19 -151q0 -10 -10 -10h-22q-10 0 -8 10l18 151q2 4 -3 4h-148q-10 0 -8 10l3 23q2 10 11 10h147q3 0 5 4l18 152q2 10 11 10h21q11 0 9 -10zM27 32q-10 0 -8 10l3 23q0 10 10 10h344 q10 0 8 -10l-2 -23q-2 -10 -11 -10h-344z" />
<glyph unicode="&#xb2;" horiz-adv-x="232" d="M69 449q-9 0 -9 10l2 18q2 6 5 13q9 12 54.5 74t67.5 94q44 64 50 111q4 32 -8 50.5t-35 18.5t-39 -18.5t-20 -49.5l-2 -19q-2 -10 -11 -10h-20q-11 0 -9 10l3 20q6 47 34 75t69 28t62.5 -28t14.5 -79q-6 -52 -51 -123q-41 -62 -109 -155q-3 -5 3 -5h125q10 0 8 -10 l-2 -15q0 -10 -11 -10h-172z" />
<glyph unicode="&#xb3;" horiz-adv-x="250" d="M263 635q3 -26 0 -60q-7 -43 -18 -66q-25 -65 -93 -65q-37 0 -58.5 24t-22.5 63q0 14 2 34q1 10 11 10h20q9 0 8 -10q-2 -18 -1 -25q0 -60 46 -60q34 0 53 39q12 30 16 60q4 29 1 53q-6 49 -45 49q-5 0 -11 -2q-10 -2 -14 3l-7 10q-4 7 1 14l92 123q2 3 -2 5h-123 q-9 0 -9 10l2 15q2 10 11 10h164q9 0 9 -10l-3 -18q0 -3 -5 -13l-84 -113q-1 -1 -0.5 -3t1.5 -2q26 -3 41.5 -23.5t17.5 -51.5z" />
<glyph unicode="&#xb4;" horiz-adv-x="169" d="M88 578q-5 0 -7 3.5t2 8.5l74 110q5 7 12 7h30q13 0 6 -12l-81 -110q-5 -7 -12 -7h-24z" />
<glyph unicode="&#xb5;" horiz-adv-x="411" d="M336 494q2 10 11 10h32q9 0 9 -10l-60 -484q-2 -10 -11 -10h-32q-10 0 -8 10l4 36q1 3 -0.5 3.5t-3.5 -1.5q-39 -55 -106 -55q-41 0 -68 18q-5 5 -5 -3l-24 -198q-2 -10 -11 -10h-32q-9 0 -9 10l84 684q2 10 11 10h32q9 0 9 -10l-42 -343q-7 -55 12 -83t61 -28t70.5 32 t35.5 88z" />
<glyph unicode="&#xb6;" horiz-adv-x="445" d="M262 700h163q11 0 9 -10l-108 -880q-2 -10 -11 -10h-25q-9 0 -9 10l104 841q0 4 -4 4h-83q-3 0 -5 -4l-103 -841q-2 -10 -11 -10h-26q-9 0 -9 10l54 436q0 4 -3 4q-66 7 -99 70t-22 155q11 96 63.5 160.5t124.5 64.5z" />
<glyph unicode="&#xb7;" horiz-adv-x="92" d="M27 4q-20 0 -31 15.5t-8 37.5q2 21 18 36.5t34 15.5t30 -15.5t10 -36.5q-3 -22 -18.5 -37.5t-34.5 -15.5z" />
<glyph unicode="&#xb8;" horiz-adv-x="110" d="M-31 -181q-8 1 -5 11l3 14q3 8 11 8q1 -1 4 -1q44 -6 56 38q12 49 -27 99q-4 4 -1.5 8t7.5 4h16q6 0 9 -3l4 -4q48 -52 28 -118q-12 -40 -42.5 -51.5t-62.5 -4.5z" />
<glyph unicode="&#xb9;" horiz-adv-x="138" d="M147 866q6 3 13 3h23q11 0 9 -10l-49 -400q-2 -10 -11 -10h-21q-10 0 -8 10l45 365q0 6 -5 3l-21 -8q-5 -2 -8.5 0.5t-2.5 7.5l2 11q0 6 8 12z" />
<glyph unicode="&#xba;" horiz-adv-x="268" d="M159 365q-45 0 -68 27.5t-17 72.5l17 143q5 45 35 72.5t75 27.5t68 -27.5t18 -72.5l-17 -143q-6 -45 -36 -72.5t-75 -27.5zM164 400q26 0 44.5 18.5t22.5 47.5l17 139q4 30 -10.5 49t-40.5 19t-45 -19t-22 -49l-17 -139q-4 -29 10.5 -47.5t40.5 -18.5zM52 278 q-11 0 -9 10l2 19q2 10 11 10h195q11 0 9 -10l-3 -19q0 -10 -10 -10h-195z" />
<glyph unicode="&#xbb;" horiz-adv-x="461" d="M85 107q-6 0 -7.5 3.5t3.5 8.5l128 159q1 3 0 6l-89 159q-3 5 -0.5 8.5t8.5 3.5h28q7 0 11 -6l90 -161q3 -6 -2 -14l-130 -161q-4 -6 -12 -6h-28zM227 107q-6 0 -7.5 3.5t2.5 8.5l128 159q3 3 1 6l-89 159q-3 5 -0.5 8.5t7.5 3.5h28q9 0 11 -6l90 -161q3 -8 -2 -14 l-129 -161q-4 -6 -12 -6h-28z" />
<glyph unicode="&#xbc;" horiz-adv-x="629" d="M91 280q-11 0 -9 10l45 365q0 5 -4 3l-22 -8q-11 -3 -11 8l2 11q0 6 8 12l26 15q8 4 13 4h24q10 0 8 -10l-49 -400q-2 -10 -11 -10h-20zM557 693q7 7 13 7h20q12 0 5 -12l-507 -681q-5 -7 -12 -7h-21q-13 0 -4 12zM606 152q10 0 8 -10l-2 -17q-2 -10 -11 -10h-13 q-4 0 -4 -4l-12 -101q-2 -10 -11 -10h-20q-10 0 -8 10l12 101q0 4 -3 4h-126q-11 0 -9 10l2 16q2 8 4 12l117 259q3 8 12 8h22q11 0 6 -11l-112 -252q-2 -5 2 -5h86q3 0 5 4l11 88q0 10 10 10h20q10 0 8 -10l-10 -88q-2 -4 3 -4h13z" />
<glyph unicode="&#xbd;" horiz-adv-x="637" d="M91 280q-11 0 -9 10l45 365q0 5 -4 3l-22 -8q-11 -3 -11 8l2 11q0 6 8 12l26 15q8 4 13 4h24q10 0 8 -10l-49 -400q-2 -10 -11 -10h-20zM557 693q7 7 13 7h20q12 0 5 -12l-507 -681q-5 -7 -12 -7h-21q-13 0 -4 12zM469 40q-5 -5 2 -5h125q10 0 8 -10l-1 -15 q-2 -10 -11 -10h-173q-10 0 -8 10l2 18q0 6 5 13q19 26 60 82.5t62 85.5q45 68 49 111q4 32 -7.5 50.5t-35.5 18.5q-23 0 -38.5 -18.5t-19.5 -49.5l-3 -19q-2 -10 -11 -10h-20q-9 0 -9 10l3 20q7 47 35 75t69 28q40 0 61.5 -28t15.5 -79q-7 -56 -52 -123q-30 -45 -108 -155z " />
<glyph unicode="&#xbe;" horiz-adv-x="694" d="M622 693q7 7 13 7h20q12 0 5 -12l-507 -681q-5 -7 -12 -7h-21q-13 0 -4 12zM224 338q-25 -65 -93 -65q-37 0 -58.5 24t-22.5 63q0 14 2 34q1 10 11 10h20q9 0 8 -10q-2 -18 -1 -25q0 -60 46 -60q34 0 53 39q12 30 16 60q4 29 1 53q-6 49 -45 49q-5 0 -11 -2q-10 -2 -14 3 l-7 10q-4 7 1 14l92 123q2 3 -2 5h-123q-9 0 -9 10l2 15q2 10 11 10h164q9 0 9 -10l-3 -18q0 -3 -5 -13l-84 -113q-2 -5 2 -5q25 -3 40.5 -23.5t17.5 -51.5q3 -26 0 -60q-7 -43 -18 -66zM671 152q10 0 8 -10l-2 -17q-2 -10 -11 -10h-13q-4 0 -4 -4l-12 -101q-2 -10 -11 -10 h-20q-10 0 -8 10l12 101q0 4 -3 4h-126q-11 0 -9 10l2 16q2 8 4 12l117 259q3 8 12 8h22q11 0 6 -11l-112 -252q-2 -1 -1 -3t3 -2h86q3 0 5 4l11 88q0 10 10 10h20q10 0 8 -10l-10 -88q-2 -4 3 -4h13z" />
<glyph unicode="&#xbf;" horiz-adv-x="341" d="M223 497q17 0 28.5 -15t8.5 -36q-2 -21 -17 -36t-33 -15q-17 0 -28.5 15t-9.5 36q3 21 18 36t33 15zM219 305q10 0 8 -10l-8 -65q-4 -35 -20.5 -62.5t-37.5 -47.5t-42.5 -40t-38 -50t-21.5 -69q-7 -55 13 -88t59 -33q41 0 70 33.5t36 88.5l4 34q2 10 11 10l32 -2 q10 0 8 -10l-4 -32q-9 -76 -54.5 -123.5t-108.5 -47.5t-95 46.5t-22 124.5q6 46 23 82t38.5 58t42 40.5t36.5 41t19 49.5l8 62q2 10 11 10h33z" />
<glyph unicode="&#xc0;" horiz-adv-x="430" d="M309 786q5 -12 -8 -12h-24q-7 0 -10 7l-53 110q-5 12 7 12h31q6 0 10 -7zM332 0q-10 0 -10 9l-10 131q0 4 -4 4h-189q-6 0 -6 -4l-43 -131q-3 -9 -12 -9h-32q-11 0 -7 11l231 680q2 9 12 9h38q10 0 10 -9l65 -680q0 -11 -10 -11h-33zM130 192q-2 -4 3 -4h170q4 0 4 4 l-34 417q-2 8 -4 0z" />
<glyph unicode="&#xc1;" horiz-adv-x="430" d="M371 903q14 0 5 -12l-80 -110q-7 -7 -13 -7h-23q-14 0 -5 12l73 110q7 7 13 7h30zM332 0q-10 0 -10 9l-10 131q0 4 -4 4h-189q-6 0 -6 -4l-43 -131q-3 -9 -12 -9h-32q-11 0 -7 11l231 680q2 9 12 9h38q10 0 10 -9l65 -680q0 -11 -10 -11h-33zM130 192q-2 -4 3 -4h170 q4 0 4 4l-34 417q-2 8 -4 0z" />
<glyph unicode="&#xc2;" horiz-adv-x="430" d="M302 849q-2 4 -6 0l-55 -76q-5 -7 -12 -7h-30q-12 0 -5 12l77 102q5 7 13 7h38q8 0 11 -6l54 -103q2 -5 -0.5 -8.5t-8.5 -3.5h-30q-6 0 -11 7zM332 0q-10 0 -10 9l-10 131q0 4 -4 4h-189q-6 0 -6 -4l-43 -131q-3 -9 -12 -9h-32q-11 0 -7 11l231 680q2 9 12 9h38 q10 0 10 -9l65 -680q0 -11 -10 -11h-33zM130 192q-2 -4 3 -4h170q4 0 4 4l-34 417q-2 8 -4 0z" />
<glyph unicode="&#xc3;" horiz-adv-x="430" d="M261 837q-27 0 -48 -27q-8 -9 -14 -3l-11 9q-7 5 -1 13q32 48 76 48q22 0 51 -23q3 -2 10 -7.5t11 -7.5t10 -4.5t12 -2.5q26 0 47 30q5 10 14 4l10 -8q8 -5 3 -14q-32 -50 -80 -50q-21 0 -49 22q-26 21 -41 21zM332 0q-10 0 -10 9l-10 131q0 4 -4 4h-189q-6 0 -6 -4 l-43 -131q-3 -9 -12 -9h-32q-11 0 -7 11l231 680q2 9 12 9h38q10 0 10 -9l65 -680q0 -11 -10 -11h-33zM130 192q-2 -4 3 -4h170q4 0 4 4l-34 417q-2 8 -4 0z" />
<glyph unicode="&#xc4;" horiz-adv-x="430" d="M235 797q-16 0 -25 11.5t-7 28.5t13.5 28.5t27.5 11.5t24 -11.5t6 -28.5q-1 -17 -12.5 -28.5t-26.5 -11.5zM353 797q-16 0 -25 11.5t-7 28.5t14 28.5t28 11.5q15 0 23.5 -11.5t6.5 -28.5t-13.5 -28.5t-26.5 -11.5zM332 0q-10 0 -10 9l-10 131q0 4 -4 4h-189q-6 0 -6 -4 l-43 -131q-3 -9 -12 -9h-32q-11 0 -7 11l231 680q2 9 12 9h38q10 0 10 -9l65 -680q0 -11 -10 -11h-33zM130 192q-2 -4 3 -4h170q4 0 4 4l-34 417q-2 8 -4 0z" />
<glyph unicode="&#xc5;" horiz-adv-x="430" d="M290 771q-40 0 -64 29.5t-19 71.5t36.5 71t70.5 29q41 0 65 -29t19 -71t-36.5 -71.5t-71.5 -29.5zM311 941q-26 0 -47.5 -20t-25.5 -49t12.5 -49t43.5 -20q26 0 47 20t25 49t-12.5 49t-42.5 20zM332 0q-10 0 -10 9l-10 131q0 4 -4 4h-189q-6 0 -6 -4l-43 -131 q-3 -9 -12 -9h-32q-11 0 -7 11l231 680q2 9 12 9h38q10 0 10 -9l65 -680q0 -11 -10 -11h-33zM130 192q-2 -4 3 -4h170q4 0 4 4l-34 417q-2 8 -4 0z" />
<glyph unicode="&#xc6;" horiz-adv-x="690" d="M709 663q-2 -10 -11 -10h-230q-4 0 -4 -4l-33 -271q-2 -4 3 -4h147q11 0 9 -10l-3 -27q-2 -10 -11 -10h-148q-4 0 -4 -4l-34 -272q0 -4 4 -4h230q10 0 8 -10l-3 -27q-2 -10 -11 -10h-277q-10 0 -8 10l16 130q0 4 -3 4h-195q-2 0 -5 -3l-73 -133q-4 -8 -12 -8h-33 q-13 0 -6 12l376 680q4 8 12 8h294q10 0 8 -10zM174 193q-2 -5 2 -5h175q4 0 4 4l53 420q0 2 -1 3q-3 1 -4 -2z" />
<glyph unicode="&#xc7;" horiz-adv-x="428" d="M419 524q0 -11 -11 -11l-32 -2q-10 0 -8 10l3 25q6 52 -19.5 83.5t-73.5 31.5t-80.5 -31.5t-39.5 -83.5l-48 -391q-6 -52 19 -84t73 -32t81 32t40 84l2 23q2 10 11 10l32 -2q9 0 9 -10l-2 -17q-9 -69 -50 -113t-103 -52q-5 -2 -2 -5q45 -52 24 -115q-11 -40 -41.5 -51.5 t-62.5 -4.5q-9 1 -6 11l4 14q2 8 11 8q0 -1 4 -1q44 -6 55 38q15 49 -30 103q-2 2 -4 2q-61 7 -92 51.5t-23 114.5l47 384q10 75 58.5 120t119.5 45t109 -45t29 -120z" />
<glyph unicode="&#xc8;" horiz-adv-x="414" d="M320 797q5 -12 -8 -12h-24q-6 0 -10 7l-53 110q-5 12 8 12h30q7 0 10 -7zM434 663q-2 -10 -11 -10h-230q-3 0 -5 -4l-33 -271q0 -4 3 -4h148q10 0 8 -10l-3 -27q-2 -10 -11 -10h-147q-3 0 -5 -4l-33 -272q0 -4 3 -4h230q9 0 9 -10l-4 -27q0 -10 -11 -10h-275q-9 0 -9 10 l84 680q2 10 11 10h275q11 0 9 -10z" />
<glyph unicode="&#xc9;" horiz-adv-x="414" d="M382 914q14 0 5 -12l-80 -110q-7 -7 -13 -7h-23q-14 0 -5 12l73 110q7 7 13 7h30zM434 663q-2 -10 -11 -10h-230q-3 0 -5 -4l-33 -271q0 -4 3 -4h148q10 0 8 -10l-3 -27q-2 -10 -11 -10h-147q-3 0 -5 -4l-33 -272q0 -4 3 -4h230q9 0 9 -10l-4 -27q0 -10 -11 -10h-275 q-9 0 -9 10l84 680q2 10 11 10h275q11 0 9 -10z" />
<glyph unicode="&#xca;" horiz-adv-x="414" d="M313 860q-2 4 -6 0l-55 -76q-5 -7 -12 -7h-30q-13 0 -4 12l76 102q5 7 13 7h38q8 0 11 -6l54 -103q2 -5 -0.5 -8.5t-8.5 -3.5h-30q-6 0 -11 7zM434 663q-2 -10 -11 -10h-230q-3 0 -5 -4l-33 -271q0 -4 3 -4h148q10 0 8 -10l-3 -27q-2 -10 -11 -10h-147q-3 0 -5 -4 l-33 -272q0 -4 3 -4h230q9 0 9 -10l-4 -27q0 -10 -11 -10h-275q-9 0 -9 10l84 680q2 10 11 10h275q11 0 9 -10z" />
<glyph unicode="&#xcb;" horiz-adv-x="414" d="M246 808q-16 0 -25 11.5t-7 28.5t14 28.5t28 11.5q15 0 23.5 -11.5t6.5 -28.5t-13.5 -28.5t-26.5 -11.5zM364 808q-16 0 -25 11.5t-7 28.5t14 28.5t28 11.5q15 0 23.5 -11.5t6.5 -28.5t-13.5 -28.5t-26.5 -11.5zM434 663q-2 -10 -11 -10h-230q-3 0 -5 -4l-33 -271 q0 -4 3 -4h148q10 0 8 -10l-3 -27q-2 -10 -11 -10h-147q-3 0 -5 -4l-33 -272q0 -4 3 -4h230q9 0 9 -10l-4 -27q0 -10 -11 -10h-275q-9 0 -9 10l84 680q2 10 11 10h275q11 0 9 -10z" />
<glyph unicode="&#xcc;" horiz-adv-x="205" d="M198 797q5 -12 -8 -12h-24q-6 0 -11 7l-52 110q-5 12 7 12h30q8 0 11 -7zM67 0q-9 0 -9 10l84 680q2 10 11 10h32q10 0 8 -10l-83 -680q-2 -10 -11 -10h-32z" />
<glyph unicode="&#xcd;" horiz-adv-x="205" d="M149 785q-13 0 -6 12l74 110q5 7 13 7h30q5 0 7 -3.5t-2 -8.5l-80 -110q-7 -7 -13 -7h-23zM67 0q-9 0 -9 10l84 680q2 10 11 10h32q10 0 8 -10l-83 -680q-2 -10 -11 -10h-32z" />
<glyph unicode="&#xce;" horiz-adv-x="205" d="M88 777q-12 0 -5 12l77 102q5 7 12 7h39q8 0 11 -6l53 -103q3 -5 0.5 -8.5t-8.5 -3.5h-30q-6 0 -11 7l-35 76q-1 2 -3 2t-3 -2l-55 -76q-5 -7 -12 -7h-30zM67 0q-9 0 -9 10l84 680q2 10 11 10h32q10 0 8 -10l-83 -680q-2 -10 -11 -10h-32z" />
<glyph unicode="&#xcf;" horiz-adv-x="205" d="M123 808q-16 0 -24.5 11.5t-6.5 28.5q1 17 13 28.5t28 11.5t24 -11.5t6 -28.5t-13 -28.5t-27 -11.5zM242 808q-16 0 -25 11.5t-7 28.5t14 28.5t28 11.5q15 0 23.5 -11.5t6.5 -28.5t-13.5 -28.5t-26.5 -11.5zM67 0q-9 0 -9 10l84 680q2 10 11 10h32q10 0 8 -10l-83 -680 q-2 -10 -11 -10h-32z" />
<glyph unicode="&#xd0;" horiz-adv-x="494" d="M340 700q72 0 107.5 -49.5t25.5 -134.5l-41 -332q-10 -85 -58.5 -134.5t-119.5 -49.5h-142q-11 0 -9 10l41 333q0 4 -3 4h-31q-11 0 -9 10l2 17q2 10 11 10h31q4 0 4 4l38 302q0 10 10 10h143zM380 185l40 329q8 65 -15 102t-72 37h-96q-4 0 -4 -4l-32 -261q0 -4 3 -4h83 q10 0 8 -10l-2 -17q-2 -10 -11 -10h-82q-3 0 -5 -4l-35 -292q-2 -4 3 -4h97q47 1 79.5 37.5t40.5 100.5z" />
<glyph unicode="&#xd1;" horiz-adv-x="473" d="M374 805q-20 0 -48 22q-26 21 -41 21q-27 0 -48 -27q-8 -9 -14 -3l-11 9q-8 6 -2 13q33 48 77 48q22 0 51 -23q2 -2 9.5 -7.5t11 -7.5t10 -4.5t12.5 -2.5q25 0 46 30q7 10 14 4l11 -8q8 -6 -2 -20q-32 -44 -76 -44zM67 0q-9 0 -9 10l84 680q2 10 11 10h34q7 0 10 -8 l143 -549q0 -4 3 -2l2 3l67 546q0 10 11 10h31q10 0 8 -10l-83 -680q-2 -10 -11 -10h-34q-9 0 -10 8l-143 550q0 4 -3 2q-1 -1 -2 -3l-66 -547q-2 -10 -11 -10h-32z" />
<glyph unicode="&#xd2;" horiz-adv-x="437" d="M313 787q5 -12 -8 -12h-24q-7 0 -10 7l-53 110q-5 12 7 12h31q6 0 10 -7zM198 -8q-71 0 -109.5 46.5t-29.5 121.5l47 379q9 76 59 122.5t121 46.5t110 -46.5t30 -122.5l-46 -379q-10 -75 -60.5 -121.5t-121.5 -46.5zM204 39q49 0 83 33t41 86l47 383q7 53 -19.5 86.5 t-75.5 33.5q-48 0 -82 -33.5t-40 -86.5l-47 -383q-7 -53 19 -86t74 -33z" />
<glyph unicode="&#xd3;" horiz-adv-x="437" d="M264 775q-14 0 -5 12l73 110q7 7 13 7h30q14 0 5 -12l-80 -110q-7 -7 -13 -7h-23zM198 -8q-71 0 -109.5 46.5t-29.5 121.5l47 379q9 76 59 122.5t121 46.5t110 -46.5t30 -122.5l-46 -379q-10 -75 -60.5 -121.5t-121.5 -46.5zM204 39q49 0 83 33t41 86l47 383 q7 53 -19.5 86.5t-75.5 33.5q-48 0 -82 -33.5t-40 -86.5l-47 -383q-7 -53 19 -86t74 -33z" />
<glyph unicode="&#xd4;" horiz-adv-x="437" d="M203 767q-12 0 -5 12l77 102q5 7 13 7h38q8 0 11 -6l54 -103q2 -5 -0.5 -8.5t-8.5 -3.5h-30q-6 0 -11 7l-35 76q-2 4 -6 0l-55 -76q-5 -7 -12 -7h-30zM198 -8q-71 0 -109.5 46.5t-29.5 121.5l47 379q9 76 59 122.5t121 46.5t110 -46.5t30 -122.5l-46 -379 q-10 -75 -60.5 -121.5t-121.5 -46.5zM204 39q49 0 83 33t41 86l47 383q7 53 -19.5 86.5t-75.5 33.5q-48 0 -82 -33.5t-40 -86.5l-47 -383q-7 -53 19 -86t74 -33z" />
<glyph unicode="&#xd5;" horiz-adv-x="437" d="M355 795q-21 0 -49 22q-26 21 -41 21q-27 0 -48 -27q-8 -9 -14 -3l-11 9q-7 5 -1 13q32 48 76 48q22 0 51 -23q3 -2 10 -7.5t11 -7.5t10 -4.5t12 -2.5q26 0 47 30q5 10 14 4l10 -8q8 -5 -2 -20q-31 -44 -75 -44zM198 -8q-71 0 -109.5 46.5t-29.5 121.5l47 379 q9 76 59 122.5t121 46.5t110 -46.5t30 -122.5l-46 -379q-10 -75 -60.5 -121.5t-121.5 -46.5zM204 39q49 0 83 33t41 86l47 383q7 53 -19.5 86.5t-75.5 33.5q-48 0 -82 -33.5t-40 -86.5l-47 -383q-7 -53 19 -86t74 -33z" />
<glyph unicode="&#xd6;" horiz-adv-x="437" d="M239 798q-16 0 -25 11.5t-7 28.5t13.5 28.5t27.5 11.5t24 -11.5t6 -28.5q-1 -17 -12.5 -28.5t-26.5 -11.5zM357 798q-16 0 -25 11.5t-7 28.5t14 28.5t28 11.5q15 0 23.5 -11.5t6.5 -28.5t-13.5 -28.5t-26.5 -11.5zM198 -8q-71 0 -109.5 46.5t-29.5 121.5l47 379 q9 76 59 122.5t121 46.5t110 -46.5t30 -122.5l-46 -379q-10 -75 -60.5 -121.5t-121.5 -46.5zM204 39q49 0 83 33t41 86l47 383q7 53 -19.5 86.5t-75.5 33.5q-48 0 -82 -33.5t-40 -86.5l-47 -383q-7 -53 19 -86t74 -33z" />
<glyph unicode="&#xd7;" horiz-adv-x="352" d="M345 435q7 -7 -1 -14l-117 -108q-4 -3 -1 -6l90 -106q4 -6 -2 -14l-17 -16q-7 -7 -13 0l-91 107q-1 3 -6 0l-117 -108q-7 -7 -13 0l-15 17q-5 7 2 14l118 107q3 3 1 6l-92 108q-5 7 2 14l17 15q8 6 14 0l91 -107q2 -3 5 0l118 107q8 6 14 0z" />
<glyph unicode="&#xd8;" horiz-adv-x="469" d="M469 743q5 0 7 -3.5t-1 -8.5l-50 -95q-1 -3 0 -6q17 -39 11 -91l-47 -379q-9 -75 -59.5 -121.5t-121.5 -46.5q-58 0 -95 32q-4 3 -6 -1l-27 -51q-4 -8 -12 -8h-20q-13 0 -6 12l42 80q1 2 -1 6q-22 40 -14 98l47 379q9 76 58.5 122.5t120.5 46.5q63 0 103 -38q3 -3 5 1 l34 64q3 8 11 8h21zM120 158q0 -4 -1 -11.5t-1 -11.5q1 -3 3 -2.5t3 2.5l248 476q2 3 0 6q-24 44 -82 44q-48 0 -82 -33.5t-41 -86.5zM385 541q0 5 1 8q0 2 -1 3q-3 1 -4 -2l-244 -469v-5q26 -37 76 -37q49 0 83.5 33t41.5 86z" />
<glyph unicode="&#xd9;" horiz-adv-x="461" d="M326 797q5 -12 -8 -12h-24q-6 0 -11 7l-52 110q-5 12 7 12h30q8 0 11 -7zM210 -8q-73 0 -110 51.5t-26 137.5l62 509q2 10 11 10h32q9 0 9 -10l-64 -515q-8 -61 17 -98.5t74 -37.5t84.5 37.5t42.5 98.5l63 515q2 10 11 10h32q10 0 8 -10l-62 -509q-10 -85 -61 -137 t-123 -52z" />
<glyph unicode="&#xda;" horiz-adv-x="461" d="M277 785q-13 0 -6 12l74 110q7 7 13 7h30q5 0 7 -3.5t-2 -8.5l-80 -110q-7 -7 -13 -7h-23zM210 -8q-73 0 -110 51.5t-26 137.5l62 509q2 10 11 10h32q9 0 9 -10l-64 -515q-8 -61 17 -98.5t74 -37.5t84.5 37.5t42.5 98.5l63 515q2 10 11 10h32q10 0 8 -10l-62 -509 q-10 -85 -61 -137t-123 -52z" />
<glyph unicode="&#xdb;" horiz-adv-x="461" d="M216 777q-12 0 -5 12l77 102q5 7 12 7h39q8 0 11 -6l53 -103q3 -5 0.5 -8.5t-8.5 -3.5h-30q-6 0 -11 7l-35 76q-1 2 -3 2t-3 -2l-55 -76q-5 -7 -12 -7h-30zM210 -8q-73 0 -110 51.5t-26 137.5l62 509q2 10 11 10h32q9 0 9 -10l-64 -515q-8 -61 17 -98.5t74 -37.5 t84.5 37.5t42.5 98.5l63 515q2 10 11 10h32q10 0 8 -10l-62 -509q-10 -85 -61 -137t-123 -52z" />
<glyph unicode="&#xdc;" horiz-adv-x="461" d="M251 808q-16 0 -24.5 11.5t-6.5 28.5q1 17 13 28.5t28 11.5t24 -11.5t6 -28.5q-1 -17 -12.5 -28.5t-27.5 -11.5zM370 808q-16 0 -25 11.5t-7 28.5t14 28.5t28 11.5q15 0 23.5 -11.5t6.5 -28.5t-13.5 -28.5t-26.5 -11.5zM210 -8q-73 0 -110 51.5t-26 137.5l62 509 q2 10 11 10h32q9 0 9 -10l-64 -515q-8 -61 17 -98.5t74 -37.5t84.5 37.5t42.5 98.5l63 515q2 10 11 10h32q10 0 8 -10l-62 -509q-10 -85 -61 -137t-123 -52z" />
<glyph unicode="&#xdd;" horiz-adv-x="399" d="M245 774q-5 0 -7 3.5t2 8.5l74 110q5 7 12 7h30q13 0 6 -12l-81 -110q-5 -7 -12 -7h-24zM164 0q-9 0 -9 10l39 310q0 4 -1 5l-89 363q-3 12 9 12h34q10 0 11 -8l67 -306q2 -6 6 0l141 306q4 8 13 8h34q5 0 7 -3.5t-1 -8.5l-178 -363q-2 -1 -2 -5l-38 -310q-2 -10 -11 -10 h-32z" />
<glyph unicode="&#xde;" horiz-adv-x="423" d="M283 540q68 0 103.5 -52.5t25.5 -137.5q-10 -84 -58 -135.5t-116 -51.5h-106q-5 0 -5 -4l-18 -149q-2 -10 -11 -10h-32q-9 0 -9 10l84 680q2 10 11 10h32q10 0 8 -10l-18 -146q0 -4 4 -4h105zM236 208q48 0 82.5 38.5t41.5 102.5q8 66 -16.5 105t-72.5 39h-99q-4 0 -4 -4 l-34 -277q-2 -4 3 -4h99z" />
<glyph unicode="&#xdf;" horiz-adv-x="409" d="M55 0q-10 0 -8 10l62 507q11 90 54 141t108 51q68 0 101 -49t24 -134q-12 -120 -86 -155q-5 -2 0 -5q31 -19 45 -65t6 -109q-11 -90 -59 -141t-123 -51h-33q-11 0 -9 10l3 26q2 10 11 10l35 1q51 1 84 39.5t41 109.5q9 71 -10.5 110t-62.5 41h-35q-11 0 -9 10l3 24 q2 10 11 10h35q42 0 69 34t34 98q6 66 -14.5 102.5t-64.5 36.5q-42 0 -70 -36.5t-36 -103.5l-63 -512q-2 -10 -11 -10h-32z" />
<glyph unicode="&#xe0;" horiz-adv-x="404" d="M272 606q5 -12 -8 -12h-23q-7 0 -11 7l-52 110q-7 12 7 12h30q6 0 11 -7zM329 494q2 10 11 10h32q9 0 9 -10l-60 -484q0 -10 -11 -10h-32q-10 0 -8 10l4 33q0 9 -4 1q-40 -52 -105 -52q-59 0 -89.5 41.5t-23.5 107.5q4 33 13 113q2 19 7 55t8 55q9 65 50 106.5t99 41.5 q65 0 91 -52q2 -3 3.5 -2.5t1.5 3.5zM183 39q40 0 69 30t35 78l26 210q5 48 -16 78t-61 30q-41 0 -71 -30t-36 -78l-26 -210q-5 -48 17 -78t63 -30z" />
<glyph unicode="&#xe1;" horiz-adv-x="404" d="M334 723q14 0 5 -12l-80 -110q-5 -7 -12 -7h-24q-5 0 -7 3.5t2 8.5l74 110q5 7 12 7h30zM329 494q2 10 11 10h32q9 0 9 -10l-60 -484q0 -10 -11 -10h-32q-10 0 -8 10l4 33q0 9 -4 1q-40 -52 -105 -52q-59 0 -89.5 41.5t-23.5 107.5q4 33 13 113q2 19 7 55t8 55 q9 65 50 106.5t99 41.5q65 0 91 -52q2 -3 3.5 -2.5t1.5 3.5zM183 39q40 0 69 30t35 78l26 210q5 48 -16 78t-61 30q-41 0 -71 -30t-36 -78l-26 -210q-5 -48 17 -78t63 -30z" />
<glyph unicode="&#xe2;" horiz-adv-x="404" d="M265 669q0 1 -2 1t-3 -1l-55 -76q-7 -7 -13 -7h-30q-13 0 -4 12l76 102q7 7 13 7h39q6 0 11 -6l53 -103q2 -4 -0.5 -8t-7.5 -4h-30q-8 0 -11 7zM329 494q2 10 11 10h32q9 0 9 -10l-60 -484q0 -10 -11 -10h-32q-10 0 -8 10l4 33q0 9 -4 1q-40 -52 -105 -52 q-59 0 -89.5 41.5t-23.5 107.5q4 33 13 113q2 19 7 55t8 55q9 65 50 106.5t99 41.5q65 0 91 -52q2 -3 3.5 -2.5t1.5 3.5zM183 39q40 0 69 30t35 78l26 210q5 48 -16 78t-61 30q-41 0 -71 -30t-36 -78l-26 -210q-5 -48 17 -78t63 -30z" />
<glyph unicode="&#xe3;" horiz-adv-x="404" d="M224 657q-26 0 -48 -27q-6 -9 -14 -3l-10 9q-8 5 -2 13q32 48 76 48q23 0 52 -23q2 -2 9.5 -7.5t11 -7.5t10 -4.5t12.5 -2.5q25 0 46 30q7 10 14 4l11 -8q7 -6 2 -14q-32 -50 -80 -50q-21 0 -49 22q-26 21 -41 21zM329 494q2 10 11 10h32q9 0 9 -10l-60 -484 q0 -10 -11 -10h-32q-10 0 -8 10l4 33q0 9 -4 1q-40 -52 -105 -52q-59 0 -89.5 41.5t-23.5 107.5q4 33 13 113q2 19 7 55t8 55q9 65 50 106.5t99 41.5q65 0 91 -52q2 -3 3.5 -2.5t1.5 3.5zM183 39q40 0 69 30t35 78l26 210q5 48 -16 78t-61 30q-41 0 -71 -30t-36 -78 l-26 -210q-5 -48 17 -78t63 -30z" />
<glyph unicode="&#xe4;" horiz-adv-x="404" d="M198 617q-16 0 -25 11.5t-7 28.5t14 28.5t28 11.5q15 0 23.5 -11.5t6.5 -28.5t-13.5 -28.5t-26.5 -11.5zM316 617q-16 0 -25 11.5t-7 28.5t14 28.5t28 11.5t24 -11.5t6 -28.5t-13 -28.5t-27 -11.5zM329 494q2 10 11 10h32q9 0 9 -10l-60 -484q0 -10 -11 -10h-32 q-10 0 -8 10l4 33q0 9 -4 1q-40 -52 -105 -52q-59 0 -89.5 41.5t-23.5 107.5q4 33 13 113q2 19 7 55t8 55q9 65 50 106.5t99 41.5q65 0 91 -52q2 -3 3.5 -2.5t1.5 3.5zM183 39q40 0 69 30t35 78l26 210q5 48 -16 78t-61 30q-41 0 -71 -30t-36 -78l-26 -210q-5 -48 17 -78 t63 -30z" />
<glyph unicode="&#xe5;" horiz-adv-x="404" d="M253 591q-39 0 -63.5 29.5t-19.5 71.5t36.5 71t71.5 29t64 -29t19 -71t-36.5 -71.5t-71.5 -29.5zM274 761q-26 0 -47.5 -20t-25.5 -49q-3 -29 13.5 -49t42.5 -20q27 0 48 20t24 49q4 29 -12 49t-43 20zM329 494q2 10 11 10h32q9 0 9 -10l-60 -484q0 -10 -11 -10h-32 q-10 0 -8 10l4 33q0 9 -4 1q-40 -52 -105 -52q-59 0 -89.5 41.5t-23.5 107.5q4 33 13 113q2 19 7 55t8 55q9 65 50 106.5t99 41.5q65 0 91 -52q2 -3 3.5 -2.5t1.5 3.5zM183 39q40 0 69 30t35 78l26 210q5 48 -16 78t-61 30q-41 0 -71 -30t-36 -78l-26 -210q-5 -48 17 -78 t63 -30z" />
<glyph unicode="&#xe6;" horiz-adv-x="624" d="M147 -8q-125 0 -108 139q19 153 178 153h80q4 0 4 4l7 55q7 56 -12.5 89t-63.5 33q-35 0 -64 -22t-36 -57q-3 -9 -12 -9l-32 2q-10 0 -8 10q12 56 57 89.5t100 33.5q80 0 105 -73q3 -5 6 0q45 73 129 73q64 0 98 -42t26 -108l-14 -114q-2 -10 -11 -10h-223q-4 0 -4 -4 l-11 -90q-5 -45 17 -73.5t63 -28.5q34 0 60.5 20.5t39.5 53.5q3 9 11 8l31 -2q10 -1 7 -11q-15 -54 -56 -86.5t-97 -32.5q-45 0 -75.5 22.5t-38.5 57.5q-2 6 -4 1q-18 -38 -59 -59.5t-90 -21.5zM355 287q0 -4 4 -4h177q3 0 5 4l8 72q6 47 -16 76.5t-63 29.5t-70.5 -29.5 t-35.5 -76.5zM164 36q43 0 78 28t41 80l11 89q2 4 -3 4h-76q-111 0 -124 -104q-6 -49 14.5 -73t58.5 -24z" />
<glyph unicode="&#xe7;" horiz-adv-x="382" d="M367 370q0 -8 -10 -8l-32 -2q-5 0 -7.5 2t-1.5 6l1 8q4 36 -19 62.5t-63 26.5q-41 0 -70.5 -29.5t-35.5 -76.5l-26 -215q-6 -46 16 -75.5t63 -29.5t70.5 26.5t33.5 62.5l1 5q2 10 11 10h32q10 0 8 -9l-1 -9q-6 -49 -43 -86t-91 -45q-5 -2 -2 -5q43 -51 24 -115 q-12 -40 -42.5 -51.5t-62.5 -4.5q-8 2 -5 11l3 14q3 8 11 8q1 -1 4 -1q44 -6 56 38q14 50 -30 103q-2 2 -4 2q-55 7 -83.5 47.5t-20.5 101.5l27 220q8 66 53 108t109 42t99.5 -39.5t28.5 -94.5z" />
<glyph unicode="&#xe8;" horiz-adv-x="388" d="M268 598q5 -12 -8 -12h-23q-7 0 -11 7l-52 110q-5 12 7 12h30q6 0 11 -7zM352 243q-2 -10 -11 -10h-223q-3 0 -5 -4l-10 -85q-6 -46 16 -75.5t63 -29.5q35 0 61.5 21t38.5 55q4 9 12 9l30 -2q10 0 8 -8q0 -3 -1 -4q-16 -55 -57 -86.5t-97 -31.5q-65 0 -99.5 41.5 t-26.5 107.5l27 221q8 66 53 108t109 42q65 0 99.5 -41.5t26.5 -108.5zM235 465q-41 0 -70.5 -29.5t-35.5 -76.5l-9 -76q0 -4 3 -4h178q4 0 4 4l10 76q5 47 -17 76.5t-63 29.5z" />
<glyph unicode="&#xe9;" horiz-adv-x="388" d="M330 715q13 0 6 -12l-81 -110q-5 -7 -12 -7h-24q-5 0 -7 3.5t2 8.5l74 110q5 7 12 7h30zM352 243q-2 -10 -11 -10h-223q-3 0 -5 -4l-10 -85q-6 -46 16 -75.5t63 -29.5q35 0 61.5 21t38.5 55q4 9 12 9l30 -2q10 0 8 -8q0 -3 -1 -4q-16 -55 -57 -86.5t-97 -31.5 q-65 0 -99.5 41.5t-26.5 107.5l27 221q8 66 53 108t109 42q65 0 99.5 -41.5t26.5 -108.5zM235 465q-41 0 -70.5 -29.5t-35.5 -76.5l-9 -76q0 -4 3 -4h178q4 0 4 4l10 76q5 47 -17 76.5t-63 29.5z" />
<glyph unicode="&#xea;" horiz-adv-x="388" d="M262 661q-1 1 -3 1t-3 -1l-55 -76q-7 -7 -13 -7h-30q-13 0 -4 12l76 102q7 7 13 7h39q6 0 11 -6l53 -103q2 -4 -0.5 -8t-7.5 -4h-30q-8 0 -11 7zM352 243q-2 -10 -11 -10h-223q-3 0 -5 -4l-10 -85q-6 -46 16 -75.5t63 -29.5q35 0 61.5 21t38.5 55q4 9 12 9l30 -2 q10 0 8 -8q0 -3 -1 -4q-16 -55 -57 -86.5t-97 -31.5q-65 0 -99.5 41.5t-26.5 107.5l27 221q8 66 53 108t109 42q65 0 99.5 -41.5t26.5 -108.5zM235 465q-41 0 -70.5 -29.5t-35.5 -76.5l-9 -76q0 -4 3 -4h178q4 0 4 4l10 76q5 47 -17 76.5t-63 29.5z" />
<glyph unicode="&#xeb;" horiz-adv-x="388" d="M194 609q-16 0 -25 11.5t-7 28.5t14 28.5t28 11.5q15 0 23.5 -11.5t6.5 -28.5t-13.5 -28.5t-26.5 -11.5zM312 609q-16 0 -25 11.5t-7 28.5t14 28.5t28 11.5t24 -11.5t6 -28.5t-13 -28.5t-27 -11.5zM352 243q-2 -10 -11 -10h-223q-3 0 -5 -4l-10 -85q-6 -46 16 -75.5 t63 -29.5q35 0 61.5 21t38.5 55q4 9 12 9l30 -2q10 0 8 -8q0 -3 -1 -4q-16 -55 -57 -86.5t-97 -31.5q-65 0 -99.5 41.5t-26.5 107.5l27 221q8 66 53 108t109 42q65 0 99.5 -41.5t26.5 -108.5zM235 465q-41 0 -70.5 -29.5t-35.5 -76.5l-9 -76q0 -4 3 -4h178q4 0 4 4l10 76 q5 47 -17 76.5t-63 29.5z" />
<glyph unicode="&#xec;" horiz-adv-x="175" d="M158 599q5 -12 -8 -12h-24q-6 0 -10 7l-53 110q-5 12 7 12h31q7 0 10 -7zM50 0q-10 0 -8 10l59 484q2 10 11 10h32q11 0 9 -10l-60 -484q0 -10 -11 -10h-32z" />
<glyph unicode="&#xed;" horiz-adv-x="175" d="M109 587q-14 0 -5 12l73 110q7 7 13 7h30q14 0 5 -12l-80 -110q-7 -7 -13 -7h-23zM50 0q-10 0 -8 10l59 484q2 10 11 10h32q11 0 9 -10l-60 -484q0 -10 -11 -10h-32z" />
<glyph unicode="&#xee;" horiz-adv-x="175" d="M48 579q-12 0 -5 12l77 102q5 7 13 7h38q8 0 11 -6l54 -103q2 -5 -0.5 -8.5t-8.5 -3.5h-30q-6 0 -11 7l-35 76q-2 4 -6 0l-55 -76q-5 -7 -12 -7h-30zM50 0q-10 0 -8 10l59 484q2 10 11 10h32q11 0 9 -10l-60 -484q0 -10 -11 -10h-32z" />
<glyph unicode="&#xef;" horiz-adv-x="175" d="M84 610q-16 0 -25 11.5t-7 28.5t13.5 28.5t27.5 11.5t24 -11.5t6 -28.5q-1 -17 -12.5 -28.5t-26.5 -11.5zM202 610q-16 0 -25 11.5t-7 28.5t14 28.5t28 11.5q15 0 23.5 -11.5t6.5 -28.5t-13.5 -28.5t-26.5 -11.5zM50 0q-10 0 -8 10l59 484q2 10 11 10h32q11 0 9 -10 l-60 -484q0 -10 -11 -10h-32z" />
<glyph unicode="&#xf0;" horiz-adv-x="415" d="M338 603q-3 -2 -2 -5q44 -99 31 -243q-4 -37 -14 -107l-13 -106q-8 -67 -52.5 -108.5t-110.5 -41.5q-65 0 -99.5 41.5t-26.5 108.5l27 213q7 65 51 107t105 42q55 0 84 -39q3 -2 4 1q-1 60 -28 120q-2 3 -5 2l-73 -23q-10 -3 -12 7l-1 11q-1 9 8 12l62 20q5 2 3 5 q-19 34 -48 68q-4 4 -2 8t8 4h29q7 0 11 -5q27 -32 44 -63q2 -4 5 -2l82 25q11 3 12 -7l2 -11q0 -9 -9 -12zM315 352q5 47 -17.5 76t-63.5 29t-70.5 -29.5t-34.5 -75.5l-26 -208q-6 -46 16 -75.5t63 -29.5q42 0 72 29.5t35 75.5z" />
<glyph unicode="&#xf1;" horiz-adv-x="405" d="M235 646q-22 0 -42 -26q-5 -11 -13 -3l-7 7q-7 6 -2 14q29 48 66 48q19 0 44 -23q3 -3 9 -7.5t9 -7.5t8 -5t10 -2q23 0 41 29q5 10 14 3l7 -6q6 -6 2 -13q-27 -51 -69 -51q-18 0 -42 22q-21 21 -35 21zM267 511q59 0 86 -41t18 -115l-42 -345q-2 -10 -11 -10h-32 q-10 0 -8 10l41 340q7 54 -12.5 84t-60.5 30q-43 0 -71.5 -32t-35.5 -88l-41 -334q-2 -10 -11 -10h-32q-10 0 -8 10l59 484q2 10 11 10h32q9 0 9 -10l-5 -39q-1 -2 0 -3q2 -1 5 3q40 56 109 56z" />
<glyph unicode="&#xf2;" horiz-adv-x="395" d="M268 598q5 -12 -8 -12h-23q-7 0 -11 7l-52 110q-5 12 7 12h30q6 0 11 -7zM177 -8q-65 0 -99.5 41.5t-26.5 107.5l27 221q8 66 53 108t109 42q66 0 100.5 -41.5t26.5 -108.5l-27 -221q-8 -66 -52.5 -107.5t-110.5 -41.5zM182 39q42 0 72 29.5t35 75.5l27 215 q5 47 -17.5 76.5t-63.5 29.5t-70.5 -29.5t-35.5 -76.5l-26 -215q-6 -46 16 -75.5t63 -29.5z" />
<glyph unicode="&#xf3;" horiz-adv-x="395" d="M219 586q-5 0 -7 3.5t2 8.5l74 110q5 7 12 7h30q13 0 6 -12l-81 -110q-5 -7 -12 -7h-24zM177 -8q-65 0 -99.5 41.5t-26.5 107.5l27 221q8 66 53 108t109 42q66 0 100.5 -41.5t26.5 -108.5l-27 -221q-8 -66 -52.5 -107.5t-110.5 -41.5zM182 39q42 0 72 29.5t35 75.5 l27 215q5 47 -17.5 76.5t-63.5 29.5t-70.5 -29.5t-35.5 -76.5l-26 -215q-6 -46 16 -75.5t63 -29.5z" />
<glyph unicode="&#xf4;" horiz-adv-x="395" d="M158 578q-13 0 -4 12l76 102q7 7 13 7h39q6 0 11 -6l53 -103q2 -4 -0.5 -8t-7.5 -4h-30q-8 0 -11 7l-35 76q-1 1 -3 1t-3 -1l-55 -76q-7 -7 -13 -7h-30zM177 -8q-65 0 -99.5 41.5t-26.5 107.5l27 221q8 66 53 108t109 42q66 0 100.5 -41.5t26.5 -108.5l-27 -221 q-8 -66 -52.5 -107.5t-110.5 -41.5zM182 39q42 0 72 29.5t35 75.5l27 215q5 47 -17.5 76.5t-63.5 29.5t-70.5 -29.5t-35.5 -76.5l-26 -215q-6 -46 16 -75.5t63 -29.5z" />
<glyph unicode="&#xf5;" horiz-adv-x="395" d="M310 606q-19 0 -49 22q-26 21 -41 21q-26 0 -48 -27q-6 -9 -14 -3l-10 9q-8 5 -2 13q32 48 76 48q23 0 52 -23q2 -2 9.5 -7.5t11 -7.5t10 -4.5t12.5 -2.5q25 0 46 30q7 10 14 4l11 -8q7 -5 -2 -20q-32 -44 -76 -44zM177 -8q-65 0 -99.5 41.5t-26.5 107.5l27 221 q8 66 53 108t109 42q66 0 100.5 -41.5t26.5 -108.5l-27 -221q-8 -66 -52.5 -107.5t-110.5 -41.5zM182 39q42 0 72 29.5t35 75.5l27 215q5 47 -17.5 76.5t-63.5 29.5t-70.5 -29.5t-35.5 -76.5l-26 -215q-6 -46 16 -75.5t63 -29.5z" />
<glyph unicode="&#xf6;" horiz-adv-x="395" d="M194 609q-16 0 -25 11.5t-7 28.5t14 28.5t28 11.5q15 0 23.5 -11.5t6.5 -28.5t-13.5 -28.5t-26.5 -11.5zM312 609q-16 0 -25 11.5t-7 28.5t14 28.5t28 11.5t24 -11.5t6 -28.5t-13 -28.5t-27 -11.5zM177 -8q-65 0 -99.5 41.5t-26.5 107.5l27 221q8 66 53 108t109 42 q66 0 100.5 -41.5t26.5 -108.5l-27 -221q-8 -66 -52.5 -107.5t-110.5 -41.5zM182 39q42 0 72 29.5t35 75.5l27 215q5 47 -17.5 76.5t-63.5 29.5t-70.5 -29.5t-35.5 -76.5l-26 -215q-6 -46 16 -75.5t63 -29.5z" />
<glyph unicode="&#xf7;" horiz-adv-x="430" d="M248 430q-20 0 -32 14t-10 34q2 19 18 33t35 14q20 0 32 -14t10 -33q-2 -20 -18 -34t-35 -14zM61 307q-10 0 -8 10l2 23q2 10 11 10h344q10 0 8 -10l-3 -23q0 -10 -11 -10h-343zM211 134q-19 0 -31 14t-10 34q2 19 18 33.5t35 14.5t31.5 -14.5t10.5 -33.5t-18 -33.5 t-36 -14.5z" />
<glyph unicode="&#xf8;" horiz-adv-x="404" d="M358 459v-6q22 -38 15 -91l-27 -221q-8 -67 -53 -108t-111 -41q-46 0 -76 22q-5 2 -7 -2l-18 -31q-6 -9 -13 -4l-20 11q-9 7 -3 14l27 44q1 2 -1 6q-20 37 -14 89l27 221q8 66 53 108t109 42q46 0 79 -22q5 -2 6 2l20 34q5 9 13 4l19 -11q9 -7 3 -14zM109 144 q-2 -17 -1 -25q1 -4 4 -1l187 319q2 4 -1 5q-21 23 -58 23q-41 0 -70 -29.5t-35 -76.5zM321 359q3 13 1 27q-2 6 -5 1l-186 -321q-1 -4 0 -5q24 -22 57 -22q41 0 71 29.5t36 75.5z" />
<glyph unicode="&#xf9;" horiz-adv-x="405" d="M270 590q5 -12 -8 -12h-23q-7 0 -11 7l-52 110q-5 12 7 12h30q6 0 11 -7zM330 494q2 10 11 10h32q9 0 9 -10l-60 -484q0 -10 -11 -10h-32q-10 0 -8 10l4 36q1 3 -0.5 3.5t-3.5 -1.5q-38 -55 -106 -55q-58 0 -87.5 36.5t-20.5 109.5l43 355q2 10 11 10h32q11 0 9 -10 l-42 -343q-14 -111 73 -111q43 0 71 32t35 88z" />
<glyph unicode="&#xfa;" horiz-adv-x="405" d="M332 707q13 0 6 -12l-81 -110q-5 -7 -12 -7h-24q-5 0 -7 3.5t2 8.5l74 110q5 7 12 7h30zM330 494q2 10 11 10h32q9 0 9 -10l-60 -484q0 -10 -11 -10h-32q-10 0 -8 10l4 36q1 3 -0.5 3.5t-3.5 -1.5q-38 -55 -106 -55q-58 0 -87.5 36.5t-20.5 109.5l43 355q2 10 11 10h32 q11 0 9 -10l-42 -343q-14 -111 73 -111q43 0 71 32t35 88z" />
<glyph unicode="&#xfb;" horiz-adv-x="405" d="M264 653q-1 1 -3 1t-3 -1l-55 -76q-7 -7 -13 -7h-30q-13 0 -4 12l76 102q7 7 13 7h39q6 0 11 -6l53 -103q2 -4 -0.5 -8t-7.5 -4h-30q-8 0 -11 7zM330 494q2 10 11 10h32q9 0 9 -10l-60 -484q0 -10 -11 -10h-32q-10 0 -8 10l4 36q1 3 -0.5 3.5t-3.5 -1.5q-38 -55 -106 -55 q-58 0 -87.5 36.5t-20.5 109.5l43 355q2 10 11 10h32q11 0 9 -10l-42 -343q-14 -111 73 -111q43 0 71 32t35 88z" />
<glyph unicode="&#xfc;" horiz-adv-x="405" d="M196 601q-16 0 -25 11.5t-7 28.5t14 28.5t28 11.5q15 0 23.5 -11.5t6.5 -28.5t-13.5 -28.5t-26.5 -11.5zM314 601q-16 0 -25 11.5t-7 28.5t14 28.5t28 11.5t24 -11.5t6 -28.5t-13 -28.5t-27 -11.5zM330 494q2 10 11 10h32q9 0 9 -10l-60 -484q0 -10 -11 -10h-32 q-10 0 -8 10l4 36q1 3 -0.5 3.5t-3.5 -1.5q-38 -55 -106 -55q-58 0 -87.5 36.5t-20.5 109.5l43 355q2 10 11 10h32q11 0 9 -10l-42 -343q-14 -111 73 -111q43 0 71 32t35 88z" />
<glyph unicode="&#xfd;" horiz-adv-x="342" d="M193 578q-14 0 -5 12l74 110q5 7 12 7h30q14 0 5 -12l-80 -110q-5 -7 -13 -7h-23zM0 -200q-7 0 -5 10l3 26q2 10 7 10h5q42 1 63 29t52 122v6l-63 490q-3 11 10 11h34q9 0 9 -9l45 -416q1 -5 4 0l146 416q3 9 12 9l35 -1q11 0 6 -11l-203 -543q-36 -93 -65 -121t-89 -28 h-6z" />
<glyph unicode="&#xfe;" horiz-adv-x="399" d="M370 364q-2 -19 -6.5 -55.5t-6.5 -54.5q-2 -22 -8 -65t-7 -48q-9 -66 -49.5 -107.5t-99.5 -41.5q-64 0 -92 52q-1 6 -4 1q-1 -1 -1 -2l-28 -233q-2 -10 -11 -10h-32q-9 0 -9 10l108 880q2 10 11 10h32q11 0 9 -10l-28 -229q-1 -3 1 -3.5t3 2.5q40 52 105 52 q58 0 88.5 -41.5t24.5 -106.5zM318 357q6 48 -16.5 78t-63.5 30q-40 0 -68.5 -30t-34.5 -78l-26 -210q-6 -48 15.5 -78t61.5 -30q41 0 71 30t36 78z" />
<glyph unicode="&#xff;" horiz-adv-x="342" d="M168 601q-16 0 -25 11.5t-7 28.5t14 28.5t28 11.5q15 0 23.5 -11.5t6.5 -28.5t-13.5 -28.5t-26.5 -11.5zM286 601q-16 0 -25 11.5t-7 28.5t14 28.5t28 11.5q15 0 23.5 -11.5t6.5 -28.5t-13 -28.5t-27 -11.5zM0 -200q-7 0 -5 10l3 26q2 10 7 10h5q42 1 63 29t52 122v6 l-63 490q-3 11 10 11h34q9 0 9 -9l45 -416q1 -5 4 0l146 416q3 9 12 9l35 -1q11 0 6 -11l-203 -543q-36 -93 -65 -121t-89 -28h-6z" />
<glyph unicode="&#x100;" horiz-adv-x="430" d="M384 835q10 0 8 -10l-2 -20q-2 -10 -11 -10h-174q-10 0 -8 10l2 20q2 10 11 10h174zM332 0q-10 0 -10 9l-10 131q0 4 -4 4h-189q-6 0 -6 -4l-43 -131q-3 -9 -12 -9h-32q-11 0 -7 11l231 680q2 9 12 9h38q10 0 10 -9l65 -680q0 -11 -10 -11h-33zM130 192q-2 -4 3 -4h170 q4 0 4 4l-34 417q-2 8 -4 0z" />
<glyph unicode="&#x101;" horiz-adv-x="404" d="M347 655q9 0 9 -10l-3 -20q-2 -10 -11 -10h-173q-11 0 -9 10l3 20q0 10 11 10h173zM329 494q2 10 11 10h32q9 0 9 -10l-60 -484q0 -10 -11 -10h-32q-10 0 -8 10l4 33q0 9 -4 1q-40 -52 -105 -52q-59 0 -89.5 41.5t-23.5 107.5q4 33 13 113q2 19 7 55t8 55q9 65 50 106.5 t99 41.5q65 0 91 -52q2 -3 3.5 -2.5t1.5 3.5zM183 39q40 0 69 30t35 78l26 210q5 48 -16 78t-61 30q-41 0 -71 -30t-36 -78l-26 -210q-5 -48 17 -78t63 -30z" />
<glyph unicode="&#x102;" horiz-adv-x="430" d="M288 756q-39 0 -63.5 26t-23.5 66q2 10 11 10h15q9 0 9 -10q0 -26 16 -43t40 -17q25 0 44.5 17t25.5 43q3 10 12 10h15q10 0 8 -10q-9 -40 -39.5 -66t-69.5 -26zM332 0q-10 0 -10 9l-10 131q0 4 -4 4h-189q-6 0 -6 -4l-43 -131q-3 -9 -12 -9h-32q-11 0 -7 11l231 680 q2 9 12 9h38q10 0 10 -9l65 -680q0 -11 -10 -11h-33zM130 192q-2 -4 3 -4h170q4 0 4 4l-34 417q-2 8 -4 0z" />
<glyph unicode="&#x103;" horiz-adv-x="404" d="M251 576q-39 0 -63.5 26t-23.5 66q2 10 11 10h15q9 0 9 -10q0 -26 16 -43t40 -17q25 0 44.5 17t25.5 43q3 10 12 10h15q10 0 8 -10q-8 -40 -38.5 -66t-70.5 -26zM329 494q2 10 11 10h32q9 0 9 -10l-60 -484q0 -10 -11 -10h-32q-10 0 -8 10l4 33q0 9 -4 1 q-40 -52 -105 -52q-59 0 -89.5 41.5t-23.5 107.5q4 33 13 113q2 19 7 55t8 55q9 65 50 106.5t99 41.5q65 0 91 -52q2 -3 3.5 -2.5t1.5 3.5zM183 39q40 0 69 30t35 78l26 210q5 48 -16 78t-61 30q-41 0 -71 -30t-36 -78l-26 -210q-5 -48 17 -78t63 -30z" />
<glyph unicode="&#x104;" horiz-adv-x="449" d="M357 -149q11 3 11 -7v-14q0 -10 -8 -11q-34 -7 -61.5 4.5t-29.5 51.5q-4 67 58 120l6 5h-1q-10 0 -10 9l-10 131q0 4 -4 4h-189q-6 0 -6 -4l-43 -131q-3 -9 -12 -9h-32q-11 0 -7 11l231 680q2 9 12 9h38q10 0 10 -9l65 -680q0 -11 -1 -11q-2 0 -4 -2q-62 -55 -62 -109 q1 -46 49 -38zM130 192q-2 -4 3 -4h170q4 0 4 4l-34 417q-2 8 -4 0z" />
<glyph unicode="&#x105;" horiz-adv-x="582" d="M303 -149q9 3 11 -7v-14q0 -10 -9 -11q-33 -8 -60.5 4t-29.5 52q-4 68 60 121l4 4h-1q-10 0 -8 10l4 33q0 9 -4 1q-40 -52 -105 -52q-59 0 -89.5 41.5t-23.5 107.5q4 33 13 113q2 19 7 55t8 55q9 65 50 106.5t99 41.5q65 0 91 -52q2 -3 3.5 -2.5t1.5 3.5l4 33q2 10 11 10 h32q9 0 9 -10l-60 -484l-2 -10h-1q-65 -56 -64 -111q1 -45 49 -38zM183 39q40 0 69 30t35 78l26 210q5 48 -16 78t-61 30q-41 0 -71 -30t-36 -78l-26 -210q-5 -48 17 -78t63 -30z" />
<glyph unicode="&#x106;" horiz-adv-x="428" d="M263 782q-14 0 -5 12l73 110q7 7 13 7h30q14 0 5 -12l-80 -110q-7 -7 -13 -7h-23zM196 -8q-71 0 -108.5 45.5t-28.5 121.5l47 384q10 75 58.5 120t119.5 45t109 -45t29 -120l-3 -19q0 -11 -11 -11l-32 -2q-10 0 -8 10l3 25q6 52 -19.5 83.5t-73.5 31.5t-80.5 -31.5 t-39.5 -83.5l-48 -391q-6 -52 19 -84t73 -32t81 32t40 84l2 23q2 10 11 10l32 -2q9 0 9 -10l-2 -17q-10 -76 -59 -121.5t-120 -45.5z" />
<glyph unicode="&#x107;" horiz-adv-x="382" d="M219 586q-5 0 -7 3.5t2 8.5l74 110q5 7 12 7h30q13 0 6 -12l-81 -110q-5 -7 -12 -7h-24zM177 -8q-65 0 -99.5 41.5t-26.5 108.5l27 220q8 66 53 108t109 42t99.5 -39.5t28.5 -94.5v-6q-2 -10 -11 -10l-32 -2q-5 0 -7.5 2t-1.5 6l1 8q4 36 -19 62.5t-63 26.5 q-41 0 -70.5 -29.5t-35.5 -76.5l-26 -215q-6 -46 16 -75.5t63 -29.5t70.5 26.5t33.5 62.5l1 5q2 10 11 10h32q10 0 8 -9l-1 -9q-6 -55 -51 -94t-109 -39z" />
<glyph unicode="&#x10a;" horiz-adv-x="428" d="M294 788q-16 0 -24.5 11t-6.5 28q1 16 13 27.5t27 11.5t22.5 -11t5.5 -28t-12.5 -28t-24.5 -11zM196 -8q-71 0 -108.5 45.5t-28.5 121.5l47 384q10 75 58.5 120t119.5 45t109 -45t29 -120l-3 -19q0 -11 -11 -11l-32 -2q-10 0 -8 10l3 25q6 52 -19.5 83.5t-73.5 31.5 t-80.5 -31.5t-39.5 -83.5l-48 -391q-6 -52 19 -84t73 -32t81 32t40 84l2 23q2 10 11 10l32 -2q9 0 9 -10l-2 -17q-10 -76 -59 -121.5t-120 -45.5z" />
<glyph unicode="&#x10b;" horiz-adv-x="382" d="M250 592q-15 0 -24 11.5t-7 27.5q2 17 13.5 28t27.5 11q14 0 22 -11t6 -28t-12.5 -28t-25.5 -11zM177 -8q-65 0 -99.5 41.5t-26.5 108.5l27 220q8 66 53 108t109 42t99.5 -39.5t28.5 -94.5v-6q-2 -10 -11 -10l-32 -2q-5 0 -7.5 2t-1.5 6l1 8q4 36 -19 62.5t-63 26.5 q-41 0 -70.5 -29.5t-35.5 -76.5l-26 -215q-6 -46 16 -75.5t63 -29.5t70.5 26.5t33.5 62.5l1 5q2 10 11 10h32q10 0 8 -9l-1 -9q-6 -55 -51 -94t-109 -39z" />
<glyph unicode="&#x10c;" horiz-adv-x="428" d="M272 771q-6 0 -11 7l-51 102q-5 12 7 12h29q8 0 11 -7l37 -77q1 -2 3 -2t3 2l55 77q5 7 13 7h27q13 0 4 -12l-77 -102q-7 -7 -13 -7h-37zM196 -8q-71 0 -108.5 45.5t-28.5 121.5l47 384q10 75 58.5 120t119.5 45t109 -45t29 -120l-3 -19q0 -11 -11 -11l-32 -2 q-10 0 -8 10l3 25q6 52 -19.5 83.5t-73.5 31.5t-80.5 -31.5t-39.5 -83.5l-48 -391q-6 -52 19 -84t73 -32t81 32t40 84l2 23q2 10 11 10l32 -2q9 0 9 -10l-2 -17q-10 -76 -59 -121.5t-120 -45.5z" />
<glyph unicode="&#x10d;" horiz-adv-x="382" d="M229 575q-7 0 -11 7l-52 102q-5 12 8 12h29q6 0 11 -7l37 -77q0 -2 2.5 -2t3.5 2l55 77q5 7 12 7h27q12 0 5 -12l-78 -102q-5 -7 -12 -7h-37zM177 -8q-65 0 -99.5 41.5t-26.5 108.5l27 220q8 66 53 108t109 42t99.5 -39.5t28.5 -94.5v-6q-2 -10 -11 -10l-32 -2 q-5 0 -7.5 2t-1.5 6l1 8q4 36 -19 62.5t-63 26.5q-41 0 -70.5 -29.5t-35.5 -76.5l-26 -215q-6 -46 16 -75.5t63 -29.5t70.5 26.5t33.5 62.5l1 5q2 10 11 10h32q10 0 8 -9l-1 -9q-6 -55 -51 -94t-109 -39z" />
<glyph unicode="&#x10e;" horiz-adv-x="449" d="M277 760q-7 0 -11 7l-52 102q-5 12 8 12h29q6 0 11 -7l37 -77q0 -1 2 -1t3 1l56 77q5 7 12 7h27q12 0 5 -12l-78 -102q-5 -7 -12 -7h-37zM67 0q-9 0 -9 10l84 680q2 10 11 10h142q72 0 107.5 -49.5t25.5 -134.5l-41 -332q-10 -85 -58 -134.5t-119 -49.5h-143zM115 51 q0 -4 3 -4h97q48 1 80.5 38t39.5 100l40 329q8 65 -14.5 102t-71.5 37h-96q-3 0 -5 -4z" />
<glyph unicode="&#x10f;" horiz-adv-x="519" d="M530 700q7 7 13 7h30q14 0 5 -12l-80 -110q-7 -7 -13 -7h-23q-14 0 -5 12zM320 460q2 -3 3.5 -2.5t1.5 3.5l28 229q2 10 11 10h32q11 0 9 -10l-84 -680q0 -10 -11 -10h-32q-10 0 -8 10l4 33q0 9 -4 1q-40 -52 -105 -52q-59 0 -89.5 41.5t-23.5 107.5q4 33 13 113 q2 19 7 55t8 55q9 65 50 106.5t99 41.5q65 0 91 -52zM183 39q40 0 69 30t35 78l26 210q5 48 -16 78t-61 30q-41 0 -71 -30t-36 -78l-26 -210q-5 -48 17 -78t63 -30z" />
<glyph unicode="&#x110;" horiz-adv-x="494" d="M340 700q72 0 107.5 -49.5t25.5 -134.5l-41 -332q-10 -85 -58.5 -134.5t-119.5 -49.5h-142q-11 0 -9 10l41 333q0 4 -3 4h-31q-11 0 -9 10l2 17q2 10 11 10h31q4 0 4 4l38 302q0 10 10 10h143zM380 185l40 329q8 65 -15 102t-72 37h-96q-4 0 -4 -4l-32 -261q0 -4 3 -4h83 q10 0 8 -10l-2 -17q-2 -10 -11 -10h-82q-3 0 -5 -4l-35 -292q-2 -4 3 -4h97q47 1 79.5 37.5t40.5 100.5z" />
<glyph unicode="&#x111;" horiz-adv-x="582" d="M435 608q11 0 9 -10l-2 -17q-2 -10 -11 -10h-37q-4 0 -4 -4l-69 -557q0 -10 -11 -10h-32q-10 0 -8 10l4 33q0 9 -4 1q-40 -52 -105 -52q-59 0 -89.5 41.5t-23.5 107.5q4 33 13 113q2 19 7 55t8 55q9 65 50 106.5t99 41.5q65 0 91 -52q2 -3 3.5 -2.5t1.5 3.5l13 106 q2 4 -3 4h-142q-10 0 -8 10l2 17q2 10 11 10h141q5 0 5 4l9 78q2 10 11 10h32q11 0 9 -10l-10 -78q0 -4 4 -4h36zM183 39q40 0 69 30t35 78l26 210q5 48 -16 78t-61 30q-41 0 -71 -30t-36 -78l-26 -210q-5 -48 17 -78t63 -30z" />
<glyph unicode="&#x112;" horiz-adv-x="414" d="M395 846q10 0 8 -10l-2 -20q-2 -10 -11 -10h-174q-10 0 -8 10l2 20q2 10 11 10h174zM434 663q-2 -10 -11 -10h-230q-3 0 -5 -4l-33 -271q0 -4 3 -4h148q10 0 8 -10l-3 -27q-2 -10 -11 -10h-147q-3 0 -5 -4l-33 -272q0 -4 3 -4h230q9 0 9 -10l-4 -27q0 -10 -11 -10h-275 q-9 0 -9 10l84 680q2 10 11 10h275q11 0 9 -10z" />
<glyph unicode="&#x113;" horiz-adv-x="388" d="M343 647q9 0 9 -10l-3 -20q0 -10 -11 -10h-173q-9 0 -9 10l3 20q0 10 11 10h173zM352 243q-2 -10 -11 -10h-223q-3 0 -5 -4l-10 -85q-6 -46 16 -75.5t63 -29.5q35 0 61.5 21t38.5 55q4 9 12 9l30 -2q10 0 8 -8q0 -3 -1 -4q-16 -55 -57 -86.5t-97 -31.5q-65 0 -99.5 41.5 t-26.5 107.5l27 221q8 66 53 108t109 42q65 0 99.5 -41.5t26.5 -108.5zM235 465q-41 0 -70.5 -29.5t-35.5 -76.5l-9 -76q0 -4 3 -4h178q4 0 4 4l10 76q5 47 -17 76.5t-63 29.5z" />
<glyph unicode="&#x116;" horiz-adv-x="414" d="M302 791q-16 0 -24.5 11t-6.5 28q1 16 13 27.5t27 11.5t23 -11t6 -28t-13 -28t-25 -11zM434 663q-2 -10 -11 -10h-230q-3 0 -5 -4l-33 -271q0 -4 3 -4h148q10 0 8 -10l-3 -27q-2 -10 -11 -10h-147q-3 0 -5 -4l-33 -272q0 -4 3 -4h230q9 0 9 -10l-4 -27q0 -10 -11 -10 h-275q-9 0 -9 10l84 680q2 10 11 10h275q11 0 9 -10z" />
<glyph unicode="&#x117;" horiz-adv-x="388" d="M250 592q-15 0 -24 11.5t-7 27.5q2 17 13.5 28t27.5 11q14 0 22 -11t6 -28t-12.5 -28t-25.5 -11zM352 243q-2 -10 -11 -10h-223q-3 0 -5 -4l-10 -85q-6 -46 16 -75.5t63 -29.5q35 0 61.5 21t38.5 55q4 9 12 9l30 -2q10 0 8 -8q0 -3 -1 -4q-16 -55 -57 -86.5t-97 -31.5 q-65 0 -99.5 41.5t-26.5 107.5l27 221q8 66 53 108t109 42q65 0 99.5 -41.5t26.5 -108.5zM235 465q-41 0 -70.5 -29.5t-35.5 -76.5l-9 -76q0 -4 3 -4h178q4 0 4 4l10 76q5 47 -17 76.5t-63 29.5z" />
<glyph unicode="&#x118;" horiz-adv-x="414" d="M434 663q-2 -10 -11 -10h-230q-3 0 -5 -4l-33 -271q0 -4 3 -4h148q10 0 8 -10l-3 -27q-2 -10 -11 -10h-147q-3 0 -5 -4l-33 -272q0 -4 3 -4h230q9 0 9 -10l-4 -27q0 -10 -11 -10h-118q-3 0 -5 -2q-56 -53 -55 -103q1 -45 48 -38q11 3 11 -7v-14q0 -10 -8 -11 q-33 -7 -60.5 4.5t-30.5 51.5q-3 63 52 114q3 5 -1 5h-108q-9 0 -9 10l84 680q2 10 11 10h275q11 0 9 -10z" />
<glyph unicode="&#x119;" horiz-adv-x="388" d="M352 243q-2 -10 -11 -10h-223q-3 0 -5 -4l-10 -85q-6 -46 16 -75.5t63 -29.5q35 0 61.5 21t38.5 55q4 9 12 9l31 -2q12 0 7 -10q-14 -49 -49 -80.5t-83 -38.5q-3 0 -5 -2q-58 -53 -57 -104q1 -46 49 -38q11 3 11 -7v-14q0 -10 -8 -11q-34 -7 -61.5 4.5t-29.5 51.5 q-3 64 54 116q3 3 -2 5q-53 7 -80 47t-20 100l27 221q8 66 53 108t109 42q65 0 99.5 -41.5t26.5 -108.5zM235 465q-41 0 -70.5 -29.5t-35.5 -76.5l-9 -76q0 -4 3 -4h178q4 0 4 4l10 76q5 47 -17 76.5t-63 29.5z" />
<glyph unicode="&#x11a;" horiz-adv-x="414" d="M330 781q-7 -7 -13 -7h-37q-6 0 -10 7l-52 102q-5 12 7 12h29q8 0 11 -7l37 -77q1 -1 3 -1t3 1l55 77q7 7 13 7h27q13 0 4 -12zM434 663q-2 -10 -11 -10h-230q-3 0 -5 -4l-33 -271q0 -4 3 -4h148q10 0 8 -10l-3 -27q-2 -10 -11 -10h-147q-3 0 -5 -4l-33 -272q0 -4 3 -4 h230q9 0 9 -10l-4 -27q0 -10 -11 -10h-275q-9 0 -9 10l84 680q2 10 11 10h275q11 0 9 -10z" />
<glyph unicode="&#x11b;" horiz-adv-x="388" d="M277 574q-5 -7 -12 -7h-37q-8 0 -11 7l-52 102q-5 12 8 12h29q6 0 11 -7l37 -77q0 -2 2 -2t4 2l55 77q5 7 12 7h27q12 0 5 -12zM352 243q-2 -10 -11 -10h-223q-3 0 -5 -4l-10 -85q-6 -46 16 -75.5t63 -29.5q35 0 61.5 21t38.5 55q4 9 12 9l30 -2q10 0 8 -8q0 -3 -1 -4 q-16 -55 -57 -86.5t-97 -31.5q-65 0 -99.5 41.5t-26.5 107.5l27 221q8 66 53 108t109 42q65 0 99.5 -41.5t26.5 -108.5zM235 465q-41 0 -70.5 -29.5t-35.5 -76.5l-9 -76q0 -4 3 -4h178q4 0 4 4l10 76q5 47 -17 76.5t-63 29.5z" />
<glyph unicode="&#x11e;" horiz-adv-x="427" d="M291 764q-39 0 -63.5 26t-23.5 66q2 10 11 10h15q9 0 9 -10q0 -26 16 -43t40 -17q25 0 44.5 17t25.5 43q3 10 12 10h15q10 0 8 -10q-9 -40 -39.5 -66t-69.5 -26zM196 -8q-71 0 -108.5 44.5t-28.5 117.5l48 392q9 73 57.5 117.5t119.5 44.5t109 -44.5t29 -117.5l-5 -44 q-2 -10 -11 -10h-32q-9 0 -9 10l6 45q6 52 -19.5 83t-73.5 31t-81 -31t-40 -83l-48 -394q-6 -52 19.5 -83t73.5 -31t81 31t39 83l18 141q0 4 -4 4h-91q-10 0 -8 10l3 27q2 10 11 10h137q10 0 8 -10l-22 -181q-9 -73 -58 -117.5t-120 -44.5z" />
<glyph unicode="&#x11f;" horiz-adv-x="394" d="M247 567q-39 0 -63.5 26t-23.5 66q2 10 11 10h15q9 0 9 -10q0 -26 16 -43t40 -17q25 0 44.5 17t25.5 43q3 10 12 10h15q10 0 8 -10q-8 -40 -38.5 -66t-70.5 -26zM329 494q2 10 11 10h33q9 0 9 -10l-60 -488q-26 -214 -218 -207q-10 0 -8 10l3 27q2 10 11 10 q75 -1 112.5 40.5t47.5 123.5l5 38q0 3 -1.5 3.5t-3.5 -2.5q-40 -54 -106 -54q-60 0 -90 41.5t-22 108.5l26 217q8 67 49 108.5t101 41.5q66 0 92 -54q3 -3 5 1zM184 42q40 0 68.5 29t34.5 76l26 212q6 47 -15.5 76.5t-61.5 29.5q-41 0 -71 -29.5t-36 -76.5l-26 -212 q-5 -47 17.5 -76t63.5 -29z" />
<glyph unicode="&#x120;" horiz-adv-x="427" d="M294 788q-16 0 -24.5 11t-6.5 28q1 16 13 27.5t27 11.5t22.5 -11t5.5 -28t-12.5 -28t-24.5 -11zM196 -8q-71 0 -108.5 44.5t-28.5 117.5l48 392q9 73 57.5 117.5t119.5 44.5t109 -44.5t29 -117.5l-5 -44q-2 -10 -11 -10h-32q-9 0 -9 10l6 45q6 52 -19.5 83t-73.5 31 t-81 -31t-40 -83l-48 -394q-6 -52 19.5 -83t73.5 -31t81 31t39 83l18 141q0 4 -4 4h-91q-10 0 -8 10l3 27q2 10 11 10h137q10 0 8 -10l-22 -181q-9 -73 -58 -117.5t-120 -44.5z" />
<glyph unicode="&#x121;" horiz-adv-x="394" d="M250 591q-15 0 -24 11.5t-7 27.5q2 17 13.5 28t27.5 11q14 0 22 -11t6 -28t-13 -28t-25 -11zM329 494q2 10 11 10h33q9 0 9 -10l-60 -488q-26 -214 -218 -207q-10 0 -8 10l3 27q2 10 11 10q75 -1 112.5 40.5t47.5 123.5l5 38q0 3 -1.5 3.5t-3.5 -2.5q-40 -54 -106 -54 q-60 0 -90 41.5t-22 108.5l26 217q8 67 49 108.5t101 41.5q66 0 92 -54q3 -3 5 1zM184 42q40 0 68.5 29t34.5 76l26 212q6 47 -15.5 76.5t-61.5 29.5q-41 0 -71 -29.5t-36 -76.5l-26 -212q-5 -47 17.5 -76t63.5 -29z" />
<glyph unicode="&#x122;" horiz-adv-x="427" d="M196 -8q-71 0 -108.5 44.5t-28.5 117.5l48 392q9 73 57.5 117.5t119.5 44.5t109 -44.5t29 -117.5l-5 -44q-2 -10 -11 -10h-32q-9 0 -9 10l6 45q6 52 -19.5 83t-73.5 31t-81 -31t-40 -83l-48 -394q-6 -52 19.5 -83t73.5 -31t81 31t39 83l18 141q0 4 -4 4h-91q-10 0 -8 10 l3 27q2 10 11 10h137q10 0 8 -10l-22 -181q-9 -73 -58 -117.5t-120 -44.5zM141 -195q-14 0 -5 12l73 110q7 7 13 7h30q14 0 5 -12l-80 -110q-7 -7 -13 -7h-23z" />
<glyph unicode="&#x123;" horiz-adv-x="394" d="M292 698q13 0 6 -12l-74 -110q-5 -7 -13 -7h-30q-5 0 -7 3.5t2 8.5l81 110q5 7 12 7h23zM329 494q2 10 11 10h33q9 0 9 -10l-60 -488q-26 -214 -218 -207q-10 0 -8 10l3 27q2 10 11 10q75 -1 112.5 40.5t47.5 123.5l5 38q0 3 -1.5 3.5t-3.5 -2.5q-40 -54 -106 -54 q-60 0 -90 41.5t-22 108.5l26 217q8 67 49 108.5t101 41.5q66 0 92 -54q3 -3 5 1zM184 42q40 0 68.5 29t34.5 76l26 212q6 47 -15.5 76.5t-61.5 29.5q-41 0 -71 -29.5t-36 -76.5l-26 -212q-5 -47 17.5 -76t63.5 -29z" />
<glyph unicode="&#x126;" horiz-adv-x="456" d="M464 549q9 0 9 -10l-3 -21q-2 -10 -11 -10h-33q-4 0 -4 -4l-61 -494q-2 -10 -11 -10h-32q-10 0 -8 10l38 313q0 4 -3 4h-192q-3 0 -5 -4l-38 -313q-2 -10 -11 -10h-32q-9 0 -9 10l61 494q0 4 -3 4h-33q-9 0 -9 10l3 21q2 10 11 10h33q4 0 4 4l17 137q2 10 11 10h32 q10 0 8 -10l-16 -137q-2 -4 3 -4h192q4 0 4 4l17 137q2 10 11 10h32q9 0 9 -10l-17 -137q0 -4 3 -4h33zM351 374q4 0 4 4l15 126q2 4 -3 4h-192q-4 0 -4 -4l-16 -126q0 -4 3 -4h193z" />
<glyph unicode="&#x127;" horiz-adv-x="405" d="M267 511q59 0 86 -41t18 -115l-42 -345q-2 -10 -11 -10h-32q-10 0 -8 10l41 340q7 54 -12.5 84t-60.5 30q-43 0 -71.5 -32t-35.5 -88l-41 -334q-2 -10 -11 -10h-32q-10 0 -8 10l66 541q0 4 -3 4h-42q-10 0 -8 10l2 17q0 10 11 10h41q5 0 5 4l11 94q2 10 11 10h32 q9 0 9 -10l-12 -94q0 -4 4 -4h136q11 0 9 -10l-2 -17q-2 -10 -11 -10h-137q-4 0 -4 -4l-12 -96q-1 -2 0 -3q2 -1 5 3q40 56 109 56z" />
<glyph unicode="&#x12a;" horiz-adv-x="205" d="M94 806q-10 0 -8 10l2 20q2 10 11 10h174q10 0 8 -10l-2 -20q-2 -10 -11 -10h-174zM67 0q-9 0 -9 10l84 680q2 10 11 10h32q10 0 8 -10l-83 -680q-2 -10 -11 -10h-32z" />
<glyph unicode="&#x12b;" horiz-adv-x="175" d="M54 608q-10 0 -8 10l2 20q2 10 11 10h174q10 0 8 -10l-2 -20q-2 -10 -11 -10h-174zM50 0q-10 0 -8 10l59 484q2 10 11 10h32q11 0 9 -10l-60 -484q0 -10 -11 -10h-32z" />
<glyph unicode="&#x12e;" horiz-adv-x="266" d="M135 -149q11 3 11 -7v-14q0 -10 -8 -11q-34 -7 -61.5 4.5t-29.5 51.5q-4 67 58 120l5 5h-2q-11 0 -9 10l84 680q0 10 11 10h32q10 0 8 -10l-85 -690l-4 -5q-59 -52 -59 -106q1 -46 49 -38z" />
<glyph unicode="&#x12f;" horiz-adv-x="224" d="M178 594q-16 0 -24.5 11t-6.5 28q1 16 13 27.5t27 11.5t22.5 -11t5.5 -28t-12.5 -28t-24.5 -11zM114 -149q10 3 10 -7l1 -14q0 -10 -9 -11q-33 -7 -60.5 4.5t-30.5 51.5q-2 68 59 120l5 5h-1q-10 0 -8 10l59 484q2 10 11 10h32q9 0 9 -10l-60 -487l-1 -7q-2 -1 -3 -2 q-63 -56 -62 -109q1 -45 49 -38z" />
<glyph unicode="&#x130;" horiz-adv-x="205" d="M180 791q-16 0 -25 11t-7 28q2 16 14 27.5t27 11.5t22.5 -11t5.5 -28t-12.5 -28t-24.5 -11zM67 0q-9 0 -9 10l84 680q2 10 11 10h32q10 0 8 -10l-83 -680q-2 -10 -11 -10h-32z" />
<glyph unicode="&#x131;" horiz-adv-x="175" d="M50 0q-10 0 -8 10l59 484q2 10 11 10h32q11 0 9 -10l-60 -484q0 -10 -11 -10h-32z" />
<glyph unicode="&#x133;" horiz-adv-x="368" d="M332 605q-17 0 -26 12t-7 32t15 32t29 12q17 0 27.5 -12t7.5 -32q-2 -20 -14.5 -32t-31.5 -12zM150 605q-17 0 -27 12.5t-7 31.5q2 19 15 31t30 12t26 -12t7 -31t-14.5 -31.5t-29.5 -12.5zM60 0q-10 0 -8 10l59 484q2 10 11 10h32q9 0 9 -10l-60 -484q-2 -10 -11 -10h-32 zM130 -209q-11 0 -9 10l3 27q2 10 11 10q78 4 91 107l67 549q2 10 11 10h32q11 0 9 -10l-68 -549q-9 -75 -42.5 -114t-104.5 -40z" />
<glyph unicode="&#x136;" horiz-adv-x="429" d="M67 0q-9 0 -9 10l84 680q2 10 11 10h32q10 0 8 -10l-42 -343q0 -3 1.5 -3.5t3.5 2.5l245 347q7 7 13 7h37q5 0 7 -3.5t-2 -8.5l-186 -266q-2 -2 -2 -6l121 -404q3 -12 -10 -12h-37q-8 0 -9 8l-105 360q-1 4 -5 0l-81 -107q-2 -2 -2 -5l-30 -246q-2 -10 -11 -10h-32z M164 -187q-14 0 -5 12l74 110q5 7 12 7h30q14 0 5 -12l-80 -110q-5 -7 -12 -7h-24z" />
<glyph unicode="&#x137;" horiz-adv-x="382" d="M55 0q-10 0 -8 10l83 680q2 10 11 10h32q9 0 9 -10l-52 -420q0 -2 2 -2.5t3 1.5l188 229q5 6 12 6h34q6 0 7.5 -4t-2.5 -8l-111 -136q-2 -2 -2 -5l72 -340q2 -11 -9 -11h-34q-8 0 -11 8l-55 297q-1 6 -6 1l-96 -116q-2 -2 -2 -5l-22 -175q-2 -10 -11 -10h-32zM131 -187 q-5 0 -7 3.5t2 8.5l74 110q5 7 12 7h30q14 0 5 -12l-80 -110q-5 -7 -12 -7h-24z" />
<glyph unicode="&#x139;" horiz-adv-x="376" d="M146 774q-5 0 -7 3.5t2 8.5l74 110q5 7 12 7h30q13 0 6 -12l-81 -110q-5 -7 -12 -7h-24zM67 0q-9 0 -9 10l84 680q2 10 11 10h32q10 0 8 -10l-78 -639q0 -4 3 -4h227q9 0 9 -10l-4 -27q0 -10 -10 -10h-273z" />
<glyph unicode="&#x13a;" horiz-adv-x="169" d="M131 774q-14 0 -5 12l73 110q7 7 13 7h30q14 0 5 -12l-80 -110q-7 -7 -13 -7h-23zM49 0q-10 0 -8 10l83 680q2 10 11 10h32q11 0 9 -10l-84 -680q0 -10 -11 -10h-32z" />
<glyph unicode="&#x13b;" horiz-adv-x="376" d="M67 0q-9 0 -9 10l84 680q2 10 11 10h32q10 0 8 -10l-78 -639q0 -4 3 -4h227q9 0 9 -10l-4 -27q0 -10 -10 -10h-273zM120 -187q-13 0 -6 12l74 110q5 7 12 7h31q5 0 7 -3.5t-2 -8.5l-81 -110q-5 -7 -12 -7h-23z" />
<glyph unicode="&#x13c;" horiz-adv-x="169" d="M49 0q-10 0 -8 10l83 680q2 10 11 10h32q11 0 9 -10l-84 -680q0 -10 -11 -10h-32zM-42 -187q-13 0 -6 12l74 110q5 7 12 7h31q5 0 7 -3.5t-2 -8.5l-81 -110q-5 -7 -12 -7h-23z" />
<glyph unicode="&#x13d;" horiz-adv-x="376" d="M155 755q-7 0 -11 7l-51 102q-7 12 7 12h29q6 0 11 -7l37 -77q2 -4 6 0l55 77q5 7 12 7h27q12 0 5 -12l-78 -102q-5 -7 -12 -7h-37zM67 0q-9 0 -9 10l84 680q2 10 11 10h32q10 0 8 -10l-78 -639q0 -4 3 -4h227q9 0 9 -10l-4 -27q0 -10 -10 -10h-273z" />
<glyph unicode="&#x13e;" horiz-adv-x="169" d="M139 755q-6 0 -11 7l-51 102q-5 12 7 12h29q7 0 11 -7l37 -77q1 -2 3 -2t3 2l55 77q7 7 13 7h27q13 0 4 -12l-77 -102q-7 -7 -13 -7h-37zM49 0q-10 0 -8 10l83 680q2 10 11 10h32q11 0 9 -10l-84 -680q0 -10 -11 -10h-32z" />
<glyph unicode="&#x141;" horiz-adv-x="376" d="M115 51q0 -4 3 -4h227q9 0 9 -10l-4 -27q0 -10 -10 -10h-273q-9 0 -9 10l31 247q0 2 -1.5 3t-3.5 0l-78 -52q-8 -6 -13 2l-13 18q-4 7 4 14l109 73q3 3 4 5l45 370q2 10 11 10h32q10 0 8 -10l-40 -330q-1 -2 0.5 -3.5t3.5 0.5l179 120q8 6 13 -2l12 -20q5 -8 -3 -14 l-209 -139q-4 -4 -4 -5z" />
<glyph unicode="&#x142;" horiz-adv-x="169" d="M233 390q3 -8 -5 -14l-94 -54q-4 -2 -4 -5l-38 -307q0 -10 -11 -10h-32q-10 0 -8 10l34 273q0 5 -5 3l-42 -24q-10 -6 -13 4l-9 19q-3 9 5 14l67 38q4 2 4 5l42 348q2 10 11 10h32q11 0 9 -10l-39 -313q0 -5 5 -3l69 40q10 6 13 -4z" />
<glyph unicode="&#x143;" horiz-adv-x="473" d="M284 785q-13 0 -6 12l74 110q5 7 12 7h30q15 0 6 -12l-81 -110q-5 -7 -12 -7h-23zM67 0q-9 0 -9 10l84 680q2 10 11 10h34q7 0 10 -8l143 -549q0 -4 3 -2l2 3l67 546q0 10 11 10h31q10 0 8 -10l-83 -680q-2 -10 -11 -10h-34q-9 0 -10 8l-143 550q0 4 -3 2q-1 -1 -2 -3 l-66 -547q-2 -10 -11 -10h-32z" />
<glyph unicode="&#x144;" horiz-adv-x="405" d="M340 712q5 0 7 -3.5t-2 -8.5l-80 -110q-7 -7 -13 -7h-23q-13 0 -6 12l74 110q5 7 13 7h30zM267 511q59 0 86 -41t18 -115l-42 -345q-2 -10 -11 -10h-32q-10 0 -8 10l41 340q7 54 -12.5 84t-60.5 30q-43 0 -71.5 -32t-35.5 -88l-41 -334q-2 -10 -11 -10h-32q-10 0 -8 10 l59 484q2 10 11 10h32q9 0 9 -10l-5 -39q-1 -2 0 -3q2 -1 5 3q40 56 109 56z" />
<glyph unicode="&#x145;" horiz-adv-x="473" d="M67 0q-9 0 -9 10l84 680q2 10 11 10h34q7 0 10 -8l143 -549q0 -4 3 -2l2 3l67 546q0 10 11 10h31q10 0 8 -10l-83 -680q-2 -10 -11 -10h-34q-9 0 -10 8l-143 550q0 4 -3 2q-1 -1 -2 -3l-66 -547q-2 -10 -11 -10h-32zM165 -187q-14 0 -5 12l74 110q5 7 12 7h30q14 0 5 -12 l-80 -110q-5 -7 -13 -7h-23z" />
<glyph unicode="&#x146;" horiz-adv-x="405" d="M267 511q59 0 86 -41t18 -115l-42 -345q-2 -10 -11 -10h-32q-10 0 -8 10l41 340q7 54 -12.5 84t-60.5 30q-43 0 -71.5 -32t-35.5 -88l-41 -334q-2 -10 -11 -10h-32q-10 0 -8 10l59 484q2 10 11 10h32q9 0 9 -10l-5 -39q-1 -2 0 -3q2 -1 5 3q40 56 109 56zM138 -187 q-14 0 -5 12l73 110q7 7 13 7h30q14 0 5 -12l-80 -110q-7 -7 -13 -7h-23z" />
<glyph unicode="&#x147;" horiz-adv-x="473" d="M293 774q-6 0 -11 7l-51 102q-5 12 7 12h29q6 0 11 -7l37 -77q1 -1 3 -1t3 1l55 77q5 7 12 7h27q14 0 5 -12l-78 -102q-5 -7 -12 -7h-37zM67 0q-9 0 -9 10l84 680q2 10 11 10h34q7 0 10 -8l143 -549q0 -4 3 -2l2 3l67 546q0 10 11 10h31q10 0 8 -10l-83 -680 q-2 -10 -11 -10h-34q-9 0 -10 8l-143 550q0 4 -3 2q-1 -1 -2 -3l-66 -547q-2 -10 -11 -10h-32z" />
<glyph unicode="&#x148;" horiz-adv-x="405" d="M287 579q-5 -7 -12 -7h-37q-6 0 -11 7l-51 102q-5 12 7 12h29q8 0 11 -7l37 -77q1 -1 3 -1t3 1l55 77q5 7 12 7h28q13 0 4 -12zM267 511q59 0 86 -41t18 -115l-42 -345q-2 -10 -11 -10h-32q-10 0 -8 10l41 340q7 54 -12.5 84t-60.5 30q-43 0 -71.5 -32t-35.5 -88 l-41 -334q-2 -10 -11 -10h-32q-10 0 -8 10l59 484q2 10 11 10h32q9 0 9 -10l-5 -39q-1 -2 0 -3q2 -1 5 3q40 56 109 56z" />
<glyph unicode="&#x14a;" horiz-adv-x="473" d="M412 690q0 10 11 10h31q10 0 8 -10l-85 -690q-4 -33 -7.5 -50.5t-11.5 -39t-21 -32t-35 -18t-53 -8.5q-11 0 -9 10l3 27q2 10 12 10q27 1 41.5 15t18 28t7.5 51q1 9 2 14q0 2 -1 3l-142 548q0 4 -3 2q-1 -1 -2 -3l-66 -547q-2 -10 -11 -10h-32q-9 0 -9 10l84 680 q2 10 11 10h34q7 0 10 -8l140 -539q0 -4 3 -2l2 3l42 345q2 10 3 10q3 0 3 4z" />
<glyph unicode="&#x14b;" horiz-adv-x="405" d="M371 355l-42 -349l-1 -6q-1 -1 -1 -2l-2 -12q-9 -70 -37.5 -107.5t-96.5 -38.5q-9 0 -9 10l4 26q0 10 11 10q65 5 77 100l31 252v4q2 2 2 5l12 103q7 54 -12.5 84t-60.5 30q-43 0 -71.5 -32t-35.5 -88l-41 -334q-2 -10 -11 -10h-32q-10 0 -8 10l59 484q2 10 11 10h32 q9 0 9 -10l-5 -39q-1 -3 0.5 -3t3.5 2q42 57 110 57q59 0 86 -41t18 -115z" />
<glyph unicode="&#x14c;" horiz-adv-x="437" d="M209 796q-10 0 -8 10l2 20q2 10 11 10h174q10 0 8 -10l-2 -20q-2 -10 -11 -10h-174zM198 -8q-71 0 -109.5 46.5t-29.5 121.5l47 379q9 76 59 122.5t121 46.5t110 -46.5t30 -122.5l-46 -379q-10 -75 -60.5 -121.5t-121.5 -46.5zM204 39q49 0 83 33t41 86l47 383 q7 53 -19.5 86.5t-75.5 33.5q-48 0 -82 -33.5t-40 -86.5l-47 -383q-7 -53 19 -86t74 -33z" />
<glyph unicode="&#x14d;" horiz-adv-x="395" d="M165 607q-9 0 -9 10l3 20q0 10 11 10h173q9 0 9 -10l-3 -20q0 -10 -11 -10h-173zM177 -8q-65 0 -99.5 41.5t-26.5 107.5l27 221q8 66 53 108t109 42q66 0 100.5 -41.5t26.5 -108.5l-27 -221q-8 -66 -52.5 -107.5t-110.5 -41.5zM182 39q42 0 72 29.5t35 75.5l27 215 q5 47 -17.5 76.5t-63.5 29.5t-70.5 -29.5t-35.5 -76.5l-26 -215q-6 -46 16 -75.5t63 -29.5z" />
<glyph unicode="&#x150;" horiz-adv-x="437" d="M227 773q-6 0 -7.5 3.5t1.5 8.5l71 110q4 7 13 7h26q14 0 5 -12l-72 -110q-5 -7 -13 -7h-24zM340 773q-5 0 -7 3.5t2 8.5l72 110q3 7 12 7h24q15 0 6 -12l-73 -110q-4 -7 -12 -7h-24zM198 -8q-71 0 -109.5 46.5t-29.5 121.5l47 379q9 76 59 122.5t121 46.5t110 -46.5 t30 -122.5l-46 -379q-10 -75 -60.5 -121.5t-121.5 -46.5zM204 39q49 0 83 33t41 86l47 383q7 53 -19.5 86.5t-75.5 33.5q-48 0 -82 -33.5t-40 -86.5l-47 -383q-7 -53 19 -86t74 -33z" />
<glyph unicode="&#x151;" horiz-adv-x="395" d="M182 584q-6 0 -7.5 3.5t1.5 8.5l72 110q3 7 12 7h26q13 0 6 -12l-73 -110q-3 -7 -12 -7h-25zM296 584q-13 0 -6 12l72 110q4 7 13 7h24q14 0 5 -12l-72 -110q-5 -7 -13 -7h-23zM177 -8q-65 0 -99.5 41.5t-26.5 107.5l27 221q8 66 53 108t109 42q66 0 100.5 -41.5 t26.5 -108.5l-27 -221q-8 -66 -52.5 -107.5t-110.5 -41.5zM182 39q42 0 72 29.5t35 75.5l27 215q5 47 -17.5 76.5t-63.5 29.5t-70.5 -29.5t-35.5 -76.5l-26 -215q-6 -46 16 -75.5t63 -29.5z" />
<glyph unicode="&#x152;" horiz-adv-x="665" d="M685 663q-2 -10 -11 -10h-230q-4 0 -4 -4l-34 -271q0 -4 4 -4h147q9 0 9 -10l-4 -27q0 -10 -11 -10h-147q-4 0 -4 -4l-34 -272q0 -4 4 -4h229q11 0 9 -10l-3 -27q-2 -10 -11 -10h-276q-10 0 -8 10l4 34q0 6 -5 2q-48 -54 -120 -54q-65 0 -102 47t-28 121l47 379 q9 75 57.5 122t113.5 47q72 0 107 -54q3 -2 5 2l4 34q2 10 11 10h276q10 0 8 -10zM204 39q49 0 83 33t41 86l47 383q7 53 -19.5 86.5t-75.5 33.5q-48 0 -82 -33.5t-40 -86.5l-47 -383q-7 -53 19 -86t74 -33z" />
<glyph unicode="&#x153;" horiz-adv-x="630" d="M594 249q-2 -10 -11 -10h-223q-4 0 -4 -4l-11 -91q-6 -46 16 -75.5t63 -29.5q34 0 61 21t38 55q5 9 12 9l32 -2q10 0 7 -10q-15 -55 -56.5 -87.5t-99.5 -32.5q-78 0 -109 70q-2 5 -5 0q-47 -70 -127 -70q-65 0 -99.5 41.5t-26.5 108.5l27 220q8 66 53 108t109 42 q80 0 110 -71q3 -5 6 0q48 71 126 71q65 0 99.5 -42t26.5 -108zM316 359q5 47 -17 76.5t-64 29.5q-41 0 -70.5 -29.5t-35.5 -76.5l-26 -215q-6 -46 16 -75.5t63 -29.5q43 0 72.5 29t34.5 76zM476 465q-41 0 -70 -29.5t-35 -76.5l-10 -78q0 -4 4 -4h177q3 0 5 4l9 78 q6 47 -16.5 76.5t-63.5 29.5z" />
<glyph unicode="&#x154;" horiz-adv-x="423" d="M372 903q14 0 5 -12l-80 -110q-7 -7 -13 -7h-23q-14 0 -5 12l73 110q7 7 13 7h30zM331 0q-9 0 -11 8l-67 319q-1 3 -4 3h-96q-4 0 -4 -4l-39 -316q-2 -10 -11 -10h-32q-9 0 -9 10l84 682q2 10 11 10h150q69 0 104 -52t25 -136q-9 -68 -43 -115t-85 -63q-5 -2 -3 -5 l71 -320q2 -11 -9 -11h-32zM193 654q-3 0 -5 -4l-33 -272q0 -4 3 -4h99q47 0 81.5 38t41.5 101q8 64 -16 102.5t-72 38.5h-99z" />
<glyph unicode="&#x155;" horiz-adv-x="275" d="M299 715q13 0 6 -12l-81 -110q-5 -7 -12 -7h-24q-5 0 -7 3.5t2 8.5l74 110q5 7 12 7h30zM258 508q24 0 41 -10q6 -5 3 -13l-12 -34q-4 -9 -13 -5q-14 6 -37 5q-39 -1 -68 -40t-36 -96l-38 -305q-2 -10 -11 -10h-32q-10 0 -8 10l59 484q2 10 11 10h32q9 0 9 -10l-8 -62 q0 -7 5 0q38 76 103 76z" />
<glyph unicode="&#x156;" horiz-adv-x="423" d="M304 336q-5 -2 -3 -5l71 -320q2 -11 -9 -11h-32q-9 0 -11 8l-67 319q-1 3 -4 3h-96q-4 0 -4 -4l-39 -316q-2 -10 -11 -10h-32q-9 0 -9 10l84 682q2 10 11 10h150q69 0 104 -52t25 -136q-9 -68 -43 -115t-85 -63zM193 654q-3 0 -5 -4l-33 -272q0 -4 3 -4h99q47 0 81.5 38 t41.5 101q8 64 -16 102.5t-72 38.5h-99zM155 -187q-15 0 -6 12l74 110q5 7 12 7h30q15 0 6 -12l-81 -110q-5 -7 -12 -7h-23z" />
<glyph unicode="&#x157;" horiz-adv-x="275" d="M258 508q24 0 41 -10q6 -5 3 -13l-12 -34q-4 -9 -13 -5q-14 6 -37 5q-39 -1 -68 -40t-36 -96l-38 -305q-2 -10 -11 -10h-32q-10 0 -8 10l59 484q2 10 11 10h32q9 0 9 -10l-8 -62q0 -7 5 0q38 76 103 76zM-37 -187q-5 0 -7 3.5t2 8.5l74 110q5 7 12 7h30q13 0 6 -12 l-81 -110q-5 -7 -12 -7h-24z" />
<glyph unicode="&#x158;" horiz-adv-x="423" d="M320 770q-7 -7 -13 -7h-37q-6 0 -11 7l-51 102q-5 12 7 12h29q8 0 11 -7l37 -77q1 -2 3 -2t3 2l55 77q5 7 13 7h27q13 0 4 -12zM331 0q-9 0 -11 8l-67 319q-1 3 -4 3h-96q-4 0 -4 -4l-39 -316q-2 -10 -11 -10h-32q-9 0 -9 10l84 682q2 10 11 10h150q69 0 104 -52t25 -136 q-9 -68 -43 -115t-85 -63q-5 -2 -3 -5l71 -320q2 -11 -9 -11h-32zM193 654q-3 0 -5 -4l-33 -272q0 -4 3 -4h99q47 0 81.5 38t41.5 101q8 64 -16 102.5t-72 38.5h-99z" />
<glyph unicode="&#x159;" horiz-adv-x="275" d="M247 582q-5 -7 -12 -7h-37q-8 0 -11 7l-52 102q-5 12 8 12h29q6 0 11 -7l37 -77q0 -2 2 -2t3 2l56 77q5 7 12 7h27q12 0 5 -12zM150 432q0 -9 4 -1q38 77 104 77q24 0 41 -10q6 -5 3 -13l-12 -34q-4 -9 -13 -5q-14 6 -37 5q-39 -1 -68 -40t-36 -96l-38 -305 q-2 -10 -11 -10h-32q-10 0 -8 10l59 484q2 10 11 10h32q9 0 9 -10z" />
<glyph unicode="&#x15a;" horiz-adv-x="407" d="M249 782q-5 0 -7 3.5t2 8.5l74 110q5 7 12 7h30q14 0 5 -12l-80 -110q-5 -7 -12 -7h-24zM188 -8q-69 0 -106 48.5t-28 126.5l3 22q2 10 11 10h31q9 0 9 -10l-3 -20q-7 -59 17.5 -95t70.5 -36t80 35t41 91q3 23 -1.5 43.5t-9 32t-25 33t-27.5 27.5t-38 33q-34 29 -50.5 45 t-36 42.5t-25 56t-0.5 66.5q10 77 56.5 121t112.5 44q70 0 107 -49t27 -129l-3 -25q-2 -10 -11 -10h-31q-11 0 -9 10l3 25q7 59 -17 95.5t-71 36.5q-44 0 -75.5 -31.5t-38.5 -88.5q-6 -49 14.5 -81t80.5 -83q52 -44 75 -68t36.5 -59t7.5 -80q-10 -81 -59 -130t-118 -49z" />
<glyph unicode="&#x15b;" horiz-adv-x="353" d="M203 582q-5 0 -7 3.5t2 8.5l74 110q5 7 12 7h30q13 0 6 -12l-81 -110q-5 -7 -12 -7h-24zM164 -5q-63 0 -97 35.5t-27 91.5l1 6q2 10 11 10h30q9 0 9 -8l-1 -8q-5 -36 17 -60t63 -24q39 0 65.5 24.5t31.5 63.5q3 22 -3 38.5t-22 29.5t-28 19.5t-37 17.5q-26 12 -41.5 20.5 t-33.5 25.5t-25 41.5t-3 56.5q7 61 48.5 97t102.5 36q62 0 94.5 -37t25.5 -96l-1 -3q0 -10 -10 -10h-30q-10 0 -8 8l1 7q4 37 -17.5 62t-59.5 25q-39 0 -65 -24.5t-31 -63.5q-2 -17 2.5 -31t10 -22.5t20.5 -19t23 -14.5l28 -14q23 -10 34.5 -16t30.5 -19.5t28 -27.5 t14.5 -36t2.5 -48q-7 -60 -49 -96.5t-105 -36.5z" />
<glyph unicode="&#x15e;" horiz-adv-x="407" d="M365 171q-9 -74 -50 -121t-100 -56q-6 -2 -3 -5q44 -51 25 -115q-12 -40 -42.5 -51.5t-62.5 -4.5q-7 1 -6 11l4 14q3 8 11 8q1 -1 4 -1q44 -6 56 38q13 49 -30 103q-2 2 -5 2q-59 8 -89.5 55t-22.5 119l3 22q2 10 11 10h31q9 0 9 -10l-3 -20q-7 -59 17.5 -95t70.5 -36 t80 35t41 91q3 23 -1.5 43.5t-9 32t-25 33t-27.5 27.5t-38 33q-34 29 -50.5 45t-36 42.5t-25 56t-0.5 66.5q10 77 56.5 121t112.5 44q70 0 107 -49t27 -129l-3 -25q-2 -10 -11 -10h-31q-11 0 -9 10l3 25q7 59 -17 95.5t-71 36.5q-44 0 -75.5 -31.5t-38.5 -88.5 q-6 -49 14.5 -81t80.5 -83q52 -44 75 -68t36.5 -59t7.5 -80z" />
<glyph unicode="&#x15f;" horiz-adv-x="353" d="M318 128q-6 -53 -40.5 -88t-86.5 -43q-6 -2 -2 -5q43 -51 24 -115q-12 -40 -42.5 -51.5t-62.5 -4.5q-8 1 -5 11l3 14q3 8 11 8q1 -1 4 -1q44 -6 56 38q13 49 -30 103q-2 2 -5 2q-53 6 -80.5 40.5t-21.5 85.5l1 6q2 10 11 10h30q9 0 9 -8l-1 -8q-5 -36 17 -60t63 -24 q39 0 65.5 24.5t31.5 63.5q3 22 -3 38.5t-22 29.5t-28 19.5t-37 17.5q-26 12 -41.5 20.5t-33.5 25.5t-25 41.5t-3 56.5q7 61 48.5 97t102.5 36q62 0 94.5 -37t25.5 -96l-1 -3q0 -10 -10 -10h-30q-10 0 -8 8l1 7q4 37 -17.5 62t-59.5 25q-39 0 -65 -24.5t-31 -63.5 q-2 -17 2.5 -31t10 -22.5t20.5 -19t23 -14.5l28 -14q23 -10 34.5 -16t30.5 -19.5t28 -27.5t14.5 -36t2.5 -48z" />
<glyph unicode="&#x160;" horiz-adv-x="407" d="M259 771q-7 0 -11 7l-52 102q-5 12 8 12h29q7 0 10 -7l38 -77q0 -2 2 -2t3 2l55 77q7 7 13 7h27q13 0 4 -12l-77 -102q-5 -7 -13 -7h-36zM188 -8q-69 0 -106 48.5t-28 126.5l3 22q2 10 11 10h31q9 0 9 -10l-3 -20q-7 -59 17.5 -95t70.5 -36t80 35t41 91q3 23 -1.5 43.5 t-9 32t-25 33t-27.5 27.5t-38 33q-34 29 -50.5 45t-36 42.5t-25 56t-0.5 66.5q10 77 56.5 121t112.5 44q70 0 107 -49t27 -129l-3 -25q-2 -10 -11 -10h-31q-11 0 -9 10l3 25q7 59 -17 95.5t-71 36.5q-44 0 -75.5 -31.5t-38.5 -88.5q-6 -49 14.5 -81t80.5 -83q52 -44 75 -68 t36.5 -59t7.5 -80q-10 -81 -59 -130t-118 -49z" />
<glyph unicode="&#x161;" horiz-adv-x="353" d="M213 571q-7 0 -11 7l-52 102q-5 12 8 12h29q6 0 11 -7l37 -77q0 -2 2.5 -2t3.5 2l55 77q5 7 12 7h27q12 0 5 -12l-78 -102q-5 -7 -12 -7h-37zM164 -5q-63 0 -97 35.5t-27 91.5l1 6q2 10 11 10h30q9 0 9 -8l-1 -8q-5 -36 17 -60t63 -24q39 0 65.5 24.5t31.5 63.5 q3 22 -3 38.5t-22 29.5t-28 19.5t-37 17.5q-26 12 -41.5 20.5t-33.5 25.5t-25 41.5t-3 56.5q7 61 48.5 97t102.5 36q62 0 94.5 -37t25.5 -96l-1 -3q0 -10 -10 -10h-30q-10 0 -8 8l1 7q4 37 -17.5 62t-59.5 25q-39 0 -65 -24.5t-31 -63.5q-2 -17 2.5 -31t10 -22.5t20.5 -19 t23 -14.5l28 -14q23 -10 34.5 -16t30.5 -19.5t28 -27.5t14.5 -36t2.5 -48q-7 -60 -49 -96.5t-105 -36.5z" />
<glyph unicode="&#x162;" horiz-adv-x="399" d="M286 653q-3 0 -5 -4l-78 -639q-2 -10 -3 -10t1 -5q45 -52 26 -116q-12 -40 -42.5 -51.5t-62.5 -4.5q-7 1 -6 11l4 14q3 8 11 8q1 -1 4 -1q44 -6 56 38q13 49 -32 105q-1 0 -2 1l-2 2q-5 1 -3 9l78 639q0 4 -3 4h-122q-10 0 -8 10l3 27q2 10 11 10h310q10 0 8 -10l-3 -27 q-2 -10 -11 -10h-129z" />
<glyph unicode="&#x163;" horiz-adv-x="253" d="M262 472q-2 -10 -11 -10h-78q-4 0 -4 -4l-40 -322q-6 -50 8 -69.5t50 -19.5h10q10 0 8 -10l-3 -27q-2 -10 -11 -10h-17q-5 0 -3 -5q28 -47 11 -97q-11 -40 -41.5 -51.5t-62.5 -4.5q-9 1 -6 11l4 14q2 8 11 8q0 -1 4 -1q44 -6 55 38q12 45 -21 92q-2 1 -4 3 q-56 21 -44 116l41 335q2 4 -3 4h-40q-10 0 -8 10l2 22q2 10 11 10h40q4 0 4 4l14 112q2 10 11 10h31q9 0 9 -10l-14 -112q0 -4 3 -4h78q10 0 8 -10z" />
<glyph unicode="&#x164;" horiz-adv-x="399" d="M300 762q-5 -7 -12 -7h-37q-7 0 -11 7l-51 102q-5 12 7 12h29q6 0 11 -7l37 -77q2 -4 6 0l55 77q5 7 12 7h27q12 0 5 -12zM421 700q10 0 8 -10l-3 -27q-2 -10 -11 -10h-129q-3 0 -5 -4l-78 -639q-2 -10 -11 -10h-32q-10 0 -8 10l78 639q0 4 -3 4h-122q-10 0 -8 10l3 27 q2 10 11 10h310z" />
<glyph unicode="&#x165;" horiz-adv-x="253" d="M202 691q-5 -7 -12 -7h-37q-7 0 -11 7l-51 102q-5 12 7 12h29q6 0 11 -7l37 -77q2 -4 6 0l55 77q5 7 12 7h27q12 0 5 -12zM262 472q-2 -10 -11 -10h-78q-4 0 -4 -4l-40 -322q-6 -50 8 -69.5t50 -19.5h10q10 0 8 -10l-3 -27q-2 -10 -11 -10h-19q-54 0 -78.5 26t-16.5 97 l41 335q2 4 -3 4h-40q-10 0 -8 10l2 22q2 10 11 10h40q4 0 4 4l14 112q2 10 11 10h31q9 0 9 -10l-14 -112q0 -4 3 -4h78q10 0 8 -10z" />
<glyph unicode="&#x166;" horiz-adv-x="582" d="M426 663q-2 -10 -11 -10h-129q-3 0 -5 -4l-27 -225q0 -4 3 -4h85q10 0 8 -10l-2 -17q-2 -10 -11 -10h-84q-3 0 -5 -4l-45 -369q-2 -10 -11 -10h-32q-10 0 -8 10l45 369q0 4 -4 4h-94q-10 0 -8 10l2 17q2 10 11 10h94q4 0 4 4l28 225q0 4 -3 4h-122q-10 0 -8 10l3 27 q2 10 11 10h310q10 0 8 -10z" />
<glyph unicode="&#x167;" horiz-adv-x="582" d="M252 376q-2 -10 -11 -10h-80q-4 0 -4 -4l-28 -226q-6 -50 8 -69.5t50 -19.5h10q10 0 8 -10l-3 -27q-2 -10 -11 -10h-19q-54 0 -78.5 26t-16.5 97l30 239q0 4 -4 4h-38q-10 0 -8 10l2 17q2 10 11 10h38q4 0 4 4l6 51q2 4 -3 4h-40q-10 0 -8 10l2 22q2 10 11 10h40q4 0 4 4 l14 112q2 10 11 10h31q9 0 9 -10l-14 -112q0 -4 3 -4h78q10 0 8 -10l-2 -22q-2 -10 -11 -10h-78q-4 0 -4 -4l-7 -51q0 -4 4 -4h79q11 0 9 -10z" />
<glyph unicode="&#x16a;" horiz-adv-x="461" d="M222 806q-10 0 -8 10l2 20q2 10 11 10h174q10 0 8 -10l-2 -20q-2 -10 -11 -10h-174zM210 -8q-73 0 -110 51.5t-26 137.5l62 509q2 10 11 10h32q9 0 9 -10l-64 -515q-8 -61 17 -98.5t74 -37.5t84.5 37.5t42.5 98.5l63 515q2 10 11 10h32q10 0 8 -10l-62 -509 q-10 -85 -61 -137t-123 -52z" />
<glyph unicode="&#x16b;" horiz-adv-x="405" d="M345 639q9 0 9 -10l-3 -20q-2 -10 -11 -10h-173q-11 0 -9 10l3 20q0 10 11 10h173zM330 494q2 10 11 10h32q9 0 9 -10l-60 -484q0 -10 -11 -10h-32q-10 0 -8 10l4 36q1 3 -0.5 3.5t-3.5 -1.5q-38 -55 -106 -55q-58 0 -87.5 36.5t-20.5 109.5l43 355q2 10 11 10h32 q11 0 9 -10l-42 -343q-14 -111 73 -111q43 0 71 32t35 88z" />
<glyph unicode="&#x16e;" horiz-adv-x="461" d="M307 782q-40 0 -64 29.5t-19 71.5t36.5 71t70.5 29q41 0 65 -29t19 -71t-36.5 -71.5t-71.5 -29.5zM310 814q27 0 48 20t25 49t-12.5 49t-43.5 20q-26 0 -47 -20t-25 -49t12.5 -49t42.5 -20zM210 -8q-73 0 -110 51.5t-26 137.5l62 509q2 10 11 10h32q9 0 9 -10l-64 -515 q-8 -61 17 -98.5t74 -37.5t84.5 37.5t42.5 98.5l63 515q2 10 11 10h32q10 0 8 -10l-62 -509q-10 -85 -61 -137t-123 -52z" />
<glyph unicode="&#x16f;" horiz-adv-x="405" d="M251 575q-39 0 -63.5 29.5t-19.5 71.5t36.5 71t71.5 29t64 -29t19 -71t-36.5 -71.5t-71.5 -29.5zM272 745q-26 0 -47.5 -20t-25.5 -49q-3 -29 13.5 -49t42.5 -20q27 0 48 20t24 49q4 29 -12 49t-43 20zM330 494q2 10 11 10h32q9 0 9 -10l-60 -484q0 -10 -11 -10h-32 q-10 0 -8 10l4 36q1 3 -0.5 3.5t-3.5 -1.5q-38 -55 -106 -55q-58 0 -87.5 36.5t-20.5 109.5l43 355q2 10 11 10h32q11 0 9 -10l-42 -343q-14 -111 73 -111q43 0 71 32t35 88z" />
<glyph unicode="&#x170;" horiz-adv-x="461" d="M240 783q-5 0 -7.5 3.5t0.5 8.5l72 110q4 7 13 7h26q14 0 5 -12l-73 -110q-4 -7 -12 -7h-24zM353 783q-14 0 -5 12l72 110q3 7 12 7h24q13 0 6 -12l-73 -110q-3 -7 -13 -7h-23zM210 -8q-73 0 -110 51.5t-26 137.5l62 509q2 10 11 10h32q9 0 9 -10l-64 -515 q-8 -61 17 -98.5t74 -37.5t84.5 37.5t42.5 98.5l63 515q2 10 11 10h32q10 0 8 -10l-62 -509q-10 -85 -61 -137t-123 -52z" />
<glyph unicode="&#x171;" horiz-adv-x="405" d="M288 705q13 0 6 -12l-73 -110q-3 -7 -13 -7h-24q-6 0 -7.5 3.5t1.5 8.5l72 110q3 7 12 7h26zM333 583q-5 -7 -12 -7h-23q-13 0 -6 12l72 110q4 7 13 7h24q14 0 5 -12zM289 160l41 334q2 10 11 10h32q9 0 9 -10l-60 -484q0 -10 -11 -10h-32q-10 0 -8 10l4 36q1 3 -0.5 3.5 t-3.5 -1.5q-38 -55 -106 -55q-58 0 -87.5 36.5t-20.5 109.5l43 355q2 10 11 10h32q11 0 9 -10l-42 -343q-14 -111 73 -111q43 0 71 32t35 88z" />
<glyph unicode="&#x172;" horiz-adv-x="461" d="M405 690q2 10 11 10h32q10 0 8 -10l-62 -509q-10 -80 -55.5 -130.5t-111.5 -57.5q-3 0 -5 -2q-48 -48 -48 -96q1 -46 49 -38q11 3 11 -7v-14q0 -10 -8 -11q-34 -7 -61.5 4.5t-29.5 51.5q-3 60 46 109q4 4 -1 5q-59 10 -87.5 60t-18.5 126l62 509q2 10 11 10h32q9 0 9 -10 l-64 -515q-8 -61 17 -98.5t74 -37.5t84.5 37.5t42.5 98.5z" />
<glyph unicode="&#x173;" horiz-adv-x="405" d="M306 -149q10 3 10 -7l1 -14q0 -10 -9 -11q-33 -7 -60.5 4.5t-30.5 51.5q-2 68 59 120l5 5h-2q-10 0 -8 10l4 36q1 3 -0.5 3.5t-3.5 -1.5q-38 -55 -106 -55q-58 0 -87.5 36.5t-20.5 109.5l43 355q2 10 11 10h32q11 0 9 -10l-42 -343q-14 -111 73 -111q43 0 71 32t35 88 l41 334q2 10 11 10h32q9 0 9 -10l-60 -487q-1 -6 -7 -12q-59 -54 -58 -106q1 -45 49 -38z" />
<glyph unicode="&#x174;" horiz-adv-x="588" d="M279 766q-13 0 -4 12l77 102q5 7 12 7h39q7 0 11 -6l53 -103q2 -4 0 -8t-8 -4h-30q-7 0 -11 7l-35 76q-1 1 -3 1t-3 -1l-55 -76q-7 -7 -13 -7h-30zM148 0q-9 0 -9 9l-44 680q0 11 10 11h34q10 0 10 -9l30 -567q2 -6 4 0l154 567q3 9 11 9h30q8 0 9 -9l19 -567q2 -6 4 0 l161 567q3 9 11 9h34q11 0 7 -11l-204 -680q-3 -9 -12 -9h-31q-8 0 -8 9l-18 566q-2 6 -4 0l-156 -566q-2 -9 -11 -9h-31z" />
<glyph unicode="&#x175;" horiz-adv-x="523" d="M220 570q-13 0 -4 12l77 102q5 7 12 7h39q6 0 11 -6l53 -103q2 -4 0 -8t-8 -4h-30q-8 0 -11 7l-35 76q-1 1 -3 1t-3 -1l-55 -76q-5 -7 -13 -7h-30zM118 0q-9 0 -9 9l-43 484q0 11 10 11h31q10 0 10 -9l27 -413q0 -8 4 0l129 413q3 9 12 9h29q8 0 10 -9l27 -413q2 -8 4 0 l131 413q2 9 11 9l30 -1q10 0 8 -11l-163 -483q-2 -9 -11 -9h-33q-10 0 -10 9l-30 393q-2 8 -4 0l-125 -393q-3 -9 -12 -9h-33z" />
<glyph unicode="&#x176;" horiz-adv-x="399" d="M184 766q-13 0 -4 12l76 102q7 7 13 7h39q6 0 11 -6l53 -103q2 -4 -0.5 -8t-7.5 -4h-30q-8 0 -11 7l-35 76q-1 1 -3 1t-3 -1l-55 -76q-7 -7 -13 -7h-30zM164 0q-9 0 -9 10l39 310q0 4 -1 5l-89 363q-3 12 9 12h34q10 0 11 -8l67 -306q2 -6 6 0l141 306q4 8 13 8h34 q5 0 7 -3.5t-1 -8.5l-178 -363q-2 -1 -2 -5l-38 -310q-2 -10 -11 -10h-32z" />
<glyph unicode="&#x177;" horiz-adv-x="342" d="M132 570q-13 0 -4 12l76 102q7 7 13 7h39q7 0 10 -6l54 -103q2 -4 -0.5 -8t-7.5 -4h-31q-7 0 -10 7l-36 76q0 1 -2 1t-3 -1l-55 -76q-7 -7 -13 -7h-30zM0 -200q-7 0 -5 10l3 26q2 10 7 10h5q42 1 63 29t52 122v6l-63 490q-3 11 10 11h34q9 0 9 -9l45 -416q1 -5 4 0 l146 416q3 9 12 9l35 -1q11 0 6 -11l-203 -543q-36 -93 -65 -121t-89 -28h-6z" />
<glyph unicode="&#x178;" horiz-adv-x="399" d="M220 797q-16 0 -25 11.5t-7 28.5t14 28.5t28 11.5q15 0 23.5 -11.5t6.5 -28.5t-13.5 -28.5t-26.5 -11.5zM338 797q-16 0 -25 11.5t-7 28.5t14 28.5t28 11.5t24 -11.5t6 -28.5t-13 -28.5t-27 -11.5zM164 0q-9 0 -9 10l39 310q0 4 -1 5l-89 363q-3 12 9 12h34q10 0 11 -8 l67 -306q2 -6 6 0l141 306q4 8 13 8h34q5 0 7 -3.5t-1 -8.5l-178 -363q-2 -1 -2 -5l-38 -310q-2 -10 -11 -10h-32z" />
<glyph unicode="&#x179;" horiz-adv-x="379" d="M236 787q-5 0 -7 3.5t2 8.5l74 110q5 7 12 7h30q13 0 6 -12l-81 -110q-5 -7 -12 -7h-24zM25 0q-10 0 -8 10l4 31q0 7 3 12l317 595q2 2 1 3.5t-3 1.5h-234q-10 0 -8 10l3 27q2 10 11 10h283q11 0 9 -10l-4 -31q0 -5 -3 -12l-317 -595q-1 -2 0 -3.5t2 -1.5h233q9 0 9 -10 l-4 -27q0 -10 -11 -10h-283z" />
<glyph unicode="&#x17a;" horiz-adv-x="346" d="M199 587q-14 0 -5 12l73 110q7 7 13 7h30q14 0 5 -12l-80 -110q-5 -7 -13 -7h-23zM26 0q-10 0 -8 10l4 32q0 3 4 13l259 395q3 5 -1 5h-199q-9 0 -9 10l4 29q2 10 11 10h254q9 0 9 -10l-4 -32q-2 -10 -5 -13l-260 -395q-1 -2 -0.5 -3.5t2.5 -1.5h202q9 0 9 -10l-4 -29 q-2 -10 -11 -10h-257z" />
<glyph unicode="&#x17b;" horiz-adv-x="379" d="M267 793q-15 0 -24 11.5t-7 27.5q2 17 13.5 28t27.5 11q14 0 22 -11t6 -28t-12.5 -28t-25.5 -11zM25 0q-10 0 -8 10l4 31q0 7 3 12l317 595q2 2 1 3.5t-3 1.5h-234q-10 0 -8 10l3 27q2 10 11 10h283q11 0 9 -10l-4 -31q0 -5 -3 -12l-317 -595q-1 -2 0 -3.5t2 -1.5h233 q9 0 9 -10l-4 -27q0 -10 -11 -10h-283z" />
<glyph unicode="&#x17c;" horiz-adv-x="346" d="M230 593q-15 0 -24 11.5t-7 27.5q2 17 13.5 28t27.5 11q14 0 22 -11t6 -28t-13 -28t-25 -11zM26 0q-10 0 -8 10l4 32q0 3 4 13l259 395q3 5 -1 5h-199q-9 0 -9 10l4 29q2 10 11 10h254q9 0 9 -10l-4 -32q-2 -10 -5 -13l-260 -395q-1 -2 -0.5 -3.5t2.5 -1.5h202q9 0 9 -10 l-4 -29q-2 -10 -11 -10h-257z" />
<glyph unicode="&#x17d;" horiz-adv-x="379" d="M246 776q-8 0 -11 7l-52 102q-5 12 8 12h29q6 0 11 -7l37 -77q0 -1 2 -1t3 1l55 77q7 7 13 7h27q12 0 5 -12l-78 -102q-5 -7 -13 -7h-36zM25 0q-10 0 -8 10l4 31q0 7 3 12l317 595q2 2 1 3.5t-3 1.5h-234q-10 0 -8 10l3 27q2 10 11 10h283q11 0 9 -10l-4 -31q0 -5 -3 -12 l-317 -595q-1 -2 0 -3.5t2 -1.5h233q9 0 9 -10l-4 -27q0 -10 -11 -10h-283z" />
<glyph unicode="&#x17e;" horiz-adv-x="346" d="M208 576q-6 0 -10 7l-52 102q-5 12 7 12h30q7 0 10 -7l37 -77q1 -1 3 -1t3 1l55 77q7 7 13 7h27q13 0 4 -12l-77 -102q-7 -7 -13 -7h-37zM26 0q-10 0 -8 10l4 32q0 3 4 13l259 395q3 5 -1 5h-199q-9 0 -9 10l4 29q2 10 11 10h254q9 0 9 -10l-4 -32q-2 -10 -5 -13 l-260 -395q-1 -2 -0.5 -3.5t2.5 -1.5h202q9 0 9 -10l-4 -29q-2 -10 -11 -10h-257z" />
<glyph unicode="&#x192;" horiz-adv-x="448" d="M292 551q25 92 64.5 127t117.5 31q8 -1 7 -11l-4 -28q-1 -10 -12 -10h-18q-42 0 -65.5 -29.5t-40.5 -90.5l-43 -155q-1 -4 2 -4h74q10 0 8 -10l-2 -21q-2 -10 -11 -10h-80q-5 0 -5 -4l-108 -387q-25 -92 -64.5 -127t-117.5 -31q-9 2 -8 11l5 28q1 10 12 10h18 q42 0 65.5 30t39.5 90l105 376q1 4 -2 4h-56q-11 0 -9 10l3 21q2 10 11 10h62q5 0 5 4z" />
<glyph unicode="&#x1cd;" horiz-adv-x="430" d="M318 762q-7 -7 -13 -7h-37q-6 0 -11 7l-51 102q-5 12 7 12h29q8 0 11 -7l37 -77q1 -2 3 -2t3 2l55 77q7 7 13 7h27q13 0 4 -12zM332 0q-10 0 -10 9l-10 131q0 4 -4 4h-189q-6 0 -6 -4l-43 -131q-3 -9 -12 -9h-32q-11 0 -7 11l231 680q2 9 12 9h38q10 0 10 -9l65 -680 q0 -11 -10 -11h-33zM130 192q-2 -4 3 -4h170q4 0 4 4l-34 417q-2 8 -4 0z" />
<glyph unicode="&#x1ce;" horiz-adv-x="404" d="M281 582q-5 -7 -13 -7h-36q-8 0 -11 7l-52 102q-5 12 8 12h29q6 0 11 -7l37 -77q0 -2 2 -2t3 2l55 77q7 7 13 7h27q13 0 4 -12zM329 494q2 10 11 10h32q9 0 9 -10l-60 -484q0 -10 -11 -10h-32q-10 0 -8 10l4 33q0 9 -4 1q-40 -52 -105 -52q-59 0 -89.5 41.5t-23.5 107.5 q4 33 13 113q2 19 7 55t8 55q9 65 50 106.5t99 41.5q65 0 91 -52q2 -3 3.5 -2.5t1.5 3.5zM183 39q40 0 69 30t35 78l26 210q5 48 -16 78t-61 30q-41 0 -71 -30t-36 -78l-26 -210q-5 -48 17 -78t63 -30z" />
<glyph unicode="&#x218;" horiz-adv-x="407" d="M188 -8q-69 0 -106 48.5t-28 126.5l3 22q2 10 11 10h31q9 0 9 -10l-3 -20q-7 -59 17.5 -95t70.5 -36t80 35t41 91q3 23 -1.5 43.5t-9 32t-25 33t-27.5 27.5t-38 33q-34 29 -50.5 45t-36 42.5t-25 56t-0.5 66.5q10 77 56.5 121t112.5 44q70 0 107 -49t27 -129l-3 -25 q-2 -10 -11 -10h-31q-11 0 -9 10l3 25q7 59 -17 95.5t-71 36.5q-44 0 -75.5 -31.5t-38.5 -88.5q-6 -49 14.5 -81t80.5 -83q52 -44 75 -68t36.5 -59t7.5 -80q-10 -81 -59 -130t-118 -49zM136 -195q-14 0 -5 12l73 110q7 7 13 7h30q14 0 5 -12l-80 -110q-7 -7 -13 -7h-23z" />
<glyph unicode="&#x219;" horiz-adv-x="353" d="M164 -5q-63 0 -97 35.5t-27 91.5l1 6q2 10 11 10h30q9 0 9 -8l-1 -8q-5 -36 17 -60t63 -24q39 0 65.5 24.5t31.5 63.5q3 22 -3 38.5t-22 29.5t-28 19.5t-37 17.5q-26 12 -41.5 20.5t-33.5 25.5t-25 41.5t-3 56.5q7 61 48.5 97t102.5 36q62 0 94.5 -37t25.5 -96l-1 -3 q0 -10 -10 -10h-30q-10 0 -8 8l1 7q4 37 -17.5 62t-59.5 25q-39 0 -65 -24.5t-31 -63.5q-2 -17 2.5 -31t10 -22.5t20.5 -19t23 -14.5l28 -14q23 -10 34.5 -16t30.5 -19.5t28 -27.5t14.5 -36t2.5 -48q-7 -60 -49 -96.5t-105 -36.5zM112 -192q-14 0 -5 12l74 110q5 7 12 7h30 q14 0 5 -12l-80 -110q-5 -7 -12 -7h-24z" />
<glyph unicode="&#x21a;" horiz-adv-x="386" d="M421 700q10 0 8 -10l-3 -27q-2 -10 -11 -10h-129q-3 0 -5 -4l-78 -639q-2 -10 -11 -10h-32q-10 0 -8 10l78 639q0 4 -3 4h-122q-10 0 -8 10l3 27q2 10 11 10h310zM63 -190q-14 0 -5 12l73 110q7 7 13 7h30q14 0 5 -12l-80 -110q-7 -7 -13 -7h-23z" />
<glyph unicode="&#x21b;" horiz-adv-x="253" d="M172 0q-54 0 -78.5 26t-16.5 97l41 335q2 4 -3 4h-40q-10 0 -8 10l2 22q2 10 11 10h40q4 0 4 4l14 112q2 10 11 10h31q9 0 9 -10l-14 -112q0 -4 3 -4h78q10 0 8 -10l-2 -22q-2 -10 -11 -10h-78q-4 0 -4 -4l-40 -322q-6 -50 8 -69.5t50 -19.5h10q10 0 8 -10l-3 -27 q-2 -10 -11 -10h-19zM150 -49q7 7 13 7h30q5 0 7 -3.5t-2 -8.5l-80 -110q-7 -7 -13 -7h-23q-14 0 -5 12z" />
<glyph unicode="&#x228;" horiz-adv-x="414" d="M434 663q-2 -10 -11 -10h-230q-3 0 -5 -4l-33 -271q0 -4 3 -4h148q10 0 8 -10l-3 -27q-2 -10 -11 -10h-147q-3 0 -5 -4l-33 -272q0 -4 3 -4h230q9 0 9 -10l-4 -27q0 -10 -11 -10h-112q-6 0 -3 -5q42 -50 23 -113q-12 -40 -42.5 -51.5t-62.5 -4.5q-8 2 -5 11l4 14 q2 8 10 8q1 -1 4 -1q44 -6 56 38q14 50 -29 102q-2 2 -5 2h-113q-9 0 -9 10l84 680q2 10 11 10h275q11 0 9 -10z" />
<glyph unicode="&#x229;" horiz-adv-x="388" d="M352 243q-2 -10 -11 -10h-223q-3 0 -5 -4l-10 -85q-6 -46 16 -75.5t63 -29.5q35 0 61.5 21t38.5 55q4 9 12 9l31 -2q12 0 7 -10q-14 -48 -47.5 -79.5t-81.5 -38.5q-5 -2 -2 -5q43 -51 24 -115q-12 -40 -42.5 -51.5t-62.5 -4.5q-8 2 -5 11l3 14q3 8 11 8q1 -1 4 -1 q44 -6 56 38q14 50 -30 103q-2 2 -4 2q-55 7 -83.5 47.5t-20.5 100.5l27 221q8 66 53 108t109 42q65 0 99.5 -41.5t26.5 -108.5zM235 465q-41 0 -70.5 -29.5t-35.5 -76.5l-9 -76q0 -4 3 -4h178q4 0 4 4l10 76q5 47 -17 76.5t-63 29.5z" />
<glyph unicode="&#x2c6;" horiz-adv-x="207" d="M64 570q-13 0 -4 12l76 102q7 7 13 7h39q6 0 11 -6l53 -103q2 -4 -0.5 -8t-7.5 -4h-30q-8 0 -11 7l-36 76q0 1 -2 1t-3 -1l-55 -76q-7 -7 -13 -7h-30z" />
<glyph unicode="&#x2c7;" horiz-adv-x="252" d="M157 569q-6 0 -11 7l-51 102q-5 12 7 12h29q7 0 11 -7l37 -77q1 -2 3 -2t3 2l55 77q5 7 13 7h27q13 0 4 -12l-77 -102q-7 -7 -13 -7h-37z" />
<glyph unicode="&#x2c9;" horiz-adv-x="515" d="M224 599q-9 0 -9 10l3 20q2 10 11 10h173q11 0 9 -10l-3 -20q0 -10 -10 -10h-174z" />
<glyph unicode="&#x2d8;" horiz-adv-x="243" d="M171 560q-39 0 -63.5 26t-23.5 66q2 10 11 10h14q10 0 10 -10q-1 -26 15.5 -43t40.5 -17t44 17t26 43q3 10 12 10h14q11 0 8 -10q-8 -40 -38.5 -66t-69.5 -26z" />
<glyph unicode="&#x2d9;" horiz-adv-x="116" d="M111 584q-15 0 -24 11t-7 28q2 16 14 27.5t27 11.5q14 0 22 -11t6 -28t-12.5 -28t-25.5 -11z" />
<glyph unicode="&#x2da;" horiz-adv-x="238" d="M170 575q-40 0 -64 29.5t-19 71.5t36.5 71t70.5 29q41 0 65 -29t19 -71t-36.5 -71.5t-71.5 -29.5zM173 607q27 0 48 20t25 49t-12.5 49t-43.5 20q-26 0 -47 -20t-25 -49t12.5 -49t42.5 -20z" />
<glyph unicode="&#x2db;" horiz-adv-x="110" d="M65 -170q1 -9 -8 -11q-33 -7 -60.5 4.5t-30.5 51.5q-4 66 57 118q4 3 4 4q5 3 11 3h15q6 0 7.5 -4t-3.5 -8q-52 -51 -51 -99q0 -43 47 -38q2 0 4 1q8 0 8 -8v-14z" />
<glyph unicode="&#x2dc;" horiz-adv-x="298" d="M250 598q-21 0 -49 22q-26 21 -41 21q-26 0 -48 -27q-6 -9 -14 -3l-10 9q-8 5 -2 13q32 48 76 48q23 0 52 -23q2 -2 9.5 -7.5t11 -7.5t10 -4.5t12.5 -2.5q25 0 46 30q7 10 14 4l11 -8q7 -5 -2 -20q-32 -44 -76 -44z" />
<glyph unicode="&#x2dd;" horiz-adv-x="281" d="M89 586q-5 0 -7 3.5t2 8.5l74 110q5 7 12 7h30q13 0 6 -12l-81 -110q-5 -7 -12 -7h-24zM203 586q-14 0 -5 12l73 110q7 7 13 7h30q14 0 5 -12l-80 -110q-7 -7 -13 -7h-23z" />
<glyph unicode="&#x300;" d="M46 590q5 -12 -8 -12h-23q-6 0 -11 7l-52 110q-5 12 7 12h30q6 0 11 -7z" />
<glyph unicode="&#x301;" d="M-57 578q-14 0 -5 12l73 110q7 7 13 7h30q14 0 5 -12l-80 -110q-5 -7 -13 -7h-23z" />
<glyph unicode="&#x302;" d="M-144 570q-13 0 -4 12l76 102q7 7 13 7h39q6 0 11 -6l53 -103q2 -4 -0.5 -8t-7.5 -4h-30q-8 0 -11 7l-36 76q0 1 -2 1t-3 -1l-55 -76q-7 -7 -13 -7h-30z" />
<glyph unicode="&#x303;" d="M-23 598q-21 0 -49 22q-26 21 -41 21q-27 0 -48 -27q-8 -9 -14 -3l-11 9q-7 5 -1 13q32 48 76 48q22 0 51 -23q3 -2 10 -7.5t11 -7.5t10 -4.5t12 -2.5q26 0 47 30q5 10 14 4l10 -8q8 -5 -2 -20q-31 -44 -75 -44z" />
<glyph unicode="&#x304;" d="M-291 599q-9 0 -9 10l3 20q2 10 11 10h173q11 0 9 -10l-3 -20q0 -10 -10 -10h-174z" />
<glyph unicode="&#x306;" d="M-74 544q-39 0 -63.5 26t-23.5 66q2 10 11 10h14q10 0 10 -10q-1 -26 15 -43.5t40 -17.5q25 0 45 17.5t26 43.5q3 10 12 10h14q11 0 8 -10q-8 -40 -38.5 -66t-69.5 -26z" />
<glyph unicode="&#x307;" d="M19 584q-15 0 -24 11.5t-7 27.5q2 17 13.5 28t27.5 11q14 0 22 -11t6 -28t-12.5 -28t-25.5 -11z" />
<glyph unicode="&#x308;" d="M-99 601q-16 0 -25 11.5t-7 28.5t14 28.5t28 11.5q15 0 23.5 -11.5t6.5 -28.5t-13 -28.5t-27 -11.5zM20 601q-16 0 -25 11.5t-7 28.5q1 17 13 28.5t28 11.5t24 -11.5t6 -28.5q-1 -17 -12.5 -28.5t-26.5 -11.5z" />
<glyph unicode="&#x30a;" d="M-45 575q-39 0 -63 29.5t-19 71.5q4 42 36 71t71 29q41 0 65 -29t19 -71t-36.5 -71.5t-72.5 -29.5zM-41 607q27 0 48 20t25 49q3 29 -13 49t-43 20t-48 -20t-24 -49q-4 -29 12.5 -49t42.5 -20z" />
<glyph unicode="&#x30b;" d="M-187 576q-6 0 -7.5 3.5t1.5 8.5l72 110q3 7 12 7h26q13 0 6 -12l-73 -110q-4 -7 -13 -7h-24zM-73 576q-13 0 -6 12l72 110q4 7 13 7h24q14 0 5 -12l-73 -110q-4 -7 -12 -7h-23z" />
<glyph unicode="&#x30c;" d="M-96 561q-6 0 -11 7l-51 102q-5 12 7 12h29q8 0 11 -7l37 -77q1 -2 3 -2t3 2l55 77q5 7 13 7h27q13 0 4 -12l-77 -102q-7 -7 -13 -7h-37z" />
<glyph unicode="&#x312;" d="M28 692q15 0 6 -12l-74 -110q-5 -7 -12 -7h-30q-13 0 -6 12l81 110q5 7 12 7h23z" />
<glyph unicode="&#x313;" d="M-57 578q-14 0 -5 12l73 110q7 7 13 7h30q14 0 5 -12l-80 -110q-5 -7 -13 -7h-23z" />
<glyph unicode="&#x326;" d="M-175 -187q-5 0 -7 3.5t2 8.5l74 110q5 7 12 7h30q13 0 6 -12l-81 -110q-5 -7 -12 -7h-24z" />
<glyph unicode="&#x327;" d="M-141 -181q-8 1 -5 11l3 14q3 8 11 8q1 -1 4 -1q44 -6 56 38q12 49 -27 99q-4 4 -1.5 8t7.5 4h16q6 0 9 -3l4 -4q48 -52 28 -118q-12 -40 -42.5 -51.5t-62.5 -4.5z" />
<glyph unicode="&#x328;" d="M-45 -170q1 -9 -8 -11q-33 -7 -60.5 4.5t-30.5 51.5q-4 66 57 118q4 3 4 4q5 3 11 3h15q6 0 7.5 -4t-3.5 -8q-52 -51 -51 -99q0 -43 47 -38q2 0 4 1q8 0 8 -8v-14z" />
<glyph unicode="&#x335;" d="M-203 598q2 10 11 10h238q10 0 8 -10l-2 -17q-2 -10 -11 -10h-238q-10 0 -8 10z" />
<glyph unicode="&#x336;" d="M-342 517q-9 0 -9 10l3 21q2 10 11 10h376q9 0 9 -10l-3 -21q-2 -10 -11 -10h-376z" />
<glyph unicode="&#x337;" d="M-262 143q-8 -6 -13 2l-13 18q-4 7 4 14l352 235q8 6 13 -2l12 -20q5 -8 -3 -14z" />
<glyph unicode="&#x338;" d="M-361 -36q-13 0 -6 12l394 759q4 8 12 8h20q12 0 7 -12l-395 -759q-4 -8 -12 -8h-20z" />
<glyph unicode="&#x394;" horiz-adv-x="524" d="M25 0q-10 0 -8 10l4 31l3 12l280 639q5 8 13 8h23q8 0 11 -8l123 -640v-12l-3 -30q-2 -10 -11 -10h-435zM73 52q-3 -5 4 -5h343q6 0 4 5l-102 573q-1 4 -6 0z" />
<glyph unicode="&#x3a9;" horiz-adv-x="464" d="M49 0q-10 0 -8 10l3 27q2 10 11 10h57q8 0 3 5q-49 43 -40 128l45 359q9 76 58.5 122.5t120.5 46.5q72 0 111 -46.5t30 -122.5l-44 -359q-10 -84 -71 -128q-7 -5 0 -5h56q9 0 9 -10l-4 -27q0 -10 -11 -10h-128q-10 0 -8 10l3 28q1 8 10 11q33 7 59 39t31 78l46 375 q7 53 -19 86.5t-75 33.5q-48 0 -82 -33.5t-41 -86.5l-46 -375q-6 -45 12 -77.5t48 -39.5q9 -3 8 -11l-4 -28q0 -10 -11 -10h-129z" />
<glyph unicode="&#x3bc;" horiz-adv-x="411" d="M336 494q2 10 11 10h32q9 0 9 -10l-60 -484q-2 -10 -11 -10h-32q-10 0 -8 10l4 36q1 3 -0.5 3.5t-3.5 -1.5q-39 -55 -106 -55q-41 0 -68 18q-5 5 -5 -3l-24 -198q-2 -10 -11 -10h-32q-9 0 -9 10l84 684q2 10 11 10h32q9 0 9 -10l-42 -343q-7 -55 12 -83t61 -28t70.5 32 t35.5 88z" />
<glyph unicode="&#x3c0;" horiz-adv-x="485" d="M490 468q-2 -10 -11 -10h-48q-3 0 -5 -4l-45 -365q-3 -24 7 -31.5t34 -8.5q9 0 9 -10l-4 -29q-2 -10 -11 -10q-23 0 -38 2.5t-29 9.5t-19.5 21t-2.5 36l47 385q0 4 -3 4h-178q-4 0 -4 -4l-55 -444q-2 -10 -11 -10h-32q-10 0 -8 10l54 444q0 4 -3 4h-54q-11 0 -9 10l3 26 q2 10 11 10h400q10 0 8 -10z" />
<glyph unicode="&#x1e80;" horiz-adv-x="588" d="M389 786q5 -12 -8 -12h-23q-6 0 -11 7l-52 110q-5 12 7 12h30q6 0 11 -7zM148 0q-9 0 -9 9l-44 680q0 11 10 11h34q10 0 10 -9l30 -567q2 -6 4 0l154 567q3 9 11 9h30q8 0 9 -9l19 -567q2 -6 4 0l161 567q3 9 11 9h34q11 0 7 -11l-204 -680q-3 -9 -12 -9h-31q-8 0 -8 9 l-18 566q-2 6 -4 0l-156 -566q-2 -9 -11 -9h-31z" />
<glyph unicode="&#x1e81;" horiz-adv-x="523" d="M330 590q5 -12 -8 -12h-23q-6 0 -11 7l-52 110q-5 12 7 12h30q6 0 11 -7zM118 0q-9 0 -9 9l-43 484q0 11 10 11h31q10 0 10 -9l27 -413q0 -8 4 0l129 413q3 9 12 9h29q8 0 10 -9l27 -413q2 -8 4 0l131 413q2 9 11 9l30 -1q10 0 8 -11l-163 -483q-2 -9 -11 -9h-33 q-10 0 -10 9l-30 393q-2 8 -4 0l-125 -393q-3 -9 -12 -9h-33z" />
<glyph unicode="&#x1e82;" horiz-adv-x="588" d="M340 774q-5 0 -7 3.5t2 8.5l74 110q5 7 12 7h30q13 0 6 -12l-81 -110q-5 -7 -12 -7h-24zM148 0q-9 0 -9 9l-44 680q0 11 10 11h34q10 0 10 -9l30 -567q2 -6 4 0l154 567q3 9 11 9h30q8 0 9 -9l19 -567q2 -6 4 0l161 567q3 9 11 9h34q11 0 7 -11l-204 -680q-3 -9 -12 -9 h-31q-8 0 -8 9l-18 566q-2 6 -4 0l-156 -566q-2 -9 -11 -9h-31z" />
<glyph unicode="&#x1e83;" horiz-adv-x="523" d="M281 578q-5 0 -7 3.5t2 8.5l74 110q5 7 12 7h30q13 0 6 -12l-81 -110q-5 -7 -12 -7h-24zM118 0q-9 0 -9 9l-43 484q0 11 10 11h31q10 0 10 -9l27 -413q0 -8 4 0l129 413q3 9 12 9h29q8 0 10 -9l27 -413q2 -8 4 0l131 413q2 9 11 9l30 -1q10 0 8 -11l-163 -483 q-2 -9 -11 -9h-33q-10 0 -10 9l-30 393q-2 8 -4 0l-125 -393q-3 -9 -12 -9h-33z" />
<glyph unicode="&#x1e84;" horiz-adv-x="588" d="M315 797q-16 0 -25 11.5t-7 28.5t14 28.5t28 11.5q15 0 23.5 -11.5t6.5 -28.5t-13 -28.5t-27 -11.5zM433 797q-16 0 -24.5 11.5t-6.5 28.5q1 17 13 28.5t28 11.5t24 -11.5t6 -28.5t-13 -28.5t-27 -11.5zM148 0q-9 0 -9 9l-44 680q0 11 10 11h34q10 0 10 -9l30 -567 q2 -6 4 0l154 567q3 9 11 9h30q8 0 9 -9l19 -567q2 -6 4 0l161 567q3 9 11 9h34q11 0 7 -11l-204 -680q-3 -9 -12 -9h-31q-8 0 -8 9l-18 566q-2 6 -4 0l-156 -566q-2 -9 -11 -9h-31z" />
<glyph unicode="&#x1e85;" horiz-adv-x="523" d="M256 601q-16 0 -25 11.5t-7 28.5t14 28.5t28 11.5q15 0 23.5 -11.5t6.5 -28.5t-13 -28.5t-27 -11.5zM374 601q-16 0 -24.5 11.5t-6.5 28.5q1 17 13 28.5t28 11.5t24 -11.5t6 -28.5t-13 -28.5t-27 -11.5zM118 0q-9 0 -9 9l-43 484q0 11 10 11h31q10 0 10 -9l27 -413 q0 -8 4 0l129 413q3 9 12 9h29q8 0 10 -9l27 -413q2 -8 4 0l131 413q2 9 11 9l30 -1q10 0 8 -11l-163 -483q-2 -9 -11 -9h-33q-10 0 -10 9l-30 393q-2 8 -4 0l-125 -393q-3 -9 -12 -9h-33z" />
<glyph unicode="&#x1ef2;" horiz-adv-x="399" d="M294 786q5 -12 -8 -12h-23q-7 0 -11 7l-52 110q-5 12 7 12h30q6 0 11 -7zM164 0q-9 0 -9 10l39 310q0 4 -1 5l-89 363q-3 12 9 12h34q10 0 11 -8l67 -306q2 -6 6 0l141 306q4 8 13 8h34q5 0 7 -3.5t-1 -8.5l-178 -363q-2 -1 -2 -5l-38 -310q-2 -10 -11 -10h-32z" />
<glyph unicode="&#x1ef3;" horiz-adv-x="342" d="M242 590q5 -12 -8 -12h-23q-7 0 -11 7l-53 110q-5 12 8 12h30q6 0 11 -7zM0 -200q-7 0 -5 10l3 26q2 10 7 10h5q42 1 63 29t52 122v6l-63 490q-3 11 10 11h34q9 0 9 -9l45 -416q1 -5 4 0l146 416q3 9 12 9l35 -1q11 0 6 -11l-203 -543q-36 -93 -65 -121t-89 -28h-6z" />
<glyph unicode="&#x2000;" horiz-adv-x="491" />
<glyph unicode="&#x2001;" horiz-adv-x="983" />
<glyph unicode="&#x2002;" horiz-adv-x="491" />
<glyph unicode="&#x2003;" horiz-adv-x="983" />
<glyph unicode="&#x2004;" horiz-adv-x="327" />
<glyph unicode="&#x2005;" horiz-adv-x="245" />
<glyph unicode="&#x2006;" horiz-adv-x="163" />
<glyph unicode="&#x2007;" horiz-adv-x="163" />
<glyph unicode="&#x2008;" horiz-adv-x="122" />
<glyph unicode="&#x2009;" horiz-adv-x="196" />
<glyph unicode="&#x200a;" horiz-adv-x="54" />
<glyph unicode="&#x2010;" horiz-adv-x="300" d="M59 291q-10 0 -8 10l3 27q2 10 11 10h214q9 0 9 -10l-4 -27q0 -10 -11 -10h-214z" />
<glyph unicode="&#x2011;" horiz-adv-x="300" d="M59 291q-10 0 -8 10l3 27q2 10 11 10h214q9 0 9 -10l-4 -27q0 -10 -11 -10h-214z" />
<glyph unicode="&#x2012;" horiz-adv-x="300" d="M59 291q-10 0 -8 10l3 27q2 10 11 10h214q9 0 9 -10l-4 -27q0 -10 -11 -10h-214z" />
<glyph unicode="&#x2013;" horiz-adv-x="359" d="M55 259q-10 0 -8 10l3 27q2 10 11 10h272q11 0 9 -10l-3 -27q-2 -10 -11 -10h-273z" />
<glyph unicode="&#x2014;" horiz-adv-x="574" d="M55 259q-10 0 -8 10l3 27q2 10 11 10h489q10 0 8 -10l-3 -27q-2 -10 -11 -10h-489z" />
<glyph unicode="&#x2018;" horiz-adv-x="104" d="M54 501q-10 0 -7 11l77 180q3 8 12 8h23q12 0 7 -11l-67 -179q-4 -9 -12 -9h-33z" />
<glyph unicode="&#x2019;" horiz-adv-x="104" d="M159 700q11 0 6 -11l-76 -180q-5 -8 -13 -8h-22q-11 0 -8 11l68 179q4 9 12 9h33z" />
<glyph unicode="&#x201a;" horiz-adv-x="582" d="M20 -74q-11 0 -7 11l58 208q3 9 11 9h27q11 0 7 -11l-66 -208q-2 -9 -12 -9h-18z" />
<glyph unicode="&#x201c;" horiz-adv-x="217" d="M54 501q-10 0 -7 11l84 180q3 8 12 8h22q12 0 7 -11l-75 -180q-3 -8 -11 -8h-32zM162 501q-11 0 -6 11l82 180q5 8 13 8h21q11 0 8 -11l-73 -180q-5 -8 -12 -8h-33z" />
<glyph unicode="&#x201d;" horiz-adv-x="217" d="M164 700q11 0 6 -11l-82 -180q-5 -8 -13 -8h-21q-11 0 -8 11l73 180q3 8 12 8h33zM272 700q10 0 7 -11l-84 -180q-3 -8 -12 -8h-22q-12 0 -7 11l75 180q3 8 11 8h32z" />
<glyph unicode="&#x201e;" horiz-adv-x="203" d="M93 127q10 0 7 -11l-83 -180q-3 -8 -12 -8h-22q-12 0 -7 11l73 180q3 8 11 8h33zM202 127q11 0 6 -11l-83 -180q-4 -8 -13 -8h-21q-12 0 -7 11l74 180q5 8 12 8h32z" />
<glyph unicode="&#x2020;" horiz-adv-x="319" d="M314 460q10 0 8 -10l-3 -23q-2 -10 -11 -10h-87q-4 0 -4 -4l-74 -603q-2 -10 -11 -10h-32q-11 0 -9 10l74 603q0 4 -3 4h-88q-10 0 -8 10l3 23q2 10 11 10h87q4 0 4 4l28 226q2 10 11 10h32q9 0 9 -10l-28 -226q0 -4 3 -4h88z" />
<glyph unicode="&#x2021;" horiz-adv-x="319" d="M319 427q-2 -10 -11 -10h-87q-4 0 -4 -4l-40 -326q-2 -4 3 -4h87q9 0 9 -10l-3 -23q-2 -10 -11 -10h-87q-3 0 -5 -4l-27 -226q-2 -10 -11 -10h-32q-11 0 -9 10l28 226q0 4 -4 4h-87q-10 0 -8 10l3 23q0 10 10 10h88q4 0 4 4l40 326q0 4 -3 4h-88q-10 0 -8 10l3 23 q2 10 11 10h87q4 0 4 4l28 226q2 10 11 10h32q9 0 9 -10l-28 -226q0 -4 3 -4h88q10 0 8 -10z" />
<glyph unicode="&#x2022;" horiz-adv-x="283" d="M142 153q-45 0 -73 33t-23 79q6 46 42 78.5t81 32.5t72.5 -32.5t21.5 -78.5q-5 -46 -41 -79t-80 -33z" />
<glyph unicode="&#x2026;" horiz-adv-x="597" d="M73 4q-19 0 -30 15.5t-9 37.5q3 21 18.5 36.5t33.5 15.5t30.5 -15.5t9.5 -36.5q-2 -22 -18 -37.5t-35 -15.5zM278 4q-19 0 -30.5 15.5t-8.5 37.5q2 21 18 36.5t34 15.5t30.5 -15.5t9.5 -36.5q-3 -22 -18.5 -37.5t-34.5 -15.5zM483 4q-20 0 -31 15.5t-9 37.5 q3 21 18.5 36.5t33.5 15.5q19 0 31 -15t10 -37q-3 -22 -18.5 -37.5t-34.5 -15.5z" />
<glyph unicode="&#x202f;" horiz-adv-x="196" />
<glyph unicode="&#x2030;" horiz-adv-x="974" d="M142 275q-44 0 -66.5 29.5t-16.5 77.5l26 219q6 48 36 77.5t75 29.5q44 0 67.5 -30t17.5 -77l-27 -219q-5 -48 -36 -77.5t-76 -29.5zM117 0q-13 0 -4 12l507 681q5 7 12 7h20q14 0 5 -12l-507 -681q-5 -7 -12 -7h-21zM147 311q27 0 45.5 19t22.5 50l28 223q4 31 -10.5 50 t-41.5 19q-26 0 -44 -18.5t-23 -50.5l-27 -223q-4 -31 10 -50t40 -19zM567 -8q-44 0 -66.5 29.5t-16.5 77.5l26 219q6 48 36 77.5t75 29.5q44 0 67.5 -30t17.5 -77l-26 -219q-6 -48 -37 -77.5t-76 -29.5zM824 -8q-44 0 -66.5 29.5t-16.5 77.5l27 219q5 48 35 77.5t75 29.5 q44 0 67.5 -30t17.5 -77l-26 -219q-6 -48 -37 -77.5t-76 -29.5zM572 28q27 0 45.5 19t22.5 50l28 223q4 31 -10.5 50t-41.5 19q-26 0 -44 -19t-22 -50l-28 -223q-4 -31 10 -50t40 -19zM829 28q27 0 46 18.5t23 50.5l27 223q4 31 -10.5 50t-41.5 19q-26 0 -44 -19t-22 -50 l-28 -223q-4 -31 10 -50t40 -19z" />
<glyph unicode="&#x2039;" horiz-adv-x="304" d="M213 119q4 -5 1.5 -8.5t-8.5 -3.5h-28q-9 0 -11 6l-90 161q-3 8 2 14l129 161q5 6 13 6h28q6 0 7.5 -3.5t-3.5 -8.5l-128 -159q-1 -2 -1 -6z" />
<glyph unicode="&#x203a;" horiz-adv-x="322" d="M85 107q-6 0 -7.5 3.5t3.5 8.5l128 159q1 3 0 6l-89 159q-3 5 -0.5 8.5t8.5 3.5h28q7 0 11 -6l90 -161q3 -6 -2 -14l-130 -161q-4 -6 -12 -6h-28z" />
<glyph unicode="&#x2044;" horiz-adv-x="220" d="M-130 0q-13 0 -4 12l506 681q7 7 13 7h20q13 0 4 -12l-506 -681q-7 -7 -13 -7h-20z" />
<glyph unicode="&#x205f;" horiz-adv-x="245" />
<glyph unicode="&#x2074;" horiz-adv-x="231" d="M263 601q10 0 8 -10l-2 -17q0 -10 -11 -10h-12q-3 0 -5 -4l-12 -101q-2 -10 -11 -10h-19q-11 0 -9 10l13 101q0 4 -4 4h-126q-10 0 -8 10l2 16l3 12l117 259q5 8 13 8h21q10 0 7 -11l-113 -252q-1 -2 0 -3.5t2 -1.5h87q4 0 4 4l11 88q2 10 11 10h19q9 0 9 -10l-11 -88 q0 -4 3 -4h13z" />
<glyph unicode="&#x2075;" horiz-adv-x="225" d="M256 637q4 -21 -1 -62q-5 -39 -12 -56q-25 -77 -97 -77q-77 0 -78 83q0 17 1 28q2 10 11 10h19q10 0 9 -10q-1 -8 -1 -23q3 -52 44 -52q38 0 54 45q9 26 12 52q4 29 1 51q-6 44 -44 44q-40 0 -54 -39q-4 -9 -12 -9h-21q-10 0 -8 10l27 225q2 10 11 10h155q11 0 9 -10 l-2 -16q-2 -10 -11 -10h-121q-3 0 -5 -4l-18 -140q0 -5 5 -2q22 21 61 21q60 0 66 -69z" />
<glyph unicode="&#x2076;" horiz-adv-x="238" d="M267 640q5 -30 1 -65q-7 -44 -16 -65q-24 -68 -93 -68q-68 0 -77 70q-3 27 1 61l24 196q5 46 34 74.5t70 28.5q38 0 58.5 -28.5t15.5 -74.5l-1 -5q-2 -10 -11 -10h-19q-5 0 -7.5 2t-1.5 5l1 7q4 30 -7.5 48.5t-32.5 18.5q-23 0 -39.5 -18.5t-20.5 -48.5l-11 -86 q0 -7 4 -1q25 27 59 27q61 0 69 -68zM214 519q10 26 14 57q3 25 1 61q-9 38 -42 38q-35 0 -52 -41q-8 -24 -13 -58q-3 -33 -2 -53q8 -45 42 -45q35 0 52 41z" />
<glyph unicode="&#x2077;" horiz-adv-x="208" d="M103 449q-13 0 -8 11l143 370q2 4 -4 4h-104q-5 0 -5 -4l-4 -33q-2 -10 -11 -10h-13q-11 0 -9 10l9 62q1 10 11 10h167q11 0 9 -10l-2 -19q-1 -5 -4 -12l-143 -370q-4 -9 -12 -9h-20z" />
<glyph unicode="&#x2078;" horiz-adv-x="245" d="M233 672q-5 -3 -1 -6q30 -20 34 -59q0 -32 -2 -44q-2 -22 -9 -44q-12 -34 -38.5 -55.5t-59.5 -21.5q-64 0 -76 77q-4 24 0 44q4 28 10 45q14 39 46 58q4 3 1 6q-28 17 -32 56q-3 22 0 37q2 22 9 37q28 70 95 70q33 0 54 -18.5t26 -51.5q2 -21 0 -38q-3 -19 -10 -36 q-15 -39 -47 -56zM143 761q-2 -11 -1 -21q3 -54 45 -54q39 0 59 54q2 6 4 22q0 3 0.5 10t0.5 11q-5 54 -45 54q-46 0 -58 -54q-3 -10 -5 -22zM221 536q1 4 2 11t2 11.5t1 7.5q2 16 2 28q-1 27 -12.5 43.5t-32.5 16.5t-37.5 -17t-21.5 -43q-1 -4 -1.5 -9.5t-1.5 -11t-1 -7.5 q-2 -14 -3 -30q-1 -26 11 -42t34 -16q21 0 36.5 15.5t22.5 42.5z" />
<glyph unicode="&#x2079;" horiz-adv-x="238" d="M253 544q-5 -46 -34 -74.5t-70 -28.5q-38 0 -58.5 28.5t-14.5 74.5v5q2 10 11 10h19q5 0 7.5 -2t1.5 -5l-1 -7q-3 -30 8.5 -48.5t31.5 -18.5q23 0 39.5 18.5t20.5 48.5l11 86q0 7 -4 1q-25 -27 -59 -27q-61 0 -69 68q-5 31 0 65q5 42 15 65q24 68 93 68q68 0 77 -70 q4 -22 -1 -61zM173 638q35 0 52 41q8 24 13 58q4 38 2 53q-6 45 -42 45q-35 0 -52 -41q-10 -26 -14 -57q-4 -30 0 -61q8 -38 41 -38z" />
<glyph unicode="&#x20a3;" horiz-adv-x="460" d="M503 663q0 -10 -11 -10h-228q-4 0 -4 -4l-33 -271q0 -4 3 -4h147q10 0 8 -10l-3 -27q-2 -10 -11 -10h-147q-4 0 -4 -4l-16 -135q-2 -4 3 -4h120q9 0 9 -10l-2 -17q-2 -10 -11 -10h-121q-4 0 -4 -4l-16 -133q-2 -10 -11 -10h-32q-9 0 -9 10l17 133q0 4 -4 4h-58 q-10 0 -8 10l2 17q0 10 11 10h58q4 0 4 4l62 502q0 10 11 10h273q9 0 9 -10z" />
<glyph unicode="&#x20ac;" horiz-adv-x="468" d="M255 39q39 0 67.5 27.5t38.5 73.5q0 5 3 8t7 2l32 -5q9 -2 8 -11q-14 -65 -57.5 -103.5t-104.5 -38.5q-65 0 -98.5 45.5t-24.5 121.5l14 111q0 4 -4 4h-53q-10 0 -8 10l1 14q2 10 11 10h54q4 0 4 4l9 72q0 4 -4 4h-53q-10 0 -8 10l1 15q2 10 11 10h54q4 0 4 4l14 116 q10 75 54.5 120t109.5 45q61 0 95 -38.5t32 -103.5q0 -9 -10 -11l-32 -5q-5 -1 -8 1.5t-2 7.5q3 47 -19 74.5t-62 27.5q-41 0 -70 -31.5t-36 -83.5l-14 -119q-2 -4 3 -4h173q12 0 5 -12l-8 -15q-3 -8 -11 -8h-163q-3 0 -5 -4l-9 -72q0 -4 4 -4h141q12 0 7 -12l-9 -14 q-3 -8 -11 -8h-132q-3 0 -5 -4l-14 -115q-6 -52 15.5 -84t62.5 -32z" />
<glyph unicode="&#x20ba;" horiz-adv-x="539" d="M490 265q11 0 9 -10q-15 -97 -83 -165.5t-172 -83.5q-40 -6 -84 -6q-10 0 -8 10l38 312q0 2 -1 3.5t-3 0.5l-90 -28q-10 -4 -12 7l-2 15q-1 10 7 13l103 31q3 1 4 4l7 64q1 2 -0.5 3.5t-3.5 0.5l-90 -28q-10 -3 -11 7l-3 15q-1 10 8 13l103 31q3 2 3 4l26 212q2 10 11 10 h32q10 0 8 -10l-23 -194q-1 -2 0.5 -3.5t3.5 -0.5l122 38q11 4 12 -7l2 -15q1 -10 -8 -13l-135 -41q-3 -2 -3 -4l-8 -63q0 -7 5 -4l122 38q10 3 11 -7l2 -15q3 -10 -7 -13l-135 -41q-3 -1 -3 -4l-36 -291q0 -4 3 -4q95 6 159 64t77 145q1 10 11 10h32z" />
<glyph unicode="&#x20bd;" horiz-adv-x="491" d="M326 325h-107q-4 0 -4 -4l-11 -92q-2 -4 3 -4h160q9 0 9 -10l-2 -16q-2 -10 -11 -10h-160q-3 0 -5 -4l-21 -175q-2 -10 -11 -10h-32q-9 0 -9 10l22 175q0 4 -4 4h-53q-10 0 -8 10l2 16q0 10 11 10h53q4 0 4 4l12 92q0 4 -4 4h-53q-9 0 -9 10l3 24q2 10 11 10h54q4 0 4 4 l39 319q2 10 11 10h150q69 0 104.5 -52.5t24.5 -137.5q-10 -85 -57.5 -136t-115.5 -51zM260 654q-3 0 -5 -4l-34 -277q0 -4 4 -4h99q48 0 82 39t42 103q8 65 -16.5 104t-72.5 39h-99z" />
<glyph unicode="&#x2113;" horiz-adv-x="407" d="M230 34q44 0 77 29q11 9 14 -1l7 -20q2 -8 -3 -13q-41 -37 -108 -37q-54 0 -78.5 39.5t-16.5 110.5l13 116q1 3 -0.5 3.5t-3.5 -1.5l-37 -30q-8 -8 -12 2l-8 17q-2 7 4 14q58 47 62 50q2 2 3 5l22 185q9 78 49.5 139t95.5 66q46 4 71.5 -32.5t17.5 -93.5 q-9 -74 -62.5 -137t-148.5 -140q-3 -3 -3 -5l-18 -152q-14 -114 63 -114zM208 497l-16 -135q0 -6 4 -3q71 59 112 111t48 108q5 41 -8.5 67t-41.5 22q-33 -5 -61.5 -52.5t-36.5 -117.5z" />
<glyph unicode="&#x2122;" horiz-adv-x="493" d="M90 668q-9 0 -9 10l2 12q2 10 11 10h168q11 0 9 -10l-2 -12q0 -10 -10 -10h-65q-5 0 -5 -4l-37 -305q-2 -10 -11 -10h-16q-10 0 -8 10l37 305q2 4 -3 4h-61zM482 693q3 7 12 7h17q10 0 8 -10l-40 -331q-2 -10 -11 -10h-16q-10 0 -8 10l32 266q1 3 -0.5 3t-3.5 -2 l-62 -105q-3 -7 -8 -7q-7 0 -8 7l-37 106q-2 3 -5 -1l-32 -267q-2 -10 -11 -10h-17q-10 0 -8 10l40 331q2 10 11 10h18q9 0 10 -7l41 -119q1 -2 3 -2t3 2z" />
<glyph unicode="&#x2126;" horiz-adv-x="464" d="M49 0q-10 0 -8 10l3 27q2 10 11 10h57q8 0 3 5q-49 43 -40 128l45 359q9 76 58.5 122.5t120.5 46.5q72 0 111 -46.5t30 -122.5l-44 -359q-10 -84 -71 -128q-7 -5 0 -5h56q9 0 9 -10l-4 -27q0 -10 -11 -10h-128q-10 0 -8 10l3 28q1 8 10 11q33 7 59 39t31 78l46 375 q7 53 -19 86.5t-75 33.5q-48 0 -82 -33.5t-41 -86.5l-46 -375q-6 -45 12 -77.5t48 -39.5q9 -3 8 -11l-4 -28q0 -10 -11 -10h-129z" />
<glyph unicode="&#x212e;" horiz-adv-x="825" d="M480 708q153 0 240.5 -102.5t68.5 -258.5q-2 -4 -11 -4h-612q-4 0 -4 -4l-22 -180q0 -4 1 -5q36 -64 102 -100.5t152 -36.5q94 0 176 45.5t132 123.5q4 7 12 7h10q5 0 7 -3.5t-2 -8.5q-54 -87 -144 -138t-194 -51q-154 0 -241 101.5t-69 253.5q20 156 132 258.5 t266 102.5zM190 546q-2 -1 -2 -5l-21 -169q0 -4 3 -4h535q4 0 4 4l21 169v3l-1 2q-36 64 -101.5 100.5t-150.5 36.5q-86 0 -160.5 -36.5t-126.5 -100.5z" />
<glyph unicode="&#x215b;" horiz-adv-x="659" d="M91 280q-11 0 -9 10l45 365q0 5 -4 3l-22 -8q-11 -3 -11 8l2 11q0 6 8 12l26 15q8 4 13 4h24q10 0 8 -10l-49 -400q-2 -10 -11 -10h-20zM557 693q7 7 13 7h20q12 0 5 -12l-507 -681q-5 -7 -12 -7h-21q-13 0 -4 12zM591 223q-4 -3 -1 -6q30 -20 34 -59q0 -32 -2 -44 q-2 -22 -9 -44q-12 -34 -38.5 -55.5t-59.5 -21.5q-31 0 -51 20.5t-25 56.5q-3 16 0 44q4 28 10 45q14 39 46 58q5 3 1 6q-28 18 -32 56q-3 22 0 37q2 22 9 37q28 70 95 70q33 0 54 -18.5t26 -51.5q2 -21 0 -38q-3 -17 -9 -36q-17 -40 -48 -56zM501 312q-2 -11 -1 -21 q3 -54 45 -54q39 0 59 54q2 6 4 22q1 6 1 21q-5 54 -45 54q-21 0 -37 -15t-21 -39q-3 -10 -5 -22zM579 87q2 7 5 30q2 16 2 28q-1 27 -12.5 43.5t-32.5 16.5t-37.5 -17t-21.5 -43l-4 -28q-2 -13 -3 -30q-1 -26 11 -42t34 -16q21 0 36.5 15.5t22.5 42.5z" />
<glyph unicode="&#x215c;" horiz-adv-x="724" d="M622 693q7 7 13 7h20q12 0 5 -12l-507 -681q-5 -7 -12 -7h-21q-13 0 -4 12zM224 338q-25 -65 -93 -65q-37 0 -58.5 24t-22.5 63q0 14 2 34q1 10 11 10h20q9 0 8 -10q-2 -18 -1 -25q0 -60 46 -60q34 0 53 39q12 30 16 60q4 29 1 53q-6 49 -45 49q-5 0 -11 -2q-10 -2 -14 3 l-7 10q-4 7 1 14l92 123q2 3 -2 5h-123q-9 0 -9 10l2 15q2 10 11 10h164q9 0 9 -10l-3 -18q0 -3 -5 -13l-84 -113q-2 -5 2 -5q25 -3 40.5 -23.5t17.5 -51.5q3 -26 0 -60q-7 -43 -18 -66zM656 223q-4 -3 -1 -6q30 -20 34 -59q0 -32 -2 -44q-2 -22 -9 -44q-12 -34 -38.5 -55.5 t-59.5 -21.5q-31 0 -51 20.5t-25 56.5q-4 24 0 44q4 28 10 45q14 39 46 58q5 3 1 6q-28 17 -32 56q-3 22 0 37q2 22 9 37q28 70 95 70q33 0 54 -18.5t26 -51.5q2 -21 0 -38q-3 -17 -9 -36q-17 -40 -48 -56zM566 312q-2 -11 -1 -21q3 -54 45 -54q39 0 59 54q2 6 4 22 q1 6 1 21q-5 54 -45 54q-21 0 -37 -15t-21 -39q-3 -10 -5 -22zM644 87q2 7 5 30q2 16 2 28q-1 27 -12.5 43.5t-32.5 16.5t-37.5 -17t-21.5 -43q-1 -4 -1.5 -9.5t-1.5 -11t-1 -7.5q-1 -13 -3 -30q-1 -26 11 -42t34 -16q21 0 36.5 15.5t22.5 42.5z" />
<glyph unicode="&#x215d;" horiz-adv-x="675" d="M574 693q5 7 12 7h21q13 0 4 -12l-506 -681q-7 -7 -13 -7h-20q-12 0 -5 12zM222 350q-23 -77 -96 -77q-78 0 -78 83q-1 12 0 28q2 10 11 10h19q10 0 9 -10q-1 -8 -1 -23q4 -52 44 -52q39 0 54 45q9 21 12 52q4 29 1 51q-5 44 -43 44q-42 0 -55 -39q-3 -9 -11 -9h-22 q-10 0 -8 10l27 225q2 10 11 10h156q10 0 8 -10l-2 -16q-2 -10 -11 -10h-121q-4 0 -4 -4l-19 -140q0 -5 5 -2q22 21 61 21q60 0 66 -69q4 -21 -1 -62q-5 -39 -12 -56zM607 223q-5 -3 0 -6q29 -19 33 -59q1 -19 -1 -44q-4 -26 -10 -44q-12 -34 -38.5 -55.5t-58.5 -21.5 q-64 0 -76 77q-3 17 -1 44q3 24 11 45q13 38 46 58q4 3 1 6q-29 18 -33 56q-2 16 0 37q2 19 10 37q28 70 94 70q33 0 54.5 -18.5t25.5 -51.5q2 -27 0 -38q-2 -17 -9 -36q-15 -39 -48 -56zM517 312v-21q3 -54 45 -54q39 0 59 54q1 3 2 10.5t1 11.5q2 12 2 21q-6 54 -46 54 q-44 0 -58 -54q-3 -10 -5 -22zM596 87q1 7 2.5 18t1.5 12q1 8 3 28q-2 27 -13.5 43.5t-31.5 16.5q-21 0 -38 -17t-21 -43q-4 -20 -4 -28q-3 -13 -3 -30q-2 -26 10.5 -42t33.5 -16q43 0 60 58z" />
<glyph unicode="&#x215e;" horiz-adv-x="640" d="M109 665q-3 0 -5 -4l-4 -33q0 -10 -11 -10h-13q-9 0 -9 10l9 62q1 10 11 10h168q10 0 8 -10l-2 -19q-1 -5 -4 -12l-143 -370q-4 -9 -12 -9h-20q-12 0 -7 11l142 370q2 4 -3 4h-105zM539 693q5 7 13 7h20q13 0 4 -12l-506 -681q-7 -7 -13 -7h-20q-13 0 -4 12zM573 223 q-6 -3 -1 -6q29 -19 33 -59q1 -19 -1 -44q-5 -30 -10 -44q-12 -34 -38.5 -55.5t-58.5 -21.5q-64 0 -76 77q-3 17 -1 44q3 24 11 45q13 38 46 58q4 3 1 6q-28 17 -32 56q-3 16 -1 37q2 19 10 37q28 70 95 70q32 0 53.5 -18.5t25.5 -51.5q2 -27 0 -38q-1 -17 -9 -36 q-15 -39 -47 -56zM483 312q-2 -11 -1 -21q3 -54 45 -54q39 0 59 54q3 10 3 22q2 12 2 21q-6 54 -46 54q-21 0 -36.5 -14.5t-21.5 -39.5l-2 -9q-2 -9 -2 -13zM561 87q1 7 2.5 18t1.5 12q3 24 3 28q-2 27 -13.5 43.5t-31.5 16.5q-21 0 -38 -17t-21 -43q-4 -20 -4 -28 q-3 -13 -3 -30q-1 -26 11 -42t33 -16t37 16t23 42z" />
<glyph unicode="&#x2202;" horiz-adv-x="520" d="M441 625q63 -105 31 -313q-9 -60 -25 -112t-44 -101t-73 -78t-103 -29q-86 0 -133 57.5t-35 157.5q12 101 77 161.5t147 60.5q89 -1 142 -72q5 -3 5 2q11 159 -30 233q-31 56 -93 65q-54 6 -111 -27q-12 -6 -13 4l-7 27q-2 9 7 14q73 37 132 31q85 -7 126 -81zM237 39 q70 0 116 62t66 174v5q-13 44 -50 73t-86 29q-64 0 -113 -48.5t-59 -126.5q-10 -76 25.5 -122t100.5 -46z" />
<glyph unicode="&#x2206;" horiz-adv-x="524" d="M25 0q-10 0 -8 10l4 31l3 12l280 639q5 8 13 8h23q8 0 11 -8l123 -640v-12l-3 -30q-2 -10 -11 -10h-435zM73 51q-1 -1 0 -3t3 -2h344q6 0 4 5l-102 574q-1 4 -6 0z" />
<glyph unicode="&#x220f;" horiz-adv-x="457" d="M449 800q11 0 9 -10l-120 -980q-2 -10 -11 -10h-32q-11 0 -9 10l115 939q2 4 -3 4h-193q-4 0 -4 -4l-116 -939q0 -10 -11 -10h-32q-10 0 -8 10l120 980q2 10 11 10h284z" />
<glyph unicode="&#x2211;" horiz-adv-x="497" d="M42 -199q-10 0 -8 10l4 29q0 3 4 13l266 441q1 2 -1 6l-164 366q-3 6 -1 13l3 29q2 10 11 10h357q10 0 8 -10l-3 -26q0 -10 -11 -10h-310q-4 0 -4 -5l167 -363q4 -5 0 -14l-268 -438q-2 -5 3 -5h311q9 0 9 -10l-4 -26q0 -10 -11 -10h-358z" />
<glyph unicode="&#x2212;" horiz-adv-x="430" d="M60 297q-9 0 -9 10l3 23q2 10 11 10h343q11 0 9 -10l-3 -23q-2 -10 -11 -10h-343z" />
<glyph unicode="&#x2215;" horiz-adv-x="387" d="M16 0q-5 0 -7 3.5t1 8.5l367 680q4 8 12 8h28q13 0 6 -12l-366 -680q-3 -8 -11 -8h-30z" />
<glyph unicode="&#x2219;" horiz-adv-x="283" d="M148 202q-45 0 -73 33t-23 80q6 46 42 78t81 32t72.5 -32t22.5 -78q-6 -46 -42 -79.5t-80 -33.5z" />
<glyph unicode="&#x221a;" horiz-adv-x="610" d="M103 -200q-8 0 -10 8l-68 344q-1 10 9 13l29 10q11 3 12 -7l50 -275q1 -3 4 0l311 887q4 9 12 9h161q10 0 8 -10l-3 -26q-2 -10 -11 -10h-125q-5 0 -5 -3l-329 -931q-2 -9 -12 -9h-33z" />
<glyph unicode="&#x221e;" horiz-adv-x="615" d="M493 472q53 0 84.5 -43t23.5 -110t-50.5 -109.5t-95.5 -42.5q-77 0 -135 110q-2 3 -5 0q-88 -110 -159 -110q-50 0 -80.5 43.5t-22.5 109.5q8 68 50.5 110t92.5 42q72 0 129 -109q3 -3 6 0q87 109 162 109zM163 211q30 0 59.5 25.5t73.5 81.5q2 4 1 6q-27 53 -51 78.5 t-54 25.5q-33 0 -61.5 -29t-34.5 -79q-7 -48 13 -78.5t54 -30.5zM459 211q37 0 65.5 29.5t34.5 78.5t-14.5 79t-56.5 30q-57 0 -139 -105q-1 -2 -1 -6q24 -49 49.5 -77.5t61.5 -28.5z" />
<glyph unicode="&#x222b;" horiz-adv-x="308" d="M-6 -208q-9 0 -9 10l4 28q2 10 11 10h14q42 0 61 29.5t26 90.5l73 591q11 90 45.5 122.5t113.5 34.5q11 0 9 -10l-4 -28q0 -10 -11 -10h-14q-42 0 -61 -29.5t-27 -90.5l-73 -591q-11 -90 -45 -122.5t-113 -34.5z" />
<glyph unicode="&#x2248;" horiz-adv-x="440" d="M335 372q-20 0 -39 6t-27.5 11t-27.5 18q-37 25 -66 25q-44 0 -76 -42q-5 -10 -14 -4l-15 11q-8 6 -2 13q38 70 110 70q37 0 76 -27q49 -33 86 -33q30 0 66 40q7 9 14 3l15 -12q5 -6 1 -13q-46 -66 -101 -66zM309 162q-20 0 -39 6t-27.5 11t-27.5 18q-35 25 -66 25 q-45 0 -75 -42q-6 -10 -15 -4l-15 11q-8 6 -2 13q40 70 110 70q36 0 77 -27q47 -33 85 -33q30 0 66 40q7 9 14 3l15 -12q6 -6 1 -13q-46 -66 -101 -66z" />
<glyph unicode="&#x2260;" horiz-adv-x="430" d="M429 427q-2 -10 -11 -10h-119q-2 0 -5 -3l-95 -160q-2 -5 2 -5h196q9 0 9 -10l-3 -23q-2 -10 -11 -10h-218q-2 0 -5 -3l-51 -88q-4 -7 -13 -7h-16q-12 0 -5 12l47 81q2 1 1 3t-3 2h-80q-11 0 -9 10l3 23q2 10 11 10h103q3 0 4 3l94 160q3 5 -2 5h-179q-10 0 -8 10l3 23 q2 10 11 10h201q3 0 4 3l51 89q4 7 13 7h17q13 0 6 -12l-49 -82q-2 -5 2 -5h98q9 0 9 -10z" />
<glyph unicode="&#x2264;" horiz-adv-x="430" d="M392 117q-2 -14 -13 -7l-322 178q-6 2 -6 12l4 33q2 9 9 12l366 178q5 3 8.5 0.5t2.5 -7.5l-4 -32q-2 -8 -9 -12l-321 -152q-4 -3 -1 -6l284 -153q6 -4 6 -12zM382 42q0 -10 -10 -10h-344q-10 0 -8 10l3 23q0 10 10 10h344q10 0 8 -10z" />
<glyph unicode="&#x2265;" horiz-adv-x="430" d="M39 110q-6 -3 -9 -0.5t-2 7.5l4 32q0 7 8 12l322 153q4 3 0 6l-284 152q-6 5 -5 12l4 32q2 14 12 7l323 -178q7 -3 5 -12l-4 -33q0 -9 -8 -12zM27 32q-10 0 -8 10l3 23q0 10 10 10h344q10 0 8 -10l-2 -23q-2 -10 -11 -10h-344z" />
<glyph unicode="&#x25ca;" horiz-adv-x="381" d="M154 -44q-10 0 -11 8l-85 379q-3 6 1 14l180 379q3 8 12 8h24q9 0 10 -8l86 -379q2 -7 -2 -14l-177 -379q-4 -8 -13 -8h-25zM171 17q1 -4 6 0l149 330q1 2 1 6l-69 328q-1 4 -6 0l-149 -328q-1 -3 0 -6z" />
<glyph unicode="&#x25fc;" horiz-adv-x="505" d="M0 505h505v-505h-505v505z" />
<glyph horiz-adv-x="175" d="M140 593q-16 0 -24.5 11t-6.5 28q1 16 13 27.5t27 11.5t23 -11t6 -28t-13 -28t-25 -11zM50 0q-10 0 -8 10l59 484q2 10 11 10h32q11 0 9 -10l-60 -484q0 -10 -11 -10h-32z" />
<glyph horiz-adv-x="391" d="M240 512q66 0 98 -45t23 -122l-42 -335q0 -10 -11 -10h-32q-10 0 -8 10l4 36q1 3 -0.5 3.5t-3.5 -1.5q-43 -56 -120 -56q-52 0 -85 31t-24 109q11 83 60 122t124 39h76q4 0 4 4l6 46q7 56 -13 89t-62 33q-34 0 -61.5 -22t-35.5 -57q-1 -10 -11 -10l-35 2q-10 0 -8 10 q13 55 57 89.5t100 34.5zM165 39q43 0 78.5 29t41.5 82l12 95q0 4 -4 4h-75q-51 0 -85 -28.5t-41 -84.5q-6 -49 14.5 -73t58.5 -24z" />
<glyph horiz-adv-x="381" d="M287 0q-9 0 -9 9l-9 102q0 4 -5 4h-159q-5 0 -5 -4l-35 -102q-2 -9 -12 -9h-32q-11 0 -6 11l194 556q4 9 12 9h39q9 0 9 -9l61 -556q2 -11 -9 -11h-34zM118 163q-2 -4 3 -4h139q5 0 3 4l-29 329q0 8 -4 0z" />
<glyph horiz-adv-x="381" d="M331 779q13 0 6 -12l-81 -110q-5 -7 -12 -7h-24q-5 0 -7 3.5t2 8.5l74 110q5 7 12 7h30zM287 0q-9 0 -9 9l-9 102q0 4 -5 4h-159q-5 0 -5 -4l-35 -102q-2 -9 -12 -9h-32q-11 0 -6 11l194 556q4 9 12 9h39q9 0 9 -9l61 -556q2 -11 -9 -11h-34zM118 163q-2 -4 3 -4h139 q5 0 3 4l-29 329q0 8 -4 0z" />
<glyph horiz-adv-x="381" d="M246 616q-39 0 -63.5 26t-22.5 66q0 10 11 10h14q9 0 9 -10q0 -26 16 -43.5t40 -17.5q25 0 45 17.5t26 43.5q3 10 12 10h14q10 0 8 -10q-8 -40 -38.5 -66t-70.5 -26zM287 0q-9 0 -9 9l-9 102q0 4 -5 4h-159q-5 0 -5 -4l-35 -102q-2 -9 -12 -9h-32q-11 0 -6 11l194 556 q4 9 12 9h39q9 0 9 -9l61 -556q2 -11 -9 -11h-34zM118 163q-2 -4 3 -4h139q5 0 3 4l-29 329q0 8 -4 0z" />
<glyph horiz-adv-x="381" d="M278 638q-5 -7 -12 -7h-37q-7 0 -11 7l-51 102q-5 12 7 12h29q6 0 11 -7l37 -77q2 -4 6 0l55 77q5 7 12 7h27q12 0 5 -12zM287 0q-9 0 -9 9l-9 102q0 4 -5 4h-159q-5 0 -5 -4l-35 -102q-2 -9 -12 -9h-32q-11 0 -6 11l194 556q4 9 12 9h39q9 0 9 -9l61 -556q2 -11 -9 -11 h-34zM118 163q-2 -4 3 -4h139q5 0 3 4l-29 329q0 8 -4 0z" />
<glyph horiz-adv-x="381" d="M263 725q-1 1 -3 1t-3 -1l-55 -76q-5 -7 -13 -7h-30q-13 0 -4 12l77 102q5 7 12 7h39q7 0 11 -6l53 -103q2 -4 0 -8t-8 -4h-30q-7 0 -11 7zM287 0q-9 0 -9 9l-9 102q0 4 -5 4h-159q-5 0 -5 -4l-35 -102q-2 -9 -12 -9h-32q-11 0 -6 11l194 556q4 9 12 9h39q9 0 9 -9 l61 -556q2 -11 -9 -11h-34zM118 163q-2 -4 3 -4h139q5 0 3 4l-29 329q0 8 -4 0z" />
<glyph horiz-adv-x="381" d="M195 673q-16 0 -25 11.5t-7 28.5t14 28.5t28 11.5q15 0 23.5 -11.5t6.5 -28.5t-13 -28.5t-27 -11.5zM313 673q-16 0 -24.5 11.5t-6.5 28.5q1 17 13 28.5t28 11.5t24 -11.5t6 -28.5q-1 -17 -12.5 -28.5t-27.5 -11.5zM287 0q-9 0 -9 9l-9 102q0 4 -5 4h-159q-5 0 -5 -4 l-35 -102q-2 -9 -12 -9h-32q-11 0 -6 11l194 556q4 9 12 9h39q9 0 9 -9l61 -556q2 -11 -9 -11h-34zM118 163q-2 -4 3 -4h139q5 0 3 4l-29 329q0 8 -4 0z" />
<glyph horiz-adv-x="381" d="M269 662q5 -12 -8 -12h-23q-6 0 -11 7l-52 110q-5 12 7 12h30q6 0 11 -7zM287 0q-9 0 -9 9l-9 102q0 4 -5 4h-159q-5 0 -5 -4l-35 -102q-2 -9 -12 -9h-32q-11 0 -6 11l194 556q4 9 12 9h39q9 0 9 -9l61 -556q2 -11 -9 -11h-34zM118 163q-2 -4 3 -4h139q5 0 3 4l-29 329 q0 8 -4 0z" />
<glyph horiz-adv-x="381" d="M344 711q11 0 9 -10l-3 -20q0 -10 -11 -10h-173q-9 0 -9 10l3 20q2 10 11 10h173zM287 0q-9 0 -9 9l-9 102q0 4 -5 4h-159q-5 0 -5 -4l-35 -102q-2 -9 -12 -9h-32q-11 0 -6 11l194 556q4 9 12 9h39q9 0 9 -9l61 -556q2 -11 -9 -11h-34zM118 163q-2 -4 3 -4h139q5 0 3 4 l-29 329q0 8 -4 0z" />
<glyph horiz-adv-x="401" d="M315 -149q11 3 11 -7v-14q0 -10 -8 -11q-33 -7 -60.5 4.5t-30.5 51.5q-4 67 59 120q5 5 4 5h-3q-9 0 -9 9l-9 102q0 4 -5 4h-159q-5 0 -5 -4l-35 -102q-2 -9 -12 -9h-32q-11 0 -6 11l194 556q4 9 12 9h39q9 0 9 -9l62 -559l1 -8h-1q-65 -56 -64 -111q1 -45 48 -38z M118 163q-2 -4 3 -4h139q5 0 3 4l-29 329q0 8 -4 0z" />
<glyph horiz-adv-x="381" d="M250 647q-39 0 -63 29.5t-19 71.5q4 42 35.5 71t71.5 29t64.5 -29t19.5 -71t-37 -71.5t-72 -29.5zM271 817q-27 0 -48 -20t-24 -49q-4 -29 12.5 -49t42.5 -20q27 0 48 20t25 49q3 29 -13 49t-43 20zM287 0q-9 0 -9 9l-9 102q0 4 -5 4h-159q-5 0 -5 -4l-35 -102 q-2 -9 -12 -9h-32q-11 0 -6 11l194 556q4 9 12 9h39q9 0 9 -9l61 -556q2 -11 -9 -11h-34zM118 163q-2 -4 3 -4h139q5 0 3 4l-29 329q0 8 -4 0z" />
<glyph horiz-adv-x="381" d="M221 713q-26 0 -48 -27q-6 -10 -13 -3l-11 9q-8 6 -2 13q32 48 76 48q23 0 52 -23q2 -2 9.5 -7.5t11 -7.5t10 -4.5t12.5 -2.5q25 0 46 30q7 10 14 4l11 -8q7 -6 2 -14q-32 -50 -80 -50q-19 0 -49 22q-26 21 -41 21zM287 0q-9 0 -9 9l-9 102q0 4 -5 4h-159q-5 0 -5 -4 l-35 -102q-2 -9 -12 -9h-32q-11 0 -6 11l194 556q4 9 12 9h39q9 0 9 -9l61 -556q2 -11 -9 -11h-34zM118 163q-2 -4 3 -4h139q5 0 3 4l-29 329q0 8 -4 0z" />
<glyph horiz-adv-x="607" d="M618 539q-2 -10 -11 -10h-198q-4 0 -4 -4l-26 -209q0 -4 4 -4h125q10 0 8 -10l-3 -27q-2 -10 -11 -10h-125q-4 0 -4 -4l-26 -210q-2 -4 3 -4h198q10 0 8 -10l-3 -27q-2 -10 -11 -10h-244q-9 0 -9 10l13 101q0 4 -4 4h-166q-2 0 -4 -3l-60 -105q-4 -7 -12 -7h-33 q-13 0 -6 12l322 557q3 7 11 7h263q10 0 8 -10zM157 164q-1 -2 -0.5 -3.5t2.5 -1.5h145q4 0 4 4l41 329q1 3 -0.5 3t-3.5 -2z" />
<glyph horiz-adv-x="377" d="M289 300q-5 -2 -1 -5q72 -39 60 -139q-9 -73 -55 -114.5t-115 -41.5h-124q-10 0 -8 10l68 556q2 10 11 10h117q72 0 108 -39t27 -111q-10 -92 -88 -126zM165 529q-3 0 -5 -4l-25 -204q0 -4 4 -4h73q48 0 78 27.5t36 76.5q7 52 -16.5 80t-71.5 28h-73zM180 48 q49 0 79 29.5t37 83.5q7 55 -16 86t-71 31h-75q-4 0 -4 -4l-28 -222q0 -4 4 -4h74z" />
<glyph horiz-adv-x="377" d="M170 -7q-64 0 -97 40.5t-24 110.5l35 289q9 71 52 110.5t106 39.5q65 0 99 -39.5t25 -110.5l-1 -12q-2 -10 -11 -10l-33 -2q-9 0 -9 10l3 18q5 47 -16 73t-62 26q-40 0 -67.5 -26t-33.5 -73l-36 -297q-6 -47 15 -73.5t61 -26.5q41 0 68.5 26.5t33.5 73.5l2 17q2 10 11 10 l33 -2q10 0 8 -10l-1 -11q-9 -70 -52.5 -110.5t-108.5 -40.5z" />
<glyph horiz-adv-x="377" d="M221 657q-5 0 -7 3.5t2 8.5l74 110q5 7 12 7h30q13 0 6 -12l-81 -110q-5 -7 -12 -7h-24zM170 -7q-64 0 -97 40.5t-24 110.5l35 289q9 71 52 110.5t106 39.5q65 0 99 -39.5t25 -110.5l-1 -12q-2 -10 -11 -10l-33 -2q-9 0 -9 10l3 18q5 47 -16 73t-62 26q-40 0 -67.5 -26 t-33.5 -73l-36 -297q-6 -47 15 -73.5t61 -26.5q41 0 68.5 26.5t33.5 73.5l2 17q2 10 11 10l33 -2q10 0 8 -10l-1 -11q-9 -70 -52.5 -110.5t-108.5 -40.5z" />
<glyph horiz-adv-x="377" d="M230 638q-8 0 -11 7l-52 102q-5 12 8 12h29q6 0 11 -7l37 -77q0 -1 2 -1t3 1l56 77q5 7 12 7h27q12 0 5 -12l-78 -102q-5 -7 -12 -7h-37zM170 -7q-64 0 -97 40.5t-24 110.5l35 289q9 71 52 110.5t106 39.5q65 0 99 -39.5t25 -110.5l-1 -12q-2 -10 -11 -10l-33 -2 q-9 0 -9 10l3 18q5 47 -16 73t-62 26q-40 0 -67.5 -26t-33.5 -73l-36 -297q-6 -47 15 -73.5t61 -26.5q41 0 68.5 26.5t33.5 73.5l2 17q2 10 11 10l33 -2q10 0 8 -10l-1 -11q-9 -70 -52.5 -110.5t-108.5 -40.5z" />
<glyph horiz-adv-x="377" d="M365 421q-2 -10 -11 -10l-33 -2q-9 0 -9 10l3 18q5 47 -16 73t-62 26q-40 0 -67.5 -26t-33.5 -73l-36 -297q-6 -47 15 -73.5t61 -26.5q41 0 68.5 26.5t33.5 73.5l2 17q2 10 11 10l33 -2q10 0 8 -10l-1 -11q-7 -63 -43.5 -102t-91.5 -47q-5 -2 -2 -5q43 -50 24 -115 q-8 -27 -27 -42.5t-39 -16t-38 2.5q-9 1 -6 11l4 14q2 8 10 8q1 -1 5 -1q44 -6 55 38q15 49 -30 103q-2 2 -4 2q-53 7 -80 46.5t-19 103.5l35 289q9 71 52 110.5t106 39.5q65 0 99 -39.5t25 -110.5z" />
<glyph horiz-adv-x="377" d="M252 663q-15 0 -24 11.5t-7 27.5q2 17 13.5 28t27.5 11q14 0 22 -11t6 -28t-12.5 -28t-25.5 -11zM170 -7q-64 0 -97 40.5t-24 110.5l35 289q9 71 52 110.5t106 39.5q65 0 99 -39.5t25 -110.5l-1 -12q-2 -10 -11 -10l-33 -2q-9 0 -9 10l3 18q5 47 -16 73t-62 26 q-40 0 -67.5 -26t-33.5 -73l-36 -297q-6 -47 15 -73.5t61 -26.5q41 0 68.5 26.5t33.5 73.5l2 17q2 10 11 10l33 -2q10 0 8 -10l-1 -11q-9 -70 -52.5 -110.5t-108.5 -40.5z" />
<glyph horiz-adv-x="392" d="M54 0q-10 0 -8 10l68 556q2 10 11 10h125q65 0 97.5 -41t23.5 -111l-33 -272q-9 -70 -52 -111t-107 -41h-125zM102 51q0 -4 4 -4h79q40 1 67 29.5t34 78.5l33 267q6 50 -14 78.5t-61 28.5h-79q-3 0 -5 -4z" />
<glyph horiz-adv-x="429" d="M288 576q64 0 96.5 -41t24.5 -111l-33 -272q-9 -70 -52 -111t-107 -41h-125q-10 0 -8 10l33 268q0 4 -4 4h-24q-9 0 -9 10l2 15q2 10 11 10h24q5 0 5 4l30 245q2 10 11 10h125zM324 155l32 267q6 50 -13.5 78.5t-60.5 28.5h-79q-3 0 -5 -4l-25 -204q0 -4 4 -4h67 q10 0 8 -10l-2 -15q-2 -10 -11 -10h-67q-4 0 -4 -4l-28 -227q0 -4 4 -4h79q40 1 67 29.5t34 78.5z" />
<glyph horiz-adv-x="392" d="M229 635q-7 0 -10 7l-52 102q-5 12 7 12h29q7 0 11 -7l37 -77q1 -2 3 -2t3 2l55 77q7 7 13 7h27q13 0 4 -12l-77 -102q-7 -7 -13 -7h-37zM54 0q-10 0 -8 10l68 556q2 10 11 10h125q65 0 97.5 -41t23.5 -111l-33 -272q-9 -70 -52 -111t-107 -41h-125zM102 51q0 -4 4 -4h79 q40 1 67 29.5t34 78.5l33 267q6 50 -14 78.5t-61 28.5h-79q-3 0 -5 -4z" />
<glyph horiz-adv-x="429" d="M288 576q64 0 96.5 -41t24.5 -111l-33 -272q-9 -70 -52 -111t-107 -41h-125q-10 0 -8 10l33 268q0 4 -4 4h-24q-9 0 -9 10l2 15q2 10 11 10h24q5 0 5 4l30 245q2 10 11 10h125zM324 155l32 267q6 50 -13.5 78.5t-60.5 28.5h-79q-3 0 -5 -4l-25 -204q0 -4 4 -4h67 q10 0 8 -10l-2 -15q-2 -10 -11 -10h-67q-4 0 -4 -4l-28 -227q0 -4 4 -4h79q40 1 67 29.5t34 78.5z" />
<glyph horiz-adv-x="362" d="M373 538q-2 -10 -11 -10h-197q-3 0 -5 -4l-25 -208q0 -4 3 -4h124q11 0 9 -10l-3 -27q-2 -10 -11 -10h-125q-4 0 -4 -4l-26 -210q0 -4 4 -4h197q10 0 8 -10l-3 -27q-2 -10 -11 -10h-243q-10 0 -8 10l68 556q2 10 11 10h243q10 0 8 -10z" />
<glyph horiz-adv-x="362" d="M336 788q13 0 6 -12l-81 -110q-5 -7 -12 -7h-24q-5 0 -7 3.5t2 8.5l74 110q5 7 12 7h30zM373 538q-2 -10 -11 -10h-197q-3 0 -5 -4l-25 -208q0 -4 3 -4h124q11 0 9 -10l-3 -27q-2 -10 -11 -10h-125q-4 0 -4 -4l-26 -210q0 -4 4 -4h197q10 0 8 -10l-3 -27q-2 -10 -11 -10 h-243q-10 0 -8 10l68 556q2 10 11 10h243q10 0 8 -10z" />
<glyph horiz-adv-x="362" d="M283 647q-5 -7 -12 -7h-37q-8 0 -11 7l-51 102q-7 12 7 12h29q6 0 11 -7l37 -77q2 -4 6 0l55 77q5 7 12 7h27q12 0 5 -12zM373 538q-2 -10 -11 -10h-197q-3 0 -5 -4l-25 -208q0 -4 3 -4h124q11 0 9 -10l-3 -27q-2 -10 -11 -10h-125q-4 0 -4 -4l-26 -210q0 -4 4 -4h197 q10 0 8 -10l-3 -27q-2 -10 -11 -10h-243q-10 0 -8 10l68 556q2 10 11 10h243q10 0 8 -10z" />
<glyph horiz-adv-x="362" d="M373 538q-2 -10 -11 -10h-197q-3 0 -5 -4l-25 -208q0 -4 3 -4h124q11 0 9 -10l-3 -27q-2 -10 -11 -10h-125q-4 0 -4 -4l-26 -210q0 -4 4 -4h197q10 0 8 -10l-3 -27q-2 -10 -11 -10h-96q-6 0 -3 -5q42 -52 23 -113q-12 -40 -42.5 -51.5t-62.5 -4.5q-8 2 -5 11l4 14 q2 8 10 8q1 -1 4 -1q44 -6 56 38q14 50 -29 102q-2 2 -5 2h-97q-10 0 -8 10l68 556q2 10 11 10h243q10 0 8 -10z" />
<glyph horiz-adv-x="362" d="M268 734q-1 2 -3 2t-3 -2l-55 -76q-7 -7 -13 -7h-30q-13 0 -4 12l77 102q5 7 12 7h39q6 0 11 -6l53 -103q2 -5 0 -8.5t-8 -3.5h-30q-8 0 -11 7zM373 538q-2 -10 -11 -10h-197q-3 0 -5 -4l-25 -208q0 -4 3 -4h124q11 0 9 -10l-3 -27q-2 -10 -11 -10h-125q-4 0 -4 -4 l-26 -210q0 -4 4 -4h197q10 0 8 -10l-3 -27q-2 -10 -11 -10h-243q-10 0 -8 10l68 556q2 10 11 10h243q10 0 8 -10z" />
<glyph horiz-adv-x="362" d="M200 682q-16 0 -25 11.5t-7 28.5t14 28.5t28 11.5q15 0 23.5 -11.5t6.5 -28.5t-13 -28.5t-27 -11.5zM318 682q-16 0 -24.5 11.5t-6.5 28.5q1 17 13 28.5t28 11.5t24 -11.5t6 -28.5t-13 -28.5t-27 -11.5zM373 538q-2 -10 -11 -10h-197q-3 0 -5 -4l-25 -208q0 -4 3 -4h124 q11 0 9 -10l-3 -27q-2 -10 -11 -10h-125q-4 0 -4 -4l-26 -210q0 -4 4 -4h197q10 0 8 -10l-3 -27q-2 -10 -11 -10h-243q-10 0 -8 10l68 556q2 10 11 10h243q10 0 8 -10z" />
<glyph horiz-adv-x="362" d="M256 665q-15 0 -24 11.5t-7 27.5q2 17 13.5 28t27.5 11q14 0 22 -11t6 -28t-12.5 -28t-25.5 -11zM373 538q-2 -10 -11 -10h-197q-3 0 -5 -4l-25 -208q0 -4 3 -4h124q11 0 9 -10l-3 -27q-2 -10 -11 -10h-125q-4 0 -4 -4l-26 -210q0 -4 4 -4h197q10 0 8 -10l-3 -27 q-2 -10 -11 -10h-243q-10 0 -8 10l68 556q2 10 11 10h243q10 0 8 -10z" />
<glyph horiz-adv-x="362" d="M274 671q5 -12 -8 -12h-23q-6 0 -11 7l-52 110q-5 12 7 12h30q6 0 11 -7zM373 538q-2 -10 -11 -10h-197q-3 0 -5 -4l-25 -208q0 -4 3 -4h124q11 0 9 -10l-3 -27q-2 -10 -11 -10h-125q-4 0 -4 -4l-26 -210q0 -4 4 -4h197q10 0 8 -10l-3 -27q-2 -10 -11 -10h-243 q-10 0 -8 10l68 556q2 10 11 10h243q10 0 8 -10z" />
<glyph horiz-adv-x="362" d="M349 720q11 0 9 -10l-3 -20q0 -10 -11 -10h-173q-9 0 -9 10l3 20q2 10 11 10h173zM373 538q-2 -10 -11 -10h-197q-3 0 -5 -4l-25 -208q0 -4 3 -4h124q11 0 9 -10l-3 -27q-2 -10 -11 -10h-125q-4 0 -4 -4l-26 -210q0 -4 4 -4h197q10 0 8 -10l-3 -27q-2 -10 -11 -10h-243 q-10 0 -8 10l68 556q2 10 11 10h243q10 0 8 -10z" />
<glyph horiz-adv-x="362" d="M373 538q-2 -10 -11 -10h-197q-3 0 -5 -4l-25 -208q0 -4 3 -4h124q11 0 9 -10l-3 -27q-2 -10 -11 -10h-125q-4 0 -4 -4l-26 -210q0 -4 4 -4h197q10 0 8 -10l-3 -27q-2 -10 -11 -10h-102q-3 0 -5 -2q-58 -54 -55 -103q0 -46 48 -38q11 3 11 -7v-14q0 -10 -8 -11 q-34 -7 -61.5 4.5t-29.5 51.5q-3 63 52 114q3 5 -1 5h-92q-10 0 -8 10l68 556q2 10 11 10h243q10 0 8 -10z" />
<glyph horiz-adv-x="340" d="M372 539q-2 -10 -11 -10h-196q-3 0 -5 -4l-25 -209q0 -4 3 -4h124q11 0 9 -10l-3 -27q-2 -10 -11 -10h-125q-4 0 -4 -4l-31 -251q0 -10 -11 -10h-32q-10 0 -8 10l68 556q2 10 11 10h242q10 0 8 -10z" />
<glyph horiz-adv-x="376" d="M171 -7q-64 0 -97.5 39t-25.5 107l37 299q8 68 51 106.5t107 38.5t97.5 -39t25.5 -107l-3 -24q-2 -10 -11 -10h-32q-10 0 -8 10l3 26q5 46 -16 71.5t-61 25.5q-41 0 -68.5 -25.5t-33.5 -71.5l-37 -301q-5 -46 16 -72t62 -26q40 0 67.5 26t33.5 72l12 102q2 4 -3 4h-71 q-10 0 -8 10l2 21q2 10 11 10h117q10 0 8 -10l-17 -136q-8 -68 -51 -107t-107 -39z" />
<glyph horiz-adv-x="376" d="M248 623q-39 0 -63.5 26t-22.5 66q0 10 10 10h15q9 0 9 -10q0 -26 16 -43.5t40 -17.5q25 0 45 17.5t26 43.5q1 10 11 10h15q10 0 8 -10q-8 -40 -38.5 -66t-70.5 -26zM171 -7q-64 0 -97.5 39t-25.5 107l37 299q8 68 51 106.5t107 38.5t97.5 -39t25.5 -107l-3 -24 q-2 -10 -11 -10h-32q-10 0 -8 10l3 26q5 46 -16 71.5t-61 25.5q-41 0 -68.5 -25.5t-33.5 -71.5l-37 -301q-5 -46 16 -72t62 -26q40 0 67.5 26t33.5 72l12 102q2 4 -3 4h-71q-10 0 -8 10l2 21q2 10 11 10h117q10 0 8 -10l-17 -136q-8 -68 -51 -107t-107 -39z" />
<glyph horiz-adv-x="376" d="M171 -7q-64 0 -97.5 39t-25.5 107l37 299q8 68 51 106.5t107 38.5t97.5 -39t25.5 -107l-3 -24q-2 -10 -11 -10h-32q-10 0 -8 10l3 26q5 46 -16 71.5t-61 25.5q-41 0 -68.5 -25.5t-33.5 -71.5l-37 -301q-5 -46 16 -72t62 -26q40 0 67.5 26t33.5 72l12 102q2 4 -3 4h-71 q-10 0 -8 10l2 21q2 10 11 10h117q10 0 8 -10l-17 -136q-8 -68 -51 -107t-107 -39zM117 -194q-14 0 -5 12l73 110q7 7 13 7h30q5 0 7 -3.5t-2 -8.5l-80 -110q-7 -7 -13 -7h-23z" />
<glyph horiz-adv-x="376" d="M253 663q-15 0 -24 11.5t-7 27.5q2 17 13.5 28t27.5 11q14 0 22 -11t6 -28t-13 -28t-25 -11zM171 -7q-64 0 -97.5 39t-25.5 107l37 299q8 68 51 106.5t107 38.5t97.5 -39t25.5 -107l-3 -24q-2 -10 -11 -10h-32q-10 0 -8 10l3 26q5 46 -16 71.5t-61 25.5 q-41 0 -68.5 -25.5t-33.5 -71.5l-37 -301q-5 -46 16 -72t62 -26q40 0 67.5 26t33.5 72l12 102q2 4 -3 4h-71q-10 0 -8 10l2 21q2 10 11 10h117q10 0 8 -10l-17 -136q-8 -68 -51 -107t-107 -39z" />
<glyph horiz-adv-x="398" d="M332 566q2 10 11 10h32q11 0 9 -10l-68 -556q-2 -10 -11 -10h-32q-11 0 -9 10l31 251q0 4 -3 4h-160q-4 0 -4 -4l-31 -251q0 -10 -11 -10h-32q-10 0 -8 10l68 556q2 10 11 10h32q9 0 9 -10l-31 -250q0 -4 3 -4h159q3 0 5 4z" />
<glyph horiz-adv-x="398" d="M424 460q9 0 9 -10l-3 -21q-2 -10 -11 -10h-49q-5 0 -5 -4l-49 -405q-2 -10 -11 -10h-32q-11 0 -9 10l31 251q0 4 -3 4h-160q-4 0 -4 -4l-31 -251q0 -10 -11 -10h-32q-10 0 -8 10l50 405q0 4 -4 4h-49q-9 0 -9 10l3 21q2 10 11 10h49q3 0 5 4l12 102q2 10 11 10h32 q9 0 9 -10l-13 -102q0 -4 3 -4h159q5 0 5 4l12 102q2 10 11 10h32q11 0 9 -10l-13 -102q0 -4 4 -4h49zM297 312q3 0 5 4l12 99q0 4 -4 4h-159q-4 0 -4 -4l-12 -99q0 -4 3 -4h159z" />
<glyph horiz-adv-x="178" d="M54 0q-10 0 -8 10l68 556q2 10 11 10h32q9 0 9 -10l-69 -556q0 -10 -11 -10h-32z" />
<glyph horiz-adv-x="178" d="M121 659q-13 0 -6 12l74 110q5 7 13 7h30q5 0 7 -3.5t-2 -8.5l-81 -110q-5 -7 -12 -7h-23zM54 0q-10 0 -8 10l68 556q2 10 11 10h32q9 0 9 -10l-69 -556q0 -10 -11 -10h-32z" />
<glyph horiz-adv-x="178" d="M60 651q-14 0 -5 12l77 102q5 7 12 7h39q8 0 11 -6l53 -103q2 -5 0 -8.5t-8 -3.5h-30q-6 0 -11 7l-35 76q-1 2 -3 2t-3 -2l-55 -76q-5 -7 -12 -7h-30zM54 0q-10 0 -8 10l68 556q2 10 11 10h32q9 0 9 -10l-69 -556q0 -10 -11 -10h-32z" />
<glyph horiz-adv-x="178" d="M95 682q-16 0 -25 11.5t-7 28.5t14 28.5t28 11.5t24 -11.5t6 -28.5t-13 -28.5t-27 -11.5zM214 682q-16 0 -25 11.5t-7 28.5t14 28.5t28 11.5q15 0 23.5 -11.5t6.5 -28.5t-13.5 -28.5t-26.5 -11.5zM54 0q-10 0 -8 10l68 556q2 10 11 10h32q9 0 9 -10l-69 -556 q0 -10 -11 -10h-32z" />
<glyph horiz-adv-x="178" d="M151 665q-15 0 -24 11t-7 28q2 16 14 27.5t27 11.5q14 0 22 -11t6 -28t-12.5 -28t-25.5 -11zM54 0q-10 0 -8 10l68 556q2 10 11 10h32q9 0 9 -10l-69 -556q0 -10 -11 -10h-32z" />
<glyph horiz-adv-x="178" d="M170 671q5 -12 -9 -12h-23q-6 0 -11 7l-52 110q-5 12 7 12h30q8 0 11 -7zM54 0q-10 0 -8 10l68 556q2 10 11 10h32q9 0 9 -10l-69 -556q0 -10 -11 -10h-32z" />
<glyph horiz-adv-x="535" d="M54 0q-10 0 -8 10l68 556q2 10 11 10h32q9 0 9 -10l-69 -556q0 -10 -11 -10h-32zM313 -7q-61 0 -93.5 39t-23.5 107l7 60q2 10 11 10h32q10 0 8 -10l-7 -61q-6 -45 14 -71.5t58 -26.5q40 0 66 26t32 72l52 428q2 10 11 10h33q9 0 9 -10l-53 -427q-8 -68 -50.5 -107 t-105.5 -39z" />
<glyph horiz-adv-x="178" d="M66 680q-10 0 -8 10l2 20q2 10 11 10h174q10 0 8 -10l-2 -20q-2 -10 -11 -10h-174zM54 0q-10 0 -8 10l68 556q2 10 11 10h32q9 0 9 -10l-69 -556q0 -10 -11 -10h-32z" />
<glyph horiz-adv-x="190" d="M81 -149q10 3 10 -7l1 -14q0 -10 -9 -11q-33 -7 -60.5 4.5t-30.5 51.5q-2 68 59 120l5 5h-2q-10 0 -8 10l68 556q2 10 11 10h32q9 0 9 -10l-69 -559q-1 -6 -7 -12q-59 -54 -58 -106q1 -45 49 -38z" />
<glyph horiz-adv-x="357" d="M135 -7q-62 0 -94 39t-24 107l7 60q2 10 11 10h32q11 0 9 -10l-8 -61q-5 -45 14.5 -71.5t58.5 -26.5t65.5 26.5t31.5 71.5l53 428q0 10 11 10h33q10 0 8 -10l-52 -427q-9 -68 -51 -107t-105 -39z" />
<glyph horiz-adv-x="377" d="M54 0q-10 0 -8 10l68 556q2 10 11 10h32q9 0 9 -10l-34 -271q0 -3 2 -3.5t3 2.5l203 275q7 7 13 7h36q14 0 5 -12l-155 -214q-3 -3 -2 -6l103 -332q3 -12 -9 -12h-37q-9 0 -10 8l-89 287q0 3 -5 0l-66 -87q-3 -2 -3 -5l-24 -193q0 -10 -11 -10h-32z" />
<glyph horiz-adv-x="377" d="M54 0q-10 0 -8 10l68 556q2 10 11 10h32q9 0 9 -10l-34 -271q0 -3 2 -3.5t3 2.5l203 275q7 7 13 7h36q14 0 5 -12l-155 -214q-3 -3 -2 -6l103 -332q3 -12 -9 -12h-37q-9 0 -10 8l-89 287q0 3 -5 0l-66 -87q-3 -2 -3 -5l-24 -193q0 -10 -11 -10h-32zM121 -187q-13 0 -6 12 l74 110q5 7 12 7h30q15 0 6 -12l-81 -110q-5 -7 -12 -7h-23z" />
<glyph horiz-adv-x="331" d="M54 0q-10 0 -8 10l68 556q2 10 11 10h32q9 0 9 -10l-64 -515q0 -4 4 -4h194q10 0 8 -10l-3 -27q-2 -10 -11 -10h-240z" />
<glyph horiz-adv-x="331" d="M119 650q-13 0 -6 12l74 110q5 7 12 7h31q5 0 7 -3.5t-2 -8.5l-81 -110q-5 -7 -12 -7h-23zM54 0q-10 0 -8 10l68 556q2 10 11 10h32q9 0 9 -10l-64 -515q0 -4 4 -4h194q10 0 8 -10l-3 -27q-2 -10 -11 -10h-240z" />
<glyph horiz-adv-x="331" d="M127 631q-6 0 -11 7l-51 102q-5 12 7 12h29q6 0 11 -7l37 -77q1 -2 3 -2t3 2l55 77q5 7 12 7h27q14 0 5 -12l-78 -102q-5 -7 -12 -7h-37zM54 0q-10 0 -8 10l68 556q2 10 11 10h32q9 0 9 -10l-64 -515q0 -4 4 -4h194q10 0 8 -10l-3 -27q-2 -10 -11 -10h-240z" />
<glyph horiz-adv-x="331" d="M54 0q-10 0 -8 10l68 556q2 10 11 10h32q9 0 9 -10l-64 -515q0 -4 4 -4h194q10 0 8 -10l-3 -27q-2 -10 -11 -10h-240zM95 -187q-5 0 -7 3.5t2 8.5l74 110q5 7 12 7h30q13 0 6 -12l-81 -110q-5 -7 -12 -7h-24z" />
<glyph horiz-adv-x="524" d="M127 225q-4 -2 -4 -5l-21 -169q0 -4 4 -4h194q10 0 8 -10l-3 -27q-2 -10 -11 -10h-240q-10 0 -8 10l21 170q0 2 -1.5 3t-3.5 0l-39 -26q-8 -6 -13 2l-12 17q-4 7 4 14l69 46q3 3 3 5l40 325q2 10 11 10h32q9 0 9 -10l-35 -285q-1 -2 0.5 -3.5t3.5 0.5l205 137q8 6 13 -2 l12 -18q4 -8 -4 -14z" />
<glyph horiz-adv-x="434" d="M54 0q-10 0 -8 10l68 556q2 10 11 10h33q9 0 10 -8l68 -224q1 -2 3 -2t3 2l125 224q3 8 11 8h33q9 0 9 -10l-69 -556q0 -10 -11 -10h-32q-10 0 -8 10l58 472q-1 4 -5 1l-113 -208q-3 -8 -9 -8q-7 0 -8 8l-63 209q0 3 -3 2l-2 -3l-58 -473q0 -10 -11 -10h-32z" />
<glyph horiz-adv-x="415" d="M54 0q-10 0 -8 10l68 556q2 10 11 10h33q9 0 10 -8l123 -451q0 -3 3 -2q1 1 2 3l54 448q2 10 11 10h32q10 0 8 -10l-68 -556q-2 -10 -11 -10h-34q-7 0 -10 8l-122 451q0 4 -3 2l-2 -3l-55 -448q0 -10 -11 -10h-31z" />
<glyph horiz-adv-x="415" d="M238 659q-14 0 -5 12l73 110q7 7 13 7h30q14 0 5 -12l-80 -110q-7 -7 -13 -7h-23zM54 0q-10 0 -8 10l68 556q2 10 11 10h33q9 0 10 -8l123 -451q0 -3 3 -2q1 1 2 3l54 448q2 10 11 10h32q10 0 8 -10l-68 -556q-2 -10 -11 -10h-34q-7 0 -10 8l-122 451q0 4 -3 2l-2 -3 l-55 -448q0 -10 -11 -10h-31z" />
<glyph horiz-adv-x="415" d="M246 640q-6 0 -10 7l-52 102q-5 12 7 12h30q7 0 10 -7l37 -77q1 -1 3 -1t3 1l55 77q7 7 13 7h27q13 0 4 -12l-77 -102q-7 -7 -13 -7h-37zM54 0q-10 0 -8 10l68 556q2 10 11 10h33q9 0 10 -8l123 -451q0 -3 3 -2q1 1 2 3l54 448q2 10 11 10h32q10 0 8 -10l-68 -556 q-2 -10 -11 -10h-34q-7 0 -10 8l-122 451q0 4 -3 2l-2 -3l-55 -448q0 -10 -11 -10h-31z" />
<glyph horiz-adv-x="415" d="M54 0q-10 0 -8 10l68 556q2 10 11 10h33q9 0 10 -8l123 -451q0 -3 3 -2q1 1 2 3l54 448q2 10 11 10h32q10 0 8 -10l-68 -556q-2 -10 -11 -10h-34q-7 0 -10 8l-122 451q0 4 -3 2l-2 -3l-55 -448q0 -10 -11 -10h-31zM135 -187q-14 0 -5 12l73 110q7 7 13 7h30q14 0 5 -12 l-80 -110q-5 -7 -13 -7h-23z" />
<glyph horiz-adv-x="416" d="M381 400l1 -2l-48 -391q-5 -38 -9 -56t-16 -39t-35 -29.5t-60 -9.5q-10 0 -8 10l3 27q2 10 11 10q15 1 25 6t15.5 9.5t9.5 19.5t4.5 20.5t3.5 28.5v5l-122 450q0 4 -3 2l-2 -3l-55 -448q0 -10 -11 -10h-31q-10 0 -8 10l68 556q2 10 11 10h33q9 0 10 -8l120 -441 q1 -3 4 -2q1 1 1 3l32 260q2 10 3 10q1 1 2 3l20 165q2 10 11 10h32q10 0 8 -10z" />
<glyph horiz-adv-x="415" d="M329 679q-21 0 -49 22q-26 21 -41 21q-27 0 -48 -27q-8 -9 -14 -3l-10 9q-8 5 -2 13q32 48 76 48q22 0 51 -23q3 -2 10 -7.5t11 -7.5t10 -4.5t12 -2.5q26 0 47 30q5 10 14 4l10 -8q8 -5 -2 -20q-31 -44 -75 -44zM54 0q-10 0 -8 10l68 556q2 10 11 10h33q9 0 10 -8 l123 -451q0 -3 3 -2q1 1 2 3l54 448q2 10 11 10h32q10 0 8 -10l-68 -556q-2 -10 -11 -10h-34q-7 0 -10 8l-122 451q0 4 -3 2l-2 -3l-55 -448q0 -10 -11 -10h-31z" />
<glyph horiz-adv-x="385" d="M173 -7q-65 0 -99 41t-25 111l35 285q9 71 53 112t108 41q65 0 98.5 -41t24.5 -112l-35 -285q-8 -70 -52 -111t-108 -41zM179 40q41 0 68.5 27.5t33.5 75.5l36 289q6 49 -15 76.5t-63 27.5q-41 0 -69 -27.5t-35 -76.5l-35 -289q-6 -48 15.5 -75.5t63.5 -27.5z" />
<glyph horiz-adv-x="385" d="M223 651q-5 0 -7 3.5t2 8.5l74 110q5 7 12 7h30q13 0 6 -12l-81 -110q-5 -7 -12 -7h-24zM173 -7q-65 0 -99 41t-25 111l35 285q9 71 53 112t108 41q65 0 98.5 -41t24.5 -112l-35 -285q-8 -70 -52 -111t-108 -41zM179 40q41 0 68.5 27.5t33.5 75.5l36 289q6 49 -15 76.5 t-63 27.5q-41 0 -69 -27.5t-35 -76.5l-35 -289q-6 -48 15.5 -75.5t63.5 -27.5z" />
<glyph horiz-adv-x="385" d="M162 643q-13 0 -4 12l77 102q5 7 12 7h39q6 0 11 -6l53 -103q2 -5 0 -8.5t-8 -3.5h-30q-8 0 -11 7l-35 76q-1 2 -3 2t-3 -2l-55 -76q-5 -7 -13 -7h-30zM173 -7q-65 0 -99 41t-25 111l35 285q9 71 53 112t108 41q65 0 98.5 -41t24.5 -112l-35 -285q-8 -70 -52 -111 t-108 -41zM179 40q41 0 68.5 27.5t33.5 75.5l36 289q6 49 -15 76.5t-63 27.5q-41 0 -69 -27.5t-35 -76.5l-35 -289q-6 -48 15.5 -75.5t63.5 -27.5z" />
<glyph horiz-adv-x="385" d="M198 674q-16 0 -25 11.5t-7 28.5t14 28.5t28 11.5q15 0 23.5 -11.5t6.5 -28.5t-13 -28.5t-27 -11.5zM317 674q-16 0 -25 11.5t-7 28.5q1 17 13 28.5t28 11.5t24 -11.5t6 -28.5q-1 -17 -12.5 -28.5t-26.5 -11.5zM173 -7q-65 0 -99 41t-25 111l35 285q9 71 53 112t108 41 q65 0 98.5 -41t24.5 -112l-35 -285q-8 -70 -52 -111t-108 -41zM179 40q41 0 68.5 27.5t33.5 75.5l36 289q6 49 -15 76.5t-63 27.5q-41 0 -69 -27.5t-35 -76.5l-35 -289q-6 -48 15.5 -75.5t63.5 -27.5z" />
<glyph horiz-adv-x="385" d="M272 663q7 -12 -8 -12h-23q-6 0 -11 7l-52 110q-5 12 7 12h30q6 0 11 -7zM173 -7q-65 0 -99 41t-25 111l35 285q9 71 53 112t108 41q65 0 98.5 -41t24.5 -112l-35 -285q-8 -70 -52 -111t-108 -41zM179 40q41 0 68.5 27.5t33.5 75.5l36 289q6 49 -15 76.5t-63 27.5 q-41 0 -69 -27.5t-35 -76.5l-35 -289q-6 -48 15.5 -75.5t63.5 -27.5z" />
<glyph horiz-adv-x="385" d="M186 649q-5 0 -7 3.5t1 8.5l72 110q3 7 12 7h26q15 0 6 -12l-73 -110q-3 -7 -12 -7h-25zM300 649q-14 0 -5 12l71 110q4 7 13 7h24q14 0 5 -12l-72 -110q-5 -7 -13 -7h-23zM173 -7q-65 0 -99 41t-25 111l35 285q9 71 53 112t108 41q65 0 98.5 -41t24.5 -112l-35 -285 q-8 -70 -52 -111t-108 -41zM179 40q41 0 68.5 27.5t33.5 75.5l36 289q6 49 -15 76.5t-63 27.5q-41 0 -69 -27.5t-35 -76.5l-35 -289q-6 -48 15.5 -75.5t63.5 -27.5z" />
<glyph horiz-adv-x="385" d="M169 672q-9 0 -9 10l3 20q2 10 11 10h173q11 0 9 -10l-3 -20q0 -10 -11 -10h-173zM173 -7q-65 0 -99 41t-25 111l35 285q9 71 53 112t108 41q65 0 98.5 -41t24.5 -112l-35 -285q-8 -70 -52 -111t-108 -41zM179 40q41 0 68.5 27.5t33.5 75.5l36 289q6 49 -15 76.5 t-63 27.5q-41 0 -69 -27.5t-35 -76.5l-35 -289q-6 -48 15.5 -75.5t63.5 -27.5z" />
<glyph horiz-adv-x="438" d="M454 678q13 0 6 -12l-91 -176q-3 -3 -1 -6q3 -24 0 -54l-35 -285q-8 -70 -52 -111t-108 -41q-32 0 -53 10q-5 0 -7 -3l-48 -93q-3 -8 -11 -8h-21q-13 0 -6 12l57 109q1 3 -1 5q-44 41 -34 120l35 285q9 71 53 112t108 41q70 0 102 -47q3 -4 5 1l70 133q3 8 11 8h21z M100 143q-4 -40 9 -65q1 -2 2.5 -1.5t2.5 2.5l201 387q3 3 1 6q-4 31 -24.5 47.5t-52.5 16.5q-41 0 -69 -27.5t-35 -76.5zM281 143l28 223q0 2 -1 3q-3 1 -4 -2l-163 -315q-2 -5 1 -5q15 -7 37 -7q41 0 68.5 27.5t33.5 75.5z" />
<glyph horiz-adv-x="385" d="M314 671q-20 0 -48 22q-3 2 -7.5 5.5t-6.5 5t-6 4t-7 3.5t-7 2t-8 1q-26 0 -47 -27q-8 -9 -14 -3l-11 9q-8 6 -2 13q32 48 76 48q23 0 52 -23q2 -2 9.5 -7.5t11 -7.5t10 -4.5t12.5 -2.5q25 0 46 30q7 10 14 4l11 -8q8 -6 -2 -20q-32 -44 -76 -44zM173 -7q-65 0 -99 41 t-25 111l35 285q9 71 53 112t108 41q65 0 98.5 -41t24.5 -112l-35 -285q-8 -70 -52 -111t-108 -41zM179 40q41 0 68.5 27.5t33.5 75.5l36 289q6 49 -15 76.5t-63 27.5q-41 0 -69 -27.5t-35 -76.5l-35 -289q-6 -48 15.5 -75.5t63.5 -27.5z" />
<glyph horiz-adv-x="582" d="M593 539q-2 -10 -11 -10h-198q-4 0 -4 -4l-26 -209q0 -4 3 -4h127q10 0 8 -10l-3 -27q-2 -10 -11 -10h-126q-3 0 -5 -4l-25 -210q-2 -4 3 -4h198q10 0 8 -10l-3 -27q-2 -10 -11 -10h-243q-11 0 -9 10l3 23q0 6 -5 2q-39 -42 -100 -42q-58 0 -90.5 41.5t-23.5 110.5 l35 285q9 71 51.5 112t100.5 41q61 0 89 -42q4 -4 6 2l2 23q2 10 11 10h244q10 0 8 -10zM179 40q41 0 68.5 27.5t33.5 75.5l36 289q6 49 -15 76.5t-63 27.5q-41 0 -69 -27.5t-35 -76.5l-35 -289q-6 -48 15.5 -75.5t63.5 -27.5z" />
<glyph horiz-adv-x="368" d="M253 578q61 0 93 -44t24 -115q-9 -70 -51.5 -113t-101.5 -43h-91q-4 0 -4 -4l-31 -249q0 -10 -10 -10h-33q-10 0 -8 10l69 558q0 10 10 10h134zM214 306q40 0 69 30.5t35 81.5q7 51 -14.5 82t-61.5 31h-83q-4 0 -4 -4l-27 -217q0 -4 4 -4h82z" />
<glyph horiz-adv-x="368" d="M237 446q61 0 93 -43.5t24 -114.5q-9 -70 -51.5 -113.5t-102.5 -43.5h-90q-4 0 -4 -4l-15 -117q0 -10 -10 -10h-33q-10 0 -8 10l68 556q2 10 11 10h32q9 0 9 -10l-15 -116q0 -4 4 -4h88zM198 176q41 0 69.5 30.5t34.5 81.5t-15 81t-61 30h-83q-4 0 -4 -4l-27 -215 q0 -4 4 -4h82z" />
<glyph horiz-adv-x="375" d="M239 583q63 0 95.5 -41.5t23.5 -113.5l-34 -280q-8 -63 -42 -103t-85 -49q-4 -1 -4 -5l-10 -77q0 -10 -10 -10h-33q-11 0 -9 10l10 77q0 3 -3 5q-48 10 -72 50t-17 102l35 280q9 72 51.5 113.5t103.5 41.5zM272 143l35 290q6 49 -14 76t-59 27t-65.5 -27t-32.5 -76 l-36 -290q-6 -48 14 -75.5t59 -27.5t66 27.5t33 75.5z" />
<glyph horiz-adv-x="372" d="M284 0q-9 0 -10 8l-58 256q-1 3 -4 3h-79q-3 0 -5 -4l-31 -253q0 -10 -11 -10h-32q-10 0 -8 10l68 558q2 10 11 10h133q61 0 93 -44t24 -114q-7 -54 -36 -93t-73 -53q-4 -1 -3 -5l63 -257q3 -12 -9 -12h-33zM165 531q-4 0 -4 -4l-26 -212q-2 -4 3 -4h82q40 0 68.5 29.5 t34.5 79.5t-15 80.5t-61 30.5h-82z" />
<glyph horiz-adv-x="372" d="M329 779q13 0 6 -12l-81 -110q-5 -7 -12 -7h-23q-15 0 -6 12l74 110q5 7 12 7h30zM284 0q-9 0 -10 8l-58 256q-1 3 -4 3h-79q-3 0 -5 -4l-31 -253q0 -10 -11 -10h-32q-10 0 -8 10l68 558q2 10 11 10h133q61 0 93 -44t24 -114q-7 -54 -36 -93t-73 -53q-4 -1 -3 -5l63 -257 q3 -12 -9 -12h-33zM165 531q-4 0 -4 -4l-26 -212q-2 -4 3 -4h82q40 0 68.5 29.5t34.5 79.5t-15 80.5t-61 30.5h-82z" />
<glyph horiz-adv-x="372" d="M276 638q-5 -7 -12 -7h-37q-7 0 -11 7l-51 102q-5 12 7 12h29q6 0 11 -7l37 -77q2 -4 6 0l55 77q5 7 12 7h27q12 0 5 -12zM284 0q-9 0 -10 8l-58 256q-1 3 -4 3h-79q-3 0 -5 -4l-31 -253q0 -10 -11 -10h-32q-10 0 -8 10l68 558q2 10 11 10h133q61 0 93 -44t24 -114 q-7 -54 -36 -93t-73 -53q-4 -1 -3 -5l63 -257q3 -12 -9 -12h-33zM165 531q-4 0 -4 -4l-26 -212q-2 -4 3 -4h82q40 0 68.5 29.5t34.5 79.5t-15 80.5t-61 30.5h-82z" />
<glyph horiz-adv-x="372" d="M266 274q-4 -1 -3 -5l63 -257q3 -12 -9 -12h-33q-9 0 -10 8l-58 256q-1 3 -4 3h-79q-3 0 -5 -4l-31 -253q0 -10 -11 -10h-32q-10 0 -8 10l68 558q2 10 11 10h133q61 0 93 -44t24 -114q-7 -54 -36 -93t-73 -53zM165 531q-4 0 -4 -4l-26 -212q-2 -4 3 -4h82q40 0 68.5 29.5 t34.5 79.5t-15 80.5t-61 30.5h-82zM126 -187q-5 0 -7 3.5t2 8.5l74 110q5 7 12 7h30q13 0 6 -12l-81 -110q-5 -7 -12 -7h-24z" />
<glyph horiz-adv-x="361" d="M162 -7q-60 0 -93 40.5t-26 104.5l2 16q2 10 11 10h30q9 0 9 -10l-2 -11q-6 -47 15 -75.5t60 -28.5q38 0 66.5 27.5t33.5 71.5q2 18 -2 34t-7.5 25t-22 26.5t-23 21t-32.5 26.5q-30 23 -44.5 36.5t-32 35.5t-23 46.5t-1.5 55.5q8 64 49.5 101t101.5 37q62 0 95 -41 t25 -106l-2 -18q-2 -10 -11 -10h-32q-10 0 -8 10l2 16q5 46 -15.5 74.5t-59.5 28.5q-37 0 -63 -24.5t-32 -69.5q-4 -37 13.5 -61t70.5 -67q67 -53 90 -86.5t16 -86.5q-8 -68 -52 -108.5t-106 -40.5z" />
<glyph horiz-adv-x="361" d="M210 657q-13 0 -6 12l74 110q5 7 13 7h30q5 0 7 -3.5t-2 -8.5l-81 -110q-5 -7 -12 -7h-23zM162 -7q-60 0 -93 40.5t-26 104.5l2 16q2 10 11 10h30q9 0 9 -10l-2 -11q-6 -47 15 -75.5t60 -28.5q38 0 66.5 27.5t33.5 71.5q2 18 -2 34t-7.5 25t-22 26.5t-23 21t-32.5 26.5 q-30 23 -44.5 36.5t-32 35.5t-23 46.5t-1.5 55.5q8 64 49.5 101t101.5 37q62 0 95 -41t25 -106l-2 -18q-2 -10 -11 -10h-32q-10 0 -8 10l2 16q5 46 -15.5 74.5t-59.5 28.5q-37 0 -63 -24.5t-32 -69.5q-4 -37 13.5 -61t70.5 -67q67 -53 90 -86.5t16 -86.5q-8 -68 -52 -108.5 t-106 -40.5z" />
<glyph horiz-adv-x="361" d="M218 638q-6 0 -11 7l-51 102q-5 12 7 12h29q6 0 11 -7l37 -77q1 -1 3 -1t3 1l55 77q5 7 12 7h28q13 0 4 -12l-78 -102q-5 -7 -12 -7h-37zM162 -7q-60 0 -93 40.5t-26 104.5l2 16q2 10 11 10h30q9 0 9 -10l-2 -11q-6 -47 15 -75.5t60 -28.5q38 0 66.5 27.5t33.5 71.5 q2 18 -2 34t-7.5 25t-22 26.5t-23 21t-32.5 26.5q-30 23 -44.5 36.5t-32 35.5t-23 46.5t-1.5 55.5q8 64 49.5 101t101.5 37q62 0 95 -41t25 -106l-2 -18q-2 -10 -11 -10h-32q-10 0 -8 10l2 16q5 46 -15.5 74.5t-59.5 28.5q-37 0 -63 -24.5t-32 -69.5q-4 -37 13.5 -61 t70.5 -67q67 -53 90 -86.5t16 -86.5q-8 -68 -52 -108.5t-106 -40.5z" />
<glyph horiz-adv-x="361" d="M320 142q-7 -60 -43 -99.5t-88 -47.5q-6 -2 -3 -5q44 -51 25 -115q-12 -40 -42.5 -51.5t-62.5 -4.5q-7 1 -6 11l4 14q3 8 11 8q1 -1 4 -1q44 -6 56 38q13 49 -30 103q-2 2 -5 2q-51 8 -77.5 47t-19.5 97l2 16q2 10 11 10h30q9 0 9 -10l-2 -11q-6 -47 15 -75.5t60 -28.5 q38 0 66.5 27.5t33.5 71.5q2 18 -2 34t-7.5 25t-22 26.5t-23 21t-32.5 26.5q-30 23 -44.5 36.5t-32 35.5t-23 46.5t-1.5 55.5q8 64 49.5 101t101.5 37q62 0 95 -41t25 -106l-2 -18q-2 -10 -11 -10h-32q-10 0 -8 10l2 16q5 46 -15.5 74.5t-59.5 28.5q-37 0 -63 -24.5 t-32 -69.5q-4 -37 13.5 -61t70.5 -67q67 -53 90 -86.5t16 -86.5z" />
<glyph horiz-adv-x="361" d="M162 -7q-60 0 -93 40.5t-26 104.5l2 16q2 10 11 10h30q9 0 9 -10l-2 -11q-6 -47 15 -75.5t60 -28.5q38 0 66.5 27.5t33.5 71.5q2 18 -2 34t-7.5 25t-22 26.5t-23 21t-32.5 26.5q-30 23 -44.5 36.5t-32 35.5t-23 46.5t-1.5 55.5q8 64 49.5 101t101.5 37q62 0 95 -41 t25 -106l-2 -18q-2 -10 -11 -10h-32q-10 0 -8 10l2 16q5 46 -15.5 74.5t-59.5 28.5q-37 0 -63 -24.5t-32 -69.5q-4 -37 13.5 -61t70.5 -67q67 -53 90 -86.5t16 -86.5q-8 -68 -52 -108.5t-106 -40.5zM110 -194q-14 0 -5 12l73 110q7 7 13 7h30q14 0 5 -12l-80 -110 q-7 -7 -13 -7h-23z" />
<glyph horiz-adv-x="341" d="M359 576q10 0 8 -10l-3 -27q-2 -10 -11 -10h-111q-4 0 -4 -4l-63 -515q-2 -10 -11 -10h-32q-9 0 -9 10l64 515q0 4 -4 4h-103q-11 0 -9 10l3 27q2 10 11 10h274z" />
<glyph horiz-adv-x="341" d="M364 539q-2 -10 -11 -10h-111q-4 0 -4 -4l-19 -153q0 -4 4 -4h91q10 0 8 -10l-2 -17q0 -10 -11 -10h-91q-4 0 -4 -4l-39 -317q-2 -10 -11 -10h-32q-9 0 -9 10l39 317q2 4 -3 4h-87q-11 0 -9 10l2 17q2 10 11 10h88q4 0 4 4l19 153q0 4 -4 4h-103q-11 0 -9 10l3 27 q2 10 11 10h274q10 0 8 -10z" />
<glyph horiz-adv-x="341" d="M257 638q-7 -7 -13 -7h-37q-7 0 -10 7l-52 102q-5 12 7 12h30q6 0 10 -7l37 -77q1 -2 3 -2t3 2l55 77q7 7 13 7h27q13 0 4 -12zM359 576q10 0 8 -10l-3 -27q-2 -10 -11 -10h-111q-4 0 -4 -4l-63 -515q-2 -10 -11 -10h-32q-9 0 -9 10l64 515q0 4 -4 4h-103q-11 0 -9 10 l3 27q2 10 11 10h274z" />
<glyph horiz-adv-x="341" d="M242 529q-4 0 -4 -4l-63 -515q-2 -10 -3 -10q-2 0 1 -5q44 -52 25 -115q-12 -40 -42.5 -51.5t-62.5 -4.5q-7 1 -6 11l4 14q3 8 11 8q1 -1 4 -1q44 -6 56 38q13 50 -31 104q-1 1 -4 3q-4 1 -4 9l64 515q0 4 -4 4h-103q-11 0 -9 10l3 27q2 10 11 10h274q10 0 8 -10l-3 -27 q-2 -10 -11 -10h-111z" />
<glyph horiz-adv-x="341" d="M74 566q2 10 11 10h274q10 0 8 -10l-3 -27q-2 -10 -11 -10h-111q-4 0 -4 -4l-63 -515q-2 -10 -11 -10h-32q-9 0 -9 10l64 515q0 4 -4 4h-103q-11 0 -9 10zM85 -189q-5 0 -7 3.5t2 8.5l74 110q5 7 12 7h30q13 0 6 -12l-81 -110q-5 -7 -12 -7h-24z" />
<glyph horiz-adv-x="402" d="M180 -7q-64 0 -97.5 45t-24.5 122l50 406q2 10 11 10h32q9 0 9 -10l-51 -411q-6 -53 15 -84t61 -31q42 0 70.5 31t35.5 84l50 411q2 10 11 10h32q9 0 9 -10l-50 -406q-10 -77 -54 -122t-109 -45z" />
<glyph horiz-adv-x="402" d="M231 659q-5 0 -7 3.5t2 8.5l74 110q5 7 12 7h30q14 0 5 -12l-80 -110q-5 -7 -12 -7h-24zM180 -7q-64 0 -97.5 45t-24.5 122l50 406q2 10 11 10h32q9 0 9 -10l-51 -411q-6 -53 15 -84t61 -31q42 0 70.5 31t35.5 84l50 411q2 10 11 10h32q9 0 9 -10l-50 -406 q-10 -77 -54 -122t-109 -45z" />
<glyph horiz-adv-x="402" d="M170 651q-13 0 -4 12l76 102q7 7 13 7h39q6 0 11 -6l53 -103q2 -4 -0.5 -8t-7.5 -4h-30q-8 0 -11 7l-36 76q0 2 -2 2t-3 -2l-55 -76q-7 -7 -13 -7h-30zM180 -7q-64 0 -97.5 45t-24.5 122l50 406q2 10 11 10h32q9 0 9 -10l-51 -411q-6 -53 15 -84t61 -31q42 0 70.5 31 t35.5 84l50 411q2 10 11 10h32q9 0 9 -10l-50 -406q-10 -77 -54 -122t-109 -45z" />
<glyph horiz-adv-x="402" d="M206 682q-16 0 -25 11.5t-7 28.5t14 28.5t28 11.5q15 0 23.5 -11.5t6.5 -28.5t-13.5 -28.5t-26.5 -11.5zM324 682q-16 0 -25 11.5t-7 28.5t14 28.5t28 11.5q15 0 23.5 -11.5t6.5 -28.5t-13 -28.5t-27 -11.5zM180 -7q-64 0 -97.5 45t-24.5 122l50 406q2 10 11 10h32 q9 0 9 -10l-51 -411q-6 -53 15 -84t61 -31q42 0 70.5 31t35.5 84l50 411q2 10 11 10h32q9 0 9 -10l-50 -406q-10 -77 -54 -122t-109 -45z" />
<glyph horiz-adv-x="402" d="M280 671q5 -12 -8 -12h-23q-7 0 -11 7l-53 110q-5 12 8 12h30q6 0 11 -7zM180 -7q-64 0 -97.5 45t-24.5 122l50 406q2 10 11 10h32q9 0 9 -10l-51 -411q-6 -53 15 -84t61 -31q42 0 70.5 31t35.5 84l50 411q2 10 11 10h32q9 0 9 -10l-50 -406q-10 -77 -54 -122t-109 -45z " />
<glyph horiz-adv-x="402" d="M194 657q-6 0 -7.5 3.5t1.5 8.5l72 110q3 7 12 7h26q13 0 6 -12l-73 -110q-5 -7 -13 -7h-24zM308 657q-13 0 -6 12l72 110q4 7 13 7h24q14 0 5 -12l-73 -110q-3 -7 -12 -7h-23zM180 -7q-64 0 -97.5 45t-24.5 122l50 406q2 10 11 10h32q9 0 9 -10l-51 -411q-6 -53 15 -84 t61 -31q42 0 70.5 31t35.5 84l50 411q2 10 11 10h32q9 0 9 -10l-50 -406q-10 -77 -54 -122t-109 -45z" />
<glyph horiz-adv-x="402" d="M177 680q-11 0 -9 10l3 20q0 10 11 10h173q9 0 9 -10l-3 -20q-2 -10 -11 -10h-173zM180 -7q-64 0 -97.5 45t-24.5 122l50 406q2 10 11 10h32q9 0 9 -10l-51 -411q-6 -53 15 -84t61 -31q42 0 70.5 31t35.5 84l50 411q2 10 11 10h32q9 0 9 -10l-50 -406q-10 -77 -54 -122 t-109 -45z" />
<glyph horiz-adv-x="402" d="M341 566q2 10 11 10h32q9 0 9 -10l-50 -406q-9 -72 -48 -116t-97 -50q-3 0 -5 -2q-49 -51 -49 -97q1 -46 49 -38q9 3 11 -7v-14q0 -10 -8 -11q-34 -7 -61.5 4.5t-29.5 51.5q-3 61 47 110q4 4 -1 5q-51 9 -76 52.5t-17 111.5l50 406q2 10 11 10h32q9 0 9 -10l-51 -411 q-6 -53 15 -84t61 -31q42 0 70.5 31t35.5 84z" />
<glyph horiz-adv-x="402" d="M261 656q-39 0 -63.5 29.5t-19.5 71.5t36.5 71t71.5 29t64 -29t19 -71t-36.5 -71.5t-71.5 -29.5zM265 688q27 0 48 20t24 49q4 29 -12 49t-43 20q-26 0 -47.5 -20t-25.5 -49q-3 -29 13.5 -49t42.5 -20zM180 -7q-64 0 -97.5 45t-24.5 122l50 406q2 10 11 10h32q9 0 9 -10 l-51 -411q-6 -53 15 -84t61 -31q42 0 70.5 31t35.5 84l50 411q2 10 11 10h32q9 0 9 -10l-50 -406q-10 -77 -54 -122t-109 -45z" />
<glyph horiz-adv-x="367" d="M147 0q-9 0 -9 9l-55 556q0 11 9 11h36q8 0 10 -9l38 -470q0 -8 4 0l152 470q2 9 11 9h34q9 0 7 -11l-191 -556q-2 -9 -12 -9h-34z" />
<glyph horiz-adv-x="530" d="M134 0q-8 0 -10 9l-42 556q0 11 10 11h34q8 0 10 -9l26 -458q0 -6 4 0l129 458q1 9 10 9h28q9 0 9 -9l18 -457q0 -6 4 0l130 457q3 9 12 9h34q10 0 8 -11l-172 -556q-3 -9 -12 -9h-31q-9 0 -9 9l-17 454q0 6 -4 0l-128 -454q-3 -9 -12 -9h-29z" />
<glyph horiz-adv-x="530" d="M296 650q-14 0 -5 12l73 110q7 7 13 7h30q14 0 5 -12l-80 -110q-7 -7 -13 -7h-23zM134 0q-8 0 -10 9l-42 556q0 11 10 11h34q8 0 10 -9l26 -458q0 -6 4 0l129 458q1 9 10 9h28q9 0 9 -9l18 -457q0 -6 4 0l130 457q3 9 12 9h34q10 0 8 -11l-172 -556q-3 -9 -12 -9h-31 q-9 0 -9 9l-17 454q0 6 -4 0l-128 -454q-3 -9 -12 -9h-29z" />
<glyph horiz-adv-x="530" d="M235 642q-13 0 -4 12l76 102q7 7 13 7h38q8 0 11 -6l54 -103q2 -5 -0.5 -8.5t-8.5 -3.5h-30q-6 0 -10 7l-36 76q0 1 -2 1t-4 -1l-54 -76q-7 -7 -13 -7h-30zM134 0q-8 0 -10 9l-42 556q0 11 10 11h34q8 0 10 -9l26 -458q0 -6 4 0l129 458q1 9 10 9h28q9 0 9 -9l18 -457 q0 -6 4 0l130 457q3 9 12 9h34q10 0 8 -11l-172 -556q-3 -9 -12 -9h-31q-9 0 -9 9l-17 454q0 6 -4 0l-128 -454q-3 -9 -12 -9h-29z" />
<glyph horiz-adv-x="530" d="M271 673q-16 0 -25 11.5t-7 28.5t14 28.5t28 11.5q15 0 23.5 -11.5t6.5 -28.5t-13.5 -28.5t-26.5 -11.5zM389 673q-16 0 -25 11.5t-7 28.5t14 28.5t28 11.5q15 0 23.5 -11.5t6.5 -28.5t-13 -28.5t-27 -11.5zM134 0q-8 0 -10 9l-42 556q0 11 10 11h34q8 0 10 -9l26 -458 q0 -6 4 0l129 458q1 9 10 9h28q9 0 9 -9l18 -457q0 -6 4 0l130 457q3 9 12 9h34q10 0 8 -11l-172 -556q-3 -9 -12 -9h-31q-9 0 -9 9l-17 454q0 6 -4 0l-128 -454q-3 -9 -12 -9h-29z" />
<glyph horiz-adv-x="530" d="M345 662q5 -12 -8 -12h-23q-8 0 -11 7l-53 110q-5 12 8 12h30q6 0 10 -7zM134 0q-8 0 -10 9l-42 556q0 11 10 11h34q8 0 10 -9l26 -458q0 -6 4 0l129 458q1 9 10 9h28q9 0 9 -9l18 -457q0 -6 4 0l130 457q3 9 12 9h34q10 0 8 -11l-172 -556q-3 -9 -12 -9h-31q-9 0 -9 9 l-17 454q0 6 -4 0l-128 -454q-3 -9 -12 -9h-29z" />
<glyph horiz-adv-x="364" d="M23 0q-13 0 -6 12l152 273q1 2 1 6l-85 273q-3 12 9 12h34q7 0 10 -8l66 -222q0 -3 3 -2q1 0 2 2l118 222q3 8 11 8h34q12 0 7 -12l-153 -274q-2 -4 -1 -6l86 -272q3 -12 -9 -12h-34q-9 0 -10 8l-63 223q-1 4 -6 0l-120 -223q-4 -8 -12 -8h-34z" />
<glyph horiz-adv-x="355" d="M143 0q-11 0 -9 10l31 248q0 4 -1 5l-79 301q-3 12 8 12h35q7 0 10 -8l57 -243q2 -8 6 0l117 243q4 8 12 8h35q12 0 5 -12l-152 -301q-2 -1 -2 -5l-30 -248q-2 -10 -11 -10h-32z" />
<glyph horiz-adv-x="355" d="M208 650q-14 0 -5 12l73 110q7 7 13 7h30q14 0 5 -12l-80 -110q-7 -7 -13 -7h-23zM143 0q-11 0 -9 10l31 248q0 4 -1 5l-79 301q-3 12 8 12h35q7 0 10 -8l57 -243q2 -8 6 0l117 243q4 8 12 8h35q12 0 5 -12l-152 -301q-2 -1 -2 -5l-30 -248q-2 -10 -11 -10h-32z" />
<glyph horiz-adv-x="355" d="M147 642q-12 0 -5 12l77 102q5 7 12 7h39q8 0 11 -6l53 -103q3 -4 0.5 -8t-8.5 -4h-30q-6 0 -11 7l-35 76q-1 1 -3 1t-3 -1l-55 -76q-5 -7 -12 -7h-30zM143 0q-11 0 -9 10l31 248q0 4 -1 5l-79 301q-3 12 8 12h35q7 0 10 -8l57 -243q2 -8 6 0l117 243q4 8 12 8h35 q12 0 5 -12l-152 -301q-2 -1 -2 -5l-30 -248q-2 -10 -11 -10h-32z" />
<glyph horiz-adv-x="355" d="M183 673q-16 0 -25 11.5t-7 28.5q1 17 13 28.5t28 11.5t24 -11.5t6 -28.5q-1 -17 -12.5 -28.5t-26.5 -11.5zM301 673q-16 0 -25 11.5t-7 28.5t14 28.5t28 11.5q15 0 23.5 -11.5t6.5 -28.5t-13.5 -28.5t-26.5 -11.5zM143 0q-11 0 -9 10l31 248q0 4 -1 5l-79 301 q-3 12 8 12h35q7 0 10 -8l57 -243q2 -8 6 0l117 243q4 8 12 8h35q12 0 5 -12l-152 -301q-2 -1 -2 -5l-30 -248q-2 -10 -11 -10h-32z" />
<glyph horiz-adv-x="355" d="M257 662q5 -12 -8 -12h-24q-7 0 -10 7l-53 110q-5 12 7 12h30q7 0 11 -7zM143 0q-11 0 -9 10l31 248q0 4 -1 5l-79 301q-3 12 8 12h35q7 0 10 -8l57 -243q2 -8 6 0l117 243q4 8 12 8h35q12 0 5 -12l-152 -301q-2 -1 -2 -5l-30 -248q-2 -10 -11 -10h-32z" />
<glyph horiz-adv-x="334" d="M20 0q-10 0 -8 10l4 31q0 2 4 12l269 471q2 2 1 3.5t-3 1.5h-202q-10 0 -8 10l3 27q2 10 11 10h250q11 0 9 -10l-4 -31q0 -2 -4 -12l-270 -471q-2 -5 3 -5h201q11 0 9 -10l-3 -27q-2 -10 -11 -10h-251z" />
<glyph horiz-adv-x="334" d="M198 661q-13 0 -6 12l74 110q5 7 12 7h30q15 0 6 -12l-81 -110q-5 -7 -12 -7h-23zM20 0q-10 0 -8 10l4 31q0 2 4 12l269 471q2 2 1 3.5t-3 1.5h-202q-10 0 -8 10l3 27q2 10 11 10h250q11 0 9 -10l-4 -31q0 -2 -4 -12l-270 -471q-2 -5 3 -5h201q11 0 9 -10l-3 -27 q-2 -10 -11 -10h-251z" />
<glyph horiz-adv-x="334" d="M206 642q-6 0 -11 7l-51 102q-5 12 7 12h29q6 0 11 -7l37 -77q1 -1 3 -1t3 1l55 77q5 7 12 7h27q14 0 5 -12l-78 -102q-5 -7 -12 -7h-37zM20 0q-10 0 -8 10l4 31q0 2 4 12l269 471q2 2 1 3.5t-3 1.5h-202q-10 0 -8 10l3 27q2 10 11 10h250q11 0 9 -10l-4 -31q0 -2 -4 -12 l-270 -471q-2 -5 3 -5h201q11 0 9 -10l-3 -27q-2 -10 -11 -10h-251z" />
<glyph horiz-adv-x="334" d="M228 667q-15 0 -24 11t-7 28q2 16 14 27.5t27 11.5q14 0 22 -11t6 -28t-12.5 -28t-25.5 -11zM20 0q-10 0 -8 10l4 31q0 2 4 12l269 471q2 2 1 3.5t-3 1.5h-202q-10 0 -8 10l3 27q2 10 11 10h250q11 0 9 -10l-4 -31q0 -2 -4 -12l-270 -471q-2 -5 3 -5h201q11 0 9 -10 l-3 -27q-2 -10 -11 -10h-251z" />
<glyph horiz-adv-x="257" d="M108 -8q-45 0 -67.5 29.5t-16.5 77.5l27 219q5 47 35.5 77t74.5 30t67.5 -29.5t18.5 -77.5l-27 -219q-6 -48 -37 -77.5t-75 -29.5zM112 28q27 0 46 19t23 50l27 223q4 31 -10.5 50t-41.5 19q-26 0 -44 -19t-22 -50l-28 -223q-4 -31 10 -50t40 -19z" />
<glyph horiz-adv-x="138" d="M92 417q6 3 13 3h23q9 0 9 -10l-49 -400q-2 -10 -11 -10h-21q-10 0 -8 10l45 365q0 5 -5 3l-21 -8q-5 -2 -8.5 0.5t-2.5 7.5l1 11q1 7 9 12z" />
<glyph horiz-adv-x="232" d="M14 0q-11 0 -9 10l2 18q2 10 5 13q9 12 54.5 74t67.5 94q44 64 50 111q4 32 -8 50.5t-35 18.5t-39 -18.5t-20 -49.5l-2 -19q-2 -10 -11 -10h-21q-10 0 -8 10l2 20q7 47 35 75t69 28t62.5 -28t14.5 -79q-6 -53 -52 -123q-38 -59 -108 -155q-3 -5 2 -5h126q10 0 8 -10 l-2 -15q-2 -10 -11 -10h-172z" />
<glyph horiz-adv-x="250" d="M208 184q3 -28 -1 -60q-5 -39 -18 -66q-23 -65 -92 -65q-37 0 -59 24t-22 63q0 14 2 34q1 10 11 10h19q10 0 9 -10q-2 -18 -1 -25q0 -60 46 -60q34 0 53 39q12 30 16 60q3 35 1 53q-6 49 -46 49q-3 0 -11 -2q-10 -2 -13 3l-7 10q-5 6 0 14l93 123q2 2 1 3.5t-3 1.5h-123 q-11 0 -9 10l2 15q2 10 11 10h164q10 0 8 -10l-2 -18q0 -3 -5 -13l-84 -113q-2 -5 1 -5q26 -3 41.5 -23.5t17.5 -51.5z" />
<glyph horiz-adv-x="231" d="M208 152q10 0 8 -10l-2 -17q-2 -10 -11 -10h-12q-3 0 -5 -4l-12 -101q-2 -10 -11 -10h-19q-11 0 -9 10l12 101q2 4 -3 4h-126q-10 0 -8 10l1 16q2 8 4 12l117 259q5 8 13 8h21q11 0 6 -11l-112 -252q-2 -5 2 -5h87q4 0 4 4l11 88q2 10 11 10h19q9 0 9 -10l-11 -88 q0 -4 3 -4h13z" />
<glyph horiz-adv-x="225" d="M201 188q3 -26 -1 -62q-5 -39 -12 -56q-25 -77 -97 -77q-77 0 -78 83q0 17 1 28q0 10 11 10h19q9 0 9 -10q-1 -8 -1 -23q3 -52 44 -52q38 0 54 45q7 20 12 52q4 36 0 51q-5 44 -43 44q-41 0 -54 -39q-5 -9 -12 -9h-21q-9 0 -9 10l28 225q2 10 11 10h155q9 0 9 -10l-2 -16 q-2 -10 -11 -10h-121q-5 0 -5 -4l-18 -140q0 -5 4 -2q24 21 61 21q59 0 67 -69z" />
<glyph horiz-adv-x="238" d="M212 191q5 -31 0 -65q-5 -42 -15 -65q-26 -68 -93 -68q-68 0 -77 70q-4 22 1 61l24 196q5 46 34 74.5t70 28.5q38 0 58.5 -28.5t14.5 -74.5v-5q-2 -10 -11 -10h-20q-4 0 -6.5 2t-1.5 5v7q4 29 -7.5 48t-31.5 19q-23 0 -40 -18.5t-20 -48.5l-11 -86q0 -5 4 -1q25 27 59 27 q61 0 69 -68zM159 70q10 26 14 57q4 30 0 61q-8 38 -41 38q-35 0 -52 -41q-8 -24 -13 -58q-4 -38 -2 -53q6 -45 42 -45q35 0 52 41z" />
<glyph horiz-adv-x="208" d="M48 0q-13 0 -8 11l143 370q2 4 -4 4h-105q-4 0 -4 -4l-4 -33q-2 -10 -11 -10h-13q-11 0 -9 10l9 62q0 10 11 10h167q11 0 9 -10l-3 -19q0 -5 -3 -12l-143 -370q-4 -9 -12 -9h-20z" />
<glyph horiz-adv-x="245" d="M178 223q-5 -3 -1 -6q30 -20 33 -59q1 -19 -1 -44q-5 -32 -9 -44q-13 -35 -39 -56t-59 -21q-64 0 -76 77q-4 24 0 44q1 22 10 45q14 39 46 58q4 3 1 6q-28 17 -32 56q-3 20 -1 37q6 29 10 37q28 70 95 70q32 0 53.5 -18.5t25.5 -51.5q3 -19 1 -38q-3 -19 -10 -36 q-15 -39 -47 -56zM88 312q-2 -11 -1 -21q3 -54 45 -54q39 0 59 54q2 6 4 22q0 3 0.5 10t0.5 11q-5 54 -46 54q-44 0 -58 -54q0 -2 -1.5 -10t-2.5 -12zM166 87q1 4 2 11t2 11.5t1 7.5q2 16 2 28q-2 27 -13.5 43.5t-31.5 16.5q-21 0 -38 -17t-21 -43q-1 -4 -1.5 -9.5t-1.5 -11 t-1 -7.5q-3 -27 -3 -30q-1 -26 11 -42t33 -16q45 0 60 58z" />
<glyph horiz-adv-x="238" d="M198 95q-5 -46 -34 -74.5t-70 -28.5q-38 0 -58.5 28.5t-15.5 74.5l1 5q2 10 11 10h19q5 0 7.5 -2t1.5 -5l-1 -7q-4 -30 7.5 -48.5t32.5 -18.5q23 0 39.5 18.5t20.5 48.5l11 86q0 6 -5 1q-24 -27 -59 -27q-60 0 -68 68q-5 30 -1 65q7 44 16 65q24 68 93 68q68 0 77 -70 q3 -27 -1 -61zM118 189q35 0 52 41q8 24 13 58q3 34 1 53q-6 45 -42 45q-34 0 -51 -41q-10 -26 -14 -57q-3 -25 -1 -61q9 -38 42 -38z" />
<glyph horiz-adv-x="257" d="M142 275q-44 0 -66.5 29.5t-16.5 77.5l26 219q6 48 36 77.5t75 29.5q44 0 67.5 -30t17.5 -77l-27 -219q-5 -48 -36 -77.5t-76 -29.5zM147 311q27 0 45.5 19t22.5 50l28 223q4 31 -10.5 50t-41.5 19q-26 0 -44 -18.5t-23 -50.5l-27 -223q-4 -31 10 -50t40 -19z" />
<glyph horiz-adv-x="138" d="M126 697q6 3 13 3h24q10 0 8 -10l-49 -400q-2 -10 -11 -10h-20q-11 0 -9 10l45 365q0 5 -4 3l-22 -8q-11 -3 -11 8l2 11q0 6 8 12z" />
<glyph horiz-adv-x="232" d="M48 283q-10 0 -8 10l2 18q2 9 5 13q19 26 60 82.5t62 85.5q44 64 50 111q4 32 -8 50.5t-35 18.5t-39 -18.5t-20 -49.5l-2 -19q-2 -10 -11 -10h-21q-10 0 -8 10l2 20q7 47 35 75t69 28q40 0 62 -28.5t15 -78.5q-7 -56 -52 -123q-20 -31 -108 -155q-3 -5 2 -5h125 q9 0 9 -10l-2 -15q-2 -10 -11 -10h-173z" />
<glyph horiz-adv-x="250" d="M242 464q3 -26 0 -60q-7 -43 -18 -66q-25 -65 -93 -65q-37 0 -58.5 24t-22.5 63q0 14 2 34q1 10 11 10h20q9 0 8 -10q-2 -18 -1 -25q0 -60 46 -60q34 0 53 39q12 30 16 60q4 29 1 53q-6 49 -45 49q-5 0 -11 -2q-10 -2 -14 3l-7 10q-4 7 1 14l92 123q2 3 -2 5h-123 q-9 0 -9 10l2 15q2 10 11 10h164q9 0 9 -10l-3 -18q0 -3 -5 -13l-84 -113q-2 -5 1 -5q26 -3 41.5 -23.5t17.5 -51.5z" />
<glyph horiz-adv-x="231" d="M242 432q9 0 9 -10l-2 -17q-2 -10 -11 -10h-13q-4 0 -4 -4l-13 -101q0 -10 -11 -10h-19q-9 0 -9 10l13 101q0 4 -4 4h-126q-10 0 -8 10l2 16l3 12l117 259q5 8 13 8h21q12 0 7 -11l-113 -252q-2 -5 3 -5h86q4 0 4 4l11 88q2 10 11 10h20q10 0 8 -10l-11 -88q0 -4 4 -4h12 z" />
<glyph horiz-adv-x="225" d="M235 468q4 -21 -1 -62q-5 -39 -12 -56q-23 -77 -96 -77q-78 0 -78 83q-1 12 0 28q2 10 11 10h19q10 0 9 -10q-1 -8 -1 -23q4 -52 44 -52q39 0 54 45q9 21 12 52q4 29 1 51q-5 44 -43 44q-42 0 -55 -39q-3 -9 -11 -9h-22q-10 0 -8 10l27 225q2 10 11 10h156q10 0 8 -10 l-2 -16q-2 -10 -11 -10h-121q-4 0 -4 -4l-19 -140q0 -5 5 -2q22 21 61 21q60 0 66 -69z" />
<glyph horiz-adv-x="238" d="M246 474q6 -25 1 -65q-5 -39 -16 -65q-24 -68 -92 -68t-77 70q-4 22 1 61l24 196q4 46 33 74.5t70 28.5q39 0 59.5 -28.5t14.5 -74.5v-5q-2 -10 -11 -10h-20q-9 0 -9 7l1 7q4 29 -7.5 48t-31.5 19q-23 0 -40 -18.5t-21 -48.5l-10 -86q-1 -2 0.5 -2.5t3.5 1.5q24 27 59 27 q30 0 47.5 -18t20.5 -50zM194 353q10 28 13 57q4 34 1 61q-8 38 -42 38t-51 -41q-10 -29 -13 -58q-5 -31 -2 -53q6 -45 42 -45q35 0 52 41z" />
<glyph horiz-adv-x="208" d="M82 280q-12 0 -7 11l142 370q2 4 -3 4h-105q-3 0 -5 -4l-4 -33q0 -10 -11 -10h-13q-9 0 -9 10l9 62q1 10 11 10h168q10 0 8 -10l-2 -19q-1 -5 -4 -12l-143 -370q-4 -9 -12 -9h-20z" />
<glyph horiz-adv-x="245" d="M212 505q-4 -3 -1 -6q30 -19 34 -59q1 -19 -1 -44q-4 -26 -10 -44q-12 -34 -38.5 -55.5t-58.5 -21.5q-64 0 -76 77q-3 17 -1 44q4 28 11 45q13 39 46 58q4 3 1 6q-29 18 -33 56q-2 16 0 37q2 18 9 37q30 70 95 70q33 0 54.5 -18.5t25.5 -51.5q2 -27 0 -38q-1 -10 -9 -36 q-15 -39 -48 -56zM122 594v-21q3 -54 45 -54q39 0 59 54q0 3 1 11t2 11q2 12 2 21q-6 54 -46 54q-21 0 -36.5 -14.5t-21.5 -39.5q-3 -10 -5 -22zM201 369q1 7 2.5 18t1.5 12q1 8 3 28q-2 27 -13.5 43.5t-31.5 16.5q-22 0 -38 -17t-21 -43q-4 -18 -5 -28q-2 -18 -2 -30 q-2 -26 10.5 -42t33.5 -16q43 0 60 58z" />
<glyph horiz-adv-x="238" d="M233 378q-5 -46 -34 -74.5t-70 -28.5q-38 0 -58.5 28.5t-15.5 74.5l1 5q0 10 11 10h19q9 0 9 -7l-1 -7q-4 -29 7.5 -48t31.5 -19q23 0 40 18.5t21 48.5l11 86q0 6 -5 1q-24 -27 -59 -27q-30 0 -47.5 18t-20.5 50q-6 25 -1 65q5 39 16 65q24 68 93 68t76 -70q4 -25 0 -61z M153 472q35 0 52 41q8 24 13 58q3 34 1 53q-6 45 -42 45q-34 0 -51 -41q-10 -26 -14 -57q-4 -34 -1 -61q9 -38 42 -38z" />
<glyph horiz-adv-x="821" d="M477 708q150 0 238.5 -104t69.5 -255q-19 -150 -132.5 -253.5t-263.5 -103.5q-149 0 -237 103.5t-69 253.5q18 151 131.5 255t262.5 104zM393 28q134 0 236 93t119 228q17 136 -62.5 229.5t-213.5 93.5q-133 0 -234.5 -93.5t-118.5 -229.5q-17 -135 62 -228t212 -93z M457 511q42 0 62.5 -28t14.5 -78l-25 -205q-2 -10 -11 -10h-19q-10 0 -8 10l1 12q1 2 -0.5 3t-3.5 -1q-27 -29 -71 -29q-77 0 -67 88q13 101 114 101h44q3 0 5 4l3 26q4 34 -8 53t-37 19q-20 0 -37 -13t-21 -32q-1 -9 -10 -9l-20 1q-9 0 -8 10q8 34 36.5 56t65.5 22z M411 217q28 0 47 17.5t23 46.5l7 58q0 4 -4 4h-41q-65 0 -75 -69q-6 -57 43 -57z" />
<glyph d="M-125 -181q-47 0 -72 37q-5 6 3 14l7 6q7 7 13 -1q19 -25 50 -24q21 0 36.5 11.5t19.5 32.5q2 19 -7.5 32.5t-29.5 13.5q-23 0 -43 -14q-7 -6 -13 1l-9 9q-5 6 -1 14l29 54q4 10 13 6l6 -2q9 -3 4 -13l-15 -29q-2 -2 -1 -3t4 0q25 12 46 8q28 -3 42 -25t9 -52 q-5 -35 -31 -55.5t-60 -20.5z" />
<glyph horiz-adv-x="167" d="M42 -181q-47 0 -71 35q-3 6 3 14l7 6q7 7 13 -1q18 -23 49 -22q21 0 36.5 11.5t19.5 32.5q2 19 -7.5 32.5t-29.5 13.5q-23 0 -43 -14q-7 -6 -13 1l-9 9q-5 6 0 14l30 54q4 10 13 6l6 -2q8 -5 3 -13l-16 -29q-2 -3 0 -4q2 0 3 1q25 12 46 8q28 -3 42 -25t9 -52 q-5 -35 -31 -55.5t-60 -20.5z" />
<glyph />
</font>
</defs>
</svg>
