<?xml version="1.0" encoding="UTF-8"?>
<svg width="6px" height="12px" viewBox="0 0 6 12" version="1.1" xmlns="http://www.w3.org/2000/svg" xmlns:xlink="http://www.w3.org/1999/xlink">
    <!-- Generator: sketchtool 48.1 (47250) - http://www.bohemiancoding.com/sketch -->
    <title>7096EED9-860A-49D1-84E4-7056DD331840</title>
    <desc>Created with sketchtool.</desc>
    <defs></defs>
    <g id="Azimex-Service-Home" stroke="none" stroke-width="1" fill="none" fill-rule="evenodd" transform="translate(-1365.000000, -2701.000000)" opacity="0.297101449">
        <g id="news-copy-2" transform="translate(0.000000, 2381.000000)" fill="#000000">
            <g id="feed" transform="translate(365.000000, 258.000000)">
                <g id="item-copy-4" transform="translate(800.000000, 0.000000)">
                    <path d="M204,66 L206,66 L205.75,68 L204,68 L204,74 L201.40625,74 L201.40625,68 L200,68 L200,66 L201.40625,66 L201.40625,64.65625 C201.40625,63.7812456 201.624998,63.1197939 202.0625,62.671875 C202.500002,62.2239561 203.229162,62 204.25,62 L206,62 L206,64 L204.9375,64 C204.541665,64 204.286459,64.0624994 204.171875,64.1875 C204.057291,64.3125006 204,64.5208319 204,64.8125 L204,66 Z" id="ion-social-facebook---Ionicons"></path>
                </g>
            </g>
        </g>
    </g>
</svg>