<?xml version="1.0" encoding="UTF-8"?>
<svg width="65px" height="40px" viewBox="0 0 65 40" version="1.1" xmlns="http://www.w3.org/2000/svg" xmlns:xlink="http://www.w3.org/1999/xlink">
    <!-- Generator: sketchtool 48.1 (47250) - http://www.bohemiancoding.com/sketch -->
    <title>19CA08F8-9C81-4270-88AC-D133A0F3B87B</title>
    <desc>Created with sketchtool.</desc>
    <defs>
        <linearGradient x1="100%" y1="0%" x2="0%" y2="100%" id="linearGradient-1">
            <stop stop-color="#7CBDED" offset="0%"></stop>
            <stop stop-color="#4688D6" offset="100%"></stop>
        </linearGradient>
    </defs>
    <g id="UI-Kit" stroke="none" stroke-width="1" fill="none" fill-rule="evenodd" transform="translate(-321.000000, -142.000000)">
        <path d="M356,152 L353,152 C351.895431,152 351,152.895431 351,154 L351,179 C351,180.104569 351.895431,181 353,181 L363,181 C364.104569,181 365,180.104569 365,179 L365,154 C365,152.895431 364.104569,152 363,152 L358,152 L356,152 L354,152 L354,153 C354,153.552285 354.447715,154 355,154 L361,154 C361.552285,154 362,153.552285 362,153 L362,152 L358,152 L358,153 L356,153 L356,152 Z M353,151 L363,151 C364.656854,151 366,152.343146 366,154 L366,179 C366,180.656854 364.656854,182 363,182 L353,182 C351.343146,182 350,180.656854 350,179 L350,154 C350,152.343146 351.343146,151 353,151 Z M359,152 L359,153 L360,153 L360,152 L359,152 Z M366,182 L367,181 L367,178 L384,178 L384,146 L360,146 L360,150 L358,150 L358,144 C358,142.895431 358.895431,142 360,142 L384,142 C385.104569,142 386,142.895431 386,144 L386,180 C386,181.104569 385.104569,182 384,182 L366,182 Z M371,179 L371,181 L373,181 L373,179 L371,179 Z M372,145 C372.552285,145 373,144.552285 373,144 C373,143.447715 372.552285,143 372,143 C371.447715,143 371,143.447715 371,144 C371,144.552285 371.447715,145 372,145 Z M328,148 L357,148 L357,150 L328,150 L328,179 L349,179 L349,180.5 L350,182 C334.611335,182 326.611335,182 326,182 C324.333333,182 322.666667,181.5 321,180.5 L321,179 L326,179 L326,150 C326,148.895431 326.895431,148 328,148 Z" id="all-2" fill="url(#linearGradient-1)"></path>
    </g>
</svg>