<?xml version="1.0" encoding="UTF-8"?>
<svg width="35px" height="41px" viewBox="0 0 35 41" version="1.1" xmlns="http://www.w3.org/2000/svg" xmlns:xlink="http://www.w3.org/1999/xlink">
    <!-- Generator: sketchtool 48.1 (47250) - http://www.bohemiancoding.com/sketch -->
    <title>4B49B96A-3E6B-4855-9A64-BCD45EFA41FB</title>
    <desc>Created with sketchtool.</desc>
    <defs></defs>
    <g id="UI-Kit" stroke="none" stroke-width="1" fill="none" fill-rule="evenodd" transform="translate(-50.000000, -50.000000)">
        <path d="M72,51 L68,51 C66.8954305,51 66,51.8954305 66,53 L66,88 C66,89.1045695 66.8954305,90 68,90 L82,90 C83.1045695,90 84,89.1045695 84,88 L84,53 C84,51.8954305 83.1045695,51 82,51 L76,51 L72,51 L70,51 L70,52 C70,52.5522847 70.4477153,53 71,53 L79,53 C79.5522847,53 80,52.5522847 80,52 L80,51 L76,51 L76,52 L72,52 L72,51 Z M68,50 L82,50 C83.6568542,50 85,51.3431458 85,53 L85,88 C85,89.6568542 83.6568542,91 82,91 L68,91 C66.3431458,91 65,89.6568542 65,88 L65,53 C65,51.3431458 66.3431458,50 68,50 Z M77,51 L77,52 L78,52 L78,51 L77,51 Z M64,60 L51,60 L51,87 L64,87 L64,89.5 L65,91 L53,91 C51.3431458,91 50,89.6568542 50,88 L50,59 C50,57.3431458 51.3431458,56 53,56 L64,56 L64,60 Z M58,88 L58,90 L60,90 L60,88 L58,88 Z M57,58 L57,59 L61,59 L61,58 L57,58 Z" id="iPhones" fill="#323232"></path>
    </g>
</svg>