<?xml version="1.0" encoding="UTF-8"?>
<svg width="65px" height="40px" viewBox="0 0 65 40" version="1.1" xmlns="http://www.w3.org/2000/svg" xmlns:xlink="http://www.w3.org/1999/xlink">
    <!-- Generator: sketchtool 48.1 (47250) - http://www.bohemiancoding.com/sketch -->
    <title>AF468058-CD71-4CEA-BA93-7EA1DE28FD31</title>
    <desc>Created with sketchtool.</desc>
    <defs></defs>
    <g id="UI-Kit" stroke="none" stroke-width="1" fill="none" fill-rule="evenodd" transform="translate(-321.000000, -51.000000)">
        <path d="M356,61 L353,61 C351.895431,61 351,61.8954305 351,63 L351,88 C351,89.1045695 351.895431,90 353,90 L363,90 C364.104569,90 365,89.1045695 365,88 L365,63 C365,61.8954305 364.104569,61 363,61 L358,61 L356,61 L354,61 L354,62 C354,62.5522847 354.447715,63 355,63 L361,63 C361.552285,63 362,62.5522847 362,62 L362,61 L358,61 L358,62 L356,62 L356,61 Z M353,60 L363,60 C364.656854,60 366,61.3431458 366,63 L366,88 C366,89.6568542 364.656854,91 363,91 L353,91 C351.343146,91 350,89.6568542 350,88 L350,63 C350,61.3431458 351.343146,60 353,60 Z M359,61 L359,62 L360,62 L360,61 L359,61 Z M366,91 L367,90 L367,87 L384,87 L384,55 L360,55 L360,59 L358,59 L358,53 C358,51.8954305 358.895431,51 360,51 L384,51 C385.104569,51 386,51.8954305 386,53 L386,89 C386,90.1045695 385.104569,91 384,91 L366,91 Z M371,88 L371,90 L373,90 L373,88 L371,88 Z M372,54 C372.552285,54 373,53.5522847 373,53 C373,52.4477153 372.552285,52 372,52 C371.447715,52 371,52.4477153 371,53 C371,53.5522847 371.447715,54 372,54 Z M328,57 L357,57 L357,59 L328,59 L328,88 L349,88 L349,89.5 L350,91 C334.611335,91 326.611335,91 326,91 C324.333333,91 322.666667,90.5 321,89.5 L321,88 L326,88 L326,59 C326,57.8954305 326.895431,57 328,57 Z" id="all" fill="#323232"></path>
    </g>
</svg>