<?xml version="1.0" encoding="UTF-8"?>
<svg width="58px" height="32px" viewBox="0 0 58 32" version="1.1" xmlns="http://www.w3.org/2000/svg" xmlns:xlink="http://www.w3.org/1999/xlink">
    <!-- Generator: sketchtool 48.1 (47250) - http://www.bohemiancoding.com/sketch -->
    <title>680E0E37-EF93-4E04-99D6-96D09CBE993D</title>
    <desc>Created with sketchtool.</desc>
    <defs>
        <linearGradient x1="100%" y1="0%" x2="0%" y2="100%" id="linearGradient-1">
            <stop stop-color="#7CBDED" offset="0%"></stop>
            <stop stop-color="#4688D6" offset="100%"></stop>
        </linearGradient>
    </defs>
    <g id="UI-Kit" stroke="none" stroke-width="1" fill="none" fill-rule="evenodd" transform="translate(-213.000000, -145.000000)">
        <path d="M220,145 L264,145 C265.104569,145 266,145.895431 266,147 L266,174 L271,174 L271,175.5 C269.333333,176.5 267.666667,177 266,177 C264,177 220,177 218,177 C216.333333,177 214.666667,176.5 213,175.5 L213,174 L218,174 L218,147 C218,145.895431 218.895431,145 220,145 Z M220,147 L220,174 L264,174 L264,147 L220,147 Z" id="iPad-Copy-2" fill="url(#linearGradient-1)"></path>
    </g>
</svg>