<?xml version="1.0" encoding="UTF-8"?>
<svg width="28px" height="40px" viewBox="0 0 28 40" version="1.1" xmlns="http://www.w3.org/2000/svg" xmlns:xlink="http://www.w3.org/1999/xlink">
    <!-- Generator: sketchtool 48.1 (47250) - http://www.bohemiancoding.com/sketch -->
    <title>CDE25900-61AA-4B3B-8FFD-00631B2151A1</title>
    <desc>Created with sketchtool.</desc>
    <defs></defs>
    <g id="UI-Kit" stroke="none" stroke-width="1" fill="none" fill-rule="evenodd" transform="translate(-135.000000, -50.000000)">
        <path d="M137,50 L161,50 C162.104569,50 163,50.8954305 163,52 L163,88 C163,89.1045695 162.104569,90 161,90 L137,90 C135.895431,90 135,89.1045695 135,88 L135,52 C135,50.8954305 135.895431,50 137,50 Z M137,54 L137,86 L161,86 L161,54 L137,54 Z M148,87 L148,89 L150,89 L150,87 L148,87 Z M149,53 C149.552285,53 150,52.5522847 150,52 C150,51.4477153 149.552285,51 149,51 C148.447715,51 148,51.4477153 148,52 C148,52.5522847 148.447715,53 149,53 Z" id="iPad" fill="#323232"></path>
    </g>
</svg>