<?xml version="1.0" encoding="UTF-8"?>
<svg width="58px" height="32px" viewBox="0 0 58 32" version="1.1" xmlns="http://www.w3.org/2000/svg" xmlns:xlink="http://www.w3.org/1999/xlink">
    <!-- Generator: sketchtool 48.1 (47250) - http://www.bohemiancoding.com/sketch -->
    <title>3D29AB9D-B4A0-4C9A-9F12-45E2F6B5C6B6</title>
    <desc>Created with sketchtool.</desc>
    <defs></defs>
    <g id="UI-Kit" stroke="none" stroke-width="1" fill="none" fill-rule="evenodd" transform="translate(-213.000000, -54.000000)">
        <path d="M220,54 L264,54 C265.104569,54 266,54.8954305 266,56 L266,83 L271,83 L271,84.5 C269.333333,85.5 267.666667,86 266,86 C264,86 220,86 218,86 C216.333333,86 214.666667,85.5 213,84.5 L213,83 L218,83 L218,56 C218,54.8954305 218.895431,54 220,54 Z M220,56 L220,83 L264,83 L264,56 L220,56 Z" id="iPad" fill="#323232"></path>
    </g>
</svg>