<?xml version="1.0" standalone="no"?>
<!DOCTYPE svg PUBLIC "-//W3C//DTD SVG 1.1//EN" "http://www.w3.org/Graphics/SVG/1.1/DTD/svg11.dtd" >
<svg xmlns="http://www.w3.org/2000/svg" xmlns:xlink="http://www.w3.org/1999/xlink" version="1.1">
<metadata></metadata>
<defs>
<font id="barlow_condensedextralight" horiz-adv-x="0" >
<font-face units-per-em="1000" ascent="800" descent="-200" />
<missing-glyph horiz-adv-x="200" />
<glyph unicode="IJ" horiz-adv-x="621" d="M94 0q-10 0 -10 10v680q0 10 10 10h19q10 0 10 -10v-680q0 -10 -10 -10h-19zM385 -8q-68 0 -109.5 44t-41.5 117v89q0 10 10 10h19q10 0 10 -10v-91q0 -56 31 -90t81 -34q51 0 82 34t31 90v539q0 10 10 10h19q10 0 10 -10v-537q0 -73 -42 -117t-110 -44z" />
<glyph unicode="ffi" horiz-adv-x="720" d="M129 549v-43q0 -4 4 -4h95q10 0 10 -10v-12q0 -10 -10 -10h-95q-4 0 -4 -4v-456q0 -10 -10 -10h-19q-10 0 -10 10v456q0 4 -4 4h-44q-10 0 -10 10v12q0 10 10 10h44q4 0 4 4v45q0 80 26.5 119.5t89.5 38.5h14q10 0 10 -10v-12q0 -10 -10 -10h-13q-46 0 -62 -31t-16 -97z M352 551q0 80 26.5 119.5t90.5 38.5h14q10 0 10 -10v-12q0 -10 -10 -10h-13q-46 0 -62.5 -31t-16.5 -97v-43q0 -4 4 -4h86q10 0 10 -10v-12q0 -10 -10 -10h-86q-4 0 -4 -4v-456q0 -10 -10 -10h-19q-10 0 -10 10v456q0 4 -4 4h-54q-10 0 -10 10v12q0 10 10 10h54q4 0 4 4v45z M625 686q14 0 23.5 -10t9.5 -26t-9.5 -27t-23.5 -11t-24 11t-10 27t10 26t24 10zM616 0q-10 0 -10 10v482q0 10 10 10h19q10 0 10 -10v-482q0 -10 -10 -10h-19z" />
<glyph unicode="ffl" horiz-adv-x="699" d="M129 549v-43q0 -4 4 -4h95q10 0 10 -10v-12q0 -10 -10 -10h-95q-4 0 -4 -4v-456q0 -10 -10 -10h-19q-10 0 -10 10v456q0 4 -4 4h-44q-10 0 -10 10v12q0 10 10 10h44q4 0 4 4v45q0 80 26.5 119.5t89.5 38.5h14q10 0 10 -10v-12q0 -10 -10 -10h-13q-46 0 -62 -31t-16 -97z M353 551q0 80 26.5 119.5t89.5 38.5h14q10 0 10 -10v-12q0 -10 -10 -10h-13q-46 0 -62 -31t-16 -97v-43q0 -4 4 -4h85q10 0 10 -10v-12q0 -10 -10 -10h-85q-4 0 -4 -4v-456q0 -10 -10 -10h-19q-10 0 -10 10v456q0 4 -4 4h-54q-10 0 -10 10v12q0 10 10 10h54q4 0 4 4v45z M595 690q0 10 10 10h19q10 0 10 -10v-680q0 -10 -10 -10h-19q-10 0 -10 10v680z" />
<glyph unicode="fi" horiz-adv-x="457" d="M90 547q0 82 26 122t90 40h15q10 0 10 -10v-15q0 -10 -10 -10h-14q-45 0 -61.5 -30.5t-16.5 -96.5v-41q0 -4 4 -4h85q10 0 10 -10v-12q0 -10 -10 -10h-85q-4 0 -4 -4v-456q0 -10 -10 -10h-19q-10 0 -10 10v456q0 4 -4 4h-44q-10 0 -10 10v12q0 10 10 10h44q4 0 4 4v41z M363 686q14 0 23.5 -10.5t9.5 -26.5t-9.5 -26.5t-23.5 -10.5q-15 0 -25 10.5t-10 26.5t10 26.5t25 10.5zM353 0q-10 0 -10 10v482q0 10 10 10h19q10 0 10 -10v-482q0 -10 -10 -10h-19z" />
<glyph unicode="fl" horiz-adv-x="436" d="M90 547q0 82 26 122t90 40h15q10 0 10 -10v-15q0 -10 -10 -10h-14q-45 0 -61.5 -30.5t-16.5 -96.5v-41q0 -4 4 -4h85q10 0 10 -10v-12q0 -10 -10 -10h-85q-4 0 -4 -4v-456q0 -10 -10 -10h-19q-10 0 -10 10v456q0 4 -4 4h-44q-10 0 -10 10v12q0 10 10 10h44q4 0 4 4v41z M332 690q0 10 10 10h19q10 0 10 -10v-680q0 -10 -10 -10h-19q-10 0 -10 10v680z" />
<glyph unicode="gj" horiz-adv-x="581" d="M491 686q15 0 24.5 -9.5t9.5 -26.5t-9.5 -27.5t-24.5 -10.5t-24.5 10.5t-9.5 27.5t9.5 26.5t24.5 9.5zM297 453q3 -3 5 1v38q0 10 10 10h20q10 0 10 -10v-489q0 -207 -185 -204q-10 0 -10 10v16q0 10 10 10q77 -1 111 42t34 128v45q-1 4 -5 1q-34 -57 -104 -57 q-61 0 -98 41t-37 105v223q0 65 37 106t98 41q70 0 104 -57zM471 -64v556q0 10 10 10h19q10 0 10 -10v-556q0 -140 -115 -146q-10 0 -10 10l1 15q0 10 8 10q37 2 57 31.5t20 79.5zM202 29q44 0 72 31.5t28 81.5v220q0 50 -28 81.5t-72 31.5q-46 0 -75.5 -31.5t-29.5 -81.5 v-220q0 -50 29.5 -81.5t75.5 -31.5z" />
<glyph unicode="ij" horiz-adv-x="371" d="M96 612q-15 0 -25 10.5t-10 26.5t10 26.5t25 10.5q14 0 23.5 -10.5t9.5 -26.5t-9.5 -26.5t-23.5 -10.5zM280 612q-15 0 -24.5 10.5t-9.5 27.5t9.5 26.5t24.5 9.5t25 -9.5t10 -26.5t-10 -27.5t-25 -10.5zM86 0q-10 0 -10 10v482q0 10 10 10h19q10 0 10 -10v-482 q0 -10 -10 -10h-19zM182 -210q-10 0 -10 10v15q0 10 10 10q38 3 58 32.5t20 79.5v555q0 10 10 10h19q10 0 10 -10v-555q0 -143 -117 -147z" />
<glyph unicode="&#x2d;&#x2d;" horiz-adv-x="592" d="M46 291q-10 0 -10 10v16q0 10 10 10h500q10 0 10 -10v-16q0 -10 -10 -10h-500z" />
<glyph unicode="&#xd;" horiz-adv-x="200" />
<glyph unicode=" "  horiz-adv-x="200" />
<glyph unicode="&#x09;" horiz-adv-x="200" />
<glyph unicode="&#xa0;" horiz-adv-x="200" />
<glyph unicode="!" horiz-adv-x="242" d="M114 223q-10 0 -10 10l-2 457q0 10 10 10h19q10 0 10 -10l-3 -457q0 -10 -10 -10h-14zM119 4q-17 0 -29 14t-12 34q0 19 12.5 33t28.5 14q17 0 29.5 -14t12.5 -33q0 -20 -12.5 -34t-29.5 -14z" />
<glyph unicode="&#x22;" horiz-adv-x="184" d="M41 496q-10 0 -10 10l-5 177q0 10 10 10h21q10 0 10 -10l-5 -177q0 -10 -10 -10h-11zM129 496q-10 0 -10 10l-3 177q0 10 10 10h20q10 0 10 -10l-5 -177q0 -10 -10 -10h-12z" />
<glyph unicode="#" horiz-adv-x="577" d="M512 451q0 -10 -10 -10h-63q-5 0 -5 -4l-27 -187q0 -4 3 -4h60q10 0 10 -10v-15q0 -10 -10 -10h-65q-5 0 -5 -4l-28 -186q-1 -9 -10 -9l-19 1q-11 0 -9 10l26 184q0 4 -3 4h-174q-5 0 -5 -4l-27 -186q-1 -9 -10 -9l-19 1q-11 0 -9 10l26 184q0 4 -3 4h-61q-10 0 -10 10 v15q0 10 10 10h66q5 0 5 4l27 187q0 4 -3 4h-64q-10 0 -10 10v15q0 10 10 10h69q5 0 5 4l28 187q1 9 10 9l19 -1q11 0 9 -10l-26 -185q0 -4 3 -4h173q5 0 5 4l28 187q1 9 10 9l20 -1q11 0 9 -11l-27 -184q0 -4 3 -4h58q10 0 10 -10v-15zM362 246q5 0 5 4l27 187q0 4 -3 4 h-174q-5 0 -5 -4l-26 -187q0 -4 3 -4h173z" />
<glyph unicode="$" horiz-adv-x="415" d="M367 169q0 -75 -38 -123t-100 -54q-4 0 -4 -4l1 -64q0 -10 -10 -10h-10q-10 0 -10 10v65q0 4 -4 4q-60 8 -96.5 54.5t-36.5 118.5v20q0 10 10 10h18q10 0 10 -10v-19q0 -63 32 -102t83 -39q50 0 83.5 37.5t33.5 98.5q0 25 -7.5 46.5t-15 35t-30 34t-33 28.5t-44.5 33 q-39 29 -58 45t-41.5 42.5t-32 55.5t-9.5 65q0 69 36 111.5t94 48.5q4 0 4 4l-1 70q0 10 10 10h10q10 0 10 -10v-70q0 -4 4 -4q62 -6 99.5 -53.5t37.5 -121.5v-25q0 -10 -10 -10h-19q-10 0 -10 10v25q0 64 -32 103t-84 39q-48 0 -79 -34t-31 -95q0 -52 26 -85t97 -86 q85 -63 116 -102t31 -103z" />
<glyph unicode="%" horiz-adv-x="788" d="M217 439q-55 0 -94 40t-39 96t39 95.5t94 39.5t93.5 -39.5t38.5 -95.5t-38.5 -96t-93.5 -40zM202 0q-6 0 -8.5 3.5t0.5 8.5l367 681q3 7 12 7h12q6 0 8.5 -3.5t-0.5 -8.5l-367 -681q-3 -7 -12 -7h-12zM217 468q43 0 72.5 31.5t29.5 75.5t-29.5 75t-72.5 31t-73 -31 t-30 -75q0 -45 30 -76t73 -31zM572 -10q-55 0 -94 40t-39 96t39 95.5t94 39.5t93.5 -39.5t38.5 -95.5t-38.5 -96t-93.5 -40zM572 19q43 0 72.5 31.5t29.5 75.5t-29.5 75t-72.5 31t-73 -31t-30 -75q0 -45 30 -76t73 -31z" />
<glyph unicode="&#x26;" horiz-adv-x="526" d="M470 12q7 -12 -7 -12h-19q-7 0 -12 7l-51 78q-2 4 -6 0q-39 -50 -76.5 -71.5t-85.5 -21.5q-72 0 -113.5 41.5t-41.5 116.5q0 69 33 119t93 104q3 1 1 5q-54 83 -68.5 116t-14.5 72q0 65 35 103.5t91 38.5q57 0 92.5 -38t35.5 -101q0 -60 -30.5 -104.5t-88.5 -96.5 q-3 -1 -1 -5l71 -107q11 -17 34.5 -52.5t32.5 -48.5q3 -3 6 0q10 15 51 84q5 10 14 4l13 -9q7 -6 3 -13q-33 -59 -60 -99q-1 -3 0 -6zM229 672q-39 0 -63.5 -29t-24.5 -78q0 -32 12.5 -62.5t56.5 -99.5q3 -4 6 -1q49 45 75 82.5t26 84.5q0 46 -24.5 74.5t-63.5 28.5zM217 27 q40 1 71.5 22t66.5 68q1 3 0 6q-41 61 -52 78q-73 109 -93 137q-2 4 -5 1q-52 -49 -80 -92t-28 -98q0 -57 32 -89.5t88 -32.5z" />
<glyph unicode="'" horiz-adv-x="95" d="M41 502q-10 0 -10 10l-5 175q0 10 10 10h22q10 0 10 -10l-5 -175q0 -10 -10 -10h-12z" />
<glyph unicode="(" horiz-adv-x="181" d="M85 -110q-8 0 -11 7q-35 74 -56.5 189t-21.5 236q0 125 21.5 243t57.5 193q4 7 12 7h17q5 0 7.5 -3.5t0.5 -7.5q-31 -77 -51 -194t-20 -236t19.5 -233.5t51.5 -189.5q2 -4 -0.5 -7.5t-7.5 -3.5h-19z" />
<glyph unicode=")" horiz-adv-x="181" d="M107 -103q-3 -7 -11 -7h-19q-13 0 -8 11q32 75 51.5 189.5t19.5 233.5t-20 236t-51 194q-5 11 8 11h17q8 0 12 -7q36 -75 57.5 -193t21.5 -243q0 -121 -21.5 -236t-56.5 -189z" />
<glyph unicode="*" horiz-adv-x="360" d="M175 393q-10 0 -10 10v135q0 6 -5 3l-111 -69q-8 -6 -14 4l-4 8q-5 9 3 14l112 69q2 1 2 3t-2 3l-112 69q-8 5 -3 14l4 8q5 10 14 4l111 -69q5 -3 5 3v135q0 10 10 10h10q10 0 10 -10v-135q0 -6 5 -3l111 69q8 6 14 -4l4 -8q5 -9 -3 -14l-112 -69q-2 -1 -2 -3t2 -3 l112 -69q8 -5 3 -14l-4 -8q-5 -10 -14 -4l-111 69q-5 3 -5 -3v-135q0 -10 -10 -10h-10z" />
<glyph unicode="+" horiz-adv-x="443" d="M397 338q10 0 10 -10v-12q0 -10 -10 -10h-155q-4 0 -4 -4v-155q0 -10 -10 -10h-13q-10 0 -10 10v155q0 4 -4 4h-155q-10 0 -10 10v12q0 10 10 10h155q4 0 4 4v156q0 10 10 10h13q10 0 10 -10v-156q0 -4 4 -4h155z" />
<glyph unicode="," horiz-adv-x="162" d="M51 -71q-11 0 -9 11l36 205q2 9 11 9h16q11 0 9 -11l-41 -205q-1 -9 -11 -9h-11z" />
<glyph unicode="-" horiz-adv-x="305" d="M46 300q-10 0 -10 10v15q0 10 10 10h213q10 0 10 -10v-15q0 -10 -10 -10h-213z" />
<glyph unicode="." horiz-adv-x="181" d="M90 5q-18 0 -30 14t-12 34q0 19 12.5 33t29.5 14q16 0 28.5 -14t12.5 -33q0 -20 -12 -34t-29 -14z" />
<glyph unicode="/" horiz-adv-x="258" d="M37 0q-12 0 -8 11l162 680q2 9 11 9h19q12 0 8 -11l-162 -680q-2 -9 -11 -9h-19z" />
<glyph unicode="0" horiz-adv-x="399" d="M198 -9q-71 0 -114 46t-43 122v382q0 76 43 122t114 46t115.5 -46t44.5 -122v-382q0 -76 -44.5 -122t-115.5 -46zM198 26q55 0 88 35.5t33 94.5v388q0 59 -33 94.5t-88 35.5q-53 0 -85.5 -36t-32.5 -94v-388q0 -58 32.5 -94t85.5 -36z" />
<glyph unicode="1" horiz-adv-x="236" d="M126 696q8 4 13 4h22q10 0 10 -10v-680q0 -10 -10 -10h-19q-10 0 -10 10v640q0 5 -5 2l-89 -47q-12 -5 -12 7v13q0 7 7 12z" />
<glyph unicode="2" horiz-adv-x="385" d="M56 0q-10 0 -10 10v18q0 7 3 13q12 21 75.5 131t96.5 168q68 122 68 200q0 60 -28.5 96.5t-75.5 36.5q-46 0 -73 -36.5t-26 -95.5v-36q0 -10 -10 -10h-21q-10 0 -10 10v37q1 74 40 120t101 46q64 0 103.5 -46.5t39.5 -121.5q0 -90 -72 -218q-53 -94 -161 -282q-3 -5 3 -5 h243q10 0 10 -10v-15q0 -10 -10 -10h-286z" />
<glyph unicode="3" horiz-adv-x="405" d="M325 333q17 -47 17 -126q0 -58 -10 -99q-13 -56 -48.5 -86t-90.5 -30q-116 0 -142 121q-8 38 -8 82q0 10 10 10h19q10 0 10 -10q0 -35 7 -72q22 -96 104 -96q79 0 102 88q9 39 9 95q0 72 -14 113q-25 77 -97 77q-6 0 -18 -2q-3 0 -4 -1q-7 -1 -12 4l-8 9q-5 7 -1 14 l142 236q2 5 -3 5h-234q-10 0 -10 10v15q0 10 10 10h274q10 0 10 -10v-18q0 -7 -3 -13l-132 -222q-2 -5 2 -5q44 -1 74.5 -28t44.5 -71z" />
<glyph unicode="4" horiz-adv-x="366" d="M330 234q10 0 10 -10v-16q0 -10 -10 -10h-29q-4 0 -4 -4v-184q0 -10 -10 -10h-19q-10 0 -10 10v184q0 4 -4 4h-218q-10 0 -10 10v16q0 4 2 12l157 456q3 8 12 8h21q11 0 8 -11l-154 -450q-2 -5 3 -5h179q4 0 4 4v174q0 10 10 10h19q10 0 10 -10v-174q0 -4 4 -4h29z" />
<glyph unicode="5" horiz-adv-x="395" d="M339 323q14 -47 14 -112q0 -51 -9 -92q-24 -127 -137 -127q-118 0 -139 132q0 5 -1.5 14.5t-2.5 15.5q-2 10 9 10h19q10 0 11 -10q2 -18 4 -28q18 -99 100 -99q75 0 98 93q9 39 9 91q0 57 -13 103q-23 80 -94 80q-83 0 -103 -83q-3 -9 -11 -9h-20q-10 0 -10 10v378 q0 10 10 10h249q10 0 10 -10v-15q0 -10 -10 -10h-216q-4 0 -4 -4l-1 -285q1 -4 5 -1q32 55 108 55q96 0 125 -107z" />
<glyph unicode="6" horiz-adv-x="396" d="M343 314q10 -40 10 -103q0 -51 -6 -80q-20 -139 -139 -139q-113 0 -137 129q-8 40 -8 89v330q0 76 40 122t105 46q59 0 97 -46.5t38 -121.5v-7q0 -10 -10 -10h-19q-10 0 -10 10v9q0 57 -27.5 93.5t-68.5 36.5q-47 0 -76.5 -36t-29.5 -94v-169q1 -4 4 -1q33 60 103 60 q106 0 134 -118zM309 135q5 38 5 78q0 58 -10 98q-23 86 -96 86q-76 0 -97 -92q-9 -41 -9 -92q0 -41 7 -85q21 -101 99 -101q81 0 101 108z" />
<glyph unicode="7" horiz-adv-x="347" d="M120 0q-12 0 -9 11l174 650q2 4 -4 4h-215q-4 0 -4 -4v-43q0 -10 -10 -10h-14q-10 0 -10 10v72q0 10 10 10h280q10 0 10 -10v-19q0 -2 -2 -12l-173 -650q-2 -9 -11 -9h-22z" />
<glyph unicode="8" horiz-adv-x="414" d="M275 377q-5 -2 0 -5q33 -17 53 -57q25 -50 25 -123q0 -50 -14 -97q-35 -103 -133 -103q-97 0 -131 103q-13 45 -13 98q0 65 19 112t57 66q4 3 0 6q-34 18 -53 51q-24 45 -24 107q0 64 23 105q38 69 122 69t121 -66q26 -40 26 -109q0 -66 -23 -103q-21 -37 -55 -54z M119 443q28 -51 87 -51q64 0 91 56q18 38 18 85q0 54 -22 92q-29 48 -87 48q-60 0 -88 -52q-18 -35 -18 -89q0 -53 19 -89zM303 112q10 38 10 81q0 64 -18 103q-26 62 -89 62q-64 0 -90 -68q-15 -38 -15 -97q0 -52 11 -85q25 -81 94 -81q73 0 97 85z" />
<glyph unicode="9" horiz-adv-x="389" d="M318 579q8 -40 8 -89v-330q0 -76 -40 -122t-105 -46q-59 0 -97 46.5t-38 121.5v7q0 10 10 10h19q10 0 10 -9v-10q0 -57 27.5 -93.5t68.5 -36.5q47 0 76.5 36t29.5 94v169q-1 4 -4 1q-33 -60 -103 -60q-106 0 -134 118q-10 40 -10 103q0 51 6 80q20 139 139 139 q113 0 137 -129zM181 303q76 0 97 92q9 41 9 92q0 41 -7 85q-21 101 -99 101q-81 0 -101 -108q-5 -38 -5 -78q0 -58 10 -98q23 -86 96 -86z" />
<glyph unicode=":" horiz-adv-x="182" d="M91 347q-17 0 -29 14t-12 34q0 19 12 32.5t29 13.5t29 -13.5t12 -32.5q0 -20 -12 -34t-29 -14zM91 6q-17 0 -29 14t-12 34q0 19 12 32.5t29 13.5t29 -13.5t12 -32.5q0 -20 -12 -34t-29 -14z" />
<glyph unicode=";" horiz-adv-x="175" d="M88 362q-18 0 -30 13.5t-12 33.5q0 19 12.5 33t29.5 14q16 0 28.5 -14t12.5 -33t-12 -33t-29 -14zM58 -65q-5 0 -8 3.5t-2 7.5l22 193q1 9 10 9h18q11 0 9 -11l-28 -193q-1 -9 -10 -9h-11z" />
<glyph unicode="&#x3c;" horiz-adv-x="443" d="M407 75q0 -12 -12 -7l-352 179q-7 3 -7 12v22q0 9 7 12l352 179q12 5 12 -7v-19q0 -9 -7 -12l-323 -161q-2 -1 -2 -3t2 -3l323 -161q7 -3 7 -12v-19z" />
<glyph unicode="=" horiz-adv-x="443" d="M46 428q-10 0 -10 10v12q0 10 10 10h351q10 0 10 -10v-12q0 -10 -10 -10h-351zM46 213q-10 0 -10 10v12q0 10 10 10h351q10 0 10 -10v-12q0 -10 -10 -10h-351z" />
<glyph unicode="&#x3e;" horiz-adv-x="443" d="M48 68q-12 -5 -12 7v19q0 9 7 12l323 161q2 1 2 3t-2 3l-323 161q-7 3 -7 12v19q0 12 12 7l352 -179q7 -3 7 -12v-22q0 -9 -7 -12z" />
<glyph unicode="?" horiz-adv-x="338" d="M145 190q-10 0 -10 10v70q0 35 13.5 62.5t32.5 47t37.5 40t32 52t13.5 71.5q0 59 -26 94.5t-68 35.5q-44 0 -71.5 -35.5t-27.5 -93.5v-37q0 -10 -10 -10l-19 1q-10 0 -10 10v36q0 74 38.5 119.5t99.5 45.5q60 0 96.5 -45.5t36.5 -121.5q0 -47 -13 -83t-31.5 -58 t-37.5 -40.5t-32 -41.5t-13 -50v-69q0 -10 -10 -10h-21zM158 4q-17 0 -28.5 14t-11.5 33t11.5 32t28.5 13q16 0 28 -13t12 -32t-12 -33t-28 -14z" />
<glyph unicode="@" horiz-adv-x="764" d="M423 598q142 0 219.5 -90t58.5 -238q-12 -92 -56 -144t-111 -52q-68 0 -93 51q-2 5 -5 0q-28 -52 -88 -52q-44 0 -69 29t-21 75q9 66 10 78q0 3 10 77q6 47 35 75.5t73 28.5q43 0 66 -34q3 -3 5 1l2 18q1 9 10 9h12q5 0 8 -3.5t2 -7.5l-28 -216q-5 -43 15.5 -71t61.5 -28 q49 0 83 42.5t44 121.5q19 136 -51 218t-198 82q-122 0 -214.5 -88.5t-109.5 -229.5q-17 -140 53 -225t190 -85q106 0 169 48q8 6 14 -2l6 -7q7 -8 -2 -14q-71 -56 -193 -56q-136 0 -212 94t-57 247q19 154 121.5 251t239.5 97zM351 102q30 0 51 21t26 55q4 26 10 76 q1 8 3.5 27t3.5 29l3 24q3 32 -13.5 52.5t-45.5 20.5q-30 0 -52 -21.5t-27 -54.5q-4 -22 -10 -77q-1 -5 -4.5 -33.5t-4.5 -42.5q-4 -33 13 -54.5t47 -21.5z" />
<glyph unicode="A" horiz-adv-x="434" d="M365 0q-9 0 -11 9l-29 136q0 4 -5 4h-206q-5 0 -5 -4l-29 -136q-2 -9 -11 -9h-19q-11 0 -9 11l152 680q1 9 11 9h24q9 0 11 -9l154 -680q2 -11 -9 -11h-19zM119 186q-2 -4 3 -4h190q5 0 3 4l-96 442q-2 8 -4 0z" />
<glyph unicode="B" horiz-adv-x="439" d="M309 365q-5 -2 0 -5q90 -45 91 -172q0 -89 -45.5 -138.5t-124.5 -49.5h-136q-10 0 -10 10v680q0 10 10 10h132q81 0 126 -46.5t45 -132.5q0 -117 -88 -156zM127 665q-4 0 -4 -4v-278q0 -4 4 -4h100q62 0 97 37t35 103q0 69 -35 107.5t-97 38.5h-100zM228 36 q62 0 97.5 40.5t35.5 113.5t-35.5 114.5t-97.5 41.5h-101q-4 0 -4 -4v-302q0 -4 4 -4h101z" />
<glyph unicode="C" horiz-adv-x="437" d="M221 -8q-70 0 -113 44.5t-43 117.5v393q0 73 43 117t113 44q71 0 114.5 -44t43.5 -117v-20q0 -10 -10 -10l-20 -1q-10 0 -10 10v23q0 56 -32.5 90t-85.5 34t-85 -34t-32 -90v-398q0 -56 32.5 -90t84.5 -34q53 0 85.5 34t32.5 90v22q0 10 10 10l20 -1q10 0 10 -10v-18 q0 -73 -43.5 -117.5t-114.5 -44.5z" />
<glyph unicode="D" horiz-adv-x="461" d="M94 0q-10 0 -10 10v680q0 10 10 10h141q71 0 112.5 -48.5t41.5 -133.5v-336q0 -85 -41.5 -133.5t-112.5 -48.5h-141zM123 39q0 -4 4 -4h109q52 1 82.5 40t30.5 107v335q0 69 -30 108.5t-83 39.5h-109q-4 0 -4 -4v-622z" />
<glyph unicode="E" horiz-adv-x="425" d="M378 675q0 -10 -10 -10h-241q-4 0 -4 -4v-289q0 -4 4 -4h158q10 0 10 -10v-15q0 -10 -10 -10h-158q-4 0 -4 -4v-290q0 -4 4 -4h241q10 0 10 -10v-15q0 -10 -10 -10h-274q-10 0 -10 10v680q0 10 10 10h274q10 0 10 -10v-15z" />
<glyph unicode="F" horiz-adv-x="396" d="M377 675q0 -10 -10 -10h-240q-4 0 -4 -4v-289q0 -4 4 -4h157q10 0 10 -10v-15q0 -10 -10 -10h-157q-4 0 -4 -4v-319q0 -10 -10 -10h-19q-10 0 -10 10v680q0 10 10 10h273q10 0 10 -10v-15z" />
<glyph unicode="G" horiz-adv-x="437" d="M221 -8q-70 0 -113 43t-43 114v402q0 71 43 114t113 43q71 0 114 -43t43 -114v-46q0 -10 -10 -10h-19q-10 0 -10 10v47q0 54 -32.5 87.5t-85.5 33.5q-52 0 -84.5 -33.5t-32.5 -87.5v-404q0 -54 32.5 -87.5t84.5 -33.5q53 0 85.5 33.5t32.5 87.5v152q0 4 -4 4h-100 q-10 0 -10 10v15q0 10 10 10h133q10 0 10 -10v-180q0 -71 -43 -114t-114 -43z" />
<glyph unicode="H" horiz-adv-x="468" d="M345 690q0 10 10 10h19q10 0 10 -10v-680q0 -10 -10 -10h-19q-10 0 -10 10v319q0 4 -4 4h-214q-4 0 -4 -4v-319q0 -10 -10 -10h-19q-10 0 -10 10v680q0 10 10 10h19q10 0 10 -10v-318q0 -4 4 -4h214q4 0 4 4v318z" />
<glyph unicode="I" horiz-adv-x="208" d="M94 0q-10 0 -10 10v680q0 10 10 10h19q10 0 10 -10v-680q0 -10 -10 -10h-19z" />
<glyph unicode="J" horiz-adv-x="413" d="M177 -8q-68 0 -109.5 44t-41.5 117v89q0 10 10 10h19q10 0 10 -10v-91q0 -56 31 -90t81 -34q51 0 82 34t31 90v539q0 10 10 10h19q10 0 10 -10v-537q0 -73 -42 -117t-110 -44z" />
<glyph unicode="K" horiz-adv-x="434" d="M94 0q-10 0 -10 10v680q0 10 10 10h19q10 0 10 -10v-357q0 -3 1.5 -3.5t3.5 2.5l222 361q5 7 12 7h23q14 0 7 -12l-159 -263q-3 -3 -1 -6l178 -407q5 -12 -8 -12h-24q-8 0 -11 8l-161 375q-1 4 -5 0l-76 -115q-2 -2 -2 -5v-253q0 -10 -10 -10h-19z" />
<glyph unicode="L" horiz-adv-x="382" d="M94 0q-10 0 -10 10v680q0 10 10 10h19q10 0 10 -10v-651q0 -4 4 -4h237q10 0 10 -10v-15q0 -10 -10 -10h-270z" />
<glyph unicode="M" horiz-adv-x="508" d="M94 0q-10 0 -10 10v680q0 10 10 10h21q8 0 11 -8l124 -307q1 -2 3 -2t3 2l126 307q3 8 11 8h21q10 0 10 -10v-680q0 -10 -10 -10h-19q-10 0 -10 10v588q0 2 -1 3q-3 1 -4 -2l-114 -277q-3 -8 -11 -8t-11 8l-116 277q-1 3 -4 2l-1 -3v-588q0 -10 -10 -10h-19z" />
<glyph unicode="N" horiz-adv-x="484" d="M94 0q-10 0 -10 10v680q0 10 10 10h21q8 0 11 -8l230 -585q1 -3 3 -2.5t2 3.5v582q0 10 10 10h19q10 0 10 -10v-680q0 -10 -10 -10h-22q-8 0 -11 8l-229 585q-1 3 -3 2.5t-2 -3.5v-582q0 -10 -10 -10h-19z" />
<glyph unicode="O" horiz-adv-x="448" d="M223 -8q-71 0 -114.5 45.5t-43.5 118.5v387q0 74 44 119.5t114 45.5q71 0 115.5 -46t44.5 -119v-387q0 -73 -44.5 -118.5t-115.5 -45.5zM223 27q54 0 87.5 35.5t33.5 91.5v391q0 57 -33.5 92.5t-87.5 35.5q-53 0 -86 -35.5t-33 -92.5v-391q0 -56 33 -91.5t86 -35.5z" />
<glyph unicode="P" horiz-adv-x="432" d="M242 702q68 0 109.5 -51.5t41.5 -135.5q0 -82 -41 -132.5t-109 -50.5h-116q-4 0 -4 -4v-318q0 -10 -10 -10h-19q-10 0 -10 10v682q0 10 10 10h148zM238 366q53 0 84.5 41t31.5 108q0 69 -31.5 110t-84.5 41h-111q-4 0 -4 -4v-292q0 -4 4 -4h111z" />
<glyph unicode="Q" horiz-adv-x="435" d="M218 708q68 0 110 -46t42 -120v-384q0 -68 -34.5 -112.5t-93.5 -52.5q-4 0 -4 -4v-102q0 -10 -10 -10h-20q-10 0 -10 10v102q0 4 -4 4q-58 8 -93.5 53t-35.5 112v384q0 74 42.5 120t110.5 46zM331 155v390q0 57 -31.5 92.5t-81.5 35.5t-82 -35.5t-32 -92.5v-390 q0 -57 32 -92.5t82 -35.5t81.5 35.5t31.5 92.5z" />
<glyph unicode="R" horiz-adv-x="431" d="M368 0q-9 0 -12 8l-117 325q-1 3 -4 3h-108q-4 0 -4 -4v-322q0 -10 -10 -10h-19q-10 0 -10 10v682q0 10 10 10h148q68 0 109.5 -51t41.5 -134q0 -69 -30.5 -116t-82.5 -61q-5 -2 -3 -5l117 -324q3 -11 -8 -11h-18zM127 666q-4 0 -4 -4v-288q0 -4 4 -4h111q52 0 84 40.5 t32 106.5q0 67 -31.5 108t-84.5 41h-111z" />
<glyph unicode="S" horiz-adv-x="415" d="M213 -8q-69 0 -111.5 48t-42.5 126v20q0 10 10 10h18q10 0 10 -10v-19q0 -63 32 -102t83 -39q50 0 83.5 37.5t33.5 98.5q0 25 -7.5 46.5t-15 35t-30 34t-33 28.5t-44.5 33q-39 29 -58 45t-41.5 42.5t-32 55.5t-9.5 65q0 75 41.5 118t107.5 43q70 0 112.5 -48.5 t42.5 -127.5v-25q0 -10 -10 -10h-19q-10 0 -10 10v25q0 64 -32 103t-84 39q-48 0 -79 -34t-31 -95q0 -52 26 -85t97 -86q85 -63 116 -102t31 -103q0 -80 -43 -128.5t-111 -48.5z" />
<glyph unicode="T" horiz-adv-x="402" d="M354 700q10 0 10 -10v-15q0 -10 -10 -10h-134q-4 0 -4 -4v-651q0 -10 -10 -10h-19q-10 0 -10 10v651q0 4 -4 4h-125q-10 0 -10 10v15q0 10 10 10h306z" />
<glyph unicode="U" horiz-adv-x="475" d="M237 -8q-72 0 -115.5 51t-43.5 135v512q0 10 10 10h19q10 0 10 -10v-516q0 -66 33 -106.5t87 -40.5t87.5 40.5t33.5 106.5v516q0 10 10 10h19q10 0 10 -10v-512q0 -84 -44.5 -135t-115.5 -51z" />
<glyph unicode="V" horiz-adv-x="417" d="M198 0q-10 0 -11 9l-146 680q-2 11 9 11h21q9 0 11 -9l125 -610q2 -8 4 0l125 610q2 9 11 9h20q11 0 9 -11l-145 -680q-1 -9 -11 -9h-22z" />
<glyph unicode="W" horiz-adv-x="593" d="M174 0q-10 0 -11 9l-130 680q-2 11 9 11h20q10 0 11 -9l110 -598q2 -6 4 0l93 598q2 9 10 9h19q9 0 10 -9l96 -598q2 -6 4 0l100 598q1 9 11 9h21q11 0 9 -11l-123 -680q-1 -9 -11 -9h-20q-8 0 -10 9l-94 596q-2 6 -4 0l-95 -596q-1 -9 -10 -9h-19z" />
<glyph unicode="X" horiz-adv-x="415" d="M52 0q-13 0 -8 12l142 335q2 3 0 6l-142 335q-5 12 8 12h21q8 0 11 -8l121 -299q1 -2 3 -2.5t3 2.5l120 299q3 8 11 8h21q13 0 8 -12l-143 -336q-2 -3 0 -6l143 -334q5 -12 -8 -12h-21q-8 0 -11 8l-120 298q-1 2 -3 2t-3 -2l-121 -298q-3 -8 -11 -8h-21z" />
<glyph unicode="Y" horiz-adv-x="401" d="M191 0q-10 0 -10 10v317q0 4 -1 5l-137 356q-5 12 8 12h20q9 0 12 -8l115 -315q1 -2 3 -2t3 2l114 315q3 8 12 8h20q13 0 8 -12l-137 -356q-1 -1 -1 -5v-317q0 -10 -10 -10h-19z" />
<glyph unicode="Z" horiz-adv-x="387" d="M49 0q-10 0 -10 10v19q0 7 2 12l257 619q2 5 -3 5h-246q-10 0 -10 10v15q0 10 10 10h283q10 0 10 -10v-19q0 -7 -2 -12l-257 -619q-3 -5 3 -5h246q10 0 10 -10v-15q0 -10 -10 -10h-283z" />
<glyph unicode="[" horiz-adv-x="283" d="M35 -109q-10 0 -10 10v851q0 10 10 10h131q10 0 10 -10v-15q0 -10 -10 -10h-98q-4 0 -4 -4v-793q0 -4 4 -4h99q10 0 10 -10v-15q0 -10 -10 -10h-132z" />
<glyph unicode="\" horiz-adv-x="258" d="M229 11q4 -11 -8 -11h-19q-9 0 -11 9l-162 680q-3 11 8 11h19q9 0 11 -9z" />
<glyph unicode="]" horiz-adv-x="283" d="M258 -99q0 -10 -10 -10h-132q-10 0 -10 10v15q0 10 10 10h99q4 0 4 4v793q0 4 -4 4h-98q-10 0 -10 10v15q0 10 10 10h131q10 0 10 -10v-851z" />
<glyph unicode="^" horiz-adv-x="384" d="M48 312q-11 0 -8 11l130 369q3 8 12 8h20q9 0 12 -8l130 -369q3 -11 -8 -11h-14q-9 0 -12 8l-115 332q-1 2 -3 2t-3 -2l-114 -332q-3 -8 -12 -8h-15z" />
<glyph unicode="_" horiz-adv-x="356" d="M36 0q-10 0 -10 10v14q0 10 10 10h284q10 0 10 -10v-14q0 -10 -10 -10h-284z" />
<glyph unicode="`" horiz-adv-x="165" d="M132 591q7 -12 -7 -12h-13q-7 0 -12 7l-67 111q-7 12 7 12h18q7 0 12 -7z" />
<glyph unicode="a" horiz-adv-x="396" d="M199 510q66 0 102.5 -45t36.5 -121v-334q0 -10 -10 -10h-19q-10 0 -10 10v42q-1 4 -5 1q-38 -61 -120 -61q-53 0 -90 30.5t-37 106.5q0 82 44.5 121t118.5 39h85q4 0 4 4v51q0 60 -26.5 95.5t-74.5 35.5q-37 0 -65.5 -23.5t-32.5 -61.5q0 -10 -10 -10l-21 1q-11 0 -9 11 q6 53 45.5 85.5t93.5 32.5zM181 27q48 0 83 30.5t35 88.5v105q0 4 -4 4h-84q-56 0 -90 -31t-34 -92q0 -54 25.5 -79.5t68.5 -25.5z" />
<glyph unicode="b" horiz-adv-x="412" d="M353 364q2 -76 2 -113q0 -36 -2 -114q-2 -66 -38.5 -105.5t-96.5 -39.5q-69 0 -103 55q-3 3 -5 -1v-36q0 -10 -10 -10h-19q-10 0 -10 10v680q0 10 10 10h19q10 0 10 -10v-234q1 -4 5 -1q33 55 102 55q60 0 97 -40t39 -106zM313 137q2 39 2 114q0 76 -2 115q-2 49 -30 79 t-73 30q-43 0 -69.5 -30.5t-27.5 -79.5q-3 -57 -3 -114q0 -55 3 -114q1 -49 28 -79.5t70 -30.5q45 0 72.5 30.5t29.5 79.5z" />
<glyph unicode="c" horiz-adv-x="388" d="M200 -8q-63 0 -102.5 41t-39.5 106v224q0 65 39.5 106t102.5 41t103 -38t40 -91v-4q0 -10 -10 -10l-19 -1q-10 0 -10 7v7q0 38 -29.5 66.5t-74.5 28.5t-74 -31.5t-29 -81.5v-222q0 -49 29 -81t74 -32t74.5 28.5t29.5 66.5v4q0 10 10 10h19q10 0 10 -7v-8q0 -53 -40 -91 t-103 -38z" />
<glyph unicode="d" horiz-adv-x="412" d="M302 690q0 10 10 10h19q10 0 10 -10v-680q0 -10 -10 -10h-19q-10 0 -10 10v36q-1 4 -5 1q-34 -55 -103 -55q-60 0 -96.5 39.5t-38.5 105.5q-2 78 -2 114q0 37 2 113q2 66 39 106t97 40q69 0 102 -55q3 -3 5 1v234zM299 137q3 59 3 114q0 57 -3 114q-1 49 -27.5 79.5 t-69.5 30.5q-45 0 -73 -30t-30 -79q-2 -39 -2 -115q0 -75 2 -114q2 -49 29.5 -79.5t72.5 -30.5q43 0 70 30.5t28 79.5z" />
<glyph unicode="e" horiz-adv-x="395" d="M343 250q0 -10 -10 -10h-232q-4 0 -4 -4v-96q0 -50 29 -81.5t74 -31.5q38 0 65 22t36 59q3 9 11 9l18 -1q12 0 9 -11q-9 -51 -46.5 -82t-92.5 -31q-63 0 -102.5 40.5t-39.5 105.5v225q0 65 39.5 106t102.5 41q64 0 103.5 -41t39.5 -106v-113zM200 475q-45 0 -74 -31.5 t-29 -81.5v-85q0 -4 4 -4h199q4 0 4 4v85q0 50 -29 81.5t-75 31.5z" />
<glyph unicode="f" horiz-adv-x="267" d="M207 674q-45 0 -61.5 -30.5t-16.5 -96.5v-41q0 -4 4 -4h85q10 0 10 -10v-12q0 -10 -10 -10h-85q-4 0 -4 -4v-456q0 -10 -10 -10h-19q-10 0 -10 10v456q0 4 -4 4h-44q-10 0 -10 10v12q0 10 10 10h44q4 0 4 4v41q0 82 26 122t90 40h15q10 0 10 -10v-15q0 -10 -10 -10h-14z " />
<glyph unicode="g" horiz-adv-x="401" d="M302 492q0 10 10 10h20q10 0 10 -10v-489q0 -207 -185 -204q-10 0 -10 10v16q0 10 10 10q77 -1 111 42t34 128v45q-1 4 -5 1q-34 -57 -104 -57q-61 0 -98 41t-37 105v223q0 65 37 106t98 41q70 0 104 -57q3 -3 5 1v38zM202 29q44 0 72 31.5t28 81.5v220q0 50 -28 81.5 t-72 31.5q-46 0 -75.5 -31.5t-29.5 -81.5v-220q0 -50 29.5 -81.5t75.5 -31.5z" />
<glyph unicode="h" horiz-adv-x="414" d="M222 509q61 0 94 -40.5t33 -112.5v-346q0 -10 -10 -10h-19q-10 0 -10 10v342q0 58 -26 90t-72 32q-47 0 -74.5 -34.5t-27.5 -94.5v-335q0 -10 -10 -10h-19q-10 0 -10 10v680q0 10 10 10h19q10 0 10 -10v-241q1 -4 5 -1q34 61 107 61z" />
<glyph unicode="i" horiz-adv-x="190" d="M96 612q-15 0 -25 10.5t-10 26.5t10 26.5t25 10.5q14 0 23.5 -10.5t9.5 -26.5t-9.5 -26.5t-23.5 -10.5zM86 0q-10 0 -10 10v482q0 10 10 10h19q10 0 10 -10v-482q0 -10 -10 -10h-19z" />
<glyph unicode="j" horiz-adv-x="182" d="M91 612q-15 0 -24.5 10.5t-9.5 27.5t9.5 26.5t24.5 9.5t25 -9.5t10 -26.5t-10 -27.5t-25 -10.5zM-7 -210q-10 0 -10 10v15q0 10 10 10q38 3 58 32.5t20 79.5v555q0 10 10 10h19q10 0 10 -10v-555q0 -143 -117 -147z" />
<glyph unicode="k" horiz-adv-x="385" d="M81 0q-10 0 -10 10v680q0 10 10 10h19q10 0 10 -10v-434q0 -2 2 -2.5t3 1.5l177 241q4 6 13 6h20q6 0 8 -4t-2 -8l-95 -130q-2 -4 -1 -5l116 -344q3 -11 -8 -11h-20q-9 0 -12 8l-100 313q-1 6 -6 1l-93 -127q-2 -2 -2 -5v-180q0 -10 -10 -10h-19z" />
<glyph unicode="l" horiz-adv-x="169" d="M75 0q-10 0 -10 10v680q0 10 10 10h19q10 0 10 -10v-680q0 -10 -10 -10h-19z" />
<glyph unicode="m" horiz-adv-x="635" d="M449 509q55 0 88.5 -44t33.5 -118v-337q0 -10 -10 -10h-19q-10 0 -10 10v333q0 60 -26 95.5t-68 35.5q-45 0 -71.5 -34.5t-26.5 -94.5v-335q0 -10 -10 -10h-18q-10 0 -10 10v333q0 60 -26 95.5t-67 35.5q-45 0 -72 -34.5t-27 -94.5v-335q0 -10 -10 -10h-19q-10 0 -10 10 v482q0 10 10 10h19q10 0 10 -10v-41q1 -4 5 -1q35 59 104 59q79 0 109 -81q2 -6 5 1q15 39 46 59.5t70 20.5z" />
<glyph unicode="n" horiz-adv-x="414" d="M222 509q61 0 94 -40.5t33 -112.5v-346q0 -10 -10 -10h-19q-10 0 -10 10v342q0 58 -26 90t-72 32q-47 0 -74.5 -34.5t-27.5 -94.5v-335q0 -10 -10 -10h-19q-10 0 -10 10v482q0 10 10 10h19q10 0 10 -10v-43q1 -4 5 -1q34 61 107 61z" />
<glyph unicode="o" horiz-adv-x="402" d="M200 -8q-63 0 -102.5 40.5t-39.5 105.5v225q0 65 39.5 106t102.5 41q64 0 103.5 -41t39.5 -106v-225q0 -65 -39.5 -105.5t-103.5 -40.5zM200 27q46 0 75 31.5t29 81.5v222q0 50 -29 81.5t-75 31.5q-45 0 -74 -31.5t-29 -81.5v-222q0 -50 29 -81.5t74 -31.5z" />
<glyph unicode="p" horiz-adv-x="419" d="M359 365q2 -78 2 -114q0 -37 -2 -113q-2 -66 -39 -106t-97 -40q-69 0 -102 55q-3 3 -5 -1v-234q0 -10 -10 -10h-19q-10 0 -10 10v680q0 10 10 10h19q10 0 10 -10v-36q1 -4 5 -1q34 55 103 55q60 0 96.5 -39.5t38.5 -105.5zM319 136q2 39 2 115q0 75 -2 114 q-2 49 -29.5 79.5t-72.5 30.5q-43 0 -70 -30.5t-28 -79.5q-3 -59 -3 -114q0 -57 3 -114q1 -49 27.5 -79.5t69.5 -30.5q45 0 73 30t30 79z" />
<glyph unicode="q" horiz-adv-x="419" d="M302 492q0 10 10 10h19q10 0 10 -10v-680q0 -10 -10 -10h-19q-10 0 -10 10v234q-1 4 -5 1q-33 -55 -102 -55q-60 0 -97 40t-39 106q-2 76 -2 113q0 36 2 114q2 66 38.5 105.5t96.5 39.5q69 0 103 -55q3 -3 5 1v36zM299 137q3 57 3 114q0 56 -3 114q-1 49 -28 79.5 t-70 30.5q-45 0 -72.5 -30.5t-29.5 -79.5q-2 -39 -2 -114q0 -76 2 -115q2 -49 30 -79t73 -30q43 0 69.5 30.5t27.5 79.5z" />
<glyph unicode="r" horiz-adv-x="278" d="M215 506q25 0 43 -10q7 -4 4 -13l-6 -20q-3 -9 -13 -5q-16 7 -36 6q-43 -1 -70 -42t-27 -102v-310q0 -10 -10 -10h-19q-10 0 -10 10v482q0 10 10 10h19q10 0 10 -10v-64q0 -6 4 -1q0 1 1 2q31 77 100 77z" />
<glyph unicode="s" horiz-adv-x="357" d="M187 -4q-62 0 -99.5 34.5t-37.5 88.5v5q0 10 10 10h18q10 0 10 -7v-8q0 -38 27 -64t72 -26q43 0 69.5 26.5t26.5 69.5q0 24 -8 42t-26.5 31t-32.5 20.5t-42 18.5q-28 12 -45 20.5t-37.5 24.5t-30 39.5t-9.5 54.5q0 60 36.5 95t96.5 35q61 0 97.5 -36t36.5 -93v-3 q0 -10 -10 -10h-17q-10 0 -10 7v7q0 40 -27 67.5t-70 27.5t-69 -27t-26 -69q0 -23 7.5 -39.5t25 -29.5t30.5 -20t39 -18q31 -13 47.5 -21t39 -25t33 -41.5t10.5 -56.5q0 -59 -36.5 -94.5t-98.5 -35.5z" />
<glyph unicode="t" horiz-adv-x="256" d="M223 480q0 -10 -10 -10h-83q-4 0 -4 -4v-336q0 -53 18 -74t57 -21h11q10 0 10 -10v-15q0 -10 -10 -10h-17q-53 0 -80.5 26t-27.5 97v343q0 4 -4 4h-41q-10 0 -10 10v12q0 10 10 10h41q4 0 4 4v112q0 10 10 10h19q10 0 10 -10v-112q0 -4 4 -4h83q10 0 10 -10v-12z" />
<glyph unicode="u" horiz-adv-x="413" d="M303 492q0 10 10 10h19q10 0 10 -10v-482q0 -10 -10 -10h-19q-10 0 -10 10v40q0 3 -1.5 3.5t-3.5 -2.5q-31 -58 -104 -58q-60 0 -94.5 37t-34.5 109v353q0 10 10 10h19q10 0 10 -10v-345q0 -58 25.5 -88.5t71.5 -30.5q47 0 74.5 34.5t27.5 94.5v335z" />
<glyph unicode="v" horiz-adv-x="353" d="M165 0q-9 0 -11 9l-125 482q-3 11 9 11h22q10 0 11 -9l104 -427q2 -8 4 0l103 427q2 9 11 9h23q11 0 8 -11l-124 -482q-2 -9 -11 -9h-24z" />
<glyph unicode="w" horiz-adv-x="527" d="M144 0q-10 0 -11 9l-105 482q-2 11 9 11h18q9 0 11 -9l86 -431q2 -8 4 0l86 431q2 9 11 9h19q10 0 11 -9l87 -431q2 -8 4 0l87 431q1 9 11 9h18q11 0 9 -11l-106 -482q-1 -9 -11 -9h-20q-10 0 -11 9l-87 414q-2 8 -4 0l-85 -414q-1 -9 -11 -9h-20z" />
<glyph unicode="x" horiz-adv-x="346" d="M32 0q-12 0 -7 12l126 236q1 3 0 6l-126 236q-5 12 7 12h23q9 0 12 -7l104 -206q1 -2 3 -2t3 2l104 206q3 7 12 7h21q12 0 7 -12l-125 -236q-2 -3 0 -6l125 -236q5 -12 -7 -12h-21q-9 0 -12 7l-104 207q-1 2 -3 2t-3 -2l-104 -207q-3 -7 -12 -7h-23z" />
<glyph unicode="y" horiz-adv-x="342" d="M47 -200q-6 0 -6 10v15q0 10 5 10h5q42 1 59.5 30t40.5 132v6l-129 488q-3 11 9 11h21q10 0 11 -9l107 -433q2 -8 4 0l106 433q2 9 11 9h20q12 0 9 -11l-142 -547q-24 -91 -48.5 -117.5t-77.5 -26.5h-5z" />
<glyph unicode="z" horiz-adv-x="355" d="M50 0q-10 0 -10 10v19q0 5 3 13l226 419q2 5 -2 5h-214q-10 0 -10 10v16q0 10 10 10h254q10 0 10 -10v-19q0 -5 -3 -13l-226 -419q-2 -5 2 -5h216q10 0 10 -10v-16q0 -10 -10 -10h-256z" />
<glyph unicode="{" horiz-adv-x="240" d="M170 -109q-47 0 -68 25.5t-21 83.5v222q0 80 -47 90q-9 2 -9 10v16q0 8 9 10q47 12 47 90v215q0 58 21 83.5t68 25.5h36q10 0 10 -10v-15q0 -10 -10 -10h-29q-30 0 -43.5 -18.5t-13.5 -60.5v-208q0 -85 -44 -107q-5 -2 0 -5q44 -25 44 -108v-215q0 -42 13.5 -60.5 t43.5 -18.5h29q10 0 10 -10v-15q0 -10 -10 -10h-36z" />
<glyph unicode="|" horiz-adv-x="124" d="M53 -80q-10 0 -10 10v820q0 10 10 10h19q10 0 10 -10v-820q0 -10 -10 -10h-19z" />
<glyph unicode="}" horiz-adv-x="240" d="M70 -109h-36q-10 0 -10 10v15q0 10 10 10h29q30 0 43.5 18.5t13.5 60.5v215q0 83 44 108q5 3 0 5q-44 22 -44 107v208q0 42 -13.5 60.5t-43.5 18.5h-29q-10 0 -10 10v15q0 10 10 10h36q47 0 68 -25.5t21 -83.5v-215q0 -78 47 -90q9 -2 9 -10v-16q0 -8 -9 -10 q-47 -10 -47 -90v-222q0 -58 -21 -83.5t-68 -25.5z" />
<glyph unicode="~" horiz-adv-x="448" d="M316 246q-8 0 -16 1t-14.5 2t-14 4t-12 4.5t-12.5 5.5t-11 6t-12 7t-11 6q-39 24 -71 24q-49 0 -76 -42q-5 -10 -14 -4l-8 6q-8 6 -4 13q31 63 100 63q39 0 82 -26q55 -34 94 -34q21 0 34.5 10t30.5 30q7 9 14 3l9 -6q8 -6 3 -14q-39 -59 -91 -59z" />
<glyph unicode="&#xa1;" horiz-adv-x="242" d="M119 708q17 0 29.5 -14t12.5 -34q0 -19 -12.5 -33t-29.5 -14q-16 0 -28.5 14t-12.5 33q0 20 12 34t29 14zM104 479q0 10 10 10h14q10 0 10 -10l3 -457q0 -10 -10 -10h-19q-10 0 -10 10z" />
<glyph unicode="&#xa2;" horiz-adv-x="388" d="M343 464q0 -7 -10 -7l-19 -1q-10 0 -10 7v7q0 38 -29.5 66.5t-74.5 28.5t-74 -31.5t-29 -81.5v-222q0 -49 29 -81t74 -32t74.5 28.5t29.5 66.5v4q0 10 10 10h19q10 0 10 -7v-8q0 -48 -34 -84.5t-88 -43.5q-4 0 -4 -4l1 -69q0 -10 -10 -10h-16q-10 0 -10 10l1 69q0 4 -4 4 q-55 8 -88 47.5t-33 98.5v224q0 59 33 98.5t88 47.5q4 0 4 4l-1 69q0 10 10 10h16q10 0 10 -10l-1 -69q0 -4 4 -4q54 -7 88 -43.5t34 -84.5v-7z" />
<glyph unicode="&#xa3;" horiz-adv-x="496" d="M159 39q-3 -5 2 -5h286q10 0 10 -10v-14q0 -10 -10 -10h-328q-10 0 -10 10v16q0 8 6 12q43 36 43 133v143q0 4 -4 4h-60q-10 0 -10 10v13q0 10 10 10h60q4 0 4 4v167q0 84 38.5 133t105.5 53q111 6 145 -122q2 -10 -8 -12l-17 -3q-11 -2 -12 8q-23 98 -107 95 q-51 -3 -79 -42t-28 -109v-168q0 -4 4 -4h148q10 0 10 -10v-13q0 -10 -10 -10h-148q-4 0 -4 -4v-141q0 -87 -37 -134z" />
<glyph unicode="&#xa4;" horiz-adv-x="486" d="M428 300q0 -66 -41 -116q-2 -3 1 -6l64 -64q6 -6 -1 -14l-11 -10q-6 -6 -14 1l-63 62q-3 3 -6 1q-50 -41 -118 -41q-64 0 -113 38q-3 2 -6 -1l-60 -59q-8 -7 -14 -1l-12 10q-8 8 -1 14l61 60q3 3 0 6q-44 54 -44 120q0 65 42 117q2 3 -1 6l-65 65q-6 6 1 14l12 10 q7 6 14 -1l63 -63q3 -3 6 -1q50 42 117 42t121 -44q3 -3 6 0l66 66q7 7 14 1l12 -10q8 -8 1 -14l-68 -68q-3 -3 -1 -6q38 -51 38 -114zM86 300q0 -63 45 -107.5t108 -44.5q64 0 108.5 44t44.5 108t-45 109t-108 45t-108 -45t-45 -109z" />
<glyph unicode="&#xa5;" horiz-adv-x="520" d="M433 324q0 -10 -10 -10h-144q-4 0 -4 -4v-79q0 -4 4 -4h144q10 0 10 -10v-8q0 -10 -10 -10h-144q-4 0 -4 -4v-185q0 -10 -10 -10h-19q-10 0 -10 10v185q0 4 -4 4h-136q-10 0 -10 10v8q0 10 10 10h136q4 0 4 4v79q0 4 -4 4h-136q-10 0 -10 10v9q0 10 10 10h130q6 0 3 5 l-131 340q-5 12 8 12h20q9 0 12 -8l115 -315q1 -2 3 -2t3 2l114 315q3 8 12 8h20q13 0 8 -12l-131 -340q-2 -5 3 -5h138q10 0 10 -10v-9z" />
<glyph unicode="&#xa6;" horiz-adv-x="124" d="M53 385q-10 0 -10 10v355q0 10 10 10h19q10 0 10 -10v-355q0 -10 -10 -10h-19zM53 -80q-10 0 -10 10v346q0 10 10 10h19q10 0 10 -10v-346q0 -10 -10 -10h-19z" />
<glyph unicode="&#xa7;" horiz-adv-x="377" d="M193 -207q-57 0 -92 42.5t-35 110.5v13q0 10 10 10h19q10 0 10 -10v-11q1 -53 25 -86.5t63 -33.5q40 0 65 33.5t25 83.5q0 31 -10 54.5t-30 39t-33.5 22.5t-36.5 16q-25 10 -39.5 17.5t-31.5 24t-27 39.5q-16 37 -16 87t23 95q24 48 66 61q5 2 0 5q-37 17 -60.5 57.5 t-23.5 93.5q0 66 35.5 108.5t92.5 42.5t91.5 -43t35.5 -112v-11q0 -10 -10 -10h-20q-10 0 -10 10v10q0 54 -24 87.5t-63 33.5q-40 0 -64.5 -34t-24.5 -86q0 -53 26.5 -83.5t81.5 -52.5q1 -1 9.5 -4.5t11.5 -5t11.5 -5.5t13 -7l12 -8t12.5 -10t10.5 -12t10.5 -15 q27 -41 27 -100q0 -56 -20 -96q-25 -50 -70 -62q-5 -2 0 -5q36 -16 59.5 -53.5t23.5 -90.5q0 -65 -35.5 -107.5t-93.5 -42.5zM193 118q57 0 82 55q15 35 15 77q0 49 -24 85q-27 41 -75 41q-28 0 -48.5 -17t-30.5 -41q-13 -32 -13 -72q0 -42 14 -74q24 -54 80 -54z" />
<glyph unicode="&#xa8;" horiz-adv-x="230" d="M59 606q-14 0 -23.5 10t-9.5 26q0 14 9.5 24.5t23.5 10.5q13 0 22 -10.5t9 -24.5q0 -16 -8.5 -26t-22.5 -10zM173 606q-14 0 -23.5 10t-9.5 26q0 14 9.5 24.5t23.5 10.5q13 0 22 -10.5t9 -24.5q0 -16 -8.5 -26t-22.5 -10z" />
<glyph unicode="&#xa9;" horiz-adv-x="854" d="M427 -8q-154 0 -258 103.5t-104 252.5q0 152 104 256t258 104t258.5 -104t104.5 -256q0 -149 -104.5 -252.5t-258.5 -103.5zM427 21q140 0 235.5 95t95.5 232q0 139 -95.5 235t-235.5 96q-141 0 -236.5 -96t-95.5 -235q0 -137 95.5 -232t236.5 -95zM427 182 q-36 0 -57.5 20t-21.5 53v183q0 33 21.5 53t57.5 20q37 0 59 -20t22 -53v-8q0 -10 -10 -10h-9q-10 0 -10 10v10q0 20 -14 32t-38 12q-23 0 -37 -12t-14 -32v-186q0 -20 14 -32.5t37 -12.5q24 0 38 12.5t14 32.5v10q0 10 10 10h9q10 0 10 -10v-9q0 -33 -22 -53t-59 -20z" />
<glyph unicode="&#xaa;" horiz-adv-x="267" d="M135 561h52q4 0 4 4v32q0 38 -16.5 60.5t-47.5 22.5q-22 0 -39.5 -14t-21.5 -36q-2 -11 -11 -9l-12 2q-10 2 -9 11q4 33 31 53.5t63 20.5q45 0 70.5 -29.5t25.5 -79.5v-218q0 -10 -10 -10h-13q-10 0 -10 10v18q0 6 -5 1q-25 -34 -73 -34q-87 0 -87 92q0 103 109 103z M117 394q30 0 52 19t22 55v61q0 4 -4 4h-51q-36 0 -57 -19t-21 -56q0 -64 59 -64zM24 306q0 10 10 10h194q10 0 10 -10v-11q0 -10 -10 -10h-194q-10 0 -10 10v11z" />
<glyph unicode="&#xab;" horiz-adv-x="478" d="M242 119q4 -5 2 -8.5t-8 -3.5h-16q-9 0 -13 6l-119 161q-5 7 0 14l119 161q4 6 13 6h16q6 0 8 -3.5t-2 -8.5l-118 -159q-2 -3 0 -6zM385 119q4 -5 2 -8.5t-8 -3.5h-16q-9 0 -13 6l-119 161q-5 7 0 14l119 161q4 6 13 6h16q6 0 8 -3.5t-2 -8.5l-118 -159q-1 -3 0 -6z" />
<glyph unicode="&#xac;" horiz-adv-x="443" d="M397 336q10 0 10 -10v-12l-1 -10h-1v-111q0 -10 -10 -10h-14q-10 0 -10 10v107q0 4 -4 4h-321q-10 0 -10 10v12q0 10 10 10h351z" />
<glyph unicode="&#xad;" horiz-adv-x="305" d="M46 300q-10 0 -10 10v15q0 10 10 10h213q10 0 10 -10v-15q0 -10 -10 -10h-213z" />
<glyph unicode="&#xae;" horiz-adv-x="439" d="M220 715q80 0 136.5 -56t56.5 -135q0 -80 -56.5 -136t-136.5 -56q-81 0 -137.5 56t-56.5 136t56.5 135.5t137.5 55.5zM220 358q69 0 117.5 48.5t48.5 117.5q0 68 -48.5 116.5t-117.5 48.5q-70 0 -118.5 -48.5t-48.5 -116.5q0 -69 48.5 -117.5t118.5 -48.5zM279 559 q0 -33 -27 -44q-3 -1 -2 -5l28 -64q5 -12 -8 -12h-6q-8 0 -11 8l-28 66q-1 3 -4 3h-22q-4 0 -4 -4v-63q0 -10 -10 -10h-3q-10 0 -10 10v157q0 10 10 10h48q22 0 35.5 -14.5t13.5 -37.5zM199 590q-4 0 -4 -4v-52q0 -4 4 -4h28q13 0 21 8t8 21q0 14 -8 22.5t-21 8.5h-28z" />
<glyph unicode="&#xaf;" horiz-adv-x="562" d="M192 602q-10 0 -10 10v11q0 10 10 10h175q10 0 10 -10v-11q0 -10 -10 -10h-175z" />
<glyph unicode="&#xb0;" horiz-adv-x="358" d="M179 498q-64 0 -108.5 45t-44.5 110t44.5 110t108.5 45t108.5 -45t44.5 -110t-44.5 -110t-108.5 -45zM179 529q51 0 86 36t35 88t-35 88t-86 36q-50 0 -85.5 -36t-35.5 -88t35.5 -88t85.5 -36z" />
<glyph unicode="&#xb1;" horiz-adv-x="443" d="M238 353q0 -4 4 -4h155q10 0 10 -10v-12q0 -10 -10 -10h-155q-4 0 -4 -4v-155q0 -10 -10 -10h-13q-10 0 -10 10v155q0 4 -4 4h-155q-10 0 -10 10v12q0 10 10 10h155q4 0 4 4v156q0 10 10 10h13q10 0 10 -10v-156zM46 36q-10 0 -10 10v12q0 10 10 10h351q10 0 10 -10v-12 q0 -10 -10 -10h-351z" />
<glyph unicode="&#xb2;" horiz-adv-x="235" d="M35 454q-10 0 -10 10v11q0 7 3 13q75 123 104 173q39 69 39 115q0 34 -16 54t-42 20q-25 0 -40 -20t-15 -53v-19q0 -10 -10 -10h-13q-10 0 -10 10v20q0 46 24.5 73.5t64.5 27.5q41 0 65.5 -27.5t24.5 -76.5q0 -53 -40 -127q-4 -7 -93 -161q-3 -5 3 -5h133q10 0 10 -10v-8 q0 -10 -10 -10h-172z" />
<glyph unicode="&#xb3;" horiz-adv-x="255" d="M204 642q7 -32 7 -63q0 -40 -11 -70q-20 -61 -84 -61q-36 0 -60 23.5t-30 61.5q-3 18 -3 35q0 10 10 10h12q10 0 10 -10q0 -11 2 -27q12 -63 59 -63q39 0 54 41q10 28 10 63q0 30 -6 56q-14 51 -58 51q-6 0 -9 -1q-9 -2 -14 3l-5 6q-5 6 -1 13l81 130q2 5 -3 5h-130 q-10 0 -10 10v8q0 10 10 10h163q10 0 10 -10v-11q0 -5 -4 -13l-74 -120q-2 -5 2 -5q54 -5 72 -72z" />
<glyph unicode="&#xb4;" horiz-adv-x="165" d="M40 579q-14 0 -7 12l62 111q5 7 12 7h18q14 0 7 -12l-67 -111q-5 -7 -12 -7h-13z" />
<glyph unicode="&#xb5;" horiz-adv-x="420" d="M309 492q0 10 10 10h19q10 0 10 -10v-482q0 -10 -10 -10h-19q-10 0 -10 10v40q0 3 -1.5 3.5t-3.5 -2.5q-31 -58 -104 -58q-54 0 -85 28q-5 3 -5 -3v-208q0 -10 -10 -10h-19q-10 0 -10 10v682q0 10 10 10h19q10 0 10 -10v-345q0 -58 25.5 -88.5t71.5 -30.5q47 0 74.5 34.5 t27.5 94.5v335z" />
<glyph unicode="&#xb6;" horiz-adv-x="450" d="M200 700h155q10 0 10 -10v-880q0 -10 -10 -10h-14q-10 0 -10 10v852q0 4 -4 4h-92q-4 0 -4 -4v-852q0 -10 -10 -10h-16q-10 0 -10 10v436q0 4 -4 4q-68 4 -110 68t-42 157q0 96 44.5 160.5t116.5 64.5z" />
<glyph unicode="&#xb7;" horiz-adv-x="83" d="M42 5q-18 0 -30 14t-12 34q0 19 12.5 33t29.5 14q16 0 28.5 -14t12.5 -33q0 -20 -12 -34t-29 -14z" />
<glyph unicode="&#xb8;" horiz-adv-x="106" d="M9 -180q-9 1 -7 12l2 7q2 10 12 7q51 -10 58 40t-40 102q-3 3 -3.5 6t1.5 4.5t6 1.5h8q7 0 10 -3l4 -4q56 -49 45 -118q-7 -38 -35 -50t-61 -5z" />
<glyph unicode="&#xb9;" horiz-adv-x="140" d="M65 871q5 3 13 3h16q10 0 10 -10v-400q0 -10 -10 -10h-13q-10 0 -10 10v371q0 5 -5 3l-22 -9q-12 -5 -12 8v6q0 7 7 12z" />
<glyph unicode="&#xba;" horiz-adv-x="273" d="M137 366q-44 0 -70.5 27t-26.5 71v146q0 43 26.5 70.5t70.5 27.5t70.5 -27.5t26.5 -70.5v-146q0 -44 -26.5 -71t-70.5 -27zM137 394q29 0 47 20t18 51v143q0 32 -18.5 52t-46.5 20t-46.5 -20t-18.5 -52v-143q0 -31 18 -51t47 -20zM40 285q-10 0 -10 10v11q0 10 10 10h194 q10 0 10 -10v-11q0 -10 -10 -10h-194z" />
<glyph unicode="&#xbb;" horiz-adv-x="478" d="M99 107q-6 0 -8 3.5t2 8.5l118 159q1 3 0 6l-118 159q-4 5 -2 8.5t8 3.5h16q9 0 13 -6l119 -161q5 -7 0 -14l-119 -161q-4 -6 -13 -6h-16zM242 107q-6 0 -8 3.5t2 8.5l118 159q2 3 0 6l-118 159q-4 5 -2 8.5t8 3.5h16q9 0 13 -6l119 -161q5 -7 0 -14l-119 -161 q-4 -6 -13 -6h-16z" />
<glyph unicode="&#xbc;" horiz-adv-x="639" d="M81 280q-10 0 -10 10v371q0 5 -5 3l-22 -9q-12 -5 -12 8v6q0 7 7 12l26 16q4 3 13 3h16q10 0 10 -10v-400q0 -10 -10 -10h-13zM512 693q5 7 12 7h13q13 0 6 -12l-440 -681q-5 -7 -12 -7h-12q-13 0 -6 12zM614 147q10 0 10 -10v-10q0 -10 -10 -10h-13q-4 0 -4 -4v-103 q0 -10 -10 -10h-11q-10 0 -10 10v103q0 4 -4 4h-128q-10 0 -10 10v10q0 4 2 12l90 263q3 8 12 8h14q11 0 8 -11l-88 -257q-2 -5 3 -5h97q4 0 4 4v92q0 10 10 10h11q10 0 10 -10v-92q0 -4 4 -4h13z" />
<glyph unicode="&#xbd;" horiz-adv-x="653" d="M81 280q-10 0 -10 10v371q0 5 -5 3l-22 -9q-12 -5 -12 8v6q0 7 7 12l26 16q4 3 13 3h16q10 0 10 -10v-400q0 -10 -10 -10h-13zM512 693q5 7 12 7h13q13 0 6 -12l-440 -681q-5 -7 -12 -7h-12q-13 0 -6 12zM489 33q-3 -5 3 -5h133q10 0 10 -10v-8q0 -10 -10 -10h-172 q-10 0 -10 10v11q0 7 3 13q75 123 104 173q39 69 39 115q0 34 -16 54t-42 20q-25 0 -40 -20t-15 -53v-19q0 -10 -10 -10h-13q-10 0 -10 10v20q0 46 24.5 73.5t64.5 27.5q41 0 65.5 -27.5t24.5 -76.5q0 -53 -40 -127q-4 -7 -93 -161z" />
<glyph unicode="&#xbe;" horiz-adv-x="705" d="M578 693q5 7 12 7h13q13 0 6 -12l-440 -681q-5 -7 -12 -7h-12q-13 0 -6 12zM200 333q-20 -61 -84 -61q-36 0 -60 23.5t-30 61.5q-3 18 -3 35q0 10 10 10h12q10 0 10 -10q0 -11 2 -27q12 -63 59 -63q39 0 54 41q10 28 10 63q0 30 -6 56q-14 51 -58 51q-6 0 -9 -1 q-9 -2 -14 3l-5 6q-5 6 -1 13l81 130q2 5 -3 5h-130q-10 0 -10 10v8q0 10 10 10h163q10 0 10 -10v-11q0 -5 -4 -13l-74 -120q-2 -5 2 -5q56 -6 72 -72q7 -32 7 -63q0 -40 -11 -70zM680 147q10 0 10 -10v-10q0 -10 -10 -10h-13q-4 0 -4 -4v-103q0 -10 -10 -10h-11 q-10 0 -10 10v103q0 4 -4 4h-128q-10 0 -10 10v10q0 4 2 12l90 263q3 8 12 8h14q11 0 8 -11l-88 -257q-2 -5 3 -5h97q4 0 4 4v92q0 10 10 10h11q10 0 10 -10v-92q0 -4 4 -4h13z" />
<glyph unicode="&#xbf;" horiz-adv-x="338" d="M180 496q17 0 28.5 -14t11.5 -33t-11.5 -32t-28.5 -13q-16 0 -28 13t-12 32t12 33t28 14zM193 310q10 0 10 -10v-70q0 -35 -13.5 -62.5t-32.5 -47t-37.5 -40t-32 -52t-13.5 -71.5q0 -59 26 -94.5t68 -35.5q44 0 71.5 35.5t27.5 93.5v37q0 10 10 10l19 -1q10 0 10 -10v-36 q0 -74 -38.5 -119.5t-99.5 -45.5q-60 0 -96.5 45.5t-36.5 121.5q0 47 13 83t32 58t37.5 40.5t31.5 41.5t13 50v69q0 10 10 10h21z" />
<glyph unicode="&#xc0;" horiz-adv-x="434" d="M229 789q7 -12 -7 -12h-13q-7 0 -12 7l-67 111q-7 12 7 12h18q7 0 12 -7zM365 0q-9 0 -11 9l-29 136q0 4 -5 4h-206q-5 0 -5 -4l-29 -136q-2 -9 -11 -9h-19q-11 0 -9 11l152 680q1 9 11 9h24q9 0 11 -9l154 -680q2 -11 -9 -11h-19zM119 186q-2 -4 3 -4h190q5 0 3 4 l-96 442q-2 8 -4 0z" />
<glyph unicode="&#xc1;" horiz-adv-x="434" d="M277 907q14 0 7 -12l-67 -111q-5 -7 -12 -7h-13q-14 0 -7 12l62 111q5 7 12 7h18zM365 0q-9 0 -11 9l-29 136q0 4 -5 4h-206q-5 0 -5 -4l-29 -136q-2 -9 -11 -9h-19q-11 0 -9 11l152 680q1 9 11 9h24q9 0 11 -9l154 -680q2 -11 -9 -11h-19zM119 186q-2 -4 3 -4h190 q5 0 3 4l-96 442q-2 8 -4 0z" />
<glyph unicode="&#xc2;" horiz-adv-x="434" d="M220 855q-1 1 -3 1t-3 -1l-50 -80q-5 -7 -12 -7h-21q-13 0 -6 12l66 101q5 7 12 7h26q7 0 12 -6l67 -102q7 -12 -6 -12h-21q-7 0 -12 7zM365 0q-9 0 -11 9l-29 136q0 4 -5 4h-206q-5 0 -5 -4l-29 -136q-2 -9 -11 -9h-19q-11 0 -9 11l152 680q1 9 11 9h24q9 0 11 -9 l154 -680q2 -11 -9 -11h-19zM119 186q-2 -4 3 -4h190q5 0 3 4l-96 442q-2 8 -4 0z" />
<glyph unicode="&#xc3;" horiz-adv-x="434" d="M177 843q-29 0 -48 -27q-6 -9 -14 -3l-6 4q-9 6 -3 14q26 44 70 44q22 0 55 -23t47 -23q27 0 46 31q5 10 14 4l6 -3q9 -6 5 -14q-26 -48 -73 -48q-22 0 -53 23q-32 21 -46 21zM365 0q-9 0 -11 9l-29 136q0 4 -5 4h-206q-5 0 -5 -4l-29 -136q-2 -9 -11 -9h-19q-11 0 -9 11 l152 680q1 9 11 9h24q9 0 11 -9l154 -680q2 -11 -9 -11h-19zM119 186q-2 -4 3 -4h190q5 0 3 4l-96 442q-2 8 -4 0z" />
<glyph unicode="&#xc4;" horiz-adv-x="434" d="M161 804q-14 0 -23.5 10t-9.5 26q0 14 9.5 24.5t23.5 10.5q13 0 22 -10.5t9 -24.5q0 -16 -8.5 -26t-22.5 -10zM275 804q-14 0 -23.5 10t-9.5 26q0 14 9.5 24.5t23.5 10.5q13 0 22 -10.5t9 -24.5q0 -16 -8.5 -26t-22.5 -10zM365 0q-9 0 -11 9l-29 136q0 4 -5 4h-206 q-5 0 -5 -4l-29 -136q-2 -9 -11 -9h-19q-11 0 -9 11l152 680q1 9 11 9h24q9 0 11 -9l154 -680q2 -11 -9 -11h-19zM119 186q-2 -4 3 -4h190q5 0 3 4l-96 442q-2 8 -4 0z" />
<glyph unicode="&#xc5;" horiz-adv-x="434" d="M217 775q-40 0 -68 29t-28 70q0 42 28 70.5t68 28.5q41 0 69 -28.5t28 -70.5q0 -41 -28 -70t-69 -29zM217 946q-29 0 -49 -20.5t-20 -51.5q0 -30 20 -51t49 -21t49.5 21t20.5 51t-20.5 51t-49.5 21zM365 0q-9 0 -11 9l-29 136q0 4 -5 4h-206q-5 0 -5 -4l-29 -136 q-2 -9 -11 -9h-19q-11 0 -9 11l152 680q1 9 11 9h24q9 0 11 -9l154 -680q2 -11 -9 -11h-19zM119 186q-2 -4 3 -4h190q5 0 3 4l-96 442q-2 8 -4 0z" />
<glyph unicode="&#xc6;" horiz-adv-x="702" d="M656 675q0 -10 -10 -10h-241q-4 0 -4 -4v-289q0 -4 4 -4h157q10 0 10 -10v-15q0 -10 -10 -10h-157q-4 0 -4 -4v-290q0 -4 4 -4h241q10 0 10 -10v-15q0 -10 -10 -10h-275q-10 0 -10 10v135q0 4 -4 4h-209q-2 0 -4 -3l-62 -138q-3 -8 -11 -8h-19q-13 0 -8 12l304 680 q3 8 11 8h287q10 0 10 -10v-15zM161 187q-3 -5 3 -5h193q4 0 4 4l1 442q0 2 -1 3q-3 1 -4 -2z" />
<glyph unicode="&#xc7;" horiz-adv-x="437" d="M379 527q0 -10 -10 -10l-20 -1q-10 0 -10 10v23q0 56 -32.5 90t-85.5 34t-85 -34t-32 -90v-398q0 -56 32.5 -90t84.5 -34q53 0 85.5 34t32.5 90v22q0 10 10 10l20 -1q10 0 10 -10v-18q0 -68 -37 -111t-100 -49q-6 -2 -1 -5q52 -50 41 -116q-7 -38 -35 -50t-61 -5 q-9 1 -7 12l2 7q2 10 12 7q51 -10 58 40q8 52 -45 107q-2 2 -5 2q-61 6 -98.5 49.5t-37.5 111.5v393q0 73 43 117t113 44q71 0 114.5 -44t43.5 -117v-20z" />
<glyph unicode="&#xc8;" horiz-adv-x="425" d="M243 799q7 -12 -7 -12h-13q-7 0 -12 7l-67 111q-7 12 7 12h18q7 0 12 -7zM378 675q0 -10 -10 -10h-241q-4 0 -4 -4v-289q0 -4 4 -4h158q10 0 10 -10v-15q0 -10 -10 -10h-158q-4 0 -4 -4v-290q0 -4 4 -4h241q10 0 10 -10v-15q0 -10 -10 -10h-274q-10 0 -10 10v680 q0 10 10 10h274q10 0 10 -10v-15z" />
<glyph unicode="&#xc9;" horiz-adv-x="425" d="M291 917q14 0 7 -12l-67 -111q-5 -7 -12 -7h-13q-14 0 -7 12l62 111q5 7 12 7h18zM378 675q0 -10 -10 -10h-241q-4 0 -4 -4v-289q0 -4 4 -4h158q10 0 10 -10v-15q0 -10 -10 -10h-158q-4 0 -4 -4v-290q0 -4 4 -4h241q10 0 10 -10v-15q0 -10 -10 -10h-274q-10 0 -10 10v680 q0 10 10 10h274q10 0 10 -10v-15z" />
<glyph unicode="&#xca;" horiz-adv-x="425" d="M234 865q-1 1 -3 1t-3 -1l-50 -80q-5 -7 -12 -7h-21q-13 0 -6 12l66 101q5 7 12 7h26q7 0 12 -6l67 -102q7 -12 -6 -12h-21q-7 0 -12 7zM378 675q0 -10 -10 -10h-241q-4 0 -4 -4v-289q0 -4 4 -4h158q10 0 10 -10v-15q0 -10 -10 -10h-158q-4 0 -4 -4v-290q0 -4 4 -4h241 q10 0 10 -10v-15q0 -10 -10 -10h-274q-10 0 -10 10v680q0 10 10 10h274q10 0 10 -10v-15z" />
<glyph unicode="&#xcb;" horiz-adv-x="425" d="M175 814q-14 0 -23.5 10t-9.5 26q0 14 9.5 24.5t23.5 10.5q13 0 22 -10.5t9 -24.5q0 -16 -8.5 -26t-22.5 -10zM289 814q-14 0 -23.5 10t-9.5 26q0 14 9.5 24.5t23.5 10.5q13 0 22 -10.5t9 -24.5q0 -16 -8.5 -26t-22.5 -10zM378 675q0 -10 -10 -10h-241q-4 0 -4 -4v-289 q0 -4 4 -4h158q10 0 10 -10v-15q0 -10 -10 -10h-158q-4 0 -4 -4v-290q0 -4 4 -4h241q10 0 10 -10v-15q0 -10 -10 -10h-274q-10 0 -10 10v680q0 10 10 10h274q10 0 10 -10v-15z" />
<glyph unicode="&#xcc;" horiz-adv-x="208" d="M116 799q7 -12 -7 -12h-13q-7 0 -12 7l-67 111q-7 12 7 12h18q7 0 12 -7zM94 0q-10 0 -10 10v680q0 10 10 10h19q10 0 10 -10v-680q0 -10 -10 -10h-19z" />
<glyph unicode="&#xcd;" horiz-adv-x="208" d="M79 787q-14 0 -7 12l62 111q5 7 12 7h18q14 0 7 -12l-67 -111q-5 -7 -12 -7h-13zM94 0q-10 0 -10 10v680q0 10 10 10h19q10 0 10 -10v-680q0 -10 -10 -10h-19z" />
<glyph unicode="&#xce;" horiz-adv-x="208" d="M18 778q-13 0 -6 12l66 101q5 7 12 7h26q8 0 12 -6l67 -102q7 -12 -6 -12h-21q-7 0 -12 7l-49 80q-1 1 -3 1t-3 -1l-50 -80q-5 -7 -12 -7h-21zM94 0q-10 0 -10 10v680q0 10 10 10h19q10 0 10 -10v-680q0 -10 -10 -10h-19z" />
<glyph unicode="&#xcf;" horiz-adv-x="208" d="M48 814q-14 0 -23.5 10t-9.5 26q0 14 9.5 24.5t23.5 10.5q13 0 22 -10.5t9 -24.5q0 -16 -8.5 -26t-22.5 -10zM162 814q-14 0 -23.5 10t-9.5 26q0 14 9.5 24.5t23.5 10.5q13 0 22 -10.5t9 -24.5q0 -16 -8.5 -26t-22.5 -10zM94 0q-10 0 -10 10v680q0 10 10 10h19 q10 0 10 -10v-680q0 -10 -10 -10h-19z" />
<glyph unicode="&#xd0;" horiz-adv-x="509" d="M284 700q71 0 112.5 -48.5t41.5 -133.5v-336q0 -85 -41.5 -133.5t-112.5 -48.5h-141q-10 0 -10 10v337q0 4 -4 4h-35q-10 0 -10 10v9q0 10 10 10h35q4 0 4 4v306q0 10 10 10h141zM398 182v335q0 69 -30 108.5t-83 39.5h-109q-4 0 -4 -4v-277q0 -4 4 -4h92q10 0 10 -10v-9 q0 -10 -10 -10h-92q-4 0 -4 -4v-308q0 -4 4 -4h109q52 1 82.5 40t30.5 107z" />
<glyph unicode="&#xd1;" horiz-adv-x="484" d="M301 809q-22 0 -53 23q-32 21 -46 21q-29 0 -48 -27q-6 -9 -14 -3l-6 4q-9 6 -3 14q26 44 70 44q22 0 55 -23t47 -23q27 0 46 31q5 10 14 4l6 -3q10 -6 1 -21q-26 -41 -69 -41zM94 0q-10 0 -10 10v680q0 10 10 10h21q8 0 11 -8l230 -585q1 -3 3 -2.5t2 3.5v582 q0 10 10 10h19q10 0 10 -10v-680q0 -10 -10 -10h-22q-8 0 -11 8l-229 585q-1 3 -3 2.5t-2 -3.5v-582q0 -10 -10 -10h-19z" />
<glyph unicode="&#xd2;" horiz-adv-x="448" d="M235 789q7 -12 -7 -12h-13q-7 0 -12 7l-67 111q-7 12 7 12h18q7 0 12 -7zM223 -8q-71 0 -114.5 45.5t-43.5 118.5v387q0 74 44 119.5t114 45.5q71 0 115.5 -46t44.5 -119v-387q0 -73 -44.5 -118.5t-115.5 -45.5zM223 27q54 0 87.5 35.5t33.5 91.5v391q0 57 -33.5 92.5 t-87.5 35.5q-53 0 -86 -35.5t-33 -92.5v-391q0 -56 33 -91.5t86 -35.5z" />
<glyph unicode="&#xd3;" horiz-adv-x="448" d="M198 777q-14 0 -7 12l62 111q5 7 12 7h18q14 0 7 -12l-67 -111q-5 -7 -12 -7h-13zM223 -8q-71 0 -114.5 45.5t-43.5 118.5v387q0 74 44 119.5t114 45.5q71 0 115.5 -46t44.5 -119v-387q0 -73 -44.5 -118.5t-115.5 -45.5zM223 27q54 0 87.5 35.5t33.5 91.5v391 q0 57 -33.5 92.5t-87.5 35.5q-53 0 -86 -35.5t-33 -92.5v-391q0 -56 33 -91.5t86 -35.5z" />
<glyph unicode="&#xd4;" horiz-adv-x="448" d="M137 768q-13 0 -6 12l66 101q5 7 12 7h26q7 0 12 -6l67 -102q7 -12 -6 -12h-21q-7 0 -12 7l-49 80q-1 1 -3 1t-3 -1l-50 -80q-5 -7 -12 -7h-21zM223 -8q-71 0 -114.5 45.5t-43.5 118.5v387q0 74 44 119.5t114 45.5q71 0 115.5 -46t44.5 -119v-387q0 -73 -44.5 -118.5 t-115.5 -45.5zM223 27q54 0 87.5 35.5t33.5 91.5v391q0 57 -33.5 92.5t-87.5 35.5q-53 0 -86 -35.5t-33 -92.5v-391q0 -56 33 -91.5t86 -35.5z" />
<glyph unicode="&#xd5;" horiz-adv-x="448" d="M282 799q-22 0 -53 23q-32 21 -46 21q-29 0 -48 -27q-6 -9 -14 -3l-6 4q-9 6 -3 14q26 44 70 44q22 0 55 -23t47 -23q27 0 46 31q5 10 14 4l6 -3q10 -6 1 -21q-26 -41 -69 -41zM223 -8q-71 0 -114.5 45.5t-43.5 118.5v387q0 74 44 119.5t114 45.5q71 0 115.5 -46 t44.5 -119v-387q0 -73 -44.5 -118.5t-115.5 -45.5zM223 27q54 0 87.5 35.5t33.5 91.5v391q0 57 -33.5 92.5t-87.5 35.5q-53 0 -86 -35.5t-33 -92.5v-391q0 -56 33 -91.5t86 -35.5z" />
<glyph unicode="&#xd6;" horiz-adv-x="448" d="M167 804q-14 0 -23.5 10t-9.5 26q0 14 9.5 24.5t23.5 10.5q13 0 22 -10.5t9 -24.5q0 -16 -8.5 -26t-22.5 -10zM281 804q-14 0 -23.5 10t-9.5 26q0 14 9.5 24.5t23.5 10.5q13 0 22 -10.5t9 -24.5q0 -16 -8.5 -26t-22.5 -10zM223 -8q-71 0 -114.5 45.5t-43.5 118.5v387 q0 74 44 119.5t114 45.5q71 0 115.5 -46t44.5 -119v-387q0 -73 -44.5 -118.5t-115.5 -45.5zM223 27q54 0 87.5 35.5t33.5 91.5v391q0 57 -33.5 92.5t-87.5 35.5q-53 0 -86 -35.5t-33 -92.5v-391q0 -56 33 -91.5t86 -35.5z" />
<glyph unicode="&#xd7;" horiz-adv-x="357" d="M313 438q6 -8 0 -14l-109 -109q-3 -3 0 -6l109 -110q7 -7 0 -14l-9 -9q-7 -7 -14 0l-109 110q-3 3 -6 0l-110 -110q-7 -7 -14 0l-9 8q-7 7 0 14l110 110q3 3 0 6l-110 110q-7 7 0 14l9 9q7 7 14 0l110 -110q3 -3 6 0l110 110q8 8 14 0z" />
<glyph unicode="&#xd8;" horiz-adv-x="476" d="M398 741q13 0 8 -12l-36 -89q-2 -3 1 -6q23 -38 23 -91v-387q0 -73 -44.5 -118.5t-115.5 -45.5q-63 0 -105 37q-4 3 -6 -2l-21 -52q-3 -8 -11 -8h-13q-13 0 -8 12l31 77q2 3 -1 6q-24 39 -24 94v387q0 74 44 119.5t114 45.5q66 0 109 -40q4 -2 6 2l25 63q3 8 11 8h13z M115 154q0 -24 5 -39q1 -2 2.5 -2t2.5 2l205 508q1 2 -1 6q-33 44 -95 44q-53 0 -86 -35.5t-33 -92.5v-391zM355 545q0 20 -4 35q-1 3 -2.5 3t-2.5 -3l-204 -506q-1 -2 1 -6q33 -41 91 -41q54 0 87.5 35.5t33.5 91.5v391z" />
<glyph unicode="&#xd9;" horiz-adv-x="475" d="M249 799q7 -12 -7 -12h-13q-7 0 -12 7l-67 111q-7 12 7 12h18q7 0 12 -7zM237 -8q-72 0 -115.5 51t-43.5 135v512q0 10 10 10h19q10 0 10 -10v-516q0 -66 33 -106.5t87 -40.5t87.5 40.5t33.5 106.5v516q0 10 10 10h19q10 0 10 -10v-512q0 -84 -44.5 -135t-115.5 -51z" />
<glyph unicode="&#xda;" horiz-adv-x="475" d="M212 787q-14 0 -7 12l62 111q5 7 12 7h18q14 0 7 -12l-67 -111q-5 -7 -12 -7h-13zM237 -8q-72 0 -115.5 51t-43.5 135v512q0 10 10 10h19q10 0 10 -10v-516q0 -66 33 -106.5t87 -40.5t87.5 40.5t33.5 106.5v516q0 10 10 10h19q10 0 10 -10v-512q0 -84 -44.5 -135 t-115.5 -51z" />
<glyph unicode="&#xdb;" horiz-adv-x="475" d="M151 778q-13 0 -6 12l66 101q5 7 12 7h26q7 0 12 -6l67 -102q7 -12 -6 -12h-21q-7 0 -12 7l-49 80q-1 1 -3 1t-3 -1l-50 -80q-5 -7 -12 -7h-21zM237 -8q-72 0 -115.5 51t-43.5 135v512q0 10 10 10h19q10 0 10 -10v-516q0 -66 33 -106.5t87 -40.5t87.5 40.5t33.5 106.5 v516q0 10 10 10h19q10 0 10 -10v-512q0 -84 -44.5 -135t-115.5 -51z" />
<glyph unicode="&#xdc;" horiz-adv-x="475" d="M181 814q-14 0 -23.5 10t-9.5 26q0 14 9.5 24.5t23.5 10.5q13 0 22 -10.5t9 -24.5q0 -16 -8.5 -26t-22.5 -10zM295 814q-14 0 -23.5 10t-9.5 26q0 14 9.5 24.5t23.5 10.5q13 0 22 -10.5t9 -24.5q0 -16 -8.5 -26t-22.5 -10zM237 -8q-72 0 -115.5 51t-43.5 135v512 q0 10 10 10h19q10 0 10 -10v-516q0 -66 33 -106.5t87 -40.5t87.5 40.5t33.5 106.5v516q0 10 10 10h19q10 0 10 -10v-512q0 -84 -44.5 -135t-115.5 -51z" />
<glyph unicode="&#xdd;" horiz-adv-x="401" d="M176 777q-14 0 -7 12l62 111q5 7 12 7h18q14 0 7 -12l-67 -111q-5 -7 -12 -7h-13zM191 0q-10 0 -10 10v317q0 4 -1 5l-137 356q-5 12 8 12h20q9 0 12 -8l115 -315q1 -2 3 -2t3 2l114 315q3 8 12 8h20q13 0 8 -12l-137 -356q-1 -1 -1 -5v-317q0 -10 -10 -10h-19z" />
<glyph unicode="&#xde;" horiz-adv-x="432" d="M241 537q68 0 110 -51.5t42 -135.5q0 -82 -41.5 -132.5t-109.5 -50.5h-115q-4 0 -4 -4v-153q0 -10 -10 -10h-19q-10 0 -10 10v680q0 10 10 10h19q10 0 10 -10v-149q0 -4 4 -4h114zM238 201q52 0 84 41t32 108q0 69 -32 110.5t-84 41.5h-111q-4 0 -4 -4v-293q0 -4 4 -4 h111z" />
<glyph unicode="&#xdf;" horiz-adv-x="416" d="M81 0q-10 0 -10 10v512q0 88 36.5 137.5t100.5 49.5q66 0 104.5 -49t40.5 -133q3 -121 -70 -158q-5 -2 0 -5q35 -19 55 -64.5t20 -109.5q0 -88 -41 -139t-115 -51h-40q-10 0 -10 10v14q0 10 10 10l41 1q56 1 86 41.5t30 115.5t-26 116t-73 43h-42q-10 0 -10 10v14 q0 10 10 10h42q47 0 71 36.5t23 103.5q-1 70 -29 109.5t-77 39.5q-46 0 -72 -39t-26 -110v-515q0 -10 -10 -10h-19z" />
<glyph unicode="&#xe0;" horiz-adv-x="396" d="M208 599q7 -12 -7 -12h-13q-7 0 -12 7l-67 111q-7 12 7 12h18q7 0 12 -7zM199 510q66 0 102.5 -45t36.5 -121v-334q0 -10 -10 -10h-19q-10 0 -10 10v42q-1 4 -5 1q-38 -61 -120 -61q-53 0 -90 30.5t-37 106.5q0 82 44.5 121t118.5 39h85q4 0 4 4v51q0 60 -26.5 95.5 t-74.5 35.5q-37 0 -65.5 -23.5t-32.5 -61.5q0 -10 -10 -10l-21 1q-11 0 -9 11q6 53 45.5 85.5t93.5 32.5zM181 27q48 0 83 30.5t35 88.5v105q0 4 -4 4h-84q-56 0 -90 -31t-34 -92q0 -54 25.5 -79.5t68.5 -25.5z" />
<glyph unicode="&#xe1;" horiz-adv-x="396" d="M256 717q14 0 7 -12l-67 -111q-5 -7 -12 -7h-13q-14 0 -7 12l62 111q5 7 12 7h18zM199 510q66 0 102.5 -45t36.5 -121v-334q0 -10 -10 -10h-19q-10 0 -10 10v42q-1 4 -5 1q-38 -61 -120 -61q-53 0 -90 30.5t-37 106.5q0 82 44.5 121t118.5 39h85q4 0 4 4v51 q0 60 -26.5 95.5t-74.5 35.5q-37 0 -65.5 -23.5t-32.5 -61.5q0 -10 -10 -10l-21 1q-11 0 -9 11q6 53 45.5 85.5t93.5 32.5zM181 27q48 0 83 30.5t35 88.5v105q0 4 -4 4h-84q-56 0 -90 -31t-34 -92q0 -54 25.5 -79.5t68.5 -25.5z" />
<glyph unicode="&#xe2;" horiz-adv-x="396" d="M199 665q-1 1 -3 1t-3 -1l-50 -80q-5 -7 -12 -7h-21q-13 0 -6 12l66 101q5 7 12 7h26q8 0 12 -6l67 -102q7 -12 -6 -12h-21q-7 0 -12 7zM199 510q66 0 102.5 -45t36.5 -121v-334q0 -10 -10 -10h-19q-10 0 -10 10v42q-1 4 -5 1q-38 -61 -120 -61q-53 0 -90 30.5t-37 106.5 q0 82 44.5 121t118.5 39h85q4 0 4 4v51q0 60 -26.5 95.5t-74.5 35.5q-37 0 -65.5 -23.5t-32.5 -61.5q0 -10 -10 -10l-21 1q-11 0 -9 11q6 53 45.5 85.5t93.5 32.5zM181 27q48 0 83 30.5t35 88.5v105q0 4 -4 4h-84q-56 0 -90 -31t-34 -92q0 -54 25.5 -79.5t68.5 -25.5z" />
<glyph unicode="&#xe3;" horiz-adv-x="396" d="M156 653q-29 0 -48 -27q-6 -9 -14 -3l-6 4q-9 6 -3 14q26 44 70 44q22 0 55 -23t47 -23q27 0 46 31q5 10 14 4l6 -3q9 -6 5 -14q-26 -48 -73 -48q-22 0 -53 23q-32 21 -46 21zM199 510q66 0 102.5 -45t36.5 -121v-334q0 -10 -10 -10h-19q-10 0 -10 10v42q-1 4 -5 1 q-38 -61 -120 -61q-53 0 -90 30.5t-37 106.5q0 82 44.5 121t118.5 39h85q4 0 4 4v51q0 60 -26.5 95.5t-74.5 35.5q-37 0 -65.5 -23.5t-32.5 -61.5q0 -10 -10 -10l-21 1q-11 0 -9 11q6 53 45.5 85.5t93.5 32.5zM181 27q48 0 83 30.5t35 88.5v105q0 4 -4 4h-84q-56 0 -90 -31 t-34 -92q0 -54 25.5 -79.5t68.5 -25.5z" />
<glyph unicode="&#xe4;" horiz-adv-x="396" d="M140 614q-14 0 -23.5 10t-9.5 26q0 14 9.5 24.5t23.5 10.5q13 0 22 -10.5t9 -24.5q0 -16 -8.5 -26t-22.5 -10zM254 614q-14 0 -23.5 10t-9.5 26q0 14 9.5 24.5t23.5 10.5q13 0 22 -10.5t9 -24.5q0 -16 -8.5 -26t-22.5 -10zM199 510q66 0 102.5 -45t36.5 -121v-334 q0 -10 -10 -10h-19q-10 0 -10 10v42q-1 4 -5 1q-38 -61 -120 -61q-53 0 -90 30.5t-37 106.5q0 82 44.5 121t118.5 39h85q4 0 4 4v51q0 60 -26.5 95.5t-74.5 35.5q-37 0 -65.5 -23.5t-32.5 -61.5q0 -10 -10 -10l-21 1q-11 0 -9 11q6 53 45.5 85.5t93.5 32.5zM181 27 q48 0 83 30.5t35 88.5v105q0 4 -4 4h-84q-56 0 -90 -31t-34 -92q0 -54 25.5 -79.5t68.5 -25.5z" />
<glyph unicode="&#xe5;" horiz-adv-x="396" d="M196 585q-40 0 -68 29t-28 70q0 42 28 70.5t68 28.5q41 0 69 -28.5t28 -70.5q0 -41 -28 -70t-69 -29zM196 756q-29 0 -49 -20.5t-20 -51.5q0 -30 20 -51t49 -21t49.5 21t20.5 51t-20.5 51t-49.5 21zM199 510q66 0 102.5 -45t36.5 -121v-334q0 -10 -10 -10h-19 q-10 0 -10 10v42q-1 4 -5 1q-38 -61 -120 -61q-53 0 -90 30.5t-37 106.5q0 82 44.5 121t118.5 39h85q4 0 4 4v51q0 60 -26.5 95.5t-74.5 35.5q-37 0 -65.5 -23.5t-32.5 -61.5q0 -10 -10 -10l-21 1q-11 0 -9 11q6 53 45.5 85.5t93.5 32.5zM181 27q48 0 83 30.5t35 88.5v105 q0 4 -4 4h-84q-56 0 -90 -31t-34 -92q0 -54 25.5 -79.5t68.5 -25.5z" />
<glyph unicode="&#xe6;" horiz-adv-x="637" d="M173 -8q-126 0 -126 137q0 150 160 150h87q4 0 4 4v61q0 60 -26 95.5t-75 35.5q-38 0 -66.5 -24t-32.5 -61q-2 -10 -11 -9l-20 1q-11 0 -9 11q6 53 45.5 85t94.5 32q83 0 117 -75q2 -5 5 0q37 75 123 75q63 0 102.5 -41t39.5 -106v-108q0 -10 -10 -10h-232q-4 0 -4 -4 v-101q0 -49 28.5 -80t74.5 -31q38 0 64.5 21.5t35.5 57.5q3 9 11 9l19 -1q5 0 7.5 -3.5t1.5 -7.5q-10 -51 -46.5 -82t-90.5 -31q-46 0 -80 23t-47 61q-2 6 -4 0q-15 -41 -53 -62.5t-87 -21.5zM339 282q0 -4 4 -4h199q4 0 4 4v80q0 50 -29 81.5t-75 31.5t-74.5 -31.5 t-28.5 -81.5v-80zM181 26q48 0 82.5 30t34.5 87v97q0 4 -4 4h-84q-123 0 -123 -114q0 -53 26 -78.5t68 -25.5z" />
<glyph unicode="&#xe7;" horiz-adv-x="388" d="M343 374q0 -7 -10 -7l-19 -1q-10 0 -10 7v7q0 38 -29.5 66.5t-74.5 28.5t-74 -31.5t-29 -81.5v-222q0 -49 29 -81t74 -32t74.5 28.5t29.5 66.5v4q0 10 10 10h19q10 0 10 -7v-8q0 -48 -33.5 -84.5t-88.5 -42.5q-6 -2 -1 -5q52 -50 41 -116q-7 -38 -35 -50t-61 -5 q-9 1 -7 12l2 7q2 10 12 7q51 -10 58 40q8 52 -45 107q-2 2 -5 2q-55 6 -88.5 46.5t-33.5 99.5v224q0 65 39.5 106t102.5 41t103 -38t40 -91v-7z" />
<glyph unicode="&#xe8;" horiz-adv-x="395" d="M212 599q7 -12 -7 -12h-13q-7 0 -12 7l-67 111q-7 12 7 12h18q7 0 12 -7zM343 250q0 -10 -10 -10h-232q-4 0 -4 -4v-96q0 -50 29 -81.5t74 -31.5q38 0 65 22t36 59q3 9 11 9l18 -1q12 0 9 -11q-9 -51 -46.5 -82t-92.5 -31q-63 0 -102.5 40.5t-39.5 105.5v225 q0 65 39.5 106t102.5 41q64 0 103.5 -41t39.5 -106v-113zM200 475q-45 0 -74 -31.5t-29 -81.5v-85q0 -4 4 -4h199q4 0 4 4v85q0 50 -29 81.5t-75 31.5z" />
<glyph unicode="&#xe9;" horiz-adv-x="395" d="M260 717q14 0 7 -12l-67 -111q-5 -7 -12 -7h-13q-14 0 -7 12l62 111q5 7 12 7h18zM343 250q0 -10 -10 -10h-232q-4 0 -4 -4v-96q0 -50 29 -81.5t74 -31.5q38 0 65 22t36 59q3 9 11 9l18 -1q12 0 9 -11q-9 -51 -46.5 -82t-92.5 -31q-63 0 -102.5 40.5t-39.5 105.5v225 q0 65 39.5 106t102.5 41q64 0 103.5 -41t39.5 -106v-113zM200 475q-45 0 -74 -31.5t-29 -81.5v-85q0 -4 4 -4h199q4 0 4 4v85q0 50 -29 81.5t-75 31.5z" />
<glyph unicode="&#xea;" horiz-adv-x="395" d="M203 665q-1 1 -3 1t-3 -1l-50 -80q-5 -7 -12 -7h-21q-13 0 -6 12l66 101q5 7 12 7h26q8 0 12 -6l67 -102q7 -12 -6 -12h-21q-7 0 -12 7zM343 250q0 -10 -10 -10h-232q-4 0 -4 -4v-96q0 -50 29 -81.5t74 -31.5q38 0 65 22t36 59q3 9 11 9l18 -1q12 0 9 -11 q-9 -51 -46.5 -82t-92.5 -31q-63 0 -102.5 40.5t-39.5 105.5v225q0 65 39.5 106t102.5 41q64 0 103.5 -41t39.5 -106v-113zM200 475q-45 0 -74 -31.5t-29 -81.5v-85q0 -4 4 -4h199q4 0 4 4v85q0 50 -29 81.5t-75 31.5z" />
<glyph unicode="&#xeb;" horiz-adv-x="395" d="M144 614q-14 0 -23.5 10t-9.5 26q0 14 9.5 24.5t23.5 10.5q13 0 22 -10.5t9 -24.5q0 -16 -8.5 -26t-22.5 -10zM258 614q-14 0 -23.5 10t-9.5 26q0 14 9.5 24.5t23.5 10.5q13 0 22 -10.5t9 -24.5q0 -16 -8.5 -26t-22.5 -10zM343 250q0 -10 -10 -10h-232q-4 0 -4 -4v-96 q0 -50 29 -81.5t74 -31.5q38 0 65 22t36 59q3 9 11 9l18 -1q12 0 9 -11q-9 -51 -46.5 -82t-92.5 -31q-63 0 -102.5 40.5t-39.5 105.5v225q0 65 39.5 106t102.5 41q64 0 103.5 -41t39.5 -106v-113zM200 475q-45 0 -74 -31.5t-29 -81.5v-85q0 -4 4 -4h199q4 0 4 4v85 q0 50 -29 81.5t-75 31.5z" />
<glyph unicode="&#xec;" horiz-adv-x="174" d="M98 600q7 -12 -7 -12h-13q-7 0 -12 7l-67 111q-7 12 7 12h18q7 0 12 -7zM76 0q-10 0 -10 10v482q0 10 10 10h19q10 0 10 -10v-482q0 -10 -10 -10h-19z" />
<glyph unicode="&#xed;" horiz-adv-x="174" d="M61 588q-14 0 -7 12l62 111q5 7 12 7h18q14 0 7 -12l-67 -111q-5 -7 -12 -7h-13zM76 0q-10 0 -10 10v482q0 10 10 10h19q10 0 10 -10v-482q0 -10 -10 -10h-19z" />
<glyph unicode="&#xee;" horiz-adv-x="174" d="M0 579q-13 0 -6 12l66 101q5 7 12 7h26q8 0 12 -6l67 -102q7 -12 -6 -12h-21q-7 0 -12 7l-49 80q-1 2 -3 2t-3 -2l-50 -80q-5 -7 -12 -7h-21zM76 0q-10 0 -10 10v482q0 10 10 10h19q10 0 10 -10v-482q0 -10 -10 -10h-19z" />
<glyph unicode="&#xef;" horiz-adv-x="174" d="M30 615q-14 0 -23.5 10t-9.5 26q0 14 9.5 24.5t23.5 10.5q13 0 22 -10.5t9 -24.5q0 -16 -8.5 -26t-22.5 -10zM144 615q-14 0 -23.5 10t-9.5 26q0 14 9.5 24.5t23.5 10.5q13 0 22 -10.5t9 -24.5q0 -16 -8.5 -26t-22.5 -10zM76 0q-10 0 -10 10v482q0 10 10 10h19 q10 0 10 -10v-482q0 -10 -10 -10h-19z" />
<glyph unicode="&#xf0;" horiz-adv-x="424" d="M284 605q-3 -2 -2 -5q57 -96 61 -241v-32.5v-39v-38.5v-110q0 -65 -39.5 -106t-103.5 -41q-63 0 -102.5 41t-39.5 106v220q0 64 39 105.5t100 41.5q58 0 96 -41q3 -2 4 1q-10 68 -45 125q-2 4 -5 2l-72 -23q-10 -3 -13 7l-1 6q-3 9 6 12l63 21q5 2 2 5q-30 39 -59 67 q-5 4 -3.5 8t8.5 4h16q7 0 12 -5q38 -38 57 -65q2 -4 5 -2l80 26q10 3 13 -7l2 -5q3 -10 -7 -13zM304 358q0 50 -29 81.5t-75 31.5q-45 0 -74 -32t-29 -81v-218q0 -49 29 -81t74 -32q46 0 75 31.5t29 81.5v218z" />
<glyph unicode="&#xf1;" horiz-adv-x="414" d="M177 651q-24 0 -39 -26q-7 -10 -15 -3l-3 2q-7 7 -3 14q22 45 59 45q18 0 47 -23q27 -23 39 -23q23 0 38 30q6 9 14 4l4 -2q8 -5 4 -14q-21 -48 -61 -48q-18 0 -45 23q-2 2 -7.5 6.5t-8 6t-6.5 4t-8 3.5t-9 1zM222 509q61 0 94 -40.5t33 -112.5v-346q0 -10 -10 -10h-19 q-10 0 -10 10v342q0 58 -26 90t-72 32q-47 0 -74.5 -34.5t-27.5 -94.5v-335q0 -10 -10 -10h-19q-10 0 -10 10v482q0 10 10 10h19q10 0 10 -10v-43q1 -4 5 -1q34 61 107 61z" />
<glyph unicode="&#xf2;" horiz-adv-x="402" d="M212 599q7 -12 -7 -12h-13q-7 0 -12 7l-67 111q-7 12 7 12h18q7 0 12 -7zM200 -8q-63 0 -102.5 40.5t-39.5 105.5v225q0 65 39.5 106t102.5 41q64 0 103.5 -41t39.5 -106v-225q0 -65 -39.5 -105.5t-103.5 -40.5zM200 27q46 0 75 31.5t29 81.5v222q0 50 -29 81.5t-75 31.5 q-45 0 -74 -31.5t-29 -81.5v-222q0 -50 29 -81.5t74 -31.5z" />
<glyph unicode="&#xf3;" horiz-adv-x="402" d="M175 587q-14 0 -7 12l62 111q5 7 12 7h18q14 0 7 -12l-67 -111q-5 -7 -12 -7h-13zM200 -8q-63 0 -102.5 40.5t-39.5 105.5v225q0 65 39.5 106t102.5 41q64 0 103.5 -41t39.5 -106v-225q0 -65 -39.5 -105.5t-103.5 -40.5zM200 27q46 0 75 31.5t29 81.5v222q0 50 -29 81.5 t-75 31.5q-45 0 -74 -31.5t-29 -81.5v-222q0 -50 29 -81.5t74 -31.5z" />
<glyph unicode="&#xf4;" horiz-adv-x="402" d="M114 578q-13 0 -6 12l66 101q5 7 12 7h26q8 0 12 -6l67 -102q7 -12 -6 -12h-21q-7 0 -12 7l-49 80q-1 1 -3 1t-3 -1l-50 -80q-5 -7 -12 -7h-21zM200 -8q-63 0 -102.5 40.5t-39.5 105.5v225q0 65 39.5 106t102.5 41q64 0 103.5 -41t39.5 -106v-225q0 -65 -39.5 -105.5 t-103.5 -40.5zM200 27q46 0 75 31.5t29 81.5v222q0 50 -29 81.5t-75 31.5q-45 0 -74 -31.5t-29 -81.5v-222q0 -50 29 -81.5t74 -31.5z" />
<glyph unicode="&#xf5;" horiz-adv-x="402" d="M259 609q-22 0 -53 23q-32 21 -46 21q-29 0 -48 -27q-6 -9 -14 -3l-6 4q-9 6 -3 14q26 44 70 44q22 0 55 -23t47 -23q27 0 46 31q5 10 14 4l6 -3q10 -6 1 -21q-26 -41 -69 -41zM200 -8q-63 0 -102.5 40.5t-39.5 105.5v225q0 65 39.5 106t102.5 41q64 0 103.5 -41 t39.5 -106v-225q0 -65 -39.5 -105.5t-103.5 -40.5zM200 27q46 0 75 31.5t29 81.5v222q0 50 -29 81.5t-75 31.5q-45 0 -74 -31.5t-29 -81.5v-222q0 -50 29 -81.5t74 -31.5z" />
<glyph unicode="&#xf6;" horiz-adv-x="402" d="M144 614q-14 0 -23.5 10t-9.5 26q0 14 9.5 24.5t23.5 10.5q13 0 22 -10.5t9 -24.5q0 -16 -8.5 -26t-22.5 -10zM258 614q-14 0 -23.5 10t-9.5 26q0 14 9.5 24.5t23.5 10.5q13 0 22 -10.5t9 -24.5q0 -16 -8.5 -26t-22.5 -10zM200 -8q-63 0 -102.5 40.5t-39.5 105.5v225 q0 65 39.5 106t102.5 41q64 0 103.5 -41t39.5 -106v-225q0 -65 -39.5 -105.5t-103.5 -40.5zM200 27q46 0 75 31.5t29 81.5v222q0 50 -29 81.5t-75 31.5q-45 0 -74 -31.5t-29 -81.5v-222q0 -50 29 -81.5t74 -31.5z" />
<glyph unicode="&#xf7;" horiz-adv-x="443" d="M221 433q-19 0 -32 13t-13 32q0 18 13.5 31t31.5 13t32 -13t14 -31q0 -19 -14 -32t-32 -13zM46 315q-10 0 -10 10v12q0 10 10 10h351q10 0 10 -10v-12q0 -10 -10 -10h-351zM221 143q-19 0 -32 13t-13 32q0 18 13.5 31t31.5 13t32 -13t14 -31t-14 -31.5t-32 -13.5z" />
<glyph unicode="&#xf8;" horiz-adv-x="407" d="M318 460q-1 -2 1 -6q27 -36 27 -91v-225q0 -65 -39.5 -105.5t-103.5 -40.5q-47 0 -81 23q-4 3 -6 -1l-13 -29q-4 -8 -13 -4l-12 6q-8 5 -5 13l18 39q1 2 -1 6q-29 37 -29 93v225q0 65 39.5 106t102.5 41q49 0 84 -24q4 -3 6 1l16 35q4 8 13 4l12 -6q9 -5 5 -14zM100 140 q0 -25 8 -49q4 -6 6 0l160 353q1 3 -1 5q-28 26 -70 26q-45 0 -74 -31.5t-29 -81.5v-222zM307 362q0 26 -7 46q-4 6 -6 0l-159 -352q-1 -3 2 -5q27 -24 66 -24q46 0 75 31.5t29 81.5v222z" />
<glyph unicode="&#xf9;" horiz-adv-x="413" d="M215 591q7 -12 -7 -12h-13q-7 0 -12 7l-67 111q-7 12 7 12h18q7 0 12 -7zM303 492q0 10 10 10h19q10 0 10 -10v-482q0 -10 -10 -10h-19q-10 0 -10 10v40q0 3 -1.5 3.5t-3.5 -2.5q-31 -58 -104 -58q-60 0 -94.5 37t-34.5 109v353q0 10 10 10h19q10 0 10 -10v-345 q0 -58 25.5 -88.5t71.5 -30.5q47 0 74.5 34.5t27.5 94.5v335z" />
<glyph unicode="&#xfa;" horiz-adv-x="413" d="M263 709q14 0 7 -12l-67 -111q-5 -7 -12 -7h-13q-14 0 -7 12l62 111q5 7 12 7h18zM303 492q0 10 10 10h19q10 0 10 -10v-482q0 -10 -10 -10h-19q-10 0 -10 10v40q0 3 -1.5 3.5t-3.5 -2.5q-31 -58 -104 -58q-60 0 -94.5 37t-34.5 109v353q0 10 10 10h19q10 0 10 -10v-345 q0 -58 25.5 -88.5t71.5 -30.5q47 0 74.5 34.5t27.5 94.5v335z" />
<glyph unicode="&#xfb;" horiz-adv-x="413" d="M206 657q-1 1 -3 1t-3 -1l-50 -80q-5 -7 -12 -7h-21q-13 0 -6 12l66 101q5 7 12 7h26q7 0 12 -6l67 -102q7 -12 -6 -12h-21q-7 0 -12 7zM303 492q0 10 10 10h19q10 0 10 -10v-482q0 -10 -10 -10h-19q-10 0 -10 10v40q0 3 -1.5 3.5t-3.5 -2.5q-31 -58 -104 -58 q-60 0 -94.5 37t-34.5 109v353q0 10 10 10h19q10 0 10 -10v-345q0 -58 25.5 -88.5t71.5 -30.5q47 0 74.5 34.5t27.5 94.5v335z" />
<glyph unicode="&#xfc;" horiz-adv-x="413" d="M147 606q-14 0 -23.5 10t-9.5 26q0 14 9.5 24.5t23.5 10.5q13 0 22 -10.5t9 -24.5q0 -16 -8.5 -26t-22.5 -10zM261 606q-14 0 -23.5 10t-9.5 26q0 14 9.5 24.5t23.5 10.5q13 0 22 -10.5t9 -24.5q0 -16 -8.5 -26t-22.5 -10zM303 492q0 10 10 10h19q10 0 10 -10v-482 q0 -10 -10 -10h-19q-10 0 -10 10v40q0 3 -1.5 3.5t-3.5 -2.5q-31 -58 -104 -58q-60 0 -94.5 37t-34.5 109v353q0 10 10 10h19q10 0 10 -10v-345q0 -58 25.5 -88.5t71.5 -30.5q47 0 74.5 34.5t27.5 94.5v335z" />
<glyph unicode="&#xfd;" horiz-adv-x="342" d="M147 579q-14 0 -7 12l62 111q5 7 12 7h18q14 0 7 -12l-67 -111q-5 -7 -12 -7h-13zM47 -200q-6 0 -6 10v15q0 10 5 10h5q42 1 59.5 30t40.5 132v6l-129 488q-3 11 9 11h21q10 0 11 -9l107 -433q2 -8 4 0l106 433q2 9 11 9h20q12 0 9 -11l-142 -547q-24 -91 -48.5 -117.5 t-77.5 -26.5h-5z" />
<glyph unicode="&#xfe;" horiz-adv-x="406" d="M347 364q2 -76 2 -113q0 -36 -2 -114q-2 -66 -38.5 -105.5t-96.5 -39.5q-69 0 -103 55q-3 3 -5 -1v-236q0 -10 -10 -10h-19q-10 0 -10 10v880q0 10 10 10h19q10 0 10 -10v-234q1 -4 5 -1q33 55 102 55q60 0 97 -40t39 -106zM307 137q2 39 2 114q0 76 -2 115q-2 49 -30 79 t-73 30q-43 0 -69.5 -30.5t-27.5 -79.5q-3 -57 -3 -114q0 -55 3 -114q1 -49 28 -79.5t70 -30.5q45 0 72.5 30.5t29.5 79.5z" />
<glyph unicode="&#xff;" horiz-adv-x="342" d="M116 606q-14 0 -23.5 10t-9.5 26q0 14 9.5 24.5t23.5 10.5q13 0 22 -10.5t9 -24.5q0 -16 -8.5 -26t-22.5 -10zM230 606q-14 0 -23.5 10t-9.5 26q0 14 9.5 24.5t23.5 10.5q13 0 22 -10.5t9 -24.5q0 -16 -8.5 -26t-22.5 -10zM47 -200q-6 0 -6 10v15q0 10 5 10h5 q42 1 59.5 30t40.5 132v6l-129 488q-3 11 9 11h21q10 0 11 -9l107 -433q2 -8 4 0l106 433q2 9 11 9h20q12 0 9 -11l-142 -547q-24 -91 -48.5 -117.5t-77.5 -26.5h-5z" />
<glyph unicode="&#x100;" horiz-adv-x="434" d="M304 831q10 0 10 -10v-11q0 -10 -10 -10h-175q-10 0 -10 10v11q0 10 10 10h175zM365 0q-9 0 -11 9l-29 136q0 4 -5 4h-206q-5 0 -5 -4l-29 -136q-2 -9 -11 -9h-19q-11 0 -9 11l152 680q1 9 11 9h24q9 0 11 -9l154 -680q2 -11 -9 -11h-19zM119 186q-2 -4 3 -4h190q5 0 3 4 l-96 442q-2 8 -4 0z" />
<glyph unicode="&#x101;" horiz-adv-x="396" d="M283 641q10 0 10 -10v-11q0 -10 -10 -10h-175q-10 0 -10 10v11q0 10 10 10h175zM199 510q66 0 102.5 -45t36.5 -121v-334q0 -10 -10 -10h-19q-10 0 -10 10v42q-1 4 -5 1q-38 -61 -120 -61q-53 0 -90 30.5t-37 106.5q0 82 44.5 121t118.5 39h85q4 0 4 4v51 q0 60 -26.5 95.5t-74.5 35.5q-37 0 -65.5 -23.5t-32.5 -61.5q0 -10 -10 -10l-21 1q-11 0 -9 11q6 53 45.5 85.5t93.5 32.5zM181 27q48 0 83 30.5t35 88.5v105q0 4 -4 4h-84q-56 0 -90 -31t-34 -92q0 -54 25.5 -79.5t68.5 -25.5z" />
<glyph unicode="&#x102;" horiz-adv-x="434" d="M217 760q-39 0 -66.5 25.5t-31.5 64.5q0 10 10 10h9q10 0 11 -10q3 -28 22.5 -45.5t45.5 -17.5t45.5 17.5t22.5 45.5q1 10 11 10h9q11 0 9 -10q-3 -38 -30.5 -64t-66.5 -26zM365 0q-9 0 -11 9l-29 136q0 4 -5 4h-206q-5 0 -5 -4l-29 -136q-2 -9 -11 -9h-19q-11 0 -9 11 l152 680q1 9 11 9h24q9 0 11 -9l154 -680q2 -11 -9 -11h-19zM119 186q-2 -4 3 -4h190q5 0 3 4l-96 442q-2 8 -4 0z" />
<glyph unicode="&#x103;" horiz-adv-x="396" d="M196 570q-39 0 -66.5 25.5t-31.5 64.5q0 10 10 10h9q10 0 11 -10q3 -28 22.5 -45.5t45.5 -17.5t45.5 17.5t22.5 45.5q1 10 11 10h9q11 0 9 -10q-3 -38 -30.5 -64t-66.5 -26zM199 510q66 0 102.5 -45t36.5 -121v-334q0 -10 -10 -10h-19q-10 0 -10 10v42q-1 4 -5 1 q-38 -61 -120 -61q-53 0 -90 30.5t-37 106.5q0 82 44.5 121t118.5 39h85q4 0 4 4v51q0 60 -26.5 95.5t-74.5 35.5q-37 0 -65.5 -23.5t-32.5 -61.5q0 -10 -10 -10l-21 1q-11 0 -9 11q6 53 45.5 85.5t93.5 32.5zM181 27q48 0 83 30.5t35 88.5v105q0 4 -4 4h-84q-56 0 -90 -31 t-34 -92q0 -54 25.5 -79.5t68.5 -25.5z" />
<glyph unicode="&#x104;" horiz-adv-x="456" d="M399 -154q10 3 12 -7l2 -7q2 -11 -8 -12q-32 -7 -60 5t-35 50q-11 70 49 122q2 2 -1 4q-3 3 -4 8l-29 136q0 4 -5 4h-206q-5 0 -5 -4l-29 -136q-2 -9 -11 -9h-19q-11 0 -9 11l152 680q1 9 11 9h24q9 0 11 -9l154 -680l1 -11h-1q-60 -56 -52 -114q7 -50 58 -40zM119 186 q-2 -4 3 -4h190q5 0 3 4l-96 442q-2 8 -4 0z" />
<glyph unicode="&#x105;" horiz-adv-x="600" d="M344 -154q10 3 12 -7l2 -7q2 -11 -8 -12q-32 -7 -60 5t-35 50q-11 70 49 122q2 2 -1 4q-4 3 -4 9v42q-1 4 -5 1q-38 -61 -120 -61q-53 0 -90 30.5t-37 106.5q0 82 44.5 121t118.5 39h85q4 0 4 4v51q0 60 -26.5 95.5t-74.5 35.5q-37 0 -65.5 -23.5t-32.5 -61.5 q0 -10 -10 -10l-21 1q-11 0 -9 11q6 52 45.5 85t93.5 33q66 0 102.5 -45t36.5 -121v-337q0 -5 -5 -12q-55 -55 -47 -109q7 -50 58 -40zM181 27q48 0 83 30.5t35 88.5v105q0 4 -4 4h-84q-56 0 -90 -31t-34 -92q0 -54 25.5 -79.5t68.5 -25.5z" />
<glyph unicode="&#x106;" horiz-adv-x="437" d="M196 785q-14 0 -7 12l62 111q5 7 12 7h18q14 0 7 -12l-67 -111q-5 -7 -12 -7h-13zM221 -8q-70 0 -113 44.5t-43 117.5v393q0 73 43 117t113 44q71 0 114.5 -44t43.5 -117v-20q0 -10 -10 -10l-20 -1q-10 0 -10 10v23q0 56 -32.5 90t-85.5 34t-85 -34t-32 -90v-398 q0 -56 32.5 -90t84.5 -34q53 0 85.5 34t32.5 90v22q0 10 10 10l20 -1q10 0 10 -10v-18q0 -73 -43.5 -117.5t-114.5 -44.5z" />
<glyph unicode="&#x107;" horiz-adv-x="388" d="M175 587q-14 0 -7 12l62 111q5 7 12 7h18q14 0 7 -12l-67 -111q-5 -7 -12 -7h-13zM200 -8q-63 0 -102.5 41t-39.5 106v224q0 65 39.5 106t102.5 41t103 -38t40 -91v-4q0 -10 -10 -10l-19 -1q-10 0 -10 7v7q0 38 -29.5 66.5t-74.5 28.5t-74 -31.5t-29 -81.5v-222 q0 -49 29 -81t74 -32t74.5 28.5t29.5 66.5v4q0 10 10 10h19q10 0 10 -7v-8q0 -53 -40 -91t-103 -38z" />
<glyph unicode="&#x10a;" horiz-adv-x="437" d="M221 794q-14 0 -23 10t-9 25q0 14 9.5 24t22.5 10t22 -10t9 -24q0 -15 -9 -25t-22 -10zM221 -8q-70 0 -113 44.5t-43 117.5v393q0 73 43 117t113 44q71 0 114.5 -44t43.5 -117v-20q0 -10 -10 -10l-20 -1q-10 0 -10 10v23q0 56 -32.5 90t-85.5 34t-85 -34t-32 -90v-398 q0 -56 32.5 -90t84.5 -34q53 0 85.5 34t32.5 90v22q0 10 10 10l20 -1q10 0 10 -10v-18q0 -73 -43.5 -117.5t-114.5 -44.5z" />
<glyph unicode="&#x10b;" horiz-adv-x="388" d="M200 596q-14 0 -23 10t-9 25q0 14 9.5 24t22.5 10t22 -10t9 -24q0 -15 -9 -25t-22 -10zM200 -8q-63 0 -102.5 41t-39.5 106v224q0 65 39.5 106t102.5 41t103 -38t40 -91v-4q0 -10 -10 -10l-19 -1q-10 0 -10 7v7q0 38 -29.5 66.5t-74.5 28.5t-74 -31.5t-29 -81.5v-222 q0 -49 29 -81t74 -32t74.5 28.5t29.5 66.5v4q0 10 10 10h19q10 0 10 -7v-8q0 -53 -40 -91t-103 -38z" />
<glyph unicode="&#x10c;" horiz-adv-x="437" d="M207 772q-7 0 -12 7l-65 102q-7 12 6 12h20q7 0 12 -7l50 -80q1 -2 3 -2t3 2l50 80q5 7 12 7h20q13 0 6 -12l-67 -102q-5 -7 -12 -7h-26zM221 -8q-70 0 -113 44.5t-43 117.5v393q0 73 43 117t113 44q71 0 114.5 -44t43.5 -117v-20q0 -10 -10 -10l-20 -1q-10 0 -10 10v23 q0 56 -32.5 90t-85.5 34t-85 -34t-32 -90v-398q0 -56 32.5 -90t84.5 -34q53 0 85.5 34t32.5 90v22q0 10 10 10l20 -1q10 0 10 -10v-18q0 -73 -43.5 -117.5t-114.5 -44.5z" />
<glyph unicode="&#x10d;" horiz-adv-x="388" d="M186 574q-7 0 -12 7l-65 102q-7 12 6 12h20q7 0 12 -7l50 -80q1 -2 3 -2t3 2l50 80q5 7 12 7h20q13 0 6 -12l-67 -102q-5 -7 -12 -7h-26zM200 -8q-63 0 -102.5 41t-39.5 106v224q0 65 39.5 106t102.5 41t103 -38t40 -91v-4q0 -10 -10 -10l-19 -1q-10 0 -10 7v7 q0 38 -29.5 66.5t-74.5 28.5t-74 -31.5t-29 -81.5v-222q0 -49 29 -81t74 -32t74.5 28.5t29.5 66.5v4q0 10 10 10h19q10 0 10 -7v-8q0 -53 -40 -91t-103 -38z" />
<glyph unicode="&#x10e;" horiz-adv-x="461" d="M215 761q-7 0 -12 7l-65 101q-7 12 6 12h20q7 0 12 -7l50 -80q1 -2 3 -2t3 2l50 80q5 7 12 7h20q13 0 6 -12l-67 -102q-5 -6 -12 -6h-26zM94 0q-10 0 -10 10v680q0 10 10 10h141q71 0 112.5 -48.5t41.5 -133.5v-336q0 -85 -41.5 -133.5t-112.5 -48.5h-141zM123 39 q0 -4 4 -4h109q52 1 82.5 40t30.5 107v335q0 69 -30 108.5t-83 39.5h-109q-4 0 -4 -4v-622z" />
<glyph unicode="&#x10f;" horiz-adv-x="518" d="M474 702q5 7 12 7h18q14 0 7 -12l-67 -111q-5 -7 -12 -7h-13q-14 0 -7 12zM297 455q3 -3 5 1v234q0 10 10 10h19q10 0 10 -10v-680q0 -10 -10 -10h-19q-10 0 -10 10v36q-1 4 -5 1q-34 -55 -103 -55q-60 0 -96.5 39.5t-38.5 105.5q-2 78 -2 114q0 37 2 113q2 66 39 106 t97 40q69 0 102 -55zM299 137q3 59 3 114q0 57 -3 114q-1 49 -27.5 79.5t-69.5 30.5q-45 0 -73 -30t-30 -79q-2 -39 -2 -115q0 -75 2 -114q2 -49 29.5 -79.5t72.5 -30.5q43 0 70 30.5t28 79.5z" />
<glyph unicode="&#x110;" horiz-adv-x="509" d="M284 700q71 0 112.5 -48.5t41.5 -133.5v-336q0 -85 -41.5 -133.5t-112.5 -48.5h-141q-10 0 -10 10v337q0 4 -4 4h-35q-10 0 -10 10v9q0 10 10 10h35q4 0 4 4v306q0 10 10 10h141zM398 182v335q0 69 -30 108.5t-83 39.5h-109q-4 0 -4 -4v-277q0 -4 4 -4h92q10 0 10 -10v-9 q0 -10 -10 -10h-92q-4 0 -4 -4v-308q0 -4 4 -4h109q52 1 82.5 40t30.5 107z" />
<glyph unicode="&#x111;" horiz-adv-x="600" d="M383 603q10 0 10 -10v-10q0 -10 -10 -10h-38q-4 0 -4 -4v-559q0 -10 -10 -10h-19q-10 0 -10 10v36q-1 4 -5 1q-34 -55 -103 -55q-60 0 -96.5 39.5t-38.5 105.5q-2 78 -2 114q0 37 2 113q2 66 39 106t97 40q69 0 102 -55q3 -3 5 1v113q0 4 -4 4h-154q-10 0 -10 10v10 q0 10 10 10h154q4 0 4 4v83q0 10 10 10h19q10 0 10 -10v-83q0 -4 4 -4h38zM299 137q3 59 3 114q0 57 -3 114q-1 49 -27.5 79.5t-69.5 30.5q-45 0 -73 -30t-30 -79q-2 -39 -2 -115q0 -75 2 -114q2 -49 29.5 -79.5t72.5 -30.5q43 0 70 30.5t28 79.5z" />
<glyph unicode="&#x112;" horiz-adv-x="425" d="M318 841q10 0 10 -10v-11q0 -10 -10 -10h-175q-10 0 -10 10v11q0 10 10 10h175zM378 675q0 -10 -10 -10h-241q-4 0 -4 -4v-289q0 -4 4 -4h158q10 0 10 -10v-15q0 -10 -10 -10h-158q-4 0 -4 -4v-290q0 -4 4 -4h241q10 0 10 -10v-15q0 -10 -10 -10h-274q-10 0 -10 10v680 q0 10 10 10h274q10 0 10 -10v-15z" />
<glyph unicode="&#x113;" horiz-adv-x="395" d="M287 641q10 0 10 -10v-11q0 -10 -10 -10h-175q-10 0 -10 10v11q0 10 10 10h175zM343 250q0 -10 -10 -10h-232q-4 0 -4 -4v-96q0 -50 29 -81.5t74 -31.5q38 0 65 22t36 59q3 9 11 9l18 -1q12 0 9 -11q-9 -51 -46.5 -82t-92.5 -31q-63 0 -102.5 40.5t-39.5 105.5v225 q0 65 39.5 106t102.5 41q64 0 103.5 -41t39.5 -106v-113zM200 475q-45 0 -74 -31.5t-29 -81.5v-85q0 -4 4 -4h199q4 0 4 4v85q0 50 -29 81.5t-75 31.5z" />
<glyph unicode="&#x116;" horiz-adv-x="425" d="M231 796q-14 0 -23 10t-9 25q0 14 9.5 24t22.5 10t22 -10t9 -24q0 -15 -9 -25t-22 -10zM378 675q0 -10 -10 -10h-241q-4 0 -4 -4v-289q0 -4 4 -4h158q10 0 10 -10v-15q0 -10 -10 -10h-158q-4 0 -4 -4v-290q0 -4 4 -4h241q10 0 10 -10v-15q0 -10 -10 -10h-274 q-10 0 -10 10v680q0 10 10 10h274q10 0 10 -10v-15z" />
<glyph unicode="&#x117;" horiz-adv-x="395" d="M200 596q-14 0 -23 10t-9 25q0 14 9.5 24t22.5 10t22 -10t9 -24q0 -15 -9 -25t-22 -10zM343 250q0 -10 -10 -10h-232q-4 0 -4 -4v-96q0 -50 29 -81.5t74 -31.5q38 0 65 22t36 59q3 9 11 9l18 -1q12 0 9 -11q-9 -51 -46.5 -82t-92.5 -31q-63 0 -102.5 40.5t-39.5 105.5 v225q0 65 39.5 106t102.5 41q64 0 103.5 -41t39.5 -106v-113zM200 475q-45 0 -74 -31.5t-29 -81.5v-85q0 -4 4 -4h199q4 0 4 4v85q0 50 -29 81.5t-75 31.5z" />
<glyph unicode="&#x118;" horiz-adv-x="425" d="M378 675q0 -10 -10 -10h-241q-4 0 -4 -4v-289q0 -4 4 -4h158q10 0 10 -10v-15q0 -10 -10 -10h-158q-4 0 -4 -4v-290q0 -4 4 -4h241q10 0 10 -10v-15q0 -10 -10 -10h-121q-3 0 -5 -2q-52 -54 -44 -106q7 -50 58 -40q10 3 12 -7l2 -7q2 -11 -8 -12q-32 -7 -60 5t-35 50 q-11 65 40 114q3 5 -2 5h-111q-10 0 -10 10v680q0 10 10 10h274q10 0 10 -10v-15z" />
<glyph unicode="&#x119;" horiz-adv-x="395" d="M343 250q0 -10 -10 -10h-232q-4 0 -4 -4v-96q0 -50 29 -81.5t74 -31.5q38 0 65 22t36 59q3 9 11 9l18 -1q12 0 9 -11q-8 -47 -40.5 -77t-79.5 -35q-3 0 -5 -2q-53 -55 -45 -107q7 -50 58 -40q10 3 12 -7l2 -7q2 -11 -8 -12q-32 -7 -60 5t-35 50q-11 66 41 116q5 3 -1 5 q-54 7 -87 46.5t-33 97.5v225q0 65 39.5 106t102.5 41q64 0 103.5 -41t39.5 -106v-113zM200 475q-45 0 -74 -31.5t-29 -81.5v-85q0 -4 4 -4h199q4 0 4 4v85q0 50 -29 81.5t-75 31.5z" />
<glyph unicode="&#x11a;" horiz-adv-x="425" d="M255 781q-5 -7 -12 -7h-26q-7 0 -12 7l-65 102q-7 12 6 12h20q7 0 12 -7l50 -80q1 -2 3 -2t3 2l50 80q5 7 12 7h20q13 0 6 -12zM378 675q0 -10 -10 -10h-241q-4 0 -4 -4v-289q0 -4 4 -4h158q10 0 10 -10v-15q0 -10 -10 -10h-158q-4 0 -4 -4v-290q0 -4 4 -4h241 q10 0 10 -10v-15q0 -10 -10 -10h-274q-10 0 -10 10v680q0 10 10 10h274q10 0 10 -10v-15z" />
<glyph unicode="&#x11b;" horiz-adv-x="395" d="M224 572q-4 -6 -12 -6h-26q-7 0 -12 7l-65 101q-7 12 6 12h20q7 0 12 -7l50 -80q1 -1 3 -1t3 1l50 80q5 7 12 7h20q13 0 6 -12zM343 250q0 -10 -10 -10h-232q-4 0 -4 -4v-96q0 -50 29 -81.5t74 -31.5q38 0 65 22t36 59q3 9 11 9l18 -1q12 0 9 -11q-9 -51 -46.5 -82 t-92.5 -31q-63 0 -102.5 40.5t-39.5 105.5v225q0 65 39.5 106t102.5 41q64 0 103.5 -41t39.5 -106v-113zM200 475q-45 0 -74 -31.5t-29 -81.5v-85q0 -4 4 -4h199q4 0 4 4v85q0 50 -29 81.5t-75 31.5z" />
<glyph unicode="&#x11e;" horiz-adv-x="437" d="M221 768q-39 0 -66.5 25.5t-31.5 64.5q0 10 10 10h9q10 0 11 -10q3 -28 22.5 -45.5t45.5 -17.5t45.5 17.5t22.5 45.5q1 10 11 10h9q11 0 9 -10q-3 -38 -30.5 -64t-66.5 -26zM221 -8q-70 0 -113 43t-43 114v402q0 71 43 114t113 43q71 0 114 -43t43 -114v-46 q0 -10 -10 -10h-19q-10 0 -10 10v47q0 54 -32.5 87.5t-85.5 33.5q-52 0 -84.5 -33.5t-32.5 -87.5v-404q0 -54 32.5 -87.5t84.5 -33.5q53 0 85.5 33.5t32.5 87.5v152q0 4 -4 4h-100q-10 0 -10 10v15q0 10 10 10h133q10 0 10 -10v-180q0 -71 -43 -114t-114 -43z" />
<glyph unicode="&#x11f;" horiz-adv-x="401" d="M200 570q-39 0 -66.5 25.5t-31.5 64.5q0 10 10 10h9q10 0 11 -10q3 -28 22.5 -45.5t45.5 -17.5t45.5 17.5t22.5 45.5q1 10 11 10h9q11 0 9 -10q-3 -38 -30.5 -64t-66.5 -26zM302 492q0 10 10 10h20q10 0 10 -10v-489q0 -207 -185 -204q-10 0 -10 10v16q0 10 10 10 q77 -1 111 42t34 128v45q-1 4 -5 1q-34 -57 -104 -57q-61 0 -98 41t-37 105v223q0 65 37 106t98 41q70 0 104 -57q3 -3 5 1v38zM202 29q44 0 72 31.5t28 81.5v220q0 50 -28 81.5t-72 31.5q-46 0 -75.5 -31.5t-29.5 -81.5v-220q0 -50 29.5 -81.5t75.5 -31.5z" />
<glyph unicode="&#x120;" horiz-adv-x="437" d="M221 794q-14 0 -23 10t-9 25q0 14 9.5 24t22.5 10t22 -10t9 -24q0 -15 -9 -25t-22 -10zM221 -8q-70 0 -113 43t-43 114v402q0 71 43 114t113 43q71 0 114 -43t43 -114v-46q0 -10 -10 -10h-19q-10 0 -10 10v47q0 54 -32.5 87.5t-85.5 33.5q-52 0 -84.5 -33.5t-32.5 -87.5 v-404q0 -54 32.5 -87.5t84.5 -33.5q53 0 85.5 33.5t32.5 87.5v152q0 4 -4 4h-100q-10 0 -10 10v15q0 10 10 10h133q10 0 10 -10v-180q0 -71 -43 -114t-114 -43z" />
<glyph unicode="&#x121;" horiz-adv-x="401" d="M200 596q-14 0 -23 10t-9 25q0 14 9.5 24t22.5 10t22 -10t9 -24q0 -15 -9 -25t-22 -10zM302 492q0 10 10 10h20q10 0 10 -10v-489q0 -207 -185 -204q-10 0 -10 10v16q0 10 10 10q77 -1 111 42t34 128v45q-1 4 -5 1q-34 -57 -104 -57q-61 0 -98 41t-37 105v223 q0 65 37 106t98 41q70 0 104 -57q3 -3 5 1v38zM202 29q44 0 72 31.5t28 81.5v220q0 50 -28 81.5t-72 31.5q-46 0 -75.5 -31.5t-29.5 -81.5v-220q0 -50 29.5 -81.5t75.5 -31.5z" />
<glyph unicode="&#x122;" horiz-adv-x="437" d="M221 -8q-70 0 -113 43t-43 114v402q0 71 43 114t113 43q71 0 114 -43t43 -114v-46q0 -10 -10 -10h-19q-10 0 -10 10v47q0 54 -32.5 87.5t-85.5 33.5q-52 0 -84.5 -33.5t-32.5 -87.5v-404q0 -54 32.5 -87.5t84.5 -33.5q53 0 85.5 33.5t32.5 87.5v152q0 4 -4 4h-100 q-10 0 -10 10v15q0 10 10 10h133q10 0 10 -10v-180q0 -71 -43 -114t-114 -43zM198 -196q-14 0 -7 12l62 111q5 7 12 7h18q14 0 7 -12l-67 -111q-5 -7 -12 -7h-13z" />
<glyph unicode="&#x123;" horiz-adv-x="401" d="M221 698q14 0 7 -12l-62 -111q-5 -7 -12 -7h-18q-14 0 -7 12l67 111q5 7 12 7h13zM302 492q0 10 10 10h20q10 0 10 -10v-489q0 -207 -185 -204q-10 0 -10 10v16q0 10 10 10q77 -1 111 42t34 128v45q-1 4 -5 1q-34 -57 -104 -57q-61 0 -98 41t-37 105v223q0 65 37 106 t98 41q70 0 104 -57q3 -3 5 1v38zM202 29q44 0 72 31.5t28 81.5v220q0 50 -28 81.5t-72 31.5q-46 0 -75.5 -31.5t-29.5 -81.5v-220q0 -50 29.5 -81.5t75.5 -31.5z" />
<glyph unicode="&#x126;" horiz-adv-x="468" d="M421 540q10 0 10 -10v-12q0 -10 -10 -10h-33q-4 0 -4 -4v-494q0 -10 -10 -10h-19q-10 0 -10 10v319q0 4 -4 4h-214q-4 0 -4 -4v-319q0 -10 -10 -10h-19q-10 0 -10 10v494q0 4 -4 4h-34q-10 0 -10 10v12q0 10 10 10h34q4 0 4 4v146q0 10 10 10h19q10 0 10 -10v-146 q0 -4 4 -4h214q4 0 4 4v146q0 10 10 10h19q10 0 10 -10v-146q0 -4 4 -4h33zM341 368q4 0 4 4v132q0 4 -4 4h-214q-4 0 -4 -4v-132q0 -4 4 -4h214z" />
<glyph unicode="&#x127;" horiz-adv-x="414" d="M222 509q61 0 94 -40.5t33 -112.5v-346q0 -10 -10 -10h-19q-10 0 -10 10v342q0 58 -26 90t-72 32q-47 0 -74.5 -34.5t-27.5 -94.5v-335q0 -10 -10 -10h-19q-10 0 -10 10v542q0 4 -4 4h-43q-10 0 -10 10v10q0 10 10 10h43q4 0 4 4v100q0 10 10 10h19q10 0 10 -10v-100 q0 -4 4 -4h149q10 0 10 -10v-10q0 -10 -10 -10h-149q-4 0 -4 -4v-103q1 -4 5 -1q34 61 107 61z" />
<glyph unicode="&#x12a;" horiz-adv-x="208" d="M16 810q-10 0 -10 10v11q0 10 10 10h175q10 0 10 -10v-11q0 -10 -10 -10h-175zM94 0q-10 0 -10 10v680q0 10 10 10h19q10 0 10 -10v-680q0 -10 -10 -10h-19z" />
<glyph unicode="&#x12b;" horiz-adv-x="174" d="M-2 611q-10 0 -10 10v11q0 10 10 10h175q10 0 10 -10v-11q0 -10 -10 -10h-175zM76 0q-10 0 -10 10v482q0 10 10 10h19q10 0 10 -10v-482q0 -10 -10 -10h-19z" />
<glyph unicode="&#x12e;" horiz-adv-x="278" d="M177 -154q10 3 12 -7l2 -7q2 -11 -8 -12q-32 -7 -60 5t-35 50q-11 70 49 122q2 2 -1 4q-5 3 -5 9v680q0 10 10 10h19q10 0 10 -10v-690l-4 -5q-55 -55 -47 -109q7 -50 58 -40z" />
<glyph unicode="&#x12f;" horiz-adv-x="231" d="M129 597q-14 0 -23 10t-9 25q0 14 9.5 24t22.5 10t22 -10t9 -24q0 -15 -9 -25t-22 -10zM154 -154q10 3 12 -7l2 -7q2 -11 -8 -12q-32 -7 -60 5t-35 50q-11 70 49 122q2 2 -1 4q-4 3 -4 9v482q0 10 10 10h19q10 0 10 -10v-485q0 -5 -5 -12q-55 -55 -47 -109q7 -50 58 -40z " />
<glyph unicode="&#x130;" horiz-adv-x="208" d="M104 796q-14 0 -23 10t-9 25q0 14 9.5 24t22.5 10t22 -10t9 -24q0 -15 -9 -25t-22 -10zM94 0q-10 0 -10 10v680q0 10 10 10h19q10 0 10 -10v-680q0 -10 -10 -10h-19z" />
<glyph unicode="&#x131;" horiz-adv-x="174" d="M76 0q-10 0 -10 10v482q0 10 10 10h19q10 0 10 -10v-482q0 -10 -10 -10h-19z" />
<glyph unicode="&#x133;" horiz-adv-x="371" d="M96 612q-15 0 -25 10.5t-10 26.5t10 26.5t25 10.5q14 0 23.5 -10.5t9.5 -26.5t-9.5 -26.5t-23.5 -10.5zM280 612q-15 0 -24.5 10.5t-9.5 27.5t9.5 26.5t24.5 9.5t25 -9.5t10 -26.5t-10 -27.5t-25 -10.5zM86 0q-10 0 -10 10v482q0 10 10 10h19q10 0 10 -10v-482 q0 -10 -10 -10h-19zM182 -210q-10 0 -10 10v15q0 10 10 10q38 3 58 32.5t20 79.5v555q0 10 10 10h19q10 0 10 -10v-555q0 -143 -117 -147z" />
<glyph unicode="&#x136;" horiz-adv-x="434" d="M94 0q-10 0 -10 10v680q0 10 10 10h19q10 0 10 -10v-357q0 -3 1.5 -3.5t3.5 2.5l222 361q5 7 12 7h23q14 0 7 -12l-159 -263q-3 -3 -1 -6l178 -407q5 -12 -8 -12h-24q-8 0 -11 8l-161 375q-1 4 -5 0l-76 -115q-2 -2 -2 -5v-253q0 -10 -10 -10h-19zM219 -188q-14 0 -7 12 l62 111q5 7 12 7h18q14 0 7 -12l-67 -111q-5 -7 -12 -7h-13z" />
<glyph unicode="&#x137;" horiz-adv-x="385" d="M81 0q-10 0 -10 10v680q0 10 10 10h19q10 0 10 -10v-434q0 -2 2 -2.5t3 1.5l177 241q4 6 13 6h20q6 0 8 -4t-2 -8l-95 -130q-2 -4 -1 -5l116 -344q3 -11 -8 -11h-20q-9 0 -12 8l-100 313q-1 6 -6 1l-93 -127q-2 -2 -2 -5v-180q0 -10 -10 -10h-19zM185 -188q-14 0 -7 12 l62 111q5 7 12 7h18q14 0 7 -12l-67 -111q-5 -7 -12 -7h-13z" />
<glyph unicode="&#x139;" horiz-adv-x="382" d="M77 777q-14 0 -7 12l62 111q5 7 12 7h18q14 0 7 -12l-67 -111q-5 -7 -12 -7h-13zM94 0q-10 0 -10 10v680q0 10 10 10h19q10 0 10 -10v-651q0 -4 4 -4h237q10 0 10 -10v-15q0 -10 -10 -10h-270z" />
<glyph unicode="&#x13a;" horiz-adv-x="169" d="M60 777q-14 0 -7 12l62 111q5 7 12 7h18q14 0 7 -12l-67 -111q-5 -7 -12 -7h-13zM75 0q-10 0 -10 10v680q0 10 10 10h19q10 0 10 -10v-680q0 -10 -10 -10h-19z" />
<glyph unicode="&#x13b;" horiz-adv-x="382" d="M94 0q-10 0 -10 10v680q0 10 10 10h19q10 0 10 -10v-651q0 -4 4 -4h237q10 0 10 -10v-15q0 -10 -10 -10h-270zM175 -188q-14 0 -7 12l62 111q5 7 12 7h18q14 0 7 -12l-67 -111q-5 -7 -12 -7h-13z" />
<glyph unicode="&#x13c;" horiz-adv-x="169" d="M75 0q-10 0 -10 10v680q0 10 10 10h19q10 0 10 -10v-680q0 -10 -10 -10h-19zM4 -188q-14 0 -7 12l62 111q5 7 12 7h18q14 0 7 -12l-67 -111q-5 -7 -12 -7h-13z" />
<glyph unicode="&#x13d;" horiz-adv-x="382" d="M88 756q-7 0 -12 7l-65 101q-7 12 6 12h20q7 0 12 -7l50 -80q1 -1 3 -1t3 1l50 80q5 7 12 7h20q13 0 6 -12l-67 -102q-4 -6 -12 -6h-26zM94 0q-10 0 -10 10v680q0 10 10 10h19q10 0 10 -10v-651q0 -4 4 -4h237q10 0 10 -10v-15q0 -10 -10 -10h-270z" />
<glyph unicode="&#x13e;" horiz-adv-x="169" d="M71 756q-7 0 -12 7l-65 101q-7 12 6 12h20q7 0 12 -7l50 -80q1 -1 3 -1t3 1l50 80q5 7 12 7h20q13 0 6 -12l-67 -102q-5 -6 -12 -6h-26zM75 0q-10 0 -10 10v680q0 10 10 10h19q10 0 10 -10v-680q0 -10 -10 -10h-19z" />
<glyph unicode="&#x141;" horiz-adv-x="382" d="M123 39q0 -4 4 -4h237q10 0 10 -10v-15q0 -10 -10 -10h-270q-10 0 -10 10v257q0 2 -2 3t-3 0l-77 -53q-7 -6 -14 3l-9 11q-5 8 3 14l99 68q3 3 3 5v372q0 10 10 10h19q10 0 10 -10v-343q0 -2 1.5 -3t3.5 0l178 122q8 7 14 -2l8 -12q5 -8 -2 -14l-200 -136q-3 -3 -3 -5 v-258z" />
<glyph unicode="&#x142;" horiz-adv-x="169" d="M198 389q4 -9 -4 -14l-87 -53q-3 -2 -3 -5v-307q0 -10 -10 -10h-19q-10 0 -10 10v281q0 5 -5 3l-41 -25q-9 -6 -14 4l-7 11q-4 9 3 14l61 37q3 1 3 5v350q0 10 10 10h19q10 0 10 -10v-323q0 -5 5 -3l67 41q9 6 14 -3z" />
<glyph unicode="&#x143;" horiz-adv-x="484" d="M217 787q-14 0 -7 12l62 111q5 7 12 7h18q14 0 7 -12l-67 -111q-5 -7 -12 -7h-13zM94 0q-10 0 -10 10v680q0 10 10 10h21q8 0 11 -8l230 -585q1 -3 3 -2.5t2 3.5v582q0 10 10 10h19q10 0 10 -10v-680q0 -10 -10 -10h-22q-8 0 -11 8l-229 585q-1 3 -3 2.5t-2 -3.5v-582 q0 -10 -10 -10h-19z" />
<glyph unicode="&#x144;" horiz-adv-x="414" d="M271 715q14 0 7 -12l-67 -111q-5 -7 -12 -7h-13q-14 0 -7 12l62 111q5 7 12 7h18zM222 509q61 0 94 -40.5t33 -112.5v-346q0 -10 -10 -10h-19q-10 0 -10 10v342q0 58 -26 90t-72 32q-47 0 -74.5 -34.5t-27.5 -94.5v-335q0 -10 -10 -10h-19q-10 0 -10 10v482q0 10 10 10 h19q10 0 10 -10v-43q1 -4 5 -1q34 61 107 61z" />
<glyph unicode="&#x145;" horiz-adv-x="484" d="M94 0q-10 0 -10 10v680q0 10 10 10h21q8 0 11 -8l230 -585q1 -3 3 -2.5t2 3.5v582q0 10 10 10h19q10 0 10 -10v-680q0 -10 -10 -10h-22q-8 0 -11 8l-229 585q-1 3 -3 2.5t-2 -3.5v-582q0 -10 -10 -10h-19zM219 -188q-14 0 -7 12l62 111q5 7 12 7h18q14 0 7 -12l-67 -111 q-5 -7 -12 -7h-13z" />
<glyph unicode="&#x146;" horiz-adv-x="414" d="M222 509q61 0 94 -40.5t33 -112.5v-346q0 -10 -10 -10h-19q-10 0 -10 10v342q0 58 -26 90t-72 32q-47 0 -74.5 -34.5t-27.5 -94.5v-335q0 -10 -10 -10h-19q-10 0 -10 10v482q0 10 10 10h19q10 0 10 -10v-43q1 -4 5 -1q34 61 107 61zM193 -188q-14 0 -7 12l62 111 q5 7 12 7h18q14 0 7 -12l-67 -111q-5 -7 -12 -7h-13z" />
<glyph unicode="&#x147;" horiz-adv-x="484" d="M228 774q-7 0 -12 7l-65 102q-7 12 6 12h20q7 0 12 -7l50 -80q1 -2 3 -2t3 2l50 80q5 7 12 7h20q13 0 6 -12l-67 -102q-5 -7 -12 -7h-26zM94 0q-10 0 -10 10v680q0 10 10 10h21q8 0 11 -8l230 -585q1 -3 3 -2.5t2 3.5v582q0 10 10 10h19q10 0 10 -10v-680q0 -10 -10 -10 h-22q-8 0 -11 8l-229 585q-1 3 -3 2.5t-2 -3.5v-582q0 -10 -10 -10h-19z" />
<glyph unicode="&#x148;" horiz-adv-x="414" d="M235 579q-5 -7 -12 -7h-26q-7 0 -12 7l-65 102q-7 12 6 12h20q7 0 12 -7l50 -80q1 -2 3 -2t3 2l50 80q5 7 12 7h20q13 0 6 -12zM222 509q61 0 94 -40.5t33 -112.5v-346q0 -10 -10 -10h-19q-10 0 -10 10v342q0 58 -26 90t-72 32q-47 0 -74.5 -34.5t-27.5 -94.5v-335 q0 -10 -10 -10h-19q-10 0 -10 10v482q0 10 10 10h19q10 0 10 -10v-43q1 -4 5 -1q34 61 107 61z" />
<glyph unicode="&#x14a;" horiz-adv-x="484" d="M361 690q0 10 10 10h19q10 0 10 -10v-690q0 -31 -1 -47.5t-6 -37t-15.5 -30.5t-29.5 -17.5t-47 -8.5q-10 0 -10 10v15q0 10 10 10q17 1 28.5 6.5t17.5 11.5t8.5 20.5t3 24.5t0.5 32v11t-1 5l-230 588q-1 3 -3 2.5t-2 -3.5v-582q0 -10 -10 -10h-19q-10 0 -10 10v680 q0 10 10 10h21q8 0 11 -8l228 -580q1 -3 3 -2.5t2 3.5v417l1 10h1v150z" />
<glyph unicode="&#x14b;" horiz-adv-x="414" d="M222 509q61 0 94 -40.5t33 -112.5v-375q0 -63 -24 -99t-83 -38q-10 0 -10 10v15q0 10 10 10q68 5 68 102v371q0 58 -26 90t-72 32q-47 0 -74.5 -34.5t-27.5 -94.5v-335q0 -10 -10 -10h-19q-10 0 -10 10v482q0 10 10 10h19q10 0 10 -10v-43q1 -4 5 -1q34 61 107 61z" />
<glyph unicode="&#x14c;" horiz-adv-x="448" d="M135 800q-10 0 -10 10v11q0 10 10 10h175q10 0 10 -10v-11q0 -10 -10 -10h-175zM223 -8q-71 0 -114.5 45.5t-43.5 118.5v387q0 74 44 119.5t114 45.5q71 0 115.5 -46t44.5 -119v-387q0 -73 -44.5 -118.5t-115.5 -45.5zM223 27q54 0 87.5 35.5t33.5 91.5v391 q0 57 -33.5 92.5t-87.5 35.5q-53 0 -86 -35.5t-33 -92.5v-391q0 -56 33 -91.5t86 -35.5z" />
<glyph unicode="&#x14d;" horiz-adv-x="402" d="M112 610q-10 0 -10 10v11q0 10 10 10h175q10 0 10 -10v-11q0 -10 -10 -10h-175zM200 -8q-63 0 -102.5 40.5t-39.5 105.5v225q0 65 39.5 106t102.5 41q64 0 103.5 -41t39.5 -106v-225q0 -65 -39.5 -105.5t-103.5 -40.5zM200 27q46 0 75 31.5t29 81.5v222q0 50 -29 81.5 t-75 31.5q-45 0 -74 -31.5t-29 -81.5v-222q0 -50 29 -81.5t74 -31.5z" />
<glyph unicode="&#x150;" horiz-adv-x="448" d="M162 775q-5 0 -7.5 3.5t0.5 8.5l60 111q3 7 12 7h16q14 0 7 -12l-63 -111q-5 -7 -12 -7h-13zM272 775q-14 0 -7 12l61 111q3 7 12 7h15q14 0 7 -12l-63 -111q-5 -7 -12 -7h-13zM223 -8q-71 0 -114.5 45.5t-43.5 118.5v387q0 74 44 119.5t114 45.5q71 0 115.5 -46 t44.5 -119v-387q0 -73 -44.5 -118.5t-115.5 -45.5zM223 27q54 0 87.5 35.5t33.5 91.5v391q0 57 -33.5 92.5t-87.5 35.5q-53 0 -86 -35.5t-33 -92.5v-391q0 -56 33 -91.5t86 -35.5z" />
<glyph unicode="&#x151;" horiz-adv-x="402" d="M139 585q-5 0 -7.5 3.5t0.5 8.5l60 111q3 7 12 7h16q14 0 7 -12l-63 -111q-5 -7 -12 -7h-13zM249 585q-14 0 -7 12l61 111q3 7 12 7h15q14 0 7 -12l-63 -111q-5 -7 -12 -7h-13zM200 -8q-63 0 -102.5 40.5t-39.5 105.5v225q0 65 39.5 106t102.5 41q64 0 103.5 -41 t39.5 -106v-225q0 -65 -39.5 -105.5t-103.5 -40.5zM200 27q46 0 75 31.5t29 81.5v222q0 50 -29 81.5t-75 31.5q-45 0 -74 -31.5t-29 -81.5v-222q0 -50 29 -81.5t74 -31.5z" />
<glyph unicode="&#x152;" horiz-adv-x="685" d="M638 675q0 -10 -10 -10h-241q-4 0 -4 -4v-289q0 -4 4 -4h157q10 0 10 -10v-15q0 -10 -10 -10h-157q-4 0 -4 -4v-290q0 -4 4 -4h241q10 0 10 -10v-15q0 -10 -10 -10h-274q-10 0 -10 10v39q0 7 -5 2q-41 -59 -121 -59q-67 0 -110 45.5t-43 118.5v387q0 73 43 119t110 46 q80 0 121 -60q3 -2 5 2v40q0 10 10 10h274q10 0 10 -10v-15zM223 27q54 0 87.5 35.5t33.5 91.5v391q0 57 -33.5 92.5t-87.5 35.5q-53 0 -86 -35.5t-33 -92.5v-391q0 -56 33 -91.5t86 -35.5z" />
<glyph unicode="&#x153;" horiz-adv-x="643" d="M591 253q0 -10 -10 -10h-231q-4 0 -4 -4v-99q0 -50 28.5 -81.5t73.5 -31.5q38 0 65 22t36 59q3 9 11 9l18 -1q12 0 9 -11q-9 -52 -46 -82.5t-93 -30.5q-83 0 -120 75q-3 5 -6 0q-38 -75 -122 -75q-63 0 -102.5 41t-39.5 106v224q0 65 39.5 106t102.5 41q84 0 122 -75 q3 -5 6 0q37 75 120 75q64 0 103.5 -41t39.5 -106v-110zM304 362q0 50 -29 81.5t-75 31.5q-45 0 -74 -31.5t-29 -81.5v-222q0 -49 29 -81t74 -32q46 0 75 31.5t29 81.5v222zM448 475q-45 0 -73.5 -31.5t-28.5 -81.5v-86q0 -4 4 -4h198q4 0 4 4v86q0 50 -29 81.5t-75 31.5z " />
<glyph unicode="&#x154;" horiz-adv-x="431" d="M281 907q14 0 7 -12l-67 -111q-5 -7 -12 -7h-13q-14 0 -7 12l62 111q5 7 12 7h18zM368 0q-9 0 -12 8l-117 325q-1 3 -4 3h-108q-4 0 -4 -4v-322q0 -10 -10 -10h-19q-10 0 -10 10v682q0 10 10 10h148q68 0 109.5 -51t41.5 -134q0 -69 -30.5 -116t-82.5 -61q-5 -2 -3 -5 l117 -324q3 -11 -8 -11h-18zM127 666q-4 0 -4 -4v-288q0 -4 4 -4h111q52 0 84 40.5t32 106.5q0 67 -31.5 108t-84.5 41h-111z" />
<glyph unicode="&#x155;" horiz-adv-x="278" d="M230 718q14 0 7 -12l-67 -111q-5 -7 -12 -7h-13q-14 0 -7 12l62 111q5 7 12 7h18zM215 506q25 0 43 -10q7 -4 4 -13l-6 -20q-3 -9 -13 -5q-16 7 -36 6q-43 -1 -70 -42t-27 -102v-310q0 -10 -10 -10h-19q-10 0 -10 10v482q0 10 10 10h19q10 0 10 -10v-64q0 -6 4 -1 q0 1 1 2q31 77 100 77z" />
<glyph unicode="&#x156;" horiz-adv-x="431" d="M280 340q-5 -2 -3 -5l117 -324q3 -11 -8 -11h-18q-9 0 -12 8l-117 325q-1 3 -4 3h-108q-4 0 -4 -4v-322q0 -10 -10 -10h-19q-10 0 -10 10v682q0 10 10 10h148q68 0 109.5 -51t41.5 -134q0 -69 -30.5 -116t-82.5 -61zM127 666q-4 0 -4 -4v-288q0 -4 4 -4h111q52 0 84 40.5 t32 106.5q0 67 -31.5 108t-84.5 41h-111zM211 -188q-14 0 -7 12l62 111q5 7 12 7h18q14 0 7 -12l-67 -111q-5 -7 -12 -7h-13z" />
<glyph unicode="&#x157;" horiz-adv-x="278" d="M215 506q25 0 43 -10q7 -4 4 -13l-6 -20q-3 -9 -13 -5q-16 7 -36 6q-43 -1 -70 -42t-27 -102v-310q0 -10 -10 -10h-19q-10 0 -10 10v482q0 10 10 10h19q10 0 10 -10v-64q0 -6 4 -1q0 1 1 2q31 77 100 77zM11 -188q-14 0 -7 12l62 111q5 7 12 7h18q14 0 7 -12l-67 -111 q-5 -7 -12 -7h-13z" />
<glyph unicode="&#x158;" horiz-adv-x="431" d="M245 771q-5 -7 -12 -7h-26q-7 0 -12 7l-65 102q-7 12 6 12h20q7 0 12 -7l50 -80q1 -2 3 -2t3 2l50 80q5 7 12 7h20q13 0 6 -12zM368 0q-9 0 -12 8l-117 325q-1 3 -4 3h-108q-4 0 -4 -4v-322q0 -10 -10 -10h-19q-10 0 -10 10v682q0 10 10 10h148q68 0 109.5 -51t41.5 -134 q0 -69 -30.5 -116t-82.5 -61q-5 -2 -3 -5l117 -324q3 -11 -8 -11h-18zM127 666q-4 0 -4 -4v-288q0 -4 4 -4h111q52 0 84 40.5t32 106.5q0 67 -31.5 108t-84.5 41h-111z" />
<glyph unicode="&#x159;" horiz-adv-x="278" d="M194 582q-5 -7 -12 -7h-26q-7 0 -12 7l-65 102q-7 12 6 12h20q7 0 12 -7l50 -80q1 -1 3 -1t3 1l50 80q5 7 12 7h20q13 0 6 -12zM110 428q0 -3 1.5 -3t2.5 3q32 78 101 78q25 0 43 -10q7 -4 4 -13l-6 -20q-3 -9 -13 -5q-16 7 -36 6q-43 -1 -70 -42t-27 -102v-310 q0 -10 -10 -10h-19q-10 0 -10 10v482q0 10 10 10h19q10 0 10 -10v-64z" />
<glyph unicode="&#x15a;" horiz-adv-x="415" d="M182 785q-14 0 -7 12l62 111q5 7 12 7h18q14 0 7 -12l-67 -111q-5 -7 -12 -7h-13zM213 -8q-69 0 -111.5 48t-42.5 126v20q0 10 10 10h18q10 0 10 -10v-19q0 -63 32 -102t83 -39q50 0 83.5 37.5t33.5 98.5q0 25 -7.5 46.5t-15 35t-30 34t-33 28.5t-44.5 33q-39 29 -58 45 t-41.5 42.5t-32 55.5t-9.5 65q0 75 41.5 118t107.5 43q70 0 112.5 -48.5t42.5 -127.5v-25q0 -10 -10 -10h-19q-10 0 -10 10v25q0 64 -32 103t-84 39q-48 0 -79 -34t-31 -95q0 -52 26 -85t97 -86q85 -63 116 -102t31 -103q0 -80 -43 -128.5t-111 -48.5z" />
<glyph unicode="&#x15b;" horiz-adv-x="357" d="M159 583q-14 0 -7 12l62 111q5 7 12 7h18q14 0 7 -12l-67 -111q-5 -7 -12 -7h-13zM187 -4q-62 0 -99.5 34.5t-37.5 88.5v5q0 10 10 10h18q10 0 10 -7v-8q0 -38 27 -64t72 -26q43 0 69.5 26.5t26.5 69.5q0 24 -8 42t-26.5 31t-32.5 20.5t-42 18.5q-28 12 -45 20.5 t-37.5 24.5t-30 39.5t-9.5 54.5q0 60 36.5 95t96.5 35q61 0 97.5 -36t36.5 -93v-3q0 -10 -10 -10h-17q-10 0 -10 7v7q0 40 -27 67.5t-70 27.5t-69 -27t-26 -69q0 -23 7.5 -39.5t25 -29.5t30.5 -20t39 -18q31 -13 47.5 -21t39 -25t33 -41.5t10.5 -56.5q0 -59 -36.5 -94.5 t-98.5 -35.5z" />
<glyph unicode="&#x15e;" horiz-adv-x="415" d="M367 169q0 -74 -36.5 -121t-96.5 -54q-6 -2 -1 -5q52 -50 41 -116q-7 -38 -35 -50t-61 -5q-9 1 -7 12l2 7q2 10 12 7q51 -10 58 40q8 52 -45 107q-2 2 -5 2q-61 8 -97.5 54.5t-36.5 118.5v20q0 10 10 10h18q10 0 10 -10v-19q0 -63 32 -102t83 -39q50 0 83.5 37.5 t33.5 98.5q0 25 -7.5 46.5t-15 35t-30 34t-33 28.5t-44.5 33q-39 29 -58 45t-41.5 42.5t-32 55.5t-9.5 65q0 75 41.5 118t107.5 43q70 0 112.5 -48.5t42.5 -127.5v-25q0 -10 -10 -10h-19q-10 0 -10 10v25q0 64 -32 103t-84 39q-48 0 -79 -34t-31 -95q0 -52 26 -85t97 -86 q85 -63 116 -102t31 -103z" />
<glyph unicode="&#x15f;" horiz-adv-x="357" d="M322 126q0 -54 -30.5 -88t-83.5 -40q-6 -2 -1 -5q52 -50 41 -116q-7 -38 -35 -50t-61 -5q-9 1 -7 12l2 7q2 10 12 7q51 -10 58 40q8 52 -45 107q-2 2 -5 2q-53 5 -85 39t-32 83v5q0 10 10 10h18q10 0 10 -7v-8q0 -38 27 -64t72 -26q43 0 69.5 26.5t26.5 69.5q0 24 -8 42 t-26.5 31t-32.5 20.5t-42 18.5q-28 12 -45 20.5t-37.5 24.5t-30 39.5t-9.5 54.5q0 60 36.5 95t96.5 35q61 0 97.5 -36t36.5 -93v-3q0 -10 -10 -10h-17q-10 0 -10 7v7q0 40 -27 67.5t-70 27.5t-69 -27t-26 -69q0 -23 7.5 -39.5t25 -29.5t30.5 -20t39 -18q31 -13 47.5 -21 t39 -25t33 -41.5t10.5 -56.5z" />
<glyph unicode="&#x160;" horiz-adv-x="415" d="M193 772q-7 0 -12 7l-65 102q-7 12 6 12h20q7 0 12 -7l50 -80q1 -2 3 -2t3 2l50 80q5 7 12 7h20q13 0 6 -12l-67 -102q-5 -7 -12 -7h-26zM213 -8q-69 0 -111.5 48t-42.5 126v20q0 10 10 10h18q10 0 10 -10v-19q0 -63 32 -102t83 -39q50 0 83.5 37.5t33.5 98.5 q0 25 -7.5 46.5t-15 35t-30 34t-33 28.5t-44.5 33q-39 29 -58 45t-41.5 42.5t-32 55.5t-9.5 65q0 75 41.5 118t107.5 43q70 0 112.5 -48.5t42.5 -127.5v-25q0 -10 -10 -10h-19q-10 0 -10 10v25q0 64 -32 103t-84 39q-48 0 -79 -34t-31 -95q0 -52 26 -85t97 -86 q85 -63 116 -102t31 -103q0 -80 -43 -128.5t-111 -48.5z" />
<glyph unicode="&#x161;" horiz-adv-x="357" d="M170 570q-7 0 -12 7l-65 102q-7 12 6 12h20q7 0 12 -7l50 -80q1 -2 3 -2t3 2l50 80q5 7 12 7h20q13 0 6 -12l-67 -102q-5 -7 -12 -7h-26zM187 -4q-62 0 -99.5 34.5t-37.5 88.5v5q0 10 10 10h18q10 0 10 -7v-8q0 -38 27 -64t72 -26q43 0 69.5 26.5t26.5 69.5q0 24 -8 42 t-26.5 31t-32.5 20.5t-42 18.5q-28 12 -45 20.5t-37.5 24.5t-30 39.5t-9.5 54.5q0 60 36.5 95t96.5 35q61 0 97.5 -36t36.5 -93v-3q0 -10 -10 -10h-17q-10 0 -10 7v7q0 40 -27 67.5t-70 27.5t-69 -27t-26 -69q0 -23 7.5 -39.5t25 -29.5t30.5 -20t39 -18q31 -13 47.5 -21 t39 -25t33 -41.5t10.5 -56.5q0 -59 -36.5 -94.5t-98.5 -35.5z" />
<glyph unicode="&#x162;" horiz-adv-x="402" d="M220 665q-4 0 -4 -4v-651q0 -10 -2 -10t3 -5q55 -51 44 -118q-7 -38 -35 -50t-61 -5q-9 1 -7 12l2 7q2 10 12 7q51 -10 58 40q8 54 -48 110l-2 2l-2 1q-1 2 -1 9v651q0 4 -4 4h-125q-10 0 -10 10v15q0 10 10 10h306q10 0 10 -10v-15q0 -10 -10 -10h-134z" />
<glyph unicode="&#x163;" horiz-adv-x="256" d="M223 480q0 -10 -10 -10h-83q-4 0 -4 -4v-336q0 -53 18 -74t57 -21h11q10 0 10 -10v-15q0 -10 -10 -10h-21q-5 0 -2 -5q34 -43 25 -97q-7 -38 -35 -50t-61 -5q-9 1 -7 12l2 7q2 10 12 7q51 -10 58 40q7 45 -34 95q-1 0 -2.5 1t-2.5 2q-57 20 -57 116v343q0 4 -4 4h-41 q-10 0 -10 10v12q0 10 10 10h41q4 0 4 4v112q0 10 10 10h19q10 0 10 -10v-112q0 -4 4 -4h83q10 0 10 -10v-12z" />
<glyph unicode="&#x164;" horiz-adv-x="402" d="M222 762q-4 -6 -12 -6h-26q-7 0 -12 7l-65 101q-7 12 6 12h20q7 0 12 -7l50 -80q1 -1 3 -1t3 1l50 80q5 7 12 7h20q13 0 6 -12zM354 700q10 0 10 -10v-15q0 -10 -10 -10h-134q-4 0 -4 -4v-651q0 -10 -10 -10h-19q-10 0 -10 10v651q0 4 -4 4h-125q-10 0 -10 10v15 q0 10 10 10h306z" />
<glyph unicode="&#x165;" horiz-adv-x="256" d="M132 689q-4 -6 -12 -6h-26q-7 0 -12 7l-65 101q-7 12 6 12h20q7 0 12 -7l50 -80q1 -2 3 -2t3 2l50 80q5 7 12 7h20q13 0 6 -12zM223 480q0 -10 -10 -10h-83q-4 0 -4 -4v-336q0 -53 18 -74t57 -21h11q10 0 10 -10v-15q0 -10 -10 -10h-17q-53 0 -80.5 26t-27.5 97v343 q0 4 -4 4h-41q-10 0 -10 10v12q0 10 10 10h41q4 0 4 4v112q0 10 10 10h19q10 0 10 -10v-112q0 -4 4 -4h83q10 0 10 -10v-12z" />
<glyph unicode="&#x166;" horiz-adv-x="600" d="M364 675q0 -10 -10 -10h-134q-4 0 -4 -4v-235q0 -4 4 -4h91q10 0 10 -10v-10q0 -10 -10 -10h-91q-4 0 -4 -4v-378q0 -10 -10 -10h-19q-10 0 -10 10v378q0 4 -4 4h-101q-10 0 -10 10v10q0 10 10 10h101q4 0 4 4v235q0 4 -4 4h-125q-10 0 -10 10v15q0 10 10 10h306 q10 0 10 -10v-15z" />
<glyph unicode="&#x167;" horiz-adv-x="600" d="M223 480q0 -10 -10 -10h-83q-4 0 -4 -4v-85q0 -4 4 -4h83q10 0 10 -10v-10q0 -10 -10 -10h-83q-4 0 -4 -4v-213q0 -53 18 -74t57 -21h11q10 0 10 -10v-15q0 -10 -10 -10h-17q-53 0 -80.5 26t-27.5 97v220q0 4 -4 4h-39q-10 0 -10 10v10q0 10 10 10h39q4 0 4 4v85 q0 4 -4 4h-41q-10 0 -10 10v12q0 10 10 10h41q4 0 4 4v112q0 10 10 10h19q10 0 10 -10v-112q0 -4 4 -4h83q10 0 10 -10v-12z" />
<glyph unicode="&#x16a;" horiz-adv-x="475" d="M149 810q-10 0 -10 10v11q0 10 10 10h175q10 0 10 -10v-11q0 -10 -10 -10h-175zM237 -8q-72 0 -115.5 51t-43.5 135v512q0 10 10 10h19q10 0 10 -10v-516q0 -66 33 -106.5t87 -40.5t87.5 40.5t33.5 106.5v516q0 10 10 10h19q10 0 10 -10v-512q0 -84 -44.5 -135 t-115.5 -51z" />
<glyph unicode="&#x16b;" horiz-adv-x="413" d="M290 633q10 0 10 -10v-11q0 -10 -10 -10h-175q-10 0 -10 10v11q0 10 10 10h175zM303 492q0 10 10 10h19q10 0 10 -10v-482q0 -10 -10 -10h-19q-10 0 -10 10v40q0 3 -1.5 3.5t-3.5 -2.5q-31 -58 -104 -58q-60 0 -94.5 37t-34.5 109v353q0 10 10 10h19q10 0 10 -10v-345 q0 -58 25.5 -88.5t71.5 -30.5q47 0 74.5 34.5t27.5 94.5v335z" />
<glyph unicode="&#x16e;" horiz-adv-x="475" d="M237 785q-40 0 -68 29t-28 70q0 42 28 70.5t68 28.5q41 0 69 -28.5t28 -70.5q0 -41 -28 -70t-69 -29zM237 812q29 0 49.5 21t20.5 51t-20.5 51t-49.5 21t-49 -20.5t-20 -51.5q0 -30 20 -51t49 -21zM237 -8q-72 0 -115.5 51t-43.5 135v512q0 10 10 10h19q10 0 10 -10v-516 q0 -66 33 -106.5t87 -40.5t87.5 40.5t33.5 106.5v516q0 10 10 10h19q10 0 10 -10v-512q0 -84 -44.5 -135t-115.5 -51z" />
<glyph unicode="&#x16f;" horiz-adv-x="413" d="M203 577q-40 0 -68 29t-28 70q0 42 28 70.5t68 28.5q41 0 69 -28.5t28 -70.5q0 -41 -28 -70t-69 -29zM203 748q-29 0 -49 -20.5t-20 -51.5q0 -30 20 -51t49 -21t49.5 21t20.5 51t-20.5 51t-49.5 21zM303 492q0 10 10 10h19q10 0 10 -10v-482q0 -10 -10 -10h-19 q-10 0 -10 10v40q0 3 -1.5 3.5t-3.5 -2.5q-31 -58 -104 -58q-60 0 -94.5 37t-34.5 109v353q0 10 10 10h19q10 0 10 -10v-345q0 -58 25.5 -88.5t71.5 -30.5q47 0 74.5 34.5t27.5 94.5v335z" />
<glyph unicode="&#x170;" horiz-adv-x="475" d="M176 785q-5 0 -7.5 3.5t0.5 8.5l60 111q3 7 12 7h16q14 0 7 -12l-63 -111q-5 -7 -12 -7h-13zM286 785q-14 0 -7 12l61 111q3 7 12 7h15q14 0 7 -12l-63 -111q-5 -7 -12 -7h-13zM237 -8q-72 0 -115.5 51t-43.5 135v512q0 10 10 10h19q10 0 10 -10v-516q0 -66 33 -106.5 t87 -40.5t87.5 40.5t33.5 106.5v516q0 10 10 10h19q10 0 10 -10v-512q0 -84 -44.5 -135t-115.5 -51z" />
<glyph unicode="&#x171;" horiz-adv-x="413" d="M223 707q14 0 7 -12l-63 -111q-5 -7 -12 -7h-13q-5 0 -7.5 3.5t0.5 8.5l60 111q3 7 12 7h16zM333 707q14 0 7 -12l-63 -111q-5 -7 -12 -7h-13q-14 0 -7 12l61 111q3 7 12 7h15zM303 157v335q0 10 10 10h19q10 0 10 -10v-482q0 -10 -10 -10h-19q-10 0 -10 10v40 q0 3 -1.5 3.5t-3.5 -2.5q-31 -58 -104 -58q-60 0 -94.5 37t-34.5 109v353q0 10 10 10h19q10 0 10 -10v-345q0 -58 25.5 -88.5t71.5 -30.5q47 0 74.5 34.5t27.5 94.5z" />
<glyph unicode="&#x172;" horiz-adv-x="475" d="M358 690q0 10 10 10h19q10 0 10 -10v-512q0 -80 -40.5 -130.5t-107.5 -55.5q-3 0 -5 -2q-44 -49 -37 -98q7 -50 58 -40q10 3 12 -7l2 -7q2 -11 -8 -12q-32 -7 -60 5t-35 50q-9 62 34 108q4 4 -2 5q-60 10 -95 59.5t-35 124.5v512q0 10 10 10h19q10 0 10 -10v-516 q0 -66 33 -106.5t87 -40.5t87.5 40.5t33.5 106.5v516z" />
<glyph unicode="&#x173;" horiz-adv-x="414" d="M348 -154q10 3 12 -7l2 -7q2 -11 -8 -12q-32 -7 -60 5t-35 50q-11 70 49 122q2 2 -1 4q-4 3 -4 9v40q0 3 -1.5 3.5t-3.5 -2.5q-31 -58 -104 -58q-60 0 -94.5 37t-34.5 109v353q0 10 10 10h19q10 0 10 -10v-345q0 -58 25.5 -88.5t71.5 -30.5q47 0 74.5 34.5t27.5 94.5v335 q0 10 10 10h19q10 0 10 -10v-485q0 -5 -5 -12q-55 -55 -47 -109q7 -50 58 -40z" />
<glyph unicode="&#x174;" horiz-adv-x="593" d="M213 768q-13 0 -6 12l66 101q5 7 12 7h26q7 0 12 -6l67 -102q7 -12 -6 -12h-21q-7 0 -12 7l-49 80q-1 1 -3 1t-3 -1l-50 -80q-5 -7 -12 -7h-21zM174 0q-10 0 -11 9l-130 680q-2 11 9 11h20q10 0 11 -9l110 -598q2 -6 4 0l93 598q2 9 10 9h19q9 0 10 -9l96 -598q2 -6 4 0 l100 598q1 9 11 9h21q11 0 9 -11l-123 -680q-1 -9 -11 -9h-20q-8 0 -10 9l-94 596q-2 6 -4 0l-95 -596q-1 -9 -10 -9h-19z" />
<glyph unicode="&#x175;" horiz-adv-x="527" d="M176 570q-13 0 -6 12l66 101q5 7 12 7h26q8 0 12 -6l67 -102q7 -12 -6 -12h-21q-7 0 -12 7l-49 80q-1 1 -3 1t-3 -1l-50 -80q-5 -7 -12 -7h-21zM144 0q-10 0 -11 9l-105 482q-2 11 9 11h18q9 0 11 -9l86 -431q2 -8 4 0l86 431q2 9 11 9h19q10 0 11 -9l87 -431q2 -8 4 0 l87 431q1 9 11 9h18q11 0 9 -11l-106 -482q-1 -9 -11 -9h-20q-10 0 -11 9l-87 414q-2 8 -4 0l-85 -414q-1 -9 -11 -9h-20z" />
<glyph unicode="&#x176;" horiz-adv-x="401" d="M115 768q-13 0 -6 12l66 101q5 7 12 7h26q7 0 12 -6l67 -102q7 -12 -6 -12h-21q-7 0 -12 7l-49 80q-1 1 -3 1t-3 -1l-50 -80q-5 -7 -12 -7h-21zM191 0q-10 0 -10 10v317q0 4 -1 5l-137 356q-5 12 8 12h20q9 0 12 -8l115 -315q1 -2 3 -2t3 2l114 315q3 8 12 8h20 q13 0 8 -12l-137 -356q-1 -1 -1 -5v-317q0 -10 -10 -10h-19z" />
<glyph unicode="&#x177;" horiz-adv-x="342" d="M86 570q-13 0 -6 12l66 101q5 7 12 7h26q8 0 12 -6l67 -102q7 -12 -6 -12h-21q-7 0 -12 7l-49 80q-1 1 -3 1t-3 -1l-50 -80q-5 -7 -12 -7h-21zM47 -200q-6 0 -6 10v15q0 10 5 10h5q42 1 59.5 30t40.5 132v6l-129 488q-3 11 9 11h21q10 0 11 -9l107 -433q2 -8 4 0l106 433 q2 9 11 9h20q12 0 9 -11l-142 -547q-24 -91 -48.5 -117.5t-77.5 -26.5h-5z" />
<glyph unicode="&#x178;" horiz-adv-x="401" d="M145 804q-14 0 -23.5 10t-9.5 26q0 14 9.5 24.5t23.5 10.5q13 0 22 -10.5t9 -24.5q0 -16 -8.5 -26t-22.5 -10zM259 804q-14 0 -23.5 10t-9.5 26q0 14 9.5 24.5t23.5 10.5q13 0 22 -10.5t9 -24.5q0 -16 -8.5 -26t-22.5 -10zM191 0q-10 0 -10 10v317q0 4 -1 5l-137 356 q-5 12 8 12h20q9 0 12 -8l115 -315q1 -2 3 -2t3 2l114 315q3 8 12 8h20q13 0 8 -12l-137 -356q-1 -1 -1 -5v-317q0 -10 -10 -10h-19z" />
<glyph unicode="&#x179;" horiz-adv-x="387" d="M168 790q-14 0 -7 12l62 111q5 7 12 7h18q14 0 7 -12l-67 -111q-5 -7 -12 -7h-13zM49 0q-10 0 -10 10v19q0 7 2 12l257 619q2 5 -3 5h-246q-10 0 -10 10v15q0 10 10 10h283q10 0 10 -10v-19q0 -7 -2 -12l-257 -619q-3 -5 3 -5h246q10 0 10 -10v-15q0 -10 -10 -10h-283z " />
<glyph unicode="&#x17a;" horiz-adv-x="355" d="M157 588q-14 0 -7 12l62 111q5 7 12 7h18q14 0 7 -12l-67 -111q-5 -7 -12 -7h-13zM50 0q-10 0 -10 10v19q0 5 3 13l226 419q2 5 -2 5h-214q-10 0 -10 10v16q0 10 10 10h254q10 0 10 -10v-19q0 -5 -3 -13l-226 -419q-2 -5 2 -5h216q10 0 10 -10v-16q0 -10 -10 -10h-256z " />
<glyph unicode="&#x17b;" horiz-adv-x="387" d="M193 799q-14 0 -23 10t-9 25q0 14 9.5 24t22.5 10t22 -10t9 -24q0 -15 -9 -25t-22 -10zM49 0q-10 0 -10 10v19q0 7 2 12l257 619q2 5 -3 5h-246q-10 0 -10 10v15q0 10 10 10h283q10 0 10 -10v-19q0 -7 -2 -12l-257 -619q-3 -5 3 -5h246q10 0 10 -10v-15q0 -10 -10 -10 h-283z" />
<glyph unicode="&#x17c;" horiz-adv-x="355" d="M182 597q-14 0 -23 10t-9 25q0 14 9.5 24t22.5 10t22 -10t9 -24q0 -15 -9 -25t-22 -10zM50 0q-10 0 -10 10v19q0 5 3 13l226 419q2 5 -2 5h-214q-10 0 -10 10v16q0 10 10 10h254q10 0 10 -10v-19q0 -5 -3 -13l-226 -419q-2 -5 2 -5h216q10 0 10 -10v-16q0 -10 -10 -10 h-256z" />
<glyph unicode="&#x17d;" horiz-adv-x="387" d="M179 777q-7 0 -12 7l-65 102q-7 12 6 12h20q7 0 12 -7l50 -80q1 -1 3 -1t3 1l50 80q5 7 12 7h20q13 0 6 -12l-67 -102q-5 -7 -12 -7h-26zM49 0q-10 0 -10 10v19q0 7 2 12l257 619q2 5 -3 5h-246q-10 0 -10 10v15q0 10 10 10h283q10 0 10 -10v-19q0 -7 -2 -12l-257 -619 q-3 -5 3 -5h246q10 0 10 -10v-15q0 -10 -10 -10h-283z" />
<glyph unicode="&#x17e;" horiz-adv-x="355" d="M168 575q-7 0 -12 7l-65 102q-7 12 6 12h20q7 0 12 -7l50 -80q1 -1 3 -1t3 1l50 80q5 7 12 7h20q13 0 6 -12l-67 -102q-5 -7 -12 -7h-26zM50 0q-10 0 -10 10v19q0 5 3 13l226 419q2 5 -2 5h-214q-10 0 -10 10v16q0 10 10 10h254q10 0 10 -10v-19q0 -5 -3 -13l-226 -419 q-2 -5 2 -5h216q10 0 10 -10v-16q0 -10 -10 -10h-256z" />
<glyph unicode="&#x192;" horiz-adv-x="459" d="M256 551q13 92 47.5 126t110.5 32q11 0 9 -10l-1 -16q0 -10 -11 -10h-17q-47 0 -68 -31t-31 -97l-26 -165q0 -4 3 -4h78q10 0 10 -10v-12q0 -10 -10 -10h-83q-5 0 -5 -4l-63 -391q-13 -92 -47.5 -126t-109.5 -32q-11 0 -9 10l1 16q0 10 11 10h17q46 0 67.5 31.5 t31.5 96.5l61 385q0 4 -3 4h-59q-10 0 -10 10v12q0 10 10 10h64q5 0 5 4z" />
<glyph unicode="&#x1cd;" horiz-adv-x="434" d="M241 762q-5 -6 -12 -6h-26q-7 0 -12 7l-65 101q-7 12 6 12h20q7 0 12 -7l50 -80q1 -1 3 -1t3 1l50 80q5 7 12 7h20q13 0 6 -12zM365 0q-9 0 -11 9l-29 136q0 4 -5 4h-206q-5 0 -5 -4l-29 -136q-2 -9 -11 -9h-19q-11 0 -9 11l152 680q1 9 11 9h24q9 0 11 -9l154 -680 q2 -11 -9 -11h-19zM119 186q-2 -4 3 -4h190q5 0 3 4l-96 442q-2 8 -4 0z" />
<glyph unicode="&#x1ce;" horiz-adv-x="396" d="M220 572q-4 -6 -12 -6h-26q-7 0 -12 7l-65 101q-7 12 6 12h20q7 0 12 -7l50 -80q1 -1 3 -1t3 1l50 80q5 7 12 7h20q13 0 6 -12zM199 510q66 0 102.5 -45t36.5 -121v-334q0 -10 -10 -10h-19q-10 0 -10 10v42q-1 4 -5 1q-38 -61 -120 -61q-53 0 -90 30.5t-37 106.5 q0 82 44.5 121t118.5 39h85q4 0 4 4v51q0 60 -26.5 95.5t-74.5 35.5q-37 0 -65.5 -23.5t-32.5 -61.5q0 -10 -10 -10l-21 1q-11 0 -9 11q6 53 45.5 85.5t93.5 32.5zM181 27q48 0 83 30.5t35 88.5v105q0 4 -4 4h-84q-56 0 -90 -31t-34 -92q0 -54 25.5 -79.5t68.5 -25.5z" />
<glyph unicode="&#x218;" horiz-adv-x="415" d="M213 -8q-69 0 -111.5 48t-42.5 126v20q0 10 10 10h18q10 0 10 -10v-19q0 -63 32 -102t83 -39q50 0 83.5 37.5t33.5 98.5q0 25 -7.5 46.5t-15 35t-30 34t-33 28.5t-44.5 33q-39 29 -58 45t-41.5 42.5t-32 55.5t-9.5 65q0 75 41.5 118t107.5 43q70 0 112.5 -48.5 t42.5 -127.5v-25q0 -10 -10 -10h-19q-10 0 -10 10v25q0 64 -32 103t-84 39q-48 0 -79 -34t-31 -95q0 -52 26 -85t97 -86q85 -63 116 -102t31 -103q0 -80 -43 -128.5t-111 -48.5zM192 -196q-14 0 -7 12l62 111q5 7 12 7h18q14 0 7 -12l-67 -111q-5 -7 -12 -7h-13z" />
<glyph unicode="&#x219;" horiz-adv-x="357" d="M187 -4q-62 0 -99.5 34.5t-37.5 88.5v5q0 10 10 10h18q10 0 10 -7v-8q0 -38 27 -64t72 -26q43 0 69.5 26.5t26.5 69.5q0 24 -8 42t-26.5 31t-32.5 20.5t-42 18.5q-28 12 -45 20.5t-37.5 24.5t-30 39.5t-9.5 54.5q0 60 36.5 95t96.5 35q61 0 97.5 -36t36.5 -93v-3 q0 -10 -10 -10h-17q-10 0 -10 7v7q0 40 -27 67.5t-70 27.5t-69 -27t-26 -69q0 -23 7.5 -39.5t25 -29.5t30.5 -20t39 -18q31 -13 47.5 -21t39 -25t33 -41.5t10.5 -56.5q0 -59 -36.5 -94.5t-98.5 -35.5zM166 -192q-14 0 -7 12l62 111q5 7 12 7h18q14 0 7 -12l-67 -111 q-5 -7 -12 -7h-13z" />
<glyph unicode="&#x21a;" horiz-adv-x="388" d="M354 700q10 0 10 -10v-15q0 -10 -10 -10h-134q-4 0 -4 -4v-651q0 -10 -10 -10h-19q-10 0 -10 10v651q0 4 -4 4h-125q-10 0 -10 10v15q0 10 10 10h306zM112 -192q-14 0 -7 12l62 111q5 7 12 7h18q14 0 7 -12l-67 -111q-5 -7 -12 -7h-13z" />
<glyph unicode="&#x21b;" horiz-adv-x="256" d="M222 10q0 -10 -10 -10h-17q-53 0 -80.5 26t-27.5 97v343q0 4 -4 4h-41q-10 0 -10 10v12q0 10 10 10h41q4 0 4 4v112q0 10 10 10h19q10 0 10 -10v-112q0 -4 4 -4h83q10 0 10 -10v-12q0 -10 -10 -10h-83q-4 0 -4 -4v-336q0 -53 18 -74t57 -21h11q10 0 10 -10v-15zM187 -48 q5 7 12 7h18q14 0 7 -12l-67 -111q-5 -7 -12 -7h-13q-14 0 -7 12z" />
<glyph unicode="&#x228;" horiz-adv-x="425" d="M378 675q0 -10 -10 -10h-241q-4 0 -4 -4v-289q0 -4 4 -4h158q10 0 10 -10v-15q0 -10 -10 -10h-158q-4 0 -4 -4v-290q0 -4 4 -4h241q10 0 10 -10v-15q0 -10 -10 -10h-116q-5 0 -2 -5q51 -49 40 -114q-7 -38 -35 -50t-61 -5q-9 1 -7 12l2 7q2 10 12 7q51 -10 58 40 q8 52 -44 106q-2 2 -5 2h-116q-10 0 -10 10v680q0 10 10 10h274q10 0 10 -10v-15z" />
<glyph unicode="&#x229;" horiz-adv-x="395" d="M343 250q0 -10 -10 -10h-232q-4 0 -4 -4v-96q0 -50 29 -81.5t74 -31.5q38 0 65 22t36 59q3 9 11 9l18 -1q12 0 9 -11q-8 -46 -39.5 -75.5t-78.5 -35.5q-6 -2 -1 -5q52 -50 41 -116q-7 -38 -35 -50t-61 -5q-9 1 -7 12l2 7q2 10 12 7q51 -10 58 40q8 52 -45 107q-2 2 -5 2 q-55 6 -88.5 46t-33.5 99v225q0 65 39.5 106t102.5 41q64 0 103.5 -41t39.5 -106v-113zM200 475q-45 0 -74 -31.5t-29 -81.5v-85q0 -4 4 -4h199q4 0 4 4v85q0 50 -29 81.5t-75 31.5z" />
<glyph unicode="&#x2c6;" horiz-adv-x="199" d="M14 570q-13 0 -6 12l66 101q5 7 12 7h26q8 0 12 -6l67 -102q7 -12 -6 -12h-21q-7 0 -12 7l-49 80q-1 1 -3 1t-3 -1l-50 -80q-5 -7 -12 -7h-21z" />
<glyph unicode="&#x2c7;" horiz-adv-x="250" d="M111 569q-7 0 -12 7l-65 102q-7 12 6 12h20q7 0 12 -7l50 -80q1 -1 3 -1t3 1l50 80q5 7 12 7h20q13 0 6 -12l-67 -102q-5 -7 -12 -7h-26z" />
<glyph unicode="&#x2c9;" horiz-adv-x="562" d="M192 602q-10 0 -10 10v11q0 10 10 10h175q10 0 10 -10v-11q0 -10 -10 -10h-175z" />
<glyph unicode="&#x2d8;" horiz-adv-x="247" d="M124 562q-39 0 -66.5 25.5t-31.5 64.5q0 10 10 10h9q10 0 11 -10q3 -28 22.5 -45.5t45.5 -17.5t45.5 17.5t22.5 45.5q1 10 11 10h9q11 0 9 -10q-3 -38 -30.5 -64t-66.5 -26z" />
<glyph unicode="&#x2d9;" horiz-adv-x="114" d="M58 588q-14 0 -23 10t-9 25q0 14 9.5 24t22.5 10t22 -10t9 -24q0 -15 -9 -25t-22 -10z" />
<glyph unicode="&#x2da;" horiz-adv-x="245" d="M122 577q-40 0 -68 29t-28 70q0 42 28 70.5t68 28.5q41 0 69 -28.5t28 -70.5q0 -41 -28 -70t-69 -29zM122 604q29 0 49.5 21t20.5 51t-20.5 51t-49.5 21t-49 -20.5t-20 -51.5q0 -30 20 -51t49 -21z" />
<glyph unicode="&#x2db;" horiz-adv-x="106" d="M104 -168q2 -11 -7 -12q-33 -7 -61 5t-35 50q-11 69 45 118l4 4q3 3 10 3h7q6 0 7.5 -4t-2.5 -8q-47 -52 -40 -102t58 -40q10 3 12 -7z" />
<glyph unicode="&#x2dc;" horiz-adv-x="304" d="M201 601q-22 0 -53 23q-32 21 -46 21q-29 0 -48 -27q-6 -9 -14 -3l-6 4q-9 6 -3 14q26 44 70 44q22 0 55 -23t47 -23q27 0 46 31q5 10 14 4l6 -3q10 -6 1 -21q-26 -41 -69 -41z" />
<glyph unicode="&#x2dd;" horiz-adv-x="274" d="M40 587q-14 0 -7 12l62 111q5 7 12 7h18q14 0 7 -12l-67 -111q-5 -7 -12 -7h-13zM150 587q-14 0 -7 12l62 111q5 7 12 7h18q14 0 7 -12l-67 -111q-5 -7 -12 -7h-13z" />
<glyph unicode="&#x300;" d="M-7 591q7 -12 -7 -12h-13q-7 0 -12 7l-67 111q-7 12 7 12h18q7 0 12 -7z" />
<glyph unicode="&#x301;" d="M-99 579q-14 0 -7 12l62 111q5 7 12 7h18q14 0 7 -12l-67 -111q-5 -7 -12 -7h-13z" />
<glyph unicode="&#x302;" d="M-186 570q-13 0 -6 12l66 101q5 7 12 7h26q8 0 12 -6l67 -102q7 -12 -6 -12h-21q-7 0 -12 7l-49 80q-1 1 -3 1t-3 -1l-50 -80q-5 -7 -12 -7h-21z" />
<glyph unicode="&#x303;" d="M-77 601q-22 0 -53 23q-32 21 -46 21q-29 0 -48 -27q-6 -9 -14 -3l-6 4q-9 6 -3 14q26 44 70 44q22 0 55 -23t47 -23q27 0 46 31q5 10 14 4l6 -3q10 -6 1 -21q-26 -41 -69 -41z" />
<glyph unicode="&#x304;" d="M-370 602q-10 0 -10 10v11q0 10 10 10h175q10 0 10 -10v-11q0 -10 -10 -10h-175z" />
<glyph unicode="&#x306;" d="M-123 544q-39 0 -66.5 25.5t-31.5 64.5q0 10 10 10h9q10 0 11 -10q3 -28 22.5 -45.5t45.5 -17.5t45.5 17.5t22.5 45.5q1 10 11 10h9q11 0 9 -10q-3 -38 -30.5 -64t-66.5 -26z" />
<glyph unicode="&#x307;" d="M-31 588q-14 0 -23 10t-9 25q0 14 9.5 24t22.5 10t22 -10t9 -24q0 -15 -9 -25t-22 -10z" />
<glyph unicode="&#x308;" d="M-145 606q-14 0 -23.5 10t-9.5 26q0 14 9.5 24.5t23.5 10.5q13 0 22 -10.5t9 -24.5q0 -16 -8.5 -26t-22.5 -10zM-31 606q-14 0 -23.5 10t-9.5 26q0 14 9.5 24.5t23.5 10.5q13 0 22 -10.5t9 -24.5q0 -16 -8.5 -26t-22.5 -10z" />
<glyph unicode="&#x30a;" d="M-97 577q-40 0 -68 29t-28 70q0 42 28 70.5t68 28.5q41 0 69 -28.5t28 -70.5q0 -41 -28 -70t-69 -29zM-97 604q29 0 49.5 21t20.5 51t-20.5 51t-49.5 21t-49 -20.5t-20 -51.5q0 -30 20 -51t49 -21z" />
<glyph unicode="&#x30b;" d="M-231 577q-5 0 -7.5 3.5t0.5 8.5l60 111q3 7 12 7h16q14 0 7 -12l-63 -111q-5 -7 -12 -7h-13zM-121 577q-14 0 -7 12l61 111q3 7 12 7h15q14 0 7 -12l-63 -111q-5 -7 -12 -7h-13z" />
<glyph unicode="&#x30c;" d="M-139 561q-7 0 -12 7l-65 101q-7 12 6 12h20q7 0 12 -7l50 -80q1 -2 3 -2t3 2l50 80q5 7 12 7h20q13 0 6 -12l-67 -102q-5 -6 -12 -6h-26z" />
<glyph unicode="&#x312;" d="M-40 692q14 0 7 -12l-62 -111q-5 -7 -12 -7h-18q-14 0 -7 12l67 111q5 7 12 7h13z" />
<glyph unicode="&#x313;" d="M-99 579q-14 0 -7 12l62 111q5 7 12 7h18q14 0 7 -12l-67 -111q-5 -7 -12 -7h-13z" />
<glyph unicode="&#x326;" d="M-125 -188q-14 0 -7 12l62 111q5 7 12 7h18q14 0 7 -12l-67 -111q-5 -7 -12 -7h-13z" />
<glyph unicode="&#x327;" d="M-97 -180q-9 1 -7 12l2 7q2 10 12 7q51 -10 58 40t-40 102q-3 3 -3.5 6t1.5 4.5t6 1.5h8q7 0 10 -3l4 -4q56 -49 45 -118q-7 -38 -35 -50t-61 -5z" />
<glyph unicode="&#x328;" d="M-2 -168q2 -11 -7 -12q-33 -7 -61 5t-35 50q-11 69 45 118l4 4q3 3 10 3h7q6 0 7.5 -4t-2.5 -8q-47 -52 -40 -102t58 -40q10 3 12 -7z" />
<glyph unicode="&#x335;" d="M-259 593q0 10 10 10h239q10 0 10 -10v-10q0 -10 -10 -10h-239q-10 0 -10 10v10z" />
<glyph unicode="&#x336;" d="M-385 518q-10 0 -10 10v12q0 10 10 10h375q10 0 10 -10v-12q0 -10 -10 -10h-375z" />
<glyph unicode="&#x337;" d="M-258 145q-7 -6 -14 3l-9 11q-5 8 3 14l324 221q8 7 14 -2l8 -12q5 -8 -2 -14z" />
<glyph unicode="&#x338;" d="M-333 -33q-13 0 -8 12l304 754q3 8 11 8h13q13 0 8 -12l-304 -754q-3 -8 -11 -8h-13z" />
<glyph unicode="&#x394;" horiz-adv-x="537" d="M49 0q-10 0 -10 10v19q0 4 2 12l208 651q3 8 12 8h15q9 0 12 -8l209 -652q2 -8 2 -12v-18q0 -10 -10 -10h-440zM78 40q-2 -5 4 -5h373q7 0 4 5l-187 603q-1 2 -3 2t-3 -2z" />
<glyph unicode="&#x3a9;" horiz-adv-x="475" d="M75 0q-10 0 -10 10v15q0 10 10 10h63q6 0 1 5q-59 43 -59 130v373q0 74 44 119.5t114 45.5q71 0 115.5 -46t44.5 -119v-373q0 -88 -61 -130q-5 -5 2 -5h61q10 0 10 -10v-15q0 -10 -10 -10h-125q-10 0 -10 10v16q0 8 9 10q35 8 60 43t25 83v383q0 57 -34 92.5t-87 35.5 t-86 -35.5t-33 -92.5v-383q0 -48 24 -82.5t59 -43.5q9 -2 9 -10v-16q0 -10 -10 -10h-126z" />
<glyph unicode="&#x3bc;" horiz-adv-x="420" d="M309 492q0 10 10 10h19q10 0 10 -10v-482q0 -10 -10 -10h-19q-10 0 -10 10v40q0 3 -1.5 3.5t-3.5 -2.5q-31 -58 -104 -58q-54 0 -85 28q-5 3 -5 -3v-208q0 -10 -10 -10h-19q-10 0 -10 10v682q0 10 10 10h19q10 0 10 -10v-345q0 -58 25.5 -88.5t71.5 -30.5q47 0 74.5 34.5 t27.5 94.5v335z" />
<glyph unicode="&#x3c0;" horiz-adv-x="494" d="M458 478q0 -10 -10 -10h-51q-4 0 -4 -4v-389q0 -22 11 -29t37 -8q10 0 10 -10v-18q0 -10 -10 -10q-43 1 -65.5 14t-21.5 50v400q0 4 -4 4h-199q-4 0 -4 -4v-454q0 -10 -10 -10h-19q-10 0 -10 10v454q0 4 -4 4h-58q-10 0 -10 10v14q0 10 10 10h402q10 0 10 -10v-14z" />
<glyph unicode="&#x1e80;" horiz-adv-x="593" d="M311 789q7 -12 -7 -12h-13q-7 0 -12 7l-67 111q-7 12 7 12h18q7 0 12 -7zM174 0q-10 0 -11 9l-130 680q-2 11 9 11h20q10 0 11 -9l110 -598q2 -6 4 0l93 598q2 9 10 9h19q9 0 10 -9l96 -598q2 -6 4 0l100 598q1 9 11 9h21q11 0 9 -11l-123 -680q-1 -9 -11 -9h-20 q-8 0 -10 9l-94 596q-2 6 -4 0l-95 -596q-1 -9 -10 -9h-19z" />
<glyph unicode="&#x1e81;" horiz-adv-x="527" d="M274 591q7 -12 -7 -12h-13q-7 0 -12 7l-67 111q-7 12 7 12h18q7 0 12 -7zM144 0q-10 0 -11 9l-105 482q-2 11 9 11h18q9 0 11 -9l86 -431q2 -8 4 0l86 431q2 9 11 9h19q10 0 11 -9l87 -431q2 -8 4 0l87 431q1 9 11 9h18q11 0 9 -11l-106 -482q-1 -9 -11 -9h-20 q-10 0 -11 9l-87 414q-2 8 -4 0l-85 -414q-1 -9 -11 -9h-20z" />
<glyph unicode="&#x1e82;" horiz-adv-x="593" d="M274 777q-14 0 -7 12l62 111q5 7 12 7h18q14 0 7 -12l-67 -111q-5 -7 -12 -7h-13zM174 0q-10 0 -11 9l-130 680q-2 11 9 11h20q10 0 11 -9l110 -598q2 -6 4 0l93 598q2 9 10 9h19q9 0 10 -9l96 -598q2 -6 4 0l100 598q1 9 11 9h21q11 0 9 -11l-123 -680q-1 -9 -11 -9h-20 q-8 0 -10 9l-94 596q-2 6 -4 0l-95 -596q-1 -9 -10 -9h-19z" />
<glyph unicode="&#x1e83;" horiz-adv-x="527" d="M237 579q-14 0 -7 12l62 111q5 7 12 7h18q14 0 7 -12l-67 -111q-5 -7 -12 -7h-13zM144 0q-10 0 -11 9l-105 482q-2 11 9 11h18q9 0 11 -9l86 -431q2 -8 4 0l86 431q2 9 11 9h19q10 0 11 -9l87 -431q2 -8 4 0l87 431q1 9 11 9h18q11 0 9 -11l-106 -482q-1 -9 -11 -9h-20 q-10 0 -11 9l-87 414q-2 8 -4 0l-85 -414q-1 -9 -11 -9h-20z" />
<glyph unicode="&#x1e84;" horiz-adv-x="593" d="M243 804q-14 0 -23.5 10t-9.5 26q0 14 9.5 24.5t23.5 10.5q13 0 22 -10.5t9 -24.5q0 -16 -8.5 -26t-22.5 -10zM357 804q-14 0 -23.5 10t-9.5 26q0 14 9.5 24.5t23.5 10.5q13 0 22 -10.5t9 -24.5q0 -16 -8.5 -26t-22.5 -10zM174 0q-10 0 -11 9l-130 680q-2 11 9 11h20 q10 0 11 -9l110 -598q2 -6 4 0l93 598q2 9 10 9h19q9 0 10 -9l96 -598q2 -6 4 0l100 598q1 9 11 9h21q11 0 9 -11l-123 -680q-1 -9 -11 -9h-20q-8 0 -10 9l-94 596q-2 6 -4 0l-95 -596q-1 -9 -10 -9h-19z" />
<glyph unicode="&#x1e85;" horiz-adv-x="527" d="M206 606q-14 0 -23.5 10t-9.5 26q0 14 9.5 24.5t23.5 10.5q13 0 22 -10.5t9 -24.5q0 -16 -8.5 -26t-22.5 -10zM320 606q-14 0 -23.5 10t-9.5 26q0 14 9.5 24.5t23.5 10.5q13 0 22 -10.5t9 -24.5q0 -16 -8.5 -26t-22.5 -10zM144 0q-10 0 -11 9l-105 482q-2 11 9 11h18 q9 0 11 -9l86 -431q2 -8 4 0l86 431q2 9 11 9h19q10 0 11 -9l87 -431q2 -8 4 0l87 431q1 9 11 9h18q11 0 9 -11l-106 -482q-1 -9 -11 -9h-20q-10 0 -11 9l-87 414q-2 8 -4 0l-85 -414q-1 -9 -11 -9h-20z" />
<glyph unicode="&#x1ef2;" horiz-adv-x="401" d="M213 789q7 -12 -7 -12h-13q-7 0 -12 7l-67 111q-7 12 7 12h18q7 0 12 -7zM191 0q-10 0 -10 10v317q0 4 -1 5l-137 356q-5 12 8 12h20q9 0 12 -8l115 -315q1 -2 3 -2t3 2l114 315q3 8 12 8h20q13 0 8 -12l-137 -356q-1 -1 -1 -5v-317q0 -10 -10 -10h-19z" />
<glyph unicode="&#x1ef3;" horiz-adv-x="342" d="M184 591q7 -12 -7 -12h-13q-7 0 -12 7l-67 111q-7 12 7 12h18q7 0 12 -7zM47 -200q-6 0 -6 10v15q0 10 5 10h5q42 1 59.5 30t40.5 132v6l-129 488q-3 11 9 11h21q10 0 11 -9l107 -433q2 -8 4 0l106 433q2 9 11 9h20q12 0 9 -11l-142 -547q-24 -91 -48.5 -117.5 t-77.5 -26.5h-5z" />
<glyph unicode="&#x2000;" horiz-adv-x="491" />
<glyph unicode="&#x2001;" horiz-adv-x="983" />
<glyph unicode="&#x2002;" horiz-adv-x="491" />
<glyph unicode="&#x2003;" horiz-adv-x="983" />
<glyph unicode="&#x2004;" horiz-adv-x="327" />
<glyph unicode="&#x2005;" horiz-adv-x="245" />
<glyph unicode="&#x2006;" horiz-adv-x="163" />
<glyph unicode="&#x2007;" horiz-adv-x="163" />
<glyph unicode="&#x2008;" horiz-adv-x="122" />
<glyph unicode="&#x2009;" horiz-adv-x="196" />
<glyph unicode="&#x200a;" horiz-adv-x="54" />
<glyph unicode="&#x2010;" horiz-adv-x="305" d="M46 300q-10 0 -10 10v15q0 10 10 10h213q10 0 10 -10v-15q0 -10 -10 -10h-213z" />
<glyph unicode="&#x2011;" horiz-adv-x="305" d="M46 300q-10 0 -10 10v15q0 10 10 10h213q10 0 10 -10v-15q0 -10 -10 -10h-213z" />
<glyph unicode="&#x2012;" horiz-adv-x="305" d="M46 300q-10 0 -10 10v15q0 10 10 10h213q10 0 10 -10v-15q0 -10 -10 -10h-213z" />
<glyph unicode="&#x2013;" horiz-adv-x="368" d="M46 264q-10 0 -10 10v16q0 10 10 10h276q10 0 10 -10v-16q0 -10 -10 -10h-276z" />
<glyph unicode="&#x2014;" horiz-adv-x="592" d="M46 264q-10 0 -10 10v16q0 10 10 10h500q10 0 10 -10v-16q0 -10 -10 -10h-500z" />
<glyph unicode="&#x2018;" horiz-adv-x="94" d="M12 505q-11 0 -8 11l54 176q3 8 12 8h12q12 0 9 -11l-47 -175q-2 -9 -11 -9h-21z" />
<glyph unicode="&#x2019;" horiz-adv-x="94" d="M82 700q11 0 8 -11l-54 -176q-3 -8 -12 -8h-12q-12 0 -9 11l47 175q2 9 11 9h21z" />
<glyph unicode="&#x201a;" horiz-adv-x="600" d="M51 -71q-11 0 -9 11l36 205q2 9 11 9h16q11 0 9 -11l-41 -205q-1 -9 -11 -9h-11z" />
<glyph unicode="&#x201c;" horiz-adv-x="204" d="M12 505q-11 0 -8 11l62 176q3 8 12 8h11q12 0 9 -11l-54 -176q-3 -8 -12 -8h-20zM115 505q-11 0 -8 11l61 176q3 8 12 8h12q12 0 9 -11l-53 -176q-3 -8 -12 -8h-21z" />
<glyph unicode="&#x201d;" horiz-adv-x="204" d="M89 700q11 0 8 -11l-61 -176q-3 -8 -12 -8h-12q-12 0 -9 11l53 176q3 8 12 8h21zM192 700q11 0 8 -11l-62 -176q-3 -8 -12 -8h-11q-12 0 -9 11l54 176q3 8 12 8h20z" />
<glyph unicode="&#x201e;" horiz-adv-x="187" d="M89 127q11 0 8 -11l-61 -176q-3 -8 -12 -8h-12q-12 0 -9 11l53 176q3 8 12 8h21zM192 127q11 0 8 -11l-62 -176q-3 -8 -12 -8h-11q-12 0 -9 11l54 176q3 8 12 8h20z" />
<glyph unicode="&#x2020;" horiz-adv-x="323" d="M277 460q10 0 10 -10v-13q0 -10 -10 -10h-92q-4 0 -4 -4v-613q0 -10 -10 -10h-19q-10 0 -10 10v613q0 4 -4 4h-92q-10 0 -10 10v13q0 10 10 10h92q4 0 4 4v226q0 10 10 10h19q10 0 10 -10v-226q0 -4 4 -4h92z" />
<glyph unicode="&#x2021;" horiz-adv-x="323" d="M287 437q0 -10 -10 -10h-92q-4 0 -4 -4v-346q0 -4 4 -4h92q10 0 10 -10v-13q0 -10 -10 -10h-92q-4 0 -4 -4v-226q0 -10 -10 -10h-19q-10 0 -10 10v226q0 4 -4 4h-92q-10 0 -10 10v13q0 10 10 10h92q4 0 4 4v346q0 4 -4 4h-92q-10 0 -10 10v13q0 10 10 10h92q4 0 4 4v226 q0 10 10 10h19q10 0 10 -10v-226q0 -4 4 -4h92q10 0 10 -10v-13z" />
<glyph unicode="&#x2022;" horiz-adv-x="290" d="M145 154q-45 0 -77 32t-32 77t32 76.5t77 31.5t77 -31.5t32 -76.5t-32.5 -77t-76.5 -32z" />
<glyph unicode="&#x2026;" horiz-adv-x="593" d="M90 5q-18 0 -30 14t-12 34q0 19 12.5 33t29.5 14q16 0 28.5 -14t12.5 -33q0 -20 -12 -34t-29 -14zM296 5q-18 0 -30 14t-12 34q0 19 12.5 33t29.5 14q16 0 28.5 -14t12.5 -33q0 -20 -12 -34t-29 -14zM502 5q-18 0 -30 14t-12 34q0 19 12.5 33t29.5 14q16 0 28.5 -14 t12.5 -33q0 -20 -12 -34t-29 -14z" />
<glyph unicode="&#x202f;" horiz-adv-x="196" />
<glyph unicode="&#x2030;" horiz-adv-x="1003" d="M132 276q-44 0 -71 28.5t-27 75.5v224q0 47 27 75.5t71 28.5t71 -28.5t27 -75.5v-224q0 -47 -27 -75.5t-71 -28.5zM144 0q-13 0 -6 12l439 681q5 7 12 7h13q13 0 6 -12l-440 -681q-5 -7 -12 -7h-12zM132 305q30 0 48 20t18 54v227q0 33 -18 53t-48 20t-48 -20t-18 -53 v-227q0 -34 18 -54t48 -20zM607 -8q-44 0 -71 28.5t-27 75.5v224q0 47 27 75.5t71 28.5t71 -28.5t27 -75.5v-224q0 -47 -27 -75.5t-71 -28.5zM871 -8q-44 0 -71 28.5t-27 75.5v224q0 47 27 75.5t71 28.5t71 -28.5t27 -75.5v-224q0 -47 -27 -75.5t-71 -28.5zM607 21 q30 0 48 20t18 54v227q0 33 -18 53t-48 20t-48 -20t-18 -53v-227q0 -34 18 -54t48 -20zM871 21q30 0 48 20t18 54v227q0 33 -18 53t-48 20t-48 -20t-18 -53v-227q0 -34 18 -54t48 -20z" />
<glyph unicode="&#x2039;" horiz-adv-x="317" d="M224 119q4 -5 2 -8.5t-8 -3.5h-16q-9 0 -13 6l-119 161q-5 7 0 14l119 161q4 6 13 6h16q6 0 8 -3.5t-2 -8.5l-118 -159q-2 -3 0 -6z" />
<glyph unicode="&#x203a;" horiz-adv-x="336" d="M99 107q-6 0 -8 3.5t2 8.5l118 159q1 3 0 6l-118 159q-4 5 -2 8.5t8 3.5h16q9 0 13 -6l119 -161q5 -7 0 -14l-119 -161q-4 -6 -13 -6h-16z" />
<glyph unicode="&#x2044;" horiz-adv-x="229" d="M-110 0q-13 0 -6 12l439 681q5 7 12 7h13q13 0 6 -12l-440 -681q-5 -7 -12 -7h-12z" />
<glyph unicode="&#x205f;" horiz-adv-x="245" />
<glyph unicode="&#x2074;" horiz-adv-x="230" d="M205 601q10 0 10 -10v-10q0 -10 -10 -10h-13q-4 0 -4 -4v-103q0 -10 -10 -10h-11q-10 0 -10 10v103q0 4 -4 4h-128q-10 0 -10 10v10q0 4 2 12l90 263q3 8 12 8h14q11 0 8 -11l-88 -257q-3 -5 3 -5h97q4 0 4 4v92q0 10 10 10h11q10 0 10 -10v-92q0 -4 4 -4h13z" />
<glyph unicode="&#x2075;" horiz-adv-x="228" d="M196 646q8 -24 8 -67q0 -40 -6 -59q-17 -74 -85 -74q-75 0 -88 81q0 2 -3 30q0 10 10 10h12q10 0 10 -10l3 -25q11 -56 56 -56q41 0 53 48q7 21 7 55q0 35 -7 55q-12 47 -53 47q-45 0 -56 -43q-3 -9 -11 -9h-14q-10 0 -10 10v222q0 10 10 10h152q10 0 10 -10v-8 q0 -10 -10 -10h-125q-4 0 -4 -4l-1 -150q0 -6 5 -1q20 22 61 22q59 0 76 -64z" />
<glyph unicode="&#x2076;" horiz-adv-x="242" d="M208 648q10 -30 10 -69q0 -41 -9 -69q-18 -64 -82 -64q-66 0 -84 68q-8 27 -8 64v196q0 46 25 74t66 28q37 0 61 -28t24 -74v-2q0 -10 -10 -10h-12q-10 0 -10 6v6q0 32 -15.5 52.5t-37.5 20.5q-26 0 -42.5 -20.5t-16.5 -52.5v-89q0 -7 5 -2q20 29 58 29q61 0 78 -64z M178 519q7 30 7 61q0 37 -8 64q-15 41 -51 41q-38 0 -52 -44q-7 -30 -7 -61q0 -32 6 -56q12 -48 53 -48q39 0 52 43z" />
<glyph unicode="&#x2077;" horiz-adv-x="209" d="M71 454q-12 0 -9 11l101 377q2 4 -4 4h-116q-4 0 -4 -4v-34q0 -10 -10 -10h-8q-10 0 -10 10v56q0 10 10 10h167q10 0 10 -10v-12q0 -2 -2 -12l-101 -377q-2 -9 -11 -9h-13z" />
<glyph unicode="&#x2078;" horiz-adv-x="251" d="M171 677q-5 -2 0 -5q32 -19 42 -62q4 -24 4 -43q0 -24 -4 -43q-8 -35 -31.5 -56.5t-56.5 -21.5q-32 0 -54 21t-31 57q-5 17 -5 43q0 29 4 44q11 43 41 61q5 3 0 5q-33 19 -41 59q-5 18 -5 35q0 20 5 35q19 71 86 71q33 0 56.5 -19t31.5 -52q4 -17 4 -36q0 -17 -4 -34 q-10 -40 -42 -59zM66 768q0 -13 1 -22q13 -57 58 -57q44 0 58 57q2 8 2 23q0 13 -2 22q-13 57 -58 57q-23 0 -38.5 -16t-19.5 -41q0 -3 -0.5 -11t-0.5 -12zM183 538q1 6 1 31q0 24 -1 30q-5 29 -20 46.5t-38 17.5t-39.5 -18t-18.5 -46v-61q2 -28 18.5 -45t39.5 -17 q24 0 39 17t19 45z" />
<glyph unicode="&#x2079;" horiz-adv-x="242" d="M199 809q8 -27 8 -64v-196q0 -46 -25 -74t-66 -28q-37 0 -61 28t-24 74v2q0 10 10 10h12q10 0 10 -6v-6q0 -32 15.5 -52.5t37.5 -20.5q26 0 42.5 20.5t16.5 52.5v89q0 7 -5 2q-20 -29 -58 -29q-61 0 -78 64q-10 30 -10 69q0 40 9 69q18 64 82 64q66 0 84 -68zM116 638 q38 0 52 44q7 30 7 61q0 32 -6 56q-12 48 -53 48q-39 0 -52 -43q-7 -30 -7 -61q0 -37 8 -64q15 -41 51 -41z" />
<glyph unicode="&#x20a3;" horiz-adv-x="473" d="M454 675q0 -10 -10 -10h-240q-4 0 -4 -4v-289q0 -4 4 -4h157q10 0 10 -10v-15q0 -10 -10 -10h-157q-4 0 -4 -4v-144q0 -4 4 -4h129q10 0 10 -10v-10q0 -10 -10 -10h-129q-4 0 -4 -4v-137q0 -10 -10 -10h-19q-10 0 -10 10v137q0 4 -4 4h-63q-10 0 -10 10v10q0 10 10 10h63 q4 0 4 4v505q0 10 10 10h273q10 0 10 -10v-15z" />
<glyph unicode="&#x20ac;" horiz-adv-x="479" d="M277 27q44 0 72 29.5t32 79.5q0 5 2.5 8t7.5 2l20 -3q10 -2 9 -11q-6 -64 -44.5 -102t-98.5 -38q-64 0 -103 44.5t-39 117.5v119q0 4 -4 4h-56q-10 0 -10 10v8q0 10 10 10h56q4 0 4 4v78q0 4 -4 4h-56q-10 0 -10 10v9q0 10 10 10h56q4 0 4 4v123q0 73 39 117t103 44 q61 0 99.5 -37.5t43.5 -102.5q1 -9 -8 -11l-20 -3q-11 -2 -11 9q-3 50 -31.5 80t-72.5 30q-47 0 -75 -34t-28 -90v-125q0 -4 4 -4h183q13 0 8 -12l-5 -10q-3 -7 -11 -7h-175q-4 0 -4 -4v-78q0 -4 4 -4h152q12 0 7 -12l-4 -9q-3 -7 -12 -7h-143q-4 0 -4 -4v-122 q0 -56 28.5 -90t74.5 -34z" />
<glyph unicode="&#x20ba;" horiz-adv-x="553" d="M484 262q10 0 10 -10q-2 -93 -62 -161t-161 -85q-39 -6 -80 -6q-10 0 -10 10v320q0 6 -5 4l-93 -29q-10 -3 -13 7l-2 9q-3 9 6 12l104 32q3 1 3 4v66q0 7 -5 4l-93 -29q-10 -3 -13 7l-2 9q-3 9 6 12l104 32q3 2 3 4v216q0 10 10 10h19q10 0 10 -10v-202q0 -6 5 -4l120 37 q10 3 13 -7l2 -8q3 -10 -6 -13l-131 -40q-3 -1 -3 -4v-66q0 -7 5 -4l120 37q10 3 13 -7l2 -8q3 -10 -6 -13l-131 -40q-3 -2 -3 -4v-306q0 -4 4 -4q102 6 165 67.5t66 150.5q0 10 10 10h19z" />
<glyph unicode="&#x20bd;" horiz-adv-x="502" d="M313 332h-115q-4 0 -4 -4v-99q0 -4 4 -4h166q10 0 10 -10v-9q0 -10 -10 -10h-166q-4 0 -4 -4v-182q0 -10 -10 -10h-19q-10 0 -10 10v182q0 4 -4 4h-57q-10 0 -10 10v9q0 10 10 10h57q4 0 4 4v99q0 4 -4 4h-57q-10 0 -10 10v14q0 10 10 10h57q4 0 4 4v322q0 10 10 10h147 q68 0 109.5 -51.5t41.5 -135.5q0 -82 -41 -132.5t-109 -50.5zM198 666q-4 0 -4 -4v-292q0 -4 4 -4h111q52 0 83.5 41t31.5 108q0 69 -31.5 110t-83.5 41h-111z" />
<glyph unicode="&#x2113;" horiz-adv-x="418" d="M251 24q43 0 79 29q10 8 13 -3l4 -11q3 -8 -2 -13q-34 -34 -101 -34q-54 0 -83 39t-29 108v130q0 6 -5 3q-26 -24 -37 -35q-8 -6 -14 2l-6 8q-5 8 2 14q25 25 58 53q2 2 2 5l-1 184q-1 78 32.5 139t85.5 66q44 4 73.5 -31.5t29.5 -91.5q0 -39 -14 -76t-45 -74 t-55.5 -61.5t-68.5 -64.5q-2 -2 -2 -5v-162q0 -118 84 -118zM166 500v-145q0 -6 5 -3q71 64 109 118t38 113q0 43 -19 70.5t-48 23.5q-36 -6 -61 -56.5t-24 -120.5z" />
<glyph unicode="&#x2122;" horiz-adv-x="503" d="M29 673q-10 0 -10 10v7q0 10 10 10h168q10 0 10 -10v-7q0 -10 -10 -10h-68q-4 0 -4 -4v-310q0 -10 -10 -10h-9q-10 0 -10 10v310q0 4 -4 4h-63zM427 693q3 7 12 7h11q10 0 10 -10v-331q0 -10 -10 -10h-10q-10 0 -10 10v274q-1 4 -5 1l-53 -112q-3 -7 -9 -7t-9 7l-53 112 q-3 3 -5 -1v-274q0 -10 -10 -10h-11q-10 0 -10 10v331q0 10 10 10h12q9 0 12 -7l60 -127q1 -2 3 -2t3 2z" />
<glyph unicode="&#x2126;" horiz-adv-x="475" d="M75 0q-10 0 -10 10v15q0 10 10 10h63q6 0 1 5q-59 43 -59 130v373q0 74 44 119.5t114 45.5q71 0 115.5 -46t44.5 -119v-373q0 -88 -61 -130q-5 -5 2 -5h61q10 0 10 -10v-15q0 -10 -10 -10h-125q-10 0 -10 10v16q0 8 9 10q35 8 60 43t25 83v383q0 57 -34 92.5t-87 35.5 t-86 -35.5t-33 -92.5v-383q0 -48 24 -82.5t59 -43.5q9 -2 9 -10v-16q0 -10 -10 -10h-126z" />
<glyph unicode="&#x212e;" horiz-adv-x="857" d="M428 708q158 0 261 -102.5t103 -258.5q0 -4 -10 -4h-634q-4 0 -4 -4l-1 -175q0 -3 2 -5q45 -67 118.5 -105.5t164.5 -38.5q98 0 176.5 45.5t120.5 123.5q4 7 12 7h8q5 0 7.5 -3.5t-0.5 -8.5q-45 -86 -131 -136.5t-193 -50.5q-157 0 -260 101.5t-103 253.5 q0 156 102.5 258.5t260.5 102.5zM145 541q-1 -1 -1 -5v-166q0 -4 4 -4h560q4 0 4 4v166v3l-1 2q-46 68 -119.5 106t-163.5 38t-163.5 -38t-119.5 -106z" />
<glyph unicode="&#x215b;" horiz-adv-x="678" d="M81 280q-10 0 -10 10v371q0 5 -5 3l-22 -9q-12 -5 -12 8v6q0 7 7 12l26 16q4 3 13 3h16q10 0 10 -10v-400q0 -10 -10 -10h-13zM512 693q5 7 12 7h13q13 0 6 -12l-440 -681q-5 -7 -12 -7h-12q-13 0 -6 12zM598 223q-5 -2 0 -5q32 -19 42 -62q4 -24 4 -43q0 -24 -4 -43 q-8 -35 -31.5 -56.5t-56.5 -21.5q-32 0 -54 21t-31 57q-5 17 -5 43q0 29 4 44q11 43 41 61q5 3 0 5q-33 19 -41 59q-5 17 -5 35q0 20 5 35q19 71 86 71q33 0 56.5 -19t31.5 -52q4 -17 4 -36q0 -17 -4 -34q-10 -40 -42 -59zM493 314q0 -13 1 -22q13 -57 58 -57q44 0 58 57 q2 8 2 23q0 13 -2 22q-13 57 -58 57q-23 0 -38.5 -16t-19.5 -41q0 -3 -0.5 -11t-0.5 -12zM610 84q1 6 1 31q0 24 -1 30q-5 29 -20 46.5t-38 17.5t-39.5 -18t-18.5 -46v-61q2 -28 18.5 -45t39.5 -17q24 0 39 17t19 45z" />
<glyph unicode="&#x215c;" horiz-adv-x="744" d="M578 693q5 7 12 7h13q13 0 6 -12l-440 -681q-5 -7 -12 -7h-12q-13 0 -6 12zM200 333q-20 -61 -84 -61q-36 0 -60 23.5t-30 61.5q-3 18 -3 35q0 10 10 10h12q10 0 10 -10q0 -11 2 -27q12 -63 59 -63q39 0 54 41q10 28 10 63q0 30 -6 56q-14 51 -58 51q-6 0 -9 -1 q-9 -2 -14 3l-5 6q-5 6 -1 13l81 130q2 5 -3 5h-130q-10 0 -10 10v8q0 10 10 10h163q10 0 10 -10v-11q0 -5 -4 -13l-74 -120q-2 -5 2 -5q56 -6 72 -72q7 -32 7 -63q0 -40 -11 -70zM664 223q-5 -2 0 -5q32 -19 42 -62q4 -24 4 -43q0 -24 -4 -43q-8 -35 -31.5 -56.5 t-56.5 -21.5q-32 0 -54 21t-31 57q-5 17 -5 43q0 29 4 44q11 43 41 61q5 3 0 5q-33 19 -41 59q-5 17 -5 35q0 20 5 35q19 71 86 71q33 0 56.5 -19t31.5 -52q4 -17 4 -36q0 -17 -4 -34q-10 -40 -42 -59zM559 314q0 -13 1 -22q13 -57 58 -57q44 0 58 57q2 8 2 23q0 13 -2 22 q-13 57 -58 57q-23 0 -38.5 -16t-19.5 -41q0 -3 -0.5 -11t-0.5 -12zM676 84q1 6 1 31q0 24 -1 30q-5 29 -20 46.5t-38 17.5t-39.5 -18t-18.5 -46v-61q2 -28 18.5 -45t39.5 -17q24 0 39 17t19 45z" />
<glyph unicode="&#x215d;" horiz-adv-x="690" d="M524 693q5 7 12 7h13q13 0 6 -12l-440 -681q-5 -7 -12 -7h-12q-13 0 -6 12zM198 346q-17 -74 -85 -74q-75 0 -88 81q0 2 -3 30q0 10 10 10h12q10 0 10 -10l3 -25q11 -56 56 -56q41 0 53 48q7 21 7 55q0 35 -7 55q-12 47 -53 47q-45 0 -56 -43q-3 -9 -11 -9h-14 q-10 0 -10 10v222q0 10 10 10h152q10 0 10 -10v-8q0 -10 -10 -10h-125q-4 0 -4 -4l-1 -150q0 -6 5 -1q20 22 61 22q59 0 76 -64q8 -24 8 -67q0 -40 -6 -59zM610 223q-5 -2 0 -5q32 -19 42 -62q4 -24 4 -43q0 -24 -4 -43q-8 -35 -31.5 -56.5t-56.5 -21.5q-32 0 -54 21t-31 57 q-5 17 -5 43q0 29 4 44q11 43 41 61q5 3 0 5q-33 19 -41 59q-5 17 -5 35q0 20 5 35q19 71 86 71q33 0 56.5 -19t31.5 -52q4 -17 4 -36q0 -17 -4 -34q-10 -40 -42 -59zM505 314q0 -13 1 -22q13 -57 58 -57q44 0 58 57q2 8 2 23q0 13 -2 22q-13 57 -58 57q-23 0 -38.5 -16 t-19.5 -41q0 -3 -0.5 -11t-0.5 -12zM622 84q1 6 1 31q0 24 -1 30q-5 29 -20 46.5t-38 17.5t-39.5 -18t-18.5 -46v-61q2 -28 18.5 -45t39.5 -17q24 0 39 17t19 45z" />
<glyph unicode="&#x215e;" horiz-adv-x="653" d="M71 280q-12 0 -9 11l101 377q2 4 -4 4h-116q-4 0 -4 -4v-34q0 -10 -10 -10h-8q-10 0 -10 10v56q0 10 10 10h167q10 0 10 -10v-12q0 -2 -2 -12l-101 -377q-2 -9 -11 -9h-13zM487 693q5 7 12 7h13q13 0 6 -12l-440 -681q-5 -7 -12 -7h-12q-13 0 -6 12zM573 223q-5 -2 0 -5 q32 -19 42 -62q4 -24 4 -43q0 -24 -4 -43q-8 -35 -31.5 -56.5t-56.5 -21.5q-32 0 -54 21t-31 57q-5 17 -5 43q0 29 4 44q11 43 41 61q5 3 0 5q-33 19 -41 59q-5 17 -5 35q0 20 5 35q19 71 86 71q33 0 56.5 -19t31.5 -52q4 -17 4 -36q0 -17 -4 -34q-10 -40 -42 -59zM468 314 q0 -13 1 -22q13 -57 58 -57q44 0 58 57q2 8 2 23q0 13 -2 22q-13 57 -58 57q-23 0 -38.5 -16t-19.5 -41q0 -3 -0.5 -11t-0.5 -12zM585 84q1 6 1 31q0 24 -1 30q-5 29 -20 46.5t-38 17.5t-39.5 -18t-18.5 -46v-61q2 -28 18.5 -45t39.5 -17q24 0 39 17t19 45z" />
<glyph unicode="&#x2202;" horiz-adv-x="538" d="M396 626q74 -103 70 -302q0 -62 -9.5 -115t-31 -105t-64.5 -82t-104 -30q-88 0 -143.5 58t-55.5 155q0 99 59 160t143 61q98 -1 164 -82q4 -3 5 -2v3q-4 174 -63 258q-41 60 -110 67q-54 7 -113 -25q-10 -6 -13 4l-6 14q-4 9 5 14q67 35 129 30q86 -9 138 -81zM259 27 q78 0 120 65t49 184q0 4 -1 5q-21 47 -64 78t-98 31q-71 0 -119.5 -51.5t-48.5 -133.5q0 -80 45.5 -129t116.5 -49z" />
<glyph unicode="&#x2206;" horiz-adv-x="537" d="M49 0q-10 0 -10 10v19q0 4 2 12l208 651q3 8 12 8h15q9 0 12 -8l209 -652q2 -8 2 -12v-18q0 -10 -10 -10h-440zM78 39q-2 -5 4 -5h373q7 0 4 5l-187 604q-1 2 -3 2t-3 -2z" />
<glyph unicode="&#x220f;" horiz-adv-x="469" d="M375 800q10 0 10 -10v-980q0 -10 -10 -10h-19q-10 0 -10 10v951q0 4 -4 4h-215q-4 0 -4 -4v-951q0 -10 -10 -10h-19q-10 0 -10 10v980q0 10 10 10h281z" />
<glyph unicode="&#x2211;" horiz-adv-x="514" d="M94 -199q-10 0 -10 10v17q0 6 3 13l224 450q1 2 -1 6l-222 372q-3 6 -3 13v17q0 10 10 10h362q10 0 10 -10v-14q0 -10 -10 -10h-326q-5 0 -3 -5l222 -369q4 -6 1 -14l-224 -447q-2 -5 3 -5h327q10 0 10 -10v-14q0 -10 -10 -10h-363z" />
<glyph unicode="&#x2212;" horiz-adv-x="443" d="M46 304q-10 0 -10 10v12q0 10 10 10h351q10 0 10 -10v-12q0 -10 -10 -10h-351z" />
<glyph unicode="&#x2215;" horiz-adv-x="389" d="M39 0q-13 0 -8 12l292 680q3 8 11 8h16q13 0 8 -12l-291 -680q-3 -8 -11 -8h-17z" />
<glyph unicode="&#x2219;" horiz-adv-x="290" d="M145 208q-45 0 -77 32.5t-32 77.5t32 76t77 31t77 -31t32 -76t-32.5 -77.5t-76.5 -32.5z" />
<glyph unicode="&#x221a;" horiz-adv-x="613" d="M150 -200q-9 0 -12 8l-109 337q-3 10 7 13l16 5q10 3 13 -7l90 -286q1 -2 2.5 -2t2.5 2l214 909q2 9 11 9h147q10 0 10 -10v-14q0 -10 -10 -10h-121q-5 0 -5 -3l-224 -942q-2 -9 -11 -9h-21z" />
<glyph unicode="&#x221e;" horiz-adv-x="630" d="M469 466q53 0 89 -41t36 -106t-37 -105.5t-90 -40.5q-80 0 -154 113q-3 3 -6 0q-78 -113 -150 -113q-50 0 -85.5 41.5t-35.5 105.5q0 66 36.5 106t86.5 40q75 0 147 -112q3 -3 6 0q79 112 157 112zM157 205q32 0 62 27.5t69 85.5q2 3 0 6q-36 55 -66 82.5t-62 27.5 q-36 0 -63.5 -30.5t-27.5 -83.5q0 -50 26 -82.5t62 -32.5zM467 205q39 0 66 31.5t27 82.5t-26.5 83t-64.5 32q-35 0 -67.5 -28.5t-70.5 -83.5q-1 -3 0 -6q21 -32 37 -52t43.5 -39.5t55.5 -19.5z" />
<glyph unicode="&#x222b;" horiz-adv-x="314" d="M42 -209q-10 0 -10 10v16q0 10 10 10h15q46 0 62 31t16 97l1 596q0 91 28.5 123.5t104.5 34.5q10 0 10 -10v-16q0 -10 -10 -10h-15q-46 0 -62.5 -31t-16.5 -97l-1 -596q0 -91 -28.5 -123.5t-103.5 -34.5z" />
<glyph unicode="&#x2248;" horiz-adv-x="448" d="M316 379q-8 0 -16 1t-14.5 2t-14 4t-12 4.5t-12.5 5.5t-11 6t-12 7t-11 6q-39 24 -71 24q-49 0 -76 -42q-5 -10 -14 -4l-8 6q-8 6 -4 13q31 63 100 63q39 0 82 -26q55 -34 94 -34q21 0 34.5 10t30.5 30q7 9 14 3l9 -6q8 -6 3 -14q-39 -59 -91 -59zM316 169q-8 0 -16 1 t-14.5 2t-14 4t-12 4.5t-12.5 5.5t-11 6t-12 7t-11 6q-39 24 -71 24q-49 0 -76 -42q-5 -10 -14 -4l-8 6q-8 6 -4 13q31 63 100 63q39 0 82 -26q55 -34 94 -34q21 0 34.5 10t30.5 30q7 9 14 3l9 -6q8 -6 3 -14q-39 -59 -91 -59z" />
<glyph unicode="&#x2260;" horiz-adv-x="443" d="M407 438q0 -10 -10 -10h-122q-3 0 -4 -3l-86 -175q-2 -5 3 -5h209q10 0 10 -10v-12q0 -10 -10 -10h-227q-2 0 -4 -3l-44 -90q-3 -7 -12 -7h-10q-12 0 -7 12l41 83q2 5 -3 5h-85q-10 0 -10 10v12q0 10 10 10h103q3 0 4 3l86 175q2 5 -3 5h-190q-10 0 -10 10v12q0 10 10 10 h208q2 0 4 3l44 91q3 7 12 7h10q12 0 7 -12l-41 -84q-2 -5 3 -5h104q10 0 10 -10v-12z" />
<glyph unicode="&#x2264;" horiz-adv-x="443" d="M407 112q0 -12 -12 -7l-352 179q-7 3 -7 12v22q0 9 7 12l352 179q12 5 12 -7v-19q0 -9 -7 -12l-323 -161q-2 -1 -2 -3t2 -3l323 -161q7 -3 7 -12v-19zM407 46q0 -10 -10 -10h-351q-10 0 -10 10v12q0 10 10 10h351q10 0 10 -10v-12z" />
<glyph unicode="&#x2265;" horiz-adv-x="443" d="M48 105q-12 -5 -12 7v19q0 9 7 12l323 161q2 1 2 3t-2 3l-323 161q-7 3 -7 12v19q0 12 12 7l352 -179q7 -3 7 -12v-22q0 -9 -7 -12zM46 36q-10 0 -10 10v12q0 10 10 10h351q10 0 10 -10v-12q0 -10 -10 -10h-351z" />
<glyph unicode="&#x25ca;" horiz-adv-x="386" d="M184 -42q-9 0 -12 8l-134 377q-4 7 0 14l135 377q3 8 12 8h16q9 0 12 -8l135 -377q4 -7 0 -14l-134 -377q-3 -8 -12 -8h-18zM190 4q1 -2 3 -2t3 2l116 343q2 3 0 6l-116 342q-1 2 -3 2t-3 -2l-117 -342q-1 -3 0 -6z" />
<glyph unicode="&#x25fc;" horiz-adv-x="500" d="M0 500h500v-500h-500v500z" />
<glyph horiz-adv-x="174" d="M86 597q-14 0 -23 10t-9 25q0 14 9.5 24t22.5 10t22 -10t9 -24q0 -15 -9 -25t-22 -10zM76 0q-10 0 -10 10v482q0 10 10 10h19q10 0 10 -10v-482q0 -10 -10 -10h-19z" />
<glyph horiz-adv-x="412" d="M302 492q0 10 10 10h19q10 0 10 -10v-482q0 -10 -10 -10h-19q-10 0 -10 10v36q-1 4 -5 1q-34 -55 -103 -55q-60 0 -96.5 39.5t-38.5 105.5q-2 78 -2 114q0 37 2 113q2 66 39 106t97 40q69 0 102 -55q3 -3 5 1v36zM299 137q3 59 3 114q0 57 -3 114q-1 49 -27.5 79.5 t-69.5 30.5q-45 0 -73 -30t-30 -79q-2 -39 -2 -115q0 -75 2 -114q2 -49 29.5 -79.5t72.5 -30.5q43 0 70 30.5t28 79.5z" />
<glyph horiz-adv-x="381" d="M316 0q-10 0 -11 9l-24 107q0 4 -5 4h-173q-5 0 -5 -4l-24 -107q-2 -9 -11 -9h-19q-12 0 -8 11l130 556q2 9 11 9h24q9 0 11 -9l133 -556q3 -11 -8 -11h-21zM108 157q-2 -4 4 -4h156q6 0 4 4l-80 351q-2 8 -4 0z" />
<glyph horiz-adv-x="381" d="M250 783q14 0 7 -12l-67 -111q-5 -7 -12 -7h-13q-14 0 -7 12l62 111q5 7 12 7h18zM316 0q-10 0 -11 9l-24 107q0 4 -5 4h-173q-5 0 -5 -4l-24 -107q-2 -9 -11 -9h-19q-12 0 -8 11l130 556q2 9 11 9h24q9 0 11 -9l133 -556q3 -11 -8 -11h-21zM108 157q-2 -4 4 -4h156 q6 0 4 4l-80 351q-2 8 -4 0z" />
<glyph horiz-adv-x="381" d="M190 618q-39 0 -66.5 25.5t-31.5 64.5q0 10 10 10h9q10 0 11 -10q3 -28 22.5 -45.5t45.5 -17.5t45.5 17.5t22.5 45.5q1 10 11 10h9q11 0 9 -10q-3 -38 -30.5 -64t-66.5 -26zM316 0q-10 0 -11 9l-24 107q0 4 -5 4h-173q-5 0 -5 -4l-24 -107q-2 -9 -11 -9h-19q-12 0 -8 11 l130 556q2 9 11 9h24q9 0 11 -9l133 -556q3 -11 -8 -11h-21zM108 157q-2 -4 4 -4h156q6 0 4 4l-80 351q-2 8 -4 0z" />
<glyph horiz-adv-x="381" d="M214 638q-4 -6 -12 -6h-26q-7 0 -12 7l-65 101q-7 12 6 12h20q7 0 12 -7l50 -80q1 -1 3 -1t3 1l50 80q5 7 12 7h20q13 0 6 -12zM316 0q-10 0 -11 9l-24 107q0 4 -5 4h-173q-5 0 -5 -4l-24 -107q-2 -9 -11 -9h-19q-12 0 -8 11l130 556q2 9 11 9h24q9 0 11 -9l133 -556 q3 -11 -8 -11h-21zM108 157q-2 -4 4 -4h156q6 0 4 4l-80 351q-2 8 -4 0z" />
<glyph horiz-adv-x="381" d="M193 731q-1 1 -3 1t-3 -1l-50 -80q-5 -7 -12 -7h-21q-13 0 -6 12l66 101q5 7 12 7h26q8 0 12 -6l67 -102q7 -12 -6 -12h-21q-7 0 -12 7zM316 0q-10 0 -11 9l-24 107q0 4 -5 4h-173q-5 0 -5 -4l-24 -107q-2 -9 -11 -9h-19q-12 0 -8 11l130 556q2 9 11 9h24q9 0 11 -9 l133 -556q3 -11 -8 -11h-21zM108 157q-2 -4 4 -4h156q6 0 4 4l-80 351q-2 8 -4 0z" />
<glyph horiz-adv-x="381" d="M134 680q-14 0 -23.5 10t-9.5 26q0 14 9.5 24.5t23.5 10.5q13 0 22 -10.5t9 -24.5q0 -16 -8.5 -26t-22.5 -10zM248 680q-14 0 -23.5 10t-9.5 26q0 14 9.5 24.5t23.5 10.5q13 0 22 -10.5t9 -24.5q0 -16 -8.5 -26t-22.5 -10zM316 0q-10 0 -11 9l-24 107q0 4 -5 4h-173 q-5 0 -5 -4l-24 -107q-2 -9 -11 -9h-19q-12 0 -8 11l130 556q2 9 11 9h24q9 0 11 -9l133 -556q3 -11 -8 -11h-21zM108 157q-2 -4 4 -4h156q6 0 4 4l-80 351q-2 8 -4 0z" />
<glyph horiz-adv-x="381" d="M202 665q7 -12 -7 -12h-13q-7 0 -12 7l-67 111q-7 12 7 12h18q7 0 12 -7zM316 0q-10 0 -11 9l-24 107q0 4 -5 4h-173q-5 0 -5 -4l-24 -107q-2 -9 -11 -9h-19q-12 0 -8 11l130 556q2 9 11 9h24q9 0 11 -9l133 -556q3 -11 -8 -11h-21zM108 157q-2 -4 4 -4h156q6 0 4 4 l-80 351q-2 8 -4 0z" />
<glyph horiz-adv-x="381" d="M277 707q10 0 10 -10v-11q0 -10 -10 -10h-175q-10 0 -10 10v11q0 10 10 10h175zM316 0q-10 0 -11 9l-24 107q0 4 -5 4h-173q-5 0 -5 -4l-24 -107q-2 -9 -11 -9h-19q-12 0 -8 11l130 556q2 9 11 9h24q9 0 11 -9l133 -556q3 -11 -8 -11h-21zM108 157q-2 -4 4 -4h156 q6 0 4 4l-80 351q-2 8 -4 0z" />
<glyph horiz-adv-x="402" d="M353 -154q10 3 12 -7l2 -7q2 -11 -8 -12q-32 -7 -60 5t-35 50q-11 71 48 122q3 3 -1 4t-6 8l-24 107q0 4 -5 4h-173q-5 0 -5 -4l-24 -107q-2 -9 -11 -9h-19q-12 0 -8 11l130 556q2 9 11 9h24q9 0 11 -9l134 -559l2 -8h-1q-60 -56 -52 -114q7 -50 58 -40zM108 157 q-2 -4 4 -4h156q6 0 4 4l-80 351q-2 8 -4 0z" />
<glyph horiz-adv-x="381" d="M190 651q-40 0 -68 29t-28 70q0 42 28 70.5t68 28.5q41 0 69 -28.5t28 -70.5q0 -41 -28 -70t-69 -29zM190 822q-29 0 -49 -20.5t-20 -51.5q0 -30 20 -51t49 -21t49.5 21t20.5 51t-20.5 51t-49.5 21zM316 0q-10 0 -11 9l-24 107q0 4 -5 4h-173q-5 0 -5 -4l-24 -107 q-2 -9 -11 -9h-19q-12 0 -8 11l130 556q2 9 11 9h24q9 0 11 -9l133 -556q3 -11 -8 -11h-21zM108 157q-2 -4 4 -4h156q6 0 4 4l-80 351q-2 8 -4 0z" />
<glyph horiz-adv-x="381" d="M150 719q-29 0 -48 -27q-6 -9 -14 -3l-6 4q-9 6 -3 14q26 44 70 44q22 0 55 -23t47 -23q27 0 46 31q5 10 14 4l6 -3q9 -6 5 -14q-26 -48 -73 -48q-22 0 -53 23q-32 21 -46 21zM316 0q-10 0 -11 9l-24 107q0 4 -5 4h-173q-5 0 -5 -4l-24 -107q-2 -9 -11 -9h-19 q-12 0 -8 11l130 556q2 9 11 9h24q9 0 11 -9l133 -556q3 -11 -8 -11h-21zM108 157q-2 -4 4 -4h156q6 0 4 4l-80 351q-2 8 -4 0z" />
<glyph horiz-adv-x="612" d="M573 551q0 -10 -10 -10h-206q-4 0 -4 -4v-227q0 -4 4 -4h132q10 0 10 -10v-15q0 -10 -10 -10h-132q-4 0 -4 -4v-228q0 -4 4 -4h206q10 0 10 -10v-15q0 -10 -10 -10h-240q-10 0 -10 10v106q0 4 -4 4h-177q-2 0 -4 -3l-52 -110q-3 -7 -11 -7h-19q-12 0 -7 12l261 557 q3 7 11 7h252q10 0 10 -10v-15zM146 158q-2 -5 3 -5h160q4 0 4 4l1 351q-1 4 -5 1z" />
<glyph horiz-adv-x="381" d="M349 155q1 -73 -39.5 -114t-109.5 -41h-120q-10 0 -10 10v556q0 10 10 10h116q70 0 110 -39t40 -110q0 -94 -76 -127q-7 -2 -1 -4q79 -37 80 -141zM113 541q-4 0 -4 -4v-220q0 -4 4 -4h83q53 0 82.5 29.5t29.5 82.5q0 55 -29.5 85.5t-82.5 30.5h-83zM197 36q53 0 83 32 t30 90q0 59 -30 92t-83 33h-84q-4 0 -4 -4v-239q0 -4 4 -4h84z" />
<glyph horiz-adv-x="382" d="M193 -7q-62 0 -99.5 39t-37.5 107v298q0 69 37.5 107.5t99.5 38.5q64 0 101.5 -38.5t37.5 -107.5v-13q0 -10 -10 -10l-19 -1q-10 0 -10 10v18q0 50 -27 78.5t-73 28.5q-45 0 -71.5 -28.5t-26.5 -78.5v-305q0 -50 26.5 -79t71.5 -29q46 0 73 29t27 79v17q0 9 10 9l19 -1 q10 0 10 -10v-12q0 -68 -37.5 -107t-101.5 -39z" />
<glyph horiz-adv-x="382" d="M168 660q-14 0 -7 12l62 111q5 7 12 7h18q14 0 7 -12l-67 -111q-5 -7 -12 -7h-13zM193 -7q-62 0 -99.5 39t-37.5 107v298q0 69 37.5 107.5t99.5 38.5q64 0 101.5 -38.5t37.5 -107.5v-13q0 -10 -10 -10l-19 -1q-10 0 -10 10v18q0 50 -27 78.5t-73 28.5q-45 0 -71.5 -28.5 t-26.5 -78.5v-305q0 -50 26.5 -79t71.5 -29q46 0 73 29t27 79v17q0 9 10 9l19 -1q10 0 10 -10v-12q0 -68 -37.5 -107t-101.5 -39z" />
<glyph horiz-adv-x="382" d="M179 639q-7 0 -12 7l-65 101q-7 12 6 12h20q7 0 12 -7l50 -80q1 -2 3 -2t3 2l50 80q5 7 12 7h20q13 0 6 -12l-67 -102q-5 -6 -12 -6h-26zM193 -7q-62 0 -99.5 39t-37.5 107v298q0 69 37.5 107.5t99.5 38.5q64 0 101.5 -38.5t37.5 -107.5v-13q0 -10 -10 -10l-19 -1 q-10 0 -10 10v18q0 50 -27 78.5t-73 28.5q-45 0 -71.5 -28.5t-26.5 -78.5v-305q0 -50 26.5 -79t71.5 -29q46 0 73 29t27 79v17q0 9 10 9l19 -1q10 0 10 -10v-12q0 -68 -37.5 -107t-101.5 -39z" />
<glyph horiz-adv-x="382" d="M332 424q0 -10 -10 -10l-19 -1q-10 0 -10 10v18q0 50 -27 78.5t-73 28.5q-45 0 -71.5 -28.5t-26.5 -78.5v-305q0 -50 26.5 -79t71.5 -29q46 0 73 29t27 79v17q0 9 10 9l19 -1q10 0 10 -10v-12q0 -62 -31.5 -100t-86.5 -44q-6 -2 -1 -5q52 -50 41 -116q-7 -38 -35 -50 t-61 -5q-9 1 -7 12l2 7q2 10 12 7q51 -10 58 40q8 52 -45 107q-2 2 -5 2q-54 6 -85.5 44t-31.5 101v298q0 69 37.5 107.5t99.5 38.5q64 0 101.5 -38.5t37.5 -107.5v-13z" />
<glyph horiz-adv-x="382" d="M193 669q-14 0 -23 10t-9 25q0 14 9.5 24t22.5 10t22 -10t9 -24q0 -15 -9 -25t-22 -10zM193 -7q-62 0 -99.5 39t-37.5 107v298q0 69 37.5 107.5t99.5 38.5q64 0 101.5 -38.5t37.5 -107.5v-13q0 -10 -10 -10l-19 -1q-10 0 -10 10v18q0 50 -27 78.5t-73 28.5 q-45 0 -71.5 -28.5t-26.5 -78.5v-305q0 -50 26.5 -79t71.5 -29q46 0 73 29t27 79v17q0 9 10 9l19 -1q10 0 10 -10v-12q0 -68 -37.5 -107t-101.5 -39z" />
<glyph horiz-adv-x="398" d="M80 0q-10 0 -10 10v556q0 10 10 10h123q62 0 99 -40.5t37 -109.5v-276q0 -69 -37 -109.5t-99 -40.5h-123zM109 39q0 -4 4 -4h90q44 1 70 32t26 85v273q0 54 -25.5 85t-70.5 31h-90q-4 0 -4 -4v-498z" />
<glyph horiz-adv-x="439" d="M244 576q62 0 99 -40.5t37 -109.5v-276q0 -69 -37 -109.5t-99 -40.5h-123q-10 0 -10 10v271q0 4 -4 4h-27q-10 0 -10 10v8q0 10 10 10h27q4 0 4 4v249q0 10 10 10h123zM340 152v273q0 54 -25.5 85t-70.5 31h-90q-4 0 -4 -4v-220q0 -4 4 -4h76q10 0 10 -10v-8 q0 -10 -10 -10h-76q-4 0 -4 -4v-242q0 -4 4 -4h90q44 1 70 32t26 85z" />
<glyph horiz-adv-x="398" d="M179 636q-7 0 -12 7l-65 101q-7 12 6 12h20q7 0 12 -7l50 -80q1 -1 3 -1t3 1l50 80q5 7 12 7h20q13 0 6 -12l-67 -102q-5 -6 -12 -6h-26zM80 0q-10 0 -10 10v556q0 10 10 10h123q62 0 99 -40.5t37 -109.5v-276q0 -69 -37 -109.5t-99 -40.5h-123zM109 39q0 -4 4 -4h90 q44 1 70 32t26 85v273q0 54 -25.5 85t-70.5 31h-90q-4 0 -4 -4v-498z" />
<glyph horiz-adv-x="439" d="M244 576q62 0 99 -40.5t37 -109.5v-276q0 -69 -37 -109.5t-99 -40.5h-123q-10 0 -10 10v271q0 4 -4 4h-27q-10 0 -10 10v8q0 10 10 10h27q4 0 4 4v249q0 10 10 10h123zM340 152v273q0 54 -25.5 85t-70.5 31h-90q-4 0 -4 -4v-220q0 -4 4 -4h76q10 0 10 -10v-8 q0 -10 -10 -10h-76q-4 0 -4 -4v-242q0 -4 4 -4h90q44 1 70 32t26 85z" />
<glyph horiz-adv-x="368" d="M329 550q0 -10 -10 -10h-206q-4 0 -4 -4v-226q0 -4 4 -4h132q10 0 10 -10v-15q0 -10 -10 -10h-132q-4 0 -4 -4v-228q0 -4 4 -4h206q10 0 10 -10v-15q0 -10 -10 -10h-239q-10 0 -10 10v555q0 10 10 10h239q10 0 10 -10v-15z" />
<glyph horiz-adv-x="368" d="M259 792q14 0 7 -12l-67 -111q-5 -7 -12 -7h-13q-14 0 -7 12l62 111q5 7 12 7h18zM329 550q0 -10 -10 -10h-206q-4 0 -4 -4v-226q0 -4 4 -4h132q10 0 10 -10v-15q0 -10 -10 -10h-132q-4 0 -4 -4v-228q0 -4 4 -4h206q10 0 10 -10v-15q0 -10 -10 -10h-239q-10 0 -10 10v555 q0 10 10 10h239q10 0 10 -10v-15z" />
<glyph horiz-adv-x="368" d="M223 647q-5 -6 -12 -6h-26q-7 0 -12 7l-65 101q-7 12 6 12h20q7 0 12 -7l50 -80q1 -2 3 -2t3 2l50 80q5 7 12 7h20q13 0 6 -12zM329 550q0 -10 -10 -10h-206q-4 0 -4 -4v-226q0 -4 4 -4h132q10 0 10 -10v-15q0 -10 -10 -10h-132q-4 0 -4 -4v-228q0 -4 4 -4h206 q10 0 10 -10v-15q0 -10 -10 -10h-239q-10 0 -10 10v555q0 10 10 10h239q10 0 10 -10v-15z" />
<glyph horiz-adv-x="368" d="M329 550q0 -10 -10 -10h-206q-4 0 -4 -4v-226q0 -4 4 -4h132q10 0 10 -10v-15q0 -10 -10 -10h-132q-4 0 -4 -4v-228q0 -4 4 -4h206q10 0 10 -10v-15q0 -10 -10 -10h-99q-5 0 -2 -5q51 -49 40 -114q-7 -38 -35 -50t-61 -5q-9 1 -7 12l2 7q2 10 12 7q51 -10 58 40 q8 52 -44 106q-2 2 -5 2h-98q-10 0 -10 10v555q0 10 10 10h239q10 0 10 -10v-15z" />
<glyph horiz-adv-x="368" d="M202 740q-1 2 -3 2t-3 -2l-50 -80q-5 -7 -12 -7h-21q-13 0 -6 12l66 101q5 7 12 7h26q7 0 12 -6l67 -102q7 -12 -6 -12h-21q-7 0 -12 7zM329 550q0 -10 -10 -10h-206q-4 0 -4 -4v-226q0 -4 4 -4h132q10 0 10 -10v-15q0 -10 -10 -10h-132q-4 0 -4 -4v-228q0 -4 4 -4h206 q10 0 10 -10v-15q0 -10 -10 -10h-239q-10 0 -10 10v555q0 10 10 10h239q10 0 10 -10v-15z" />
<glyph horiz-adv-x="368" d="M143 689q-14 0 -23.5 10t-9.5 26q0 14 9.5 24.5t23.5 10.5q13 0 22 -10.5t9 -24.5q0 -16 -8.5 -26t-22.5 -10zM257 689q-14 0 -23.5 10t-9.5 26q0 14 9.5 24.5t23.5 10.5q13 0 22 -10.5t9 -24.5q0 -16 -8.5 -26t-22.5 -10zM329 550q0 -10 -10 -10h-206q-4 0 -4 -4v-226 q0 -4 4 -4h132q10 0 10 -10v-15q0 -10 -10 -10h-132q-4 0 -4 -4v-228q0 -4 4 -4h206q10 0 10 -10v-15q0 -10 -10 -10h-239q-10 0 -10 10v555q0 10 10 10h239q10 0 10 -10v-15z" />
<glyph horiz-adv-x="368" d="M199 671q-14 0 -23 10t-9 25q0 14 9.5 24t22.5 10t22 -10t9 -24q0 -15 -9 -25t-22 -10zM329 550q0 -10 -10 -10h-206q-4 0 -4 -4v-226q0 -4 4 -4h132q10 0 10 -10v-15q0 -10 -10 -10h-132q-4 0 -4 -4v-228q0 -4 4 -4h206q10 0 10 -10v-15q0 -10 -10 -10h-239 q-10 0 -10 10v555q0 10 10 10h239q10 0 10 -10v-15z" />
<glyph horiz-adv-x="368" d="M211 674q7 -12 -7 -12h-13q-7 0 -12 7l-67 111q-7 12 7 12h18q7 0 12 -7zM329 550q0 -10 -10 -10h-206q-4 0 -4 -4v-226q0 -4 4 -4h132q10 0 10 -10v-15q0 -10 -10 -10h-132q-4 0 -4 -4v-228q0 -4 4 -4h206q10 0 10 -10v-15q0 -10 -10 -10h-239q-10 0 -10 10v555 q0 10 10 10h239q10 0 10 -10v-15z" />
<glyph horiz-adv-x="368" d="M286 716q10 0 10 -10v-11q0 -10 -10 -10h-175q-10 0 -10 10v11q0 10 10 10h175zM329 550q0 -10 -10 -10h-206q-4 0 -4 -4v-226q0 -4 4 -4h132q10 0 10 -10v-15q0 -10 -10 -10h-132q-4 0 -4 -4v-228q0 -4 4 -4h206q10 0 10 -10v-15q0 -10 -10 -10h-239q-10 0 -10 10v555 q0 10 10 10h239q10 0 10 -10v-15z" />
<glyph horiz-adv-x="368" d="M329 550q0 -10 -10 -10h-206q-4 0 -4 -4v-226q0 -4 4 -4h132q10 0 10 -10v-15q0 -10 -10 -10h-132q-4 0 -4 -4v-228q0 -4 4 -4h206q10 0 10 -10v-15q0 -10 -10 -10h-104q-3 0 -5 -2q-52 -54 -44 -106q7 -50 58 -40q10 3 12 -7l2 -7q2 -11 -8 -12q-32 -7 -60 5t-35 50 q-11 65 40 114q3 5 -2 5h-93q-10 0 -10 10v555q0 10 10 10h239q10 0 10 -10v-15z" />
<glyph horiz-adv-x="344" d="M327 551q0 -10 -10 -10h-204q-4 0 -4 -4v-227q0 -4 4 -4h132q10 0 10 -10v-15q0 -10 -10 -10h-132q-4 0 -4 -4v-257q0 -10 -10 -10h-19q-10 0 -10 10v556q0 10 10 10h237q10 0 10 -10v-15z" />
<glyph horiz-adv-x="381" d="M193 -7q-62 0 -99.5 37.5t-37.5 104.5v307q0 66 37.5 103.5t99.5 37.5q63 0 101 -37.5t38 -104.5v-24q0 -10 -10 -10h-19q-10 0 -10 10v25q0 50 -27 78t-73 28q-45 0 -71.5 -28t-26.5 -78v-308q0 -50 26.5 -78t71.5 -28q46 0 73 28t27 78v111q0 4 -4 4h-80q-10 0 -10 10 v12q0 10 10 10h113q10 0 10 -10v-136q0 -67 -38 -104.5t-101 -37.5z" />
<glyph horiz-adv-x="381" d="M193 625q-39 0 -66.5 25.5t-31.5 64.5q0 10 10 10h9q10 0 11 -10q3 -28 22.5 -45.5t45.5 -17.5t45.5 17.5t22.5 45.5q1 10 11 10h9q11 0 9 -10q-3 -38 -30.5 -64t-66.5 -26zM193 -7q-62 0 -99.5 37.5t-37.5 104.5v307q0 66 37.5 103.5t99.5 37.5q63 0 101 -37.5 t38 -104.5v-24q0 -10 -10 -10h-19q-10 0 -10 10v25q0 50 -27 78t-73 28q-45 0 -71.5 -28t-26.5 -78v-308q0 -50 26.5 -78t71.5 -28q46 0 73 28t27 78v111q0 4 -4 4h-80q-10 0 -10 10v12q0 10 10 10h113q10 0 10 -10v-136q0 -67 -38 -104.5t-101 -37.5z" />
<glyph horiz-adv-x="381" d="M193 -7q-62 0 -99.5 37.5t-37.5 104.5v307q0 66 37.5 103.5t99.5 37.5q63 0 101 -37.5t38 -104.5v-24q0 -10 -10 -10h-19q-10 0 -10 10v25q0 50 -27 78t-73 28q-45 0 -71.5 -28t-26.5 -78v-308q0 -50 26.5 -78t71.5 -28q46 0 73 28t27 78v111q0 4 -4 4h-80q-10 0 -10 10 v12q0 10 10 10h113q10 0 10 -10v-136q0 -67 -38 -104.5t-101 -37.5zM171 -195q-14 0 -7 12l62 111q5 7 12 7h18q14 0 7 -12l-67 -111q-5 -7 -12 -7h-13z" />
<glyph horiz-adv-x="381" d="M193 669q-14 0 -23 10t-9 25q0 14 9.5 24t22.5 10t22 -10t9 -24q0 -15 -9 -25t-22 -10zM193 -7q-62 0 -99.5 37.5t-37.5 104.5v307q0 66 37.5 103.5t99.5 37.5q63 0 101 -37.5t38 -104.5v-24q0 -10 -10 -10h-19q-10 0 -10 10v25q0 50 -27 78t-73 28q-45 0 -71.5 -28 t-26.5 -78v-308q0 -50 26.5 -78t71.5 -28q46 0 73 28t27 78v111q0 4 -4 4h-80q-10 0 -10 10v12q0 10 10 10h113q10 0 10 -10v-136q0 -67 -38 -104.5t-101 -37.5z" />
<glyph horiz-adv-x="405" d="M295 566q0 10 10 10h19q10 0 10 -10v-556q0 -10 -10 -10h-19q-10 0 -10 10v257q0 4 -4 4h-178q-4 0 -4 -4v-257q0 -10 -10 -10h-19q-10 0 -10 10v556q0 10 10 10h19q10 0 10 -10v-256q0 -4 4 -4h178q4 0 4 4v256z" />
<glyph horiz-adv-x="405" d="M389 451q10 0 10 -10v-12q0 -10 -10 -10h-51q-4 0 -4 -4v-405q0 -10 -10 -10h-19q-10 0 -10 10v257q0 4 -4 4h-178q-4 0 -4 -4v-257q0 -10 -10 -10h-19q-10 0 -10 10v405q0 4 -4 4h-52q-10 0 -10 10v12q0 10 10 10h52q4 0 4 4v111q0 10 10 10h19q10 0 10 -10v-111 q0 -4 4 -4h178q4 0 4 4v111q0 10 10 10h19q10 0 10 -10v-111q0 -4 4 -4h51zM291 306q4 0 4 4v105q0 4 -4 4h-178q-4 0 -4 -4v-105q0 -4 4 -4h178z" />
<glyph horiz-adv-x="180" d="M80 0q-10 0 -10 10v555q0 10 10 10h19q10 0 10 -10v-555q0 -10 -10 -10h-19z" />
<glyph horiz-adv-x="180" d="M65 662q-14 0 -7 12l62 111q5 7 12 7h18q14 0 7 -12l-67 -111q-5 -7 -12 -7h-13zM80 0q-10 0 -10 10v555q0 10 10 10h19q10 0 10 -10v-555q0 -10 -10 -10h-19z" />
<glyph horiz-adv-x="180" d="M4 653q-13 0 -6 12l66 101q5 7 12 7h26q8 0 12 -6l67 -102q7 -12 -6 -12h-21q-7 0 -12 7l-49 80q-1 2 -3 2t-3 -2l-50 -80q-5 -7 -12 -7h-21zM80 0q-10 0 -10 10v555q0 10 10 10h19q10 0 10 -10v-555q0 -10 -10 -10h-19z" />
<glyph horiz-adv-x="180" d="M34 689q-14 0 -23.5 10t-9.5 26q0 14 9.5 24.5t23.5 10.5q13 0 22 -10.5t9 -24.5q0 -16 -8.5 -26t-22.5 -10zM148 689q-14 0 -23.5 10t-9.5 26q0 14 9.5 24.5t23.5 10.5q13 0 22 -10.5t9 -24.5q0 -16 -8.5 -26t-22.5 -10zM80 0q-10 0 -10 10v555q0 10 10 10h19 q10 0 10 -10v-555q0 -10 -10 -10h-19z" />
<glyph horiz-adv-x="180" d="M90 671q-14 0 -23 10t-9 25q0 14 9.5 24t22.5 10t22 -10t9 -24q0 -15 -9 -25t-22 -10zM80 0q-10 0 -10 10v555q0 10 10 10h19q10 0 10 -10v-555q0 -10 -10 -10h-19z" />
<glyph horiz-adv-x="180" d="M102 674q7 -12 -7 -12h-13q-7 0 -12 7l-67 111q-7 12 7 12h18q7 0 12 -7zM80 0q-10 0 -10 10v555q0 10 10 10h19q10 0 10 -10v-555q0 -10 -10 -10h-19z" />
<glyph horiz-adv-x="539" d="M334 -7q-60 0 -96.5 38.5t-36.5 104.5v62q0 10 10 10h19q10 0 10 -10v-63q0 -50 25.5 -78.5t68.5 -28.5q44 0 69.5 28.5t25.5 78.5v431q0 10 10 10h20q10 0 10 -10v-430q0 -66 -37 -104.5t-98 -38.5zM80 0q-10 0 -10 10v555q0 10 10 10h19q10 0 10 -10v-555 q0 -10 -10 -10h-19z" />
<glyph horiz-adv-x="180" d="M2 685q-10 0 -10 10v11q0 10 10 10h175q10 0 10 -10v-11q0 -10 -10 -10h-175zM80 0q-10 0 -10 10v555q0 10 10 10h19q10 0 10 -10v-555q0 -10 -10 -10h-19z" />
<glyph horiz-adv-x="193" d="M115 -154q10 3 12 -7l2 -7q2 -11 -8 -12q-32 -7 -60 5t-35 50q-11 70 49 122q2 2 -1 4q-4 3 -4 9v555q0 10 10 10h19q10 0 10 -10v-558q0 -5 -5 -12q-55 -55 -47 -109q7 -50 58 -40z" />
<glyph horiz-adv-x="359" d="M154 -7q-60 0 -96.5 38.5t-36.5 104.5v62q0 10 10 10h19q10 0 10 -10v-63q0 -50 25.5 -78.5t68.5 -28.5q44 0 69.5 28.5t25.5 78.5v431q0 10 10 10h20q10 0 10 -10v-430q0 -66 -37 -104.5t-98 -38.5z" />
<glyph horiz-adv-x="378" d="M80 0q-10 0 -10 10v556q0 10 10 10h19q10 0 10 -10v-284q0 -3 1.5 -4t3.5 2l187 289q5 7 12 7h22q13 0 6 -12l-134 -212q-3 -3 -1 -6l151 -334q5 -12 -8 -12h-24q-8 0 -11 8l-134 301q-1 4 -5 0l-64 -93q-2 -2 -2 -5v-201q0 -10 -10 -10h-19z" />
<glyph horiz-adv-x="378" d="M80 0q-10 0 -10 10v556q0 10 10 10h19q10 0 10 -10v-284q0 -3 1.5 -4t3.5 2l187 289q5 7 12 7h22q13 0 6 -12l-134 -212q-3 -3 -1 -6l151 -334q5 -12 -8 -12h-24q-8 0 -11 8l-134 301q-1 4 -5 0l-64 -93q-2 -2 -2 -5v-201q0 -10 -10 -10h-19zM173 -188q-14 0 -7 12 l62 111q5 7 12 7h18q14 0 7 -12l-67 -111q-5 -7 -12 -7h-13z" />
<glyph horiz-adv-x="332" d="M80 0q-10 0 -10 10v556q0 10 10 10h19q10 0 10 -10v-527q0 -4 4 -4h202q10 0 10 -10v-15q0 -10 -10 -10h-235z" />
<glyph horiz-adv-x="332" d="M63 653q-14 0 -7 12l62 111q5 7 12 7h18q14 0 7 -12l-67 -111q-5 -7 -12 -7h-13zM80 0q-10 0 -10 10v556q0 10 10 10h19q10 0 10 -10v-527q0 -4 4 -4h202q10 0 10 -10v-15q0 -10 -10 -10h-235z" />
<glyph horiz-adv-x="332" d="M74 632q-7 0 -12 7l-65 101q-7 12 6 12h20q7 0 12 -7l50 -80q1 -1 3 -1t3 1l50 80q5 7 12 7h20q13 0 6 -12l-67 -102q-4 -6 -12 -6h-26zM80 0q-10 0 -10 10v556q0 10 10 10h19q10 0 10 -10v-527q0 -4 4 -4h202q10 0 10 -10v-15q0 -10 -10 -10h-235z" />
<glyph horiz-adv-x="332" d="M80 0q-10 0 -10 10v556q0 10 10 10h19q10 0 10 -10v-527q0 -4 4 -4h202q10 0 10 -10v-15q0 -10 -10 -10h-235zM148 -188q-14 0 -7 12l62 111q5 7 12 7h18q14 0 7 -12l-67 -111q-5 -7 -12 -7h-13z" />
<glyph horiz-adv-x="535" d="M112 217q-3 -3 -3 -5v-173q0 -4 4 -4h202q10 0 10 -10v-15q0 -10 -10 -10h-235q-10 0 -10 10v173q0 2 -2 3t-3 0l-38 -26q-8 -6 -14 2l-8 11q-5 8 2 14l60 40q3 3 3 5v334q0 10 10 10h19q10 0 10 -10v-304q0 -2 1.5 -3t3.5 0l211 144q9 7 14 -2l8 -12q5 -8 -3 -14z" />
<glyph horiz-adv-x="439" d="M80 0q-10 0 -10 10v556q0 10 10 10h21q8 0 11 -8l104 -241q1 -2 3 -2t3 2l105 241q3 8 11 8h20q10 0 10 -10v-556q0 -10 -10 -10h-19q-10 0 -10 10v489q0 2 -1 3q-3 1 -4 -2l-94 -223q-3 -8 -10 -8t-10 8l-96 223q-1 3 -4 2l-1 -3v-489q0 -10 -10 -10h-19z" />
<glyph horiz-adv-x="420" d="M80 0q-10 0 -10 10v555q0 10 10 10h21q8 0 11 -8l194 -475q1 -3 4 -2q1 1 1 3v472q0 10 10 10h18q10 0 10 -10v-555q0 -10 -10 -10h-21q-8 0 -11 8l-193 475q-1 3 -3 2.5t-2 -3.5v-472q0 -10 -10 -10h-19z" />
<glyph horiz-adv-x="420" d="M185 662q-14 0 -7 12l62 111q5 7 12 7h18q14 0 7 -12l-67 -111q-5 -7 -12 -7h-13zM80 0q-10 0 -10 10v555q0 10 10 10h21q8 0 11 -8l194 -475q1 -3 4 -2q1 1 1 3v472q0 10 10 10h18q10 0 10 -10v-555q0 -10 -10 -10h-21q-8 0 -11 8l-193 475q-1 3 -3 2.5t-2 -3.5v-472 q0 -10 -10 -10h-19z" />
<glyph horiz-adv-x="420" d="M196 641q-7 0 -12 7l-65 101q-7 12 6 12h20q7 0 12 -7l50 -80q1 -2 3 -2t3 2l50 80q5 7 12 7h20q13 0 6 -12l-67 -102q-4 -6 -12 -6h-26zM80 0q-10 0 -10 10v555q0 10 10 10h21q8 0 11 -8l194 -475q1 -3 4 -2q1 1 1 3v472q0 10 10 10h18q10 0 10 -10v-555q0 -10 -10 -10 h-21q-8 0 -11 8l-193 475q-1 3 -3 2.5t-2 -3.5v-472q0 -10 -10 -10h-19z" />
<glyph horiz-adv-x="420" d="M80 0q-10 0 -10 10v555q0 10 10 10h21q8 0 11 -8l194 -475q1 -3 4 -2q1 1 1 3v472q0 10 10 10h18q10 0 10 -10v-555q0 -10 -10 -10h-21q-8 0 -11 8l-193 475q-1 3 -3 2.5t-2 -3.5v-472q0 -10 -10 -10h-19zM187 -188q-14 0 -7 12l62 111q5 7 12 7h18q14 0 7 -12l-67 -111 q-5 -7 -12 -7h-13z" />
<glyph horiz-adv-x="421" d="M349 431l1 -2v-423q0 -29 -1 -43t-5.5 -32.5t-13.5 -27.5t-26.5 -15.5t-43.5 -7.5q-10 0 -10 10v15q0 10 10 10q14 1 24 5.5t15 9.5t7 16.5t2.5 19.5t0.5 25v8q0 4 -1 5l-194 479q-1 3 -3 2.5t-2 -3.5v-472q0 -10 -10 -10h-19q-10 0 -10 10v555q0 10 10 10h21q8 0 11 -8 l192 -470q1 -3 4 -2q1 1 1 3v321l1 10h1v136q0 10 10 10h18q10 0 10 -10v-134z" />
<glyph horiz-adv-x="420" d="M269 684q-22 0 -53 23q-32 21 -46 21q-29 0 -48 -27q-6 -9 -14 -3l-6 4q-9 6 -3 14q26 44 70 44q22 0 55 -23t47 -23q27 0 46 31q5 10 14 4l6 -3q10 -6 1 -21q-26 -41 -69 -41zM80 0q-10 0 -10 10v555q0 10 10 10h21q8 0 11 -8l194 -475q1 -3 4 -2q1 1 1 3v472 q0 10 10 10h18q10 0 10 -10v-555q0 -10 -10 -10h-21q-8 0 -11 8l-193 475q-1 3 -3 2.5t-2 -3.5v-472q0 -10 -10 -10h-19z" />
<glyph horiz-adv-x="390" d="M195 -7q-63 0 -101 40t-38 108v294q0 68 38 108t101 40q64 0 102 -40t38 -108v-294q0 -68 -38 -108t-102 -40zM195 28q46 0 73.5 29.5t27.5 81.5v297q0 52 -27.5 82t-73.5 30q-45 0 -72.5 -30t-27.5 -82v-297q0 -52 27.5 -81.5t72.5 -29.5z" />
<glyph horiz-adv-x="390" d="M170 653q-14 0 -7 12l62 111q5 7 12 7h18q14 0 7 -12l-67 -111q-5 -7 -12 -7h-13zM195 -7q-63 0 -101 40t-38 108v294q0 68 38 108t101 40q64 0 102 -40t38 -108v-294q0 -68 -38 -108t-102 -40zM195 28q46 0 73.5 29.5t27.5 81.5v297q0 52 -27.5 82t-73.5 30 q-45 0 -72.5 -30t-27.5 -82v-297q0 -52 27.5 -81.5t72.5 -29.5z" />
<glyph horiz-adv-x="390" d="M109 644q-13 0 -6 12l66 101q5 7 12 7h26q7 0 12 -6l67 -102q7 -12 -6 -12h-21q-7 0 -12 7l-49 80q-1 1 -3 1t-3 -1l-50 -80q-5 -7 -12 -7h-21zM195 -7q-63 0 -101 40t-38 108v294q0 68 38 108t101 40q64 0 102 -40t38 -108v-294q0 -68 -38 -108t-102 -40zM195 28 q46 0 73.5 29.5t27.5 81.5v297q0 52 -27.5 82t-73.5 30q-45 0 -72.5 -30t-27.5 -82v-297q0 -52 27.5 -81.5t72.5 -29.5z" />
<glyph horiz-adv-x="390" d="M139 680q-14 0 -23.5 10t-9.5 26q0 14 9.5 24.5t23.5 10.5q13 0 22 -10.5t9 -24.5q0 -16 -8.5 -26t-22.5 -10zM253 680q-14 0 -23.5 10t-9.5 26q0 14 9.5 24.5t23.5 10.5q13 0 22 -10.5t9 -24.5q0 -16 -8.5 -26t-22.5 -10zM195 -7q-63 0 -101 40t-38 108v294q0 68 38 108 t101 40q64 0 102 -40t38 -108v-294q0 -68 -38 -108t-102 -40zM195 28q46 0 73.5 29.5t27.5 81.5v297q0 52 -27.5 82t-73.5 30q-45 0 -72.5 -30t-27.5 -82v-297q0 -52 27.5 -81.5t72.5 -29.5z" />
<glyph horiz-adv-x="390" d="M207 665q7 -12 -7 -12h-13q-7 0 -12 7l-67 111q-7 12 7 12h18q7 0 12 -7zM195 -7q-63 0 -101 40t-38 108v294q0 68 38 108t101 40q64 0 102 -40t38 -108v-294q0 -68 -38 -108t-102 -40zM195 28q46 0 73.5 29.5t27.5 81.5v297q0 52 -27.5 82t-73.5 30q-45 0 -72.5 -30 t-27.5 -82v-297q0 -52 27.5 -81.5t72.5 -29.5z" />
<glyph horiz-adv-x="390" d="M134 651q-5 0 -7.5 3.5t0.5 8.5l60 111q3 7 12 7h16q14 0 7 -12l-63 -111q-5 -7 -12 -7h-13zM244 651q-14 0 -7 12l61 111q3 7 12 7h15q14 0 7 -12l-63 -111q-5 -7 -12 -7h-13zM195 -7q-63 0 -101 40t-38 108v294q0 68 38 108t101 40q64 0 102 -40t38 -108v-294 q0 -68 -38 -108t-102 -40zM195 28q46 0 73.5 29.5t27.5 81.5v297q0 52 -27.5 82t-73.5 30q-45 0 -72.5 -30t-27.5 -82v-297q0 -52 27.5 -81.5t72.5 -29.5z" />
<glyph horiz-adv-x="390" d="M107 676q-10 0 -10 10v11q0 10 10 10h175q10 0 10 -10v-11q0 -10 -10 -10h-175zM195 -7q-63 0 -101 40t-38 108v294q0 68 38 108t101 40q64 0 102 -40t38 -108v-294q0 -68 -38 -108t-102 -40zM195 28q46 0 73.5 29.5t27.5 81.5v297q0 52 -27.5 82t-73.5 30 q-45 0 -72.5 -30t-27.5 -82v-297q0 -52 27.5 -81.5t72.5 -29.5z" />
<glyph horiz-adv-x="451" d="M391 675q12 0 7 -12l-69 -172q-2 -2 0 -6q6 -30 6 -50v-294q0 -68 -38 -108t-102 -40q-34 0 -58 10q-5 2 -6 -2l-37 -92q-3 -8 -11 -8h-13q-13 0 -8 12l43 106q1 3 -2 5q-47 39 -47 117v294q0 68 38 108t101 40q73 0 112 -51q3 -5 5 0l54 135q3 8 11 8h14zM95 139 q0 -47 23 -76q1 -2 2.5 -1.5t2.5 2.5l166 412q2 2 0 6q-10 31 -34.5 48.5t-59.5 17.5q-45 0 -72.5 -30t-27.5 -82v-297zM296 139v259q0 3 -2 3t-3 -3l-143 -355q-1 -4 2 -6q21 -9 45 -9q46 0 73.5 29.5t27.5 81.5z" />
<glyph horiz-adv-x="390" d="M254 675q-22 0 -53 23q-32 21 -46 21q-29 0 -48 -27q-6 -9 -14 -3l-6 4q-9 6 -3 14q26 44 70 44q22 0 55 -23t47 -23q27 0 46 31q5 10 14 4l6 -3q10 -6 1 -21q-26 -41 -69 -41zM195 -7q-63 0 -101 40t-38 108v294q0 68 38 108t101 40q64 0 102 -40t38 -108v-294 q0 -68 -38 -108t-102 -40zM195 28q46 0 73.5 29.5t27.5 81.5v297q0 52 -27.5 82t-73.5 30q-45 0 -72.5 -30t-27.5 -82v-297q0 -52 27.5 -81.5t72.5 -29.5z" />
<glyph horiz-adv-x="594" d="M554 551q0 -10 -10 -10h-205q-4 0 -4 -4v-227q0 -4 4 -4h133q10 0 10 -10v-15q0 -10 -10 -10h-133q-4 0 -4 -4v-228q0 -4 4 -4h205q10 0 10 -10v-15q0 -10 -10 -10h-238q-10 0 -10 10v29q0 6 -5 1q-36 -47 -102 -47q-59 0 -96 40t-37 108v294q0 68 37 108t96 40 q66 0 102 -47q5 -5 5 1v29q0 10 10 10h238q10 0 10 -10v-15zM195 28q46 0 73.5 29.5t27.5 81.5v297q0 52 -27.5 82t-73.5 30q-45 0 -72.5 -30t-27.5 -82v-297q0 -52 27.5 -81.5t72.5 -29.5z" />
<glyph horiz-adv-x="370" d="M204 578q59 0 96 -43t37 -113q0 -68 -36.5 -110t-95.5 -42h-97q-4 0 -4 -4v-256q0 -10 -10 -10h-19q-10 0 -10 10v558q0 10 10 10h129zM200 303q44 0 71 32.5t27 86.5q0 55 -27 88t-71 33h-92q-4 0 -4 -4v-232q0 -4 4 -4h92z" />
<glyph horiz-adv-x="370" d="M203 443q60 0 97 -42.5t37 -111.5t-37 -111.5t-96 -42.5h-96q-4 0 -4 -4v-121q0 -10 -10 -10h-19q-10 0 -10 10v556q0 10 10 10h19q10 0 10 -10v-119q0 -4 4 -4h95zM200 169q44 0 71 32.5t27 86.5t-27 87t-71 33h-92q-4 0 -4 -4v-231q0 -4 4 -4h92z" />
<glyph horiz-adv-x="380" d="M190 583q61 0 98 -40t37 -109v-291q0 -62 -29.5 -101t-81.5 -47q-4 -1 -4 -5v-79q0 -10 -10 -10h-20q-10 0 -10 10v79q0 4 -4 5q-50 8 -80 47t-30 101v291q0 69 37 109t97 40zM286 140v297q0 52 -26.5 81.5t-69.5 29.5t-69 -29.5t-26 -81.5v-297q0 -52 26 -82t69 -30 t69.5 30t26.5 82z" />
<glyph horiz-adv-x="375" d="M315 0q-8 0 -11 8l-97 262q-1 3 -4 3h-90q-4 0 -4 -4v-259q0 -10 -10 -10h-19q-10 0 -10 10v558q0 10 10 10h129q60 0 97 -43t37 -111q0 -56 -26 -95t-70 -51q-4 -1 -2 -5l99 -261q3 -12 -8 -12h-21zM113 543q-4 0 -4 -4v-228q0 -4 4 -4h93q44 0 71 32t27 84q0 54 -27 87 t-71 33h-93z" />
<glyph horiz-adv-x="375" d="M251 783q14 0 7 -12l-67 -111q-5 -7 -12 -7h-13q-14 0 -7 12l62 111q5 7 12 7h18zM315 0q-8 0 -11 8l-97 262q-1 3 -4 3h-90q-4 0 -4 -4v-259q0 -10 -10 -10h-19q-10 0 -10 10v558q0 10 10 10h129q60 0 97 -43t37 -111q0 -56 -26 -95t-70 -51q-4 -1 -2 -5l99 -261 q3 -12 -8 -12h-21zM113 543q-4 0 -4 -4v-228q0 -4 4 -4h93q44 0 71 32t27 84q0 54 -27 87t-71 33h-93z" />
<glyph horiz-adv-x="375" d="M215 638q-5 -6 -12 -6h-26q-7 0 -12 7l-65 101q-7 12 6 12h20q7 0 12 -7l50 -80q1 -1 3 -1t3 1l50 80q5 7 12 7h20q13 0 6 -12zM315 0q-8 0 -11 8l-97 262q-1 3 -4 3h-90q-4 0 -4 -4v-259q0 -10 -10 -10h-19q-10 0 -10 10v558q0 10 10 10h129q60 0 97 -43t37 -111 q0 -56 -26 -95t-70 -51q-4 -1 -2 -5l99 -261q3 -12 -8 -12h-21zM113 543q-4 0 -4 -4v-228q0 -4 4 -4h93q44 0 71 32t27 84q0 54 -27 87t-71 33h-93z" />
<glyph horiz-adv-x="375" d="M247 278q-4 -1 -2 -5l99 -261q3 -12 -8 -12h-21q-8 0 -11 8l-97 262q-1 3 -4 3h-90q-4 0 -4 -4v-259q0 -10 -10 -10h-19q-10 0 -10 10v558q0 10 10 10h129q60 0 97 -43t37 -111q0 -56 -26 -95t-70 -51zM113 543q-4 0 -4 -4v-228q0 -4 4 -4h93q44 0 71 32t27 84 q0 54 -27 87t-71 33h-93zM180 -188q-14 0 -7 12l62 111q5 7 12 7h18q14 0 7 -12l-67 -111q-5 -7 -12 -7h-13z" />
<glyph horiz-adv-x="364" d="M185 -7q-60 0 -97.5 40t-37.5 104v15q0 10 10 10h17q10 0 10 -10v-12q0 -51 27.5 -82t69.5 -31q43 0 71 30t28 78q0 24 -6.5 42.5t-26 37.5t-32 28.5t-46.5 33.5q-44 30 -65.5 48.5t-39.5 50.5t-18 72q0 63 36.5 99t94.5 36q62 0 99 -40t37 -105v-18q0 -10 -10 -10h-19 q-10 0 -10 10v16q0 51 -26.5 82t-70.5 31q-40 0 -66 -27t-26 -76q0 -40 22.5 -66.5t82.5 -68.5q75 -54 102 -86t27 -85q0 -66 -38.5 -106.5t-98.5 -40.5z" />
<glyph horiz-adv-x="364" d="M155 660q-14 0 -7 12l62 111q5 7 12 7h18q14 0 7 -12l-67 -111q-5 -7 -12 -7h-13zM185 -7q-60 0 -97.5 40t-37.5 104v15q0 10 10 10h17q10 0 10 -10v-12q0 -51 27.5 -82t69.5 -31q43 0 71 30t28 78q0 24 -6.5 42.5t-26 37.5t-32 28.5t-46.5 33.5q-44 30 -65.5 48.5 t-39.5 50.5t-18 72q0 63 36.5 99t94.5 36q62 0 99 -40t37 -105v-18q0 -10 -10 -10h-19q-10 0 -10 10v16q0 51 -26.5 82t-70.5 31q-40 0 -66 -27t-26 -76q0 -40 22.5 -66.5t82.5 -68.5q75 -54 102 -86t27 -85q0 -66 -38.5 -106.5t-98.5 -40.5z" />
<glyph horiz-adv-x="364" d="M166 639q-7 0 -12 7l-65 101q-7 12 6 12h20q7 0 12 -7l50 -80q1 -2 3 -2t3 2l50 80q5 7 12 7h20q13 0 6 -12l-67 -102q-4 -6 -12 -6h-26zM185 -7q-60 0 -97.5 40t-37.5 104v15q0 10 10 10h17q10 0 10 -10v-12q0 -51 27.5 -82t69.5 -31q43 0 71 30t28 78q0 24 -6.5 42.5 t-26 37.5t-32 28.5t-46.5 33.5q-44 30 -65.5 48.5t-39.5 50.5t-18 72q0 63 36.5 99t94.5 36q62 0 99 -40t37 -105v-18q0 -10 -10 -10h-19q-10 0 -10 10v16q0 51 -26.5 82t-70.5 31q-40 0 -66 -27t-26 -76q0 -40 22.5 -66.5t82.5 -68.5q75 -54 102 -86t27 -85 q0 -66 -38.5 -106.5t-98.5 -40.5z" />
<glyph horiz-adv-x="364" d="M322 140q0 -60 -32 -99t-84 -46q-6 -2 -1 -5q52 -50 41 -116q-7 -38 -35 -50t-61 -5q-9 1 -7 12l2 7q2 10 12 7q51 -10 58 40q8 52 -45 107q-2 2 -5 2q-52 6 -83.5 45t-31.5 98v15q0 10 10 10h17q10 0 10 -10v-12q0 -51 27.5 -82t69.5 -31q43 0 71 30t28 78 q0 24 -6.5 42.5t-26 37.5t-32 28.5t-46.5 33.5q-44 30 -65.5 48.5t-39.5 50.5t-18 72q0 63 36.5 99t94.5 36q62 0 99 -40t37 -105v-18q0 -10 -10 -10h-19q-10 0 -10 10v16q0 51 -26.5 82t-70.5 31q-40 0 -66 -27t-26 -76q0 -40 22.5 -66.5t82.5 -68.5q75 -54 102 -86t27 -85 z" />
<glyph horiz-adv-x="364" d="M185 -7q-60 0 -97.5 40t-37.5 104v15q0 10 10 10h17q10 0 10 -10v-12q0 -51 27.5 -82t69.5 -31q43 0 71 30t28 78q0 24 -6.5 42.5t-26 37.5t-32 28.5t-46.5 33.5q-44 30 -65.5 48.5t-39.5 50.5t-18 72q0 63 36.5 99t94.5 36q62 0 99 -40t37 -105v-18q0 -10 -10 -10h-19 q-10 0 -10 10v16q0 51 -26.5 82t-70.5 31q-40 0 -66 -27t-26 -76q0 -40 22.5 -66.5t82.5 -68.5q75 -54 102 -86t27 -85q0 -66 -38.5 -106.5t-98.5 -40.5zM164 -195q-14 0 -7 12l62 111q5 7 12 7h18q14 0 7 -12l-67 -111q-5 -7 -12 -7h-13z" />
<glyph horiz-adv-x="340" d="M303 576q10 0 10 -10v-15q0 -10 -10 -10h-113q-4 0 -4 -4v-527q0 -10 -10 -10h-19q-10 0 -10 10v527q0 4 -4 4h-107q-10 0 -10 10v15q0 10 10 10h267z" />
<glyph horiz-adv-x="340" d="M313 551q0 -10 -10 -10h-113q-4 0 -4 -4v-163q0 -4 4 -4h97q10 0 10 -10v-10q0 -10 -10 -10h-97q-4 0 -4 -4v-326q0 -10 -10 -10h-19q-10 0 -10 10v326q0 4 -4 4h-95q-10 0 -10 10v10q0 10 10 10h95q4 0 4 4v163q0 4 -4 4h-107q-10 0 -10 10v15q0 10 10 10h267 q10 0 10 -10v-15z" />
<glyph horiz-adv-x="340" d="M192 638q-4 -6 -12 -6h-26q-7 0 -12 7l-65 101q-7 12 6 12h20q7 0 12 -7l50 -80q1 -1 3 -1t3 1l50 80q5 7 12 7h20q13 0 6 -12zM303 576q10 0 10 -10v-15q0 -10 -10 -10h-113q-4 0 -4 -4v-527q0 -10 -10 -10h-19q-10 0 -10 10v527q0 4 -4 4h-107q-10 0 -10 10v15 q0 10 10 10h267z" />
<glyph horiz-adv-x="340" d="M190 541q-4 0 -4 -4v-527q0 -10 -2 -10l3 -5q54 -51 43 -117q-7 -38 -35 -50t-61 -5q-9 1 -7 12l2 7q2 10 12 7q51 -10 58 40q8 54 -47 109l-2 2l-2 1q-1 2 -1 9v527q0 4 -4 4h-107q-10 0 -10 10v15q0 10 10 10h267q10 0 10 -10v-15q0 -10 -10 -10h-113z" />
<glyph horiz-adv-x="340" d="M26 566q0 10 10 10h267q10 0 10 -10v-15q0 -10 -10 -10h-113q-4 0 -4 -4v-527q0 -10 -10 -10h-19q-10 0 -10 10v527q0 4 -4 4h-107q-10 0 -10 10v15zM137 -191q-14 0 -7 12l62 111q5 7 12 7h18q14 0 7 -12l-67 -111q-5 -7 -12 -7h-13z" />
<glyph horiz-adv-x="409" d="M204 -7q-63 0 -101 44t-38 120v408q0 10 10 10h19q10 0 10 -10v-412q0 -57 27.5 -91t72.5 -34q46 0 74 34t28 91v412q0 10 10 10h19q10 0 10 -10v-408q0 -76 -38.5 -120t-102.5 -44z" />
<glyph horiz-adv-x="409" d="M179 662q-14 0 -7 12l62 111q5 7 12 7h18q14 0 7 -12l-67 -111q-5 -7 -12 -7h-13zM204 -7q-63 0 -101 44t-38 120v408q0 10 10 10h19q10 0 10 -10v-412q0 -57 27.5 -91t72.5 -34q46 0 74 34t28 91v412q0 10 10 10h19q10 0 10 -10v-408q0 -76 -38.5 -120t-102.5 -44z" />
<glyph horiz-adv-x="409" d="M118 653q-13 0 -6 12l66 101q5 7 12 7h26q8 0 12 -6l67 -102q7 -12 -6 -12h-21q-7 0 -12 7l-49 80q-1 2 -3 2t-3 -2l-50 -80q-5 -7 -12 -7h-21zM204 -7q-63 0 -101 44t-38 120v408q0 10 10 10h19q10 0 10 -10v-412q0 -57 27.5 -91t72.5 -34q46 0 74 34t28 91v412 q0 10 10 10h19q10 0 10 -10v-408q0 -76 -38.5 -120t-102.5 -44z" />
<glyph horiz-adv-x="409" d="M148 689q-14 0 -23.5 10t-9.5 26q0 14 9.5 24.5t23.5 10.5q13 0 22 -10.5t9 -24.5q0 -16 -8.5 -26t-22.5 -10zM262 689q-14 0 -23.5 10t-9.5 26q0 14 9.5 24.5t23.5 10.5q13 0 22 -10.5t9 -24.5q0 -16 -8.5 -26t-22.5 -10zM204 -7q-63 0 -101 44t-38 120v408q0 10 10 10 h19q10 0 10 -10v-412q0 -57 27.5 -91t72.5 -34q46 0 74 34t28 91v412q0 10 10 10h19q10 0 10 -10v-408q0 -76 -38.5 -120t-102.5 -44z" />
<glyph horiz-adv-x="409" d="M216 674q7 -12 -7 -12h-13q-7 0 -12 7l-67 111q-7 12 7 12h18q7 0 12 -7zM204 -7q-63 0 -101 44t-38 120v408q0 10 10 10h19q10 0 10 -10v-412q0 -57 27.5 -91t72.5 -34q46 0 74 34t28 91v412q0 10 10 10h19q10 0 10 -10v-408q0 -76 -38.5 -120t-102.5 -44z" />
<glyph horiz-adv-x="409" d="M143 660q-5 0 -7.5 3.5t0.5 8.5l60 111q3 7 12 7h16q14 0 7 -12l-63 -111q-5 -7 -12 -7h-13zM253 660q-14 0 -7 12l61 111q3 7 12 7h15q14 0 7 -12l-63 -111q-5 -7 -12 -7h-13zM204 -7q-63 0 -101 44t-38 120v408q0 10 10 10h19q10 0 10 -10v-412q0 -57 27.5 -91 t72.5 -34q46 0 74 34t28 91v412q0 10 10 10h19q10 0 10 -10v-408q0 -76 -38.5 -120t-102.5 -44z" />
<glyph horiz-adv-x="409" d="M116 685q-10 0 -10 10v11q0 10 10 10h175q10 0 10 -10v-11q0 -10 -10 -10h-175zM204 -7q-63 0 -101 44t-38 120v408q0 10 10 10h19q10 0 10 -10v-412q0 -57 27.5 -91t72.5 -34q46 0 74 34t28 91v412q0 10 10 10h19q10 0 10 -10v-408q0 -76 -38.5 -120t-102.5 -44z" />
<glyph horiz-adv-x="409" d="M306 565q0 10 10 10h19q10 0 10 -10v-408q0 -72 -34.5 -115.5t-92.5 -48.5q-3 0 -5 -2q-45 -50 -38 -99q7 -50 58 -40q10 3 12 -7l2 -7q2 -11 -8 -12q-32 -7 -60 5t-35 50q-9 62 35 109q4 4 -2 5q-51 9 -81.5 52t-30.5 110v408q0 10 10 10h19q10 0 10 -10v-412 q0 -57 27.5 -91t72.5 -34q46 0 74 34t28 91v412z" />
<glyph horiz-adv-x="409" d="M204 660q-40 0 -68 29t-28 70q0 42 28 70.5t68 28.5q41 0 69 -28.5t28 -70.5q0 -41 -28 -70t-69 -29zM204 687q29 0 49.5 21t20.5 51t-20.5 51t-49.5 21t-49 -20.5t-20 -51.5q0 -30 20 -51t49 -21zM204 -7q-63 0 -101 44t-38 120v408q0 10 10 10h19q10 0 10 -10v-412 q0 -57 27.5 -91t72.5 -34q46 0 74 34t28 91v412q0 10 10 10h19q10 0 10 -10v-408q0 -76 -38.5 -120t-102.5 -44z" />
<glyph horiz-adv-x="366" d="M172 0q-9 0 -11 9l-126 556q-2 11 9 11h22q10 0 11 -9l105 -490q2 -8 4 0l104 490q2 9 11 9h20q11 0 9 -11l-125 -556q-1 -9 -11 -9h-22z" />
<glyph horiz-adv-x="531" d="M158 0q-10 0 -11 9l-112 556q-2 11 9 11h21q9 0 11 -9l91 -483q2 -6 4 0l79 483q2 9 10 9h17q9 0 11 -9l80 -482q2 -6 4 0l83 482q1 9 11 9h21q11 0 9 -11l-106 -556q-2 -9 -11 -9h-20q-9 0 -10 9l-78 479q-2 6 -4 0l-80 -479q-1 -9 -11 -9h-18z" />
<glyph horiz-adv-x="531" d="M242 653q-14 0 -7 12l62 111q5 7 12 7h18q14 0 7 -12l-67 -111q-5 -7 -12 -7h-13zM158 0q-10 0 -11 9l-112 556q-2 11 9 11h21q9 0 11 -9l91 -483q2 -6 4 0l79 483q2 9 10 9h17q9 0 11 -9l80 -482q2 -6 4 0l83 482q1 9 11 9h21q11 0 9 -11l-106 -556q-2 -9 -11 -9h-20 q-9 0 -10 9l-78 479q-2 6 -4 0l-80 -479q-1 -9 -11 -9h-18z" />
<glyph horiz-adv-x="531" d="M181 644q-13 0 -6 12l66 101q5 7 12 7h26q7 0 12 -6l67 -102q7 -12 -6 -12h-21q-7 0 -12 7l-49 80q-1 1 -3 1t-3 -1l-50 -80q-5 -7 -12 -7h-21zM158 0q-10 0 -11 9l-112 556q-2 11 9 11h21q9 0 11 -9l91 -483q2 -6 4 0l79 483q2 9 10 9h17q9 0 11 -9l80 -482q2 -6 4 0 l83 482q1 9 11 9h21q11 0 9 -11l-106 -556q-2 -9 -11 -9h-20q-9 0 -10 9l-78 479q-2 6 -4 0l-80 -479q-1 -9 -11 -9h-18z" />
<glyph horiz-adv-x="531" d="M211 680q-14 0 -23.5 10t-9.5 26q0 14 9.5 24.5t23.5 10.5q13 0 22 -10.5t9 -24.5q0 -16 -8.5 -26t-22.5 -10zM325 680q-14 0 -23.5 10t-9.5 26q0 14 9.5 24.5t23.5 10.5q13 0 22 -10.5t9 -24.5q0 -16 -8.5 -26t-22.5 -10zM158 0q-10 0 -11 9l-112 556q-2 11 9 11h21 q9 0 11 -9l91 -483q2 -6 4 0l79 483q2 9 10 9h17q9 0 11 -9l80 -482q2 -6 4 0l83 482q1 9 11 9h21q11 0 9 -11l-106 -556q-2 -9 -11 -9h-20q-9 0 -10 9l-78 479q-2 6 -4 0l-80 -479q-1 -9 -11 -9h-18z" />
<glyph horiz-adv-x="531" d="M279 665q7 -12 -7 -12h-13q-7 0 -12 7l-67 111q-7 12 7 12h18q7 0 12 -7zM158 0q-10 0 -11 9l-112 556q-2 11 9 11h21q9 0 11 -9l91 -483q2 -6 4 0l79 483q2 9 10 9h17q9 0 11 -9l80 -482q2 -6 4 0l83 482q1 9 11 9h21q11 0 9 -11l-106 -556q-2 -9 -11 -9h-20q-9 0 -10 9 l-78 479q-2 6 -4 0l-80 -479q-1 -9 -11 -9h-18z" />
<glyph horiz-adv-x="364" d="M46 0q-13 0 -8 12l122 273q2 3 0 6l-122 273q-5 12 8 12h21q8 0 11 -8l102 -237q1 -2 3 -2t3 2l99 237q3 8 11 8h21q13 0 8 -12l-122 -274q-1 -3 0 -6l122 -272q5 -12 -8 -12h-21q-8 0 -11 8l-99 237q-1 2 -3 2t-3 -2l-102 -237q-3 -8 -11 -8h-21z" />
<glyph horiz-adv-x="353" d="M167 0q-10 0 -10 10v255q0 4 -1 5l-118 294q-5 12 8 12h20q8 0 11 -8l97 -252q1 -3 3 -3t3 3l96 252q3 8 11 8h20q12 0 7 -12l-117 -294q-1 -1 -1 -5v-255q0 -10 -10 -10h-19z" />
<glyph horiz-adv-x="353" d="M152 653q-14 0 -7 12l62 111q5 7 12 7h18q14 0 7 -12l-67 -111q-5 -7 -12 -7h-13zM167 0q-10 0 -10 10v255q0 4 -1 5l-118 294q-5 12 8 12h20q8 0 11 -8l97 -252q1 -3 3 -3t3 3l96 252q3 8 11 8h20q12 0 7 -12l-117 -294q-1 -1 -1 -5v-255q0 -10 -10 -10h-19z" />
<glyph horiz-adv-x="353" d="M91 644q-13 0 -6 12l66 101q5 7 12 7h26q7 0 12 -6l67 -102q7 -12 -6 -12h-21q-7 0 -12 7l-49 80q-1 1 -3 1t-3 -1l-50 -80q-5 -7 -12 -7h-21zM167 0q-10 0 -10 10v255q0 4 -1 5l-118 294q-5 12 8 12h20q8 0 11 -8l97 -252q1 -3 3 -3t3 3l96 252q3 8 11 8h20q12 0 7 -12 l-117 -294q-1 -1 -1 -5v-255q0 -10 -10 -10h-19z" />
<glyph horiz-adv-x="353" d="M121 680q-14 0 -23.5 10t-9.5 26q0 14 9.5 24.5t23.5 10.5q13 0 22 -10.5t9 -24.5q0 -16 -8.5 -26t-22.5 -10zM235 680q-14 0 -23.5 10t-9.5 26q0 14 9.5 24.5t23.5 10.5q13 0 22 -10.5t9 -24.5q0 -16 -8.5 -26t-22.5 -10zM167 0q-10 0 -10 10v255q0 4 -1 5l-118 294 q-5 12 8 12h20q8 0 11 -8l97 -252q1 -3 3 -3t3 3l96 252q3 8 11 8h20q12 0 7 -12l-117 -294q-1 -1 -1 -5v-255q0 -10 -10 -10h-19z" />
<glyph horiz-adv-x="353" d="M189 665q7 -12 -7 -12h-13q-7 0 -12 7l-67 111q-7 12 7 12h18q7 0 12 -7zM167 0q-10 0 -10 10v255q0 4 -1 5l-118 294q-5 12 8 12h20q8 0 11 -8l97 -252q1 -3 3 -3t3 3l96 252q3 8 11 8h20q12 0 7 -12l-117 -294q-1 -1 -1 -5v-255q0 -10 -10 -10h-19z" />
<glyph horiz-adv-x="338" d="M43 0q-10 0 -10 10v19q0 5 3 12l221 495q3 5 -3 5h-211q-10 0 -10 10v15q0 10 10 10h247q10 0 10 -10v-19q0 -5 -3 -12l-220 -495q-3 -5 3 -5h210q10 0 10 -10v-15q0 -10 -10 -10h-247z" />
<glyph horiz-adv-x="338" d="M143 664q-14 0 -7 12l62 111q5 7 12 7h18q14 0 7 -12l-67 -111q-5 -7 -12 -7h-13zM43 0q-10 0 -10 10v19q0 5 3 12l221 495q3 5 -3 5h-211q-10 0 -10 10v15q0 10 10 10h247q10 0 10 -10v-19q0 -5 -3 -12l-220 -495q-3 -5 3 -5h210q10 0 10 -10v-15q0 -10 -10 -10h-247z " />
<glyph horiz-adv-x="338" d="M154 643q-7 0 -12 7l-65 101q-7 12 6 12h20q7 0 12 -7l50 -80q1 -2 3 -2t3 2l50 80q5 7 12 7h20q13 0 6 -12l-67 -102q-4 -6 -12 -6h-26zM43 0q-10 0 -10 10v19q0 5 3 12l221 495q3 5 -3 5h-211q-10 0 -10 10v15q0 10 10 10h247q10 0 10 -10v-19q0 -5 -3 -12l-220 -495 q-3 -5 3 -5h210q10 0 10 -10v-15q0 -10 -10 -10h-247z" />
<glyph horiz-adv-x="338" d="M168 673q-14 0 -23 10t-9 25q0 14 9.5 24t22.5 10t22 -10t9 -24q0 -15 -9 -25t-22 -10zM43 0q-10 0 -10 10v19q0 5 3 12l221 495q3 5 -3 5h-211q-10 0 -10 10v15q0 10 10 10h247q10 0 10 -10v-19q0 -5 -3 -12l-220 -495q-3 -5 3 -5h210q10 0 10 -10v-15q0 -10 -10 -10 h-247z" />
<glyph horiz-adv-x="264" d="M132 -8q-44 0 -71 28.5t-27 75.5v224q0 47 27 75.5t71 28.5t71 -28.5t27 -75.5v-224q0 -47 -27 -75.5t-71 -28.5zM132 21q30 0 48 20t18 54v227q0 33 -18 53t-48 20t-48 -20t-18 -53v-227q0 -34 18 -54t48 -20z" />
<glyph horiz-adv-x="140" d="M65 417q5 3 13 3h16q10 0 10 -10v-400q0 -10 -10 -10h-13q-10 0 -10 10v371q0 5 -5 3l-22 -9q-12 -5 -12 8v6q0 7 7 12z" />
<glyph horiz-adv-x="235" d="M35 0q-10 0 -10 10v11q0 7 3 13q75 123 104 173q39 69 39 115q0 34 -16 54t-42 20q-25 0 -40 -20t-15 -53v-19q0 -10 -10 -10h-13q-10 0 -10 10v20q0 46 24.5 73.5t64.5 27.5q41 0 65.5 -27.5t24.5 -76.5q0 -53 -40 -127q-4 -7 -93 -161q-3 -5 3 -5h133q10 0 10 -10v-8 q0 -10 -10 -10h-172z" />
<glyph horiz-adv-x="255" d="M204 186q7 -32 7 -63q0 -40 -11 -70q-20 -61 -84 -61q-36 0 -60 23.5t-30 61.5q-3 18 -3 35q0 10 10 10h12q10 0 10 -10q0 -11 2 -27q12 -63 59 -63q39 0 54 41q10 28 10 63q0 30 -6 56q-14 51 -58 51q-6 0 -9 -1q-9 -2 -14 3l-5 6q-5 6 -1 13l81 130q2 5 -3 5h-130 q-10 0 -10 10v8q0 10 10 10h163q10 0 10 -10v-11q0 -5 -4 -13l-74 -120q-2 -5 2 -5q54 -5 72 -72z" />
<glyph horiz-adv-x="230" d="M205 147q10 0 10 -10v-10q0 -10 -10 -10h-13q-4 0 -4 -4v-103q0 -10 -10 -10h-11q-10 0 -10 10v103q0 4 -4 4h-128q-10 0 -10 10v10q0 4 2 12l90 263q3 8 12 8h14q11 0 8 -11l-88 -257q-3 -5 3 -5h97q4 0 4 4v92q0 10 10 10h11q10 0 10 -10v-92q0 -4 4 -4h13z" />
<glyph horiz-adv-x="228" d="M196 192q8 -24 8 -67q0 -40 -6 -59q-17 -74 -85 -74q-75 0 -88 81q0 2 -3 30q0 10 10 10h12q10 0 10 -10l3 -25q11 -56 56 -56q41 0 53 48q7 21 7 55q0 35 -7 55q-12 47 -53 47q-45 0 -56 -43q-3 -9 -11 -9h-14q-10 0 -10 10v222q0 10 10 10h152q10 0 10 -10v-8 q0 -10 -10 -10h-125q-4 0 -4 -4l-1 -150q0 -6 5 -1q20 22 61 22q59 0 76 -64z" />
<glyph horiz-adv-x="242" d="M208 194q10 -30 10 -69q0 -41 -9 -69q-18 -64 -82 -64q-66 0 -84 68q-8 27 -8 64v196q0 46 25 74t66 28q37 0 61 -28t24 -74v-2q0 -10 -10 -10h-12q-10 0 -10 6v6q0 32 -15.5 52.5t-37.5 20.5q-26 0 -42.5 -20.5t-16.5 -52.5v-89q0 -7 5 -2q20 29 58 29q61 0 78 -64z M178 65q7 30 7 61q0 37 -8 64q-15 41 -51 41q-38 0 -52 -44q-7 -30 -7 -61q0 -32 6 -56q12 -48 53 -48q39 0 52 43z" />
<glyph horiz-adv-x="209" d="M71 0q-12 0 -9 11l101 377q2 4 -4 4h-116q-4 0 -4 -4v-34q0 -10 -10 -10h-8q-10 0 -10 10v56q0 10 10 10h167q10 0 10 -10v-12q0 -2 -2 -12l-101 -377q-2 -9 -11 -9h-13z" />
<glyph horiz-adv-x="251" d="M171 223q-5 -2 0 -5q32 -19 42 -62q4 -24 4 -43q0 -24 -4 -43q-8 -35 -31.5 -56.5t-56.5 -21.5q-32 0 -54 21t-31 57q-5 17 -5 43q0 29 4 44q11 43 41 61q5 3 0 5q-33 19 -41 59q-5 18 -5 35q0 20 5 35q19 71 86 71q33 0 56.5 -19t31.5 -52q4 -17 4 -36q0 -17 -4 -34 q-10 -40 -42 -59zM66 314q0 -13 1 -22q13 -57 58 -57q44 0 58 57q2 8 2 23q0 13 -2 22q-13 57 -58 57q-23 0 -38.5 -16t-19.5 -41q0 -3 -0.5 -11t-0.5 -12zM183 84q1 7 1 31t-1 30q-5 29 -20 46.5t-38 17.5t-39.5 -18t-18.5 -46v-61q2 -28 18.5 -45t39.5 -17q24 0 39 17 t19 45z" />
<glyph horiz-adv-x="242" d="M199 355q8 -27 8 -64v-196q0 -46 -25 -74t-66 -28q-37 0 -61 28t-24 74v2q0 10 10 10h12q10 0 10 -6v-6q0 -32 15.5 -52.5t37.5 -20.5q26 0 42.5 20.5t16.5 52.5v89q0 7 -5 2q-20 -29 -58 -29q-61 0 -78 64q-10 30 -10 69q0 40 9 69q18 64 82 64q66 0 84 -68zM116 184 q38 0 52 44q7 30 7 61q0 32 -6 56q-12 48 -53 48q-39 0 -52 -43q-7 -30 -7 -61q0 -37 8 -64q15 -41 51 -41z" />
<glyph horiz-adv-x="264" d="M132 276q-44 0 -71 28.5t-27 75.5v224q0 47 27 75.5t71 28.5t71 -28.5t27 -75.5v-224q0 -47 -27 -75.5t-71 -28.5zM132 305q30 0 48 20t18 54v227q0 33 -18 53t-48 20t-48 -20t-18 -53v-227q0 -34 18 -54t48 -20z" />
<glyph horiz-adv-x="140" d="M65 697q5 3 13 3h16q10 0 10 -10v-400q0 -10 -10 -10h-13q-10 0 -10 10v371q0 5 -5 3l-22 -9q-12 -5 -12 8v6q0 7 7 12z" />
<glyph horiz-adv-x="235" d="M35 283q-10 0 -10 10v11q0 7 3 13q75 123 104 173q39 69 39 115q0 34 -16 54t-42 20q-25 0 -40 -20t-15 -53v-19q0 -10 -10 -10h-13q-10 0 -10 10v20q0 46 24.5 73.5t64.5 27.5q41 0 65.5 -27.5t24.5 -76.5q0 -53 -40 -127q-4 -7 -93 -161q-3 -5 3 -5h133q10 0 10 -10v-8 q0 -10 -10 -10h-172z" />
<glyph horiz-adv-x="255" d="M204 466q7 -32 7 -63q0 -40 -11 -70q-20 -61 -84 -61q-36 0 -60 23.5t-30 61.5q-3 18 -3 35q0 10 10 10h12q10 0 10 -10q0 -11 2 -27q12 -63 59 -63q39 0 54 41q10 28 10 63q0 30 -6 56q-14 51 -58 51q-6 0 -9 -1q-9 -2 -14 3l-5 6q-5 6 -1 13l81 130q2 5 -3 5h-130 q-10 0 -10 10v8q0 10 10 10h163q10 0 10 -10v-11q0 -5 -4 -13l-74 -120q-2 -5 2 -5q54 -5 72 -72z" />
<glyph horiz-adv-x="230" d="M205 427q10 0 10 -10v-10q0 -10 -10 -10h-13q-4 0 -4 -4v-103q0 -10 -10 -10h-11q-10 0 -10 10v103q0 4 -4 4h-128q-10 0 -10 10v10q0 4 2 12l90 263q3 8 12 8h14q11 0 8 -11l-88 -257q-3 -5 3 -5h97q4 0 4 4v92q0 10 10 10h11q10 0 10 -10v-92q0 -4 4 -4h13z" />
<glyph horiz-adv-x="228" d="M196 472q8 -24 8 -67q0 -40 -6 -59q-17 -74 -85 -74q-75 0 -88 81q0 2 -3 30q0 10 10 10h12q10 0 10 -10l3 -25q11 -56 56 -56q41 0 53 48q7 21 7 55q0 35 -7 55q-12 47 -53 47q-45 0 -56 -43q-3 -9 -11 -9h-14q-10 0 -10 10v222q0 10 10 10h152q10 0 10 -10v-8 q0 -10 -10 -10h-125q-4 0 -4 -4l-1 -150q0 -6 5 -1q20 22 61 22q59 0 76 -64z" />
<glyph horiz-adv-x="242" d="M208 477q10 -30 10 -69q0 -40 -9 -69q-18 -64 -82 -64q-66 0 -84 68q-8 27 -8 64v196q0 46 25 74t66 28q37 0 61 -28t24 -74v-2q0 -10 -10 -10h-12q-10 0 -10 6v6q0 32 -15.5 52.5t-37.5 20.5q-26 0 -42.5 -20.5t-16.5 -52.5v-89q0 -7 5 -2q20 29 58 29q61 0 78 -64z M178 348q7 30 7 61q0 37 -8 64q-15 41 -51 41q-38 0 -52 -44q-7 -30 -7 -61q0 -32 6 -56q12 -48 53 -48q39 0 52 43z" />
<glyph horiz-adv-x="209" d="M71 280q-12 0 -9 11l101 377q2 4 -4 4h-116q-4 0 -4 -4v-34q0 -10 -10 -10h-8q-10 0 -10 10v56q0 10 10 10h167q10 0 10 -10v-12q0 -2 -2 -12l-101 -377q-2 -9 -11 -9h-13z" />
<glyph horiz-adv-x="251" d="M171 506q-5 -2 0 -5q32 -19 42 -62q4 -24 4 -43q0 -24 -4 -43q-8 -35 -31.5 -56.5t-56.5 -21.5q-32 0 -54 21t-31 57q-5 17 -5 43q0 29 4 44q11 43 41 61q5 3 0 5q-33 19 -41 59q-5 17 -5 35q0 20 5 35q19 71 86 71q33 0 56.5 -19t31.5 -52q4 -17 4 -36q0 -17 -4 -34 q-10 -40 -42 -59zM66 597q0 -13 1 -22q13 -57 58 -57q44 0 58 57q2 8 2 23q0 13 -2 22q-13 57 -58 57q-23 0 -38.5 -16t-19.5 -41q0 -4 -0.5 -12t-0.5 -11zM183 367q1 7 1 31t-1 30q-5 29 -20 46.5t-38 17.5t-39.5 -18t-18.5 -46v-61q2 -28 18.5 -45t39.5 -17q24 0 39 17 t19 45z" />
<glyph horiz-adv-x="242" d="M199 638q8 -27 8 -64v-196q0 -46 -25 -74t-66 -28q-37 0 -61 28t-24 74v2q0 10 10 10h12q10 0 10 -6v-6q0 -32 15.5 -52.5t37.5 -20.5q26 0 42.5 20.5t16.5 52.5v89q0 7 -5 2q-20 -29 -58 -29q-61 0 -78 64q-10 30 -10 69q0 41 9 69q18 64 82 64q66 0 84 -68zM116 467 q38 0 52 44q7 30 7 61q0 32 -6 56q-12 48 -53 48q-39 0 -52 -43q-7 -30 -7 -61q0 -37 8 -64q15 -41 51 -41z" />
<glyph horiz-adv-x="854" d="M427 708q154 0 258.5 -104t104.5 -256q0 -149 -104.5 -252.5t-258.5 -103.5t-258 103.5t-104 252.5q0 152 104 256t258 104zM427 21q140 0 235.5 95t95.5 232q0 139 -95.5 235t-235.5 96q-141 0 -236.5 -96t-95.5 -235q0 -137 95.5 -232t236.5 -95zM430 510 q42 0 65.5 -28t23.5 -78v-205q0 -10 -10 -10h-11q-10 0 -10 10v12q0 7 -5 2q-26 -29 -70 -29q-80 0 -80 87q0 50 26.5 76t75.5 26h49q4 0 4 4v28q0 37 -15.5 57t-43.5 20q-23 0 -39.5 -14t-18.5 -35q-1 -9 -10 -9l-12 1q-10 0 -10 10q4 33 29 54t62 21zM419 210 q31 0 50 19.5t19 50.5v62q0 4 -4 4h-47q-35 0 -54 -19.5t-19 -54.5q0 -62 55 -62z" />
<glyph d="M-84 -179q-49 0 -78 37q-6 8 2 14l3 3q8 6 14 -2q23 -26 57 -25q23 0 38.5 12.5t16.5 34.5q1 21 -11.5 35.5t-34.5 14.5q-23 0 -46 -15q-8 -6 -14 0l-7 7q-6 6 -3 14l24 53q3 8 13 5l3 -1q8 -4 5 -13l-12 -30q-1 -3 0 -3.5t4 0.5q19 12 44 9q31 -1 49 -23.5t16 -52.5 q-1 -34 -25 -54t-58 -20z" />
<glyph horiz-adv-x="169" d="M85 -179q-49 0 -77 36q-6 8 2 14l3 2q8 6 14 -1q21 -26 56 -24q23 0 38.5 12.5t16.5 34.5q1 21 -11.5 35.5t-34.5 14.5q-23 0 -46 -15q-8 -6 -14 0l-7 7q-6 6 -3 14l24 53q3 8 13 5l3 -1q8 -4 5 -13l-12 -30q-1 -3 0 -3.5t4 0.5q19 12 44 9q31 -1 49 -23.5t16 -52.5 q-1 -34 -25 -54t-58 -20z" />
<glyph />
</font>
</defs>
</svg>
