<?xml version="1.0" standalone="no"?>
<!DOCTYPE svg PUBLIC "-//W3C//DTD SVG 1.1//EN" "http://www.w3.org/Graphics/SVG/1.1/DTD/svg11.dtd" >
<svg xmlns="http://www.w3.org/2000/svg" xmlns:xlink="http://www.w3.org/1999/xlink" version="1.1">
<metadata></metadata>
<defs>
<font id="barlow_condensedblack" horiz-adv-x="0" >
<font-face units-per-em="1000" ascent="800" descent="-200" />
<missing-glyph horiz-adv-x="200" />
<glyph unicode="IJ" horiz-adv-x="710" d="M41 0q-15 0 -15 15v670q0 15 15 15h158q15 0 15 -15v-670q0 -15 -15 -15h-158zM465 -8q-98 0 -157.5 55t-59.5 145v58q0 15 15 15h158q15 0 15 -15v-60q0 -16 8 -26.5t21 -10.5q14 0 22.5 10.5t8.5 26.5v495q0 15 15 15h158q15 0 15 -15v-493q0 -90 -60.5 -145 t-158.5 -55z" />
<glyph unicode="ffi" horiz-adv-x="821" d="M699 542q-47 0 -75.5 29t-28.5 76t28.5 76t75.5 29t75.5 -29t28.5 -76t-28.5 -76t-75.5 -29zM507 539v-13q0 -6 6 -6h37q15 0 15 -15v-100q0 -15 -15 -15h-37q-6 0 -6 -6v-369q0 -15 -15 -15h-158q-15 0 -15 15v369q0 6 -6 6h-66q-6 0 -6 -6v-369q0 -15 -15 -15h-158 q-15 0 -15 15v369q0 6 -6 6h-20q-15 0 -15 15v100q0 15 15 15h20q6 0 6 6v30q0 90 55 120t170 24q7 0 7 -15v-95q0 -15 -3 -15h-4q-37 -5 -37 -36v-13q0 -6 6 -6h66q6 0 6 6v30q0 90 55 120t170 24q7 0 7 -15v-95q0 -15 -3 -15h-4q-37 -5 -37 -36zM620 0q-15 0 -15 15v490 q0 15 15 15h158q15 0 15 -15v-490q0 -15 -15 -15h-158z" />
<glyph unicode="ffl" horiz-adv-x="812" d="M514 539v-13q0 -6 6 -6h37q15 0 15 -15v-100q0 -15 -15 -15h-37q-6 0 -6 -6v-369q0 -15 -15 -15h-158q-15 0 -15 15v369q0 6 -6 6h-73q-6 0 -6 -6v-369q0 -15 -15 -15h-158q-15 0 -15 15v369q0 6 -6 6h-20q-15 0 -15 15v100q0 15 15 15h20q6 0 6 6v30q0 90 55 120t170 24 q7 0 7 -15v-95q0 -15 -3 -15h-4q-37 -5 -37 -36v-13q0 -6 6 -6h73q6 0 6 6v30q0 90 55 120t170 24q7 0 7 -15v-95q0 -15 -3 -15h-4q-37 -5 -37 -36zM604 685q0 15 15 15h158q15 0 15 -15v-670q0 -15 -15 -15h-158q-15 0 -15 15v670z" />
<glyph unicode="fi" horiz-adv-x="555" d="M433 540q-47 0 -75.5 29t-28.5 76t28.5 76t75.5 29t75.5 -29t28.5 -76t-28.5 -76t-75.5 -29zM241 539v-13q0 -6 6 -6h37q15 0 15 -15v-100q0 -15 -15 -15h-37q-6 0 -6 -6v-369q0 -15 -15 -15h-158q-15 0 -15 15v369q0 6 -6 6h-20q-15 0 -15 15v100q0 15 15 15h20q6 0 6 6 v30q0 90 55 120t170 24q7 0 7 -15v-95q0 -15 -3 -15h-4q-37 -5 -37 -36zM354 0q-15 0 -15 15v490q0 15 15 15h158q15 0 15 -15v-490q0 -15 -15 -15h-158z" />
<glyph unicode="fl" horiz-adv-x="539" d="M241 539v-13q0 -6 6 -6h37q15 0 15 -15v-100q0 -15 -15 -15h-37q-6 0 -6 -6v-369q0 -15 -15 -15h-158q-15 0 -15 15v369q0 6 -6 6h-20q-15 0 -15 15v100q0 15 15 15h20q6 0 6 6v30q0 90 55 120t170 24q7 0 7 -15v-95q0 -15 -3 -15h-4q-37 -5 -37 -36zM331 685q0 15 15 15 h158q15 0 15 -15v-670q0 -15 -15 -15h-158q-15 0 -15 15v670z" />
<glyph unicode="gj" horiz-adv-x="692" d="M576 542q-46 0 -75 30.5t-29 74.5q0 43 31.5 74t72.5 31q40 0 72 -31t32 -74q0 -44 -29.5 -74.5t-74.5 -30.5zM423 520q15 0 15 -15v-471q0 -48 -7.5 -84t-28.5 -70t-56 -54.5t-94 -30t-139 -3.5q-15 0 -15 15v133q0 16 16 14q70 -4 98.5 11t35.5 49q0 3 -6.5 5t-9.5 0 q-28 -27 -77 -27q-137 0 -137 178v180q0 178 137 178q58 0 88 -44q5 -6 7 1v20q0 15 15 15h158zM482 29v476q0 15 15 15h158q15 0 15 -15v-476q0 -42 -2 -68.5t-9.5 -56.5t-22.5 -47t-39.5 -32t-63 -21t-91.5 -5q-16 0 -14 16l16 130q1 13 14 13q5 0 8.5 1t6 3.5t4 4.5 t3 6.5t2 8t0.5 10v11v13v13.5zM227 153q23 0 23 32v150q0 32 -23 32q-21 0 -21 -32v-150q0 -32 21 -32z" />
<glyph unicode="ij" horiz-adv-x="466" d="M350 542q-46 0 -75 30.5t-29 74.5q0 43 31.5 74t72.5 31q40 0 72 -31t32 -74q0 -44 -29.5 -74.5t-74.5 -30.5zM122 540q-47 0 -75.5 29t-28.5 76t28.5 76t75.5 29t75.5 -29t28.5 -76t-28.5 -76t-75.5 -29zM43 0q-15 0 -15 15v490q0 15 15 15h158q15 0 15 -15v-490 q0 -15 -15 -15h-158zM176 -201q-16 0 -16 15v129q0 15 16 15q47 -2 63.5 15.5t16.5 55.5v476q0 15 15 15h158q15 0 15 -15v-476q0 -39 -1 -60t-6 -50t-15.5 -44.5t-29.5 -33t-47.5 -25.5t-70.5 -13t-98 -4z" />
<glyph unicode="&#x2d;&#x2d;" horiz-adv-x="593" d="M33 206q-15 0 -15 15v130q0 15 15 15h527q15 0 15 -15v-130q0 -15 -15 -15h-527z" />
<glyph unicode="&#xd;" horiz-adv-x="200" />
<glyph unicode=" "  horiz-adv-x="200" />
<glyph unicode="&#x09;" horiz-adv-x="200" />
<glyph unicode="&#xa0;" horiz-adv-x="200" />
<glyph unicode="!" horiz-adv-x="302" d="M92 248q-16 0 -16 15l-18 422q0 15 14 15h158q14 0 14 -15l-18 -422q0 -15 -16 -15h-118zM150 0q-46 0 -75.5 30.5t-29.5 74.5q0 43 32 73.5t73 30.5t73 -30.5t32 -73.5q0 -44 -29.5 -74.5t-75.5 -30.5z" />
<glyph unicode="&#x22;" horiz-adv-x="420" d="M42 460q-14 0 -15 14l-18 210q-2 16 15 16h146q17 0 15 -16l-18 -210q-1 -14 -15 -14h-110zM268 460q-14 0 -15 14l-18 210q-2 16 15 16h146q17 0 15 -16l-18 -210q-1 -14 -15 -14h-110z" />
<glyph unicode="#" horiz-adv-x="634" d="M614 402q0 -15 -15 -15h-57q-7 0 -7 -6l-8 -57q-1 -6 5 -6h31q15 0 15 -15v-130q0 -15 -15 -15h-55q-7 0 -7 -6l-15 -104q-1 -14 -16 -14h-158q-16 0 -14 16l15 102q1 6 -5 6h-40q-7 0 -7 -6l-15 -104q-1 -14 -16 -14h-158q-16 0 -14 16l15 102q1 6 -5 6h-33 q-15 0 -15 15v130q0 15 15 15h57q7 0 7 6l8 57q1 6 -5 6h-31q-15 0 -15 15v131q0 15 15 15h55q7 0 7 6l15 104q1 14 16 14h158q16 0 14 -16l-15 -102q-1 -6 5 -6h40q7 0 7 6l15 104q1 14 16 14h158q16 0 14 -16l-15 -102q-1 -6 5 -6h33q15 0 15 -15v-131zM332 318q7 0 7 6 l8 57q1 6 -5 6h-40q-7 0 -7 -6l-8 -57q-1 -6 5 -6h40z" />
<glyph unicode="$" horiz-adv-x="463" d="M449 191q0 -78 -43 -129t-117 -65q-6 -1 -6 -7l2 -43q0 -15 -15 -15h-89q-15 0 -15 15l2 48q0 4 -5 6q-65 18 -103 66t-38 113v34q0 15 15 15h156q15 0 15 -15v-25q0 -16 8 -26t20 -10t20 9t8 23q0 17 -16 33.5t-67 52.5q-37 26 -57.5 42.5t-49 47.5t-42.5 67.5t-14 80.5 q0 72 39.5 123t107.5 68q5 2 5 6l-2 57q0 15 15 15h87q15 0 15 -15l-2 -54q0 -5 5 -7q72 -15 114.5 -66.5t42.5 -126.5v-22q0 -15 -15 -15h-155q-15 0 -15 15v26q0 15 -8 24.5t-21 9.5t-20.5 -10t-7.5 -27q0 -20 16 -38.5t64 -53.5q93 -68 129.5 -112t36.5 -115z" />
<glyph unicode="%" horiz-adv-x="756" d="M192 371q-69 0 -117.5 49.5t-48.5 119.5t48.5 119t117.5 49q68 0 116.5 -49t48.5 -119q0 -71 -48 -120t-117 -49zM141 0q-8 0 -11 5t1 13l361 671q6 11 18 11h100q8 0 11 -5t-1 -13l-361 -671q-5 -11 -18 -11h-100zM192 465q29 0 49 21.5t20 53.5q0 31 -20 52.5t-49 21.5 t-49.5 -21.5t-20.5 -52.5t20.5 -53t49.5 -22zM565 -8q-69 0 -117.5 49.5t-48.5 119.5t48.5 119t117.5 49q68 0 116.5 -49t48.5 -119q0 -71 -48 -120t-117 -49zM565 86q29 0 49 21.5t20 53.5q0 31 -20 52.5t-49 21.5t-49.5 -21.5t-20.5 -52.5t20.5 -53t49.5 -22z" />
<glyph unicode="&#x26;" horiz-adv-x="643" d="M614 18q6 -8 3 -13t-12 -5h-171q-10 0 -18 9q-2 3 -7 8t-7 8q-3 3 -9 2q-73 -37 -162 -37q-99 0 -156 47t-57 139q0 112 94 181q5 5 1 9q-39 52 -51.5 80.5t-12.5 64.5q0 89 58 143t152 54q97 0 160 -56.5t63 -146.5q0 -108 -108 -184q-4 -4 -3 -7l3 -3l36 -44q4 -6 8 0 q31 40 44 69q6 15 20 7l116 -66q12 -8 7 -20q-37 -72 -79 -123q-3 -4 0 -8zM265 538q-13 0 -20.5 -9.5t-7.5 -24.5q0 -22 21 -50q5 -5 9 -1q27 24 27 50q0 16 -8.5 25.5t-20.5 9.5zM261 150q5 1 20 5q7 2 2 8q-1 1 -3 3.5t-3 3.5q-32 38 -47 54q-5 5 -8 1q-15 -15 -15 -32 t13.5 -31.5t40.5 -11.5z" />
<glyph unicode="'" horiz-adv-x="204" d="M41 460q-14 0 -15 14l-17 210q-2 16 15 16h156q17 0 15 -16l-19 -210q-1 -14 -15 -14h-120z" />
<glyph unicode="(" horiz-adv-x="371" d="M146 -83q-10 0 -18 9q-125 170 -125 411q0 242 125 410q8 9 18 9h155q19 0 11 -17q-29 -59 -47 -105t-35 -128t-17 -169t17.5 -169.5t35 -127.5t46.5 -106q8 -17 -11 -17h-155z" />
<glyph unicode=")" horiz-adv-x="371" d="M243 -74q-8 -9 -18 -9h-155q-8 0 -11.5 4.5t0.5 12.5q29 61 46.5 106t35 127.5t17.5 169.5t-17 169t-35 128t-47 105q-4 7 -0.5 12t11.5 5h155q10 0 18 -9q125 -168 125 -410q0 -241 -125 -411z" />
<glyph unicode="*" horiz-adv-x="362" d="M145 397q-15 0 -15 15l1 56q0 8 -7 4l-51 -29q-12 -8 -20 6l-38 66q-7 12 6 20l58 32q7 4 0 8l-58 30q-13 6 -6 20l38 69q8 13 20 6l51 -31q3 -2 5 0t2 5l-1 56q0 15 15 15h73q15 0 15 -15l-1 -56q0 -8 7 -5l50 31q12 7 20 -6l38 -69q8 -13 -6 -20l-56 -30q-7 -4 0 -8 l56 -32q12 -8 6 -20l-38 -69q-9 -14 -20 -6l-50 31q-7 3 -7 -4l1 -55q0 -15 -15 -15h-73z" />
<glyph unicode="+" horiz-adv-x="436" d="M403 376q15 0 15 -15v-110q0 -15 -15 -15h-109q-6 0 -6 -6v-109q0 -15 -15 -15h-110q-15 0 -15 15v109q0 6 -6 6h-109q-15 0 -15 15v110q0 15 15 15h109q6 0 6 6v109q0 15 15 15h110q15 0 15 -15v-109q0 -6 6 -6h109z" />
<glyph unicode="," horiz-adv-x="233" d="M39 -111q-15 0 -14 15l15 241q2 15 16 15h136q16 0 13 -17l-56 -241q-3 -13 -16 -13h-94z" />
<glyph unicode="-" horiz-adv-x="343" d="M33 205q-15 0 -15 15v130q0 15 15 15h277q15 0 15 -15v-130q0 -15 -15 -15h-277z" />
<glyph unicode="." horiz-adv-x="308" d="M149 -8q-46 0 -75.5 30.5t-29.5 74.5q0 43 32 73.5t73 30.5t73 -30.5t32 -73.5q0 -44 -29.5 -74.5t-75.5 -30.5z" />
<glyph unicode="/" horiz-adv-x="458" d="M26 0q-18 0 -12 17l244 671q4 12 17 12h157q18 0 12 -17l-244 -671q-4 -12 -17 -12h-157z" />
<glyph unicode="0" horiz-adv-x="459" d="M229 -12q-96 0 -154.5 60t-58.5 158v288q0 98 58.5 158t154.5 60q97 0 155.5 -60t58.5 -158v-288q0 -98 -58.5 -158t-155.5 -60zM229 149q26 0 26 46v310q0 46 -26 46q-25 0 -25 -46v-310q0 -46 25 -46z" />
<glyph unicode="1" horiz-adv-x="293" d="M76 697q9 3 18 3h164q15 0 15 -15v-670q0 -15 -15 -15h-158q-15 0 -15 15v508q0 6 -6 6h-56q-15 0 -15 15v116q0 12 12 17z" />
<glyph unicode="2" horiz-adv-x="463" d="M33 0q-15 0 -15 15v135q0 11 7 19q19 22 65 72.5t73 82.5t47 61q47 68 47 120q0 42 -26 42q-12 0 -19.5 -9.5t-7.5 -25.5v-42q0 -15 -15 -15h-160q-15 0 -15 15v50q6 85 68.5 136.5t157.5 51.5q93 0 150 -56t57 -148q0 -56 -16 -99.5t-53 -92.5q-26 -35 -128 -144 q-7 -7 3 -7h185q15 0 15 -15v-131q0 -15 -15 -15h-405z" />
<glyph unicode="3" horiz-adv-x="454" d="M422 700q15 0 15 -15v-134q0 -11 -7 -19l-103 -108q-7 -7 3 -7q46 -4 76.5 -44.5t30.5 -96.5v-104q0 -80 -58 -130t-149 -50q-95 0 -155.5 50.5t-60.5 129.5v45q0 15 15 15h158q15 0 15 -15v-27q0 -17 7.5 -27t20.5 -10t21 10.5t8 26.5v113q0 16 -8 26.5t-21 10.5 q-16 0 -35 -17q-11 -10 -21 0l-80 83q-10 12 1 21l110 106q3 2 2 4.5t-5 2.5h-157q-15 0 -15 15v130q0 15 15 15h377z" />
<glyph unicode="4" horiz-adv-x="530" d="M507 337q15 0 15 -15v-140q0 -15 -15 -15h-30q-6 0 -6 -6v-146q0 -15 -15 -15h-158q-15 0 -15 15v146q0 6 -6 6h-254q-15 0 -15 15v111q0 9 3 18l121 377q4 12 17 12h169q18 0 13 -17l-103 -339q-1 -7 5 -7h44q6 0 6 6v68q0 15 15 15h158q15 0 15 -15v-68q0 -6 6 -6h30z " />
<glyph unicode="5" horiz-adv-x="459" d="M291 444q71 0 112.5 -49.5t41.5 -134.5v-89q0 -84 -58 -131.5t-156 -47.5q-90 0 -145.5 43t-65.5 129q-1 4 -1.5 12.5t-0.5 12.5q0 15 15 15h158q15 0 16 -12q0 -9 1 -12q4 -28 23 -28q26 0 26 32v66q0 32 -26 32q-16 0 -23 -12q-6 -13 -16 -13h-160q-15 0 -15 15v413 q0 15 15 15h396q15 0 15 -15v-131q0 -15 -15 -15h-217q-6 0 -6 -6v-114q0 -9 7 -4q34 29 79 29z" />
<glyph unicode="6" horiz-adv-x="460" d="M292 444q71 0 112.5 -49.5t41.5 -134.5v-89q0 -84 -58 -131.5t-156 -47.5q-91 0 -147.5 43t-63.5 129q-2 24 -2 40l-2 320q-1 85 57.5 134.5t154.5 49.5q93 0 150.5 -50t57.5 -134v-39q0 -15 -15 -15h-158q-15 0 -15 15v26q0 14 -6.5 23t-13.5 9q-23 0 -23 -32v-92 q0 -9 7 -4q34 29 79 29zM255 280q0 14 -6.5 23t-17.5 9t-18 -9t-7 -23v-96q0 -14 7 -23t18 -9t17.5 9t6.5 23v96z" />
<glyph unicode="7" horiz-adv-x="435" d="M84 0q-18 0 -13 17l158 515q1 7 -5 7h-61q-6 0 -6 -6v-28q0 -15 -15 -15h-121q-15 0 -15 15l1 180q0 15 15 15h392q15 0 15 -15v-137q0 -9 -3 -18l-160 -518q-3 -12 -17 -12h-165z" />
<glyph unicode="8" horiz-adv-x="452" d="M370 365q-5 -3 0 -8q32 -20 49 -59q17 -42 17 -91q0 -47 -17 -90q-23 -57 -74.5 -91t-118.5 -34q-68 0 -119.5 33.5t-74.5 91.5q-16 41 -16 90q0 52 16 91q15 36 48 58q6 5 1 8q-33 25 -49 63q-16 39 -16 86q0 49 16 87q23 53 75 84t119 31q66 0 118 -29.5t75 -85.5 q17 -40 17 -87q0 -45 -17 -86q-15 -36 -49 -62zM201 469q0 -40 25 -40t25 40v46q0 17 -7 28t-18 11t-18 -11t-7 -28v-46zM251 248q0 40 -25 40t-25 -40v-56q0 -17 7 -28t18 -11t18 11t7 28v56z" />
<glyph unicode="9" horiz-adv-x="456" d="M439 176q1 -85 -57.5 -134.5t-154.5 -49.5q-93 0 -150.5 50t-57.5 134v39q0 15 15 15h158q15 0 15 -15v-26q0 -14 6.5 -23t13.5 -9q23 0 23 32v92q0 9 -7 4q-35 -29 -79 -29q-71 0 -112.5 49.5t-41.5 134.5v89q0 84 58 131.5t156 47.5q91 0 147.5 -43t63.5 -129 q2 -24 2 -40zM225 388q11 0 18 9t7 23v96q0 14 -7 23t-18 9t-17.5 -9t-6.5 -23v-96q0 -14 6.5 -23t17.5 -9z" />
<glyph unicode=":" horiz-adv-x="318" d="M161 321q-46 0 -75.5 30.5t-29.5 74.5q0 43 32 73.5t73 30.5t73 -30.5t32 -73.5q0 -44 -29.5 -74.5t-75.5 -30.5zM161 0q-46 0 -75.5 30.5t-29.5 74.5q0 43 32 73.5t73 30.5t73 -30.5t32 -73.5q0 -44 -29.5 -74.5t-75.5 -30.5z" />
<glyph unicode=";" horiz-adv-x="258" d="M129 291q-46 0 -75.5 30.5t-29.5 74.5q0 43 32 73.5t73 30.5t73 -30.5t32 -73.5q0 -44 -29.5 -74.5t-75.5 -30.5zM47 -111q-15 0 -14 15l15 241q2 15 16 15h136q16 0 13 -17l-56 -241q-3 -13 -16 -13h-94z" />
<glyph unicode="&#x3c;" horiz-adv-x="436" d="M418 61q0 -8 -5 -11.5t-13 0.5l-371 162q-11 6 -11 17v136q0 11 11 17l371 162q8 4 13 0.5t5 -11.5v-146q0 -13 -12 -17l-198 -69q-10 -4 0 -8l198 -69q12 -5 12 -17v-146z" />
<glyph unicode="=" horiz-adv-x="436" d="M33 320q-15 0 -15 15v110q0 15 15 15h370q15 0 15 -15v-110q0 -15 -15 -15h-370zM33 150q-15 0 -15 15v110q0 15 15 15h370q15 0 15 -15v-110q0 -15 -15 -15h-370z" />
<glyph unicode="&#x3e;" horiz-adv-x="436" d="M36 50q-8 -4 -13 -0.5t-5 11.5v146q0 12 12 17l198 69q10 4 0 8l-198 69q-12 4 -12 17v146q0 8 5 11.5t13 -0.5l371 -162q11 -6 11 -17v-136q0 -11 -11 -17z" />
<glyph unicode="?" horiz-adv-x="483" d="M150 236q-15 0 -15 14v14q0 40 15 72t37 51t44 35t37 33.5t15 38.5t-10.5 33t-28.5 12q-22 0 -34 -14t-12 -37v-4q0 -14 -15 -14l-158 7q-15 0 -15 6v5q0 99 66 160.5t173 61.5q102 0 163 -57t61 -150q0 -46 -15.5 -80.5t-38 -54.5t-45 -37t-38 -36t-15.5 -43v-1 q0 -15 -15 -15h-156zM235 -5q-40 0 -67.5 28t-27.5 67q0 40 28.5 68.5t67.5 28.5t67.5 -28.5t28.5 -67.5q0 -40 -28.5 -68t-68.5 -28z" />
<glyph unicode="@" horiz-adv-x="760" d="M429 681q149 0 239 -98.5t71 -249.5q-13 -103 -69.5 -160t-140.5 -57q-71 0 -109 40q-5 5 -9 -1q-26 -37 -83 -37q-44 0 -71.5 23.5t-34.5 49t-6 50.5q1 12 3.5 37.5t2.5 31.5q3 34 7 52q12 69 40.5 96.5t81.5 27.5q32 0 49 -22q5 -7 7 -4v5q1 14 16 14h94q16 0 14 -16 l-22 -152q-5 -40 6.5 -58t31.5 -18q25 0 40.5 29.5t20.5 72.5q12 102 -42.5 165t-147.5 63q-101 0 -176.5 -75.5t-90.5 -192.5q-8 -63 6.5 -112.5t44.5 -77t64 -41.5t69 -14q49 0 101 36q12 9 21 -5l42 -74q7 -14 -5 -21q-87 -54 -181 -54q-138 0 -224.5 101.5t-66.5 265.5 q20 166 136.5 273t270.5 107zM355 217q19 0 22 25q1 6 3 27t4 33l7 53q3 24 -16 24q-20 0 -23 -24l-8 -60l-7 -53q-2 -25 18 -25z" />
<glyph unicode="A" horiz-adv-x="531" d="M341 0q-15 0 -16 14l-9 75q0 6 -7 6h-88q-5 0 -7 -5l-12 -76q-2 -14 -16 -14h-157q-16 0 -13 16l142 671q3 13 17 13h182q14 0 17 -13l142 -671q3 -16 -14 -16h-161zM239 245q-1 -6 6 -6h45q5 0 5 6l-22 170q-1 8 -5 4l-2 -4z" />
<glyph unicode="B" horiz-adv-x="484" d="M468 201q1 -97 -60 -149t-156 -52h-211q-15 0 -15 15v670q0 15 15 15h181q109 0 170.5 -49t61.5 -148q0 -92 -57 -137q-5 -4 -2 -7q72 -55 73 -158zM220 539q-6 0 -6 -6v-100q0 -6 6 -6h5q45 0 45 56t-45 56h-5zM237 161q19 0 31 16.5t12 47.5t-11.5 49.5t-30.5 18.5h-18 q-6 0 -6 -6v-120q0 -6 6 -6h17z" />
<glyph unicode="C" horiz-adv-x="476" d="M239 -8q-99 0 -159 58t-60 155v292q0 97 59.5 154t159.5 57q99 0 159 -57t60 -154v-5q0 -16 -15 -16l-158 -5q-15 0 -15 14v25q0 17 -8.5 27t-22.5 10t-22.5 -10t-8.5 -27v-321q0 -36 31 -36t31 36v27q0 14 15 14l158 -5q15 0 15 -10v-10q0 -97 -60 -155t-159 -58z" />
<glyph unicode="D" horiz-adv-x="483" d="M41 0q-15 0 -15 15v670q0 15 15 15h197q100 0 161.5 -55t61.5 -145v-300q0 -90 -61.5 -145t-161.5 -55h-197zM214 167q0 -6 6 -6l14 1q16 1 27 15t12 36v275q0 23 -11 37t-29 14h-13q-6 0 -6 -6v-366z" />
<glyph unicode="E" horiz-adv-x="444" d="M426 554q0 -15 -15 -15h-191q-6 0 -6 -6v-96q0 -6 6 -6h99q15 0 15 -15v-131q0 -15 -15 -15h-99q-6 0 -6 -6v-97q0 -6 6 -6h191q15 0 15 -15v-131q0 -15 -15 -15h-370q-15 0 -15 15v670q0 15 15 15h370q15 0 15 -15v-131z" />
<glyph unicode="F" horiz-adv-x="432" d="M426 554q0 -15 -15 -15h-191q-6 0 -6 -6v-96q0 -6 6 -6h99q15 0 15 -15v-131q0 -15 -15 -15h-99q-6 0 -6 -6v-249q0 -15 -15 -15h-158q-15 0 -15 15v670q0 15 15 15h370q15 0 15 -15v-131z" />
<glyph unicode="G" horiz-adv-x="476" d="M239 -8q-99 0 -159 55.5t-60 148.5v309q0 93 60 148t159 55t159 -56t60 -149v-33q0 -15 -15 -15h-158q-15 0 -15 15v35q0 19 -8.5 30.5t-22.5 11.5t-22.5 -11.5t-8.5 -30.5v-310q0 -19 8.5 -30.5t22.5 -11.5t22.5 11.5t8.5 30.5v49q0 6 -6 6h-8q-15 0 -15 15v115 q0 15 15 15h187q15 0 15 -15v-184q0 -93 -60 -148.5t-159 -55.5z" />
<glyph unicode="H" horiz-adv-x="486" d="M272 685q0 15 15 15h158q15 0 15 -15v-670q0 -15 -15 -15h-158q-15 0 -15 15v249q0 6 -6 6h-46q-6 0 -6 -6v-249q0 -15 -15 -15h-158q-15 0 -15 15v670q0 15 15 15h158q15 0 15 -15v-248q0 -6 6 -6h46q6 0 6 6v248z" />
<glyph unicode="I" horiz-adv-x="240" d="M41 0q-15 0 -15 15v670q0 15 15 15h158q15 0 15 -15v-670q0 -15 -15 -15h-158z" />
<glyph unicode="J" horiz-adv-x="470" d="M225 -8q-98 0 -157.5 55t-59.5 145v58q0 15 15 15h158q15 0 15 -15v-60q0 -16 8 -26.5t21 -10.5q14 0 22.5 10.5t8.5 26.5v495q0 15 15 15h158q15 0 15 -15v-493q0 -90 -60.5 -145t-158.5 -55z" />
<glyph unicode="K" horiz-adv-x="517" d="M41 0q-15 0 -15 15v670q0 15 15 15h158q15 0 15 -15v-198q0 -4 3 -4.5t4 3.5l84 202q5 12 18 12h165q20 0 12 -18l-141 -295q-1 -4 0 -8l145 -362q6 -17 -12 -17h-166q-14 0 -18 12l-77 205q-1 3 -2.5 4t-3 0t-2.5 -4l-8 -20q-1 -2 -1 -8v-174q0 -15 -15 -15h-158z" />
<glyph unicode="L" horiz-adv-x="446" d="M41 0q-15 0 -15 15v670q0 15 15 15h158q15 0 15 -15v-518q0 -6 6 -6h195q15 0 15 -15v-131q0 -15 -15 -15h-374z" />
<glyph unicode="M" horiz-adv-x="566" d="M36 0q-15 0 -15 15v670q0 15 15 15h156q12 0 18 -11l69 -127q4 -8 8 0l69 127q6 11 18 11h156q15 0 15 -15v-670q0 -15 -15 -15h-158q-15 0 -15 15v407q0 4 -2.5 5t-4.5 -3l-57 -96l-10 -18h-1l-66 116q-2 4 -4.5 3.5t-2.5 -5.5v-409q0 -15 -15 -15h-158z" />
<glyph unicode="N" horiz-adv-x="528" d="M41 0q-15 0 -15 15v670q0 15 15 15h176q13 0 16 -13l77 -305q1 -7 6 -3q1 1 1 3l-1 303q0 15 15 15h156q15 0 15 -15v-670q0 -15 -15 -15h-178q-13 0 -16 13l-76 307q-1 3 -4 2.5t-3 -3.5l2 -304q0 -15 -15 -15h-156z" />
<glyph unicode="O" horiz-adv-x="484" d="M242 -8q-101 0 -161.5 58t-60.5 156v288q0 98 60.5 156t161.5 58t161.5 -58t60.5 -156v-288q0 -98 -60.5 -156t-161.5 -58zM242 153q34 0 34 45v304q0 45 -34 45t-34 -45v-304q0 -45 34 -45z" />
<glyph unicode="P" horiz-adv-x="481" d="M264 700q91 0 148 -62.5t57 -162.5q0 -97 -54 -156t-141 -59h-56q-6 0 -6 -6v-239q0 -15 -15 -15h-158q-15 0 -15 15v670q0 15 15 15h225zM231 405q23 0 36.5 16.5t13.5 49.5t-13.5 50.5t-36.5 17.5h-13q-6 0 -6 -6v-122q0 -6 6 -6h13z" />
<glyph unicode="Q" horiz-adv-x="473" d="M236 708q98 0 157.5 -61t59.5 -162v-270q0 -72 -31 -125t-87 -78q-5 -1 -5 -7v-77q0 -15 -15 -15h-158q-15 0 -15 15v77q0 6 -5 7q-55 26 -86 79t-31 124v270q0 101 59.5 162t156.5 61zM208 505v-310q0 -19 7.5 -30.5t20.5 -11.5q29 0 29 42v310q0 42 -29 42 q-13 0 -20.5 -11.5t-7.5 -30.5z" />
<glyph unicode="R" horiz-adv-x="490" d="M299 0q-13 0 -16 13l-61 251q-2 5 -4 5q-4 0 -4 -6v-248q0 -15 -15 -15h-158q-15 0 -15 15v670q0 15 15 15h225q91 0 148 -62t57 -161q0 -112 -74 -169q-4 -3 -3 -8l81 -283q5 -17 -13 -17h-163zM233 539h-13q-6 0 -6 -6v-115q0 -6 6 -6h13q22 0 36 16.5t14 46.5 q0 31 -13.5 47.5t-36.5 16.5z" />
<glyph unicode="S" horiz-adv-x="463" d="M235 -8q-96 0 -154.5 52.5t-58.5 135.5v34q0 15 15 15h156q15 0 15 -15v-25q0 -16 8 -26t20 -10t20 9t8 23q0 17 -16 33.5t-67 52.5q-37 26 -57.5 42.5t-49 47.5t-42.5 67.5t-14 80.5q0 89 58.5 144t154.5 55q97 0 155.5 -55t58.5 -144v-22q0 -15 -15 -15h-155 q-15 0 -15 15v26q0 15 -8 24.5t-21 9.5t-20.5 -10t-7.5 -27q0 -20 16 -38.5t64 -53.5q93 -68 129.5 -112t36.5 -115q0 -91 -59 -145t-155 -54z" />
<glyph unicode="T" horiz-adv-x="499" d="M466 700q15 0 15 -15v-131q0 -15 -15 -15h-118q-6 0 -6 -6v-518q0 -15 -15 -15h-158q-15 0 -15 15v518q0 6 -6 6h-115q-15 0 -15 15v131q0 15 15 15h433z" />
<glyph unicode="U" horiz-adv-x="481" d="M241 -8q-98 0 -157.5 59t-59.5 157v477q0 15 15 15h158q15 0 15 -15v-495q0 -37 29 -37q13 0 20.5 10t7.5 27v495q0 15 15 15h158q15 0 15 -15v-477q0 -98 -59.5 -157t-156.5 -59z" />
<glyph unicode="V" horiz-adv-x="521" d="M172 0q-14 0 -17 13l-140 671q-3 16 14 16h172q15 0 16 -14l45 -354q0 -3 3 -3t3 3l41 354q1 14 16 14h167q17 0 14 -16l-142 -671q-3 -13 -17 -13h-175z" />
<glyph unicode="W" horiz-adv-x="720" d="M168 0q-14 0 -17 13l-136 671q-3 16 14 16h163q15 0 16 -14l34 -305q0 -2 3 -2.5t3 2.5l37 305q1 14 16 14h122q15 0 16 -14l42 -306q0 -2 3.5 -2.5t3.5 2.5l29 306q1 14 15 14h159q17 0 14 -16l-128 -671q-3 -13 -17 -13h-138q-15 0 -16 14l-42 321q0 3 -3.5 3t-3.5 -3 l-34 -321q-1 -14 -16 -14h-139z" />
<glyph unicode="X" horiz-adv-x="503" d="M31 0q-18 0 -12 17l131 329q2 4 0 8l-131 329q-6 17 12 17h160q14 0 17 -13l40 -137q4 -10 8 0l40 137q3 13 17 13h159q18 0 12 -17l-131 -329q-2 -4 0 -8l131 -329q6 -17 -12 -17h-158q-14 0 -17 13l-41 136q-4 10 -8 0l-41 -136q-3 -13 -17 -13h-159z" />
<glyph unicode="Y" horiz-adv-x="508" d="M174 2q-15 0 -15 15v230q0 6 -1 8l-140 428q-5 17 12 17h166q14 0 17 -13l37 -197q1 -4 4 -4t4 4l37 197q3 13 17 13h166q17 0 12 -17l-142 -428q-1 -2 -1 -8v-230q0 -15 -15 -15h-158z" />
<glyph unicode="Z" horiz-adv-x="424" d="M27 0q-15 0 -15 15v136q0 9 5 19l191 362q3 7 -4 7h-177q-15 0 -15 15v131q0 15 15 15h368q15 0 15 -15v-136q0 -9 -5 -19l-193 -362q-3 -7 4 -7h179q15 0 15 -15v-131q0 -15 -15 -15h-368z" />
<glyph unicode="[" horiz-adv-x="373" d="M45 -164q-15 0 -15 15v952q0 15 15 15h233q15 0 15 -15v-131q0 -15 -15 -15h-54q-6 0 -6 -6v-648q0 -6 6 -6h54q15 0 15 -15v-131q0 -15 -15 -15h-233z" />
<glyph unicode="\" horiz-adv-x="458" d="M444 17q6 -17 -12 -17h-157q-13 0 -17 12l-244 671q-6 17 12 17h157q13 0 17 -12z" />
<glyph unicode="]" horiz-adv-x="373" d="M343 -149q0 -15 -15 -15h-233q-15 0 -15 15v131q0 15 15 15h54q6 0 6 6v648q0 6 -6 6h-54q-15 0 -15 15v131q0 15 15 15h233q15 0 15 -15v-952z" />
<glyph unicode="^" horiz-adv-x="440" d="M36 291q-18 0 -13 17l114 379q3 13 17 13h129q14 0 17 -12l117 -380q5 -17 -13 -17h-125q-14 0 -17 13l-38 177q0 3 -2 4t-4 0t-2 -4l-38 -177q-3 -13 -17 -13h-125z" />
<glyph unicode="_" horiz-adv-x="451" d="M23 0q-15 0 -15 15v110q0 15 15 15h405q15 0 15 -15v-110q0 -15 -15 -15h-405z" />
<glyph unicode="`" horiz-adv-x="266" d="M247 589q10 -18 -10 -18h-119q-10 0 -18 9l-77 94q-6 8 -3 13t12 5h142q12 0 18 -10z" />
<glyph unicode="a" horiz-adv-x="467" d="M232 528q98 0 157.5 -46t59.5 -122v-345q0 -15 -15 -15h-158q-15 0 -15 15v21q0 9 -7 2q-32 -45 -101 -46q-26 0 -47 5t-44 19.5t-36.5 49t-13.5 85.5q0 43 10.5 72.5t26.5 46t45 25.5t56.5 11.5t70.5 2.5h34q6 0 6 6v22q0 13 -8 21.5t-21 8.5q-17 0 -24 -18 q-5 -14 -16 -14l-160 2q-15 0 -15 14q5 83 63.5 130t151.5 47zM229 127q12 0 22 7.5t10 19.5v27q0 6 -6 6h-20q-14 0 -22.5 -9.5t-8.5 -22.5q0 -28 25 -28z" />
<glyph unicode="b" horiz-adv-x="460" d="M305 528q137 0 137 -178v-180q0 -178 -137 -178q-58 0 -88 44q-5 6 -7 -1v-20q0 -15 -15 -15h-158q-15 0 -15 15v670q0 15 15 15h158q15 0 15 -15v-200q0 -8 11 4q2 2 3 4q29 35 81 35zM254 335q0 32 -21 32q-23 0 -23 -32v-150q0 -32 23 -32q21 0 21 32v150z" />
<glyph unicode="c" horiz-adv-x="455" d="M229 -8q-100 0 -155.5 46.5t-55.5 131.5v180q0 81 56 129.5t155 48.5t154.5 -48.5t55.5 -129.5v-22q0 -16 -15 -16l-158 -5q-15 0 -15 14v14q0 32 -22 32q-23 0 -23 -32v-150q0 -32 23 -32q22 0 22 32v15q0 15 15 15l158 -2q15 0 15 -15v-28q0 -85 -55 -131.5t-155 -46.5 z" />
<glyph unicode="d" horiz-adv-x="460" d="M250 685q0 15 15 15h158q15 0 15 -15v-670q0 -15 -15 -15h-158q-15 0 -15 15v20q0 6 -4 4q-2 -1 -3 -3q-30 -44 -88 -44q-137 0 -137 178v180q0 178 137 178q59 0 88 -45q2 -4 4.5 -3t2.5 5v200zM227 153q23 0 23 32v150q0 32 -23 32q-21 0 -21 -32v-150q0 -32 21 -32z " />
<glyph unicode="e" horiz-adv-x="455" d="M439 228q0 -15 -15 -15h-212q-6 0 -6 -6v-22q0 -32 23 -32q19 0 23 25q5 14 17 13l153 -10q15 -2 14 -16q-5 -88 -55.5 -130.5t-151.5 -42.5q-100 0 -155.5 46.5t-55.5 131.5v180q0 81 56 129.5t155 48.5t154.5 -48.5t55.5 -129.5v-122zM229 367q-23 0 -23 -32v-24 q0 -6 6 -6h33q6 0 6 6v24q0 32 -22 32z" />
<glyph unicode="f" horiz-adv-x="311" d="M284 520q15 0 15 -15v-100q0 -15 -15 -15h-37q-6 0 -6 -6v-369q0 -15 -15 -15h-158q-15 0 -15 15v369q0 6 -6 6h-20q-15 0 -15 15v100q0 15 15 15h20q6 0 6 6v30q0 90 55 120t170 24q7 0 7 -15v-95q0 -15 -3 -15h-4q-37 -5 -37 -36v-13q0 -6 6 -6h37z" />
<glyph unicode="g" horiz-adv-x="460" d="M250 505q0 15 15 15h158q15 0 15 -15v-471q0 -48 -7.5 -84t-28.5 -70t-56 -54.5t-94 -30t-139 -3.5q-15 0 -15 15v133q0 16 16 14q70 -4 98.5 11t35.5 49q0 3 -6.5 5t-9.5 0q-28 -27 -77 -27q-137 0 -137 178v180q0 178 137 178q58 0 88 -44q5 -6 7 1v20zM227 153 q23 0 23 32v150q0 32 -23 32q-21 0 -21 -32v-150q0 -32 21 -32z" />
<glyph unicode="h" horiz-adv-x="462" d="M300 528q142 0 142 -180v-333q0 -15 -15 -15h-158q-15 0 -15 15v320q0 32 -21 32q-23 0 -23 -32v-320q0 -15 -15 -15h-158q-15 0 -15 15v670q0 15 15 15h158q15 0 15 -15v-195q1 -6 14 7q29 31 76 31z" />
<glyph unicode="i" horiz-adv-x="244" d="M122 540q-47 0 -75.5 29t-28.5 76t28.5 76t75.5 29t75.5 -29t28.5 -76t-28.5 -76t-75.5 -29zM43 0q-15 0 -15 15v490q0 15 15 15h158q15 0 15 -15v-490q0 -15 -15 -15h-158z" />
<glyph unicode="j" horiz-adv-x="232" d="M116 542q-46 0 -75 30.5t-29 74.5q0 43 31.5 74t72.5 31q40 0 72 -31t32 -74q0 -44 -29.5 -74.5t-74.5 -30.5zM-58 -201q-16 0 -16 15v129q0 15 16 15q47 -2 63.5 15.5t16.5 55.5v476q0 15 15 15h158q15 0 15 -15v-476q0 -39 -1 -60t-6 -50t-15.5 -44.5t-29.5 -33 t-47.5 -25.5t-70.5 -13t-98 -4z" />
<glyph unicode="k" horiz-adv-x="479" d="M37 0q-15 0 -15 15v670q0 15 15 15h158q15 0 15 -15v-278q0 -5 3 -5t4 4l46 103q4 11 17 11h162q9 0 12 -5t-2 -13l-112 -183q-2 -3 0 -8l122 -294q7 -17 -12 -17h-162q-13 0 -17 12l-46 142q-3 10 -7 0l-6 -14q-2 -4 -2 -8v-117q0 -15 -15 -15h-158z" />
<glyph unicode="l" horiz-adv-x="228" d="M35 0q-15 0 -15 15v670q0 15 15 15h158q15 0 15 -15v-670q0 -15 -15 -15h-158z" />
<glyph unicode="m" horiz-adv-x="694" d="M532 528q142 0 142 -180v-333q0 -15 -15 -15h-158q-15 0 -15 15v320q0 32 -21 32q-23 0 -23 -32v-320q0 -15 -15 -15h-158q-15 0 -15 15v320q0 32 -21 32q-23 0 -23 -32v-320q0 -15 -15 -15h-158q-15 0 -15 15v490q0 15 15 15h158q15 0 15 -14v-4q0 -10 7 -3q33 29 83 29 q80 0 114 -57q4 -5 13 7q37 50 105 50z" />
<glyph unicode="n" horiz-adv-x="462" d="M300 528q142 0 142 -180v-333q0 -15 -15 -15h-158q-15 0 -15 15v320q0 32 -21 32q-23 0 -23 -32v-320q0 -15 -15 -15h-158q-15 0 -15 15v490q0 15 15 15h158q15 0 15 -15v-15q1 -6 14 7q29 31 76 31z" />
<glyph unicode="o" horiz-adv-x="461" d="M231 -8q-102 0 -157.5 46.5t-55.5 131.5v180q0 81 56.5 129.5t156.5 48.5t156 -48.5t56 -129.5v-180q0 -85 -55 -131.5t-157 -46.5zM231 153q11 0 17.5 9t6.5 23v150q0 14 -6.5 23t-17.5 9t-18 -9t-7 -23v-150q0 -14 7 -23t18 -9z" />
<glyph unicode="p" horiz-adv-x="462" d="M307 528q137 0 137 -178v-180q0 -178 -137 -178q-59 0 -88 45q-2 4 -4.5 3t-2.5 -5v-200q0 -15 -15 -15h-158q-15 0 -15 15v670q0 15 15 15h158q15 0 15 -15v-20q0 -8 11 4q2 2 3 4q29 35 81 35zM256 335q0 32 -21 32q-23 0 -23 -32v-150q0 -32 23 -32q21 0 21 32v150z " />
<glyph unicode="q" horiz-adv-x="462" d="M250 505q0 15 15 15h158q15 0 15 -15v-670q0 -15 -15 -15h-158q-15 0 -15 15v200q0 4 -2.5 5t-4.5 -3q-29 -45 -88 -45q-137 0 -137 178v180q0 178 137 178q58 0 88 -44q5 -6 7 1v20zM227 153q23 0 23 32v150q0 32 -23 32q-21 0 -21 -32v-150q0 -32 21 -32z" />
<glyph unicode="r" horiz-adv-x="346" d="M293 527q24 0 41 -10q9 -5 7 -19l-25 -157q-2 -13 -17 -10q-32 8 -58 -4q-31 -15 -31 -54v-257q0 -15 -15 -15h-158q-15 0 -15 15v489q0 15 15 15h158q15 0 15 -15v-21q0 -4 2 -5t4 3q25 45 77 45z" />
<glyph unicode="s" horiz-adv-x="438" d="M223 -8q-96 0 -153.5 45t-57.5 119v3q0 15 15 15h150q15 0 15 -6v-7q0 -15 9 -23t20 -8q19 0 19 19q0 8 -5 14t-16 11t-20.5 8t-26 7.5t-25.5 7.5q-128 41 -128 161q0 78 54 124t142 46q92 0 147 -50t55 -132q0 -10 -15 -10h-145q-15 0 -15 11v10q0 26 -22 26 q-21 0 -21 -26q0 -30 70 -51q34 -10 56.5 -19.5t49 -27t40.5 -45t14 -63.5q0 -74 -56.5 -116.5t-149.5 -42.5z" />
<glyph unicode="t" horiz-adv-x="307" d="M295 405q0 -15 -15 -15h-42q-6 0 -6 -6v-192q0 -32 31 -30h2q15 0 15 -15v-132q0 -15 -15 -15h-48q-83 0 -124 23.5t-41 92.5v268q0 6 -6 6h-27q-15 0 -15 15v100q0 15 15 15h27q6 0 6 6v107q0 15 15 15h150q15 0 15 -15v-107q0 -6 6 -6h42q15 0 15 -15v-100z" />
<glyph unicode="u" horiz-adv-x="462" d="M252 505q0 15 15 15h158q15 0 15 -15v-490q0 -15 -15 -15h-158q-15 0 -15 15v4q0 10 -7 3q-25 -30 -83 -30q-60 0 -101 37t-41 115v361q0 15 15 15h158q15 0 15 -15v-320q0 -32 21 -32q23 0 23 32v320z" />
<glyph unicode="v" horiz-adv-x="474" d="M146 0q-13 0 -16 13l-118 490q-3 17 13 17h173q14 0 15 -14l21 -218q0 -1 3 -1t3 1l21 218q1 14 15 14l173 -2q16 0 13 -17l-118 -488q-3 -13 -16 -13h-182z" />
<glyph unicode="w" horiz-adv-x="653" d="M136 0q-14 0 -17 13l-107 491q-3 16 13 16h150q15 0 16 -14l23 -221q0 -3 3 -3t3 3l25 221q1 14 16 14h133q15 0 16 -14l27 -222q0 -2 3 -2t3 2l23 222q1 14 15 14l147 -2q16 0 13 -16l-105 -489q-3 -13 -17 -13h-153q-15 0 -16 14l-24 172q-1 3 -3 3t-3 -3l-22 -172 q-1 -14 -16 -14h-146z" />
<glyph unicode="x" horiz-adv-x="482" d="M25 0q-19 0 -11 18l109 238q2 4 0 8l-109 238q-8 18 11 18h172q13 0 17 -12l23 -67q1 -3 2.5 -4t3 0t2.5 4l23 67q4 12 17 12h172q19 0 11 -18l-109 -238q-2 -4 0 -8l109 -238q8 -18 -11 -18h-172q-13 0 -17 12l-23 71q-1 3 -2.5 4t-3 0t-2.5 -4l-23 -71q-4 -12 -17 -12 h-172z" />
<glyph unicode="y" horiz-adv-x="459" d="M34 -199q-6 0 -6 15v124q0 15 5 15h4q57 0 80.5 8.5t17.5 36.5l-125 503q-3 17 13 17h170q14 0 15 -14l19 -218q0 1 3 1t3 -1l17 218q1 14 15 14l171 -2q16 0 13 -17l-126 -503q-13 -46 -24.5 -74t-32 -54.5t-49 -39.5t-72 -21t-105.5 -8h-6z" />
<glyph unicode="z" horiz-adv-x="381" d="M23 0q-15 0 -15 15v145q0 9 6 18l121 165q5 7 -4 7h-101q-15 0 -15 15v140q0 15 15 15h319q15 0 15 -15v-145q0 -9 -6 -18l-130 -165q-5 -7 3 -7h127q15 0 15 -15v-140q0 -15 -15 -15h-335z" />
<glyph unicode="{" horiz-adv-x="392" d="M244 -164q-64 0 -102 35.5t-38 94.5v200q0 80 -60 89q-14 2 -14 15v118q0 14 15 15q59 9 59 88v197q0 59 38 94.5t102 35.5h103q15 0 15 -15v-131q0 -15 -13 -15h-13q-17 0 -30.5 -17t-13.5 -39v-139q0 -99 -60 -129q-5 -4 0 -8q60 -30 60 -130v-142q0 -22 13.5 -39 t30.5 -17h11q15 0 15 -15v-131q0 -15 -15 -15h-103z" />
<glyph unicode="|" horiz-adv-x="214" d="M28 -80q-15 0 -15 15v810q0 15 15 15h158q15 0 15 -15v-810q0 -15 -15 -15h-158z" />
<glyph unicode="}" horiz-adv-x="392" d="M148 -164h-103q-15 0 -15 15v131q0 15 13 15h13q17 0 30.5 17t13.5 39v142q0 100 60 130q5 4 0 8q-60 30 -60 129v139q0 22 -13.5 39t-30.5 17h-11q-15 0 -15 15v131q0 15 15 15h103q64 0 102 -35.5t38 -94.5v-197q0 -79 59 -88q15 -1 15 -15v-118q0 -13 -14 -15 q-60 -9 -60 -89v-200q0 -59 -38 -94.5t-102 -35.5z" />
<glyph unicode="~" horiz-adv-x="509" d="M333 182q-33 0 -71 23q-6 3 -18.5 11t-18.5 11.5t-15.5 7t-17.5 3.5q-31 0 -57 -32q-8 -11 -20 -4l-86 51q-11 7 -7 20q17 54 59 90t93 36q35 0 77 -25q4 -3 17.5 -11t19 -11t15 -6t16.5 -3q28 0 48 31q9 12 21 5l91 -55q12 -8 6 -20q-26 -52 -66 -87t-86 -35z" />
<glyph unicode="&#xa1;" horiz-adv-x="302" d="M150 708q46 0 75.5 -30.5t29.5 -74.5q0 -43 -32 -73.5t-73 -30.5t-73 30.5t-32 73.5q0 44 29.5 74.5t75.5 30.5zM76 445q0 15 16 15h118q16 0 16 -15l18 -422q0 -15 -14 -15h-158q-14 0 -14 15z" />
<glyph unicode="&#xa2;" horiz-adv-x="455" d="M439 418q0 -16 -15 -16l-158 -5q-15 0 -15 14v14q0 32 -22 32q-23 0 -23 -32v-150q0 -32 23 -32q22 0 22 32v15q0 15 15 15l158 -2q15 0 15 -15v-28q0 -136 -132 -169q-5 -2 -5 -6l4 -68q2 -15 -14 -15h-127q-15 0 -14 15l4 68q0 4 -5 6q-64 16 -98 59.5t-34 109.5v180 q0 63 34.5 107t97.5 62q5 2 5 6l-4 68q-1 15 14 15h127q16 0 14 -15l-4 -68q0 -4 5 -6q63 -18 97.5 -62t34.5 -107v-22z" />
<glyph unicode="&#xa3;" horiz-adv-x="526" d="M262 168q-5 -7 4 -7h233q15 0 15 -15v-131q0 -15 -15 -15h-421q-15 0 -15 15v135q0 11 7 19q21 25 21 76v22q0 6 -6 6h-44q-15 0 -15 15v121q0 15 15 15h44q6 0 6 6v45q0 108 54.5 169.5t147.5 63.5q86 2 141.5 -46t72.5 -137q3 -16 -12 -18l-153 -16q-14 -2 -17 14 q-6 42 -25 42q-13 0 -17 -14t-4 -48v-55q0 -6 6 -6h120q15 0 15 -15v-121q0 -15 -15 -15h-120q-6 0 -6 -6v-22q0 -49 -17 -77z" />
<glyph unicode="&#xa4;" horiz-adv-x="604" d="M534 304q0 -52 -20 -95q-1 -6 2 -9l65 -65q11 -11 -1 -21l-97 -85q-11 -11 -21 0l-60 59q-3 3 -9 2q-43 -20 -94 -20q-49 0 -91 18q-6 1 -9 -2l-57 -57q-10 -11 -21 0l-97 85q-12 10 -1 21l61 60q3 3 2 9q-23 46 -23 100q0 53 21 95q1 6 -2 9l-65 64q-11 11 1 21l97 85 q11 10 21 0l58 -58q3 -3 9 -2q45 20 96 20q52 0 99 -22q6 -1 9 2l61 60q10 10 21 0l97 -85q12 -10 1 -21l-69 -69q-4 -3 -2 -8q18 -42 18 -91zM375 304q-1 31 -23.5 53.5t-52.5 22.5q-31 0 -53.5 -22.5t-22.5 -53.5t22.5 -53.5t53.5 -22.5t53 22t23 54z" />
<glyph unicode="&#xa5;" horiz-adv-x="536" d="M492 700q17 0 12 -17l-114 -344q-2 -7 5 -7h73q15 0 15 -15v-71q0 -15 -15 -15h-101q-6 0 -6 -6v-18q0 -6 6 -6h101q15 0 15 -15v-71q0 -15 -15 -15h-101q-6 0 -6 -6v-77q0 -15 -15 -15h-158q-15 0 -15 15v77q0 6 -6 6h-105q-15 0 -15 15v71q0 15 15 15h105q6 0 6 6v18 q0 6 -6 6h-105q-15 0 -15 15v71q0 15 15 15h77q6 0 5 7l-112 344q-5 17 12 17h166q14 0 17 -13l37 -197q1 -4 4 -4t4 4l37 197q3 13 17 13h166z" />
<glyph unicode="&#xa6;" horiz-adv-x="214" d="M28 385q-15 0 -15 15v345q0 15 15 15h158q15 0 15 -15v-345q0 -15 -15 -15h-158zM28 -80q-15 0 -15 15v345q0 15 15 15h158q15 0 15 -15v-345q0 -15 -15 -15h-158z" />
<glyph unicode="&#xa7;" horiz-adv-x="470" d="M237 -201q-96 0 -155.5 47t-59.5 122v17q0 15 15 15h158q15 0 15 -9v-9q0 -9 8 -16t20 -7t20 6.5t8 15.5q0 8 -7.5 17t-27.5 22.5t-31 20.5t-43 25q-96 56 -121 117q-12 29 -12 65q0 53 30 90q17 21 44 40q4 4 0 9q-41 41 -60.5 72.5t-19.5 73.5q0 76 60.5 125.5 t157.5 49.5t156.5 -49.5t59.5 -130.5v-9q0 -15 -15 -15h-158q-15 0 -15 8v7q0 11 -8 19.5t-21 8.5t-20.5 -8t-7.5 -17q0 -20 17 -34t63 -39q110 -59 141 -97q28 -36 28 -82q0 -47 -20 -82q-20 -38 -57 -64q-6 -4 -1 -9q41 -34 58.5 -64t17.5 -76q0 -81 -60 -128.5 t-157 -47.5zM241 221q15 0 22 10q5 8 5 22q0 16 -8 26q-8 8 -20 8q-15 0 -21 -9q-7 -8 -7 -24t7 -24q6 -9 22 -9z" />
<glyph unicode="&#xa8;" horiz-adv-x="382" d="M95 551q-38 0 -62.5 24t-24.5 63t24.5 63t62.5 24t61.5 -24t23.5 -63t-23.5 -63t-61.5 -24zM288 551q-39 0 -62.5 24t-23.5 63t23.5 63t62.5 24t62.5 -24t23.5 -63t-23.5 -63t-62.5 -24z" />
<glyph unicode="&#xa9;" horiz-adv-x="762" d="M380 -8q-156 0 -258 102.5t-102 261.5q0 151 102.5 251.5t257.5 100.5q156 0 259 -100.5t103 -251.5q0 -159 -102.5 -261.5t-259.5 -102.5zM380 92q113 0 186.5 74t73.5 190q0 108 -74 180t-186 72q-111 0 -184.5 -72t-73.5 -180q0 -116 73 -190t185 -74zM383 179 q-50 0 -79.5 28.5t-29.5 77.5v131q0 48 29.5 76t79.5 28q49 0 79.5 -28t30.5 -76q0 -11 -15 -11l-64 -3q-15 0 -15 10v10q0 19 -16 19q-15 0 -15 -19v-145q0 -18 15 -18q16 0 16 18v6q0 14 15 14l64 -2q15 0 15 -5v-5q0 -48 -30.5 -77t-79.5 -29z" />
<glyph unicode="&#xaa;" horiz-adv-x="303" d="M150 568h14q6 0 6 6v10q0 24 -19 24q-9 0 -14 -8q-8 -11 -17 -11l-91 4q-16 0 -14 16q5 44 41.5 71.5t91.5 27.5q62 0 101 -30t39 -80v-222q0 -15 -15 -15h-88q-15 0 -15 5t-7 0q-16 -10 -42 -10q-19 0 -36.5 4t-36.5 14.5t-30.5 34t-11.5 57.5q0 61 36.5 81.5 t107.5 20.5zM145 450q25 0 25 19v2q0 6 -6 6h-14q-24 0 -24 -14q0 -13 19 -13zM6 296q0 15 15 15h258q15 0 15 -15v-40q0 -15 -15 -15h-258q-15 0 -15 15v40z" />
<glyph unicode="&#xab;" horiz-adv-x="450" d="M246 125q8 -18 -11 -18h-123q-12 0 -17 12l-65 152q-4 10 0 20l65 153q4 11 17 11h123q19 0 11 -18l-69 -152q-2 -4 0 -8zM416 125q8 -18 -11 -18h-123q-12 0 -17 12l-65 152q-4 10 0 20l65 153q4 11 17 11h123q19 0 11 -18l-69 -152q-2 -4 0 -8z" />
<glyph unicode="&#xac;" horiz-adv-x="436" d="M18 359q0 15 15 15h370q15 0 15 -15v-189q0 -15 -15 -15h-110q-15 0 -15 15v58q0 6 -6 6h-239q-15 0 -15 15v110z" />
<glyph unicode="&#xad;" horiz-adv-x="343" d="M33 205q-15 0 -15 15v130q0 15 15 15h277q15 0 15 -15v-130q0 -15 -15 -15h-277z" />
<glyph unicode="&#xae;" horiz-adv-x="432" d="M216 708q90 0 149 -57.5t59 -143.5q0 -93 -59 -152t-149 -59t-149 59t-59 152q0 86 59 143.5t149 57.5zM216 364q60 0 99.5 40t39.5 103q0 57 -39.5 95t-99.5 38t-99 -38t-39 -95q0 -63 39 -103t99 -40zM292 537q0 -33 -22 -47q-4 -3 -3 -8l17 -54q5 -17 -12 -17h-29 q-14 0 -17 13l-14 49q-1 5 -2 5q-2 0 -2 -6v-46q0 -15 -15 -15h-27q-15 0 -15 15v158q0 15 15 15h63q28 0 45.5 -17.5t17.5 -44.5zM220 551h-6q-6 0 -6 -6v-19q0 -6 6 -6h6q15 0 15 16q0 15 -15 15z" />
<glyph unicode="&#xaf;" horiz-adv-x="231" d="M15 572q-15 0 -15 15v95q0 15 15 15h201q15 0 15 -15v-95q0 -15 -15 -15h-201z" />
<glyph unicode="&#xb0;" horiz-adv-x="359" d="M179 460q-72 0 -121.5 50.5t-49.5 124.5q0 73 49.5 123t121.5 50t122 -50t50 -123t-50 -124t-122 -51zM179 581q22 0 36.5 15.5t14.5 38.5t-14.5 39t-36.5 16q-21 0 -36 -16t-15 -39q0 -22 15 -38t36 -16z" />
<glyph unicode="&#xb1;" horiz-adv-x="436" d="M288 489q0 -6 6 -6h109q15 0 15 -15v-110q0 -15 -15 -15h-109q-6 0 -6 -6v-109q0 -15 -15 -15h-110q-15 0 -15 15v109q0 6 -6 6h-109q-15 0 -15 15v110q0 15 15 15h109q6 0 6 6v109q0 15 15 15h110q15 0 15 -15v-109zM33 0q-15 0 -15 15v110q0 15 15 15h370q15 0 15 -15 v-110q0 -15 -15 -15h-370z" />
<glyph unicode="&#xb2;" horiz-adv-x="280" d="M25 399q-15 0 -15 15v75q0 11 7 19l39 42t42 47t28 35q27 38 27 68q0 23 -13 23q-14 0 -14 -18v-19q0 -15 -15 -15h-89q-15 0 -15 15v24q4 55 39.5 84.5t96.5 29.5q129 0 129 -131q0 -55 -25 -97q-7 -11 -70 -88q-5 -8 3 -8h80q15 0 15 -15v-71q0 -15 -15 -15h-235z" />
<glyph unicode="&#xb3;" horiz-adv-x="295" d="M287 503q1 -49 -33.5 -79.5t-90.5 -30.5q-59 0 -95.5 30.5t-36.5 79.5v20q0 15 15 15h86q15 0 15 -9v-9q0 -26 16 -26q15 0 15 26v57q0 23 -15 23q-10 0 -17 -7q-13 -10 -21 0l-42 44q-9 11 1 21l59 53q3 2 2 4.5t-5 2.5h-84q-15 0 -15 15v70q0 15 15 15h213q15 0 15 -15 v-74q0 -11 -7 -19l-37 -39q-5 -5 1 -8q21 -15 33.5 -43t12.5 -57v-60z" />
<glyph unicode="&#xb4;" horiz-adv-x="266" d="M29 571q-20 0 -10 18l55 93q6 10 18 10h142q9 0 12 -5t-3 -13l-77 -94q-8 -9 -18 -9h-119z" />
<glyph unicode="&#xb5;" horiz-adv-x="464" d="M254 505q0 15 15 15h158q15 0 15 -15v-490q0 -15 -15 -15h-158q-15 0 -15 15v4q0 10 -7 3q-12 -15 -32 -23q-5 -3 -5 -7v-177q0 -15 -15 -15h-158q-15 0 -15 15v690q0 15 15 15h158q15 0 15 -15v-320q0 -32 21 -32q23 0 23 32v320z" />
<glyph unicode="&#xb6;" horiz-adv-x="544" d="M222 700h281q15 0 15 -15v-870q0 -15 -15 -15h-126q-15 0 -15 15v728q0 6 -6 6h-24q-6 0 -6 -6v-728q0 -15 -15 -15h-126q-15 0 -15 15v435q0 4 -5 6q-71 17 -112 75t-41 144q0 101 57 163t153 62z" />
<glyph unicode="&#xb7;" horiz-adv-x="210" d="M105 -8q-46 0 -75.5 30.5t-29.5 74.5q0 43 32 73.5t73 30.5t73 -30.5t32 -73.5q0 -44 -29.5 -74.5t-75.5 -30.5z" />
<glyph unicode="&#xb8;" horiz-adv-x="172" d="M21 -186q-13 3 -11 17l7 62q1 11 16 11q17 0 21 17q6 24 -32 61q-8 7 -6.5 12.5t11.5 5.5h84q11 0 19 -8q55 -58 39 -123q-9 -37 -39.5 -52t-57.5 -13t-51 10z" />
<glyph unicode="&#xb9;" horiz-adv-x="165" d="M28 814q7 5 19 5h93q15 0 15 -15v-390q0 -15 -15 -15h-88q-15 0 -15 15v298q0 6 -6 6h-7q-15 0 -15 16v57q0 12 10 18z" />
<glyph unicode="&#xba;" horiz-adv-x="306" d="M152 355q-66 0 -102 30.5t-36 85.5v121q0 53 36.5 84.5t101.5 31.5q64 0 100.5 -31.5t36.5 -84.5v-121q0 -55 -36 -85.5t-101 -30.5zM152 456q19 0 19 24v102q0 25 -19 25q-20 0 -20 -25v-102q0 -24 20 -24zM24 241q-15 0 -15 15v40q0 15 15 15h258q15 0 15 -15v-40 q0 -15 -15 -15h-258z" />
<glyph unicode="&#xbb;" horiz-adv-x="450" d="M45 107q-19 0 -11 18l69 152q2 4 0 8l-69 152q-8 18 11 18h123q12 0 17 -12l65 -152q4 -10 0 -20l-65 -153q-4 -11 -17 -11h-123zM215 107q-19 0 -11 18l69 152q2 4 0 8l-69 152q-8 18 11 18h123q12 0 17 -12l65 -152q4 -10 0 -20l-65 -153q-4 -11 -17 -11h-123z" />
<glyph unicode="&#xbc;" horiz-adv-x="752" d="M155 295q0 -15 -15 -15h-88q-15 0 -15 15v298q0 6 -6 6h-7q-15 0 -15 16v57q0 12 10 18l9 5q9 5 19 5h93q15 0 15 -15v-390zM451 690q6 10 18 10h99q21 0 11 -18l-391 -672q-6 -10 -18 -10h-99q-21 0 -11 18zM733 206q15 0 15 -15v-77q0 -15 -15 -15h-9q-6 0 -6 -6v-78 q0 -15 -15 -15h-88q-15 0 -15 15v78q0 6 -6 6h-146q-15 0 -15 15v61q0 9 3 18l69 215q4 12 17 12h92q18 0 13 -17l-55 -190q-1 -7 5 -7h17q6 0 6 6v29q0 15 15 15h88q15 0 15 -15v-29q0 -6 6 -6h9z" />
<glyph unicode="&#xbd;" horiz-adv-x="709" d="M155 295q0 -15 -15 -15h-88q-15 0 -15 15v298q0 6 -6 6h-7q-15 0 -15 16v57q0 12 10 18l9 5q9 5 19 5h93q15 0 15 -15v-390zM451 690q6 10 18 10h99q21 0 11 -18l-391 -672q-6 -10 -18 -10h-99q-21 0 -11 18zM606 109q-5 -8 3 -8h80q15 0 15 -15v-71q0 -15 -15 -15h-235 q-15 0 -15 15v75q0 11 7 19l39 42t42 47t28 35q27 38 27 68q0 23 -13 23q-14 0 -14 -18v-19q0 -15 -15 -15h-89q-15 0 -15 15v24q4 55 39.5 84.5t96.5 29.5q129 0 129 -131q0 -55 -25 -97q-7 -11 -70 -88z" />
<glyph unicode="&#xbe;" horiz-adv-x="834" d="M287 385q1 -49 -33.5 -79.5t-90.5 -30.5q-59 0 -95.5 30.5t-36.5 79.5v20q0 15 15 15h86q15 0 15 -9v-9q0 -26 16 -26q15 0 15 26v57q0 23 -15 23q-10 0 -17 -7q-13 -10 -21 0l-42 44q-9 11 1 21l59 53q3 2 2 4.5t-5 2.5h-84q-15 0 -15 15v70q0 15 15 15h213q15 0 15 -15 v-74q0 -11 -7 -19l-37 -39q-5 -5 1 -8q21 -15 33.5 -43t12.5 -57v-60zM533 690q6 10 18 10h99q21 0 11 -18l-391 -672q-6 -10 -18 -10h-99q-21 0 -11 18zM815 206q15 0 15 -15v-77q0 -15 -15 -15h-9q-6 0 -6 -6v-78q0 -15 -15 -15h-88q-15 0 -15 15v78q0 6 -6 6h-146 q-15 0 -15 15v61q0 9 3 18l69 215q4 12 17 12h92q18 0 13 -17l-55 -190q-1 -7 5 -7h17q6 0 6 6v29q0 15 15 15h88q15 0 15 -15v-29q0 -6 6 -6h9z" />
<glyph unicode="&#xbf;" horiz-adv-x="483" d="M248 505q40 0 67.5 -28t27.5 -67q0 -40 -28.5 -68.5t-67.5 -28.5t-67.5 28.5t-28.5 67.5q0 40 28.5 68t68.5 28zM333 264q15 0 15 -14v-14q0 -40 -15 -72t-37 -51t-44 -35t-37 -33.5t-15 -38.5t10.5 -33t28.5 -12q22 0 34 14t12 37v4q0 14 15 14l158 -7q15 0 15 -6v-5 q0 -99 -66 -160.5t-173 -61.5q-102 0 -163 57t-61 150q0 46 15.5 80.5t38 54.5t45 37t38 36t15.5 43v1q0 15 15 15h156z" />
<glyph unicode="&#xc0;" horiz-adv-x="531" d="M332 769q10 -18 -10 -18h-119q-11 0 -18 9l-77 94q-6 8 -3 13t12 5h142q12 0 18 -10zM341 0q-15 0 -16 14l-9 75q0 6 -7 6h-88q-5 0 -7 -5l-12 -76q-2 -14 -16 -14h-157q-16 0 -13 16l142 671q3 13 17 13h182q14 0 17 -13l142 -671q3 -16 -14 -16h-161zM239 245 q-1 -6 6 -6h45q5 0 5 6l-22 170q-1 8 -5 4l-2 -4z" />
<glyph unicode="&#xc1;" horiz-adv-x="531" d="M396 872q9 0 12 -5t-3 -13l-77 -94q-8 -9 -18 -9h-119q-20 0 -10 18l55 93q6 10 18 10h142zM341 0q-15 0 -16 14l-9 75q0 6 -7 6h-88q-5 0 -7 -5l-12 -76q-2 -14 -16 -14h-157q-16 0 -13 16l142 671q3 13 17 13h182q14 0 17 -13l142 -671q3 -16 -14 -16h-161zM239 245 q-1 -6 6 -6h45q5 0 5 6l-22 170q-1 8 -5 4l-2 -4z" />
<glyph unicode="&#xc2;" horiz-adv-x="531" d="M268 805q-4 8 -8 0l-20 -43q-5 -11 -17 -11h-113q-9 0 -12 5.5t2 12.5l64 101q6 10 18 10h161q12 0 18 -10l66 -101q11 -18 -10 -18h-112q-12 0 -17 11zM341 0q-15 0 -16 14l-9 75q0 6 -7 6h-88q-5 0 -7 -5l-12 -76q-2 -14 -16 -14h-157q-16 0 -13 16l142 671q3 13 17 13 h182q14 0 17 -13l142 -671q3 -16 -14 -16h-161zM239 245q-1 -6 6 -6h45q5 0 5 6l-22 170q-1 8 -5 4l-2 -4z" />
<glyph unicode="&#xc3;" horiz-adv-x="531" d="M241 783q-17 0 -29 -18q-10 -13 -21 -5l-55 40q-10 7 -7 19q26 79 96 79q33 0 67 -22q27 -17 39 -17q19 0 31 15q10 13 20 5l53 -37q12 -8 6 -21q-35 -70 -105 -70q-24 0 -55 15q-6 3 -14.5 8t-14 7t-11.5 2zM341 0q-15 0 -16 14l-9 75q0 6 -7 6h-88q-5 0 -7 -5l-12 -76 q-2 -14 -16 -14h-157q-16 0 -13 16l142 671q3 13 17 13h182q14 0 17 -13l142 -671q3 -16 -14 -16h-161zM239 245q-1 -6 6 -6h45q5 0 5 6l-22 170q-1 8 -5 4l-2 -4z" />
<glyph unicode="&#xc4;" horiz-adv-x="531" d="M172 731q-38 0 -62.5 24t-24.5 63t24.5 63t62.5 24t61.5 -24t23.5 -63t-23.5 -63t-61.5 -24zM365 731q-39 0 -62.5 24t-23.5 63t23.5 63t62.5 24t62.5 -24t23.5 -63t-23.5 -63t-62.5 -24zM341 0q-15 0 -16 14l-9 75q0 6 -7 6h-88q-5 0 -7 -5l-12 -76q-2 -14 -16 -14h-157 q-16 0 -13 16l142 671q3 13 17 13h182q14 0 17 -13l142 -671q3 -16 -14 -16h-161zM239 245q-1 -6 6 -6h45q5 0 5 6l-22 170q-1 8 -5 4l-2 -4z" />
<glyph unicode="&#xc5;" horiz-adv-x="531" d="M266 734q-50 0 -83.5 34t-33.5 83t34 82.5t83 33.5t83 -33.5t34 -82.5t-33.5 -83t-83.5 -34zM266 888q-15 0 -25.5 -10.5t-10.5 -26.5q0 -15 10.5 -25.5t25.5 -10.5t25.5 10.5t10.5 25.5q0 16 -10.5 26.5t-25.5 10.5zM341 0q-15 0 -16 14l-9 75q0 6 -7 6h-88q-5 0 -7 -5 l-12 -76q-2 -14 -16 -14h-157q-16 0 -13 16l142 671q3 13 17 13h182q14 0 17 -13l142 -671q3 -16 -14 -16h-161zM239 245q-1 -6 6 -6h45q5 0 5 6l-22 170q-1 8 -5 4l-2 -4z" />
<glyph unicode="&#xc6;" horiz-adv-x="793" d="M775 554q0 -15 -15 -15h-191q-6 0 -6 -6v-96q0 -6 6 -6h99q15 0 15 -15v-131q0 -15 -15 -15h-99q-6 0 -6 -6v-97q0 -6 6 -6h191q15 0 15 -15v-131q0 -15 -15 -15h-370q-15 0 -15 15v74q0 6 -6 6h-121q-6 0 -7 -5l-27 -78q-4 -12 -17 -12h-166q-18 0 -12 17l269 671 q4 12 18 12h454q15 0 15 -15v-131zM296 246q-2 -7 5 -7h68q6 0 6 6v203q0 4 -2.5 4.5t-4.5 -3.5z" />
<glyph unicode="&#xc7;" horiz-adv-x="476" d="M458 487q0 -11 -15 -11l-158 -5q-15 0 -15 14v25q0 17 -8.5 27t-22.5 10t-22.5 -10t-8.5 -27v-321q0 -36 31 -36t31 36v27q0 14 15 14l158 -5q15 0 15 -10v-10q0 -79 -41.5 -133.5t-112.5 -71.5q-8 -2 -3 -8q45 -53 31 -114q-9 -37 -39.5 -52t-57.5 -13t-51 10 q-13 3 -11 17l7 62q1 11 16 11q17 0 21 17q6 27 -39 66q-3 2 -7 4q-71 18 -111 72t-40 133v292q0 97 59.5 154t159.5 57q99 0 159 -57t60 -154v-10z" />
<glyph unicode="&#xc8;" horiz-adv-x="444" d="M293 782q10 -18 -10 -18h-119q-10 0 -18 9l-77 94q-6 7 -3 12.5t12 5.5h142q12 0 18 -10zM426 554q0 -15 -15 -15h-191q-6 0 -6 -6v-96q0 -6 6 -6h99q15 0 15 -15v-131q0 -15 -15 -15h-99q-6 0 -6 -6v-97q0 -6 6 -6h191q15 0 15 -15v-131q0 -15 -15 -15h-370 q-15 0 -15 15v670q0 15 15 15h370q15 0 15 -15v-131z" />
<glyph unicode="&#xc9;" horiz-adv-x="444" d="M357 885q9 0 12 -5.5t-3 -12.5l-77 -94q-7 -9 -18 -9h-119q-20 0 -10 18l55 93q6 10 18 10h142zM426 554q0 -15 -15 -15h-191q-6 0 -6 -6v-96q0 -6 6 -6h99q15 0 15 -15v-131q0 -15 -15 -15h-99q-6 0 -6 -6v-97q0 -6 6 -6h191q15 0 15 -15v-131q0 -15 -15 -15h-370 q-15 0 -15 15v670q0 15 15 15h370q15 0 15 -15v-131z" />
<glyph unicode="&#xca;" horiz-adv-x="444" d="M229 818q-4 8 -8 0l-20 -43q-5 -11 -17 -11h-113q-9 0 -12 5t2 13l64 101q6 10 18 10h161q12 0 18 -10l66 -101q11 -18 -10 -18h-112q-12 0 -17 11zM426 554q0 -15 -15 -15h-191q-6 0 -6 -6v-96q0 -6 6 -6h99q15 0 15 -15v-131q0 -15 -15 -15h-99q-6 0 -6 -6v-97 q0 -6 6 -6h191q15 0 15 -15v-131q0 -15 -15 -15h-370q-15 0 -15 15v670q0 15 15 15h370q15 0 15 -15v-131z" />
<glyph unicode="&#xcb;" horiz-adv-x="444" d="M133 744q-38 0 -62.5 24t-24.5 63t24.5 63t62.5 24t61.5 -24t23.5 -63t-23.5 -63t-61.5 -24zM326 744q-39 0 -62.5 24t-23.5 63t23.5 63t62.5 24t62.5 -24t23.5 -63t-23.5 -63t-62.5 -24zM426 554q0 -15 -15 -15h-191q-6 0 -6 -6v-96q0 -6 6 -6h99q15 0 15 -15v-131 q0 -15 -15 -15h-99q-6 0 -6 -6v-97q0 -6 6 -6h191q15 0 15 -15v-131q0 -15 -15 -15h-370q-15 0 -15 15v670q0 15 15 15h370q15 0 15 -15v-131z" />
<glyph unicode="&#xcc;" horiz-adv-x="240" d="M186 782q10 -18 -10 -18h-119q-11 0 -18 9l-77 94q-6 7 -3 12.5t12 5.5h142q12 0 18 -10zM41 0q-15 0 -15 15v670q0 15 15 15h158q15 0 15 -15v-670q0 -15 -15 -15h-158z" />
<glyph unicode="&#xcd;" horiz-adv-x="240" d="M45 764q-20 0 -10 18l55 93q6 10 18 10h142q9 0 12 -5.5t-3 -12.5l-77 -94q-8 -9 -18 -9h-119zM41 0q-15 0 -15 15v670q0 15 15 15h158q15 0 15 -15v-670q0 -15 -15 -15h-158z" />
<glyph unicode="&#xce;" horiz-adv-x="240" d="M-36 764q-9 0 -12 5t2 13l64 101q6 10 18 10h161q12 0 18 -10l66 -101q11 -18 -10 -18h-112q-12 0 -17 11l-20 43q-4 8 -8 0l-20 -43q-5 -11 -17 -11h-113zM41 0q-15 0 -15 15v670q0 15 15 15h158q15 0 15 -15v-670q0 -15 -15 -15h-158z" />
<glyph unicode="&#xcf;" horiz-adv-x="240" d="M26 744q-38 0 -62.5 24t-24.5 63t24.5 63t62.5 24t61.5 -24t23.5 -63t-23.5 -63t-61.5 -24zM219 744q-39 0 -62.5 24t-23.5 63t23.5 63t62.5 24t62.5 -24t23.5 -63t-23.5 -63t-62.5 -24zM41 0q-15 0 -15 15v670q0 15 15 15h158q15 0 15 -15v-670q0 -15 -15 -15h-158z" />
<glyph unicode="&#xd0;" horiz-adv-x="505" d="M260 700q100 0 161.5 -55t61.5 -145v-300q0 -90 -61.5 -145t-161.5 -55h-197q-15 0 -15 15v293q0 6 -3 6h-4q-15 0 -15 15v75q0 15 11 15h5q6 0 6 6v260q0 15 15 15h197zM295 213v275q0 23 -11 37t-29 14h-13q-6 0 -6 -6v-108q0 -6 6 -6h10q15 0 15 -15v-75 q0 -15 -15 -15h-10q-6 0 -6 -6v-141q0 -6 6 -6l14 1q16 1 27 15t12 36z" />
<glyph unicode="&#xd1;" horiz-adv-x="528" d="M332 764q-24 0 -55 15q-6 3 -14.5 8t-14 7t-11.5 2q-17 0 -29 -18q-10 -13 -21 -5l-55 40q-10 7 -7 19q26 79 96 79q33 0 67 -22q27 -17 39 -17q19 0 31 15q10 13 20 5l53 -37q12 -9 1 -29q-34 -62 -100 -62zM41 0q-15 0 -15 15v670q0 15 15 15h176q13 0 16 -13l77 -305 q1 -7 6 -3q1 1 1 3l-1 303q0 15 15 15h156q15 0 15 -15v-670q0 -15 -15 -15h-178q-13 0 -16 13l-76 307q-1 3 -4 2.5t-3 -3.5l2 -304q0 -15 -15 -15h-156z" />
<glyph unicode="&#xd2;" horiz-adv-x="484" d="M308 777q10 -18 -10 -18h-119q-11 0 -18 9l-77 94q-6 8 -3 13t12 5h142q12 0 18 -10zM242 -8q-101 0 -161.5 58t-60.5 156v288q0 98 60.5 156t161.5 58t161.5 -58t60.5 -156v-288q0 -98 -60.5 -156t-161.5 -58zM242 153q34 0 34 45v304q0 45 -34 45t-34 -45v-304 q0 -45 34 -45z" />
<glyph unicode="&#xd3;" horiz-adv-x="484" d="M167 759q-20 0 -10 18l55 93q6 10 18 10h142q9 0 12 -5t-3 -13l-77 -94q-8 -9 -18 -9h-119zM242 -8q-101 0 -161.5 58t-60.5 156v288q0 98 60.5 156t161.5 58t161.5 -58t60.5 -156v-288q0 -98 -60.5 -156t-161.5 -58zM242 153q34 0 34 45v304q0 45 -34 45t-34 -45v-304 q0 -45 34 -45z" />
<glyph unicode="&#xd4;" horiz-adv-x="484" d="M86 759q-9 0 -12 5.5t2 12.5l64 101q6 10 18 10h161q12 0 18 -10l66 -101q11 -18 -10 -18h-112q-12 0 -17 11l-20 43q-4 8 -8 0l-20 -43q-5 -11 -17 -11h-113zM242 -8q-101 0 -161.5 58t-60.5 156v288q0 98 60.5 156t161.5 58t161.5 -58t60.5 -156v-288q0 -98 -60.5 -156 t-161.5 -58zM242 153q34 0 34 45v304q0 45 -34 45t-34 -45v-304q0 -45 34 -45z" />
<glyph unicode="&#xd5;" horiz-adv-x="484" d="M312 759q-24 0 -55 15q-6 3 -14.5 8t-14 7t-11.5 2q-17 0 -29 -18q-10 -13 -21 -5l-55 40q-10 7 -7 19q26 79 96 79q33 0 67 -22q27 -17 39 -17q19 0 31 15q10 13 20 5l53 -37q12 -9 1 -29q-34 -62 -100 -62zM242 -8q-101 0 -161.5 58t-60.5 156v288q0 98 60.5 156 t161.5 58t161.5 -58t60.5 -156v-288q0 -98 -60.5 -156t-161.5 -58zM242 153q34 0 34 45v304q0 45 -34 45t-34 -45v-304q0 -45 34 -45z" />
<glyph unicode="&#xd6;" horiz-adv-x="484" d="M148 739q-38 0 -62.5 24t-24.5 63t24.5 63t62.5 24t61.5 -24t23.5 -63t-23.5 -63t-61.5 -24zM341 739q-39 0 -62.5 24t-23.5 63t23.5 63t62.5 24t62.5 -24t23.5 -63t-23.5 -63t-62.5 -24zM242 -8q-101 0 -161.5 58t-60.5 156v288q0 98 60.5 156t161.5 58t161.5 -58 t60.5 -156v-288q0 -98 -60.5 -156t-161.5 -58zM242 153q34 0 34 45v304q0 45 -34 45t-34 -45v-304q0 -45 34 -45z" />
<glyph unicode="&#xd7;" horiz-adv-x="418" d="M389 412q11 -11 0 -22l-77 -76q-4 -4 0 -8l77 -77q11 -11 0 -22l-77 -77q-11 -11 -22 0l-77 77q-4 4 -8 0l-77 -77q-11 -11 -22 0l-77 77q-11 11 0 22l77 77q4 4 0 8l-77 76q-11 11 0 22l77 77q11 11 22 0l77 -77q4 -4 8 0l77 77q11 11 22 0z" />
<glyph unicode="&#xd8;" horiz-adv-x="484" d="M414 646q-2 -5 1 -9q49 -55 49 -143v-288q0 -98 -60.5 -156t-161.5 -58q-60 0 -109 22q-5 3 -7 -3l-14 -30q-4 -11 -17 -11h-45q-19 0 -11 18l30 66q2 5 -1 9q-48 56 -48 143v288q0 98 60.5 156t161.5 58q60 0 107 -21q6 -4 8 3l13 29q5 11 17 11h46q19 0 11 -18z M208 502v-124q0 -4 3 -5t4 3l59 130q2 4 1 8q-5 33 -33 33q-34 0 -34 -45zM242 153q34 0 34 45v127q0 4 -3 5t-4 -3l-59 -130q-2 -4 -1 -9q3 -35 33 -35z" />
<glyph unicode="&#xd9;" horiz-adv-x="481" d="M307 782q10 -18 -10 -18h-119q-10 0 -18 9l-77 94q-6 7 -3 12.5t12 5.5h142q12 0 18 -10zM241 -8q-98 0 -157.5 59t-59.5 157v477q0 15 15 15h158q15 0 15 -15v-495q0 -37 29 -37q13 0 20.5 10t7.5 27v495q0 15 15 15h158q15 0 15 -15v-477q0 -98 -59.5 -157t-156.5 -59z " />
<glyph unicode="&#xda;" horiz-adv-x="481" d="M166 764q-20 0 -10 18l55 93q6 10 18 10h142q9 0 12 -5.5t-3 -12.5l-77 -94q-7 -9 -18 -9h-119zM241 -8q-98 0 -157.5 59t-59.5 157v477q0 15 15 15h158q15 0 15 -15v-495q0 -37 29 -37q13 0 20.5 10t7.5 27v495q0 15 15 15h158q15 0 15 -15v-477q0 -98 -59.5 -157 t-156.5 -59z" />
<glyph unicode="&#xdb;" horiz-adv-x="481" d="M85 764q-9 0 -12 5t2 13l64 101q6 10 18 10h161q12 0 18 -10l66 -101q11 -18 -10 -18h-112q-12 0 -17 11l-20 43q-4 8 -8 0l-20 -43q-5 -11 -17 -11h-113zM241 -8q-98 0 -157.5 59t-59.5 157v477q0 15 15 15h158q15 0 15 -15v-495q0 -37 29 -37q13 0 20.5 10t7.5 27v495 q0 15 15 15h158q15 0 15 -15v-477q0 -98 -59.5 -157t-156.5 -59z" />
<glyph unicode="&#xdc;" horiz-adv-x="481" d="M147 744q-38 0 -62.5 24t-24.5 63t24.5 63t62.5 24t61.5 -24t23.5 -63t-23.5 -63t-61.5 -24zM340 744q-39 0 -62.5 24t-23.5 63t23.5 63t62.5 24t62.5 -24t23.5 -63t-23.5 -63t-62.5 -24zM241 -8q-98 0 -157.5 59t-59.5 157v477q0 15 15 15h158q15 0 15 -15v-495 q0 -37 29 -37q13 0 20.5 10t7.5 27v495q0 15 15 15h158q15 0 15 -15v-477q0 -98 -59.5 -157t-156.5 -59z" />
<glyph unicode="&#xdd;" horiz-adv-x="508" d="M179 750q-20 0 -10 18l55 93q6 10 18 10h142q9 0 12 -5.5t-3 -12.5l-77 -94q-8 -9 -18 -9h-119zM174 2q-15 0 -15 15v230q0 6 -1 8l-140 428q-5 17 12 17h166q14 0 17 -13l37 -197q1 -4 4 -4t4 4l37 197q3 13 17 13h166q17 0 12 -17l-142 -428q-1 -2 -1 -8v-230 q0 -15 -15 -15h-158z" />
<glyph unicode="&#xde;" horiz-adv-x="480" d="M263 571q91 0 148 -62.5t57 -162.5q0 -98 -54 -157.5t-141 -59.5h-55q-6 0 -6 -6v-108q0 -15 -15 -15h-158q-15 0 -15 15v670q0 15 15 15h158q15 0 15 -15v-108q0 -6 6 -6h45zM230 276q23 0 36.5 16.5t13.5 49.5t-13.5 50.5t-36.5 17.5h-12q-6 0 -6 -6v-122q0 -6 6 -6h12 z" />
<glyph unicode="&#xdf;" horiz-adv-x="481" d="M37 1q-15 0 -15 15v451q0 115 55 178t156 63t158.5 -52.5t57.5 -140.5q0 -82 -61 -127q-5 -3 0 -8q75 -52 75 -168q0 -101 -59.5 -156.5t-168.5 -55.5q-1 6 -1 15v131l1 14q20 0 32 19t12 54t-12 54t-32 19q-1 5 -1 14v127q0 4 5 6q6 2 13 7q13 13 13 41q0 22 -8.5 34.5 t-21.5 12.5q-25 0 -25 -50v-483q0 -15 -15 -15z" />
<glyph unicode="&#xe0;" horiz-adv-x="467" d="M298 597q10 -18 -10 -18h-119q-11 0 -18 9l-77 94q-6 8 -3 13t12 5h142q12 0 18 -10zM232 528q98 0 157.5 -46t59.5 -122v-345q0 -15 -15 -15h-158q-15 0 -15 15v21q0 9 -7 2q-32 -45 -101 -46q-26 0 -47 5t-44 19.5t-36.5 49t-13.5 85.5q0 43 10.5 72.5t26.5 46t45 25.5 t56.5 11.5t70.5 2.5h34q6 0 6 6v22q0 13 -8 21.5t-21 8.5q-17 0 -24 -18q-5 -14 -16 -14l-160 2q-15 0 -15 14q5 83 63.5 130t151.5 47zM229 127q12 0 22 7.5t10 19.5v27q0 6 -6 6h-20q-14 0 -22.5 -9.5t-8.5 -22.5q0 -28 25 -28z" />
<glyph unicode="&#xe1;" horiz-adv-x="467" d="M362 700q9 0 12 -5t-3 -13l-77 -94q-8 -9 -18 -9h-119q-20 0 -10 18l55 93q6 10 18 10h142zM232 528q98 0 157.5 -46t59.5 -122v-345q0 -15 -15 -15h-158q-15 0 -15 15v21q0 9 -7 2q-32 -45 -101 -46q-26 0 -47 5t-44 19.5t-36.5 49t-13.5 85.5q0 43 10.5 72.5t26.5 46 t45 25.5t56.5 11.5t70.5 2.5h34q6 0 6 6v22q0 13 -8 21.5t-21 8.5q-17 0 -24 -18q-5 -14 -16 -14l-160 2q-15 0 -15 14q5 83 63.5 130t151.5 47zM229 127q12 0 22 7.5t10 19.5v27q0 6 -6 6h-20q-14 0 -22.5 -9.5t-8.5 -22.5q0 -28 25 -28z" />
<glyph unicode="&#xe2;" horiz-adv-x="467" d="M234 633q-4 8 -8 0l-20 -43q-5 -11 -17 -11h-113q-9 0 -12 5.5t2 12.5l64 101q6 10 18 10h161q12 0 18 -10l66 -101q11 -18 -10 -18h-112q-12 0 -17 11zM232 528q98 0 157.5 -46t59.5 -122v-345q0 -15 -15 -15h-158q-15 0 -15 15v21q0 9 -7 2q-32 -45 -101 -46 q-26 0 -47 5t-44 19.5t-36.5 49t-13.5 85.5q0 43 10.5 72.5t26.5 46t45 25.5t56.5 11.5t70.5 2.5h34q6 0 6 6v22q0 13 -8 21.5t-21 8.5q-17 0 -24 -18q-5 -14 -16 -14l-160 2q-15 0 -15 14q5 83 63.5 130t151.5 47zM229 127q12 0 22 7.5t10 19.5v27q0 6 -6 6h-20 q-14 0 -22.5 -9.5t-8.5 -22.5q0 -28 25 -28z" />
<glyph unicode="&#xe3;" horiz-adv-x="467" d="M207 611q-17 0 -29 -18q-10 -13 -21 -5l-55 40q-10 7 -7 19q26 79 96 79q33 0 67 -22q27 -17 39 -17q19 0 31 15q10 13 20 5l53 -37q12 -8 6 -21q-35 -70 -105 -70q-24 0 -55 15q-6 3 -14.5 8t-14 7t-11.5 2zM232 528q98 0 157.5 -46t59.5 -122v-345q0 -15 -15 -15h-158 q-15 0 -15 15v21q0 9 -7 2q-32 -45 -101 -46q-26 0 -47 5t-44 19.5t-36.5 49t-13.5 85.5q0 43 10.5 72.5t26.5 46t45 25.5t56.5 11.5t70.5 2.5h34q6 0 6 6v22q0 13 -8 21.5t-21 8.5q-17 0 -24 -18q-5 -14 -16 -14l-160 2q-15 0 -15 14q5 83 63.5 130t151.5 47zM229 127 q12 0 22 7.5t10 19.5v27q0 6 -6 6h-20q-14 0 -22.5 -9.5t-8.5 -22.5q0 -28 25 -28z" />
<glyph unicode="&#xe4;" horiz-adv-x="467" d="M138 559q-38 0 -62.5 24t-24.5 63t24.5 63t62.5 24t61.5 -24t23.5 -63t-23.5 -63t-61.5 -24zM331 559q-39 0 -62.5 24t-23.5 63t23.5 63t62.5 24t62.5 -24t23.5 -63t-23.5 -63t-62.5 -24zM232 528q98 0 157.5 -46t59.5 -122v-345q0 -15 -15 -15h-158q-15 0 -15 15v21 q0 9 -7 2q-32 -45 -101 -46q-26 0 -47 5t-44 19.5t-36.5 49t-13.5 85.5q0 43 10.5 72.5t26.5 46t45 25.5t56.5 11.5t70.5 2.5h34q6 0 6 6v22q0 13 -8 21.5t-21 8.5q-17 0 -24 -18q-5 -14 -16 -14l-160 2q-15 0 -15 14q5 83 63.5 130t151.5 47zM229 127q12 0 22 7.5t10 19.5 v27q0 6 -6 6h-20q-14 0 -22.5 -9.5t-8.5 -22.5q0 -28 25 -28z" />
<glyph unicode="&#xe5;" horiz-adv-x="467" d="M232 562q-50 0 -83.5 34t-33.5 83t34 82.5t83 33.5t83 -33.5t34 -82.5t-33.5 -83t-83.5 -34zM232 716q-15 0 -25.5 -10.5t-10.5 -26.5q0 -15 10.5 -25.5t25.5 -10.5t25.5 10.5t10.5 25.5q0 16 -10.5 26.5t-25.5 10.5zM232 528q98 0 157.5 -46t59.5 -122v-345 q0 -15 -15 -15h-158q-15 0 -15 15v21q0 9 -7 2q-32 -45 -101 -46q-26 0 -47 5t-44 19.5t-36.5 49t-13.5 85.5q0 43 10.5 72.5t26.5 46t45 25.5t56.5 11.5t70.5 2.5h34q6 0 6 6v22q0 13 -8 21.5t-21 8.5q-17 0 -24 -18q-5 -14 -16 -14l-160 2q-15 0 -15 14q5 83 63.5 130 t151.5 47zM229 127q12 0 22 7.5t10 19.5v27q0 6 -6 6h-20q-14 0 -22.5 -9.5t-8.5 -22.5q0 -28 25 -28z" />
<glyph unicode="&#xe6;" horiz-adv-x="709" d="M179 -8q-24 0 -42.5 2t-43.5 11.5t-41.5 26t-28 47.5t-11.5 74q0 49 14 80.5t44.5 46.5t64 20t86.5 5h34q6 0 6 6v26q0 13 -8 21.5t-20 8.5q-17 0 -25 -16q-5 -14 -16 -14l-160 4q-16 0 -14 15q5 80 63 126t146 46q65 0 123 -36q4 -3 8 0q57 36 132 36q92 0 147.5 -49 t55.5 -129v-137q0 -15 -15 -15h-212q-6 0 -6 -6v-7q0 -32 23 -32q14 0 22 16q5 13 16 12l155 -9q15 -2 14 -16q-6 -80 -54.5 -122t-136.5 -42q-56 0 -96 15.5t-48 34.5l-1 4q-7 -20 -57 -37t-118 -17zM460 311q0 -6 6 -6h33q6 0 6 6v24q0 32 -22 32q-23 0 -23 -32v-24z M229 125q12 0 22 7.5t10 19.5v40q0 6 -6 6h-20q-31 0 -31 -40q0 -33 25 -33z" />
<glyph unicode="&#xe7;" horiz-adv-x="455" d="M439 328q0 -16 -15 -16l-158 -5q-15 0 -15 14v14q0 32 -22 32q-23 0 -23 -32v-150q0 -32 23 -32q22 0 22 32v15q0 15 15 15l158 -2q15 0 15 -15v-28q0 -70 -37 -114.5t-107 -57.5q-4 0 -4.5 -2.5t1.5 -4.5q44 -53 30 -113q-9 -37 -39.5 -52t-57.5 -13t-51 10 q-13 3 -11 17l7 62q1 11 16 11q17 0 21 17q6 25 -37 64q-2 2 -7 4q-70 14 -107.5 58.5t-37.5 113.5v180q0 81 56 129.5t155 48.5t154.5 -48.5t55.5 -129.5v-22z" />
<glyph unicode="&#xe8;" horiz-adv-x="455" d="M295 597q10 -18 -10 -18h-119q-10 0 -18 9l-77 94q-6 8 -3 13t12 5h142q12 0 18 -10zM439 228q0 -15 -15 -15h-212q-6 0 -6 -6v-22q0 -32 23 -32q19 0 23 25q5 14 17 13l153 -10q15 -2 14 -16q-5 -88 -55.5 -130.5t-151.5 -42.5q-100 0 -155.5 46.5t-55.5 131.5v180 q0 81 56 129.5t155 48.5t154.5 -48.5t55.5 -129.5v-122zM229 367q-23 0 -23 -32v-24q0 -6 6 -6h33q6 0 6 6v24q0 32 -22 32z" />
<glyph unicode="&#xe9;" horiz-adv-x="455" d="M359 700q9 0 12 -5t-3 -13l-77 -94q-7 -9 -18 -9h-119q-20 0 -10 18l55 93q6 10 18 10h142zM439 228q0 -15 -15 -15h-212q-6 0 -6 -6v-22q0 -32 23 -32q19 0 23 25q5 14 17 13l153 -10q15 -2 14 -16q-5 -88 -55.5 -130.5t-151.5 -42.5q-100 0 -155.5 46.5t-55.5 131.5 v180q0 81 56 129.5t155 48.5t154.5 -48.5t55.5 -129.5v-122zM229 367q-23 0 -23 -32v-24q0 -6 6 -6h33q6 0 6 6v24q0 32 -22 32z" />
<glyph unicode="&#xea;" horiz-adv-x="455" d="M231 633q-4 8 -8 0l-20 -43q-5 -11 -17 -11h-113q-9 0 -12 5.5t2 12.5l64 101q6 10 18 10h161q12 0 18 -10l66 -101q11 -18 -10 -18h-112q-12 0 -17 11zM439 228q0 -15 -15 -15h-212q-6 0 -6 -6v-22q0 -32 23 -32q19 0 23 25q5 14 17 13l153 -10q15 -2 14 -16 q-5 -88 -55.5 -130.5t-151.5 -42.5q-100 0 -155.5 46.5t-55.5 131.5v180q0 81 56 129.5t155 48.5t154.5 -48.5t55.5 -129.5v-122zM229 367q-23 0 -23 -32v-24q0 -6 6 -6h33q6 0 6 6v24q0 32 -22 32z" />
<glyph unicode="&#xeb;" horiz-adv-x="455" d="M135 559q-38 0 -62.5 24t-24.5 63t24.5 63t62.5 24t61.5 -24t23.5 -63t-23.5 -63t-61.5 -24zM328 559q-39 0 -62.5 24t-23.5 63t23.5 63t62.5 24t62.5 -24t23.5 -63t-23.5 -63t-62.5 -24zM439 228q0 -15 -15 -15h-212q-6 0 -6 -6v-22q0 -32 23 -32q19 0 23 25q5 14 17 13 l153 -10q15 -2 14 -16q-5 -88 -55.5 -130.5t-151.5 -42.5q-100 0 -155.5 46.5t-55.5 131.5v180q0 81 56 129.5t155 48.5t154.5 -48.5t55.5 -129.5v-122zM229 367q-23 0 -23 -32v-24q0 -6 6 -6h33q6 0 6 6v24q0 32 -22 32z" />
<glyph unicode="&#xec;" horiz-adv-x="237" d="M183 602q10 -18 -10 -18h-119q-10 0 -18 9l-77 94q-6 7 -3 12.5t12 5.5h142q12 0 18 -10zM38 0q-15 0 -15 15v490q0 15 15 15h158q15 0 15 -15v-490q0 -15 -15 -15h-158z" />
<glyph unicode="&#xed;" horiz-adv-x="237" d="M42 584q-20 0 -10 18l55 93q6 10 18 10h142q9 0 12 -5.5t-3 -12.5l-77 -94q-8 -9 -18 -9h-119zM38 0q-15 0 -15 15v490q0 15 15 15h158q15 0 15 -15v-490q0 -15 -15 -15h-158z" />
<glyph unicode="&#xee;" horiz-adv-x="237" d="M-39 584q-9 0 -12 5t2 13l64 101q6 10 18 10h161q12 0 18 -10l66 -101q11 -18 -10 -18h-112q-12 0 -17 11l-20 43q-4 8 -8 0l-20 -43q-5 -11 -17 -11h-113zM38 0q-15 0 -15 15v490q0 15 15 15h158q15 0 15 -15v-490q0 -15 -15 -15h-158z" />
<glyph unicode="&#xef;" horiz-adv-x="237" d="M23 564q-38 0 -62.5 24t-24.5 63t24.5 63t62.5 24t61.5 -24t23.5 -63t-23.5 -63t-61.5 -24zM216 564q-39 0 -62.5 24t-23.5 63t23.5 63t62.5 24t62.5 -24t23.5 -63t-23.5 -63t-62.5 -24zM38 0q-15 0 -15 15v490q0 15 15 15h158q15 0 15 -15v-490q0 -15 -15 -15h-158z" />
<glyph unicode="&#xf0;" horiz-adv-x="461" d="M386 570q-7 -2 -4 -8q61 -126 61 -252v-140q0 -85 -55 -131.5t-157 -46.5t-157.5 46.5t-55.5 131.5v140q0 78 52 128t127 50q22 0 35 -5q4 -1 5 0t0 5q-3 6 -9 18.5t-9 19.5q-2 6 -7 4l-75 -17q-15 -3 -18 11l-11 46q-3 16 11 19l52 12q7 2 4 8q-26 43 -45 73q-5 8 -2 13 t12 5h147q12 0 19 -10q20 -30 29 -45q3 -5 8 -3l66 16q15 3 18 -12l11 -49q3 -15 -12 -18zM255 295q0 14 -6.5 23t-17.5 9t-18 -9t-7 -23v-110q0 -14 7 -23t18 -9t17.5 9t6.5 23v110z" />
<glyph unicode="&#xf1;" horiz-adv-x="462" d="M208 603q-17 0 -29 -18q-10 -13 -21 -5l-55 40q-10 7 -7 19q26 79 96 79q33 0 67 -22q27 -17 39 -17q19 0 31 15q10 13 20 5l53 -37q12 -8 6 -21q-35 -70 -105 -70q-24 0 -55 15q-6 3 -14.5 8t-14 7t-11.5 2zM300 528q142 0 142 -180v-333q0 -15 -15 -15h-158 q-15 0 -15 15v320q0 32 -21 32q-23 0 -23 -32v-320q0 -15 -15 -15h-158q-15 0 -15 15v490q0 15 15 15h158q15 0 15 -15v-15q1 -6 14 7q29 31 76 31z" />
<glyph unicode="&#xf2;" horiz-adv-x="461" d="M297 597q10 -18 -10 -18h-119q-10 0 -18 9l-77 94q-6 8 -3 13t12 5h142q12 0 18 -10zM231 -8q-102 0 -157.5 46.5t-55.5 131.5v180q0 81 56.5 129.5t156.5 48.5t156 -48.5t56 -129.5v-180q0 -85 -55 -131.5t-157 -46.5zM231 153q11 0 17.5 9t6.5 23v150q0 14 -6.5 23 t-17.5 9t-18 -9t-7 -23v-150q0 -14 7 -23t18 -9z" />
<glyph unicode="&#xf3;" horiz-adv-x="461" d="M156 579q-20 0 -10 18l55 93q6 10 18 10h142q9 0 12 -5t-3 -13l-77 -94q-7 -9 -18 -9h-119zM231 -8q-102 0 -157.5 46.5t-55.5 131.5v180q0 81 56.5 129.5t156.5 48.5t156 -48.5t56 -129.5v-180q0 -85 -55 -131.5t-157 -46.5zM231 153q11 0 17.5 9t6.5 23v150 q0 14 -6.5 23t-17.5 9t-18 -9t-7 -23v-150q0 -14 7 -23t18 -9z" />
<glyph unicode="&#xf4;" horiz-adv-x="461" d="M75 579q-9 0 -12 5.5t2 12.5l64 101q6 10 18 10h161q12 0 18 -10l66 -101q11 -18 -10 -18h-112q-12 0 -17 11l-20 43q-4 8 -8 0l-20 -43q-5 -11 -17 -11h-113zM231 -8q-102 0 -157.5 46.5t-55.5 131.5v180q0 81 56.5 129.5t156.5 48.5t156 -48.5t56 -129.5v-180 q0 -85 -55 -131.5t-157 -46.5zM231 153q11 0 17.5 9t6.5 23v150q0 14 -6.5 23t-17.5 9t-18 -9t-7 -23v-150q0 -14 7 -23t18 -9z" />
<glyph unicode="&#xf5;" horiz-adv-x="461" d="M301 579q-24 0 -55 15q-6 3 -14.5 8t-14 7t-11.5 2q-17 0 -29 -18q-10 -13 -21 -5l-55 40q-10 7 -7 19q26 79 96 79q33 0 67 -22q27 -17 39 -17q19 0 31 15q10 13 20 5l53 -37q12 -9 1 -29q-34 -62 -100 -62zM231 -8q-102 0 -157.5 46.5t-55.5 131.5v180q0 81 56.5 129.5 t156.5 48.5t156 -48.5t56 -129.5v-180q0 -85 -55 -131.5t-157 -46.5zM231 153q11 0 17.5 9t6.5 23v150q0 14 -6.5 23t-17.5 9t-18 -9t-7 -23v-150q0 -14 7 -23t18 -9z" />
<glyph unicode="&#xf6;" horiz-adv-x="461" d="M137 559q-38 0 -62.5 24t-24.5 63t24.5 63t62.5 24t61.5 -24t23.5 -63t-23.5 -63t-61.5 -24zM330 559q-39 0 -62.5 24t-23.5 63t23.5 63t62.5 24t62.5 -24t23.5 -63t-23.5 -63t-62.5 -24zM231 -8q-102 0 -157.5 46.5t-55.5 131.5v180q0 81 56.5 129.5t156.5 48.5 t156 -48.5t56 -129.5v-180q0 -85 -55 -131.5t-157 -46.5zM231 153q11 0 17.5 9t6.5 23v150q0 14 -6.5 23t-17.5 9t-18 -9t-7 -23v-150q0 -14 7 -23t18 -9z" />
<glyph unicode="&#xf7;" horiz-adv-x="436" d="M219 402q-33 0 -56.5 23.5t-23.5 56.5q0 32 23.5 55.5t56.5 23.5q32 0 55.5 -23.5t23.5 -55.5q0 -33 -23.5 -56.5t-55.5 -23.5zM33 232q-15 0 -15 15v110q0 15 15 15h370q15 0 15 -15v-110q0 -15 -15 -15h-370zM219 48q-33 0 -56.5 23.5t-23.5 56.5q0 32 23.5 55.5 t56.5 23.5q32 0 55.5 -23.5t23.5 -55.5q0 -33 -23.5 -56.5t-55.5 -23.5z" />
<glyph unicode="&#xf8;" horiz-adv-x="461" d="M393 482q-3 -5 1 -9q49 -46 49 -123v-180q0 -85 -55 -131.5t-157 -46.5q-61 0 -103 16q-6 2 -8 -3l-14 -24q-9 -14 -21 -5l-24 18q-11 8 -5 20l12 22q3 5 -1 9q-49 44 -49 125v180q0 81 56.5 129.5t156.5 48.5q58 0 103 -17q6 -2 8 3l14 25q9 14 21 5l25 -18q10 -8 4 -20 zM206 335v-44q0 -5 2.5 -5t4.5 4l35 61q3 4 0 8q-8 8 -17 8q-11 0 -18 -9t-7 -23zM231 153q11 0 17.5 9t6.5 23v42q0 5 -2.5 5.5t-4.5 -3.5l-35 -60q-2 -5 1 -8q6 -8 17 -8z" />
<glyph unicode="&#xf9;" horiz-adv-x="462" d="M295 589q10 -18 -10 -18h-119q-10 0 -18 9l-77 94q-6 8 -3 13t12 5h142q12 0 18 -10zM252 505q0 15 15 15h158q15 0 15 -15v-490q0 -15 -15 -15h-158q-15 0 -15 15v4q0 10 -7 3q-25 -30 -83 -30q-60 0 -101 37t-41 115v361q0 15 15 15h158q15 0 15 -15v-320q0 -32 21 -32 q23 0 23 32v320z" />
<glyph unicode="&#xfa;" horiz-adv-x="462" d="M359 692q9 0 12 -5t-3 -13l-77 -94q-7 -9 -18 -9h-119q-20 0 -10 18l55 93q6 10 18 10h142zM252 505q0 15 15 15h158q15 0 15 -15v-490q0 -15 -15 -15h-158q-15 0 -15 15v4q0 10 -7 3q-25 -30 -83 -30q-60 0 -101 37t-41 115v361q0 15 15 15h158q15 0 15 -15v-320 q0 -32 21 -32q23 0 23 32v320z" />
<glyph unicode="&#xfb;" horiz-adv-x="462" d="M231 625q-4 8 -8 0l-20 -43q-5 -11 -17 -11h-113q-9 0 -12 5.5t2 12.5l64 101q6 10 18 10h161q12 0 18 -10l66 -101q11 -18 -10 -18h-112q-12 0 -17 11zM252 505q0 15 15 15h158q15 0 15 -15v-490q0 -15 -15 -15h-158q-15 0 -15 15v4q0 10 -7 3q-25 -30 -83 -30 q-60 0 -101 37t-41 115v361q0 15 15 15h158q15 0 15 -15v-320q0 -32 21 -32q23 0 23 32v320z" />
<glyph unicode="&#xfc;" horiz-adv-x="462" d="M135 551q-38 0 -62.5 24t-24.5 63t24.5 63t62.5 24t61.5 -24t23.5 -63t-23.5 -63t-61.5 -24zM328 551q-39 0 -62.5 24t-23.5 63t23.5 63t62.5 24t62.5 -24t23.5 -63t-23.5 -63t-62.5 -24zM252 505q0 15 15 15h158q15 0 15 -15v-490q0 -15 -15 -15h-158q-15 0 -15 15v4 q0 10 -7 3q-25 -30 -83 -30q-60 0 -101 37t-41 115v361q0 15 15 15h158q15 0 15 -15v-320q0 -32 21 -32q23 0 23 32v320z" />
<glyph unicode="&#xfd;" horiz-adv-x="459" d="M154 571q-20 0 -10 18l55 93q6 10 18 10h142q9 0 12 -5t-3 -13l-77 -94q-7 -9 -18 -9h-119zM34 -199q-6 0 -6 15v124q0 15 5 15h4q57 0 80.5 8.5t17.5 36.5l-125 503q-3 17 13 17h170q14 0 15 -14l19 -218q0 1 3 1t3 -1l17 218q1 14 15 14l171 -2q16 0 13 -17l-126 -503 q-13 -46 -24.5 -74t-32 -54.5t-49 -39.5t-72 -21t-105.5 -8h-6z" />
<glyph unicode="&#xfe;" horiz-adv-x="459" d="M304 528q137 0 137 -178v-180q0 -178 -137 -178q-59 0 -89 46q-5 6 -7 -1v-222q0 -15 -15 -15h-158q-15 0 -15 15v870q0 15 15 15h158q15 0 15 -15v-202q0 -10 14 8q29 37 82 37zM253 335q0 32 -21 32q-23 0 -23 -32v-150q0 -32 23 -32q21 0 21 32v150z" />
<glyph unicode="&#xff;" horiz-adv-x="459" d="M135 551q-38 0 -62.5 24t-24.5 63t24.5 63t62.5 24t61.5 -24t23.5 -63t-23.5 -63t-61.5 -24zM328 551q-39 0 -62.5 24t-23.5 63t23.5 63t62.5 24t62.5 -24t23.5 -63t-23.5 -63t-62.5 -24zM34 -199q-6 0 -6 15v124q0 15 5 15h4q57 0 80.5 8.5t17.5 36.5l-125 503 q-3 17 13 17h170q14 0 15 -14l19 -218q0 1 3 1t3 -1l17 218q1 14 15 14l171 -2q16 0 13 -17l-126 -503q-13 -46 -24.5 -74t-32 -54.5t-49 -39.5t-72 -21t-105.5 -8h-6z" />
<glyph unicode="&#x100;" horiz-adv-x="531" d="M361 877q15 0 15 -15v-95q0 -15 -15 -15h-201q-15 0 -15 15v95q0 15 15 15h201zM341 0q-15 0 -16 14l-9 75q0 6 -7 6h-88q-5 0 -7 -5l-12 -76q-2 -14 -16 -14h-157q-16 0 -13 16l142 671q3 13 17 13h182q14 0 17 -13l142 -671q3 -16 -14 -16h-161zM239 245q-1 -6 6 -6h45 q5 0 5 6l-22 170q-1 8 -5 4l-2 -4z" />
<glyph unicode="&#x101;" horiz-adv-x="467" d="M327 705q15 0 15 -15v-95q0 -15 -15 -15h-201q-15 0 -15 15v95q0 15 15 15h201zM232 528q98 0 157.5 -46t59.5 -122v-345q0 -15 -15 -15h-158q-15 0 -15 15v21q0 9 -7 2q-32 -45 -101 -46q-26 0 -47 5t-44 19.5t-36.5 49t-13.5 85.5q0 43 10.5 72.5t26.5 46t45 25.5 t56.5 11.5t70.5 2.5h34q6 0 6 6v22q0 13 -8 21.5t-21 8.5q-17 0 -24 -18q-5 -14 -16 -14l-160 2q-15 0 -15 14q5 83 63.5 130t151.5 47zM229 127q12 0 22 7.5t10 19.5v27q0 6 -6 6h-20q-14 0 -22.5 -9.5t-8.5 -22.5q0 -28 25 -28z" />
<glyph unicode="&#x102;" horiz-adv-x="531" d="M266 723q-55 0 -90 30t-40 81q-2 15 14 15h66q13 0 15 -14q6 -34 35 -34t35 34q2 14 15 14h66q16 0 14 -15q-5 -51 -40 -81t-90 -30zM341 0q-15 0 -16 14l-9 75q0 6 -7 6h-88q-5 0 -7 -5l-12 -76q-2 -14 -16 -14h-157q-16 0 -13 16l142 671q3 13 17 13h182q14 0 17 -13 l142 -671q3 -16 -14 -16h-161zM239 245q-1 -6 6 -6h45q5 0 5 6l-22 170q-1 8 -5 4l-2 -4z" />
<glyph unicode="&#x103;" horiz-adv-x="467" d="M232 551q-55 0 -90 30t-40 81q-2 15 14 15h66q13 0 15 -14q6 -34 35 -34t35 34q2 14 15 14h66q16 0 14 -15q-5 -51 -40 -81t-90 -30zM232 528q98 0 157.5 -46t59.5 -122v-345q0 -15 -15 -15h-158q-15 0 -15 15v21q0 9 -7 2q-32 -45 -101 -46q-26 0 -47 5t-44 19.5 t-36.5 49t-13.5 85.5q0 43 10.5 72.5t26.5 46t45 25.5t56.5 11.5t70.5 2.5h34q6 0 6 6v22q0 13 -8 21.5t-21 8.5q-17 0 -24 -18q-5 -14 -16 -14l-160 2q-15 0 -15 14q5 83 63.5 130t151.5 47zM229 127q12 0 22 7.5t10 19.5v27q0 6 -6 6h-20q-14 0 -22.5 -9.5t-8.5 -22.5 q0 -28 25 -28z" />
<glyph unicode="&#x104;" horiz-adv-x="531" d="M515 2q-1 -2 -3 -3t-3 -2q-59 -46 -51 -76q4 -17 21 -17q15 0 16 -11l7 -62q2 -14 -11 -17q-24 -8 -51 -10t-57.5 13t-39.5 52q-16 66 40 124q5 7 -3 7h-39q-15 0 -16 14l-9 75q0 6 -7 6h-88q-5 0 -7 -5l-12 -76q-2 -14 -16 -14h-157q-16 0 -13 16l142 671q3 13 17 13 h182q14 0 17 -13l142 -671q2 -11 -1 -14zM239 245q-1 -6 6 -6h45q5 0 5 6l-22 170q-1 8 -5 4l-2 -4z" />
<glyph unicode="&#x105;" horiz-adv-x="600" d="M232 528q98 0 157.5 -46t59.5 -122v-349v-11h-1q-62 -48 -54 -79q4 -17 21 -17q15 0 16 -11l7 -62q2 -14 -11 -17q-24 -8 -51 -10t-57.5 13t-39.5 52q-16 66 40 124q5 7 -3 7h-40q-15 0 -15 15v21q0 9 -7 2q-32 -45 -101 -46q-26 0 -47 5t-44 19.5t-36.5 49t-13.5 85.5 q0 43 10.5 72.5t26.5 46t45 25.5t56.5 11.5t70.5 2.5h34q6 0 6 6v22q0 13 -8 21.5t-21 8.5q-17 0 -24 -18q-5 -14 -16 -14l-160 2q-15 0 -15 14q5 83 63.5 130t151.5 47zM229 127q12 0 22 7.5t10 19.5v27q0 6 -6 6h-20q-14 0 -22.5 -9.5t-8.5 -22.5q0 -28 25 -28z" />
<glyph unicode="&#x106;" horiz-adv-x="476" d="M164 759q-20 0 -10 18l55 93q6 10 18 10h142q9 0 12 -5t-3 -13l-77 -94q-7 -9 -18 -9h-119zM239 -8q-99 0 -159 58t-60 155v292q0 97 59.5 154t159.5 57q99 0 159 -57t60 -154v-5q0 -16 -15 -16l-158 -5q-15 0 -15 14v25q0 17 -8.5 27t-22.5 10t-22.5 -10t-8.5 -27v-321 q0 -36 31 -36t31 36v27q0 14 15 14l158 -5q15 0 15 -10v-10q0 -97 -60 -155t-159 -58z" />
<glyph unicode="&#x107;" horiz-adv-x="455" d="M154 583q-20 0 -10 18l55 93q6 10 18 10h142q9 0 12 -5t-3 -13l-77 -94q-7 -9 -18 -9h-119zM229 -8q-100 0 -155.5 46.5t-55.5 131.5v180q0 81 56 129.5t155 48.5t154.5 -48.5t55.5 -129.5v-22q0 -16 -15 -16l-158 -5q-15 0 -15 14v14q0 32 -22 32q-23 0 -23 -32v-150 q0 -32 23 -32q22 0 22 32v15q0 15 15 15l158 -2q15 0 15 -15v-28q0 -85 -55 -131.5t-155 -46.5z" />
<glyph unicode="&#x10a;" horiz-adv-x="476" d="M239 739q-35 0 -56.5 22t-21.5 57q0 36 21.5 57.5t56.5 21.5t56 -21.5t21 -57.5q0 -35 -21 -57t-56 -22zM239 -8q-99 0 -159 58t-60 155v292q0 97 59.5 154t159.5 57q99 0 159 -57t60 -154v-5q0 -16 -15 -16l-158 -5q-15 0 -15 14v25q0 17 -8.5 27t-22.5 10t-22.5 -10 t-8.5 -27v-321q0 -36 31 -36t31 36v27q0 14 15 14l158 -5q15 0 15 -10v-10q0 -97 -60 -155t-159 -58z" />
<glyph unicode="&#x10b;" horiz-adv-x="455" d="M229 563q-35 0 -56.5 22t-21.5 57q0 36 21.5 57.5t56.5 21.5t56 -21.5t21 -57.5q0 -35 -21 -57t-56 -22zM229 -8q-100 0 -155.5 46.5t-55.5 131.5v180q0 81 56 129.5t155 48.5t154.5 -48.5t55.5 -129.5v-22q0 -16 -15 -16l-158 -5q-15 0 -15 14v14q0 32 -22 32 q-23 0 -23 -32v-150q0 -32 23 -32q22 0 22 32v15q0 15 15 15l158 -2q15 0 15 -15v-28q0 -85 -55 -131.5t-155 -46.5z" />
<glyph unicode="&#x10c;" horiz-adv-x="476" d="M158 753q-12 0 -18 10l-64 101q-5 8 -2 13t12 5h108q12 0 18 -11l23 -43q4 -9 8 0l22 43q6 11 17 11h99q9 0 12 -5t-2 -13l-65 -101q-6 -10 -18 -10h-150zM239 -8q-99 0 -159 58t-60 155v292q0 97 59.5 154t159.5 57q99 0 159 -57t60 -154v-5q0 -16 -15 -16l-158 -5 q-15 0 -15 14v25q0 17 -8.5 27t-22.5 10t-22.5 -10t-8.5 -27v-321q0 -36 31 -36t31 36v27q0 14 15 14l158 -5q15 0 15 -10v-10q0 -97 -60 -155t-159 -58z" />
<glyph unicode="&#x10d;" horiz-adv-x="455" d="M148 577q-12 0 -18 10l-64 101q-5 8 -2 13t12 5h108q12 0 18 -11l23 -43q4 -9 8 0l22 43q6 11 17 11h99q9 0 12 -5t-2 -13l-65 -101q-6 -10 -18 -10h-150zM229 -8q-100 0 -155.5 46.5t-55.5 131.5v180q0 81 56 129.5t155 48.5t154.5 -48.5t55.5 -129.5v-22q0 -16 -15 -16 l-158 -5q-15 0 -15 14v14q0 32 -22 32q-23 0 -23 -32v-150q0 -32 23 -32q22 0 22 32v15q0 15 15 15l158 -2q15 0 15 -15v-28q0 -85 -55 -131.5t-155 -46.5z" />
<glyph unicode="&#x10e;" horiz-adv-x="483" d="M153 750q-12 0 -18 10l-64 101q-5 7 -2 12.5t12 5.5h108q13 0 18 -11l23 -43q4 -9 8 0l22 43q6 11 17 11h99q9 0 12 -5.5t-2 -12.5l-65 -101q-6 -10 -18 -10h-150zM41 0q-15 0 -15 15v670q0 15 15 15h197q100 0 161.5 -55t61.5 -145v-300q0 -90 -61.5 -145t-161.5 -55 h-197zM214 167q0 -6 6 -6l14 1q16 1 27 15t12 36v275q0 23 -11 37t-29 14h-13q-6 0 -6 -6v-366z" />
<glyph unicode="&#x10f;" horiz-adv-x="698" d="M243 483q2 -4 4.5 -3t2.5 5v200q0 15 15 15h158q15 0 15 -15v-670q0 -15 -15 -15h-158q-15 0 -15 15v20q0 6 -4 4q-2 -1 -3 -3q-30 -44 -88 -44q-137 0 -137 178v180q0 178 137 178q59 0 88 -45zM514 682q6 10 18 10h142q9 0 12 -5t-3 -13l-77 -94q-8 -9 -18 -9h-119 q-20 0 -10 18zM227 153q23 0 23 32v150q0 32 -23 32q-21 0 -21 -32v-150q0 -32 21 -32z" />
<glyph unicode="&#x110;" horiz-adv-x="505" d="M260 700q100 0 161.5 -55t61.5 -145v-300q0 -90 -61.5 -145t-161.5 -55h-197q-15 0 -15 15v293q0 6 -3 6h-4q-15 0 -15 15v75q0 15 11 15h5q6 0 6 6v260q0 15 15 15h197zM295 213v275q0 23 -11 37t-29 14h-13q-6 0 -6 -6v-108q0 -6 6 -6h10q15 0 15 -15v-75 q0 -15 -15 -15h-10q-6 0 -6 -6v-141q0 -6 6 -6l14 1q16 1 27 15t12 36z" />
<glyph unicode="&#x111;" horiz-adv-x="600" d="M471 657q15 0 15 -15v-80q0 -15 -15 -15h-27q-6 0 -6 -6v-526q0 -15 -15 -15h-158q-15 0 -15 15v20q0 6 -4 4q-2 -1 -3 -3q-30 -44 -88 -44q-137 0 -137 178v180q0 178 137 178q59 0 88 -45q2 -4 4.5 -3t2.5 5v56q0 6 -6 6h-59q-15 0 -15 15v80q0 15 15 15h59q6 0 6 6v22 q0 15 15 15h158q15 0 15 -15v-22q0 -6 6 -6h27zM227 153q23 0 23 32v150q0 32 -23 32q-21 0 -21 -32v-150q0 -32 21 -32z" />
<glyph unicode="&#x112;" horiz-adv-x="444" d="M322 890q15 0 15 -15v-95q0 -15 -15 -15h-201q-15 0 -15 15v95q0 15 15 15h201zM426 554q0 -15 -15 -15h-191q-6 0 -6 -6v-96q0 -6 6 -6h99q15 0 15 -15v-131q0 -15 -15 -15h-99q-6 0 -6 -6v-97q0 -6 6 -6h191q15 0 15 -15v-131q0 -15 -15 -15h-370q-15 0 -15 15v670 q0 15 15 15h370q15 0 15 -15v-131z" />
<glyph unicode="&#x113;" horiz-adv-x="455" d="M324 705q15 0 15 -15v-95q0 -15 -15 -15h-201q-15 0 -15 15v95q0 15 15 15h201zM439 228q0 -15 -15 -15h-212q-6 0 -6 -6v-22q0 -32 23 -32q19 0 23 25q5 14 17 13l153 -10q15 -2 14 -16q-5 -88 -55.5 -130.5t-151.5 -42.5q-100 0 -155.5 46.5t-55.5 131.5v180 q0 81 56 129.5t155 48.5t154.5 -48.5t55.5 -129.5v-122zM229 367q-23 0 -23 -32v-24q0 -6 6 -6h33q6 0 6 6v24q0 32 -22 32z" />
<glyph unicode="&#x116;" horiz-adv-x="444" d="M227 744q-35 0 -56.5 22t-21.5 57q0 36 21.5 57.5t56.5 21.5t56 -21.5t21 -57.5q0 -35 -21 -57t-56 -22zM426 554q0 -15 -15 -15h-191q-6 0 -6 -6v-96q0 -6 6 -6h99q15 0 15 -15v-131q0 -15 -15 -15h-99q-6 0 -6 -6v-97q0 -6 6 -6h191q15 0 15 -15v-131q0 -15 -15 -15 h-370q-15 0 -15 15v670q0 15 15 15h370q15 0 15 -15v-131z" />
<glyph unicode="&#x117;" horiz-adv-x="455" d="M229 559q-35 0 -56.5 22t-21.5 57q0 36 21.5 57.5t56.5 21.5t56 -21.5t21 -57.5q0 -35 -21 -57t-56 -22zM439 228q0 -15 -15 -15h-212q-6 0 -6 -6v-22q0 -32 23 -32q19 0 23 25q5 14 17 13l153 -10q15 -2 14 -16q-5 -88 -55.5 -130.5t-151.5 -42.5q-100 0 -155.5 46.5 t-55.5 131.5v180q0 81 56 129.5t155 48.5t154.5 -48.5t55.5 -129.5v-122zM229 367q-23 0 -23 -32v-24q0 -6 6 -6h33q6 0 6 6v24q0 32 -22 32z" />
<glyph unicode="&#x118;" horiz-adv-x="444" d="M426 554q0 -15 -15 -15h-191q-6 0 -6 -6v-96q0 -6 6 -6h99q15 0 15 -15v-131q0 -15 -15 -15h-99q-6 0 -6 -6v-97q0 -6 6 -6h191q15 0 15 -15v-131q0 -15 -15 -15h-126q-4 0 -7 -3q-45 -39 -39 -66q4 -17 21 -17q15 0 16 -11l7 -62q2 -14 -11 -17q-24 -8 -51 -10t-57.5 13 t-39.5 52q-14 58 31 114q5 7 -4 7h-110q-15 0 -15 15v670q0 15 15 15h370q15 0 15 -15v-131z" />
<glyph unicode="&#x119;" horiz-adv-x="455" d="M439 228q0 -15 -15 -15h-212q-6 0 -6 -6v-22q0 -32 23 -32q19 0 23 25q5 14 17 13l153 -10q15 -2 14 -16q-7 -138 -133 -166q-5 -1 -7 -4q-54 -43 -46 -72q4 -17 21 -17q15 0 16 -11l7 -62q2 -14 -11 -17q-24 -8 -51 -10t-57.5 13t-39.5 52q-14 63 35 119q3 5 -2 7 q-72 13 -111 58t-39 115v180q0 81 56 129.5t155 48.5t154.5 -48.5t55.5 -129.5v-122zM229 367q-23 0 -23 -32v-24q0 -6 6 -6h33q6 0 6 6v24q0 32 -22 32z" />
<glyph unicode="&#x11a;" horiz-adv-x="444" d="M314 768q-6 -10 -18 -10h-150q-12 0 -18 10l-64 101q-5 7 -2 12.5t12 5.5h108q12 0 18 -11l23 -43q4 -9 8 0l22 43q6 11 17 11h99q9 0 12 -5.5t-2 -12.5zM426 554q0 -15 -15 -15h-191q-6 0 -6 -6v-96q0 -6 6 -6h99q15 0 15 -15v-131q0 -15 -15 -15h-99q-6 0 -6 -6v-97 q0 -6 6 -6h191q15 0 15 -15v-131q0 -15 -15 -15h-370q-15 0 -15 15v670q0 15 15 15h370q15 0 15 -15v-131z" />
<glyph unicode="&#x11b;" horiz-adv-x="455" d="M316 583q-6 -10 -18 -10h-150q-12 0 -18 10l-64 101q-5 8 -2 13t12 5h108q12 0 18 -11l23 -43q4 -9 8 0l22 43q6 11 17 11h99q9 0 12 -5t-2 -13zM439 228q0 -15 -15 -15h-212q-6 0 -6 -6v-22q0 -32 23 -32q19 0 23 25q5 14 17 13l153 -10q15 -2 14 -16 q-5 -88 -55.5 -130.5t-151.5 -42.5q-100 0 -155.5 46.5t-55.5 131.5v180q0 81 56 129.5t155 48.5t154.5 -48.5t55.5 -129.5v-122zM229 367q-23 0 -23 -32v-24q0 -6 6 -6h33q6 0 6 6v24q0 32 -22 32z" />
<glyph unicode="&#x11e;" horiz-adv-x="476" d="M239 731q-55 0 -90 30t-40 81q-1 15 14 15h66q13 0 15 -14q6 -34 35 -34t35 34q2 14 15 14h66q15 0 14 -15q-5 -51 -40 -81t-90 -30zM239 -8q-99 0 -159 55.5t-60 148.5v309q0 93 60 148t159 55t159 -56t60 -149v-33q0 -15 -15 -15h-158q-15 0 -15 15v35q0 19 -8.5 30.5 t-22.5 11.5t-22.5 -11.5t-8.5 -30.5v-310q0 -19 8.5 -30.5t22.5 -11.5t22.5 11.5t8.5 30.5v49q0 6 -6 6h-8q-15 0 -15 15v115q0 15 15 15h187q15 0 15 -15v-184q0 -93 -60 -148.5t-159 -55.5z" />
<glyph unicode="&#x11f;" horiz-adv-x="460" d="M232 543q-55 0 -90 30t-40 81q-2 15 14 15h66q13 0 15 -14q6 -34 35 -34t35 34q2 14 15 14h66q16 0 14 -15q-5 -51 -40 -81t-90 -30zM250 505q0 15 15 15h158q15 0 15 -15v-471q0 -48 -7.5 -84t-28.5 -70t-56 -54.5t-94 -30t-139 -3.5q-15 0 -15 15v133q0 16 16 14 q70 -4 98.5 11t35.5 49q0 3 -6.5 5t-9.5 0q-28 -27 -77 -27q-137 0 -137 178v180q0 178 137 178q58 0 88 -44q5 -6 7 1v20zM227 153q23 0 23 32v150q0 32 -23 32q-21 0 -21 -32v-150q0 -32 21 -32z" />
<glyph unicode="&#x120;" horiz-adv-x="476" d="M239 739q-35 0 -56.5 22t-21.5 57q0 36 21.5 57.5t56.5 21.5t56 -21.5t21 -57.5q0 -35 -21 -57t-56 -22zM239 -8q-99 0 -159 55.5t-60 148.5v309q0 93 60 148t159 55t159 -56t60 -149v-33q0 -15 -15 -15h-158q-15 0 -15 15v35q0 19 -8.5 30.5t-22.5 11.5t-22.5 -11.5 t-8.5 -30.5v-310q0 -19 8.5 -30.5t22.5 -11.5t22.5 11.5t8.5 30.5v49q0 6 -6 6h-8q-15 0 -15 15v115q0 15 15 15h187q15 0 15 -15v-184q0 -93 -60 -148.5t-159 -55.5z" />
<glyph unicode="&#x121;" horiz-adv-x="460" d="M232 551q-35 0 -56.5 22t-21.5 57q0 36 21.5 57.5t56.5 21.5t56 -21.5t21 -57.5q0 -35 -21 -57t-56 -22zM250 505q0 15 15 15h158q15 0 15 -15v-471q0 -48 -7.5 -84t-28.5 -70t-56 -54.5t-94 -30t-139 -3.5q-15 0 -15 15v133q0 16 16 14q70 -4 98.5 11t35.5 49 q0 3 -6.5 5t-9.5 0q-28 -27 -77 -27q-137 0 -137 178v180q0 178 137 178q58 0 88 -44q5 -6 7 1v20zM227 153q23 0 23 32v150q0 32 -23 32q-21 0 -21 -32v-150q0 -32 21 -32z" />
<glyph unicode="&#x122;" horiz-adv-x="476" d="M239 -8q-99 0 -159 55.5t-60 148.5v309q0 93 60 148t159 55t159 -56t60 -149v-33q0 -15 -15 -15h-158q-15 0 -15 15v35q0 19 -8.5 30.5t-22.5 11.5t-22.5 -11.5t-8.5 -30.5v-310q0 -19 8.5 -30.5t22.5 -11.5t22.5 11.5t8.5 30.5v49q0 6 -6 6h-8q-15 0 -15 15v115 q0 15 15 15h187q15 0 15 -15v-184q0 -93 -60 -148.5t-159 -55.5zM132 -179q-20 0 -10 18l55 93q6 10 18 10h142q9 0 12 -5t-3 -13l-77 -94q-7 -9 -18 -9h-119z" />
<glyph unicode="&#x123;" horiz-adv-x="460" d="M336 691q20 0 10 -18l-55 -93q-6 -10 -18 -10h-142q-9 0 -12 5t3 13l77 94q7 9 18 9h119zM250 505q0 15 15 15h158q15 0 15 -15v-471q0 -48 -7.5 -84t-28.5 -70t-56 -54.5t-94 -30t-139 -3.5q-15 0 -15 15v133q0 16 16 14q70 -4 98.5 11t35.5 49q0 3 -6.5 5t-9.5 0 q-28 -27 -77 -27q-137 0 -137 178v180q0 178 137 178q58 0 88 -44q5 -6 7 1v20zM227 153q23 0 23 32v150q0 32 -23 32q-21 0 -21 -32v-150q0 -32 21 -32z" />
<glyph unicode="&#x126;" horiz-adv-x="486" d="M493 632q15 0 15 -15v-95q0 -15 -15 -15h-27q-6 0 -6 -6v-486q0 -15 -15 -15h-158q-15 0 -15 15v249q0 6 -6 6h-46q-6 0 -6 -6v-249q0 -15 -15 -15h-158q-15 0 -15 15v486q0 6 -6 6h-26q-15 0 -15 15v95q0 15 15 15h26q6 0 6 6v47q0 15 15 15h158q15 0 15 -15v-47 q0 -6 6 -6h46q6 0 6 6v47q0 15 15 15h158q15 0 15 -15v-47q0 -6 6 -6h27zM266 431q6 0 6 6v64q0 6 -6 6h-46q-6 0 -6 -6v-64q0 -6 6 -6h46z" />
<glyph unicode="&#x127;" horiz-adv-x="462" d="M300 528q142 0 142 -180v-333q0 -15 -15 -15h-158q-15 0 -15 15v320q0 32 -21 32q-23 0 -23 -32v-320q0 -15 -15 -15h-158q-15 0 -15 15v525q0 6 -6 6h-26q-15 0 -15 15v80q0 15 15 15h26q6 0 6 6v23q0 15 15 15h158q15 0 15 -15v-23q0 -6 6 -6h60q15 0 15 -15v-80 q0 -15 -15 -15h-60q-6 0 -6 -6v-50q1 -6 14 7q29 31 76 31z" />
<glyph unicode="&#x12a;" horiz-adv-x="240" d="M14 765q-15 0 -15 15v95q0 15 15 15h201q15 0 15 -15v-95q0 -15 -15 -15h-201zM41 0q-15 0 -15 15v670q0 15 15 15h158q15 0 15 -15v-670q0 -15 -15 -15h-158z" />
<glyph unicode="&#x12b;" horiz-adv-x="237" d="M11 585q-15 0 -15 15v95q0 15 15 15h201q15 0 15 -15v-95q0 -15 -15 -15h-201zM38 0q-15 0 -15 15v490q0 15 15 15h158q15 0 15 -15v-490q0 -15 -15 -15h-158z" />
<glyph unicode="&#x12e;" horiz-adv-x="240" d="M214 11q0 -11 -9 -18q-53 -44 -45 -72q4 -17 21 -17q15 0 16 -11l7 -62q2 -14 -11 -17q-24 -8 -51 -10t-57.5 13t-39.5 52q-16 66 40 124q5 7 -3 7h-41q-15 0 -15 15v670q0 15 15 15h158q15 0 15 -15v-674z" />
<glyph unicode="&#x12f;" horiz-adv-x="224" d="M112 564q-35 0 -56.5 22t-21.5 57q0 36 21.5 57.5t56.5 21.5t56 -21.5t21 -57.5q0 -35 -21 -57t-56 -22zM18 505q0 15 15 15h158q15 0 15 -15v-494v-11h-1q-62 -48 -54 -79q4 -17 21 -17q15 0 16 -11l7 -62q2 -14 -11 -17q-24 -8 -51 -10t-57.5 13t-39.5 52 q-16 66 40 124q5 7 -3 7h-40q-15 0 -15 15v490z" />
<glyph unicode="&#x130;" horiz-adv-x="240" d="M120 744q-35 0 -56.5 22t-21.5 57q0 36 21.5 57.5t56.5 21.5t56 -21.5t21 -57.5q0 -35 -21 -57t-56 -22zM41 0q-15 0 -15 15v670q0 15 15 15h158q15 0 15 -15v-670q0 -15 -15 -15h-158z" />
<glyph unicode="&#x131;" horiz-adv-x="237" d="M38 0q-15 0 -15 15v490q0 15 15 15h158q15 0 15 -15v-490q0 -15 -15 -15h-158z" />
<glyph unicode="&#x133;" horiz-adv-x="466" d="M350 542q-46 0 -75 30.5t-29 74.5q0 43 31.5 74t72.5 31q40 0 72 -31t32 -74q0 -44 -29.5 -74.5t-74.5 -30.5zM122 540q-47 0 -75.5 29t-28.5 76t28.5 76t75.5 29t75.5 -29t28.5 -76t-28.5 -76t-75.5 -29zM43 0q-15 0 -15 15v490q0 15 15 15h158q15 0 15 -15v-490 q0 -15 -15 -15h-158zM176 -201q-16 0 -16 15v129q0 15 16 15q47 -2 63.5 15.5t16.5 55.5v476q0 15 15 15h158q15 0 15 -15v-476q0 -39 -1 -60t-6 -50t-15.5 -44.5t-29.5 -33t-47.5 -25.5t-70.5 -13t-98 -4z" />
<glyph unicode="&#x136;" horiz-adv-x="517" d="M41 0q-15 0 -15 15v670q0 15 15 15h158q15 0 15 -15v-198q0 -4 3 -4.5t4 3.5l84 202q5 12 18 12h165q20 0 12 -18l-141 -295q-1 -4 0 -8l145 -362q6 -17 -12 -17h-166q-14 0 -18 12l-77 205q-1 3 -2.5 4t-3 0t-2.5 -4l-8 -20q-1 -2 -1 -8v-174q0 -15 -15 -15h-158z M172 -171q-20 0 -10 18l55 93q6 10 18 10h142q9 0 12 -5t-3 -13l-77 -94q-7 -9 -18 -9h-119z" />
<glyph unicode="&#x137;" horiz-adv-x="479" d="M37 0q-15 0 -15 15v670q0 15 15 15h158q15 0 15 -15v-278q0 -5 3 -5t4 4l46 103q4 11 17 11h162q9 0 12 -5t-2 -13l-112 -183q-2 -3 0 -8l122 -294q7 -17 -12 -17h-162q-13 0 -17 12l-46 142q-3 10 -7 0l-6 -14q-2 -4 -2 -8v-117q0 -15 -15 -15h-158zM138 -171 q-20 0 -10 18l55 93q6 10 18 10h142q9 0 12 -5t-3 -13l-77 -94q-7 -9 -18 -9h-119z" />
<glyph unicode="&#x139;" horiz-adv-x="446" d="M49 751q-20 0 -10 18l55 93q6 10 18 10h142q9 0 12 -5t-3 -13l-77 -94q-7 -9 -18 -9h-119zM41 0q-15 0 -15 15v670q0 15 15 15h158q15 0 15 -15v-518q0 -6 6 -6h195q15 0 15 -15v-131q0 -15 -15 -15h-374z" />
<glyph unicode="&#x13a;" horiz-adv-x="228" d="M41 751q-20 0 -10 18l55 93q6 10 18 10h142q9 0 12 -5t-3 -13l-77 -94q-7 -9 -18 -9h-119zM35 0q-15 0 -15 15v670q0 15 15 15h158q15 0 15 -15v-670q0 -15 -15 -15h-158z" />
<glyph unicode="&#x13b;" horiz-adv-x="446" d="M41 0q-15 0 -15 15v670q0 15 15 15h158q15 0 15 -15v-518q0 -6 6 -6h195q15 0 15 -15v-131q0 -15 -15 -15h-374zM103 -171q-20 0 -10 18l55 93q6 10 18 10h142q9 0 12 -5t-3 -13l-77 -94q-8 -9 -18 -9h-119z" />
<glyph unicode="&#x13c;" horiz-adv-x="228" d="M35 0q-15 0 -15 15v670q0 15 15 15h158q15 0 15 -15v-670q0 -15 -15 -15h-158zM-31 -171q-20 0 -10 18l55 93q6 10 18 10h142q9 0 12 -5t-3 -13l-77 -94q-8 -9 -18 -9h-119z" />
<glyph unicode="&#x13d;" horiz-adv-x="446" d="M43 745q-12 0 -18 10l-64 101q-5 8 -2 13t12 5h108q13 0 18 -11l23 -43q4 -9 8 0l22 43q6 11 17 11h99q9 0 12 -5t-2 -13l-65 -101q-6 -10 -18 -10h-150zM41 0q-15 0 -15 15v670q0 15 15 15h158q15 0 15 -15v-518q0 -6 6 -6h195q15 0 15 -15v-131q0 -15 -15 -15h-374z " />
<glyph unicode="&#x13e;" horiz-adv-x="228" d="M35 745q-12 0 -18 10l-64 101q-5 8 -2 13t12 5h108q13 0 18 -11l23 -43q4 -9 8 0l22 43q6 11 17 11h99q9 0 12 -5t-2 -13l-65 -101q-6 -10 -18 -10h-150zM35 0q-15 0 -15 15v670q0 15 15 15h158q15 0 15 -15v-670q0 -15 -15 -15h-158z" />
<glyph unicode="&#x141;" horiz-adv-x="446" d="M214 167q0 -6 6 -6h195q15 0 15 -15v-131q0 -15 -15 -15h-374q-15 0 -15 15v125q0 11 -7 4l-26 -23q-12 -10 -21 1l-72 84q-10 11 1 21l122 106q3 3 3 7v345q0 15 15 15h158q15 0 15 -15v-174q0 -11 7 -4l83 73q12 10 21 -1l72 -84q10 -12 -1 -21l-179 -156q-3 -3 -3 -7 v-144z" />
<glyph unicode="&#x142;" horiz-adv-x="228" d="M341 404q8 -13 -6 -20l-123 -66q-4 -1 -4 -7v-296q0 -15 -15 -15h-158q-15 0 -15 15v192q0 7 -7 4l-29 -15q-14 -7 -20 6l-48 93q-6 14 6 20l94 51q4 1 4 7v312q0 15 15 15h158q15 0 15 -15v-206q0 -7 7 -4l54 29q12 6 20 -6z" />
<glyph unicode="&#x143;" horiz-adv-x="528" d="M187 764q-20 0 -10 18l55 93q6 10 18 10h142q9 0 12 -5.5t-3 -12.5l-77 -94q-8 -9 -18 -9h-119zM41 0q-15 0 -15 15v670q0 15 15 15h176q13 0 16 -13l77 -305q1 -7 6 -3q1 1 1 3l-1 303q0 15 15 15h156q15 0 15 -15v-670q0 -15 -15 -15h-178q-13 0 -16 13l-76 307 q-1 3 -4 2.5t-3 -3.5l2 -304q0 -15 -15 -15h-156z" />
<glyph unicode="&#x144;" horiz-adv-x="462" d="M363 692q9 0 12 -5t-3 -13l-77 -94q-7 -9 -18 -9h-119q-20 0 -10 18l55 93q6 10 18 10h142zM300 528q142 0 142 -180v-333q0 -15 -15 -15h-158q-15 0 -15 15v320q0 32 -21 32q-23 0 -23 -32v-320q0 -15 -15 -15h-158q-15 0 -15 15v490q0 15 15 15h158q15 0 15 -15v-15 q1 -6 14 7q29 31 76 31z" />
<glyph unicode="&#x145;" horiz-adv-x="528" d="M41 0q-15 0 -15 15v670q0 15 15 15h176q13 0 16 -13l77 -305q1 -7 6 -3q1 1 1 3l-1 303q0 15 15 15h156q15 0 15 -15v-670q0 -15 -15 -15h-178q-13 0 -16 13l-76 307q-1 3 -4 2.5t-3 -3.5l2 -304q0 -15 -15 -15h-156zM170 -171q-20 0 -10 18l55 93q6 10 18 10h142 q9 0 12 -5t-3 -13l-77 -94q-7 -9 -18 -9h-119z" />
<glyph unicode="&#x146;" horiz-adv-x="462" d="M300 528q142 0 142 -180v-333q0 -15 -15 -15h-158q-15 0 -15 15v320q0 32 -21 32q-23 0 -23 -32v-320q0 -15 -15 -15h-158q-15 0 -15 15v490q0 15 15 15h158q15 0 15 -15v-15q1 -6 14 7q29 31 76 31zM129 -171q-20 0 -10 18l55 93q6 10 18 10h142q9 0 12 -5t-3 -13 l-77 -94q-8 -9 -18 -9h-119z" />
<glyph unicode="&#x147;" horiz-adv-x="528" d="M181 758q-12 0 -18 10l-64 101q-5 7 -2 12.5t12 5.5h108q13 0 18 -11l23 -43q4 -9 8 0l22 43q6 11 17 11h99q9 0 12 -5.5t-2 -12.5l-65 -101q-6 -10 -18 -10h-150zM41 0q-15 0 -15 15v670q0 15 15 15h176q13 0 16 -13l77 -305q1 -7 6 -3q1 1 1 3l-1 303q0 15 15 15h156 q15 0 15 -15v-670q0 -15 -15 -15h-178q-13 0 -16 13l-76 307q-1 3 -4 2.5t-3 -3.5l2 -304q0 -15 -15 -15h-156z" />
<glyph unicode="&#x148;" horiz-adv-x="462" d="M320 575q-6 -10 -18 -10h-150q-12 0 -18 10l-64 101q-5 8 -2 13t12 5h108q12 0 18 -11l23 -43q4 -9 8 0l22 43q6 11 17 11h99q9 0 12 -5t-2 -13zM300 528q142 0 142 -180v-333q0 -15 -15 -15h-158q-15 0 -15 15v320q0 32 -21 32q-23 0 -23 -32v-320q0 -15 -15 -15h-158 q-15 0 -15 15v490q0 15 15 15h158q15 0 15 -15v-15q1 -6 14 7q29 31 76 31z" />
<glyph unicode="&#x14a;" horiz-adv-x="528" d="M316 685q0 15 15 15h156q15 0 15 -15v-685q0 -34 -1.5 -55t-7 -46.5t-16 -40.5t-29 -30.5t-45.5 -23t-66 -12t-90 -3.5q-16 0 -16 15l-1 129q0 15 16 15q31 -1 40.5 10.5t9.5 37.5q0 6 -1 8l-78 316q-1 3 -4 2.5t-3 -3.5l2 -304q0 -15 -15 -15h-156q-15 0 -15 15v670 q0 15 15 15h176q13 0 16 -13l77 -305q1 -7 6 -3q1 1 1 3z" />
<glyph unicode="&#x14b;" horiz-adv-x="462" d="M442 29v-18v-39.5t-2 -35.5t-6.5 -34.5t-12.5 -29t-20.5 -26.5t-31.5 -20t-43.5 -16t-57.5 -8.5t-74 -2.5q-16 0 -16 15v127q0 14 16 14q37 1 48 13t12 39v328q0 32 -21 32q-23 0 -23 -32v-320q0 -15 -15 -15h-158q-15 0 -15 15v490q0 15 15 15h158q15 0 15 -15v-15 q0 -6 4 -4q2 1 3 3q30 39 83 39q142 0 142 -180v-319z" />
<glyph unicode="&#x14c;" horiz-adv-x="484" d="M136 760q-15 0 -15 15v95q0 15 15 15h201q15 0 15 -15v-95q0 -15 -15 -15h-201zM242 -8q-101 0 -161.5 58t-60.5 156v288q0 98 60.5 156t161.5 58t161.5 -58t60.5 -156v-288q0 -98 -60.5 -156t-161.5 -58zM242 153q34 0 34 45v304q0 45 -34 45t-34 -45v-304q0 -45 34 -45 z" />
<glyph unicode="&#x14d;" horiz-adv-x="461" d="M125 580q-15 0 -15 15v95q0 15 15 15h201q15 0 15 -15v-95q0 -15 -15 -15h-201zM231 -8q-102 0 -157.5 46.5t-55.5 131.5v180q0 81 56.5 129.5t156.5 48.5t156 -48.5t56 -129.5v-180q0 -85 -55 -131.5t-157 -46.5zM231 153q11 0 17.5 9t6.5 23v150q0 14 -6.5 23t-17.5 9 t-18 -9t-7 -23v-150q0 -14 7 -23t18 -9z" />
<glyph unicode="&#x150;" horiz-adv-x="484" d="M104 757q-18 0 -11 18l40 92q4 11 17 11h128q19 0 11 -18l-47 -92q-6 -11 -17 -11h-121zM285 757q-8 0 -11.5 5.5t0.5 12.5l47 92q5 11 18 11h119q19 0 11 -18l-47 -92q-6 -11 -17 -11h-120zM242 -8q-101 0 -161.5 58t-60.5 156v288q0 98 60.5 156t161.5 58t161.5 -58 t60.5 -156v-288q0 -98 -60.5 -156t-161.5 -58zM242 153q34 0 34 45v304q0 45 -34 45t-34 -45v-304q0 -45 34 -45z" />
<glyph unicode="&#x151;" horiz-adv-x="461" d="M93 577q-18 0 -11 18l40 92q4 11 17 11h128q19 0 11 -18l-47 -92q-6 -11 -17 -11h-121zM274 577q-8 0 -11.5 5.5t0.5 12.5l47 92q6 11 18 11h119q19 0 11 -18l-47 -92q-6 -11 -17 -11h-120zM231 -8q-102 0 -157.5 46.5t-55.5 131.5v180q0 81 56.5 129.5t156.5 48.5 t156 -48.5t56 -129.5v-180q0 -85 -55 -131.5t-157 -46.5zM231 153q11 0 17.5 9t6.5 23v150q0 14 -6.5 23t-17.5 9t-18 -9t-7 -23v-150q0 -14 7 -23t18 -9z" />
<glyph unicode="&#x152;" horiz-adv-x="694" d="M676 554q0 -15 -15 -15h-191q-6 0 -6 -6v-96q0 -6 6 -6h99q15 0 15 -15v-131q0 -15 -15 -15h-99q-6 0 -6 -6v-97q0 -6 6 -6h191q15 0 15 -15v-131q0 -15 -15 -15h-370q-15 0 -15 8q0 6 -7 3q-32 -19 -77 -19q-67 0 -119.5 60t-52.5 154v288q0 94 52.5 154t119.5 60 q46 0 78 -20q5 -3 7 3q3 9 14 9h370q15 0 15 -15v-131zM242 153q34 0 34 45v304q0 45 -34 45t-34 -45v-304q0 -45 34 -45z" />
<glyph unicode="&#x153;" horiz-adv-x="714" d="M698 228q0 -15 -15 -15h-212q-6 0 -6 -6v-22q0 -32 23 -32q19 0 23 25q5 14 17 13l153 -9q15 -2 14 -16q-11 -174 -207 -174q-75 0 -124 47q-4 4 -8 0q-49 -47 -125 -47q-102 0 -157.5 46.5t-55.5 131.5v180q0 81 56.5 129.5t156.5 48.5q77 0 125 -50q4 -3 8 0 q48 50 124 50q99 0 154.5 -48.5t55.5 -129.5v-122zM255 335q0 14 -6.5 23t-17.5 9t-18 -9t-7 -23v-150q0 -14 7 -23t18 -9t17.5 9t6.5 23v150zM488 367q-23 0 -23 -32v-24q0 -6 6 -6h33q6 0 6 6v24q0 32 -22 32z" />
<glyph unicode="&#x154;" horiz-adv-x="490" d="M363 872q9 0 12 -5t-3 -13l-77 -94q-7 -9 -18 -9h-119q-20 0 -10 18l55 93q6 10 18 10h142zM299 0q-13 0 -16 13l-61 251q-2 5 -4 5q-4 0 -4 -6v-248q0 -15 -15 -15h-158q-15 0 -15 15v670q0 15 15 15h225q91 0 148 -62t57 -161q0 -112 -74 -169q-4 -3 -3 -8l81 -283 q5 -17 -13 -17h-163zM233 539h-13q-6 0 -6 -6v-115q0 -6 6 -6h13q22 0 36 16.5t14 46.5q0 31 -13.5 47.5t-36.5 16.5z" />
<glyph unicode="&#x155;" horiz-adv-x="346" d="M315 693q9 0 12 -5.5t-3 -12.5l-77 -94q-7 -9 -18 -9h-119q-20 0 -10 18l55 93q6 10 18 10h142zM293 527q24 0 41 -10q9 -5 7 -19l-25 -157q-2 -13 -17 -10q-32 8 -58 -4q-31 -15 -31 -54v-257q0 -15 -15 -15h-158q-15 0 -15 15v489q0 15 15 15h158q15 0 15 -15v-21 q0 -4 2 -5t4 3q25 45 77 45z" />
<glyph unicode="&#x156;" horiz-adv-x="490" d="M218 269q-4 0 -4 -6v-248q0 -15 -15 -15h-158q-15 0 -15 15v670q0 15 15 15h225q91 0 148 -62t57 -161q0 -112 -74 -169q-4 -3 -3 -8l81 -283q5 -17 -13 -17h-163q-13 0 -16 13l-61 251q-2 5 -4 5zM233 539h-13q-6 0 -6 -6v-115q0 -6 6 -6h13q22 0 36 16.5t14 46.5 q0 31 -13.5 47.5t-36.5 16.5zM141 -171q-20 0 -10 18l55 93q6 10 18 10h142q9 0 12 -5t-3 -13l-77 -94q-8 -9 -18 -9h-119z" />
<glyph unicode="&#x157;" horiz-adv-x="346" d="M293 527q24 0 41 -10q9 -5 7 -19l-25 -157q-2 -13 -17 -10q-32 8 -58 -4q-31 -15 -31 -54v-257q0 -15 -15 -15h-158q-15 0 -15 15v489q0 15 15 15h158q15 0 15 -15v-21q0 -4 2 -5t4 3q25 45 77 45zM-32 -171q-20 0 -10 18l55 93q6 10 18 10h142q9 0 12 -5t-3 -13l-77 -94 q-7 -9 -18 -9h-119z" />
<glyph unicode="&#x158;" horiz-adv-x="490" d="M320 755q-6 -10 -18 -10h-150q-12 0 -18 10l-64 101q-5 8 -2 13t12 5h108q12 0 18 -11l23 -43q4 -9 8 0l22 43q6 11 17 11h99q9 0 12 -5t-2 -13zM299 0q-13 0 -16 13l-61 251q-2 5 -4 5q-4 0 -4 -6v-248q0 -15 -15 -15h-158q-15 0 -15 15v670q0 15 15 15h225 q91 0 148 -62t57 -161q0 -112 -74 -169q-4 -3 -3 -8l81 -283q5 -17 -13 -17h-163zM233 539h-13q-6 0 -6 -6v-115q0 -6 6 -6h13q22 0 36 16.5t14 46.5q0 31 -13.5 47.5t-36.5 16.5z" />
<glyph unicode="&#x159;" horiz-adv-x="346" d="M272 576q-6 -10 -18 -10h-150q-12 0 -18 10l-64 101q-5 7 -2 12.5t12 5.5h108q12 0 18 -11l23 -43q4 -9 8 0l22 43q6 11 17 11h99q9 0 12 -5.5t-2 -12.5zM210 484q0 -4 2 -4.5t4 3.5q26 44 77 44q24 0 41 -10q9 -5 7 -19l-25 -157q-2 -13 -17 -10q-32 8 -58 -4 q-31 -15 -31 -54v-257q0 -15 -15 -15h-158q-15 0 -15 15v489q0 15 15 15h158q15 0 15 -15v-21z" />
<glyph unicode="&#x15a;" horiz-adv-x="463" d="M156 759q-20 0 -10 18l55 93q6 10 18 10h142q9 0 12 -5t-3 -13l-77 -94q-7 -9 -18 -9h-119zM235 -8q-96 0 -154.5 52.5t-58.5 135.5v34q0 15 15 15h156q15 0 15 -15v-25q0 -16 8 -26t20 -10t20 9t8 23q0 17 -16 33.5t-67 52.5q-37 26 -57.5 42.5t-49 47.5t-42.5 67.5 t-14 80.5q0 89 58.5 144t154.5 55q97 0 155.5 -55t58.5 -144v-22q0 -15 -15 -15h-155q-15 0 -15 15v26q0 15 -8 24.5t-21 9.5t-20.5 -10t-7.5 -27q0 -20 16 -38.5t64 -53.5q93 -68 129.5 -112t36.5 -115q0 -91 -59 -145t-155 -54z" />
<glyph unicode="&#x15b;" horiz-adv-x="438" d="M140 579q-20 0 -10 18l55 93q6 10 18 10h142q9 0 12 -5t-3 -13l-77 -94q-7 -9 -18 -9h-119zM223 -8q-96 0 -153.5 45t-57.5 119v3q0 15 15 15h150q15 0 15 -6v-7q0 -15 9 -23t20 -8q19 0 19 19q0 8 -5 14t-16 11t-20.5 8t-26 7.5t-25.5 7.5q-128 41 -128 161q0 78 54 124 t142 46q92 0 147 -50t55 -132q0 -10 -15 -10h-145q-15 0 -15 11v10q0 26 -22 26q-21 0 -21 -26q0 -30 70 -51q34 -10 56.5 -19.5t49 -27t40.5 -45t14 -63.5q0 -74 -56.5 -116.5t-149.5 -42.5z" />
<glyph unicode="&#x15e;" horiz-adv-x="463" d="M449 191q0 -75 -40 -125t-109 -66q-8 -2 -3 -8q45 -53 31 -114q-9 -37 -39.5 -52t-57.5 -13t-51 10q-13 3 -11 17l7 62q1 11 16 11q17 0 21 17q6 27 -39 66q-2 2 -7 4q-68 17 -106.5 65t-38.5 115v34q0 15 15 15h156q15 0 15 -15v-25q0 -16 8 -26t20 -10t20 9t8 23 q0 17 -16 33.5t-67 52.5q-37 26 -57.5 42.5t-49 47.5t-42.5 67.5t-14 80.5q0 89 58.5 144t154.5 55q97 0 155.5 -55t58.5 -144v-22q0 -15 -15 -15h-155q-15 0 -15 15v26q0 15 -8 24.5t-21 9.5t-20.5 -10t-7.5 -27q0 -20 16 -38.5t64 -53.5q93 -68 129.5 -112t36.5 -115z" />
<glyph unicode="&#x15f;" horiz-adv-x="438" d="M429 151q0 -60 -37.5 -99.5t-102.5 -52.5q-9 -2 -3 -8q44 -53 30 -113q-9 -37 -39.5 -52t-57.5 -13t-51 10q-13 3 -11 17l7 62q1 11 16 11q17 0 21 17q6 25 -37 65q-2 3 -7 4q-68 14 -106.5 55.5t-38.5 101.5v3q0 15 15 15h150q15 0 15 -6v-7q0 -15 9 -23t20 -8 q19 0 19 19q0 8 -5 14t-16 11t-20.5 8t-26 7.5t-25.5 7.5q-128 41 -128 161q0 78 54 124t142 46q92 0 147 -50t55 -132q0 -10 -15 -10h-145q-15 0 -15 11v10q0 26 -22 26q-21 0 -21 -26q0 -30 70 -51q34 -10 56.5 -19.5t49 -27t40.5 -45t14 -63.5z" />
<glyph unicode="&#x160;" horiz-adv-x="463" d="M150 753q-12 0 -18 10l-64 101q-5 8 -2 13t12 5h108q12 0 18 -11l23 -43q4 -9 8 0l22 43q6 11 17 11h99q9 0 12 -5t-2 -13l-65 -101q-6 -10 -18 -10h-150zM235 -8q-96 0 -154.5 52.5t-58.5 135.5v34q0 15 15 15h156q15 0 15 -15v-25q0 -16 8 -26t20 -10t20 9t8 23 q0 17 -16 33.5t-67 52.5q-37 26 -57.5 42.5t-49 47.5t-42.5 67.5t-14 80.5q0 89 58.5 144t154.5 55q97 0 155.5 -55t58.5 -144v-22q0 -15 -15 -15h-155q-15 0 -15 15v26q0 15 -8 24.5t-21 9.5t-20.5 -10t-7.5 -27q0 -20 16 -38.5t64 -53.5q93 -68 129.5 -112t36.5 -115 q0 -91 -59 -145t-155 -54z" />
<glyph unicode="&#x161;" horiz-adv-x="438" d="M134 573q-12 0 -18 10l-64 101q-5 8 -2 13t12 5h108q12 0 18 -11l23 -43q4 -9 8 0l22 43q6 11 17 11h99q9 0 12 -5t-2 -13l-65 -101q-6 -10 -18 -10h-150zM223 -8q-96 0 -153.5 45t-57.5 119v3q0 15 15 15h150q15 0 15 -6v-7q0 -15 9 -23t20 -8q19 0 19 19q0 8 -5 14 t-16 11t-20.5 8t-26 7.5t-25.5 7.5q-128 41 -128 161q0 78 54 124t142 46q92 0 147 -50t55 -132q0 -10 -15 -10h-145q-15 0 -15 11v10q0 26 -22 26q-21 0 -21 -26q0 -30 70 -51q34 -10 56.5 -19.5t49 -27t40.5 -45t14 -63.5q0 -74 -56.5 -116.5t-149.5 -42.5z" />
<glyph unicode="&#x162;" horiz-adv-x="499" d="M466 700q15 0 15 -15v-131q0 -15 -15 -15h-118q-6 0 -6 -6v-518q0 -15 -15 -15h-13q-8 0 -3 -7q39 -51 25 -107q-9 -37 -39.5 -52t-57.5 -13t-51 10q-13 3 -11 17l7 62q1 11 16 11q17 0 21 17q6 23 -31 59q-3 3 -7 3h-14q-15 0 -15 15v518q0 6 -6 6h-115q-15 0 -15 15 v131q0 15 15 15h433z" />
<glyph unicode="&#x163;" horiz-adv-x="307" d="M295 405q0 -15 -15 -15h-42q-6 0 -6 -6v-192q0 -32 31 -30h2q15 0 15 -15v-132q0 -15 -15 -15h-6q-9 0 -4 -7q33 -48 21 -101q-9 -37 -39.5 -52t-57.5 -13t-51 10q-13 3 -11 17l7 62q1 11 16 11q17 0 21 17q6 25 -36 63q-3 3 -7 4q-66 24 -66 105v268q0 6 -6 6h-27 q-15 0 -15 15v100q0 15 15 15h27q6 0 6 6v107q0 15 15 15h150q15 0 15 -15v-107q0 -6 6 -6h42q15 0 15 -15v-100z" />
<glyph unicode="&#x164;" horiz-adv-x="499" d="M339 755q-6 -10 -18 -10h-150q-12 0 -18 10l-64 101q-5 8 -2 13t12 5h108q13 0 18 -11l23 -43q4 -9 8 0l22 43q6 11 17 11h99q9 0 12 -5t-2 -13zM466 700q15 0 15 -15v-131q0 -15 -15 -15h-118q-6 0 -6 -6v-518q0 -15 -15 -15h-158q-15 0 -15 15v518q0 6 -6 6h-115 q-15 0 -15 15v131q0 15 15 15h433z" />
<glyph unicode="&#x165;" horiz-adv-x="307" d="M235 704q-6 -10 -18 -10h-150q-12 0 -18 10l-64 101q-5 7 -2 12.5t12 5.5h108q13 0 18 -11l23 -43q4 -9 8 0l22 43q6 11 17 11h99q9 0 12 -5.5t-2 -12.5zM217 648q15 0 15 -15v-107q0 -6 6 -6h42q15 0 15 -15v-100q0 -15 -15 -15h-42q-6 0 -6 -6v-192q0 -32 31 -30h2 q15 0 15 -15v-132q0 -15 -15 -15h-48q-83 0 -124 23.5t-41 92.5v268q0 6 -6 6h-27q-15 0 -15 15v100q0 15 15 15h27q6 0 6 6v107q0 15 15 15h150z" />
<glyph unicode="&#x166;" horiz-adv-x="600" d="M481 554q0 -15 -15 -15h-118q-6 0 -6 -6v-124q0 -6 6 -6h40q15 0 15 -15v-80q0 -15 -15 -15h-40q-6 0 -6 -6v-272q0 -15 -15 -15h-158q-15 0 -15 15v272q0 6 -6 6h-46q-15 0 -15 15v80q0 15 15 15h46q6 0 6 6v124q0 6 -6 6h-115q-15 0 -15 15v131q0 15 15 15h433 q15 0 15 -15v-131z" />
<glyph unicode="&#x167;" horiz-adv-x="600" d="M316 562q0 -15 -15 -15h-63q-6 0 -6 -6v-15q0 -6 6 -6h42q15 0 15 -15v-100q0 -15 -15 -15h-42q-6 0 -6 -6v-192q0 -32 31 -30h2q15 0 15 -15v-132q0 -15 -15 -15h-48q-83 0 -124 23.5t-41 92.5v268q0 6 -6 6h-27q-15 0 -15 15v100q0 15 15 15h27q6 0 6 6v15q0 6 -6 6 h-31q-15 0 -15 15v80q0 15 15 15h286q15 0 15 -15v-80z" />
<glyph unicode="&#x16a;" horiz-adv-x="481" d="M135 765q-15 0 -15 15v95q0 15 15 15h201q15 0 15 -15v-95q0 -15 -15 -15h-201zM241 -8q-98 0 -157.5 59t-59.5 157v477q0 15 15 15h158q15 0 15 -15v-495q0 -37 29 -37q13 0 20.5 10t7.5 27v495q0 15 15 15h158q15 0 15 -15v-477q0 -98 -59.5 -157t-156.5 -59z" />
<glyph unicode="&#x16b;" horiz-adv-x="462" d="M324 697q15 0 15 -15v-95q0 -15 -15 -15h-201q-15 0 -15 15v95q0 15 15 15h201zM252 505q0 15 15 15h158q15 0 15 -15v-490q0 -15 -15 -15h-158q-15 0 -15 15v4q0 10 -7 3q-25 -30 -83 -30q-60 0 -101 37t-41 115v361q0 15 15 15h158q15 0 15 -15v-320q0 -32 21 -32 q23 0 23 32v320z" />
<glyph unicode="&#x16e;" horiz-adv-x="481" d="M241 747q-49 0 -83 33.5t-34 83.5q0 49 34 82.5t83 33.5t83 -33.5t34 -82.5q0 -50 -34 -83.5t-83 -33.5zM241 828q15 0 25.5 10.5t10.5 25.5q0 16 -10.5 26.5t-25.5 10.5t-25.5 -10.5t-10.5 -26.5q0 -15 10.5 -25.5t25.5 -10.5zM241 -8q-98 0 -157.5 59t-59.5 157v477 q0 15 15 15h158q15 0 15 -15v-495q0 -37 29 -37q13 0 20.5 10t7.5 27v495q0 15 15 15h158q15 0 15 -15v-477q0 -98 -59.5 -157t-156.5 -59z" />
<glyph unicode="&#x16f;" horiz-adv-x="462" d="M229 554q-49 0 -83 34t-34 83t34 82.5t83 33.5t83 -33.5t34 -82.5t-34 -83t-83 -34zM229 708q-15 0 -25.5 -10.5t-10.5 -26.5q0 -15 10.5 -25.5t25.5 -10.5t25.5 10.5t10.5 25.5q0 16 -10.5 26.5t-25.5 10.5zM252 505q0 15 15 15h158q15 0 15 -15v-490q0 -15 -15 -15 h-158q-15 0 -15 15v4q0 10 -7 3q-25 -30 -83 -30q-60 0 -101 37t-41 115v361q0 15 15 15h158q15 0 15 -15v-320q0 -32 21 -32q23 0 23 32v320z" />
<glyph unicode="&#x170;" horiz-adv-x="481" d="M103 762q-18 0 -11 18l40 92q4 11 17 11h128q19 0 11 -18l-47 -92q-6 -11 -17 -11h-121zM284 762q-8 0 -11.5 5t0.5 13l47 92q6 11 18 11h119q19 0 11 -18l-47 -92q-6 -11 -17 -11h-120zM241 -8q-98 0 -157.5 59t-59.5 157v477q0 15 15 15h158q15 0 15 -15v-495 q0 -37 29 -37q13 0 20.5 10t7.5 27v495q0 15 15 15h158q15 0 15 -15v-477q0 -98 -59.5 -157t-156.5 -59z" />
<glyph unicode="&#x171;" horiz-adv-x="462" d="M265 690q19 0 11 -18l-47 -92q-6 -11 -17 -11h-121q-18 0 -11 18l40 92q4 11 17 11h128zM409 580q-6 -11 -17 -11h-120q-8 0 -11.5 5.5t0.5 12.5l47 92q6 11 18 11h119q19 0 11 -18zM252 185v320q0 15 15 15h158q15 0 15 -15v-490q0 -15 -15 -15h-158q-15 0 -15 15v4 q0 10 -7 3q-25 -30 -83 -30q-60 0 -101 37t-41 115v361q0 15 15 15h158q15 0 15 -15v-320q0 -32 21 -32q23 0 23 32z" />
<glyph unicode="&#x172;" horiz-adv-x="481" d="M269 685q0 15 15 15h158q15 0 15 -15v-477q0 -80 -40 -135t-110 -73q-5 -2 -7 -4q-44 -39 -38 -65q4 -17 21 -17q15 0 16 -11l7 -62q2 -14 -11 -17q-24 -8 -51 -10t-57.5 13t-39.5 52q-14 60 31 113q5 6 -3 8q-70 18 -110.5 73t-40.5 135v477q0 15 15 15h158q15 0 15 -15 v-495q0 -37 29 -37q13 0 20.5 10t7.5 27v495z" />
<glyph unicode="&#x173;" horiz-adv-x="462" d="M440 11q0 -11 -9 -18q-53 -44 -45 -72q4 -17 21 -17q15 0 16 -11l7 -62q2 -14 -11 -17q-24 -8 -51 -10t-57.5 13t-39.5 52q-16 66 40 124q5 7 -3 7h-41q-15 0 -15 15v4q0 10 -7 3q-25 -30 -83 -30q-60 0 -101 37t-41 115v361q0 15 15 15h158q15 0 15 -15v-320 q0 -32 21 -32q23 0 23 32v320q0 15 15 15h158q15 0 15 -15v-494z" />
<glyph unicode="&#x174;" horiz-adv-x="720" d="M199 751q-9 0 -12 5.5t2 12.5l64 101q6 10 18 10h161q12 0 18 -10l66 -101q11 -18 -10 -18h-112q-12 0 -17 11l-20 43q-4 8 -8 0l-20 -43q-5 -11 -17 -11h-113zM168 0q-14 0 -17 13l-136 671q-3 16 14 16h163q15 0 16 -14l34 -305q0 -2 3 -2.5t3 2.5l37 305q1 14 16 14 h122q15 0 16 -14l42 -306q0 -2 3.5 -2.5t3.5 2.5l29 306q1 14 15 14h159q17 0 14 -16l-128 -671q-3 -13 -17 -13h-138q-15 0 -16 14l-42 321q0 3 -3.5 3t-3.5 -3l-34 -321q-1 -14 -16 -14h-139z" />
<glyph unicode="&#x175;" horiz-adv-x="653" d="M170 571q-9 0 -12 5.5t2 12.5l64 101q6 10 18 10h161q12 0 18 -10l66 -101q11 -18 -10 -18h-112q-12 0 -17 11l-20 43q-4 8 -8 0l-20 -43q-5 -11 -17 -11h-113zM136 0q-14 0 -17 13l-107 491q-3 16 13 16h150q15 0 16 -14l23 -221q0 -3 3 -3t3 3l25 221q1 14 16 14h133 q15 0 16 -14l27 -222q0 -2 3 -2t3 2l23 222q1 14 15 14l147 -2q16 0 13 -16l-105 -489q-3 -13 -17 -13h-153q-15 0 -16 14l-24 172q-1 3 -3 3t-3 -3l-22 -172q-1 -14 -16 -14h-146z" />
<glyph unicode="&#x176;" horiz-adv-x="508" d="M98 750q-9 0 -12 5t2 13l64 101q6 10 18 10h161q12 0 18 -10l66 -101q11 -18 -10 -18h-112q-12 0 -17 11l-20 43q-4 8 -8 0l-20 -43q-5 -11 -17 -11h-113zM174 2q-15 0 -15 15v230q0 6 -1 8l-140 428q-5 17 12 17h166q14 0 17 -13l37 -197q1 -4 4 -4t4 4l37 197 q3 13 17 13h166q17 0 12 -17l-142 -428q-1 -2 -1 -8v-230q0 -15 -15 -15h-158z" />
<glyph unicode="&#x177;" horiz-adv-x="459" d="M73 571q-9 0 -12 5.5t2 12.5l64 101q6 10 18 10h161q12 0 18 -10l66 -101q11 -18 -10 -18h-112q-12 0 -17 11l-20 43q-4 8 -8 0l-20 -43q-5 -11 -17 -11h-113zM34 -199q-6 0 -6 15v124q0 15 5 15h4q57 0 80.5 8.5t17.5 36.5l-125 503q-3 17 13 17h170q14 0 15 -14 l19 -218q0 1 3 1t3 -1l17 218q1 14 15 14l171 -2q16 0 13 -17l-126 -503q-13 -46 -24.5 -74t-32 -54.5t-49 -39.5t-72 -21t-105.5 -8h-6z" />
<glyph unicode="&#x178;" horiz-adv-x="508" d="M160 730q-38 0 -62.5 24t-24.5 63t24.5 63t62.5 24t61.5 -24t23.5 -63t-23.5 -63t-61.5 -24zM353 730q-39 0 -62.5 24t-23.5 63t23.5 63t62.5 24t62.5 -24t23.5 -63t-23.5 -63t-62.5 -24zM174 2q-15 0 -15 15v230q0 6 -1 8l-140 428q-5 17 12 17h166q14 0 17 -13l37 -197 q1 -4 4 -4t4 4l37 197q3 13 17 13h166q17 0 12 -17l-142 -428q-1 -2 -1 -8v-230q0 -15 -15 -15h-158z" />
<glyph unicode="&#x179;" horiz-adv-x="424" d="M135 764q-20 0 -10 18l55 93q6 10 18 10h142q9 0 12 -5.5t-3 -12.5l-77 -94q-8 -9 -18 -9h-119zM27 0q-15 0 -15 15v136q0 9 5 19l191 362q3 7 -4 7h-177q-15 0 -15 15v131q0 15 15 15h368q15 0 15 -15v-136q0 -9 -5 -19l-193 -362q-3 -7 4 -7h179q15 0 15 -15v-131 q0 -15 -15 -15h-368z" />
<glyph unicode="&#x17a;" horiz-adv-x="381" d="M114 584q-20 0 -10 18l55 93q6 10 18 10h142q9 0 12 -5.5t-3 -12.5l-77 -94q-7 -9 -18 -9h-119zM23 0q-15 0 -15 15v145q0 9 6 18l121 165q5 7 -4 7h-101q-15 0 -15 15v140q0 15 15 15h319q15 0 15 -15v-145q0 -9 -6 -18l-130 -165q-5 -7 3 -7h127q15 0 15 -15v-140 q0 -15 -15 -15h-335z" />
<glyph unicode="&#x17b;" horiz-adv-x="424" d="M210 744q-35 0 -56.5 22t-21.5 57q0 36 21.5 57.5t56.5 21.5t56 -21.5t21 -57.5q0 -35 -21 -57t-56 -22zM27 0q-15 0 -15 15v136q0 9 5 19l191 362q3 7 -4 7h-177q-15 0 -15 15v131q0 15 15 15h368q15 0 15 -15v-136q0 -9 -5 -19l-193 -362q-3 -7 4 -7h179q15 0 15 -15 v-131q0 -15 -15 -15h-368z" />
<glyph unicode="&#x17c;" horiz-adv-x="381" d="M189 564q-35 0 -56.5 22t-21.5 57q0 36 21.5 57.5t56.5 21.5t56 -21.5t21 -57.5q0 -35 -21 -57t-56 -22zM23 0q-15 0 -15 15v145q0 9 6 18l121 165q5 7 -4 7h-101q-15 0 -15 15v140q0 15 15 15h319q15 0 15 -15v-145q0 -9 -6 -18l-130 -165q-5 -7 3 -7h127q15 0 15 -15 v-140q0 -15 -15 -15h-335z" />
<glyph unicode="&#x17d;" horiz-adv-x="424" d="M129 758q-12 0 -18 10l-64 101q-5 7 -2 12.5t12 5.5h108q13 0 18 -11l23 -43q4 -9 8 0l22 43q6 11 17 11h99q9 0 12 -5.5t-2 -12.5l-65 -101q-6 -10 -18 -10h-150zM27 0q-15 0 -15 15v136q0 9 5 19l191 362q3 7 -4 7h-177q-15 0 -15 15v131q0 15 15 15h368q15 0 15 -15 v-136q0 -9 -5 -19l-193 -362q-3 -7 4 -7h179q15 0 15 -15v-131q0 -15 -15 -15h-368z" />
<glyph unicode="&#x17e;" horiz-adv-x="381" d="M108 578q-12 0 -18 10l-64 101q-5 7 -2 12.5t12 5.5h108q12 0 18 -11l23 -43q4 -9 8 0l22 43q6 11 17 11h99q9 0 12 -5.5t-2 -12.5l-65 -101q-6 -10 -18 -10h-150zM23 0q-15 0 -15 15v145q0 9 6 18l121 165q5 7 -4 7h-101q-15 0 -15 15v140q0 15 15 15h319q15 0 15 -15 v-145q0 -9 -6 -18l-130 -165q-5 -7 3 -7h127q15 0 15 -15v-140q0 -15 -15 -15h-335z" />
<glyph unicode="&#x192;" horiz-adv-x="483" d="M424 575q-38 -5 -43 -36l-16 -103q-1 -6 6 -6h49q15 0 15 -15v-120q0 -15 -15 -15h-74q-5 0 -7 -5l-52 -331q-13 -85 -67 -113.5t-192 -30.5q-16 0 -16 15v95q0 15 15 15h32q38 5 43 36l49 313q1 6 -6 6h-32q-15 0 -15 15v120q0 15 15 15h57q5 0 7 5l19 121 q13 85 67 113.5t192 30.5q16 0 16 -15v-95q0 -15 -15 -15h-32z" />
<glyph unicode="&#x1cd;" horiz-adv-x="531" d="M353 755q-6 -10 -18 -10h-150q-12 0 -18 10l-64 101q-5 8 -2 13t12 5h108q13 0 18 -11l23 -43q4 -9 8 0l22 43q6 11 17 11h99q9 0 12 -5t-2 -13zM341 0q-15 0 -16 14l-9 75q0 6 -7 6h-88q-5 0 -7 -5l-12 -76q-2 -14 -16 -14h-157q-16 0 -13 16l142 671q3 13 17 13h182 q14 0 17 -13l142 -671q3 -16 -14 -16h-161zM239 245q-1 -6 6 -6h45q5 0 5 6l-22 170q-1 8 -5 4l-2 -4z" />
<glyph unicode="&#x1ce;" horiz-adv-x="467" d="M319 583q-6 -10 -18 -10h-150q-12 0 -18 10l-64 101q-5 8 -2 13t12 5h108q13 0 18 -11l23 -43q4 -9 8 0l22 43q6 11 17 11h99q9 0 12 -5t-2 -13zM232 528q98 0 157.5 -46t59.5 -122v-345q0 -15 -15 -15h-158q-15 0 -15 15v21q0 9 -7 2q-32 -45 -101 -46q-26 0 -47 5 t-44 19.5t-36.5 49t-13.5 85.5q0 43 10.5 72.5t26.5 46t45 25.5t56.5 11.5t70.5 2.5h34q6 0 6 6v22q0 13 -8 21.5t-21 8.5q-17 0 -24 -18q-5 -14 -16 -14l-160 2q-15 0 -15 14q5 83 63.5 130t151.5 47zM229 127q12 0 22 7.5t10 19.5v27q0 6 -6 6h-20q-14 0 -22.5 -9.5 t-8.5 -22.5q0 -28 25 -28z" />
<glyph unicode="&#x218;" horiz-adv-x="463" d="M235 -8q-96 0 -154.5 52.5t-58.5 135.5v34q0 15 15 15h156q15 0 15 -15v-25q0 -16 8 -26t20 -10t20 9t8 23q0 17 -16 33.5t-67 52.5q-37 26 -57.5 42.5t-49 47.5t-42.5 67.5t-14 80.5q0 89 58.5 144t154.5 55q97 0 155.5 -55t58.5 -144v-22q0 -15 -15 -15h-155 q-15 0 -15 15v26q0 15 -8 24.5t-21 9.5t-20.5 -10t-7.5 -27q0 -20 16 -38.5t64 -53.5q93 -68 129.5 -112t36.5 -115q0 -91 -59 -145t-155 -54zM131 -179q-20 0 -10 18l55 93q6 10 18 10h142q9 0 12 -5t-3 -13l-77 -94q-8 -9 -18 -9h-119z" />
<glyph unicode="&#x219;" horiz-adv-x="438" d="M223 -8q-96 0 -153.5 45t-57.5 119v3q0 15 15 15h150q15 0 15 -6v-7q0 -15 9 -23t20 -8q19 0 19 19q0 8 -5 14t-16 11t-20.5 8t-26 7.5t-25.5 7.5q-128 41 -128 161q0 78 54 124t142 46q92 0 147 -50t55 -132q0 -10 -15 -10h-145q-15 0 -15 11v10q0 26 -22 26 q-21 0 -21 -26q0 -30 70 -51q34 -10 56.5 -19.5t49 -27t40.5 -45t14 -63.5q0 -74 -56.5 -116.5t-149.5 -42.5zM119 -179q-20 0 -10 18l55 93q6 10 18 10h142q9 0 12 -5t-3 -13l-77 -94q-8 -9 -18 -9h-119z" />
<glyph unicode="&#x21a;" horiz-adv-x="487" d="M466 700q15 0 15 -15v-131q0 -15 -15 -15h-118q-6 0 -6 -6v-518q0 -15 -15 -15h-158q-15 0 -15 15v518q0 6 -6 6h-115q-15 0 -15 15v131q0 15 15 15h433zM97 -171q-20 0 -10 18l55 93q6 10 18 10h142q9 0 12 -5t-3 -13l-77 -94q-7 -9 -18 -9h-119z" />
<glyph unicode="&#x21b;" horiz-adv-x="307" d="M217 0q-83 0 -124 23.5t-41 92.5v268q0 6 -6 6h-27q-15 0 -15 15v100q0 15 15 15h27q6 0 6 6v107q0 15 15 15h150q15 0 15 -15v-107q0 -6 6 -6h42q15 0 15 -15v-100q0 -15 -15 -15h-42q-6 0 -6 -6v-192q0 -32 31 -30h2q15 0 15 -15v-132q0 -15 -15 -15h-48zM124 -54 q6 10 18 10h142q9 0 12 -5t-3 -13l-77 -94q-8 -9 -18 -9h-119q-20 0 -10 18z" />
<glyph unicode="&#x228;" horiz-adv-x="444" d="M426 554q0 -15 -15 -15h-191q-6 0 -6 -6v-96q0 -6 6 -6h99q15 0 15 -15v-131q0 -15 -15 -15h-99q-6 0 -6 -6v-97q0 -6 6 -6h191q15 0 15 -15v-131q0 -15 -15 -15h-122q-8 0 -3 -7q39 -51 25 -107q-9 -37 -39.5 -52t-57.5 -13t-51 10q-13 3 -11 17l7 62q1 11 16 11 q17 0 21 17q6 23 -31 59q-3 3 -7 3h-117q-15 0 -15 15v670q0 15 15 15h370q15 0 15 -15v-131z" />
<glyph unicode="&#x229;" horiz-adv-x="455" d="M439 228q0 -15 -15 -15h-212q-6 0 -6 -6v-22q0 -32 23 -32q19 0 23 25q5 14 17 13l153 -10q15 -2 14 -16q-9 -143 -141 -168q-4 0 -4.5 -2.5t2.5 -4.5q43 -54 29 -112q-9 -37 -39.5 -52t-57.5 -13t-51 10q-13 3 -11 17l7 62q1 11 16 11q17 0 21 17q6 25 -37 64q-2 2 -7 4 q-70 14 -107.5 58.5t-37.5 113.5v180q0 81 56 129.5t155 48.5t154.5 -48.5t55.5 -129.5v-122zM229 367q-23 0 -23 -32v-24q0 -6 6 -6h33q6 0 6 6v24q0 32 -22 32z" />
<glyph unicode="&#x2c6;" horiz-adv-x="350" d="M21 571q-9 0 -12 5.5t2 12.5l64 101q6 10 18 10h161q12 0 18 -10l66 -101q11 -18 -10 -18h-112q-12 0 -17 11l-20 43q-4 8 -8 0l-20 -43q-5 -11 -17 -11h-113z" />
<glyph unicode="&#x2c7;" horiz-adv-x="354" d="M101 565q-12 0 -18 10l-64 101q-5 8 -2 13t12 5h108q13 0 18 -11l23 -43q4 -9 8 0l22 43q6 11 17 11h99q9 0 12 -5t-2 -13l-65 -101q-6 -10 -18 -10h-150z" />
<glyph unicode="&#x2c9;" horiz-adv-x="231" d="M15 572q-15 0 -15 15v95q0 15 15 15h201q15 0 15 -15v-95q0 -15 -15 -15h-201z" />
<glyph unicode="&#x2d8;" horiz-adv-x="278" d="M139 543q-55 0 -90 30t-40 81q-1 15 14 15h66q13 0 15 -14q6 -34 35 -34t35 34q2 14 15 14h66q15 0 14 -15q-5 -51 -40 -81t-90 -30z" />
<glyph unicode="&#x2d9;" horiz-adv-x="171" d="M86 551q-35 0 -56.5 22t-21.5 57q0 36 21.5 57.5t56.5 21.5t56 -21.5t21 -57.5q0 -35 -21 -57t-56 -22z" />
<glyph unicode="&#x2da;" horiz-adv-x="250" d="M125 554q-49 0 -83 34t-34 83t34 82.5t83 33.5t83 -33.5t34 -82.5t-34 -83t-83 -34zM125 635q15 0 25.5 10.5t10.5 25.5q0 16 -10.5 26.5t-25.5 10.5t-25.5 -10.5t-10.5 -26.5q0 -15 10.5 -25.5t25.5 -10.5z" />
<glyph unicode="&#x2db;" horiz-adv-x="172" d="M162 -169q2 -14 -11 -17q-24 -8 -51 -10t-57.5 13t-39.5 52q-16 65 39 123q8 8 19 8h84q10 0 11.5 -5.5t-6.5 -12.5q-38 -37 -32 -61q4 -17 21 -17q15 0 16 -11z" />
<glyph unicode="&#x2dc;" horiz-adv-x="336" d="M218 571q-24 0 -55 15q-6 3 -14.5 8t-14 7t-11.5 2q-17 0 -29 -18q-10 -13 -21 -5l-55 40q-10 7 -7 19q26 79 96 79q33 0 67 -22q27 -17 39 -17q19 0 31 15q10 13 20 5l53 -37q12 -9 1 -29q-34 -62 -100 -62z" />
<glyph unicode="&#x2dd;" horiz-adv-x="442" d="M29 579q-20 0 -10 18l54 93q6 10 18 10h138q9 0 12 -5t-3 -13l-75 -94q-6 -9 -18 -9h-116zM210 579q-20 0 -10 18l54 93q6 10 18 10h138q9 0 12 -5t-3 -13l-75 -94q-6 -9 -18 -9h-116z" />
<glyph unicode="&#x300;" d="M-11 589q10 -18 -10 -18h-119q-10 0 -18 9l-77 94q-6 8 -3 13t12 5h142q12 0 18 -10z" />
<glyph unicode="&#x301;" d="M-229 571q-20 0 -10 18l55 93q6 10 18 10h142q9 0 12 -5t-3 -13l-77 -94q-7 -9 -18 -9h-119z" />
<glyph unicode="&#x302;" d="M-331 571q-9 0 -12 5.5t2 12.5l64 101q6 10 18 10h161q12 0 18 -10l66 -101q11 -18 -10 -18h-112q-12 0 -17 11l-20 43q-4 8 -8 0l-20 -43q-5 -11 -17 -11h-113z" />
<glyph unicode="&#x303;" d="M-110 571q-24 0 -55 15q-6 3 -14.5 8t-14 7t-11.5 2q-17 0 -29 -18q-10 -13 -21 -5l-55 40q-10 7 -7 19q26 79 96 79q33 0 67 -22q27 -17 39 -17q19 0 31 15q10 13 20 5l53 -37q12 -9 1 -29q-34 -62 -100 -62z" />
<glyph unicode="&#x304;" d="M-216 572q-15 0 -15 15v95q0 15 15 15h201q15 0 15 -15v-95q0 -15 -15 -15h-201z" />
<glyph unicode="&#x306;" d="M-139 543q-55 0 -90 30t-40 81q-1 15 14 15h66q13 0 15 -14q6 -34 35 -34t35 34q2 14 15 14h66q15 0 14 -15q-5 -51 -40 -81t-90 -30z" />
<glyph unicode="&#x307;" d="M-77 551q-35 0 -56.5 22t-21.5 57q0 36 21.5 57.5t56.5 21.5t56 -21.5t21 -57.5q0 -35 -21 -57t-56 -22z" />
<glyph unicode="&#x308;" d="M-279 551q-38 0 -62.5 24t-24.5 63t24.5 63t62.5 24t61.5 -24t23.5 -63t-23.5 -63t-61.5 -24zM-86 551q-39 0 -62.5 24t-23.5 63t23.5 63t62.5 24t62.5 -24t23.5 -63t-23.5 -63t-62.5 -24z" />
<glyph unicode="&#x30a;" d="M-117 554q-49 0 -83 34t-34 83t34 82.5t83 33.5t83 -33.5t34 -82.5t-34 -83t-83 -34zM-117 635q15 0 25.5 10.5t10.5 25.5q0 16 -10.5 26.5t-25.5 10.5t-25.5 -10.5t-10.5 -26.5q0 -15 10.5 -25.5t25.5 -10.5z" />
<glyph unicode="&#x30b;" d="M-382 569q-18 0 -11 18l40 92q4 11 17 11h128q19 0 11 -18l-47 -92q-6 -11 -17 -11h-121zM-201 569q-8 0 -11.5 5.5t0.5 12.5l47 92q5 11 18 11h119q19 0 11 -18l-47 -92q-6 -11 -17 -11h-120z" />
<glyph unicode="&#x30c;" d="M-253 565q-12 0 -18 10l-64 101q-5 8 -2 13t12 5h108q13 0 18 -11l23 -43q4 -9 8 0l22 43q6 11 17 11h99q9 0 12 -5t-2 -13l-65 -101q-6 -10 -18 -10h-150z" />
<glyph unicode="&#x312;" d="M-29 692q20 0 10 -18l-55 -93q-6 -10 -18 -10h-142q-9 0 -12 5.5t3 12.5l77 94q7 9 18 9h119z" />
<glyph unicode="&#x313;" d="M-229 571q-20 0 -10 18l55 93q6 10 18 10h142q9 0 12 -5t-3 -13l-77 -94q-7 -9 -18 -9h-119z" />
<glyph unicode="&#x326;" d="M-237 -171q-20 0 -10 18l55 93q6 10 18 10h142q9 0 12 -5t-3 -13l-77 -94q-8 -9 -18 -9h-119z" />
<glyph unicode="&#x327;" d="M-151 -186q-13 3 -11 17l7 62q1 11 16 11q17 0 21 17q6 24 -32 61q-8 7 -6.5 12.5t11.5 5.5h84q11 0 19 -8q55 -58 39 -123q-9 -37 -39.5 -52t-57.5 -13t-51 10z" />
<glyph unicode="&#x328;" d="M-10 -169q2 -14 -11 -17q-24 -8 -51 -10t-57.5 13t-39.5 52q-16 65 39 123q8 8 19 8h84q10 0 11.5 -5.5t-6.5 -12.5q-38 -37 -32 -61q4 -17 21 -17q15 0 16 -11z" />
<glyph unicode="&#x335;" d="M-316 642q0 15 15 15h286q15 0 15 -15v-80q0 -15 -15 -15h-286q-15 0 -15 15v80z" />
<glyph unicode="&#x336;" d="M-514 505q-15 0 -15 15v95q0 15 15 15h499q15 0 15 -15v-95q0 -15 -15 -15h-499z" />
<glyph unicode="&#x337;" d="M-361 121q-12 -10 -21 1l-72 84q-10 11 1 21l403 353q12 10 21 -1l72 -84q10 -11 -1 -21z" />
<glyph unicode="&#x338;" d="M-402 -30q-19 0 -11 18l331 731q5 11 17 11h46q19 0 11 -18l-332 -731q-5 -11 -17 -11h-45z" />
<glyph unicode="&#x394;" horiz-adv-x="568" d="M27 0q-15 0 -15 15v135q0 8 3 19l198 519q5 12 18 12h105q14 0 18 -12l199 -520q3 -10 3 -19v-134q0 -15 -15 -15h-514zM197 169q-1 -7 5 -7h164q6 0 5 7l-83 278q-4 10 -8 0z" />
<glyph unicode="&#x3a9;" horiz-adv-x="506" d="M35 0q-15 0 -15 15v131q0 15 15 15h19q8 0 4 7q-26 46 -26 108v218q0 98 60.5 156t161.5 58t161.5 -58t60.5 -156v-218q0 -63 -27 -108q-3 -7 4 -7h18q15 0 15 -15v-131q0 -15 -15 -15h-192q-15 0 -15 15v134q0 8 10 18q14 11 14 38v297q0 45 -34 45t-34 -45v-297 q0 -27 13 -37q10 -10 10 -18v-135q0 -15 -15 -15h-193z" />
<glyph unicode="&#x3bc;" horiz-adv-x="464" d="M254 505q0 15 15 15h158q15 0 15 -15v-490q0 -15 -15 -15h-158q-15 0 -15 15v4q0 10 -7 3q-12 -15 -32 -23q-5 -3 -5 -7v-177q0 -15 -15 -15h-158q-15 0 -15 15v690q0 15 15 15h158q15 0 15 -15v-320q0 -32 21 -32q23 0 23 32v320z" />
<glyph unicode="&#x3c0;" horiz-adv-x="558" d="M540 375q0 -15 -15 -15h-32q-6 0 -6 -6v-131q0 -28 4.5 -43.5t10.5 -19.5t14 -3q16 0 16 -14v-128q0 -15 -15 -16q-4 0 -24 -1.5t-28.5 -1.5h-28.5t-30 1.5t-27.5 5t-26.5 9.5t-21.5 15.5t-18.5 21.5t-10 29t-4 38v238q0 6 -6 6h-29q-6 0 -6 -6v-339q0 -15 -15 -15h-158 q-15 0 -15 15v339q0 6 -6 6h-30q-15 0 -15 15v130q0 15 15 15h492q15 0 15 -15v-130z" />
<glyph unicode="&#x1e80;" horiz-adv-x="720" d="M421 769q10 -18 -10 -18h-119q-10 0 -18 9l-77 94q-6 8 -3 13t12 5h142q12 0 18 -10zM168 0q-14 0 -17 13l-136 671q-3 16 14 16h163q15 0 16 -14l34 -305q0 -2 3 -2.5t3 2.5l37 305q1 14 16 14h122q15 0 16 -14l42 -306q0 -2 3.5 -2.5t3.5 2.5l29 306q1 14 15 14h159 q17 0 14 -16l-128 -671q-3 -13 -17 -13h-138q-15 0 -16 14l-42 321q0 3 -3.5 3t-3.5 -3l-34 -321q-1 -14 -16 -14h-139z" />
<glyph unicode="&#x1e81;" horiz-adv-x="653" d="M392 589q10 -18 -10 -18h-119q-11 0 -18 9l-77 94q-6 8 -3 13t12 5h142q12 0 18 -10zM136 0q-14 0 -17 13l-107 491q-3 16 13 16h150q15 0 16 -14l23 -221q0 -3 3 -3t3 3l25 221q1 14 16 14h133q15 0 16 -14l27 -222q0 -2 3 -2t3 2l23 222q1 14 15 14l147 -2q16 0 13 -16 l-105 -489q-3 -13 -17 -13h-153q-15 0 -16 14l-24 172q-1 3 -3 3t-3 -3l-22 -172q-1 -14 -16 -14h-146z" />
<glyph unicode="&#x1e82;" horiz-adv-x="720" d="M280 751q-20 0 -10 18l55 93q6 10 18 10h142q9 0 12 -5t-3 -13l-77 -94q-7 -9 -18 -9h-119zM168 0q-14 0 -17 13l-136 671q-3 16 14 16h163q15 0 16 -14l34 -305q0 -2 3 -2.5t3 2.5l37 305q1 14 16 14h122q15 0 16 -14l42 -306q0 -2 3.5 -2.5t3.5 2.5l29 306q1 14 15 14 h159q17 0 14 -16l-128 -671q-3 -13 -17 -13h-138q-15 0 -16 14l-42 321q0 3 -3.5 3t-3.5 -3l-34 -321q-1 -14 -16 -14h-139z" />
<glyph unicode="&#x1e83;" horiz-adv-x="653" d="M251 571q-20 0 -10 18l55 93q6 10 18 10h142q9 0 12 -5t-3 -13l-77 -94q-8 -9 -18 -9h-119zM136 0q-14 0 -17 13l-107 491q-3 16 13 16h150q15 0 16 -14l23 -221q0 -3 3 -3t3 3l25 221q1 14 16 14h133q15 0 16 -14l27 -222q0 -2 3 -2t3 2l23 222q1 14 15 14l147 -2 q16 0 13 -16l-105 -489q-3 -13 -17 -13h-153q-15 0 -16 14l-24 172q-1 3 -3 3t-3 -3l-22 -172q-1 -14 -16 -14h-146z" />
<glyph unicode="&#x1e84;" horiz-adv-x="720" d="M261 731q-38 0 -62.5 24t-24.5 63t24.5 63t62.5 24t61.5 -24t23.5 -63t-23.5 -63t-61.5 -24zM454 731q-39 0 -62.5 24t-23.5 63t23.5 63t62.5 24t62.5 -24t23.5 -63t-23.5 -63t-62.5 -24zM168 0q-14 0 -17 13l-136 671q-3 16 14 16h163q15 0 16 -14l34 -305q0 -2 3 -2.5 t3 2.5l37 305q1 14 16 14h122q15 0 16 -14l42 -306q0 -2 3.5 -2.5t3.5 2.5l29 306q1 14 15 14h159q17 0 14 -16l-128 -671q-3 -13 -17 -13h-138q-15 0 -16 14l-42 321q0 3 -3.5 3t-3.5 -3l-34 -321q-1 -14 -16 -14h-139z" />
<glyph unicode="&#x1e85;" horiz-adv-x="653" d="M232 551q-38 0 -62.5 24t-24.5 63t24.5 63t62.5 24t61.5 -24t23.5 -63t-23.5 -63t-61.5 -24zM425 551q-39 0 -62.5 24t-23.5 63t23.5 63t62.5 24t62.5 -24t23.5 -63t-23.5 -63t-62.5 -24zM136 0q-14 0 -17 13l-107 491q-3 16 13 16h150q15 0 16 -14l23 -221q0 -3 3 -3 t3 3l25 221q1 14 16 14h133q15 0 16 -14l27 -222q0 -2 3 -2t3 2l23 222q1 14 15 14l147 -2q16 0 13 -16l-105 -489q-3 -13 -17 -13h-153q-15 0 -16 14l-24 172q-1 3 -3 3t-3 -3l-22 -172q-1 -14 -16 -14h-146z" />
<glyph unicode="&#x1ef2;" horiz-adv-x="508" d="M320 768q10 -18 -10 -18h-119q-11 0 -18 9l-77 94q-6 7 -3 12.5t12 5.5h142q12 0 18 -10zM174 2q-15 0 -15 15v230q0 6 -1 8l-140 428q-5 17 12 17h166q14 0 17 -13l37 -197q1 -4 4 -4t4 4l37 197q3 13 17 13h166q17 0 12 -17l-142 -428q-1 -2 -1 -8v-230q0 -15 -15 -15 h-158z" />
<glyph unicode="&#x1ef3;" horiz-adv-x="459" d="M295 589q10 -18 -10 -18h-119q-10 0 -18 9l-77 94q-6 8 -3 13t12 5h142q12 0 18 -10zM34 -199q-6 0 -6 15v124q0 15 5 15h4q57 0 80.5 8.5t17.5 36.5l-125 503q-3 17 13 17h170q14 0 15 -14l19 -218q0 1 3 1t3 -1l17 218q1 14 15 14l171 -2q16 0 13 -17l-126 -503 q-13 -46 -24.5 -74t-32 -54.5t-49 -39.5t-72 -21t-105.5 -8h-6z" />
<glyph unicode="&#x2000;" horiz-adv-x="490" />
<glyph unicode="&#x2001;" horiz-adv-x="980" />
<glyph unicode="&#x2002;" horiz-adv-x="490" />
<glyph unicode="&#x2003;" horiz-adv-x="980" />
<glyph unicode="&#x2004;" horiz-adv-x="326" />
<glyph unicode="&#x2005;" horiz-adv-x="245" />
<glyph unicode="&#x2006;" horiz-adv-x="163" />
<glyph unicode="&#x2007;" horiz-adv-x="163" />
<glyph unicode="&#x2008;" horiz-adv-x="122" />
<glyph unicode="&#x2009;" horiz-adv-x="196" />
<glyph unicode="&#x200a;" horiz-adv-x="54" />
<glyph unicode="&#x2010;" horiz-adv-x="343" d="M33 205q-15 0 -15 15v130q0 15 15 15h277q15 0 15 -15v-130q0 -15 -15 -15h-277z" />
<glyph unicode="&#x2011;" horiz-adv-x="343" d="M33 205q-15 0 -15 15v130q0 15 15 15h277q15 0 15 -15v-130q0 -15 -15 -15h-277z" />
<glyph unicode="&#x2012;" horiz-adv-x="343" d="M33 205q-15 0 -15 15v130q0 15 15 15h277q15 0 15 -15v-130q0 -15 -15 -15h-277z" />
<glyph unicode="&#x2013;" horiz-adv-x="386" d="M33 206q-15 0 -15 15v130q0 15 15 15h320q15 0 15 -15v-130q0 -15 -15 -15h-320z" />
<glyph unicode="&#x2014;" horiz-adv-x="593" d="M33 206q-15 0 -15 15v130q0 15 15 15h527q15 0 15 -15v-130q0 -15 -15 -15h-527z" />
<glyph unicode="&#x2018;" horiz-adv-x="231" d="M18 460q-17 0 -12 17l73 211q4 12 17 12h118q17 0 14 -16l-38 -210q-3 -14 -16 -14h-156z" />
<glyph unicode="&#x2019;" horiz-adv-x="231" d="M213 700q17 0 12 -17l-73 -211q-4 -12 -17 -12h-118q-17 0 -14 16l38 210q3 14 16 14h156z" />
<glyph unicode="&#x201a;" horiz-adv-x="600" d="M39 -111q-15 0 -14 15l15 241q2 15 16 15h136q16 0 13 -17l-56 -241q-3 -13 -16 -13h-94z" />
<glyph unicode="&#x201c;" horiz-adv-x="421" d="M18 460q-17 0 -12 17l72 211q4 12 17 12h112q17 0 14 -16l-38 -210q-3 -14 -16 -14h-149zM217 460q-17 0 -12 17l70 211q4 12 17 12h113q16 0 13 -16l-36 -210q-2 -14 -16 -14h-149z" />
<glyph unicode="&#x201d;" horiz-adv-x="421" d="M204 700q17 0 12 -17l-70 -211q-4 -12 -17 -12h-113q-16 0 -13 16l36 210q2 14 16 14h149zM403 700q17 0 12 -17l-72 -211q-4 -12 -17 -12h-112q-17 0 -14 16l38 210q3 14 16 14h149z" />
<glyph unicode="&#x201e;" horiz-adv-x="423" d="M204 129q17 0 12 -17l-70 -211q-4 -12 -17 -12h-113q-16 0 -13 16l36 210q2 14 16 14h149zM403 129q17 0 12 -17l-72 -211q-4 -12 -17 -12h-112q-17 0 -14 16l38 210q3 14 16 14h149z" />
<glyph unicode="&#x2020;" horiz-adv-x="386" d="M353 460q15 0 15 -15v-110q0 -15 -15 -15h-60q-6 0 -6 -6v-499q0 -15 -15 -15h-158q-15 0 -15 15v499q0 6 -6 6h-60q-15 0 -15 15v110q0 15 15 15h60q6 0 6 6v219q0 15 15 15h158q15 0 15 -15v-219q0 -6 6 -6h60z" />
<glyph unicode="&#x2021;" horiz-adv-x="386" d="M368 335q0 -15 -15 -15h-60q-6 0 -6 -6v-128q0 -6 6 -6h60q15 0 15 -15v-110q0 -15 -15 -15h-60q-6 0 -6 -6v-219q0 -15 -15 -15h-158q-15 0 -15 15v219q0 6 -6 6h-60q-15 0 -15 15v110q0 15 15 15h60q6 0 6 6v128q0 6 -6 6h-60q-15 0 -15 15v110q0 15 15 15h60q6 0 6 6 v219q0 15 15 15h158q15 0 15 -15v-219q0 -6 6 -6h60q15 0 15 -15v-110z" />
<glyph unicode="&#x2022;" horiz-adv-x="314" d="M158 143q-58 0 -99 41t-41 99t40.5 98.5t99.5 40.5q57 0 97.5 -40.5t40.5 -98.5t-40.5 -99t-97.5 -41z" />
<glyph unicode="&#x2026;" horiz-adv-x="828" d="M149 -8q-46 0 -75.5 30.5t-29.5 74.5q0 43 32 73.5t73 30.5t73 -30.5t32 -73.5q0 -44 -29.5 -74.5t-75.5 -30.5zM409 -8q-46 0 -75.5 30.5t-29.5 74.5q0 43 32 73.5t73 30.5t73 -30.5t32 -73.5q0 -44 -29.5 -74.5t-75.5 -30.5zM669 -8q-46 0 -75.5 30.5t-29.5 74.5 q0 43 32 73.5t73 30.5t73 -30.5t32 -73.5q0 -44 -29.5 -74.5t-75.5 -30.5z" />
<glyph unicode="&#x202f;" horiz-adv-x="196" />
<glyph unicode="&#x2030;" horiz-adv-x="1026" d="M138 274q-58 0 -94 36.5t-36 95.5v170q0 59 36 95.5t94 36.5t94 -36.5t36 -95.5v-170q0 -59 -36 -95.5t-94 -36.5zM124 0q-21 0 -11 18l391 672q6 10 18 10h99q21 0 11 -18l-391 -672q-6 -10 -18 -10h-99zM138 375q12 0 12 24v184q0 24 -12 24t-12 -24v-184q0 -24 12 -24 zM612 -7q-58 0 -94 36.5t-36 95.5v170q0 59 36 95.5t94 36.5t94 -36.5t36 -95.5v-170q0 -59 -36 -95.5t-94 -36.5zM888 -7q-58 0 -94 36.5t-36 95.5v170q0 59 36 95.5t94 36.5t94 -36.5t36 -95.5v-170q0 -59 -36 -95.5t-94 -36.5zM612 94q12 0 12 24v184q0 24 -12 24 t-12 -24v-184q0 -24 12 -24zM888 94q12 0 12 24v184q0 24 -12 24t-12 -24v-184q0 -24 12 -24z" />
<glyph unicode="&#x2039;" horiz-adv-x="280" d="M246 125q8 -18 -11 -18h-123q-12 0 -17 12l-65 152q-4 10 0 20l65 153q4 11 17 11h123q19 0 11 -18l-69 -152q-2 -4 0 -8z" />
<glyph unicode="&#x203a;" horiz-adv-x="280" d="M45 107q-19 0 -11 18l69 152q2 4 0 8l-69 152q-8 18 11 18h123q12 0 17 -12l65 -152q4 -10 0 -20l-65 -153q-4 -11 -17 -11h-123z" />
<glyph unicode="&#x2044;" horiz-adv-x="216" d="M-142 0q-21 0 -11 18l391 672q6 10 18 10h99q21 0 11 -18l-391 -672q-6 -10 -18 -10h-99z" />
<glyph unicode="&#x205f;" horiz-adv-x="245" />
<glyph unicode="&#x2074;" horiz-adv-x="323" d="M304 606q15 0 15 -15v-77q0 -15 -15 -15h-9q-6 0 -6 -6v-78q0 -15 -15 -15h-88q-15 0 -15 15v78q0 6 -6 6h-146q-15 0 -15 15v61q0 9 3 18l69 215q4 12 17 12h92q18 0 13 -17l-55 -190q-1 -7 5 -7h17q6 0 6 6v29q0 15 15 15h88q15 0 15 -15v-29q0 -6 6 -6h9z" />
<glyph unicode="&#x2075;" horiz-adv-x="276" d="M176 667q44 0 68.5 -30t24.5 -82v-51q0 -51 -35.5 -80t-95.5 -29q-57 0 -92 26.5t-37 78.5v8q-1 15 14 15h88q15 0 15 -7v-7q0 -13 12 -13q13 0 13 16v37q0 16 -13 16q-3 0 -5 -1q-3 0 -6 -3q-8 -8 -13 -8h-92q-15 0 -15 15v237q0 15 15 15h231q15 0 15 -15v-71 q0 -15 -15 -15h-122q-6 0 -6 -6v-57q0 -8 7 -4q20 15 44 15z" />
<glyph unicode="&#x2076;" horiz-adv-x="278" d="M178 667q44 0 68.5 -30t24.5 -82v-51q0 -51 -35.5 -80t-95.5 -29q-116 0 -129 105q-1 7 -1 23l-1 191q-1 51 34.5 81t94.5 30q57 0 92.5 -30t35.5 -81v-19q0 -15 -15 -15h-89q-15 0 -15 13v13q0 15 -9 15q-11 0 -11 -15v-50q0 -8 7 -4q20 15 44 15zM151 568q0 16 -12 16 t-12 -16v-56q0 -16 12 -16t12 16v56z" />
<glyph unicode="&#x2077;" horiz-adv-x="264" d="M56 400q-18 0 -13 17l92 295q1 7 -5 7h-26q-6 0 -6 -6v-17q0 -15 -15 -15h-65q-15 0 -15 15l1 109q0 15 15 15h227q15 0 15 -15v-77q0 -9 -3 -18l-93 -298q-4 -12 -17 -12h-92z" />
<glyph unicode="&#x2078;" horiz-adv-x="273" d="M228 620q-5 -4 0 -8q16 -12 26 -32q11 -25 11 -55q0 -27 -11 -55q-15 -34 -46 -54.5t-72 -20.5t-72.5 20t-45.5 55q-10 24 -10 55q0 32 10 55q9 21 26 32q5 5 0 8q-18 15 -26 34q-10 23 -10 53t10 53q14 32 45.5 50.5t72.5 18.5q88 0 118 -69q11 -25 11 -53 q0 -27 -11 -53q-8 -20 -26 -34zM124 678q0 -19 12 -19t12 19v32q0 18 -12 18t-12 -18v-32zM148 552q0 18 -12 18t-12 -18v-38q0 -18 12 -18t12 18v38z" />
<glyph unicode="&#x2079;" horiz-adv-x="278" d="M269 506q1 -51 -34.5 -81t-94.5 -30q-57 0 -92.5 30t-35.5 81v19q0 15 15 15h89q15 0 15 -13v-13q0 -15 9 -15q11 0 11 15v50q0 8 -7 3q-21 -14 -44 -14q-44 0 -68.5 30t-24.5 82v51q0 51 35.5 80t95.5 29q116 0 129 -105q1 -7 1 -23zM139 636q12 0 12 16v56q0 16 -12 16 t-12 -16v-56q0 -16 12 -16z" />
<glyph unicode="&#x20a3;" horiz-adv-x="482" d="M476 554q0 -15 -15 -15h-191q-6 0 -6 -6v-96q0 -6 6 -6h99q15 0 15 -15v-131q0 -15 -15 -15h-99q-6 0 -6 -6v-45q0 -6 6 -6h57q15 0 15 -15v-80q0 -15 -15 -15h-57q-6 0 -6 -6v-82q0 -15 -15 -15h-158q-15 0 -15 15v82q0 6 -6 6h-29q-15 0 -15 15v80q0 15 15 15h29 q6 0 6 6v466q0 15 15 15h370q15 0 15 -15v-131z" />
<glyph unicode="&#x20ac;" horiz-adv-x="510" d="M289 153q12 0 15 18q3 15 17 13l154 -23q15 -3 12 -17q-17 -71 -69 -111.5t-129 -40.5q-93 0 -149 58t-56 155v36q0 6 -6 6h-43q-15 0 -15 15v64q0 15 15 15h43q6 0 6 6v5q0 6 -6 6h-43q-15 0 -15 15v64q0 15 15 15h43q6 0 6 6v39q0 97 56 154t149 57q80 0 133.5 -42.5 t67.5 -118.5q2 -15 -13 -17l-156 -17q-13 -1 -16 13q-5 21 -16 21q-17 0 -17 -37v-52q0 -6 6 -6h118q17 0 12 -17l-18 -64q-3 -13 -16 -13h-96q-6 0 -6 -6v-5q0 -6 6 -6h86q18 0 13 -17l-18 -64q-3 -13 -17 -13h-64q-6 0 -6 -6v-52q0 -36 17 -36z" />
<glyph unicode="&#x20ba;" horiz-adv-x="592" d="M559 291q15 0 15 -15q0 -126 -74.5 -201t-227.5 -75h-145q-15 0 -15 15v233q0 7 -7 5l-41 -13q-14 -5 -18 10l-22 72q-4 13 10 18l73 22q5 2 5 7v29q0 7 -7 5l-41 -13q-14 -5 -18 10l-22 72q-4 13 10 18l73 22q5 2 5 7v166q0 15 15 15h158q15 0 15 -15v-108q0 -7 7 -5 l129 39q14 5 18 -10l22 -72q4 -13 -10 -18l-161 -48q-5 -2 -5 -7v-29q0 -7 7 -5l129 39q14 5 18 -10l22 -72q4 -13 -10 -18l-161 -48q-5 -2 -5 -7v-139q0 -7 6 -5q47 6 64.5 30.5t16.5 82.5q-2 16 14 16h158z" />
<glyph unicode="&#x20bd;" horiz-adv-x="541" d="M334 260h-56q-6 0 -6 -6v-28q0 -6 6 -6h146q15 0 15 -15v-71q0 -15 -15 -15h-146q-6 0 -6 -6v-98q0 -15 -15 -15h-158q-15 0 -15 15v98q0 6 -6 6h-36q-15 0 -15 15v71q0 15 15 15h36q6 0 6 6v28q0 6 -6 6h-37q-15 0 -15 15v115q0 15 15 15h37q6 0 6 6v274q0 15 15 15h225 q91 0 148 -62.5t57 -162.5q0 -97 -54 -156t-141 -59zM278 539q-6 0 -6 -6v-122q0 -6 6 -6h13q23 0 36.5 16.5t13.5 49.5t-13.5 50.5t-36.5 17.5h-13z" />
<glyph unicode="&#x2113;" horiz-adv-x="440" d="M310 155q11 12 21 2l79 -79q10 -10 1 -21q-29 -35 -64 -50t-91 -15q-74 0 -120 42.5t-51 118.5q-2 8 -7 4l-7 -4q-15 -9 -20 8l-27 94q-3 13 8 20q24 12 48 27q4 3 4 8l-1 193q0 32 10 65.5t30 65.5t56 52.5t82 20.5q69 0 110 -43.5t41 -114.5q0 -154 -172 -286 q-4 -3 -4 -8v-50q0 -38 10.5 -55.5t24.5 -17.5q21 0 39 23zM257 577q-8 -1 -12.5 -7.5t-7 -29.5t-2.5 -67v-30q0 -4 2.5 -5t4.5 3q34 46 34 91q0 16 -1 24t-5 14.5t-13 6.5z" />
<glyph unicode="&#x2122;" horiz-adv-x="560" d="M24 616q-15 0 -15 15v54q0 15 15 15h220q15 0 15 -15v-54q0 -15 -15 -15h-56q-6 0 -6 -6v-246q0 -15 -15 -15h-68q-15 0 -15 15v246q0 6 -6 6h-54zM448 690q6 10 18 10h68q15 0 15 -15v-321q0 -15 -15 -15h-68q-15 0 -15 15v186q0 4 -2.5 5t-4.5 -3l-17 -25l-11 -15h-1 l-28 42q-2 4 -4.5 3t-2.5 -5v-188q0 -15 -15 -15h-68q-15 0 -15 15v321q0 15 15 15h69q12 0 18 -10l28 -42q4 -6 8 0z" />
<glyph unicode="&#x2126;" horiz-adv-x="506" d="M35 0q-15 0 -15 15v131q0 15 15 15h19q8 0 4 7q-26 46 -26 108v218q0 98 60.5 156t161.5 58t161.5 -58t60.5 -156v-218q0 -63 -27 -108q-3 -7 4 -7h18q15 0 15 -15v-131q0 -15 -15 -15h-192q-15 0 -15 15v134q0 8 10 18q14 11 14 38v297q0 45 -34 45t-34 -45v-297 q0 -27 13 -37q10 -10 10 -18v-135q0 -15 -15 -15h-193z" />
<glyph unicode="&#x212e;" horiz-adv-x="785" d="M392 708q162 0 267.5 -102t105.5 -259q0 -4 -15 -4h-592q-6 0 -6 -6v-208q0 -4 3 -7q94 -89 237 -89q87 0 168 46.5t122 118.5q6 11 18 11h16q20 0 12 -18q-45 -87 -138.5 -143t-197.5 -56q-162 0 -267 100t-105 255q0 157 105 259t267 102zM156 577q-3 -3 -3 -7v-180 q0 -6 6 -6h467q6 0 6 6v179q0 4 -3 7q-94 91 -237 91t-236 -90z" />
<glyph unicode="&#x215b;" horiz-adv-x="702" d="M155 295q0 -15 -15 -15h-88q-15 0 -15 15v298q0 6 -6 6h-7q-15 0 -15 16v57q0 12 10 18l9 5q9 5 19 5h93q15 0 15 -15v-390zM451 690q6 10 18 10h99q21 0 11 -18l-391 -672q-6 -10 -18 -10h-99q-21 0 -11 18zM657 220q-5 -4 0 -8q16 -12 26 -32q11 -25 11 -55 q0 -27 -11 -55q-15 -34 -46 -54.5t-72 -20.5t-72.5 20t-45.5 55q-10 24 -10 55q0 32 10 55q9 21 26 32q5 5 0 8q-18 15 -26 34q-10 23 -10 53t10 53q14 32 45.5 50.5t72.5 18.5q88 0 118 -69q11 -25 11 -53q0 -27 -11 -53q-8 -20 -26 -34zM553 278q0 -19 12 -19t12 19v32 q0 18 -12 18t-12 -18v-32zM577 152q0 18 -12 18t-12 -18v-38q0 -18 12 -18t12 18v38z" />
<glyph unicode="&#x215c;" horiz-adv-x="784" d="M287 385q1 -49 -33.5 -79.5t-90.5 -30.5q-59 0 -95.5 30.5t-36.5 79.5v20q0 15 15 15h86q15 0 15 -9v-9q0 -26 16 -26q15 0 15 26v57q0 23 -15 23q-10 0 -17 -7q-13 -10 -21 0l-42 44q-9 11 1 21l59 53q3 2 2 4.5t-5 2.5h-84q-15 0 -15 15v70q0 15 15 15h213q15 0 15 -15 v-74q0 -11 -7 -19l-37 -39q-5 -5 1 -8q21 -15 33.5 -43t12.5 -57v-60zM533 690q6 10 18 10h99q21 0 11 -18l-391 -672q-6 -10 -18 -10h-99q-21 0 -11 18zM739 220q-5 -4 0 -8q16 -12 26 -32q11 -25 11 -55q0 -27 -11 -55q-15 -34 -46 -54.5t-72 -20.5t-72.5 20t-45.5 55 q-10 24 -10 55q0 32 10 55q9 21 26 32q5 5 0 8q-18 15 -26 34q-10 23 -10 53t10 53q14 32 45.5 50.5t72.5 18.5q88 0 118 -69q11 -25 11 -53q0 -27 -11 -53q-8 -20 -26 -34zM635 278q0 -19 12 -19t12 19v32q0 18 -12 18t-12 -18v-32zM659 152q0 18 -12 18t-12 -18v-38 q0 -18 12 -18t12 18v38z" />
<glyph unicode="&#x215d;" horiz-adv-x="765" d="M269 384q0 -51 -35.5 -80t-95.5 -29q-57 0 -92 26.5t-37 78.5v8q-1 15 14 15h88q15 0 15 -7v-7q0 -13 12 -13q13 0 13 16v37q0 16 -13 16q-3 0 -5 -1q-3 0 -6 -3q-8 -8 -13 -8h-92q-15 0 -15 15v237q0 15 15 15h231q15 0 15 -15v-71q0 -15 -15 -15h-122q-6 0 -6 -6v-57 q0 -8 7 -3q21 14 44 14q44 0 68.5 -30t24.5 -82v-51zM514 690q6 10 18 10h99q21 0 11 -18l-391 -672q-6 -10 -18 -10h-99q-21 0 -11 18zM720 220q-5 -4 0 -8q16 -12 26 -32q11 -25 11 -55q0 -27 -11 -55q-15 -34 -46 -54.5t-72 -20.5t-72.5 20t-45.5 55q-10 24 -10 55 q0 32 10 55q9 21 26 32q5 5 0 8q-18 15 -26 34q-10 23 -10 53t10 53q14 32 45.5 50.5t72.5 18.5q88 0 118 -69q11 -25 11 -53q0 -27 -11 -53q-8 -20 -26 -34zM616 278q0 -19 12 -19t12 19v32q0 18 -12 18t-12 -18v-32zM640 152q0 18 -12 18t-12 -18v-38q0 -18 12 -18t12 18 v38z" />
<glyph unicode="&#x215e;" horiz-adv-x="737" d="M165 292q-4 -12 -17 -12h-92q-18 0 -13 17l92 295q1 7 -5 7h-26q-6 0 -6 -6v-17q0 -15 -15 -15h-65q-15 0 -15 15l1 109q0 15 15 15h227q15 0 15 -15v-77q0 -9 -3 -18zM486 690q6 10 18 10h99q21 0 11 -18l-391 -672q-6 -10 -18 -10h-99q-21 0 -11 18zM692 220 q-5 -4 0 -8q16 -12 26 -32q11 -25 11 -55q0 -27 -11 -55q-15 -34 -46 -54.5t-72 -20.5t-72.5 20t-45.5 55q-10 24 -10 55q0 32 10 55q9 21 26 32q5 5 0 8q-18 15 -26 34q-10 23 -10 53t10 53q14 32 45.5 50.5t72.5 18.5q88 0 118 -69q11 -25 11 -53q0 -27 -11 -53 q-8 -20 -26 -34zM588 278q0 -19 12 -19t12 19v32q0 18 -12 18t-12 -18v-32zM612 152q0 18 -12 18t-12 -18v-38q0 -18 12 -18t12 18v38z" />
<glyph unicode="&#x2202;" horiz-adv-x="514" d="M403 616q58 -74 79.5 -208.5t-1.5 -219.5q-20 -89 -83.5 -142.5t-162.5 -53.5q-97 0 -157 56t-60 174q0 54 13.5 96.5t35.5 68.5t50.5 43t55.5 23t55 5q28 -2 50 -8q4 -1 6 1t0 5q-10 24 -20 37q-21 28 -48 31q-16 2 -41.5 -3.5t-44.5 -20.5q-14 -11 -20 4l-52 136 q-4 13 8 20q93 46 164 44q106 -3 173 -88zM252 153q51 0 57 107q0 5 -2 8q-9 21 -25 30t-30 9q-20 0 -33 -22t-13 -63q0 -69 46 -69z" />
<glyph unicode="&#x2206;" horiz-adv-x="568" d="M27 0q-15 0 -15 15v134q0 9 3 19l198 520q5 12 18 12h105q14 0 18 -12l199 -521q3 -11 3 -19v-133q0 -15 -15 -15h-514zM197 168q-1 -7 5 -7h164q6 0 5 7l-83 279q-4 10 -8 0z" />
<glyph unicode="&#x220f;" horiz-adv-x="487" d="M446 800q15 0 15 -15v-970q0 -15 -15 -15h-158q-15 0 -15 15v818q0 6 -6 6h-47q-6 0 -6 -6v-818q0 -15 -15 -15h-158q-15 0 -15 15v970q0 15 15 15h405z" />
<glyph unicode="&#x2211;" horiz-adv-x="495" d="M41 -200q-15 0 -15 15v136q0 10 4 19l171 356q2 5 0 8l-170 296q-5 10 -5 19v136q0 15 15 15h421q15 0 15 -15v-131q0 -15 -15 -15h-257q-7 0 -4 -7l178 -292q6 -10 1 -20l-179 -352q-3 -7 4 -7h257q15 0 15 -15v-131q0 -15 -15 -15h-421z" />
<glyph unicode="&#x2212;" horiz-adv-x="436" d="M33 234q-15 0 -15 15v110q0 15 15 15h370q15 0 15 -15v-110q0 -15 -15 -15h-370z" />
<glyph unicode="&#x2215;" horiz-adv-x="488" d="M27 0q-18 0 -11 18l287 671q4 11 17 11h141q19 0 12 -17l-287 -672q-4 -11 -17 -11h-142z" />
<glyph unicode="&#x2219;" horiz-adv-x="314" d="M158 148q-58 0 -99 41t-41 99t40.5 98.5t99.5 40.5q57 0 97.5 -40.5t40.5 -98.5t-40.5 -99t-97.5 -41z" />
<glyph unicode="&#x221a;" horiz-adv-x="781" d="M171 -200q-13 0 -17 12l-141 407q-4 15 9 19l147 48q14 5 19 -10l45 -160q4 -6 7 0l143 669q3 13 17 13h344q15 0 15 -15v-131q0 -15 -15 -15h-209q-4 0 -6 -5l-185 -819q-3 -13 -16 -13h-157z" />
<glyph unicode="&#x221e;" horiz-adv-x="671" d="M473 522q78 0 129 -58t51 -145t-51.5 -144.5t-131.5 -57.5q-74 0 -134 74q-4 6 -8 0q-61 -74 -135 -74q-73 0 -124 59t-51 145q0 85 51 143t126 58t134 -72q3 -5 8 0q61 72 136 72zM195 261q11 0 22 11.5t32 44.5q3 4 0 8q-18 32 -28 42.5t-24 10.5q-16 0 -26 -15.5 t-10 -41.5t9.5 -43t24.5 -17zM473 261q37 0 37 58q0 27 -9.5 43t-24.5 16q-29 0 -64 -54q-3 -5 5 -17q31 -46 56 -46z" />
<glyph unicode="&#x222b;" horiz-adv-x="342" d="M28 -200q-16 0 -16 15l1 95q0 15 14 15h13q17 2 27 12t10 24v595q1 85 50.5 113.5t186.5 30.5q16 0 16 -15v-95q0 -15 -13 -15h-14q-38 -5 -38 -36v-595q0 -85 -49.5 -113.5t-187.5 -30.5z" />
<glyph unicode="&#x2248;" horiz-adv-x="509" d="M333 305q-33 0 -71 23q-6 3 -18.5 11t-18.5 11.5t-15.5 7t-17.5 3.5q-31 0 -57 -32q-8 -11 -20 -4l-86 51q-11 7 -7 20q17 54 59 90t93 36q35 0 77 -25q4 -3 17.5 -11t19 -11t15 -6t16.5 -3q28 0 48 31q9 12 21 5l91 -55q12 -8 6 -20q-26 -52 -66 -87t-86 -35zM333 95 q-33 0 -71 23q-6 3 -18.5 11t-18.5 11.5t-15.5 7t-17.5 3.5q-31 0 -57 -32q-8 -11 -20 -4l-86 51q-11 7 -7 20q17 54 59 90t93 36q35 0 77 -25q4 -3 17.5 -11t19 -11t15 -6t16.5 -3q28 0 48 31q9 12 21 5l91 -55q12 -8 6 -20q-26 -52 -66 -87t-86 -35z" />
<glyph unicode="&#x2260;" horiz-adv-x="436" d="M418 336q0 -15 -15 -15h-118q-6 0 -7 -5l-7 -18q-3 -7 4 -7h128q15 0 15 -15v-110q0 -15 -15 -15h-186q-6 0 -7 -5l-29 -75q-5 -12 -18 -12h-78q-18 0 -12 17l26 68q2 7 -4 7h-62q-15 0 -15 15v110q0 15 15 15h120q6 0 7 5l7 18q3 7 -4 7h-130q-15 0 -15 15v110 q0 15 15 15h187q6 0 7 5l26 65q5 12 18 12h78q18 0 12 -17l-23 -58q-3 -7 4 -7h61q15 0 15 -15v-110z" />
<glyph unicode="&#x2264;" horiz-adv-x="436" d="M418 171q0 -8 -5 -11.5t-13 0.5l-371 162q-11 6 -11 17v136q0 11 11 17l371 162q8 4 13 0.5t5 -11.5v-146q0 -13 -12 -17l-198 -69q-10 -4 0 -8l198 -69q12 -5 12 -17v-146zM418 15q0 -15 -15 -15h-370q-15 0 -15 15v110q0 15 15 15h370q15 0 15 -15v-110z" />
<glyph unicode="&#x2265;" horiz-adv-x="436" d="M36 160q-8 -4 -13 -0.5t-5 11.5v146q0 13 12 17l198 69q10 4 0 8l-198 69q-12 4 -12 17v146q0 8 5 11.5t13 -0.5l371 -162q11 -6 11 -17v-136q0 -11 -11 -17zM33 0q-15 0 -15 15v110q0 15 15 15h370q15 0 15 -15v-110q0 -15 -15 -15h-370z" />
<glyph unicode="&#x25ca;" horiz-adv-x="469" d="M186 -60q-12 0 -17 12l-147 388q-4 10 0 20l147 388q5 12 18 12h96q13 0 17 -12l147 -388q4 -10 0 -20l-146 -388q-4 -12 -17 -12h-98zM231 141q1 -3 2.5 -4t3 0t2.5 4l67 205q2 4 0 8l-67 196q-1 3 -2.5 4t-3 0t-2.5 -4l-67 -196q-2 -4 0 -8z" />
<glyph unicode="&#x25fc;" horiz-adv-x="520" d="M0 520h520v-520h-520v520z" />
<glyph horiz-adv-x="237" d="M117 564q-35 0 -56.5 22t-21.5 57q0 36 21.5 57.5t56.5 21.5t56 -21.5t21 -57.5q0 -35 -21 -57t-56 -22zM38 0q-15 0 -15 15v490q0 15 15 15h158q15 0 15 -15v-490q0 -15 -15 -15h-158z" />
<glyph horiz-adv-x="460" d="M250 505q0 15 15 15h158q15 0 15 -15v-490q0 -15 -15 -15h-158q-15 0 -15 15v20q0 6 -4 4q-2 -1 -3 -3q-30 -44 -88 -44q-137 0 -137 178v180q0 178 137 178q59 0 88 -45q2 -4 4.5 -3t2.5 5v20zM227 153q23 0 23 32v150q0 32 -23 32q-21 0 -21 -32v-150q0 -32 21 -32z " />
<glyph horiz-adv-x="512" d="M323 0q-15 0 -16 14l-6 46q0 6 -7 6h-79q-4 0 -6 -5l-9 -47q-3 -14 -16 -14h-157q-16 0 -13 17l134 548q3 13 16 13h184q13 0 16 -13l134 -548q3 -17 -13 -17h-162zM237 216q-1 -6 6 -6h30q7 0 5 6l-15 109q-1 8 -5 4l-2 -4z" />
<glyph horiz-adv-x="512" d="M386 750q9 0 12 -5t-3 -13l-77 -94q-8 -9 -18 -9h-119q-20 0 -10 18l55 93q6 10 18 10h142zM323 0q-15 0 -16 14l-6 46q0 6 -7 6h-79q-4 0 -6 -5l-9 -47q-3 -14 -16 -14h-157q-16 0 -13 17l134 548q3 13 16 13h184q13 0 16 -13l134 -548q3 -17 -13 -17h-162zM237 216 q-1 -6 6 -6h30q7 0 5 6l-15 109q-1 8 -5 4l-2 -4z" />
<glyph horiz-adv-x="512" d="M256 601q-55 0 -90 30t-40 81q-2 15 14 15h66q13 0 15 -14q6 -34 35 -34t35 34q2 14 15 14h66q16 0 14 -15q-5 -51 -40 -81t-90 -30zM323 0q-15 0 -16 14l-6 46q0 6 -7 6h-79q-4 0 -6 -5l-9 -47q-3 -14 -16 -14h-157q-16 0 -13 17l134 548q3 13 16 13h184q13 0 16 -13 l134 -548q3 -17 -13 -17h-162zM237 216q-1 -6 6 -6h30q7 0 5 6l-15 109q-1 8 -5 4l-2 -4z" />
<glyph horiz-adv-x="512" d="M343 633q-6 -10 -18 -10h-150q-12 0 -18 10l-64 101q-5 8 -2 13t12 5h108q13 0 18 -11l23 -43q4 -9 8 0l22 43q6 11 17 11h99q9 0 12 -5t-2 -13zM323 0q-15 0 -16 14l-6 46q0 6 -7 6h-79q-4 0 -6 -5l-9 -47q-3 -14 -16 -14h-157q-16 0 -13 17l134 548q3 13 16 13h184 q13 0 16 -13l134 -548q3 -17 -13 -17h-162zM237 216q-1 -6 6 -6h30q7 0 5 6l-15 109q-1 8 -5 4l-2 -4z" />
<glyph horiz-adv-x="512" d="M258 683q-4 8 -8 0l-20 -43q-5 -11 -17 -11h-113q-9 0 -12 5.5t2 12.5l64 101q6 10 18 10h161q12 0 18 -10l66 -101q11 -18 -10 -18h-112q-12 0 -17 11zM323 0q-15 0 -16 14l-6 46q0 6 -7 6h-79q-4 0 -6 -5l-9 -47q-3 -14 -16 -14h-157q-16 0 -13 17l134 548q3 13 16 13 h184q13 0 16 -13l134 -548q3 -17 -13 -17h-162zM237 216q-1 -6 6 -6h30q7 0 5 6l-15 109q-1 8 -5 4l-2 -4z" />
<glyph horiz-adv-x="512" d="M162 609q-38 0 -62.5 24t-24.5 63t24.5 63t62.5 24t61.5 -24t23.5 -63t-23.5 -63t-61.5 -24zM355 609q-39 0 -62.5 24t-23.5 63t23.5 63t62.5 24t62.5 -24t23.5 -63t-23.5 -63t-62.5 -24zM323 0q-15 0 -16 14l-6 46q0 6 -7 6h-79q-4 0 -6 -5l-9 -47q-3 -14 -16 -14h-157 q-16 0 -13 17l134 548q3 13 16 13h184q13 0 16 -13l134 -548q3 -17 -13 -17h-162zM237 216q-1 -6 6 -6h30q7 0 5 6l-15 109q-1 8 -5 4l-2 -4z" />
<glyph horiz-adv-x="512" d="M322 647q10 -18 -10 -18h-119q-11 0 -18 9l-77 94q-6 8 -3 13t12 5h142q12 0 18 -10zM323 0q-15 0 -16 14l-6 46q0 6 -7 6h-79q-4 0 -6 -5l-9 -47q-3 -14 -16 -14h-157q-16 0 -13 17l134 548q3 13 16 13h184q13 0 16 -13l134 -548q3 -17 -13 -17h-162zM237 216 q-1 -6 6 -6h30q7 0 5 6l-15 109q-1 8 -5 4l-2 -4z" />
<glyph horiz-adv-x="512" d="M351 755q15 0 15 -15v-95q0 -15 -15 -15h-201q-15 0 -15 15v95q0 15 15 15h201zM323 0q-15 0 -16 14l-6 46q0 6 -7 6h-79q-4 0 -6 -5l-9 -47q-3 -14 -16 -14h-157q-16 0 -13 17l134 548q3 13 16 13h184q13 0 16 -13l134 -548q3 -17 -13 -17h-162zM237 216q-1 -6 6 -6h30 q7 0 5 6l-15 109q-1 8 -5 4l-2 -4z" />
<glyph horiz-adv-x="512" d="M448 -79q4 -17 21 -17q15 0 16 -11l7 -62q2 -14 -11 -17q-24 -8 -51 -10t-57.5 13t-39.5 52q-16 66 40 124q5 7 -3 7h-47q-15 0 -16 14l-6 46q0 6 -7 6h-79q-4 0 -6 -5l-9 -47q-3 -14 -16 -14h-157q-16 0 -13 17l134 548q3 13 16 13h184q13 0 16 -13l135 -553 q2 -11 -17 -29q-40 -37 -34 -62zM237 216q-1 -6 6 -6h30q7 0 5 6l-15 109q-1 8 -5 4l-2 -4z" />
<glyph horiz-adv-x="512" d="M256 612q-50 0 -83.5 34t-33.5 83t34 82.5t83 33.5t83 -33.5t34 -82.5t-33.5 -83t-83.5 -34zM256 766q-15 0 -25.5 -10.5t-10.5 -26.5q0 -15 10.5 -25.5t25.5 -10.5t25.5 10.5t10.5 25.5q0 16 -10.5 26.5t-25.5 10.5zM323 0q-15 0 -16 14l-6 46q0 6 -7 6h-79q-4 0 -6 -5 l-9 -47q-3 -14 -16 -14h-157q-16 0 -13 17l134 548q3 13 16 13h184q13 0 16 -13l134 -548q3 -17 -13 -17h-162zM237 216q-1 -6 6 -6h30q7 0 5 6l-15 109q-1 8 -5 4l-2 -4z" />
<glyph horiz-adv-x="512" d="M231 661q-17 0 -29 -18q-10 -13 -21 -5l-55 40q-10 7 -7 19q26 79 96 79q33 0 67 -22q27 -17 39 -17q19 0 31 15q10 13 20 5l53 -37q12 -8 6 -21q-35 -70 -105 -70q-24 0 -55 15q-6 3 -14.5 8t-14 7t-11.5 2zM323 0q-15 0 -16 14l-6 46q0 6 -7 6h-79q-4 0 -6 -5l-9 -47 q-3 -14 -16 -14h-157q-16 0 -13 17l134 548q3 13 16 13h184q13 0 16 -13l134 -548q3 -17 -13 -17h-162zM237 216q-1 -6 6 -6h30q7 0 5 6l-15 109q-1 8 -5 4l-2 -4z" />
<glyph horiz-adv-x="760" d="M745 432q0 -15 -15 -15h-178q-6 0 -6 -6v-35q0 -6 6 -6h89q15 0 15 -15v-131q0 -15 -15 -15h-89q-6 0 -6 -6v-36q0 -6 6 -6h178q15 0 15 -15v-131q0 -15 -15 -15h-357q-15 0 -15 15v45q0 6 -6 6h-111q-6 0 -7 -5l-21 -49q-5 -12 -18 -12h-166q-19 0 -11 18l252 549 q5 11 17 11h443q15 0 15 -15v-131zM302 217q-3 -7 5 -7h45q6 0 6 6v114q0 5 -3 5.5t-4 -3.5z" />
<glyph horiz-adv-x="463" d="M449 169q1 -83 -58 -126t-150 -43h-205q-15 0 -15 15v548q0 15 15 15h175q105 0 165 -41t60 -126q0 -74 -50 -107q-5 -5 -1 -7q63 -44 64 -128zM214 417q-5 0 -5 -6v-50q0 -6 5 -6h4q38 0 38 32q0 30 -38 30h-4zM226 161q36 0 36 33q0 16 -10 26.5t-25 10.5h-12 q-6 0 -6 -6v-58q0 -6 6 -6h11z" />
<glyph horiz-adv-x="457" d="M229 -7q-97 0 -154.5 52.5t-57.5 144.5v199q0 93 57.5 144.5t154.5 51.5t155 -52t58 -144q0 -15 -15 -15l-158 -5q-15 0 -15 14v20q0 21 -25 21q-24 0 -24 -21v-229q0 -20 24 -20q25 0 25 20v22q0 14 15 14l158 -5q15 0 15 -8v-7q0 -92 -58 -144.5t-155 -52.5z" />
<glyph horiz-adv-x="457" d="M154 636q-20 0 -10 18l55 93q6 10 18 10h142q9 0 12 -5.5t-3 -12.5l-77 -94q-7 -9 -18 -9h-119zM229 -7q-97 0 -154.5 52.5t-57.5 144.5v199q0 93 57.5 144.5t154.5 51.5t155 -52t58 -144q0 -15 -15 -15l-158 -5q-15 0 -15 14v20q0 21 -25 21q-24 0 -24 -21v-229 q0 -20 24 -20q25 0 25 20v22q0 14 15 14l158 -5q15 0 15 -8v-7q0 -92 -58 -144.5t-155 -52.5z" />
<glyph horiz-adv-x="457" d="M148 630q-12 0 -18 10l-64 101q-5 7 -2 12.5t12 5.5h108q12 0 18 -11l23 -43q4 -9 8 0l22 43q6 11 17 11h99q9 0 12 -5.5t-2 -12.5l-65 -101q-6 -10 -18 -10h-150zM229 -7q-97 0 -154.5 52.5t-57.5 144.5v199q0 93 57.5 144.5t154.5 51.5t155 -52t58 -144q0 -15 -15 -15 l-158 -5q-15 0 -15 14v20q0 21 -25 21q-24 0 -24 -21v-229q0 -20 24 -20q25 0 25 20v22q0 14 15 14l158 -5q15 0 15 -8v-7q0 -92 -58 -144.5t-155 -52.5z" />
<glyph horiz-adv-x="457" d="M442 382q0 -8 -15 -8l-158 -5q-15 0 -15 14v20q0 21 -25 21q-24 0 -24 -21v-229q0 -20 24 -20q25 0 25 20v22q0 14 15 14l158 -5q15 0 15 -8v-7q0 -75 -39.5 -124.5t-108.5 -65.5q-8 -2 -3 -8q45 -53 31 -113q-9 -37 -39.5 -52t-57.5 -13t-51 10q-13 3 -11 17l7 62 q1 11 16 11q17 0 21 17q6 26 -38 66q-3 3 -7 4q-68 16 -106.5 65t-38.5 124v199q0 93 57.5 144.5t154.5 51.5t155 -52t58 -144v-7z" />
<glyph horiz-adv-x="457" d="M229 616q-35 0 -56.5 22t-21.5 57q0 36 21.5 57.5t56.5 21.5t56 -21.5t21 -57.5q0 -35 -21 -57t-56 -22zM229 -7q-97 0 -154.5 52.5t-57.5 144.5v199q0 93 57.5 144.5t154.5 51.5t155 -52t58 -144q0 -15 -15 -15l-158 -5q-15 0 -15 14v20q0 21 -25 21q-24 0 -24 -21v-229 q0 -20 24 -20q25 0 25 20v22q0 14 15 14l158 -5q15 0 15 -8v-7q0 -92 -58 -144.5t-155 -52.5z" />
<glyph horiz-adv-x="460" d="M36 0q-15 0 -15 15v548q0 15 15 15h190q97 0 157 -47t60 -122v-240q0 -75 -60 -122t-157 -47h-190zM209 167q0 -6 6 -6l7 1q25 2 32 18q1 2 1 7v210q0 8 -9.5 14t-24.5 6h-6q-6 0 -6 -6v-244z" />
<glyph horiz-adv-x="479" d="M245 578q97 0 157 -47t60 -122v-240q0 -75 -60 -122t-157 -47h-190q-15 0 -15 15v230q0 6 -2 6h-2q-15 0 -15 15v73q0 15 10 15h3q6 0 6 6v203q0 15 15 15h190zM273 180q1 2 1 7v210q0 8 -9.5 14t-24.5 6h-6q-6 0 -6 -6v-51q0 -6 5 -6h5q15 0 15 -15v-73q0 -15 -12 -15 h-7q-6 0 -6 -6v-78q0 -6 6 -6l7 1q25 2 32 18z" />
<glyph horiz-adv-x="460" d="M142 627q-12 0 -18 10l-64 101q-5 8 -2 13t12 5h108q12 0 18 -11l23 -43q4 -9 8 0l22 43q6 11 17 11h99q9 0 12 -5t-2 -13l-65 -101q-6 -10 -18 -10h-150zM36 0q-15 0 -15 15v548q0 15 15 15h190q97 0 157 -47t60 -122v-240q0 -75 -60 -122t-157 -47h-190zM209 167 q0 -6 6 -6l7 1q25 2 32 18q1 2 1 7v210q0 8 -9.5 14t-24.5 6h-6q-6 0 -6 -6v-244z" />
<glyph horiz-adv-x="479" d="M245 578q97 0 157 -47t60 -122v-240q0 -75 -60 -122t-157 -47h-190q-15 0 -15 15v230q0 6 -2 6h-2q-15 0 -15 15v73q0 15 10 15h3q6 0 6 6v203q0 15 15 15h190zM273 180q1 2 1 7v210q0 8 -9.5 14t-24.5 6h-6q-6 0 -6 -6v-51q0 -6 5 -6h5q15 0 15 -15v-73q0 -15 -12 -15 h-7q-6 0 -6 -6v-78q0 -6 6 -6l7 1q25 2 32 18z" />
<glyph horiz-adv-x="423" d="M408 432q0 -15 -15 -15h-178q-6 0 -6 -6v-35q0 -6 6 -6h89q15 0 15 -15v-131q0 -15 -15 -15h-89q-6 0 -6 -6v-36q0 -6 6 -6h178q15 0 15 -15v-131q0 -15 -15 -15h-357q-15 0 -15 15v548q0 15 15 15h357q15 0 15 -15v-131z" />
<glyph horiz-adv-x="423" d="M344 762q9 0 12 -5t-3 -13l-77 -94q-8 -9 -18 -9h-119q-20 0 -10 18l55 93q6 10 18 10h142zM408 432q0 -15 -15 -15h-178q-6 0 -6 -6v-35q0 -6 6 -6h89q15 0 15 -15v-131q0 -15 -15 -15h-89q-6 0 -6 -6v-36q0 -6 6 -6h178q15 0 15 -15v-131q0 -15 -15 -15h-357 q-15 0 -15 15v548q0 15 15 15h357q15 0 15 -15v-131z" />
<glyph horiz-adv-x="423" d="M301 645q-6 -10 -18 -10h-150q-12 0 -18 10l-64 101q-5 8 -2 13t12 5h108q13 0 18 -11l23 -43q4 -9 8 0l22 43q6 11 17 11h99q9 0 12 -5t-2 -13zM408 432q0 -15 -15 -15h-178q-6 0 -6 -6v-35q0 -6 6 -6h89q15 0 15 -15v-131q0 -15 -15 -15h-89q-6 0 -6 -6v-36q0 -6 6 -6 h178q15 0 15 -15v-131q0 -15 -15 -15h-357q-15 0 -15 15v548q0 15 15 15h357q15 0 15 -15v-131z" />
<glyph horiz-adv-x="423" d="M408 432q0 -15 -15 -15h-178q-6 0 -6 -6v-35q0 -6 6 -6h89q15 0 15 -15v-131q0 -15 -15 -15h-89q-6 0 -6 -6v-36q0 -6 6 -6h178q15 0 15 -15v-131q0 -15 -15 -15h-116q-8 0 -3 -7q39 -51 25 -107q-9 -37 -39.5 -52t-57.5 -13t-51 10q-13 3 -11 17l7 62q1 11 16 11 q17 0 21 17q6 23 -31 59q-3 3 -7 3h-110q-15 0 -15 15v548q0 15 15 15h357q15 0 15 -15v-131z" />
<glyph horiz-adv-x="423" d="M216 695q-4 8 -8 0l-20 -43q-5 -11 -17 -11h-113q-9 0 -12 5.5t2 12.5l64 101q6 10 18 10h161q12 0 18 -10l66 -101q11 -18 -10 -18h-112q-12 0 -17 11zM408 432q0 -15 -15 -15h-178q-6 0 -6 -6v-35q0 -6 6 -6h89q15 0 15 -15v-131q0 -15 -15 -15h-89q-6 0 -6 -6v-36 q0 -6 6 -6h178q15 0 15 -15v-131q0 -15 -15 -15h-357q-15 0 -15 15v548q0 15 15 15h357q15 0 15 -15v-131z" />
<glyph horiz-adv-x="423" d="M120 621q-38 0 -62.5 24t-24.5 63t24.5 63t62.5 24t61.5 -24t23.5 -63t-23.5 -63t-61.5 -24zM313 621q-39 0 -62.5 24t-23.5 63t23.5 63t62.5 24t62.5 -24t23.5 -63t-23.5 -63t-62.5 -24zM408 432q0 -15 -15 -15h-178q-6 0 -6 -6v-35q0 -6 6 -6h89q15 0 15 -15v-131 q0 -15 -15 -15h-89q-6 0 -6 -6v-36q0 -6 6 -6h178q15 0 15 -15v-131q0 -15 -15 -15h-357q-15 0 -15 15v548q0 15 15 15h357q15 0 15 -15v-131z" />
<glyph horiz-adv-x="423" d="M214 621q-35 0 -56.5 22t-21.5 57q0 36 21.5 57.5t56.5 21.5t56 -21.5t21 -57.5q0 -35 -21 -57t-56 -22zM408 432q0 -15 -15 -15h-178q-6 0 -6 -6v-35q0 -6 6 -6h89q15 0 15 -15v-131q0 -15 -15 -15h-89q-6 0 -6 -6v-36q0 -6 6 -6h178q15 0 15 -15v-131q0 -15 -15 -15 h-357q-15 0 -15 15v548q0 15 15 15h357q15 0 15 -15v-131z" />
<glyph horiz-adv-x="423" d="M280 659q10 -18 -10 -18h-119q-11 0 -18 9l-77 94q-6 8 -3 13t12 5h142q12 0 18 -10zM408 432q0 -15 -15 -15h-178q-6 0 -6 -6v-35q0 -6 6 -6h89q15 0 15 -15v-131q0 -15 -15 -15h-89q-6 0 -6 -6v-36q0 -6 6 -6h178q15 0 15 -15v-131q0 -15 -15 -15h-357q-15 0 -15 15 v548q0 15 15 15h357q15 0 15 -15v-131z" />
<glyph horiz-adv-x="423" d="M309 767q15 0 15 -15v-95q0 -15 -15 -15h-201q-15 0 -15 15v95q0 15 15 15h201zM408 432q0 -15 -15 -15h-178q-6 0 -6 -6v-35q0 -6 6 -6h89q15 0 15 -15v-131q0 -15 -15 -15h-89q-6 0 -6 -6v-36q0 -6 6 -6h178q15 0 15 -15v-131q0 -15 -15 -15h-357q-15 0 -15 15v548 q0 15 15 15h357q15 0 15 -15v-131z" />
<glyph horiz-adv-x="423" d="M408 432q0 -15 -15 -15h-178q-6 0 -6 -6v-35q0 -6 6 -6h89q15 0 15 -15v-131q0 -15 -15 -15h-89q-6 0 -6 -6v-36q0 -6 6 -6h178q15 0 15 -15v-131q0 -15 -15 -15h-120q-4 0 -7 -3q-45 -39 -39 -66q4 -17 21 -17q15 0 16 -11l7 -62q2 -14 -11 -17q-24 -8 -51 -10t-57.5 13 t-39.5 52q-14 58 31 114q5 7 -4 7h-103q-15 0 -15 15v548q0 15 15 15h357q15 0 15 -15v-131z" />
<glyph horiz-adv-x="413" d="M408 432q0 -15 -15 -15h-178q-6 0 -6 -6v-35q0 -6 6 -6h90q15 0 15 -15v-131q0 -15 -15 -15h-90q-6 0 -6 -6v-188q0 -15 -15 -15h-158q-15 0 -15 15v548q0 15 15 15h357q15 0 15 -15v-131z" />
<glyph horiz-adv-x="457" d="M229 -7q-97 0 -154.5 49.5t-57.5 134.5v225q0 85 57.5 134t154.5 49q96 0 154.5 -50t58.5 -135v-18q0 -15 -15 -15h-158q-15 0 -15 15v20q0 22 -25 22q-24 0 -24 -22v-226q0 -22 24 -22q25 0 25 22v21q0 6 -4 6h-4q-15 0 -15 15v98q0 15 15 15h181q15 0 15 -15v-139 q0 -85 -58.5 -134.5t-154.5 -49.5z" />
<glyph horiz-adv-x="457" d="M229 608q-55 0 -90 30t-40 81q-1 15 14 15h66q13 0 15 -14q6 -34 35 -34t35 34q2 14 15 14h66q15 0 14 -15q-5 -51 -40 -81t-90 -30zM229 -7q-97 0 -154.5 49.5t-57.5 134.5v225q0 85 57.5 134t154.5 49q96 0 154.5 -50t58.5 -135v-18q0 -15 -15 -15h-158q-15 0 -15 15 v20q0 22 -25 22q-24 0 -24 -22v-226q0 -22 24 -22q25 0 25 22v21q0 6 -4 6h-4q-15 0 -15 15v98q0 15 15 15h181q15 0 15 -15v-139q0 -85 -58.5 -134.5t-154.5 -49.5z" />
<glyph horiz-adv-x="457" d="M229 -7q-97 0 -154.5 49.5t-57.5 134.5v225q0 85 57.5 134t154.5 49q96 0 154.5 -50t58.5 -135v-18q0 -15 -15 -15h-158q-15 0 -15 15v20q0 22 -25 22q-24 0 -24 -22v-226q0 -22 24 -22q25 0 25 22v21q0 6 -4 6h-4q-15 0 -15 15v98q0 15 15 15h181q15 0 15 -15v-139 q0 -85 -58.5 -134.5t-154.5 -49.5zM122 -178q-20 0 -10 18l55 93q6 10 18 10h142q9 0 12 -5.5t-3 -12.5l-77 -94q-7 -9 -18 -9h-119z" />
<glyph horiz-adv-x="457" d="M229 616q-35 0 -56.5 22t-21.5 57q0 36 21.5 57.5t56.5 21.5t56 -21.5t21 -57.5q0 -35 -21 -57t-56 -22zM229 -7q-97 0 -154.5 49.5t-57.5 134.5v225q0 85 57.5 134t154.5 49q96 0 154.5 -50t58.5 -135v-18q0 -15 -15 -15h-158q-15 0 -15 15v20q0 22 -25 22 q-24 0 -24 -22v-226q0 -22 24 -22q25 0 25 22v21q0 6 -4 6h-4q-15 0 -15 15v98q0 15 15 15h181q15 0 15 -15v-139q0 -85 -58.5 -134.5t-154.5 -49.5z" />
<glyph horiz-adv-x="463" d="M254 563q0 15 15 15h158q15 0 15 -15v-548q0 -15 -15 -15h-158q-15 0 -15 15v188q0 6 -6 6h-33q-6 0 -6 -6v-188q0 -15 -15 -15h-158q-15 0 -15 15v548q0 15 15 15h158q15 0 15 -15v-187q0 -6 6 -6h33q6 0 6 6v187z" />
<glyph horiz-adv-x="463" d="M481 544q15 0 15 -15v-95q0 -15 -15 -15h-33q-6 0 -6 -6v-398q0 -15 -15 -15h-158q-15 0 -15 15v188q0 6 -6 6h-33q-6 0 -6 -6v-188q0 -15 -15 -15h-158q-15 0 -15 15v398q0 6 -6 6h-33q-15 0 -15 15v95q0 15 15 15h33q6 0 6 6v13q0 15 15 15h158q15 0 15 -15v-13 q0 -6 6 -6h33q6 0 6 6v13q0 15 15 15h158q15 0 15 -15v-13q0 -6 6 -6h33zM248 370q6 0 6 6v37q0 6 -6 6h-33q-6 0 -6 -6v-37q0 -6 6 -6h33z" />
<glyph horiz-adv-x="230" d="M36 0q-15 0 -15 15v548q0 15 15 15h158q15 0 15 -15v-548q0 -15 -15 -15h-158z" />
<glyph horiz-adv-x="230" d="M40 641q-20 0 -10 18l55 93q6 10 18 10h142q9 0 12 -5t-3 -13l-77 -94q-7 -9 -18 -9h-119zM36 0q-15 0 -15 15v548q0 15 15 15h158q15 0 15 -15v-548q0 -15 -15 -15h-158z" />
<glyph horiz-adv-x="230" d="M-41 641q-9 0 -12 5.5t2 12.5l64 101q6 10 18 10h161q12 0 18 -10l66 -101q11 -18 -10 -18h-112q-12 0 -17 11l-20 43q-4 8 -8 0l-20 -43q-5 -11 -17 -11h-113zM36 0q-15 0 -15 15v548q0 15 15 15h158q15 0 15 -15v-548q0 -15 -15 -15h-158z" />
<glyph horiz-adv-x="230" d="M21 621q-38 0 -62.5 24t-24.5 63t24.5 63t62.5 24t61.5 -24t23.5 -63t-23.5 -63t-61.5 -24zM214 621q-39 0 -62.5 24t-23.5 63t23.5 63t62.5 24t62.5 -24t23.5 -63t-23.5 -63t-62.5 -24zM36 0q-15 0 -15 15v548q0 15 15 15h158q15 0 15 -15v-548q0 -15 -15 -15h-158z" />
<glyph horiz-adv-x="230" d="M115 621q-35 0 -56.5 22t-21.5 57q0 36 21.5 57.5t56.5 21.5t56 -21.5t21 -57.5q0 -35 -21 -57t-56 -22zM36 0q-15 0 -15 15v548q0 15 15 15h158q15 0 15 -15v-548q0 -15 -15 -15h-158z" />
<glyph horiz-adv-x="230" d="M181 659q10 -18 -10 -18h-119q-10 0 -18 9l-77 94q-6 8 -3 13t12 5h142q12 0 18 -10zM36 0q-15 0 -15 15v548q0 15 15 15h158q15 0 15 -15v-548q0 -15 -15 -15h-158z" />
<glyph horiz-adv-x="680" d="M36 0q-15 0 -15 15v548q0 15 15 15h158q15 0 15 -15v-548q0 -15 -15 -15h-158zM446 -7q-94 0 -152 48t-58 126v39q0 15 15 15h158q15 0 15 -15v-41q0 -11 22 -11q25 0 25 11v398q0 15 15 15h158q15 0 15 -15v-396q0 -78 -58.5 -126t-154.5 -48z" />
<glyph horiz-adv-x="230" d="M9 642q-15 0 -15 15v95q0 15 15 15h201q15 0 15 -15v-95q0 -15 -15 -15h-201zM36 0q-15 0 -15 15v548q0 15 15 15h158q15 0 15 -15v-548q0 -15 -15 -15h-158z" />
<glyph horiz-adv-x="228" d="M156 -79q4 -17 21 -17q15 0 16 -11l7 -62q2 -14 -11 -17q-24 -8 -51 -10t-57.5 13t-39.5 52q-16 66 40 124q5 7 -3 7h-42q-15 0 -15 15v548q0 15 15 15h158q15 0 15 -15v-563q-5 -4 -18 -16q-41 -37 -35 -63z" />
<glyph horiz-adv-x="450" d="M216 -7q-94 0 -152 48t-58 126v39q0 15 15 15h158q15 0 15 -15v-41q0 -11 22 -11q25 0 25 11v398q0 15 15 15h158q15 0 15 -15v-396q0 -78 -58.5 -126t-154.5 -48z" />
<glyph horiz-adv-x="496" d="M36 0q-15 0 -15 15v548q0 15 15 15h158q15 0 15 -15v-133q0 -5 2.5 -5.5t4.5 3.5l71 139q5 11 17 11h166q8 0 11.5 -5t-0.5 -13l-121 -229q-1 -4 0 -8l124 -306q6 -17 -12 -17h-166q-14 0 -18 12l-57 148q-4 10 -8 0l-12 -24q-2 -6 -2 -7v-114q0 -15 -15 -15h-158z" />
<glyph horiz-adv-x="496" d="M36 0q-15 0 -15 15v548q0 15 15 15h158q15 0 15 -15v-133q0 -5 2.5 -5.5t4.5 3.5l71 139q5 11 17 11h166q8 0 11.5 -5t-0.5 -13l-121 -229q-1 -4 0 -8l124 -306q6 -17 -12 -17h-166q-14 0 -18 12l-57 148q-4 10 -8 0l-12 -24q-2 -6 -2 -7v-114q0 -15 -15 -15h-158z M135 -171q-20 0 -10 18l55 93q6 10 18 10h142q9 0 12 -5t-3 -13l-77 -94q-8 -9 -18 -9h-119z" />
<glyph horiz-adv-x="428" d="M36 0q-15 0 -15 15v548q0 15 15 15h158q15 0 15 -15v-396q0 -6 6 -6h182q15 0 15 -15v-131q0 -15 -15 -15h-361z" />
<glyph horiz-adv-x="428" d="M44 629q-20 0 -10 18l55 93q6 10 18 10h142q9 0 12 -5t-3 -13l-77 -94q-7 -9 -18 -9h-119zM36 0q-15 0 -15 15v548q0 15 15 15h158q15 0 15 -15v-396q0 -6 6 -6h182q15 0 15 -15v-131q0 -15 -15 -15h-361z" />
<glyph horiz-adv-x="428" d="M38 623q-12 0 -18 10l-64 101q-5 8 -2 13t12 5h108q12 0 18 -11l23 -43q4 -9 8 0l22 43q6 11 17 11h99q9 0 12 -5t-2 -13l-65 -101q-6 -10 -18 -10h-150zM36 0q-15 0 -15 15v548q0 15 15 15h158q15 0 15 -15v-396q0 -6 6 -6h182q15 0 15 -15v-131q0 -15 -15 -15h-361z " />
<glyph horiz-adv-x="428" d="M36 0q-15 0 -15 15v548q0 15 15 15h158q15 0 15 -15v-396q0 -6 6 -6h182q15 0 15 -15v-131q0 -15 -15 -15h-361zM93 -171q-20 0 -10 18l55 93q6 10 18 10h142q9 0 12 -5t-3 -13l-77 -94q-8 -9 -18 -9h-119z" />
<glyph horiz-adv-x="588" d="M209 167q0 -6 6 -6h182q15 0 15 -15v-131q0 -15 -15 -15h-361q-15 0 -15 15v126q0 11 -7 4l-9 -8q-11 -11 -21 1l-54 63q-10 11 1 21l87 76q3 3 3 7v258q0 15 15 15h158q15 0 15 -15v-88q0 -11 7 -4l33 29q12 10 21 -1l54 -63q10 -12 -1 -21l-111 -97q-3 -3 -3 -7v-144z " />
<glyph horiz-adv-x="523" d="M36 0q-15 0 -15 15v548q0 15 15 15h157q12 0 18 -9l47 -60q4 -6 8 0l46 60q6 9 18 9h157q15 0 15 -15v-548q0 -15 -15 -15h-158q-15 0 -15 15v304q0 5 -2.5 6t-4.5 -3l-38 -60q-6 -10 -8 -10h-2l-43 72q-2 4 -4.5 3t-2.5 -5v-307q0 -15 -15 -15h-158z" />
<glyph horiz-adv-x="505" d="M36 0q-15 0 -15 15v548q0 15 15 15h156q14 0 18 -12l82 -204q2 -4 4.5 -3t2.5 5l-1 199q0 15 15 15h156q15 0 15 -15v-548q0 -15 -15 -15h-158q-13 0 -18 12l-81 205q-2 7 -6 2q-1 -1 -1 -3l2 -201q0 -15 -15 -15h-156z" />
<glyph horiz-adv-x="505" d="M175 641q-20 0 -10 18l55 93q6 10 18 10h142q9 0 12 -5t-3 -13l-77 -94q-8 -9 -18 -9h-119zM36 0q-15 0 -15 15v548q0 15 15 15h156q14 0 18 -12l82 -204q2 -4 4.5 -3t2.5 5l-1 199q0 15 15 15h156q15 0 15 -15v-548q0 -15 -15 -15h-158q-13 0 -18 12l-81 205q-2 7 -6 2 q-1 -1 -1 -3l2 -201q0 -15 -15 -15h-156z" />
<glyph horiz-adv-x="505" d="M169 635q-12 0 -18 10l-64 101q-5 8 -2 13t12 5h108q13 0 18 -11l23 -43q4 -9 8 0l22 43q6 11 17 11h99q9 0 12 -5t-2 -13l-65 -101q-6 -10 -18 -10h-150zM36 0q-15 0 -15 15v548q0 15 15 15h156q14 0 18 -12l82 -204q2 -4 4.5 -3t2.5 5l-1 199q0 15 15 15h156 q15 0 15 -15v-548q0 -15 -15 -15h-158q-13 0 -18 12l-81 205q-2 7 -6 2q-1 -1 -1 -3l2 -201q0 -15 -15 -15h-156z" />
<glyph horiz-adv-x="505" d="M36 0q-15 0 -15 15v548q0 15 15 15h156q14 0 18 -12l82 -204q2 -4 4.5 -3t2.5 5l-1 199q0 15 15 15h156q15 0 15 -15v-548q0 -15 -15 -15h-158q-13 0 -18 12l-81 205q-2 7 -6 2q-1 -1 -1 -3l2 -201q0 -15 -15 -15h-156zM158 -171q-20 0 -10 18l55 93q6 10 18 10h142 q9 0 12 -5t-3 -13l-77 -94q-7 -9 -18 -9h-119z" />
<glyph horiz-adv-x="505" d="M298 563q0 15 15 15h156q15 0 15 -15v-563q0 -43 -3.5 -68t-17 -52.5t-40 -41t-74 -22t-117.5 -6.5q-16 0 -16 15l-1 129q0 15 17 15q17 -1 27 1t14 9.5t4.5 13.5t0.5 19v7v28q0 6 -1 8l-65 162q-2 4 -4.5 4t-2.5 -5l2 -201q0 -15 -15 -15h-156q-15 0 -15 15v548 q0 15 15 15h156q14 0 18 -12l82 -204q2 -4 4.5 -3t2.5 5z" />
<glyph horiz-adv-x="505" d="M320 641q-24 0 -55 15q-6 3 -14.5 8t-14 7t-11.5 2q-17 0 -29 -18q-10 -13 -21 -5l-55 40q-10 7 -7 19q26 79 96 79q33 0 67 -22q27 -17 39 -17q19 0 31 15q10 13 20 5l53 -37q12 -9 1 -29q-34 -62 -100 -62zM36 0q-15 0 -15 15v548q0 15 15 15h156q14 0 18 -12l82 -204 q2 -4 4.5 -3t2.5 5l-1 199q0 15 15 15h156q15 0 15 -15v-548q0 -15 -15 -15h-158q-13 0 -18 12l-81 205q-2 7 -6 2q-1 -1 -1 -3l2 -201q0 -15 -15 -15h-156z" />
<glyph horiz-adv-x="463" d="M232 -7q-99 0 -157 52.5t-58 145.5v196q0 94 58 146t157 52t156.5 -52.5t57.5 -145.5v-196q0 -93 -58 -145.5t-156 -52.5zM232 154q26 0 26 29v212q0 29 -26 29q-27 0 -27 -29v-212q0 -29 27 -29z" />
<glyph horiz-adv-x="463" d="M157 637q-20 0 -10 18l55 93q6 10 18 10h142q9 0 12 -5t-3 -13l-77 -94q-8 -9 -18 -9h-119zM232 -7q-99 0 -157 52.5t-58 145.5v196q0 94 58 146t157 52t156.5 -52.5t57.5 -145.5v-196q0 -93 -58 -145.5t-156 -52.5zM232 154q26 0 26 29v212q0 29 -26 29q-27 0 -27 -29 v-212q0 -29 27 -29z" />
<glyph horiz-adv-x="463" d="M76 637q-9 0 -12 5.5t2 12.5l64 101q6 10 18 10h161q12 0 18 -10l66 -101q11 -18 -10 -18h-112q-12 0 -17 11l-20 43q-4 8 -8 0l-20 -43q-5 -11 -17 -11h-113zM232 -7q-99 0 -157 52.5t-58 145.5v196q0 94 58 146t157 52t156.5 -52.5t57.5 -145.5v-196q0 -93 -58 -145.5 t-156 -52.5zM232 154q26 0 26 29v212q0 29 -26 29q-27 0 -27 -29v-212q0 -29 27 -29z" />
<glyph horiz-adv-x="463" d="M138 617q-38 0 -62.5 24t-24.5 63t24.5 63t62.5 24t61.5 -24t23.5 -63t-23.5 -63t-61.5 -24zM331 617q-39 0 -62.5 24t-23.5 63t23.5 63t62.5 24t62.5 -24t23.5 -63t-23.5 -63t-62.5 -24zM232 -7q-99 0 -157 52.5t-58 145.5v196q0 94 58 146t157 52t156.5 -52.5 t57.5 -145.5v-196q0 -93 -58 -145.5t-156 -52.5zM232 154q26 0 26 29v212q0 29 -26 29q-27 0 -27 -29v-212q0 -29 27 -29z" />
<glyph horiz-adv-x="463" d="M298 655q10 -18 -10 -18h-119q-11 0 -18 9l-77 94q-6 8 -3 13t12 5h142q12 0 18 -10zM232 -7q-99 0 -157 52.5t-58 145.5v196q0 94 58 146t157 52t156.5 -52.5t57.5 -145.5v-196q0 -93 -58 -145.5t-156 -52.5zM232 154q26 0 26 29v212q0 29 -26 29q-27 0 -27 -29v-212 q0 -29 27 -29z" />
<glyph horiz-adv-x="463" d="M94 635q-18 0 -11 18l40 92q4 11 17 11h128q19 0 11 -18l-47 -92q-6 -11 -17 -11h-121zM275 635q-8 0 -11.5 5.5t0.5 12.5l47 92q5 11 18 11h119q19 0 11 -18l-47 -92q-6 -11 -17 -11h-120zM232 -7q-99 0 -157 52.5t-58 145.5v196q0 94 58 146t157 52t156.5 -52.5 t57.5 -145.5v-196q0 -93 -58 -145.5t-156 -52.5zM232 154q26 0 26 29v212q0 29 -26 29q-27 0 -27 -29v-212q0 -29 27 -29z" />
<glyph horiz-adv-x="463" d="M126 638q-15 0 -15 15v95q0 15 15 15h201q15 0 15 -15v-95q0 -15 -15 -15h-201zM232 -7q-99 0 -157 52.5t-58 145.5v196q0 94 58 146t157 52t156.5 -52.5t57.5 -145.5v-196q0 -93 -58 -145.5t-156 -52.5zM232 154q26 0 26 29v212q0 29 -26 29q-27 0 -27 -29v-212 q0 -29 27 -29z" />
<glyph horiz-adv-x="467" d="M387 541q-2 -5 2 -8q57 -54 57 -146v-196q0 -93 -58 -145.5t-156 -52.5q-49 0 -83 11q-5 2 -7 -3l-32 -70q-5 -11 -17 -11h-45q-19 0 -11 18l44 96q2 5 -2 8q-62 53 -62 149v196q0 94 58 146t157 52q48 0 87 -12q5 -2 7 3l42 93q4 11 17 11h46q19 0 11 -18zM205 395v-69 q0 -4 2.5 -4.5t4.5 3.5l39 87q1 4 -1 8q-5 4 -18 4q-27 0 -27 -29zM232 154q26 0 26 29v57q0 4 -3 5t-4 -3l-36 -78q-2 -6 2 -7q6 -3 15 -3z" />
<glyph horiz-adv-x="463" d="M302 637q-24 0 -55 15q-6 3 -14.5 8t-14 7t-11.5 2q-17 0 -29 -18q-10 -13 -21 -5l-55 40q-10 7 -7 19q26 79 96 79q33 0 67 -22q27 -17 39 -17q19 0 31 15q10 13 20 5l53 -37q12 -9 1 -29q-34 -62 -100 -62zM232 -7q-99 0 -157 52.5t-58 145.5v196q0 94 58 146t157 52 t156.5 -52.5t57.5 -145.5v-196q0 -93 -58 -145.5t-156 -52.5zM232 154q26 0 26 29v212q0 29 -26 29q-27 0 -27 -29v-212q0 -29 27 -29z" />
<glyph horiz-adv-x="660" d="M645 432q0 -15 -15 -15h-178q-6 0 -6 -6v-35q0 -6 6 -6h91q15 0 15 -15v-131q0 -15 -15 -15h-91q-6 0 -6 -6v-36q0 -6 6 -6h178q15 0 15 -15v-131q0 -15 -15 -15h-357q-15 0 -15 6t-7 2q-30 -15 -69 -15q-65 0 -115 54.5t-50 143.5v196q0 90 50 144t115 54q41 0 71 -15 q3 -2 7 2q3 6 13 6h357q15 0 15 -15v-131zM232 154q26 0 26 29v212q0 29 -26 29q-27 0 -27 -29v-212q0 -29 27 -29z" />
<glyph horiz-adv-x="461" d="M252 578q88 0 143.5 -54.5t55.5 -140.5q0 -83 -52.5 -133.5t-136.5 -50.5h-49q-6 0 -6 -6v-178q0 -15 -15 -15h-158q-15 0 -15 15v548q0 15 15 15h218zM219 343q44 0 44 36q0 38 -44 38h-6q-6 0 -6 -6v-62q0 -6 6 -6h6z" />
<glyph horiz-adv-x="460" d="M251 479q88 0 143.5 -54t55.5 -140q0 -84 -52.5 -135.5t-136.5 -51.5h-48q-6 0 -6 -6v-77q0 -15 -15 -15h-158q-15 0 -15 15v548q0 15 15 15h158q15 0 15 -15v-78q0 -6 6 -6h38zM218 245q44 0 44 36q0 37 -44 37h-5q-6 0 -6 -6v-61q0 -6 6 -6h5z" />
<glyph horiz-adv-x="454" d="M226 585q97 0 154 -55.5t57 -151.5v-178q0 -68 -29.5 -116.5t-82.5 -71.5q-5 -1 -5 -7v-53q0 -15 -15 -15h-158q-15 0 -15 15v53q0 6 -5 7q-52 24 -81 72t-29 116v178q0 96 57 151.5t152 55.5zM205 398v-218q0 -26 21 -26q23 0 23 26v218q0 26 -23 26q-21 0 -21 -26z" />
<glyph horiz-adv-x="470" d="M281 0q-13 0 -16 13l-52 189q-1 5 -2 5q-2 0 -2 -6v-186q0 -15 -15 -15h-158q-15 0 -15 15v548q0 15 15 15h218q88 0 143.5 -54.5t55.5 -138.5q0 -91 -65 -140q-3 -2 -2 -8l71 -220q5 -17 -13 -17h-163zM221 417h-6q-6 0 -6 -6v-55q0 -6 6 -6h6q44 0 44 33q0 34 -44 34z " />
<glyph horiz-adv-x="470" d="M352 750q9 0 12 -5t-3 -13l-77 -94q-8 -9 -18 -9h-119q-20 0 -10 18l55 93q6 10 18 10h142zM281 0q-13 0 -16 13l-52 189q-1 5 -2 5q-2 0 -2 -6v-186q0 -15 -15 -15h-158q-15 0 -15 15v548q0 15 15 15h218q88 0 143.5 -54.5t55.5 -138.5q0 -91 -65 -140q-3 -2 -2 -8 l71 -220q5 -17 -13 -17h-163zM221 417h-6q-6 0 -6 -6v-55q0 -6 6 -6h6q44 0 44 33q0 34 -44 34z" />
<glyph horiz-adv-x="470" d="M309 633q-6 -10 -18 -10h-150q-12 0 -18 10l-64 101q-5 8 -2 13t12 5h108q13 0 18 -11l23 -43q4 -9 8 0l22 43q6 11 17 11h99q9 0 12 -5t-2 -13zM281 0q-13 0 -16 13l-52 189q-1 5 -2 5q-2 0 -2 -6v-186q0 -15 -15 -15h-158q-15 0 -15 15v548q0 15 15 15h218 q88 0 143.5 -54.5t55.5 -138.5q0 -91 -65 -140q-3 -2 -2 -8l71 -220q5 -17 -13 -17h-163zM221 417h-6q-6 0 -6 -6v-55q0 -6 6 -6h6q44 0 44 33q0 34 -44 34z" />
<glyph horiz-adv-x="470" d="M211 207q-2 0 -2 -6v-186q0 -15 -15 -15h-158q-15 0 -15 15v548q0 15 15 15h218q88 0 143.5 -54.5t55.5 -138.5q0 -91 -65 -140q-3 -2 -2 -8l71 -220q5 -17 -13 -17h-163q-13 0 -16 13l-51 187q-1 7 -3 7zM221 417h-6q-6 0 -6 -6v-55q0 -6 6 -6h6q44 0 44 33q0 34 -44 34 zM130 -171q-20 0 -10 18l55 93q6 10 18 10h142q9 0 12 -5t-3 -13l-77 -94q-7 -9 -18 -9h-119z" />
<glyph horiz-adv-x="448" d="M225 -7q-93 0 -149.5 44.5t-56.5 113.5v20q0 15 15 15h156q15 0 15 -8v-8q0 -18 21 -18q20 0 20 12q0 2 -1 4.5t-4.5 5l-7 5t-10.5 6.5t-13.5 7.5t-18 10t-20.5 11.5q-33 19 -54 33t-48 39t-40.5 56.5t-13.5 69.5q0 77 56.5 125t150.5 48q93 0 150 -47t57 -122v-4 q0 -15 -15 -15h-155q-15 0 -15 7v7q0 13 -22 13t-22 -12q0 -7 43 -33q18 -12 30 -19q86 -55 123 -95.5t37 -101.5q0 -78 -57.5 -124t-150.5 -46z" />
<glyph horiz-adv-x="448" d="M146 636q-20 0 -10 18l55 93q6 10 18 10h142q9 0 12 -5.5t-3 -12.5l-77 -94q-7 -9 -18 -9h-119zM225 -7q-93 0 -149.5 44.5t-56.5 113.5v20q0 15 15 15h156q15 0 15 -8v-8q0 -18 21 -18q20 0 20 12q0 2 -1 4.5t-4.5 5l-7 5t-10.5 6.5t-13.5 7.5t-18 10t-20.5 11.5 q-33 19 -54 33t-48 39t-40.5 56.5t-13.5 69.5q0 77 56.5 125t150.5 48q93 0 150 -47t57 -122v-4q0 -15 -15 -15h-155q-15 0 -15 7v7q0 13 -22 13t-22 -12q0 -7 43 -33q18 -12 30 -19q86 -55 123 -95.5t37 -101.5q0 -78 -57.5 -124t-150.5 -46z" />
<glyph horiz-adv-x="448" d="M140 630q-12 0 -18 10l-64 101q-5 7 -2 12.5t12 5.5h108q12 0 18 -11l23 -43q4 -9 8 0l22 43q6 11 17 11h99q9 0 12 -5.5t-2 -12.5l-65 -101q-6 -10 -18 -10h-150zM225 -7q-93 0 -149.5 44.5t-56.5 113.5v20q0 15 15 15h156q15 0 15 -8v-8q0 -18 21 -18q20 0 20 12 q0 2 -1 4.5t-4.5 5l-7 5t-10.5 6.5t-13.5 7.5t-18 10t-20.5 11.5q-33 19 -54 33t-48 39t-40.5 56.5t-13.5 69.5q0 77 56.5 125t150.5 48q93 0 150 -47t57 -122v-4q0 -15 -15 -15h-155q-15 0 -15 7v7q0 13 -22 13t-22 -12q0 -7 43 -33q18 -12 30 -19q86 -55 123 -95.5 t37 -101.5q0 -78 -57.5 -124t-150.5 -46z" />
<glyph horiz-adv-x="448" d="M433 163q0 -63 -38 -106t-104 -57q-8 -2 -3 -8q44 -53 30 -113q-9 -37 -39.5 -52t-57.5 -13t-51 10q-13 3 -11 17l7 62q1 11 16 11q17 0 21 17q6 27 -38 65q-3 2 -7 4q-65 15 -102 55.5t-37 95.5v20q0 15 15 15h156q15 0 15 -8v-8q0 -18 21 -18q20 0 20 12q0 2 -1 4.5 t-4.5 5l-7 5t-10.5 6.5t-13.5 7.5t-18 10t-20.5 11.5q-33 19 -54 33t-48 39t-40.5 56.5t-13.5 69.5q0 77 56.5 125t150.5 48q93 0 150 -47t57 -122v-4q0 -15 -15 -15h-155q-15 0 -15 7v7q0 13 -22 13t-22 -12q0 -7 43 -33q18 -12 30 -19q86 -55 123 -95.5t37 -101.5z" />
<glyph horiz-adv-x="448" d="M225 -7q-93 0 -149.5 44.5t-56.5 113.5v20q0 15 15 15h156q15 0 15 -8v-8q0 -18 21 -18q20 0 20 12q0 2 -1 4.5t-4.5 5l-7 5t-10.5 6.5t-13.5 7.5t-18 10t-20.5 11.5q-33 19 -54 33t-48 39t-40.5 56.5t-13.5 69.5q0 77 56.5 125t150.5 48q93 0 150 -47t57 -122v-4 q0 -15 -15 -15h-155q-15 0 -15 7v7q0 13 -22 13t-22 -12q0 -7 43 -33q18 -12 30 -19q86 -55 123 -95.5t37 -101.5q0 -78 -57.5 -124t-150.5 -46zM121 -178q-20 0 -10 18l55 93q6 10 18 10h142q9 0 12 -5.5t-3 -12.5l-77 -94q-8 -9 -18 -9h-119z" />
<glyph horiz-adv-x="468" d="M443 578q15 0 15 -15v-131q0 -15 -15 -15h-110q-6 0 -6 -6v-396q0 -15 -15 -15h-158q-15 0 -15 15v396q0 6 -6 6h-108q-15 0 -15 15v131q0 15 15 15h418z" />
<glyph horiz-adv-x="468" d="M458 432q0 -15 -15 -15h-110q-6 0 -6 -6v-53q0 -6 6 -6h44q15 0 15 -15v-80q0 -15 -15 -15h-44q-6 0 -6 -6v-221q0 -15 -15 -15h-158q-15 0 -15 15v221q0 6 -6 6h-42q-15 0 -15 15v80q0 15 15 15h42q6 0 6 6v53q0 6 -6 6h-108q-15 0 -15 15v131q0 15 15 15h418 q15 0 15 -15v-131z" />
<glyph horiz-adv-x="468" d="M324 633q-6 -10 -18 -10h-150q-12 0 -18 10l-64 101q-5 8 -2 13t12 5h108q12 0 18 -11l23 -43q4 -9 8 0l22 43q6 11 17 11h99q9 0 12 -5t-2 -13zM443 578q15 0 15 -15v-131q0 -15 -15 -15h-110q-6 0 -6 -6v-396q0 -15 -15 -15h-158q-15 0 -15 15v396q0 6 -6 6h-108 q-15 0 -15 15v131q0 15 15 15h418z" />
<glyph horiz-adv-x="468" d="M443 578q15 0 15 -15v-131q0 -15 -15 -15h-110q-6 0 -6 -6v-396q0 -15 -15 -15h-12q-8 0 -3 -7q37 -50 24 -106q-9 -37 -39.5 -52t-57.5 -13t-51 10q-13 3 -11 17l7 62q1 11 16 11q17 0 21 17q6 23 -30 58q-3 3 -7 3h-15q-15 0 -15 15v396q0 6 -6 6h-108q-15 0 -15 15 v131q0 15 15 15h418z" />
<glyph horiz-adv-x="469" d="M443 578q15 0 15 -15v-131q0 -15 -15 -15h-110q-6 0 -6 -6v-396q0 -15 -15 -15h-158q-15 0 -15 15v396q0 6 -6 6h-108q-15 0 -15 15v131q0 15 15 15h418zM97 -170q-20 0 -10 18l55 93q6 10 18 10h142q9 0 12 -5.5t-3 -12.5l-77 -94q-7 -9 -18 -9h-119z" />
<glyph horiz-adv-x="456" d="M229 -7q-96 0 -153 52.5t-57 142.5v375q0 15 15 15h158q15 0 15 -15v-388q0 -21 22 -21q20 0 20 21v388q0 15 15 15h158q15 0 15 -15v-375q0 -90 -56.5 -142.5t-151.5 -52.5z" />
<glyph horiz-adv-x="456" d="M154 641q-20 0 -10 18l55 93q6 10 18 10h142q9 0 12 -5t-3 -13l-77 -94q-7 -9 -18 -9h-119zM229 -7q-96 0 -153 52.5t-57 142.5v375q0 15 15 15h158q15 0 15 -15v-388q0 -21 22 -21q20 0 20 21v388q0 15 15 15h158q15 0 15 -15v-375q0 -90 -56.5 -142.5t-151.5 -52.5z " />
<glyph horiz-adv-x="456" d="M73 641q-9 0 -12 5.5t2 12.5l64 101q6 10 18 10h161q12 0 18 -10l66 -101q11 -18 -10 -18h-112q-12 0 -17 11l-20 43q-4 8 -8 0l-20 -43q-5 -11 -17 -11h-113zM229 -7q-96 0 -153 52.5t-57 142.5v375q0 15 15 15h158q15 0 15 -15v-388q0 -21 22 -21q20 0 20 21v388 q0 15 15 15h158q15 0 15 -15v-375q0 -90 -56.5 -142.5t-151.5 -52.5z" />
<glyph horiz-adv-x="456" d="M135 621q-38 0 -62.5 24t-24.5 63t24.5 63t62.5 24t61.5 -24t23.5 -63t-23.5 -63t-61.5 -24zM328 621q-39 0 -62.5 24t-23.5 63t23.5 63t62.5 24t62.5 -24t23.5 -63t-23.5 -63t-62.5 -24zM229 -7q-96 0 -153 52.5t-57 142.5v375q0 15 15 15h158q15 0 15 -15v-388 q0 -21 22 -21q20 0 20 21v388q0 15 15 15h158q15 0 15 -15v-375q0 -90 -56.5 -142.5t-151.5 -52.5z" />
<glyph horiz-adv-x="456" d="M295 659q10 -18 -10 -18h-119q-10 0 -18 9l-77 94q-6 8 -3 13t12 5h142q12 0 18 -10zM229 -7q-96 0 -153 52.5t-57 142.5v375q0 15 15 15h158q15 0 15 -15v-388q0 -21 22 -21q20 0 20 21v388q0 15 15 15h158q15 0 15 -15v-375q0 -90 -56.5 -142.5t-151.5 -52.5z" />
<glyph horiz-adv-x="456" d="M91 639q-18 0 -11 18l40 92q4 11 17 11h128q19 0 11 -18l-47 -92q-6 -11 -17 -11h-121zM272 639q-8 0 -11.5 5.5t0.5 12.5l47 92q6 11 18 11h119q19 0 11 -18l-47 -92q-6 -11 -17 -11h-120zM229 -7q-96 0 -153 52.5t-57 142.5v375q0 15 15 15h158q15 0 15 -15v-388 q0 -21 22 -21q20 0 20 21v388q0 15 15 15h158q15 0 15 -15v-375q0 -90 -56.5 -142.5t-151.5 -52.5z" />
<glyph horiz-adv-x="456" d="M123 642q-15 0 -15 15v95q0 15 15 15h201q15 0 15 -15v-95q0 -15 -15 -15h-201zM229 -7q-96 0 -153 52.5t-57 142.5v375q0 15 15 15h158q15 0 15 -15v-388q0 -21 22 -21q20 0 20 21v388q0 15 15 15h158q15 0 15 -15v-375q0 -90 -56.5 -142.5t-151.5 -52.5z" />
<glyph horiz-adv-x="456" d="M249 563q0 15 15 15h158q15 0 15 -15v-375q0 -73 -37.5 -121.5t-104.5 -65.5q-5 -1 -7 -4q-44 -40 -38 -66q4 -17 21 -17q15 0 16 -11l7 -62q2 -14 -11 -17q-24 -8 -51 -10t-57.5 13t-39.5 52q-14 61 31 114q5 6 -3 8q-67 16 -105.5 65t-38.5 122v375q0 15 15 15h158 q15 0 15 -15v-388q0 -21 22 -21q20 0 20 21v388z" />
<glyph horiz-adv-x="456" d="M229 624q-49 0 -83 34t-34 83t34 82.5t83 33.5t83 -33.5t34 -82.5t-34 -83t-83 -34zM229 705q15 0 25.5 10.5t10.5 25.5q0 16 -10.5 26.5t-25.5 10.5t-25.5 -10.5t-10.5 -26.5q0 -15 10.5 -25.5t25.5 -10.5zM229 -7q-96 0 -153 52.5t-57 142.5v375q0 15 15 15h158 q15 0 15 -15v-388q0 -21 22 -21q20 0 20 21v388q0 15 15 15h158q15 0 15 -15v-375q0 -90 -56.5 -142.5t-151.5 -52.5z" />
<glyph horiz-adv-x="502" d="M171 0q-13 0 -16 13l-141 548q-5 17 13 17h172q15 0 16 -14l37 -256q1 -6 5 -3l2 3l33 256q1 14 16 14h167q18 0 13 -17l-143 -548q-3 -13 -16 -13h-158z" />
<glyph horiz-adv-x="692" d="M158 0q-13 0 -16 13l-128 548q-3 17 13 17h163q15 0 16 -14l27 -206q1 -6 5 -3q2 1 2 3l31 206q1 14 16 14h122q14 0 16 -14l36 -207q1 -6 5 -2l2 3l22 206q1 14 16 14h159q16 0 13 -17l-121 -548q-3 -13 -17 -13h-138q-13 0 -16 14l-36 205q-1 8 -5 4l-2 -4l-29 -205 q-1 -14 -16 -14h-140z" />
<glyph horiz-adv-x="692" d="M266 629q-20 0 -10 18l55 93q6 10 18 10h142q9 0 12 -5t-3 -13l-77 -94q-7 -9 -18 -9h-119zM158 0q-13 0 -16 13l-128 548q-3 17 13 17h163q15 0 16 -14l27 -206q1 -6 5 -3q2 1 2 3l31 206q1 14 16 14h122q14 0 16 -14l36 -207q1 -6 5 -2l2 3l22 206q1 14 16 14h159 q16 0 13 -17l-121 -548q-3 -13 -17 -13h-138q-13 0 -16 14l-36 205q-1 8 -5 4l-2 -4l-29 -205q-1 -14 -16 -14h-140z" />
<glyph horiz-adv-x="692" d="M185 629q-9 0 -12 5.5t2 12.5l64 101q6 10 18 10h161q12 0 18 -10l66 -101q11 -18 -10 -18h-112q-12 0 -17 11l-20 43q-4 8 -8 0l-20 -43q-5 -11 -17 -11h-113zM158 0q-13 0 -16 13l-128 548q-3 17 13 17h163q15 0 16 -14l27 -206q1 -6 5 -3q2 1 2 3l31 206q1 14 16 14 h122q14 0 16 -14l36 -207q1 -6 5 -2l2 3l22 206q1 14 16 14h159q16 0 13 -17l-121 -548q-3 -13 -17 -13h-138q-13 0 -16 14l-36 205q-1 8 -5 4l-2 -4l-29 -205q-1 -14 -16 -14h-140z" />
<glyph horiz-adv-x="692" d="M247 609q-38 0 -62.5 24t-24.5 63t24.5 63t62.5 24t61.5 -24t23.5 -63t-23.5 -63t-61.5 -24zM440 609q-39 0 -62.5 24t-23.5 63t23.5 63t62.5 24t62.5 -24t23.5 -63t-23.5 -63t-62.5 -24zM158 0q-13 0 -16 13l-128 548q-3 17 13 17h163q15 0 16 -14l27 -206q1 -6 5 -3 q2 1 2 3l31 206q1 14 16 14h122q14 0 16 -14l36 -207q1 -6 5 -2l2 3l22 206q1 14 16 14h159q16 0 13 -17l-121 -548q-3 -13 -17 -13h-138q-13 0 -16 14l-36 205q-1 8 -5 4l-2 -4l-29 -205q-1 -14 -16 -14h-140z" />
<glyph horiz-adv-x="692" d="M407 647q10 -18 -10 -18h-119q-10 0 -18 9l-77 94q-6 8 -3 13t12 5h142q12 0 18 -10zM158 0q-13 0 -16 13l-128 548q-3 17 13 17h163q15 0 16 -14l27 -206q1 -6 5 -3q2 1 2 3l31 206q1 14 16 14h122q14 0 16 -14l36 -207q1 -6 5 -2l2 3l22 206q1 14 16 14h159 q16 0 13 -17l-121 -548q-3 -13 -17 -13h-138q-13 0 -16 14l-36 205q-1 8 -5 4l-2 -4l-29 -205q-1 -14 -16 -14h-140z" />
<glyph horiz-adv-x="484" d="M29 0q-19 0 -11 18l122 267q2 4 0 8l-122 267q-8 18 11 18h160q13 0 18 -12l32 -79q4 -10 8 0l31 79q4 12 18 12h159q19 0 11 -18l-122 -267q-2 -4 0 -8l122 -267q8 -18 -11 -18h-158q-13 0 -18 12l-32 79q-4 10 -8 0l-33 -79q-5 -12 -18 -12h-159z" />
<glyph horiz-adv-x="491" d="M165 2q-15 0 -15 15v169q0 6 -1 8l-133 367q-6 17 12 17h166q14 0 17 -13l30 -138q0 -3 2 -4t4 0.5t2 3.5l31 138q3 13 16 13h167q18 0 12 -17l-136 -367q-1 -2 -1 -8v-169q0 -15 -15 -15h-158z" />
<glyph horiz-adv-x="491" d="M170 628q-20 0 -10 18l55 93q6 10 18 10h142q9 0 12 -5.5t-3 -12.5l-77 -94q-7 -9 -18 -9h-119zM165 2q-15 0 -15 15v169q0 6 -1 8l-133 367q-6 17 12 17h166q14 0 17 -13l30 -138q0 -3 2 -4t4 0.5t2 3.5l31 138q3 13 16 13h167q18 0 12 -17l-136 -367q-1 -2 -1 -8v-169 q0 -15 -15 -15h-158z" />
<glyph horiz-adv-x="491" d="M89 628q-9 0 -12 5t2 13l64 101q6 10 18 10h161q12 0 18 -10l66 -101q11 -18 -10 -18h-112q-12 0 -17 11l-20 43q-4 8 -8 0l-20 -43q-5 -11 -17 -11h-113zM165 2q-15 0 -15 15v169q0 6 -1 8l-133 367q-6 17 12 17h166q14 0 17 -13l30 -138q0 -3 2 -4t4 0.5t2 3.5l31 138 q3 13 16 13h167q18 0 12 -17l-136 -367q-1 -2 -1 -8v-169q0 -15 -15 -15h-158z" />
<glyph horiz-adv-x="491" d="M151 608q-38 0 -62.5 24t-24.5 63t24.5 63t62.5 24t61.5 -24t23.5 -63t-23.5 -63t-61.5 -24zM344 608q-39 0 -62.5 24t-23.5 63t23.5 63t62.5 24t62.5 -24t23.5 -63t-23.5 -63t-62.5 -24zM165 2q-15 0 -15 15v169q0 6 -1 8l-133 367q-6 17 12 17h166q14 0 17 -13l30 -138 q0 -3 2 -4t4 0.5t2 3.5l31 138q3 13 16 13h167q18 0 12 -17l-136 -367q-1 -2 -1 -8v-169q0 -15 -15 -15h-158z" />
<glyph horiz-adv-x="491" d="M311 646q10 -18 -10 -18h-119q-10 0 -18 9l-77 94q-6 7 -3 12.5t12 5.5h142q12 0 18 -10zM165 2q-15 0 -15 15v169q0 6 -1 8l-133 367q-6 17 12 17h166q14 0 17 -13l30 -138q0 -3 2 -4t4 0.5t2 3.5l31 138q3 13 16 13h167q18 0 12 -17l-136 -367q-1 -2 -1 -8v-169 q0 -15 -15 -15h-158z" />
<glyph horiz-adv-x="406" d="M25 0q-15 0 -15 15v136q0 9 6 18l185 241q5 7 -3 7h-173q-15 0 -15 15v131q0 15 15 15h355q15 0 15 -15v-136q0 -9 -6 -18l-187 -241q-5 -7 3 -7h175q15 0 15 -15v-131q0 -15 -15 -15h-355z" />
<glyph horiz-adv-x="406" d="M126 640q-20 0 -10 18l55 93q6 10 18 10h142q9 0 12 -5.5t-3 -12.5l-77 -94q-8 -9 -18 -9h-119zM25 0q-15 0 -15 15v136q0 9 6 18l185 241q5 7 -3 7h-173q-15 0 -15 15v131q0 15 15 15h355q15 0 15 -15v-136q0 -9 -6 -18l-187 -241q-5 -7 3 -7h175q15 0 15 -15v-131 q0 -15 -15 -15h-355z" />
<glyph horiz-adv-x="406" d="M120 634q-12 0 -18 10l-64 101q-5 7 -2 12.5t12 5.5h108q12 0 18 -11l23 -43q4 -9 8 0l22 43q6 11 17 11h99q9 0 12 -5.5t-2 -12.5l-65 -101q-6 -10 -18 -10h-150zM25 0q-15 0 -15 15v136q0 9 6 18l185 241q5 7 -3 7h-173q-15 0 -15 15v131q0 15 15 15h355q15 0 15 -15 v-136q0 -9 -6 -18l-187 -241q-5 -7 3 -7h175q15 0 15 -15v-131q0 -15 -15 -15h-355z" />
<glyph horiz-adv-x="406" d="M201 620q-35 0 -56.5 22t-21.5 57q0 36 21.5 57.5t56.5 21.5t56 -21.5t21 -57.5q0 -35 -21 -57t-56 -22zM25 0q-15 0 -15 15v136q0 9 6 18l185 241q5 7 -3 7h-173q-15 0 -15 15v131q0 15 15 15h355q15 0 15 -15v-136q0 -9 -6 -18l-187 -241q-5 -7 3 -7h175q15 0 15 -15 v-131q0 -15 -15 -15h-355z" />
<glyph horiz-adv-x="276" d="M138 -7q-58 0 -94 36.5t-36 95.5v170q0 59 36 95.5t94 36.5t94 -36.5t36 -95.5v-170q0 -59 -36 -95.5t-94 -36.5zM138 94q12 0 12 24v184q0 24 -12 24t-12 -24v-184q0 -24 12 -24z" />
<glyph horiz-adv-x="165" d="M28 415q8 5 19 5h93q15 0 15 -15v-390q0 -15 -15 -15h-88q-15 0 -15 15v298q0 6 -6 6h-7q-15 0 -15 16v57q0 12 10 18z" />
<glyph horiz-adv-x="280" d="M25 0q-15 0 -15 15v75q0 11 7 19l39 42t42 47t28 35q27 38 27 68q0 23 -13 23q-14 0 -14 -18v-19q0 -15 -15 -15h-89q-15 0 -15 15v24q4 55 39.5 84.5t96.5 29.5q129 0 129 -131q0 -55 -25 -97q-7 -11 -70 -88q-5 -8 3 -8h80q15 0 15 -15v-71q0 -15 -15 -15h-235z" />
<glyph horiz-adv-x="295" d="M287 105q1 -49 -33.5 -79.5t-90.5 -30.5q-59 0 -95.5 30.5t-36.5 79.5v20q0 15 15 15h86q15 0 15 -9v-9q0 -26 16 -26q15 0 15 26v57q0 23 -15 23q-10 0 -17 -7q-13 -10 -21 0l-42 44q-9 11 1 21l59 53q3 2 2 4.5t-5 2.5h-84q-15 0 -15 15v70q0 15 15 15h213q15 0 15 -15 v-74q0 -11 -7 -19l-37 -39q-5 -5 1 -8q21 -15 33.5 -43t12.5 -57v-60z" />
<glyph horiz-adv-x="323" d="M304 206q15 0 15 -15v-77q0 -15 -15 -15h-9q-6 0 -6 -6v-78q0 -15 -15 -15h-88q-15 0 -15 15v78q0 6 -6 6h-146q-15 0 -15 15v61q0 9 3 18l69 215q4 12 17 12h92q18 0 13 -17l-55 -190q-1 -7 5 -7h17q6 0 6 6v29q0 15 15 15h88q15 0 15 -15v-29q0 -6 6 -6h9z" />
<glyph horiz-adv-x="276" d="M176 267q44 0 68.5 -30t24.5 -82v-51q0 -51 -35.5 -80t-95.5 -29q-57 0 -92 26.5t-37 78.5v8q-1 15 14 15h88q15 0 15 -7v-7q0 -13 12 -13q13 0 13 16v37q0 16 -13 16q-3 0 -5 -1q-3 0 -6 -3q-8 -8 -13 -8h-92q-15 0 -15 15v237q0 15 15 15h231q15 0 15 -15v-71 q0 -15 -15 -15h-122q-6 0 -6 -6v-57q0 -8 7 -4q20 15 44 15z" />
<glyph horiz-adv-x="278" d="M178 267q44 0 68.5 -30t24.5 -82v-51q0 -51 -35.5 -80t-95.5 -29q-116 0 -129 105q-1 7 -1 23l-1 191q-1 51 34.5 81t94.5 30q57 0 92.5 -30t35.5 -81v-19q0 -15 -15 -15h-89q-15 0 -15 13v13q0 15 -9 15q-11 0 -11 -15v-50q0 -8 7 -4q20 15 44 15zM151 168q0 16 -12 16 t-12 -16v-56q0 -16 12 -16t12 16v56z" />
<glyph horiz-adv-x="264" d="M56 0q-18 0 -13 17l92 295q1 7 -5 7h-26q-6 0 -6 -6v-17q0 -15 -15 -15h-65q-15 0 -15 15l1 109q0 15 15 15h227q15 0 15 -15v-77q0 -9 -3 -18l-93 -298q-4 -12 -17 -12h-92z" />
<glyph horiz-adv-x="273" d="M228 220q-5 -4 0 -8q16 -12 26 -32q11 -25 11 -55q0 -27 -11 -55q-15 -34 -46 -54.5t-72 -20.5t-72.5 20t-45.5 55q-10 24 -10 55q0 32 10 55q9 21 26 32q5 5 0 8q-18 15 -26 34q-10 23 -10 53t10 53q14 32 45.5 50.5t72.5 18.5q88 0 118 -69q11 -25 11 -53 q0 -27 -11 -53q-8 -20 -26 -34zM124 278q0 -19 12 -19t12 19v32q0 18 -12 18t-12 -18v-32zM148 152q0 18 -12 18t-12 -18v-38q0 -18 12 -18t12 18v38z" />
<glyph horiz-adv-x="278" d="M269 106q1 -51 -34.5 -81t-94.5 -30q-57 0 -92.5 30t-35.5 81v19q0 15 15 15h89q15 0 15 -13v-13q0 -15 9 -15q11 0 11 15v50q0 8 -7 3q-21 -14 -44 -14q-44 0 -68.5 30t-24.5 82v51q0 51 35.5 80t95.5 29q116 0 129 -105q1 -7 1 -23zM139 236q12 0 12 16v56q0 16 -12 16 t-12 -16v-56q0 -16 12 -16z" />
<glyph horiz-adv-x="276" d="M138 274q-58 0 -94 36.5t-36 95.5v170q0 59 36 95.5t94 36.5t94 -36.5t36 -95.5v-170q0 -59 -36 -95.5t-94 -36.5zM138 375q12 0 12 24v184q0 24 -12 24t-12 -24v-184q0 -24 12 -24z" />
<glyph horiz-adv-x="165" d="M28 695q7 5 19 5h93q15 0 15 -15v-390q0 -15 -15 -15h-88q-15 0 -15 15v298q0 6 -6 6h-7q-15 0 -15 16v57q0 12 10 18z" />
<glyph horiz-adv-x="280" d="M25 283q-15 0 -15 15v75q0 11 7 19l39 42t42 47t28 35q27 38 27 68q0 23 -13 23q-14 0 -14 -18v-19q0 -15 -15 -15h-89q-15 0 -15 15v24q4 55 39.5 84.5t96.5 29.5q129 0 129 -131q0 -55 -25 -97q-7 -11 -70 -88q-5 -8 3 -8h80q15 0 15 -15v-71q0 -15 -15 -15h-235z" />
<glyph horiz-adv-x="295" d="M287 385q1 -49 -33.5 -79.5t-90.5 -30.5q-59 0 -95.5 30.5t-36.5 79.5v20q0 15 15 15h86q15 0 15 -9v-9q0 -26 16 -26q15 0 15 26v57q0 23 -15 23q-10 0 -17 -7q-13 -10 -21 0l-42 44q-9 11 1 21l59 53q3 2 2 4.5t-5 2.5h-84q-15 0 -15 15v70q0 15 15 15h213q15 0 15 -15 v-74q0 -11 -7 -19l-37 -39q-5 -5 1 -8q21 -15 33.5 -43t12.5 -57v-60z" />
<glyph horiz-adv-x="323" d="M304 486q15 0 15 -15v-77q0 -15 -15 -15h-9q-6 0 -6 -6v-78q0 -15 -15 -15h-88q-15 0 -15 15v78q0 6 -6 6h-146q-15 0 -15 15v61q0 9 3 18l69 215q4 12 17 12h92q18 0 13 -17l-55 -190q-1 -7 5 -7h17q6 0 6 6v29q0 15 15 15h88q15 0 15 -15v-29q0 -6 6 -6h9z" />
<glyph horiz-adv-x="276" d="M176 547q44 0 68.5 -30t24.5 -82v-51q0 -51 -35.5 -80t-95.5 -29q-57 0 -92 26.5t-37 78.5v8q-1 15 14 15h88q15 0 15 -7v-7q0 -13 12 -13q13 0 13 16v37q0 16 -13 16q-3 0 -5 -1q-3 0 -6 -3q-8 -8 -13 -8h-92q-15 0 -15 15v237q0 15 15 15h231q15 0 15 -15v-71 q0 -15 -15 -15h-122q-6 0 -6 -6v-57q0 -8 7 -4q20 15 44 15z" />
<glyph horiz-adv-x="278" d="M178 550q44 0 68.5 -30t24.5 -82v-51q0 -51 -35.5 -80t-95.5 -29q-116 0 -129 105q-1 7 -1 23l-1 191q-1 51 34.5 81t94.5 30q57 0 92.5 -30t35.5 -81v-19q0 -15 -15 -15h-89q-15 0 -15 13v13q0 15 -9 15q-11 0 -11 -15v-50q0 -7 7 -4q20 15 44 15zM151 451q0 16 -12 16 t-12 -16v-56q0 -16 12 -16t12 16v56z" />
<glyph horiz-adv-x="264" d="M56 280q-18 0 -13 17l92 295q1 7 -5 7h-26q-6 0 -6 -6v-17q0 -15 -15 -15h-65q-15 0 -15 15l1 109q0 15 15 15h227q15 0 15 -15v-77q0 -9 -3 -18l-93 -298q-4 -12 -17 -12h-92z" />
<glyph horiz-adv-x="273" d="M228 499q-5 -4 0 -8q16 -12 26 -32q11 -25 11 -55q0 -28 -11 -55q-15 -34 -46 -54.5t-72 -20.5t-72.5 20t-45.5 55q-10 24 -10 55q0 32 10 55q9 21 26 32q5 5 0 8q-18 15 -26 34q-10 23 -10 53t10 53q14 32 45.5 50.5t72.5 18.5q88 0 118 -69q11 -25 11 -53 q0 -27 -11 -53q-8 -20 -26 -34zM124 557q0 -19 12 -19t12 19v32q0 18 -12 18t-12 -18v-32zM148 431q0 18 -12 18t-12 -18v-38q0 -18 12 -18t12 18v38z" />
<glyph horiz-adv-x="278" d="M269 389q1 -51 -34.5 -81t-94.5 -30q-57 0 -92.5 30t-35.5 81v19q0 15 15 15h89q15 0 15 -13v-13q0 -15 9 -15q11 0 11 15v50q0 8 -7 3q-21 -14 -44 -14q-44 0 -68.5 30t-24.5 82v51q0 51 35.5 80t95.5 29q116 0 129 -105q1 -7 1 -23zM139 519q12 0 12 16v56q0 16 -12 16 t-12 -16v-56q0 -16 12 -16z" />
<glyph horiz-adv-x="762" d="M380 708q156 0 259 -100.5t103 -251.5q0 -159 -102.5 -261.5t-259.5 -102.5q-156 0 -258 102.5t-102 261.5q0 151 102.5 251.5t257.5 100.5zM380 92q113 0 186.5 74t73.5 190q0 108 -74 180t-186 72q-111 0 -184.5 -72t-73.5 -180q0 -116 73 -190t185 -74zM385 514 q58 0 93 -27.5t35 -72.5v-197q0 -15 -15 -15h-81q-15 0 -15 10q0 7 -7 2q-20 -17 -53 -17q-18 0 -31.5 3t-27 12t-21 29t-7.5 50q0 59 29.5 77.5t93.5 18.5h18q6 0 6 6v8q0 18 -17 18q-8 0 -11 -6q-10 -12 -17 -12l-84 2q-16 0 -14 14q4 46 38.5 71.5t87.5 25.5zM383 276 q7 0 13 4.5t6 11.5v13q0 6 -6 6h-9q-19 0 -19 -19q0 -16 15 -16z" />
<glyph d="M-108 -199q-39 0 -75 24q-11 7 -6 20l19 44q6 16 21 4q20 -15 30 -13q14 2 14 14q0 9 -10 9h-3l-4 -2t-4 -1q-10 -3 -17 2l-37 33q-9 9 -5 20l23 55q5 13 18 11l27 -2q19 -2 10 -19l-6 -12q-1 -4 0 -5t5 0q36 15 65 -8q34 -26 34 -80q0 -44 -28 -69t-71 -25z" />
<glyph horiz-adv-x="203" d="M95 -199q-39 0 -64 12q-12 6 -7 20l16 46q4 15 20 6q12 -7 24 -5q14 2 14 14q0 9 -10 9h-3q-1 -1 -3.5 -2t-4.5 -1q-10 -3 -17 2l-37 32q-10 10 -4 21l29 56q7 12 19 10l22 -2q20 -2 10 -19l-7 -11q-2 -4 -1 -5.5t5 0.5q35 14 64 -9q34 -26 34 -80q0 -44 -28 -69t-71 -25 z" />
<glyph />
</font>
</defs>
</svg>
